# Wavefront OBJ exported by MilkShape 3D

mtllib aerie.mtl

v 0.263443 49.861702 6.669954
v 12.153965 57.339973 0.011003
v 0.860442 58.890640 -5.776160
v -9.551861 57.876808 -1.992464
v -14.254191 55.198273 8.003958
v -9.887741 52.344505 18.654356
v 4.807981 51.465584 21.934534
v 14.967436 53.996689 12.488325
v 12.153965 57.339973 0.011003
v 0.548466 43.748825 3.210262
v 9.165554 55.310745 16.277529
v 11.865963 57.994667 6.260963
v 6.775911 60.010925 -1.263731
v -2.411332 60.504997 -3.107704
v -10.447998 59.044540 2.342806
v -10.429094 55.765663 14.579733
v -0.679738 54.087563 20.842524
v 9.165554 55.310745 16.277529
v 0.501483 41.848824 2.766993
v 1.966889 54.435066 17.613760
v 8.541723 55.652107 13.071701
v 9.028290 57.506935 6.149374
v 4.181228 59.010536 0.537907
v -3.504186 59.215965 -0.228792
v -9.461164 57.290756 6.956190
v -6.417871 55.018608 15.435991
v 1.966889 54.435066 17.613760
v 0.042865 50.779388 11.456629
v -4.042865 51.263695 4.817202
v -2.462925 51.409859 4.733080
v -2.750462 50.372093 4.781424
v -3.566526 49.829536 5.222115
v -4.433076 50.099991 5.797014
v -4.842499 51.025024 6.169344
v -4.554964 52.062798 6.121000
v -3.738900 52.605362 5.680307
v -2.872350 52.334923 5.105417
v -0.706162 51.407722 5.949110
v -1.171407 49.728592 6.027325
v -2.491826 48.850685 6.740377
v -3.893934 49.288269 7.670584
v -4.556396 50.785027 8.273020
v -4.091152 52.464157 8.194807
v -2.770735 53.342064 7.481749
v -1.368628 52.904472 6.551550
v 0.556396 51.258064 8.000805
v 0.091153 49.578918 8.079023
v -1.229266 48.701027 8.792089
v -2.631373 49.138611 9.722277
v -3.293837 50.635384 10.324713
v -2.828592 52.314499 10.246502
v -1.508174 53.192406 9.533449
v -0.106066 52.754822 8.603247
v 0.842500 51.018059 10.104490
v 0.554963 49.980301 10.152832
v -0.261098 49.437729 10.593523
v -1.127649 49.708160 11.168421
v -1.537074 50.633202 11.540752
v -1.249539 51.670975 11.492401
v -0.433475 52.213547 11.051710
v 0.433075 51.943108 10.476814
v 0.865460 49.814926 2.989382
v 1.134539 57.619400 2.823343
v 2.510962 56.825653 2.832388
v 2.096279 56.863800 1.838118
v 1.103168 56.907997 1.430286
v 0.113384 56.932373 1.847759
v -0.293273 56.922607 2.846003
v 0.121411 56.884460 3.840261
v 1.114520 56.840271 4.248108
v 2.104305 56.815887 3.830629
v 3.310249 54.844559 2.869677
v 2.639275 54.906288 1.260942
v 1.032391 54.977821 0.601036
v -0.569114 55.017250 1.276525
v -1.227099 55.001457 2.891729
v -0.556126 54.939735 4.500471
v 1.050759 54.868210 5.160379
v 2.652262 54.828789 4.484880
v 3.227097 52.432854 2.920994
v 2.556127 52.494583 1.312250
v 0.949240 52.566101 0.652351
v -0.652264 52.605522 1.327850
v -1.310249 52.589752 2.943041
v -0.639274 52.528030 4.551786
v 0.967609 52.456520 5.211689
v 2.569114 52.417091 4.536190
v 2.293271 50.511703 2.966719
v 1.878588 50.549843 1.972460
v 0.885481 50.594055 1.564615
v -0.104305 50.618431 1.982096
v -0.510961 50.608673 2.980341
v -0.096278 50.570518 3.974598
v 0.896832 50.526321 4.382441
v 1.886616 50.501961 3.964958
v 1.617398 50.030640 5.289663
v 5.382601 54.815483 10.182322
v 6.056135 54.504715 8.777182
v 5.302570 55.269463 8.680983
v 4.385263 55.500626 9.190573
v 3.841572 55.062790 10.007429
v 3.989982 54.212433 10.653053
v 4.743549 53.447685 10.749243
v 5.660847 53.216515 10.239655
v 6.204542 53.654358 9.422802
v 5.753312 53.398827 6.974337
v 4.534008 54.636230 6.818697
v 3.049783 55.010239 7.643217
v 2.170075 54.301819 8.964930
v 2.410200 52.925911 10.009563
v 3.629506 51.688522 10.165213
v 5.113727 51.314491 9.340679
v 5.993435 52.022926 8.018976
v 4.589798 51.920227 5.462420
v 3.370497 53.157623 5.306780
v 1.886273 53.531647 6.131311
v 1.006563 52.823204 7.453005
v 1.246689 51.447311 8.497652
v 2.465990 50.209908 8.653286
v 3.950218 49.835884 7.828764
v 4.829925 50.544312 6.507059
v 3.010018 50.633698 4.818933
v 2.256449 51.398430 4.722733
v 1.339149 51.629608 5.232321
v 0.795457 51.191772 6.049181
v 0.943865 50.341400 6.694807
v 1.697433 49.576645 6.791002
v 2.614740 49.345505 6.281414
v 3.158429 49.783340 5.464556
v -0.000000 51.933613 2.378748
v -0.000000 -29.538151 1.072924
v 17.637476 -21.097485 0.622025
v 13.511095 -21.986374 10.766432
v 3.062715 -21.097485 19.905218
v -8.818739 -21.097485 17.579374
v -16.573809 -21.986374 4.877197
v -16.573809 -21.097485 -6.074965
v -8.818739 -21.097485 -16.335337
v 3.062715 -21.097485 -18.661177
v 13.511095 -21.097485 -11.964180
v 4.721850 23.047798 4.045422
v 3.393587 22.747429 6.235685
v 0.790712 26.656841 8.857784
v -1.868864 28.911636 8.453043
v -3.340696 28.456770 5.210836
v -2.936096 26.116346 2.151669
v -0.844383 25.597397 0.366152
v 1.955709 23.718885 -0.038591
v 4.153986 21.359776 1.126822
v 7.912098 50.303272 2.624319
v 6.087829 45.156567 6.736574
v 2.439986 42.696991 8.850489
v -3.784141 43.551193 8.116337
v -7.212640 46.801586 6.229891
v -7.212640 49.433277 -1.468706
v -3.784141 46.801586 -4.648981
v 2.439986 46.801586 -5.556445
v 6.087829 48.668209 -2.474699
# 158 vertices

vt 0.000000 1.000000
vt 0.000000 0.746094
vt 0.142857 0.746094
vt 0.285714 0.746094
vt 0.285714 1.000000
vt 0.428571 0.746094
vt 0.571429 0.746094
vt 0.571429 1.000000
vt 0.714286 0.746094
vt 0.857143 0.746094
vt 0.857143 1.000000
vt 1.000000 0.746094
vt 0.000000 0.000000
vt 0.000000 0.200000
vt 0.125000 0.200000
vt 0.125000 0.800000
vt 0.000000 0.800000
vt 0.125000 0.000000
vt 0.250000 0.200000
vt 0.125000 1.000000
vt 0.250000 0.800000
vt 0.250000 0.000000
vt 0.375000 0.200000
vt 0.250000 1.000000
vt 0.375000 0.800000
vt 0.375000 0.000000
vt 0.500000 0.200000
vt 0.375000 1.000000
vt 0.500000 0.800000
vt 0.500000 0.000000
vt 0.625000 0.200000
vt 0.500000 1.000000
vt 0.625000 0.800000
vt 0.625000 0.000000
vt 0.750000 0.200000
vt 0.625000 1.000000
vt 0.750000 0.800000
vt 0.750000 0.000000
vt 0.875000 0.200000
vt 0.750000 1.000000
vt 0.875000 0.800000
vt 0.875000 0.000000
vt 1.000000 0.200000
vt 0.875000 1.000000
vt 1.000000 0.800000
vt 0.000000 0.400000
vt 0.125000 0.400000
vt 0.250000 0.400000
vt 0.375000 0.400000
vt 0.500000 0.400000
vt 0.625000 0.400000
vt 0.750000 0.400000
vt 0.875000 0.400000
vt 1.000000 0.400000
vt 0.000000 0.600000
vt 0.125000 0.600000
vt 0.250000 0.600000
vt 0.375000 0.600000
vt 0.500000 0.600000
vt 0.625000 0.600000
vt 0.750000 0.600000
vt 0.875000 0.600000
vt 1.000000 0.600000
vt -0.256454 -1.401716
vt -0.256454 -0.711684
vt 0.036031 -0.711684
vt -0.256454 1.358414
vt 0.036031 0.668381
vt -0.256454 0.668381
vt 0.036031 -1.401716
vt 0.328515 -0.711684
vt 0.036031 1.358414
vt 0.328515 0.668381
vt 0.328515 -1.401716
vt 0.620999 -0.711684
vt 0.328515 1.358414
vt 0.620999 0.668381
vt 0.620999 -1.401716
vt 0.913484 -0.711684
vt 0.620999 1.358414
vt 0.913484 0.668381
vt 0.913484 -1.401716
vt 1.205969 -0.711684
vt 0.913484 1.358414
vt 1.205969 0.668381
vt 1.205969 -1.401716
vt 1.498452 -0.711684
vt 1.205969 1.358414
vt 1.498452 0.668381
vt 1.498452 -1.401716
vt 1.790937 -0.711684
vt 1.498452 1.358414
vt 1.790937 0.668381
vt 1.790937 -1.401716
vt 2.083421 -0.711684
vt 1.790937 1.358414
vt 2.083421 0.668381
vt 2.083421 -1.401716
vt 2.375906 -0.711684
vt 2.083421 1.358414
vt 2.375906 0.668381
vt -0.256454 -0.021651
vt 0.036031 -0.021651
vt 0.328515 -0.021651
vt 0.620999 -0.021651
vt 0.913484 -0.021651
vt 1.205969 -0.021651
vt 1.498452 -0.021651
vt 1.790937 -0.021651
vt 2.083421 -0.021651
vt 2.375906 -0.021651
# 111 texture coordinates

vn 0.016643 0.959486 0.281266
vn -0.183029 0.799919 0.571516
vn -0.024237 0.809755 0.586268
vn 0.244688 0.834045 0.494466
vn 0.354206 0.900728 0.251451
vn 0.223447 0.974634 -0.012648
vn -0.088494 0.993019 -0.077992
vn -0.322097 0.934804 0.149648
vn -0.371036 0.872658 0.317491
vn -0.067160 0.933188 0.353057
vn -0.777933 0.626960 -0.041733
vn -0.779102 0.557597 0.286507
vn -0.454856 0.393922 0.798706
vn 0.158882 0.372774 0.914219
vn 0.683345 0.520319 0.512159
vn 0.653868 0.741174 -0.152046
vn 0.047935 0.863105 -0.502745
vn -0.329253 0.804357 -0.494572
vn -0.132551 0.938504 0.318813
vn -0.495139 0.686217 -0.532864
vn -0.741828 0.621014 -0.253045
vn -0.841565 0.374121 0.389617
vn -0.424548 0.205559 0.881762
vn 0.337889 0.235137 0.911341
vn 0.838828 0.463896 0.284898
vn 0.562800 0.707258 -0.427834
vn 0.218199 0.733680 -0.643509
vn -0.526031 0.101063 -0.844439
vn 0.363002 0.171589 -0.915853
vn 0.117278 -0.369309 -0.921877
vn 0.526031 -0.101062 0.844439
vn 0.832325 -0.535385 0.143521
vn 0.977479 0.028164 0.209147
vn -0.254362 -0.742024 -0.620242
vn 0.414784 -0.772966 0.480081
vn -0.765850 -0.512129 -0.388842
vn -0.115722 -0.688713 0.715739
vn -0.994160 -0.047902 -0.096700
vn -0.253477 -0.170913 0.952123
vn -0.829072 0.500330 -0.249621
vn -0.214255 0.424224 0.879846
vn -0.375919 0.836504 -0.398679
vn 0.308515 0.657556 0.687342
vn 0.030339 0.639320 -0.768342
vn 0.759093 0.581640 0.292358
vn 0.719500 0.155225 -0.676924
vn 0.537956 -0.569641 -0.621380
vn -0.028440 -0.952752 -0.302415
vn -0.642776 -0.760596 0.091281
vn -0.939201 -0.113032 0.324231
vn -0.751029 0.605504 0.263289
vn -0.190751 0.980186 -0.053391
vn 0.416951 0.794400 -0.441679
vn 0.939201 0.113033 -0.324230
vn 0.751027 -0.605506 -0.263287
vn 0.190751 -0.980186 0.053390
vn -0.416955 -0.794398 0.441679
vn -0.719501 -0.155223 0.676922
vn -0.537956 0.569638 0.621382
vn 0.028441 0.952752 0.302416
vn 0.642775 0.760597 -0.091281
vn 0.034640 0.999232 0.018310
vn 0.820465 0.571636 0.008346
vn 0.541719 0.670483 -0.506945
vn -0.034643 -0.999232 -0.018307
vn 0.535023 -0.621669 -0.572082
vn 0.701475 -0.712467 -0.017990
vn 0.016753 0.597126 -0.801972
vn -0.027322 -0.688013 -0.725184
vn -0.499007 0.706475 -0.501882
vn -0.582217 -0.583032 -0.566654
vn -0.778899 0.626942 0.016118
vn -0.749156 -0.662304 -0.010951
vn -0.480097 0.705087 0.521880
vn -0.591466 -0.577654 0.562569
vn 0.024757 0.603969 0.796623
vn -0.020313 -0.689335 0.724158
vn 0.532694 0.670064 0.516964
vn 0.555586 -0.617317 0.556995
vn 0.984591 0.174872 -0.000937
vn 0.699174 0.172780 -0.693760
vn 0.001877 0.192094 -0.981375
vn -0.692270 0.220898 -0.686998
vn -0.970121 0.242469 0.008565
vn -0.677210 0.244873 0.693847
vn 0.012562 0.226393 0.973955
vn 0.699211 0.197275 0.687159
vn 0.970122 -0.242469 -0.008562
vn 0.677209 -0.244872 -0.693849
vn -0.012563 -0.226394 -0.973955
vn -0.699210 -0.197278 -0.687159
vn -0.984590 -0.174874 0.000935
vn -0.699174 -0.172780 0.693760
vn -0.001872 -0.192093 0.981375
vn 0.692271 -0.220898 0.686997
vn 0.500451 0.581115 0.641759
vn 0.889929 0.430881 -0.149560
vn 0.488051 0.866318 -0.106299
vn -0.500447 -0.581118 -0.641760
vn -0.149444 0.152497 -0.976940
vn 0.189273 -0.322668 -0.927395
vn -0.078549 0.994558 0.068447
vn -0.675588 0.167276 -0.718053
vn -0.278754 0.757845 0.589887
vn -0.972624 0.036051 -0.229570
vn -0.288475 0.264182 0.920321
vn -0.879550 -0.473860 0.042991
vn 0.206688 -0.056476 0.976776
vn -0.456695 -0.861706 0.221115
vn 0.667395 -0.274267 0.692359
vn -0.002983 -0.987566 -0.157175
vn 0.952901 0.049084 0.299285
vn 0.388443 -0.742148 -0.546194
vn 0.824620 0.223230 -0.519779
vn 0.288820 0.739585 -0.607945
vn -0.361296 0.895949 -0.258344
vn -0.736391 0.594556 0.322850
vn -0.615608 0.019494 0.787812
vn -0.077478 -0.489760 0.868408
vn 0.563881 -0.640559 0.521270
vn 0.936663 -0.346298 -0.052338
vn 0.615608 -0.019494 -0.787811
vn 0.077477 0.489762 -0.868407
vn -0.563880 0.640560 -0.521270
vn -0.936663 0.346298 0.052337
vn -0.824619 -0.223230 0.519781
vn -0.288819 -0.739582 0.607949
vn 0.361297 -0.895948 0.258344
vn 0.736391 -0.594555 -0.322850
vn 0.005445 -0.999942 -0.009341
vn 0.960948 -0.264812 -0.080330
vn 0.817950 -0.187020 0.544041
vn -0.007148 0.975085 0.221716
vn 0.607166 0.160188 0.778260
vn 0.933097 0.348136 0.090173
vn 0.215834 -0.479131 0.850793
vn 0.127101 0.303241 0.944399
vn -0.541921 -0.229366 0.808525
vn -0.329147 0.164006 0.929927
vn -0.863070 -0.444148 0.240505
vn -0.681127 0.354775 0.640469
vn -0.883708 -0.134680 -0.448243
vn -0.896566 0.184640 -0.402588
vn -0.488315 -0.404138 -0.773448
vn -0.299671 0.363342 -0.882145
vn 0.298649 -0.100168 -0.949092
vn 0.095429 0.175193 -0.979898
vn 0.725906 -0.406574 -0.554759
vn 0.603740 0.490734 -0.628234
vn 0.971142 0.076817 0.225793
vn 0.808125 0.069239 0.584927
vn 0.309764 0.098068 0.945742
vn -0.572185 0.079324 0.816280
vn -0.971386 0.044629 0.233278
vn -0.860800 0.056486 -0.505800
vn -0.450351 0.059863 -0.890843
vn 0.216918 0.065424 -0.973995
vn 0.810124 0.087206 -0.579737
# 158 normals

g Plane01
usemtl Material01
s 1
f 1/1/1 2/2/2 3/3/3
f 3/3/3 4/4/4 1/5/1
f 1/5/1 4/4/4 5/6/5
f 5/6/5 6/7/6 1/8/1
f 1/8/1 6/7/6 7/9/7
f 7/9/7 8/10/8 1/11/1
f 1/11/1 8/10/8 9/12/9
# 7 triangles in group

g Duplicate01
usemtl Material01
f 10/1/10 11/2/11 12/3/12
f 12/3/12 13/4/13 10/5/10
f 10/5/10 13/4/13 14/6/14
f 14/6/14 15/7/15 10/8/10
f 10/8/10 15/7/15 16/9/16
f 16/9/16 17/10/17 10/11/10
f 10/11/10 17/10/17 18/12/18
# 7 triangles in group

g Duplicate02
usemtl Material01
f 19/1/19 20/2/20 21/3/21
f 21/3/21 22/4/22 19/5/19
f 19/5/19 22/4/22 23/6/23
f 23/6/23 24/7/24 19/8/19
f 19/8/19 24/7/24 25/9/25
f 25/9/25 26/10/26 19/11/19
f 19/11/19 26/10/26 27/12/27
# 7 triangles in group

g Sphere02
usemtl Material02
f 29/13/28 30/14/29 31/15/30
f 28/1/31 55/16/32 54/17/33
f 29/18/28 31/15/30 32/19/34
f 28/20/31 56/21/35 55/16/32
f 29/22/28 32/19/34 33/23/36
f 28/24/31 57/25/37 56/21/35
f 29/26/28 33/23/36 34/27/38
f 28/28/31 58/29/39 57/25/37
f 29/30/28 34/27/38 35/31/40
f 28/32/31 59/33/41 58/29/39
f 29/34/28 35/31/40 36/35/42
f 28/36/31 60/37/43 59/33/41
f 29/38/28 36/35/42 37/39/44
f 28/40/31 61/41/45 60/37/43
f 29/42/28 37/39/44 30/43/29
f 28/44/31 54/45/33 61/41/45
f 30/14/29 38/46/46 39/47/47
f 30/14/29 39/47/47 31/15/30
f 31/15/30 39/47/47 32/19/34
f 39/47/47 40/48/48 32/19/34
f 32/19/34 40/48/48 41/49/49
f 32/19/34 41/49/49 33/23/36
f 33/23/36 41/49/49 34/27/38
f 41/49/49 42/50/50 34/27/38
f 34/27/38 42/50/50 43/51/51
f 34/27/38 43/51/51 35/31/40
f 35/31/40 43/51/51 36/35/42
f 43/51/51 44/52/52 36/35/42
f 36/35/42 44/52/52 45/53/53
f 36/35/42 45/53/53 37/39/44
f 37/39/44 45/53/53 30/43/29
f 45/53/53 38/54/46 30/43/29
f 38/46/46 46/55/54 39/47/47
f 46/55/54 47/56/55 39/47/47
f 39/47/47 47/56/55 48/57/56
f 39/47/47 48/57/56 40/48/48
f 40/48/48 48/57/56 41/49/49
f 48/57/56 49/58/57 41/49/49
f 41/49/49 49/58/57 50/59/58
f 41/49/49 50/59/58 42/50/50
f 42/50/50 50/59/58 43/51/51
f 50/59/58 51/60/59 43/51/51
f 43/51/51 51/60/59 52/61/60
f 43/51/51 52/61/60 44/52/52
f 44/52/52 52/61/60 45/53/53
f 52/61/60 53/62/61 45/53/53
f 45/53/53 53/62/61 46/63/54
f 45/53/53 46/63/54 38/54/46
f 46/55/54 54/17/33 55/16/32
f 46/55/54 55/16/32 47/56/55
f 47/56/55 55/16/32 48/57/56
f 55/16/32 56/21/35 48/57/56
f 48/57/56 56/21/35 57/25/37
f 48/57/56 57/25/37 49/58/57
f 49/58/57 57/25/37 50/59/58
f 57/25/37 58/29/39 50/59/58
f 50/59/58 58/29/39 59/33/41
f 50/59/58 59/33/41 51/60/59
f 51/60/59 59/33/41 52/61/60
f 59/33/41 60/37/43 52/61/60
f 52/61/60 60/37/43 61/41/45
f 52/61/60 61/41/45 53/62/61
f 53/62/61 61/41/45 46/63/54
f 61/41/45 54/45/33 46/63/54
# 64 triangles in group

g Duplicate03
usemtl Material02
f 63/13/62 64/14/63 65/15/64
f 62/1/65 89/16/66 88/17/67
f 63/18/62 65/15/64 66/19/68
f 62/20/65 90/21/69 89/16/66
f 63/22/62 66/19/68 67/23/70
f 62/24/65 91/25/71 90/21/69
f 63/26/62 67/23/70 68/27/72
f 62/28/65 92/29/73 91/25/71
f 63/30/62 68/27/72 69/31/74
f 62/32/65 93/33/75 92/29/73
f 63/34/62 69/31/74 70/35/76
f 62/36/65 94/37/77 93/33/75
f 63/38/62 70/35/76 71/39/78
f 62/40/65 95/41/79 94/37/77
f 63/42/62 71/39/78 64/43/63
f 62/44/65 88/45/67 95/41/79
f 64/14/63 72/46/80 73/47/81
f 64/14/63 73/47/81 65/15/64
f 65/15/64 73/47/81 66/19/68
f 73/47/81 74/48/82 66/19/68
f 66/19/68 74/48/82 75/49/83
f 66/19/68 75/49/83 67/23/70
f 67/23/70 75/49/83 68/27/72
f 75/49/83 76/50/84 68/27/72
f 68/27/72 76/50/84 77/51/85
f 68/27/72 77/51/85 69/31/74
f 69/31/74 77/51/85 70/35/76
f 77/51/85 78/52/86 70/35/76
f 70/35/76 78/52/86 79/53/87
f 70/35/76 79/53/87 71/39/78
f 71/39/78 79/53/87 64/43/63
f 79/53/87 72/54/80 64/43/63
f 72/46/80 80/55/88 73/47/81
f 80/55/88 81/56/89 73/47/81
f 73/47/81 81/56/89 82/57/90
f 73/47/81 82/57/90 74/48/82
f 74/48/82 82/57/90 75/49/83
f 82/57/90 83/58/91 75/49/83
f 75/49/83 83/58/91 84/59/92
f 75/49/83 84/59/92 76/50/84
f 76/50/84 84/59/92 77/51/85
f 84/59/92 85/60/93 77/51/85
f 77/51/85 85/60/93 86/61/94
f 77/51/85 86/61/94 78/52/86
f 78/52/86 86/61/94 79/53/87
f 86/61/94 87/62/95 79/53/87
f 79/53/87 87/62/95 80/63/88
f 79/53/87 80/63/88 72/54/80
f 80/55/88 88/17/67 89/16/66
f 80/55/88 89/16/66 81/56/89
f 81/56/89 89/16/66 82/57/90
f 89/16/66 90/21/69 82/57/90
f 82/57/90 90/21/69 91/25/71
f 82/57/90 91/25/71 83/58/91
f 83/58/91 91/25/71 84/59/92
f 91/25/71 92/29/73 84/59/92
f 84/59/92 92/29/73 93/33/75
f 84/59/92 93/33/75 85/60/93
f 85/60/93 93/33/75 86/61/94
f 93/33/75 94/37/77 86/61/94
f 86/61/94 94/37/77 95/41/79
f 86/61/94 95/41/79 87/62/95
f 87/62/95 95/41/79 80/63/88
f 95/41/79 88/45/67 80/63/88
# 64 triangles in group

g Duplicate04
usemtl Material02
f 97/13/96 98/14/97 99/15/98
f 96/1/99 123/16/100 122/17/101
f 97/18/96 99/15/98 100/19/102
f 96/20/99 124/21/103 123/16/100
f 97/22/96 100/19/102 101/23/104
f 96/24/99 125/25/105 124/21/103
f 97/26/96 101/23/104 102/27/106
f 96/28/99 126/29/107 125/25/105
f 97/30/96 102/27/106 103/31/108
f 96/32/99 127/33/109 126/29/107
f 97/34/96 103/31/108 104/35/110
f 96/36/99 128/37/111 127/33/109
f 97/38/96 104/35/110 105/39/112
f 96/40/99 129/41/113 128/37/111
f 97/42/96 105/39/112 98/43/97
f 96/44/99 122/45/101 129/41/113
f 98/14/97 106/46/114 107/47/115
f 98/14/97 107/47/115 99/15/98
f 99/15/98 107/47/115 100/19/102
f 107/47/115 108/48/116 100/19/102
f 100/19/102 108/48/116 109/49/117
f 100/19/102 109/49/117 101/23/104
f 101/23/104 109/49/117 102/27/106
f 109/49/117 110/50/118 102/27/106
f 102/27/106 110/50/118 111/51/119
f 102/27/106 111/51/119 103/31/108
f 103/31/108 111/51/119 104/35/110
f 111/51/119 112/52/120 104/35/110
f 104/35/110 112/52/120 113/53/121
f 104/35/110 113/53/121 105/39/112
f 105/39/112 113/53/121 98/43/97
f 113/53/121 106/54/114 98/43/97
f 106/46/114 114/55/122 107/47/115
f 114/55/122 115/56/123 107/47/115
f 107/47/115 115/56/123 116/57/124
f 107/47/115 116/57/124 108/48/116
f 108/48/116 116/57/124 109/49/117
f 116/57/124 117/58/125 109/49/117
f 109/49/117 117/58/125 118/59/126
f 109/49/117 118/59/126 110/50/118
f 110/50/118 118/59/126 111/51/119
f 118/59/126 119/60/127 111/51/119
f 111/51/119 119/60/127 120/61/128
f 111/51/119 120/61/128 112/52/120
f 112/52/120 120/61/128 113/53/121
f 120/61/128 121/62/129 113/53/121
f 113/53/121 121/62/129 114/63/122
f 113/53/121 114/63/122 106/54/114
f 114/55/122 122/17/101 123/16/100
f 114/55/122 123/16/100 115/56/123
f 115/56/123 123/16/100 116/57/124
f 123/16/100 124/21/103 116/57/124
f 116/57/124 124/21/103 125/25/105
f 116/57/124 125/25/105 117/58/125
f 117/58/125 125/25/105 118/59/126
f 125/25/105 126/29/107 118/59/126
f 118/59/126 126/29/107 127/33/109
f 118/59/126 127/33/109 119/60/127
f 119/60/127 127/33/109 120/61/128
f 127/33/109 128/37/111 120/61/128
f 120/61/128 128/37/111 129/41/113
f 120/61/128 129/41/113 121/62/129
f 121/62/129 129/41/113 114/63/122
f 129/41/113 122/45/101 114/63/122
# 64 triangles in group

g Sphere01
usemtl rock
f 131/64/130 132/65/131 133/66/132
f 130/67/133 151/68/134 150/69/135
f 131/70/130 133/66/132 134/71/136
f 130/72/133 152/73/137 151/68/134
f 131/74/130 134/71/136 135/75/138
f 130/76/133 153/77/139 152/73/137
f 131/78/130 135/75/138 136/79/140
f 130/80/133 154/81/141 153/77/139
f 131/82/130 136/79/140 137/83/142
f 130/84/133 155/85/143 154/81/141
f 131/86/130 137/83/142 138/87/144
f 130/88/133 156/89/145 155/85/143
f 131/90/130 138/87/144 139/91/146
f 130/92/133 157/93/147 156/89/145
f 131/94/130 139/91/146 140/95/148
f 130/96/133 158/97/149 157/93/147
f 131/98/130 140/95/148 132/99/131
f 130/100/133 150/101/135 158/97/149
f 132/65/131 141/102/150 133/66/132
f 141/102/150 142/103/151 133/66/132
f 133/66/132 142/103/151 143/104/152
f 133/66/132 143/104/152 134/71/136
f 134/71/136 143/104/152 135/75/138
f 143/104/152 144/105/153 135/75/138
f 135/75/138 144/105/153 145/106/154
f 135/75/138 145/106/154 136/79/140
f 136/79/140 145/106/154 137/83/142
f 145/106/154 146/107/155 137/83/142
f 137/83/142 146/107/155 147/108/156
f 137/83/142 147/108/156 138/87/144
f 138/87/144 147/108/156 139/91/146
f 147/108/156 148/109/157 139/91/146
f 139/91/146 148/109/157 149/110/158
f 139/91/146 149/110/158 140/95/148
f 140/95/148 149/110/158 132/99/131
f 149/110/158 141/111/150 132/99/131
f 141/102/150 150/69/135 151/68/134
f 141/102/150 151/68/134 142/103/151
f 142/103/151 151/68/134 143/104/152
f 151/68/134 152/73/137 143/104/152
f 143/104/152 152/73/137 153/77/139
f 143/104/152 153/77/139 144/105/153
f 144/105/153 153/77/139 145/106/154
f 153/77/139 154/81/141 145/106/154
f 145/106/154 154/81/141 155/85/143
f 145/106/154 155/85/143 146/107/155
f 146/107/155 155/85/143 147/108/156
f 155/85/143 156/89/145 147/108/156
f 147/108/156 156/89/145 157/93/147
f 147/108/156 157/93/147 148/109/157
f 148/109/157 157/93/147 149/110/158
f 157/93/147 158/97/149 149/110/158
f 149/110/158 158/97/149 150/101/135
f 149/110/158 150/101/135 141/111/150
# 54 triangles in group

# 267 triangles total

