# Wavefront OBJ exported by MilkShape 3D

mtllib axe.mtl

v 16.317007 1.533928 -0.629311
v -13.360538 3.609184 -0.629311
v 16.399931 2.719854 0.234418
v -13.277611 4.795111 0.234418
v 16.368267 2.266872 1.631960
v -13.309282 4.342126 1.631960
v 16.265753 0.800987 1.631960
v -13.411787 2.876242 1.631960
v 16.234081 0.348004 0.234417
v -13.443464 2.423259 0.234417
v -14.165024 3.665440 0.620689
v 17.121485 1.477674 0.620689
v -0.496469 2.133905 -7.111998
v -0.481562 2.454593 -7.111998
v -1.525943 0.645217 -4.868713
v -1.363968 4.129503 -4.868713
v -4.285973 0.914044 -1.664291
v -4.123996 4.398330 -1.664291
v -4.886512 0.972535 3.299305
v -4.724536 4.456822 3.299305
v -10.679436 1.536768 3.254105
v -10.517456 5.021055 3.254105
v -11.510860 1.617749 -1.917678
v -11.348885 5.102037 -1.917678
v -13.653635 1.826456 -4.773829
v -13.491657 5.310743 -4.773829
v -14.552767 3.502993 -7.015967
v -14.537857 3.823679 -7.015967
v -9.552843 3.177068 -10.503612
v -5.540167 2.786232 -10.656965
v -2.186719 2.459606 -9.604172
v -7.839964 4.760267 -6.347708
v -8.001938 1.275980 -6.347708
v -12.378687 3.452307 -9.263309
# 34 vertices

vt 0.737394 0.846425
vt 0.737394 0.247600
vt 0.836446 0.247600
vt 0.836446 0.846425
vt 0.935498 0.846425
vt 0.935498 0.247600
vt 1.034550 0.247600
vt 1.034550 0.846425
vt 1.133602 0.846425
vt 1.133602 0.247600
vt 1.232654 0.247600
vt 1.232654 0.846425
vt 0.778511 0.028877
vt 0.583701 0.121318
vt 0.683194 0.536737
vt 0.683102 0.526324
vt 0.583609 0.110908
vt 0.377569 0.300540
vt 0.377478 0.290129
vt 0.056212 0.341952
vt 0.056120 0.331541
vt 0.062397 0.714275
vt 0.062306 0.703863
vt 0.398052 0.764786
vt 0.397960 0.754375
vt 0.584365 0.900899
vt 0.584274 0.890486
vt 0.730185 0.957421
vt 0.874616 0.816406
vt 0.953413 0.634067
vt 0.961098 0.376061
vt 0.928481 0.154859
# 32 texture coordinates

vn 0.838253 -0.058614 -0.542122
vn 0.874217 0.455718 -0.167528
vn 0.997564 -0.069757 -0.000002
vn -0.838250 0.058615 -0.542126
vn -0.997564 0.069756 0.000002
vn -0.802285 0.572952 -0.167525
vn -0.016419 -0.234803 -0.971904
vn 0.016419 0.234803 -0.971904
vn 0.066342 0.948740 -0.309017
vn 0.860483 0.259257 0.438583
vn -0.816021 0.376493 0.438592
vn 0.041002 0.586353 0.809017
vn 0.816024 -0.376494 0.438586
vn -0.860477 -0.259262 0.438591
vn -0.041002 -0.586353 0.809017
vn 0.802288 -0.572949 -0.167524
vn -0.874216 -0.455721 -0.167525
vn -0.066342 -0.948740 -0.309017
vn 0.068010 -0.925936 -0.371507
vn -0.029094 -0.959080 -0.281635
vn -0.102261 -0.970461 -0.218513
vn 0.243251 0.897919 -0.366838
vn 0.085795 0.971963 -0.218923
vn 0.155902 0.947710 -0.278459
vn 0.994151 -0.046211 -0.097610
vn 0.995472 -0.046274 0.083036
vn 0.847188 -0.039383 0.529831
vn -0.096941 -0.995290 -0.000000
vn 0.096941 0.995290 0.000000
vn 0.913414 -0.042462 0.404811
vn 0.659501 -0.030659 0.751078
vn -0.650613 0.030246 0.758807
vn -0.919045 0.042725 0.391829
vn -0.168285 -0.947176 -0.273018
vn 0.016511 0.960798 -0.276756
vn -0.862918 0.040116 0.503749
vn -0.259396 -0.881449 -0.394665
vn -0.087577 0.912084 -0.400541
vn -0.998109 0.046403 0.040304
vn -0.982937 0.045700 -0.178177
vn -0.499858 0.045682 -0.864902
vn -0.717948 0.033380 -0.695296
vn -0.217600 0.019710 -0.975839
vn 0.121479 -0.011149 -0.992531
vn 0.485381 -0.045145 -0.873136
vn 0.824667 -0.038333 -0.564318
# 46 normals

g Cylinder02
usemtl Material01
s 2
f 1/1/1 3/1/2 12/1/3
f 2/1/4 11/1/5 4/1/6
s 1
f 1/2/7 2/1/8 3/3/9
f 2/1/8 4/4/9 3/3/9
s 2
f 3/1/2 5/1/10 12/1/3
f 4/1/6 11/1/5 6/1/11
s 1
f 3/3/9 4/4/9 6/5/12
f 3/3/9 6/5/12 5/6/12
s 2
f 5/1/10 7/1/13 12/1/3
f 6/1/11 11/1/5 8/1/14
s 1
f 5/6/12 6/5/12 7/7/15
f 6/5/12 8/8/15 7/7/15
s 2
f 7/1/13 9/1/16 12/1/3
f 8/1/14 11/1/5 10/1/17
s 1
f 7/7/15 8/8/15 10/9/18
f 7/7/15 10/9/18 9/10/18
s 2
f 9/1/16 1/1/1 12/1/3
f 10/1/17 11/1/5 2/1/4
s 1
f 9/10/18 10/9/18 1/11/7
f 10/9/18 2/12/8 1/11/7
# 20 triangles in group

g Cylinder02
usemtl Material02
s 2
f 13/13/19 15/14/20 33/15/21
f 14/13/22 32/16/23 16/17/24
s 1
f 13/13/25 14/13/26 15/14/27
f 14/13/26 16/17/27 15/14/27
s 2
f 15/14/20 17/18/28 33/15/21
f 16/17/24 32/16/23 18/19/29
s 1
f 15/14/27 16/17/27 18/19/30
f 15/14/27 18/19/30 17/18/30
s 2
f 17/18/28 19/20/28 33/15/21
f 18/19/29 32/16/23 20/21/29
s 1
f 17/18/30 18/19/30 19/20/31
f 18/19/30 20/21/31 19/20/31
s 2
f 19/20/28 21/22/28 33/15/21
f 20/21/29 32/16/23 22/23/29
s 1
f 19/20/31 20/21/31 22/23/32
f 19/20/31 22/23/32 21/22/32
s 2
f 21/22/28 23/24/28 33/15/21
f 22/23/29 32/16/23 24/25/29
s 1
f 21/22/32 22/23/32 23/24/33
f 22/23/32 24/25/33 23/24/33
s 2
f 23/24/28 25/26/34 33/15/21
f 24/25/29 32/16/23 26/27/35
s 1
f 23/24/33 24/25/33 26/27/36
f 23/24/33 26/27/36 25/26/36
s 2
f 25/26/34 27/28/37 33/15/21
f 26/27/35 32/16/23 28/28/38
s 1
f 25/26/36 26/27/36 27/28/39
f 26/27/36 28/28/40 27/28/39
s 2
f 27/28/37 34/29/41 33/15/21
f 28/28/38 32/16/23 34/29/41
s 1
f 27/28/39 28/28/40 34/29/42
s 2
f 34/29/41 29/30/43 33/15/21
f 34/29/41 32/16/23 29/30/43
f 29/30/43 30/31/44 33/15/21
f 29/30/43 32/16/23 30/31/44
f 30/31/44 31/32/45 33/15/21
f 30/31/44 32/16/23 31/32/45
f 31/32/45 13/13/19 33/15/21
f 31/32/45 32/16/23 14/13/22
s 1
f 31/32/46 14/13/26 13/13/25
# 40 triangles in group

# 60 triangles total

