# Wavefront OBJ exported by MilkShape 3D

mtllib bambooitem.mtl

v 4.539060 2.654480 -25.221992
v 3.323666 3.781036 25.650547
v 1.223368 -1.007782 -24.717651
v 0.847791 1.631130 25.946648
v -4.141537 0.391087 -24.910294
v -3.158265 2.452295 25.833553
v -4.141537 4.917805 -25.533691
v -3.158265 5.108671 25.467722
v 1.223368 6.317852 -25.726517
v 0.847791 5.929729 25.354643
# 10 vertices

vt -0.513471 -6.073034
vt -0.513471 -1.944859
vt -0.271890 -1.944859
vt -0.271890 -6.073034
vt -0.030308 -6.073034
vt -0.030308 -1.944859
vt 0.211273 -1.944859
vt 0.211273 -6.073034
vt 0.452855 -6.073034
vt 0.452855 -1.944859
vt 0.694438 -1.944859
vt 0.694438 -6.073034
# 12 texture coordinates

vn 0.943435 -0.329885 0.033252
vn 0.637407 0.305016 0.707586
vn 0.243072 -0.781676 0.574368
vn 0.286815 -0.956576 0.051951
vn -0.784040 -0.619307 0.041716
vn -0.442457 -0.241442 0.863677
vn -0.635486 0.523452 0.567587
vn -0.790427 0.612419 0.012947
vn 0.269097 0.963095 0.005884
vn 0.150625 0.582035 0.799092
# 10 normals

g Cylinder01
usemtl bamboo
s 1
f 1/1/1 2/2/2 4/3/3
f 1/1/1 4/3/3 3/4/4
f 3/4/4 4/3/3 5/5/5
f 4/3/3 6/6/6 5/5/5
f 5/5/5 6/6/6 8/7/7
f 5/5/5 8/7/7 7/8/8
f 7/8/8 8/7/7 9/9/9
f 8/7/7 10/10/10 9/9/9
f 9/9/9 10/10/10 2/11/2
f 9/9/9 2/11/2 1/12/1
# 10 triangles in group

# 10 triangles total

