# Wavefront OBJ exported by MilkShape 3D

mtllib bamboohut01.mtl

v -25.158087 37.605766 -20.213289
v -25.158087 -3.622456 -20.213289
v 25.153742 37.605766 -20.213289
v 25.153742 -3.622456 -20.213289
v 25.153742 36.944099 -21.359863
v 25.153742 -3.622456 -21.608696
v -25.158087 36.944099 -21.359863
v -25.158087 -3.622456 -21.608696
v -28.724554 -18.422457 -21.446268
v -27.150398 -18.422457 -23.297808
v -26.785032 -18.422457 -21.193007
v -28.724554 37.022873 -21.446268
v -26.785032 37.022873 -21.193007
v -27.150398 37.022873 -23.297806
v -28.724554 -18.422457 -21.446268
v -27.150398 -18.422457 -23.297808
v -27.150398 37.022873 -23.297806
v -25.071302 -18.422457 -22.240583
v -25.071302 37.022873 -22.240583
v -25.071302 37.022873 -22.240583
v -25.071302 -18.422457 -22.240583
v -25.360508 -18.422457 -19.735640
v -25.360508 37.022873 -19.735640
v -25.360508 -18.422457 -19.735640
v -25.360508 37.022873 -19.735640
v -27.618345 -18.422457 -19.244730
v -27.618345 37.022873 -19.244730
v -27.618345 37.022873 -19.244730
v -27.618345 -18.422457 -19.244730
v -28.724554 -18.422457 -21.446268
v -28.724554 37.022873 -21.446268
v -25.949911 48.002579 0.476679
v -26.701523 34.479218 -25.911938
v 25.945580 48.002579 0.476679
v 25.899359 34.479218 -25.911938
v 25.945580 48.002579 0.476679
v 25.899359 34.479218 -25.911938
v 25.945580 49.089943 0.476679
v 25.945580 49.089943 0.476679
v -25.949911 49.089943 0.476679
v -26.701523 34.479218 -25.911938
v -25.949911 49.089943 0.476679
v -25.949911 48.002579 0.476679
v -25.949911 48.002579 0.476679
v 25.945580 48.002579 0.476679
v -28.724554 33.435474 -27.483723
v -27.150398 34.942673 -28.437336
v -26.785032 33.229324 -27.353283
v -28.724554 54.369392 9.202811
v -26.785032 54.163200 9.333239
v -27.150398 55.876591 8.249187
v -28.724554 33.435474 -27.483723
v -27.150398 34.942673 -28.437336
v -27.150398 55.876591 8.249187
v -25.071302 34.082085 -27.892828
v -25.071302 55.015968 8.793714
v -25.071302 55.015968 8.793714
v -25.071302 34.082085 -27.892828
v -25.360508 32.042992 -26.602684
v -25.360508 52.976894 10.083838
v -25.360508 32.042992 -26.602684
v -25.360508 52.976894 10.083838
v -27.618345 31.643387 -26.349842
v -27.618345 52.577267 10.336665
v -27.618345 52.577267 10.336665
v -27.618345 31.643387 -26.349842
v -28.724554 33.435474 -27.483723
v -28.724554 54.369392 9.202811
v 25.945580 49.089943 0.476679
v -25.949911 48.002579 0.476679
v -25.949911 49.089943 0.476679
v 25.945580 48.002579 0.476679
v 25.153742 37.605766 21.096136
v -25.158087 -3.622456 21.096136
v -25.158087 37.605766 21.096136
v 25.153742 -3.622456 21.096136
v 25.153742 36.944092 22.242712
v 25.153742 -3.622456 22.491547
v -25.158087 36.944092 22.242712
v -25.158087 -3.622456 22.491547
v -26.785032 -18.422457 21.652838
v -27.150398 -18.422457 23.757635
v -28.724554 -18.422457 21.906107
v -27.150398 37.022888 23.757635
v -26.785032 37.022888 21.652840
v -28.724554 37.022888 21.906107
v -27.150398 -18.422457 23.757635
v -28.724554 -18.422457 21.906107
v -27.150398 37.022888 23.757635
v -25.071302 -18.422457 22.700411
v -25.071302 37.022888 22.700411
v -25.071302 37.022888 22.700411
v -25.071302 -18.422457 22.700411
v -25.360508 -18.422457 20.195467
v -25.360508 37.022888 20.195467
v -25.360508 -18.422457 20.195467
v -25.360508 37.022888 20.195467
v -27.618345 -18.422457 19.704561
v -27.618345 37.022888 19.704561
v -27.618345 37.022888 19.704561
v -27.618345 -18.422457 19.704561
v -28.724554 -18.422457 21.906107
v -28.724554 37.022888 21.906107
v -26.785032 33.229340 27.813110
v -27.150398 34.942688 28.897163
v -28.724554 33.435493 27.943560
v -27.150398 55.876598 -7.789356
v -26.785032 54.163216 -8.873407
v -28.724554 54.369400 -8.742980
v -27.150398 34.942688 28.897163
v -28.724554 33.435493 27.943560
v -27.150398 55.876598 -7.789356
v -25.071302 34.082088 28.352661
v -25.071302 55.015972 -8.333885
v -25.071302 55.015972 -8.333885
v -25.071302 34.082088 28.352661
v -25.360508 32.043007 27.062517
v -25.360508 52.976910 -9.624005
v -25.360508 32.043007 27.062517
v -25.360508 52.976910 -9.624005
v -27.618345 31.643398 26.809677
v -27.618345 52.577282 -9.876834
v -27.618345 52.577282 -9.876834
v -27.618345 31.643398 26.809677
v -28.724554 33.435493 27.943560
v -28.724554 54.369400 -8.742980
v 26.780676 -18.422457 -21.122503
v 27.146048 -18.422457 -23.227304
v 28.720205 -18.422457 -21.375769
v 27.146048 37.022865 -23.227303
v 26.780676 37.022865 -21.122501
v 28.720205 37.022865 -21.375769
v 27.146048 -18.422457 -23.227304
v 28.720205 -18.422457 -21.375769
v 27.146048 37.022865 -23.227303
v 25.066963 -18.422457 -22.170076
v 25.066963 37.022865 -22.170076
v 25.066963 37.022865 -22.170076
v 25.066963 -18.422457 -22.170076
v 25.356167 -18.422457 -19.665136
v 25.356167 37.022865 -19.665134
v 25.356167 -18.422457 -19.665136
v 25.356167 37.022865 -19.665134
v 27.613995 -18.422457 -19.174231
v 27.613995 37.022865 -19.174229
v 27.613995 37.022865 -19.174229
v 27.613995 -18.422457 -19.174231
v 28.720205 -18.422457 -21.375769
v 28.720205 37.022865 -21.375769
v 26.780676 33.229324 -27.282774
v 27.146048 34.942673 -28.366823
v 28.720205 33.435471 -27.413221
v 27.146048 55.876579 8.319691
v 26.780676 54.163181 9.403745
v 28.720205 54.369389 9.273317
v 27.146048 34.942673 -28.366823
v 28.720205 33.435471 -27.413221
v 27.146048 55.876579 8.319691
v 25.066963 34.082077 -27.822327
v 25.066963 55.015965 8.864221
v 25.066963 55.015965 8.864221
v 25.066963 34.082077 -27.822327
v 25.356167 32.042984 -26.532183
v 25.356167 52.976891 10.154345
v 25.356167 32.042984 -26.532183
v 25.356167 52.976891 10.154345
v 27.613995 31.643379 -26.279341
v 27.613995 52.577267 10.407172
v 27.613995 52.577267 10.407172
v 27.613995 31.643379 -26.279341
v 28.720205 33.435471 -27.413221
v 28.720205 54.369389 9.273317
v 28.720205 -18.422457 21.976606
v 27.146048 -18.422457 23.828146
v 26.780676 -18.422457 21.723345
v 28.720205 37.022881 21.976608
v 26.780676 37.022881 21.723345
v 27.146048 37.022881 23.828148
v 28.720205 -18.422457 21.976606
v 27.146048 -18.422457 23.828146
v 27.146048 37.022881 23.828148
v 25.066963 -18.422457 22.770918
v 25.066963 37.022881 22.770918
v 25.066963 37.022881 22.770918
v 25.066963 -18.422457 22.770918
v 25.356167 -18.422457 20.265974
v 25.356167 37.022881 20.265976
v 25.356167 -18.422457 20.265974
v 25.356167 37.022881 20.265976
v 27.613995 -18.422457 19.775064
v 27.613995 37.022881 19.775066
v 27.613995 37.022881 19.775066
v 27.613995 -18.422457 19.775064
v 28.720205 -18.422457 21.976606
v 28.720205 37.022881 21.976608
v 28.720205 33.435478 28.014063
v 27.146048 34.942684 28.967669
v 26.780676 33.229332 27.883612
v 28.720205 54.369396 -8.672477
v 26.780676 54.163216 -8.802901
v 27.146048 55.876595 -7.718851
v 28.720205 33.435478 28.014063
v 27.146048 34.942684 28.967669
v 27.146048 55.876595 -7.718851
v 25.066963 34.082085 28.423168
v 25.066963 55.015972 -8.263378
v 25.066963 55.015972 -8.263378
v 25.066963 34.082085 28.423168
v 25.356167 32.042995 27.133024
v 25.356167 52.976906 -9.553500
v 25.356167 32.042995 27.133024
v 25.356167 52.976906 -9.553500
v 27.613995 31.643387 26.880180
v 27.613995 52.577271 -9.806327
v 27.613995 52.577271 -9.806327
v 27.613995 31.643387 26.880180
v 28.720205 33.435478 28.014063
v 28.720205 54.369396 -8.672477
v -26.843851 50.498798 -0.295258
v -26.843843 48.933811 -2.146792
v -26.843868 48.570549 -0.041992
v 26.972073 50.498798 -0.295258
v 26.972088 48.570560 -0.041992
v 26.972088 48.933811 -2.146792
v -26.843851 50.498798 -0.295258
v -26.843843 48.933811 -2.146792
v 26.972088 48.933811 -2.146792
v -26.843868 46.866821 -1.089564
v 26.972082 46.866821 -1.089564
v 26.972082 46.866821 -1.089564
v -26.843868 46.866821 -1.089564
v -26.843868 47.154320 1.415374
v 26.972076 47.154320 1.415374
v -26.843868 47.154320 1.415374
v 26.972076 47.154320 1.415374
v -26.843843 49.399029 1.906286
v 26.972076 49.399029 1.906286
v 26.972076 49.399029 1.906286
v -26.843843 49.399029 1.906286
v -26.843851 50.498798 -0.295258
v 26.972073 50.498798 -0.295258
v 25.899359 34.479218 -25.911938
v 25.853138 30.503395 -29.222771
v -26.701523 34.479218 -25.911938
v -27.453136 30.503395 -29.222771
v -26.701523 34.983685 26.100925
v 25.853138 30.503395 29.222771
v 25.899359 34.983685 26.100925
v -27.453136 30.503395 29.222771
v 25.945580 48.440079 -0.289179
v -26.701523 34.983685 26.100925
v -25.949911 48.440079 -0.289179
v 25.899359 34.983685 26.100925
v 25.945580 49.527443 -0.289179
v 25.899359 34.983685 26.100925
v 25.945580 48.440079 -0.289179
v -25.949911 49.527443 -0.289179
v 25.945580 49.527443 -0.289179
v -26.701523 34.983685 26.100925
v -25.949911 48.440079 -0.289179
v -25.949911 49.527443 -0.289179
v -25.949911 48.440079 -0.289179
v 25.945580 48.440079 -0.289179
# 263 vertices

vt 8.203615 0.773516
vt 3.009449 0.718915
vt 8.277334 -6.239224
vt 3.083169 -6.293828
vt -0.031620 1.365310
vt -0.031620 -3.288126
vt 0.231684 -3.288126
vt 0.231684 1.365310
vt 0.494988 1.365310
vt 0.494988 -3.288126
vt 0.758292 -3.288126
vt 0.758292 1.365310
vt 1.021595 1.365310
vt 1.021595 -3.288126
vt 1.284899 -3.288126
vt 1.284899 1.365310
vt -0.048643 1.031075
vt -0.048643 -1.045466
vt 4.190299 1.031075
vt 4.190299 -1.045466
vt 13.114292 -3.768760
vt 7.983864 3.291347
vt 13.178106 3.244081
vt 7.920052 -3.721496
vt 0.000000 0.992188
vt 0.000000 0.750000
vt 1.000000 0.992188
vt 1.000000 0.750000
vt 0.992188 0.992188
vt -0.007813 0.750000
vt -0.007813 0.992188
vt 0.992188 0.750000
# 32 texture coordinates

vn 0.000000 0.000000 1.000000
vn 1.000000 0.000000 0.000000
vn 0.000000 0.006134 -0.999981
vn -1.000000 0.000000 0.000000
vn 0.000000 0.866126 -0.499826
vn 0.000000 -1.000000 0.000000
vn 0.000000 1.000000 0.000000
vn -0.761869 0.000000 -0.647731
vn -0.196595 0.000000 -0.980485
vn 0.881053 0.000000 -0.473018
vn 0.741278 0.000000 0.671198
vn -0.430946 0.000000 0.902378
vn -0.893542 0.000000 0.448979
vn 0.000000 -0.889944 0.456069
vn -0.444728 -0.791888 0.418485
vn 0.999998 0.000000 -0.001752
vn 0.447061 0.782228 -0.433884
vn 0.447527 0.000000 0.894271
vn 0.000000 0.874855 -0.484385
vn -0.696968 0.000000 0.717102
vn -0.999595 0.000000 0.028471
vn 0.000003 -0.534677 -0.845057
vn 0.000013 0.534668 0.845062
vn -0.749404 0.575076 -0.328147
vn -0.194795 0.851909 -0.486113
vn 0.878463 0.415000 -0.236806
vn 0.737133 -0.586919 0.334905
vn -0.427442 -0.785204 0.448050
vn -0.886428 -0.402022 0.229400
vn 0.000000 0.000000 -1.000000
vn 0.000000 0.006134 0.999981
vn 0.000000 0.866124 0.499829
vn -0.196593 0.000000 0.980485
vn -0.761867 0.000000 0.647734
vn 0.881053 0.000000 0.473018
vn 0.741277 0.000000 -0.671199
vn -0.430947 0.000000 -0.902377
vn -0.893543 0.000000 -0.448978
vn 0.000000 -0.534675 0.845058
vn 0.000002 0.534668 -0.845062
vn -0.194793 0.851910 0.486113
vn -0.749404 0.575076 0.328147
vn 0.878464 0.414999 0.236805
vn 0.737133 -0.586919 -0.334905
vn -0.427441 -0.785204 -0.448050
vn -0.886428 -0.402022 -0.229400
vn 0.196592 0.000000 -0.980485
vn 0.761868 0.000000 -0.647733
vn -0.881054 0.000000 -0.473016
vn -0.741278 -0.000000 0.671199
vn 0.430946 -0.000000 0.902378
vn 0.893542 -0.000000 0.448979
vn 0.194793 0.851910 -0.486113
vn 0.749404 0.575077 -0.328148
vn -0.878463 0.415000 -0.236805
vn -0.737133 -0.586919 0.334905
vn 0.427441 -0.785204 0.448050
vn 0.886428 -0.402022 0.229400
vn 0.761868 -0.000000 0.647732
vn 0.196592 -0.000000 0.980485
vn -0.881054 -0.000000 0.473016
vn -0.741278 0.000000 -0.671198
vn 0.430945 0.000000 -0.902378
vn 0.893542 0.000000 -0.448979
vn 0.749404 0.575076 0.328147
vn 0.194793 0.851910 0.486113
vn -0.878464 0.414999 0.236805
vn -0.737134 -0.586918 -0.334904
vn 0.427440 -0.785205 -0.448050
vn 0.886428 -0.402022 -0.229400
vn 0.000000 0.763731 -0.645535
vn 0.000000 0.196847 -0.980434
vn 0.000000 -0.881453 -0.472272
vn 0.000000 -0.741911 0.670499
vn 0.000000 0.431453 0.902135
vn 0.000000 0.894590 0.446888
vn 0.000000 0.639916 -0.768445
vn 0.000000 0.571696 0.820465
vn 0.000000 -0.890870 -0.454258
vn -0.444738 -0.792729 -0.416881
vn 0.447527 0.000000 -0.894271
vn 0.447062 0.783080 0.432344
vn 0.999998 0.000000 0.001751
vn 0.000000 0.875806 0.482663
vn -0.999595 0.000000 -0.028469
vn -0.696969 0.000000 -0.717102
# 86 normals

g Box01
usemtl bamboowall
s 1
f 1/1/1 2/2/1 3/3/1
f 2/2/1 4/4/1 3/3/1
s 2
f 3/3/2 4/4/2 5/3/2
f 4/4/2 6/4/2 5/3/2
s 1
f 5/3/3 6/4/3 7/1/3
f 6/4/3 8/2/3 7/1/3
s 2
f 7/1/4 8/2/4 1/1/4
f 8/2/4 2/2/4 1/1/4
s 3
f 7/1/5 1/1/5 5/3/5
f 1/1/5 3/3/5 5/3/5
f 2/2/6 8/2/6 4/4/6
f 8/2/6 6/4/6 4/4/6
# 12 triangles in group

g Cylinder01
usemtl bamboo
s 2
f 9/5/6 10/5/6 11/5/6
f 12/5/7 13/5/7 14/5/7
s 1
f 15/6/8 12/5/8 16/7/9
f 12/5/8 17/8/9 16/7/9
s 2
f 10/5/6 18/5/6 11/5/6
f 14/5/7 13/5/7 19/5/7
s 1
f 16/7/9 17/8/9 20/9/10
f 16/7/9 20/9/10 21/10/10
s 2
f 18/5/6 22/5/6 11/5/6
f 19/5/7 13/5/7 23/5/7
s 1
f 21/10/10 20/9/10 24/11/11
f 20/9/10 25/12/11 24/11/11
s 2
f 22/5/6 26/5/6 11/5/6
f 23/5/7 13/5/7 27/5/7
s 1
f 24/11/11 25/12/11 28/13/12
f 24/11/11 28/13/12 29/14/12
s 2
f 26/5/6 9/5/6 11/5/6
f 27/5/7 13/5/7 12/5/7
s 1
f 29/14/12 28/13/12 30/15/13
f 28/13/12 31/16/13 30/15/13
# 20 triangles in group

g Box01
usemtl thatch
s 20
f 32/17/14 33/18/15 34/19/14
f 33/18/15 35/20/14 34/19/14
f 36/17/16 37/18/17 38/19/18
f 39/17/19 37/18/17 40/19/19
f 37/18/17 41/20/19 40/19/19
f 42/17/20 33/18/15 43/19/21
f 42/17/20 44/18/1 38/19/18
f 44/18/1 45/20/1 38/19/18
# 8 triangles in group

g Duplicate02
usemtl bamboo
s 2
f 46/5/22 47/5/22 48/5/22
f 49/5/23 50/5/23 51/5/23
s 1
f 52/6/24 49/5/24 53/7/25
f 49/5/24 54/8/25 53/7/25
s 2
f 47/5/22 55/5/22 48/5/22
f 51/5/23 50/5/23 56/5/23
s 1
f 53/7/25 54/8/25 57/9/26
f 53/7/25 57/9/26 58/10/26
s 2
f 55/5/22 59/5/22 48/5/22
f 56/5/23 50/5/23 60/5/23
s 1
f 58/10/26 57/9/26 61/11/27
f 57/9/26 62/12/27 61/11/27
s 2
f 59/5/22 63/5/22 48/5/22
f 60/5/23 50/5/23 64/5/23
s 1
f 61/11/27 62/12/27 65/13/28
f 61/11/27 65/13/28 66/14/28
s 2
f 63/5/22 46/5/22 48/5/22
f 64/5/23 50/5/23 49/5/23
s 1
f 66/14/28 65/13/28 67/15/29
f 65/13/28 68/16/29 67/15/29
# 20 triangles in group

g Duplicate01
usemtl thatch
s 20
f 69/19/30 70/18/30 71/17/30
f 69/19/30 72/20/30 70/18/30
# 2 triangles in group

g Duplicate03
usemtl bamboowall
s 1
f 73/21/30 74/22/30 75/23/30
f 73/21/30 76/24/30 74/22/30
s 2
f 77/21/2 76/24/2 73/21/2
f 77/21/2 78/24/2 76/24/2
s 1
f 79/23/31 78/24/31 77/21/31
f 79/23/31 80/22/31 78/24/31
s 2
f 75/23/4 80/22/4 79/23/4
f 75/23/4 74/22/4 80/22/4
s 3
f 77/21/32 75/23/32 79/23/32
f 77/21/32 73/21/32 75/23/32
f 76/24/6 80/22/6 74/22/6
f 76/24/6 78/24/6 80/22/6
# 12 triangles in group

g Duplicate04
usemtl bamboo
s 2
f 81/5/6 82/5/6 83/5/6
f 84/5/7 85/5/7 86/5/7
s 1
f 87/7/33 86/5/34 88/6/34
f 87/7/33 89/8/33 86/5/34
s 2
f 81/5/6 90/5/6 82/5/6
f 91/5/7 85/5/7 84/5/7
s 1
f 92/9/35 89/8/33 87/7/33
f 93/10/35 92/9/35 87/7/33
s 2
f 81/5/6 94/5/6 90/5/6
f 95/5/7 85/5/7 91/5/7
s 1
f 96/11/36 92/9/35 93/10/35
f 96/11/36 97/12/36 92/9/35
s 2
f 81/5/6 98/5/6 94/5/6
f 99/5/7 85/5/7 95/5/7
s 1
f 100/13/37 97/12/36 96/11/36
f 101/14/37 100/13/37 96/11/36
s 2
f 81/5/6 83/5/6 98/5/6
f 86/5/7 85/5/7 99/5/7
s 1
f 102/15/38 100/13/37 101/14/37
f 102/15/38 103/16/38 100/13/37
s 2
f 104/5/39 105/5/39 106/5/39
f 107/5/40 108/5/40 109/5/40
s 1
f 110/7/41 109/5/42 111/6/42
f 110/7/41 112/8/41 109/5/42
s 2
f 104/5/39 113/5/39 105/5/39
f 114/5/40 108/5/40 107/5/40
s 1
f 115/9/43 112/8/41 110/7/41
f 116/10/43 115/9/43 110/7/41
s 2
f 104/5/39 117/5/39 113/5/39
f 118/5/40 108/5/40 114/5/40
s 1
f 119/11/44 115/9/43 116/10/43
f 119/11/44 120/12/44 115/9/43
s 2
f 104/5/39 121/5/39 117/5/39
f 122/5/40 108/5/40 118/5/40
s 1
f 123/13/45 120/12/44 119/11/44
f 124/14/45 123/13/45 119/11/44
s 2
f 104/5/39 106/5/39 121/5/39
f 109/5/40 108/5/40 122/5/40
s 1
f 125/15/46 123/13/45 124/14/45
f 125/15/46 126/16/46 123/13/45
# 40 triangles in group

g Duplicate05
usemtl bamboo
s 2
f 127/5/6 128/5/6 129/5/6
f 130/5/7 131/5/7 132/5/7
s 1
f 133/7/47 132/5/48 134/6/48
f 133/7/47 135/8/47 132/5/48
s 2
f 127/5/6 136/5/6 128/5/6
f 137/5/7 131/5/7 130/5/7
s 1
f 138/9/49 135/8/47 133/7/47
f 139/10/49 138/9/49 133/7/47
s 2
f 127/5/6 140/5/6 136/5/6
f 141/5/7 131/5/7 137/5/7
s 1
f 142/11/50 138/9/49 139/10/49
f 142/11/50 143/12/50 138/9/49
s 2
f 127/5/6 144/5/6 140/5/6
f 145/5/7 131/5/7 141/5/7
s 1
f 146/13/51 143/12/50 142/11/50
f 147/14/51 146/13/51 142/11/50
s 2
f 127/5/6 129/5/6 144/5/6
f 132/5/7 131/5/7 145/5/7
s 1
f 148/15/52 146/13/51 147/14/51
f 148/15/52 149/16/52 146/13/51
s 2
f 150/5/22 151/5/22 152/5/22
f 153/5/23 154/5/23 155/5/23
s 1
f 156/7/53 155/5/54 157/6/54
f 156/7/53 158/8/53 155/5/54
s 2
f 150/5/22 159/5/22 151/5/22
f 160/5/23 154/5/23 153/5/23
s 1
f 161/9/55 158/8/53 156/7/53
f 162/10/55 161/9/55 156/7/53
s 2
f 150/5/22 163/5/22 159/5/22
f 164/5/23 154/5/23 160/5/23
s 1
f 165/11/56 161/9/55 162/10/55
f 165/11/56 166/12/56 161/9/55
s 2
f 150/5/22 167/5/22 163/5/22
f 168/5/23 154/5/23 164/5/23
s 1
f 169/13/57 166/12/56 165/11/56
f 170/14/57 169/13/57 165/11/56
s 2
f 150/5/22 152/5/22 167/5/22
f 155/5/23 154/5/23 168/5/23
s 1
f 171/15/58 169/13/57 170/14/57
f 171/15/58 172/16/58 169/13/57
s 2
f 173/5/6 174/5/6 175/5/6
f 176/5/7 177/5/7 178/5/7
s 1
f 179/6/59 176/5/59 180/7/60
f 176/5/59 181/8/60 180/7/60
s 2
f 174/5/6 182/5/6 175/5/6
f 178/5/7 177/5/7 183/5/7
s 1
f 180/7/60 181/8/60 184/9/61
f 180/7/60 184/9/61 185/10/61
s 2
f 182/5/6 186/5/6 175/5/6
f 183/5/7 177/5/7 187/5/7
s 1
f 185/10/61 184/9/61 188/11/62
f 184/9/61 189/12/62 188/11/62
s 2
f 186/5/6 190/5/6 175/5/6
f 187/5/7 177/5/7 191/5/7
s 1
f 188/11/62 189/12/62 192/13/63
f 188/11/62 192/13/63 193/14/63
s 2
f 190/5/6 173/5/6 175/5/6
f 191/5/7 177/5/7 176/5/7
s 1
f 193/14/63 192/13/63 194/15/64
f 192/13/63 195/16/64 194/15/64
s 2
f 196/5/39 197/5/39 198/5/39
f 199/5/40 200/5/40 201/5/40
s 1
f 202/6/65 199/5/65 203/7/66
f 199/5/65 204/8/66 203/7/66
s 2
f 197/5/39 205/5/39 198/5/39
f 201/5/40 200/5/40 206/5/40
s 1
f 203/7/66 204/8/66 207/9/67
f 203/7/66 207/9/67 208/10/67
s 2
f 205/5/39 209/5/39 198/5/39
f 206/5/40 200/5/40 210/5/40
s 1
f 208/10/67 207/9/67 211/11/68
f 207/9/67 212/12/68 211/11/68
s 2
f 209/5/39 213/5/39 198/5/39
f 210/5/40 200/5/40 214/5/40
s 1
f 211/11/68 212/12/68 215/13/69
f 211/11/68 215/13/69 216/14/69
s 2
f 213/5/39 196/5/39 198/5/39
f 214/5/40 200/5/40 199/5/40
s 1
f 216/14/69 215/13/69 217/15/70
f 215/13/69 218/16/70 217/15/70
# 80 triangles in group

g Duplicate06
usemtl bamboo
s 2
f 219/5/4 220/5/4 221/5/4
f 222/5/2 223/5/2 224/5/2
s 1
f 225/6/71 222/5/71 226/7/72
f 222/5/71 227/8/72 226/7/72
s 2
f 220/5/4 228/5/4 221/5/4
f 224/5/2 223/5/2 229/5/2
s 1
f 226/7/72 227/8/72 230/9/73
f 226/7/72 230/9/73 231/10/73
s 2
f 228/5/4 232/5/4 221/5/4
f 229/5/2 223/5/2 233/5/2
s 1
f 231/10/73 230/9/73 234/11/74
f 230/9/73 235/12/74 234/11/74
s 2
f 232/5/4 236/5/4 221/5/4
f 233/5/2 223/5/2 237/5/2
s 1
f 234/11/74 235/12/74 238/13/75
f 234/11/74 238/13/75 239/14/75
s 2
f 236/5/4 219/5/4 221/5/4
f 237/5/2 223/5/2 222/5/2
s 1
f 239/14/75 238/13/75 240/15/76
f 238/13/75 241/16/76 240/15/76
# 20 triangles in group

g Box01
usemtl thatch_border
s 20
f 242/25/77 243/26/77 244/27/77
f 243/26/77 245/28/77 244/27/77
# 2 triangles in group

g Duplicate01
usemtl thatch_border
f 246/29/78 247/30/78 248/31/78
f 246/29/78 249/32/78 247/30/78
# 2 triangles in group

g Duplicate02
usemtl thatch
f 250/19/79 251/18/80 252/17/79
f 250/19/79 253/20/79 251/18/80
f 254/19/81 255/18/82 256/17/83
f 257/19/84 255/18/82 258/17/84
f 257/19/84 259/20/84 255/18/82
f 260/19/85 251/18/80 261/17/86
f 254/19/81 262/18/30 261/17/86
f 254/19/81 263/20/30 262/18/30
# 8 triangles in group

# 226 triangles total

