# Wavefront OBJ exported by MilkShape 3D

mtllib banana.mtl

v 11.336975 2.997413 21.473263
v 6.435771 3.033182 20.639206
v 1.015464 3.047005 18.691559
v -2.768627 2.956878 13.355824
v -4.845301 2.836425 7.598900
v -4.051879 2.666898 1.209445
v -0.426237 2.493416 -4.031831
v 3.284332 2.343670 -9.254463
v 11.584841 2.250566 21.029259
v 7.062337 0.488189 19.519665
v 2.282163 -0.468609 17.275661
v -1.049907 -0.549707 12.508074
v -2.936878 -0.659282 7.272099
v -2.644394 0.754675 1.332234
v -0.082664 1.764618 -3.834143
v 12.097521 2.221423 20.104519
v 8.373486 0.413667 17.154694
v 4.895672 -0.574268 14.270046
v 2.467670 -0.637312 10.638777
v 0.960084 -0.725126 6.444696
v 0.214478 0.725377 1.482561
v 0.621349 1.765475 -3.475415
v 12.362329 2.939137 19.623768
v 9.058065 2.884142 15.909283
v 6.242491 2.835680 12.680340
v 4.266517 2.781669 9.617228
v 2.948628 2.704732 5.944101
v 1.665874 2.608298 1.510113
v 0.981795 2.495138 -3.314356
v 12.114466 3.685986 20.067764
v 8.431512 5.429137 17.028820
v 4.975794 6.351297 14.096247
v 2.547787 6.288252 10.464975
v 1.040202 6.200438 6.270897
v 0.258386 4.520524 1.387324
v 0.638218 3.223945 -3.512017
v 11.601778 3.715125 20.992504
v 7.120358 5.503655 19.393799
v 2.362282 6.456957 17.101868
v -0.969790 6.375857 12.334269
v -2.856759 6.266286 7.098295
v -2.600493 4.549818 1.236994
v -0.065795 3.223086 -3.870765
v 12.199951 2.966365 20.633900
# 44 vertices

vt 0.000000 1.000000
vt 0.000000 0.000000
vt 0.000000 0.142857
vt 0.166667 0.000000
vt 0.166667 0.142857
vt 0.000000 0.285714
vt 0.166667 0.285714
vt 0.000000 0.428571
vt 0.166667 0.428571
vt 0.000000 0.571429
vt 0.166667 0.571429
vt 0.000000 0.714286
vt 0.166667 0.714286
vt 0.000000 0.857143
vt 0.166667 0.857143
vt 0.333333 0.142857
vt 0.333333 0.000000
vt 0.333333 0.285714
vt 0.333333 0.428571
vt 0.333333 0.571429
vt 0.333333 0.714286
vt 0.333333 0.857143
vt 0.333333 1.000000
vt 0.500000 0.000000
vt 0.500000 0.142857
vt 0.500000 0.285714
vt 0.500000 0.428571
vt 0.500000 0.571429
vt 0.500000 0.714286
vt 0.500000 0.857143
vt 0.666667 0.142857
vt 0.666667 0.000000
vt 0.666667 0.285714
vt 0.666667 0.428571
vt 0.666667 0.571429
vt 0.666667 0.714286
vt 0.666667 0.857143
vt 0.666667 1.000000
vt 0.833333 0.000000
vt 0.833333 0.142857
vt 0.833333 0.285714
vt 0.833333 0.428571
vt 0.833333 0.571429
vt 0.833333 0.714286
vt 0.833333 0.857143
vt 1.000000 0.142857
vt 1.000000 0.000000
vt 1.000000 0.285714
vt 1.000000 0.428571
vt 1.000000 0.571429
vt 1.000000 0.714286
vt 1.000000 0.857143
vt 1.000000 1.000000
# 53 texture coordinates

vn 0.697381 0.009919 0.716632
vn 0.745095 -0.315822 0.587443
vn 0.882806 0.001576 0.469734
vn -0.167513 0.026669 0.985509
vn -0.249196 0.027177 0.968072
vn 0.090184 -0.798456 0.595261
vn 0.001470 -0.806783 0.590846
vn -0.603435 0.026980 0.796956
vn -0.262433 -0.855068 0.447200
vn -0.887008 0.021836 0.461237
vn -0.453177 -0.855335 0.251062
vn -0.993891 0.014244 0.109443
vn -0.496698 -0.867766 -0.016509
vn -0.923883 0.001081 -0.382674
vn -0.414301 -0.861109 -0.294697
vn -0.818880 -0.004880 -0.573945
vn -0.383554 -0.848515 -0.364566
vn 0.464047 -0.025757 -0.885436
vn 0.886871 -0.342390 0.310208
vn 0.500015 -0.836934 -0.222545
vn 0.531323 -0.831717 -0.161068
vn 0.428830 -0.867777 -0.251133
vn 0.438046 -0.876007 -0.201809
vn 0.446599 -0.864369 -0.231118
vn 0.469266 -0.857413 -0.211265
vn 0.541119 -0.840890 0.009730
vn 0.987266 -0.007434 0.158903
vn 0.773563 -0.024841 -0.633232
vn 0.750389 -0.025258 -0.660513
vn 0.791132 -0.024490 -0.611154
vn 0.896628 -0.021471 -0.442263
vn 0.946942 -0.019006 -0.320842
vn 0.977618 -0.016574 -0.209733
vn 0.997511 -0.009756 0.069834
vn 0.894729 0.336921 0.293162
vn 0.519102 0.812935 -0.263951
vn 0.550317 0.810085 -0.202271
vn 0.448632 0.843943 -0.294091
vn 0.458064 0.854422 -0.245236
vn 0.466329 0.841134 -0.273919
vn 0.488841 0.834659 -0.253729
vn 0.559339 0.828423 -0.029250
vn 0.752537 0.327578 0.571298
vn 0.108965 0.825006 0.554519
vn 0.020464 0.835151 0.549640
vn -0.242336 0.882258 0.403601
vn -0.433136 0.877099 0.207585
vn -0.476513 0.877097 -0.060298
vn -0.394454 0.854593 -0.337753
vn -0.365127 0.838191 -0.405115
# 50 normals

g Cylinder02
usemtl Material01
s 2
f 1/1/1 9/1/2 44/1/3
s 1
f 1/2/4 2/3/5 9/4/6
f 2/3/5 10/5/7 9/4/6
f 2/3/5 3/6/8 11/7/9
f 2/3/5 11/7/9 10/5/7
f 3/6/8 4/8/10 11/7/9
f 4/8/10 12/9/11 11/7/9
f 4/8/10 5/10/12 13/11/13
f 4/8/10 13/11/13 12/9/11
f 5/10/12 6/12/14 13/11/13
f 6/12/14 14/13/15 13/11/13
f 6/12/14 7/14/16 15/15/17
f 6/12/14 15/15/17 14/13/15
f 7/14/16 8/1/18 15/15/17
s 2
f 9/1/2 16/1/19 44/1/3
s 1
f 9/4/6 10/5/7 17/16/20
f 9/4/6 17/16/20 16/17/21
f 10/5/7 11/7/9 17/16/20
f 11/7/9 18/18/22 17/16/20
f 11/7/9 12/9/11 19/19/23
f 11/7/9 19/19/23 18/18/22
f 12/9/11 13/11/13 19/19/23
f 13/11/13 20/20/24 19/19/23
f 13/11/13 14/13/15 21/21/25
f 13/11/13 21/21/25 20/20/24
f 14/13/15 15/15/17 21/21/25
f 15/15/17 22/22/26 21/21/25
f 15/15/17 8/23/18 22/22/26
s 2
f 16/1/19 23/1/27 44/1/3
s 1
f 16/17/21 17/16/20 23/24/28
f 17/16/20 24/25/29 23/24/28
f 17/16/20 18/18/22 25/26/30
f 17/16/20 25/26/30 24/25/29
f 18/18/22 19/19/23 25/26/30
f 19/19/23 26/27/31 25/26/30
f 19/19/23 20/20/24 27/28/32
f 19/19/23 27/28/32 26/27/31
f 20/20/24 21/21/25 27/28/32
f 21/21/25 28/29/33 27/28/32
f 21/21/25 22/22/26 29/30/34
f 21/21/25 29/30/34 28/29/33
f 22/22/26 8/23/18 29/30/34
s 2
f 23/1/27 30/1/35 44/1/3
s 1
f 23/24/28 24/25/29 31/31/36
f 23/24/28 31/31/36 30/32/37
f 24/25/29 25/26/30 31/31/36
f 25/26/30 32/33/38 31/31/36
f 25/26/30 26/27/31 33/34/39
f 25/26/30 33/34/39 32/33/38
f 26/27/31 27/28/32 33/34/39
f 27/28/32 34/35/40 33/34/39
f 27/28/32 28/29/33 35/36/41
f 27/28/32 35/36/41 34/35/40
f 28/29/33 29/30/34 35/36/41
f 29/30/34 36/37/42 35/36/41
f 29/30/34 8/38/18 36/37/42
s 2
f 30/1/35 37/1/43 44/1/3
s 1
f 30/32/37 31/31/36 37/39/44
f 31/31/36 38/40/45 37/39/44
f 31/31/36 32/33/38 39/41/46
f 31/31/36 39/41/46 38/40/45
f 32/33/38 33/34/39 39/41/46
f 33/34/39 40/42/47 39/41/46
f 33/34/39 34/35/40 41/43/48
f 33/34/39 41/43/48 40/42/47
f 34/35/40 35/36/41 41/43/48
f 35/36/41 42/44/49 41/43/48
f 35/36/41 36/37/42 43/45/50
f 35/36/41 43/45/50 42/44/49
f 36/37/42 8/38/18 43/45/50
s 2
f 37/1/43 1/1/1 44/1/3
s 1
f 37/39/44 38/40/45 2/46/5
f 37/39/44 2/46/5 1/47/4
f 38/40/45 39/41/46 2/46/5
f 39/41/46 3/48/8 2/46/5
f 39/41/46 40/42/47 4/49/10
f 39/41/46 4/49/10 3/48/8
f 40/42/47 41/43/48 4/49/10
f 41/43/48 5/50/12 4/49/10
f 41/43/48 42/44/49 6/51/14
f 41/43/48 6/51/14 5/50/12
f 42/44/49 43/45/50 6/51/14
f 43/45/50 7/52/16 6/51/14
f 43/45/50 8/53/18 7/52/16
# 84 triangles in group

# 84 triangles total

