# Wavefront OBJ exported by MilkShape 3D

mtllib bark.mtl

v -7.325143 0.742621 -6.281249
v -2.527412 3.572309 -11.031251
v 3.055074 3.669751 -6.531250
v 8.172499 1.013134 -10.531252
v -8.075029 0.729531 -1.531250
v -2.027488 3.581036 -1.781252
v 3.055074 3.669750 -1.781252
v 7.922536 1.008770 -1.531250
v -6.825221 0.751350 3.968752
v -2.027488 3.581038 2.968750
v 3.055074 3.669753 2.968752
v 8.172500 1.013134 3.968748
v -6.575261 0.755706 11.718754
v -1.527562 3.589761 9.468750
v 3.305035 3.674116 12.968754
v 6.172803 0.978229 10.468754
# 16 vertices

vt 0.309951 0.698121
vt 0.286888 0.567713
vt 0.472889 0.574577
vt 0.457513 0.828529
vt 0.629210 0.574577
vt 0.629210 0.704985
vt 0.778917 0.567713
vt 0.786605 0.814802
vt 0.325327 0.416715
vt 0.472889 0.444169
vt 0.629210 0.444169
vt 0.786605 0.416715
vt 0.333015 0.203945
vt 0.488265 0.265717
vt 0.636899 0.169627
vt 0.725101 0.238262
# 16 texture coordinates

vn -0.459089 0.888170 -0.019755
vn -0.425983 0.904629 0.013624
vn -0.246400 0.969144 0.006785
vn -0.261120 0.965216 0.013202
vn 0.239083 0.970999 -0.000000
vn 0.236129 0.971716 0.003477
vn 0.473133 0.880988 -0.002085
vn 0.468967 0.883113 0.013453
vn -0.479588 0.876745 0.036244
vn -0.270033 0.962802 0.009676
vn 0.259513 0.965652 0.013008
vn 0.450915 0.890643 0.058577
vn -0.484376 0.874729 0.015131
vn -0.263462 0.964574 0.013564
vn 0.355088 0.934787 -0.009284
vn 0.563377 0.823909 0.061482
# 16 normals

g Plane02
usemtl Material01
s 1
f 1/1/1 5/2/2 6/3/3
f 1/1/1 6/3/3 2/4/4
f 6/3/3 7/5/5 3/6/6
f 6/3/3 3/6/6 2/4/4
f 3/6/6 7/5/5 8/7/7
f 3/6/6 8/7/7 4/8/8
f 9/9/9 10/10/10 6/3/3
f 9/9/9 6/3/3 5/2/2
f 6/3/3 10/10/10 11/11/11
f 6/3/3 11/11/11 7/5/5
f 11/11/11 12/12/12 8/7/7
f 11/11/11 8/7/7 7/5/5
f 9/9/9 13/13/13 14/14/14
f 9/9/9 14/14/14 10/10/10
f 14/14/14 15/15/15 11/11/11
f 14/14/14 11/11/11 10/10/10
f 11/11/11 15/15/15 16/16/16
f 11/11/11 16/16/16 12/12/12
# 18 triangles in group

# 18 triangles total

