# Wavefront OBJ exported by MilkShape 3D

mtllib blankbag.mtl

v -0.125000 -0.434989 0.005402
v 1.644341 0.138900 0.005402
v 2.107079 1.573624 0.005402
v 1.644341 3.008347 0.005402
v -0.125000 4.443070 0.005402
v 0.869557 5.477794 0.055401
v 1.230394 0.138900 1.087780
v 1.584871 1.573624 1.414193
v 1.230394 3.008347 1.087780
v 0.636875 5.477794 0.617377
v 0.182243 0.138900 1.663701
v 0.262596 1.573624 2.163795
v 0.182243 3.008347 1.663701
v 0.047703 5.477794 0.916399
v -1.009670 0.138900 1.463686
v -1.241039 1.573624 1.903461
v -1.009670 3.008347 1.463686
v -0.622278 5.477794 0.812550
v -1.787637 0.138900 0.581323
v -2.222467 1.573624 0.755004
v -1.787637 3.008347 0.581323
v -1.059578 5.477794 0.354422
v -1.787637 0.138900 -0.570519
v -2.222467 1.573624 -0.744201
v -1.787637 3.008347 -0.570519
v -1.059578 5.477794 -0.243620
v -1.009670 0.138900 -1.452883
v -1.241039 1.573624 -1.892655
v -1.009670 3.008347 -1.452883
v -0.622278 5.477794 -0.701747
v 0.182243 0.138900 -1.652897
v 0.262596 1.573624 -2.152991
v 0.182243 3.008347 -1.652897
v 0.047703 5.477794 -0.805595
v 1.230394 0.138900 -1.076977
v 1.584871 1.573624 -1.403390
v 1.230394 3.008347 -1.076977
v 0.636875 5.477794 -0.506575
v -0.125000 4.020285 0.005402
v 0.542687 4.457791 0.005402
v -0.125000 4.895297 0.005402
v 0.081327 4.457791 0.619237
v -0.665170 4.457791 0.384772
v -0.665170 4.457791 -0.373969
v 0.081327 4.457791 -0.608434
# 45 vertices

vt 0.040949 -0.443312
vt 0.234283 -0.443312
vt 0.234283 -0.780768
vt 0.040949 -0.105856
vt 0.234283 -0.105856
vt 0.040949 0.231600
vt 0.234283 0.231600
vt 0.234283 0.569056
vt 0.040949 0.906513
vt 0.234283 0.906513
vt 0.427617 -0.443312
vt 0.427617 -0.105856
vt 0.427617 0.231600
vt 0.427617 0.906513
vt 0.620951 -0.443312
vt 0.620951 -0.780768
vt 0.620951 -0.105856
vt 0.620951 0.231600
vt 0.620951 0.569056
vt 0.620951 0.906513
vt 0.814286 -0.443312
vt 0.814286 -0.105856
vt 0.814286 0.231600
vt 0.814286 0.906513
vt 1.007620 -0.443312
vt 1.007620 -0.780768
vt 1.007620 -0.105856
vt 1.007620 0.231600
vt 1.007620 0.569056
vt 1.007620 0.906513
vt 1.200954 -0.443312
vt 1.200954 -0.105856
vt 1.200954 0.231600
vt 1.200954 0.906513
vt 1.394288 -0.443312
vt 1.394288 -0.780768
vt 1.394288 -0.105856
vt 1.394288 0.231600
vt 1.394288 0.569056
vt 1.394288 0.906513
vt 1.587622 -0.443312
vt 1.587622 -0.105856
vt 1.587622 0.231600
vt 1.587622 0.906513
vt 1.780957 -0.443312
vt 1.780957 -0.780768
vt 1.780957 -0.105856
vt 1.780957 0.231600
vt 1.780957 0.569056
vt 1.780957 0.906513
vt 0.000000 0.000000
vt 0.000000 0.500000
vt 0.200000 0.500000
vt 0.000000 1.000000
vt 0.400000 0.500000
vt 0.400000 0.000000
vt 0.400000 1.000000
vt 0.600000 0.500000
vt 0.800000 0.500000
vt 0.800000 0.000000
vt 0.800000 1.000000
vt 1.000000 0.500000
# 62 texture coordinates

vn 0.763868 -0.640780 0.076857
vn 0.524735 -0.717374 0.458287
vn 0.000000 -1.000000 -0.000000
vn 0.992033 0.000000 -0.125977
vn 0.758356 0.000000 0.651840
vn 0.851269 0.519733 0.072242
vn 0.619089 0.569490 0.540749
vn -0.000003 0.995640 -0.093277
vn 0.721025 -0.692903 -0.002740
vn 0.532117 -0.685614 0.496775
vn 0.135852 -0.595086 0.792097
vn 0.171458 0.000000 0.985192
vn 0.147025 0.490990 0.858669
vn 0.116211 -0.667187 0.735770
vn -0.337474 -0.718162 0.608568
vn -0.490948 -0.000000 0.871189
vn -0.398579 0.569604 0.718808
vn -0.339406 -0.674527 0.655604
vn -0.755733 -0.590738 0.282659
vn -0.938250 0.000000 0.345958
vn -0.817216 0.488279 0.306173
vn -0.667905 -0.693967 0.268909
vn -0.652169 -0.716706 -0.246999
vn -0.937009 -0.000000 -0.349305
vn -0.768746 0.569418 -0.291191
vn -0.678489 -0.679819 -0.278386
vn -0.393967 -0.593923 -0.701459
vn -0.495111 0.000000 -0.868830
vn -0.426267 0.490237 -0.760240
vn -0.352603 -0.637573 -0.684961
vn 0.116088 -0.718689 -0.685573
vn 0.169600 -0.000000 -0.985513
vn 0.137205 0.569695 -0.810323
vn 0.121278 -0.624787 -0.771319
vn 0.610212 -0.592196 -0.526256
vn 0.761903 0.000000 -0.647691
vn 0.660024 0.489154 -0.570173
vn 0.547771 -0.658607 -0.515930
vn 1.000000 0.000001 -0.000000
vn 0.302227 0.000001 0.953236
vn -0.000015 1.000000 0.000000
vn -0.802114 0.000001 0.597171
vn -0.802114 0.000001 -0.597171
vn 0.302227 0.000001 -0.953236
# 44 normals

g Cylinder01
usemtl Material01
s 1
f 2/1/1 7/2/2 1/3/3
f 2/1/1 3/4/4 8/5/5
f 2/1/1 8/5/5 7/2/2
f 3/4/4 4/6/6 8/5/5
f 4/6/6 9/7/7 8/5/5
f 4/6/6 5/8/8 9/7/7
f 6/9/9 10/10/10 5/8/8
f 1/3/3 7/2/2 11/11/11
f 7/2/2 8/5/5 11/11/11
f 8/5/5 12/12/12 11/11/11
f 8/5/5 9/7/7 13/13/13
f 8/5/5 13/13/13 12/12/12
f 9/7/7 5/8/8 13/13/13
f 5/8/8 10/10/10 14/14/14
f 11/11/11 15/15/15 1/16/3
f 11/11/11 12/12/12 16/17/16
f 11/11/11 16/17/16 15/15/15
f 12/12/12 13/13/13 16/17/16
f 13/13/13 17/18/17 16/17/16
f 13/13/13 5/19/8 17/18/17
f 14/14/14 18/20/18 5/19/8
f 1/16/3 15/15/15 19/21/19
f 15/15/15 16/17/16 19/21/19
f 16/17/16 20/22/20 19/21/19
f 16/17/16 17/18/17 21/23/21
f 16/17/16 21/23/21 20/22/20
f 17/18/17 5/19/8 21/23/21
f 5/19/8 18/20/18 22/24/22
f 19/21/19 23/25/23 1/26/3
f 19/21/19 20/22/20 24/27/24
f 19/21/19 24/27/24 23/25/23
f 20/22/20 21/23/21 24/27/24
f 21/23/21 25/28/25 24/27/24
f 21/23/21 5/29/8 25/28/25
f 22/24/22 26/30/26 5/29/8
f 1/26/3 23/25/23 27/31/27
f 23/25/23 24/27/24 27/31/27
f 24/27/24 28/32/28 27/31/27
f 24/27/24 25/28/25 29/33/29
f 24/27/24 29/33/29 28/32/28
f 25/28/25 5/29/8 29/33/29
f 5/29/8 26/30/26 30/34/30
f 27/31/27 31/35/31 1/36/3
f 27/31/27 28/32/28 32/37/32
f 27/31/27 32/37/32 31/35/31
f 28/32/28 29/33/29 32/37/32
f 29/33/29 33/38/33 32/37/32
f 29/33/29 5/39/8 33/38/33
f 30/34/30 34/40/34 5/39/8
f 1/36/3 31/35/31 35/41/35
f 31/35/31 32/37/32 35/41/35
f 32/37/32 36/42/36 35/41/35
f 32/37/32 33/38/33 37/43/37
f 32/37/32 37/43/37 36/42/36
f 33/38/33 5/39/8 37/43/37
f 5/39/8 34/40/34 38/44/38
f 35/41/35 2/45/1 1/46/3
f 35/41/35 36/42/36 3/47/4
f 35/41/35 3/47/4 2/45/1
f 36/42/36 37/43/37 3/47/4
f 37/43/37 4/48/6 3/47/4
f 37/43/37 5/49/8 4/48/6
f 38/44/38 6/50/9 5/49/8
# 63 triangles in group

g Cylinder03
usemtl Material01
f 39/51/3 40/52/39 42/53/40
f 40/52/39 41/54/41 42/53/40
f 42/53/40 43/55/42 39/56/3
f 42/53/40 41/57/41 43/55/42
f 39/56/3 43/55/42 44/58/43
f 43/55/42 41/57/41 44/58/43
f 44/58/43 45/59/44 39/60/3
f 44/58/43 41/61/41 45/59/44
f 39/60/3 45/59/44 40/62/39
f 45/59/44 41/61/41 40/62/39
# 10 triangles in group

# 73 triangles total

