# Wavefront OBJ exported by MilkShape 3D

mtllib boardwall.mtl

v 16.346222 49.168022 2.507689
v 16.679556 -5.357164 1.555947
v 22.269157 49.168022 2.507689
v 22.602493 -5.357164 1.555947
v 22.269157 49.186302 1.459826
v 22.602493 -5.338879 0.508084
v 16.346222 49.186302 1.459826
v 16.679556 -5.338879 0.508084
v 10.800182 47.883839 0.832330
v 11.957273 -6.634169 1.783947
v 16.722216 47.987198 0.830526
v 17.879303 -6.530807 1.782142
v 16.722216 47.968903 -0.217340
v 17.879303 -6.549112 0.734277
v 10.800182 47.865540 -0.215533
v 11.957273 -6.652452 0.736081
v 5.788532 48.452213 2.745232
v 6.121867 -6.072983 1.793494
v 11.711468 48.452221 2.745233
v 12.044802 -6.072979 1.793493
v 11.711468 48.470524 1.697367
v 12.044802 -6.054672 0.745625
v 5.788532 48.470524 1.697367
v 6.121867 -6.054674 0.745626
v 0.538532 49.438866 0.805188
v 0.871867 -5.086311 1.756931
v 6.461468 49.438873 0.805190
v 6.794802 -5.086306 1.756928
v 6.461468 49.420593 -0.242677
v 6.794802 -5.104589 0.709063
v 0.538532 49.420586 -0.242676
v 0.871867 -5.104593 0.709064
v -4.601409 47.478600 1.777478
v -5.079316 -7.036936 0.682840
v 1.230662 47.357277 2.803867
v 0.752754 -7.158213 1.709234
v 1.412650 47.375305 1.771922
v 0.934741 -7.140213 0.677285
v -4.419421 47.496590 0.745533
v -4.897328 -7.018917 -0.349106
v -9.876064 48.671196 1.818740
v -10.366485 -5.846790 2.770358
v -3.954030 48.567829 1.820544
v -4.444453 -5.950144 2.772163
v -3.954030 48.549583 0.772683
v -4.444453 -5.968437 1.724296
v -9.876064 48.652939 0.770878
v -10.366485 -5.865082 1.722493
v -15.508050 47.513779 3.388351
v -14.382870 -7.000246 2.209713
v -9.815432 47.645599 1.758067
v -8.690256 -6.868404 0.579431
v -10.104309 47.663181 0.750795
v -8.979130 -6.850828 -0.427842
v -15.796922 47.531334 2.381073
v -14.671745 -6.982689 1.202437
v -20.090740 49.990700 1.886547
v -20.485443 -4.535866 2.157115
v -14.168513 49.899315 1.887479
v -14.563220 -4.627234 2.158048
v -14.168399 49.896179 0.839463
v -14.563100 -4.630377 1.110027
v -20.090622 49.987511 0.838524
v -20.485325 -4.539057 1.109092
v 22.155899 50.568092 0.535438
v 21.537445 -3.954582 1.487137
v 28.077934 50.464760 0.537244
v 27.459476 -4.057922 1.488942
v 28.077934 50.446465 -0.510620
v 27.459476 -4.076235 0.441076
v 22.155899 50.549805 -0.512426
v 21.537445 -3.972860 0.439271
v -26.462513 48.122505 1.739323
v -25.177486 -6.388556 0.787832
v -20.540478 48.225842 1.741128
v -19.255455 -6.285191 0.789633
v -20.540478 48.244164 0.693263
v -19.255455 -6.266932 -0.258230
v -26.462513 48.140785 0.691457
v -25.177486 -6.370256 -0.260036
v -27.759752 51.529305 10.198713
v -27.759752 -9.529312 3.171800
v 31.093081 51.529305 10.198713
v 31.093081 -9.529312 3.171800
v 31.093081 51.529305 -7.865383
v 31.093081 -9.529312 -1.505134
v -27.759752 51.529305 -7.865383
v -27.759752 -9.529312 -1.505134
# 88 vertices

vt 1.132253 2.053004
vt 1.132253 -0.737011
vt 1.407184 2.053004
vt 1.407184 -0.737011
vt 1.204401 1.668548
vt 1.204401 -0.737976
vt 1.407550 1.668548
vt 0.952145 1.888243
vt 0.952145 -0.964264
vt 1.250829 1.888243
vt 1.250829 -0.964264
vt 1.140921 2.085101
vt 1.140921 -1.521189
vt 1.474849 2.085101
vt 1.474849 -1.521189
vt 1.080418 1.646304
vt 1.080418 -1.181894
vt 1.435011 1.646304
vt 1.435011 -1.181894
vt 1.208299 2.467334
vt 1.208299 -0.989540
vt 1.536184 2.467334
vt 1.536184 -0.989540
vt 0.523047 1.714709
vt 0.523047 -0.615837
vt 0.816376 1.714709
vt 0.816376 -0.615837
vt 0.034548 1.734651
vt 0.034548 -0.801128
vt 0.340412 1.734651
vt 0.340412 -0.801128
vt 0.803156 1.581787
vt 0.803156 -0.477141
vt 1.123122 1.581787
vt 1.123122 -0.477141
vt 1.150095 2.269884
vt 1.150095 -2.026070
vt 1.486063 2.269884
vt 1.486063 -2.026070
vt 0.000000 1.000000
vt 0.000000 0.000000
vt 1.000000 1.000000
vt 1.000000 0.000000
# 43 texture coordinates

vn 0.000000 0.000000 1.000000
vn 1.000000 0.000000 0.000000
vn 0.000000 0.000000 -1.000000
vn -1.000000 0.000000 0.000000
vn 0.000000 1.000000 0.000000
vn 0.000000 -1.000000 0.000000
# 6 normals

g Box01
usemtl wood
s 1
f 1/1/1 2/2/1 3/3/1
f 2/2/1 4/4/1 3/3/1
s 2
f 3/1/2 4/2/2 5/3/2
f 4/2/2 6/4/2 5/3/2
s 1
f 5/1/3 6/2/3 7/3/3
f 6/2/3 8/4/3 7/3/3
s 2
f 7/1/4 8/2/4 1/3/4
f 8/2/4 2/4/4 1/3/4
s 3
f 7/1/5 1/2/5 5/3/5
f 1/2/5 3/4/5 5/3/5
f 2/1/6 8/2/6 4/3/6
f 8/2/6 6/4/6 4/3/6
# 12 triangles in group

g Duplicate01
usemtl wood
s 1
f 9/5/1 10/6/1 11/7/1
f 10/6/1 12/4/1 11/7/1
s 2
f 11/5/2 12/6/2 13/7/2
f 12/6/2 14/4/2 13/7/2
s 1
f 13/5/3 14/6/3 15/7/3
f 14/6/3 16/4/3 15/7/3
s 2
f 15/5/4 16/6/4 9/7/4
f 16/6/4 10/4/4 9/7/4
s 3
f 15/5/5 9/6/5 13/7/5
f 9/6/5 11/4/5 13/7/5
f 10/5/6 16/6/6 12/7/6
f 16/6/6 14/4/6 12/7/6
# 12 triangles in group

g Duplicate02
usemtl wood
s 1
f 17/8/1 18/9/1 19/10/1
f 18/9/1 20/11/1 19/10/1
s 2
f 19/8/2 20/9/2 21/10/2
f 20/9/2 22/11/2 21/10/2
s 1
f 21/8/3 22/9/3 23/10/3
f 22/9/3 24/11/3 23/10/3
s 2
f 23/8/4 24/9/4 17/10/4
f 24/9/4 18/11/4 17/10/4
s 3
f 23/8/5 17/9/5 21/10/5
f 17/9/5 19/11/5 21/10/5
f 18/8/6 24/9/6 20/10/6
f 24/9/6 22/11/6 20/10/6
# 12 triangles in group

g Duplicate03
usemtl wood
s 1
f 25/12/1 26/13/1 27/14/1
f 26/13/1 28/15/1 27/14/1
s 2
f 27/12/2 28/13/2 29/14/2
f 28/13/2 30/15/2 29/14/2
s 1
f 29/12/3 30/13/3 31/14/3
f 30/13/3 32/15/3 31/14/3
s 2
f 31/12/4 32/13/4 25/14/4
f 32/13/4 26/15/4 25/14/4
s 3
f 31/12/5 25/13/5 29/14/5
f 25/13/5 27/15/5 29/14/5
f 26/12/6 32/13/6 28/14/6
f 32/13/6 30/15/6 28/14/6
# 12 triangles in group

g Duplicate04
usemtl wood
s 1
f 33/16/1 34/17/1 35/18/1
f 34/17/1 36/19/1 35/18/1
s 2
f 35/16/2 36/17/2 37/18/2
f 36/17/2 38/19/2 37/18/2
s 1
f 37/16/3 38/17/3 39/18/3
f 38/17/3 40/19/3 39/18/3
s 2
f 39/16/4 40/17/4 33/18/4
f 40/17/4 34/19/4 33/18/4
s 3
f 39/16/5 33/17/5 37/18/5
f 33/17/5 35/19/5 37/18/5
f 34/16/6 40/17/6 36/18/6
f 40/17/6 38/19/6 36/18/6
# 12 triangles in group

g Duplicate05
usemtl wood
s 1
f 41/20/1 42/21/1 43/22/1
f 42/21/1 44/23/1 43/22/1
s 2
f 43/20/2 44/21/2 45/22/2
f 44/21/2 46/23/2 45/22/2
s 1
f 45/20/3 46/21/3 47/22/3
f 46/21/3 48/23/3 47/22/3
s 2
f 47/20/4 48/21/4 41/22/4
f 48/21/4 42/23/4 41/22/4
s 3
f 47/20/5 41/21/5 45/22/5
f 41/21/5 43/23/5 45/22/5
f 42/20/6 48/21/6 44/22/6
f 48/21/6 46/23/6 44/22/6
# 12 triangles in group

g Duplicate06
usemtl wood
s 1
f 49/24/1 50/25/1 51/26/1
f 50/25/1 52/27/1 51/26/1
s 2
f 51/24/2 52/25/2 53/26/2
f 52/25/2 54/27/2 53/26/2
s 1
f 53/24/3 54/25/3 55/26/3
f 54/25/3 56/27/3 55/26/3
s 2
f 55/24/4 56/25/4 49/26/4
f 56/25/4 50/27/4 49/26/4
s 3
f 55/24/5 49/25/5 53/26/5
f 49/25/5 51/27/5 53/26/5
f 50/24/6 56/25/6 52/26/6
f 56/25/6 54/27/6 52/26/6
# 12 triangles in group

g Duplicate07
usemtl wood
s 1
f 57/28/1 58/29/1 59/30/1
f 58/29/1 60/31/1 59/30/1
s 2
f 59/28/2 60/29/2 61/30/2
f 60/29/2 62/31/2 61/30/2
s 1
f 61/28/3 62/29/3 63/30/3
f 62/29/3 64/31/3 63/30/3
s 2
f 63/28/4 64/29/4 57/30/4
f 64/29/4 58/31/4 57/30/4
s 3
f 63/28/5 57/29/5 61/30/5
f 57/29/5 59/31/5 61/30/5
f 58/28/6 64/29/6 60/30/6
f 64/29/6 62/31/6 60/30/6
# 12 triangles in group

g Duplicate08
usemtl wood
s 1
f 65/32/1 66/33/1 67/34/1
f 66/33/1 68/35/1 67/34/1
s 2
f 67/32/2 68/33/2 69/34/2
f 68/33/2 70/35/2 69/34/2
s 1
f 69/32/3 70/33/3 71/34/3
f 70/33/3 72/35/3 71/34/3
s 2
f 71/32/4 72/33/4 65/34/4
f 72/33/4 66/35/4 65/34/4
s 3
f 71/32/5 65/33/5 69/34/5
f 65/33/5 67/35/5 69/34/5
f 66/32/6 72/33/6 68/34/6
f 72/33/6 70/35/6 68/34/6
# 12 triangles in group

g Duplicate09
usemtl wood
s 1
f 73/36/1 74/37/1 75/38/1
f 74/37/1 76/39/1 75/38/1
s 2
f 75/36/2 76/37/2 77/38/2
f 76/37/2 78/39/2 77/38/2
s 1
f 77/36/3 78/37/3 79/38/3
f 78/37/3 80/39/3 79/38/3
s 2
f 79/36/4 80/37/4 73/38/4
f 80/37/4 74/39/4 73/38/4
s 3
f 79/36/5 73/37/5 77/38/5
f 73/37/5 75/39/5 77/38/5
f 74/36/6 80/37/6 76/38/6
f 80/37/6 78/39/6 76/38/6
# 12 triangles in group

g Box02
usemtl col
s 1
f 81/40/1 82/41/1 83/42/1
f 82/41/1 84/43/1 83/42/1
s 2
f 83/40/2 84/41/2 85/42/2
f 84/41/2 86/43/2 85/42/2
s 1
f 85/40/3 86/41/3 87/42/3
f 86/41/3 88/43/3 87/42/3
s 2
f 87/40/4 88/41/4 81/42/4
f 88/41/4 82/43/4 81/42/4
s 3
f 87/40/5 81/41/5 85/42/5
f 81/41/5 83/43/5 85/42/5
f 82/40/6 88/41/6 84/42/6
f 88/41/6 86/43/6 84/42/6
# 12 triangles in group

# 132 triangles total

