# Wavefront OBJ exported by MilkShape 3D

mtllib bow.mtl

v 8.257118 1.314801 4.197191
v 7.281940 1.400951 1.026979
v 5.754393 1.394147 -0.774109
v 2.755907 1.405768 -1.949909
v -0.062500 1.427745 -2.109790
v -2.692013 1.449721 -1.831069
v -5.731575 1.461342 -0.622505
v -7.442945 1.454539 1.088881
v -8.541048 1.540688 4.181824
v 7.387761 1.124987 0.955167
v 5.932849 0.875101 -0.912224
v 2.866032 0.726739 -2.239462
v -0.085062 0.555327 -2.480224
v -2.818885 0.770692 -2.113686
v -5.924470 0.942296 -0.739612
v -7.557058 1.178576 1.031149
v 7.661579 1.010679 0.823024
v 6.387596 0.660104 -1.207401
v 3.172797 0.445476 -2.919436
v -0.094407 0.193959 -3.374530
v -3.082783 0.489430 -2.811413
v -6.363011 0.727300 -1.058371
v -7.805378 1.064268 0.855712
v 7.943007 1.124987 0.707955
v 6.852245 0.875101 -1.486729
v 3.496503 0.726739 -3.591509
v -0.085062 0.555327 -4.268837
v -3.329117 0.770692 -3.515535
v -6.790299 0.942296 -1.392058
v -8.042462 1.178576 0.665365
v 8.067180 1.400951 0.677366
v 7.054615 1.394147 -1.586577
v 3.647524 1.405768 -3.861992
v -0.062500 1.427745 -4.639271
v -3.413589 1.449721 -3.813585
v -6.956038 1.461342 -1.545206
v -8.129414 1.454539 0.571587
v 7.961362 1.676914 0.749182
v 6.876158 1.913195 -1.448459
v 3.537399 2.084795 -3.572439
v -0.039937 2.300163 -4.268837
v -3.286715 2.128751 -3.530969
v -6.763140 1.980388 -1.428101
v -8.015305 1.730503 0.629327
v 7.687541 1.791220 0.881324
v 6.421412 2.128188 -1.153283
v 3.230633 2.366061 -2.892465
v -0.030591 2.661529 -3.374530
v -3.022817 2.410012 -2.833240
v -6.324606 2.195383 -1.109339
v -7.766974 1.844810 0.804750
v 7.406116 1.676914 0.996391
v 5.956761 1.913195 -0.873957
v 2.906929 2.084795 -2.220392
v -0.039937 2.300163 -2.480224
v -2.776483 2.128751 -2.129118
v -5.897315 1.980388 -0.775653
v -7.529897 1.730503 0.995106
v -8.754269 1.547908 3.606938
v -8.471428 1.382862 3.453005
v 8.580365 1.306555 3.606938
v 8.332587 1.141509 3.453005
v 8.338122 1.458692 3.443766
v 8.580140 1.293646 3.289834
v -8.465891 1.700045 3.443766
v -8.754494 1.534998 3.289834
# 66 vertices

vt 0.000000 0.000000
vt 0.000000 0.125000
vt 0.125000 0.125000
vt 0.000000 0.250000
vt 0.125000 0.250000
vt 0.000000 0.375000
vt 0.125000 0.375000
vt 0.000000 0.500000
vt 0.125000 0.500000
vt 0.000000 0.625000
vt 0.125000 0.625000
vt 0.000000 0.750000
vt 0.125000 0.750000
vt 0.000000 0.875000
vt 0.125000 0.875000
vt 0.000000 1.000000
vt 0.250000 0.125000
vt 0.250000 0.000000
vt 0.250000 0.250000
vt 0.250000 0.375000
vt 0.250000 0.500000
vt 0.250000 0.625000
vt 0.250000 0.750000
vt 0.250000 0.875000
vt 0.250000 1.000000
vt 0.375000 0.125000
vt 0.375000 0.250000
vt 0.375000 0.375000
vt 0.375000 0.500000
vt 0.375000 0.625000
vt 0.375000 0.750000
vt 0.375000 0.875000
vt 0.500000 0.125000
vt 0.500000 0.000000
vt 0.500000 0.250000
vt 0.500000 0.375000
vt 0.500000 0.500000
vt 0.500000 0.625000
vt 0.500000 0.750000
vt 0.500000 0.875000
vt 0.500000 1.000000
vt 0.625000 0.125000
vt 0.625000 0.250000
vt 0.625000 0.375000
vt 0.625000 0.500000
vt 0.625000 0.625000
vt 0.625000 0.750000
vt 0.625000 0.875000
vt 0.750000 0.125000
vt 0.750000 0.000000
vt 0.750000 0.250000
vt 0.750000 0.375000
vt 0.750000 0.500000
vt 0.750000 0.625000
vt 0.750000 0.750000
vt 0.750000 0.875000
vt 0.750000 1.000000
vt 0.875000 0.125000
vt 0.875000 0.250000
vt 0.875000 0.375000
vt 0.875000 0.500000
vt 0.875000 0.625000
vt 0.875000 0.750000
vt 0.875000 0.875000
vt 1.000000 0.125000
vt 1.000000 0.000000
vt 1.000000 0.250000
vt 1.000000 0.375000
vt 1.000000 0.500000
vt 1.000000 0.625000
vt 1.000000 0.750000
vt 1.000000 0.875000
vt 1.000000 1.000000
vt -1.667134 -0.693519
vt -1.553051 -1.858279
vt 5.324728 -2.396786
vt 5.224796 -3.561547
vt 5.227025 -1.323130
vt 5.324640 -2.487891
vt -1.550819 0.380139
vt -1.667222 -0.784625
# 81 texture coordinates

vn 0.295929 -0.053777 0.953695
vn -0.876810 -0.005372 0.480807
vn -0.556981 -0.727735 0.400218
vn -0.584674 -0.012346 0.811174
vn -0.390592 -0.698977 0.599057
vn -0.212667 -0.006446 0.977103
vn -0.138164 -0.710991 0.689494
vn 0.023055 -0.001235 0.999733
vn 0.010855 -0.713768 0.700298
vn 0.239365 0.003144 0.970925
vn 0.148482 -0.710587 0.687764
vn 0.551885 0.008308 0.833879
vn 0.373482 -0.692655 0.617042
vn 0.845712 -0.006465 0.533600
vn 0.521229 -0.727464 0.446225
vn -0.430450 0.054909 0.900943
vn 0.047311 -0.993037 0.107889
vn 0.060980 -0.994461 0.085611
vn 0.062866 -0.997648 0.027325
vn -0.009392 -0.999823 0.016283
vn -0.076334 -0.996706 0.027379
vn -0.069725 -0.994592 0.076980
vn -0.085533 -0.989475 0.116714
vn 0.667738 -0.725189 -0.168011
vn 0.544710 -0.719149 -0.431412
vn 0.283241 -0.718548 -0.635188
vn -0.021161 -0.714948 -0.698857
vn -0.299121 -0.718748 -0.627637
vn -0.523674 -0.721932 -0.452305
vn -0.678054 -0.702422 -0.216438
vn 0.972071 -0.013285 -0.234311
vn 0.762258 0.001971 -0.647270
vn 0.387061 0.001167 -0.922054
vn -0.018166 0.001119 -0.999834
vn -0.394778 0.001576 -0.918775
vn -0.728015 0.001694 -0.685559
vn -0.952596 0.024174 -0.303276
vn 0.680540 0.714954 -0.160330
vn 0.545036 0.722882 -0.424709
vn 0.290762 0.720903 -0.629092
vn -0.008185 0.715447 -0.698620
vn -0.290709 0.718573 -0.631776
vn -0.523157 0.719369 -0.456963
vn -0.658891 0.719338 -0.220033
vn 0.057421 0.989832 0.130139
vn 0.060703 0.994337 0.087229
vn 0.071936 0.996880 0.032478
vn 0.004028 0.999851 0.016779
vn -0.066437 0.997510 0.023667
vn -0.069396 0.994671 0.076243
vn -0.067468 0.992962 0.097342
vn -0.557500 0.720840 0.411805
vn -0.400030 0.686852 0.606804
vn -0.136523 0.703507 0.697452
vn 0.017804 0.713319 0.700613
vn 0.151273 0.715705 0.681823
vn 0.365591 0.703395 0.609572
vn 0.528278 0.727699 0.437465
vn -0.009618 -0.690790 0.722991
vn -0.009651 -0.682544 0.730780
vn -0.009684 -0.674211 0.738475
vn 0.543607 -0.033916 -0.838654
vn 0.999848 -0.017438 0.000358
vn 0.543859 0.014950 0.839043
vn 0.009907 0.689753 -0.723977
vn 0.009641 0.681526 -0.731731
vn 0.009373 0.673211 -0.739391
vn -0.481871 0.875531 -0.035302
vn -0.999991 0.004136 0.000541
vn -0.489057 -0.871516 0.035827
vn 0.010372 0.722157 0.691651
vn 0.010331 0.730604 0.682723
vn 0.010288 0.738940 0.673693
vn -0.010636 -0.740501 -0.671971
vn -0.010357 -0.732156 -0.681059
vn -0.010076 -0.723699 -0.690043
# 76 normals

g Cylinder02
usemtl Material01
s 1
f 1/1/1 2/2/2 10/3/3
f 2/2/2 3/4/4 10/3/3
f 3/4/4 11/5/5 10/3/3
f 3/4/4 4/6/6 12/7/7
f 3/4/4 12/7/7 11/5/5
f 4/6/6 5/8/8 12/7/7
f 5/8/8 13/9/9 12/7/7
f 5/8/8 6/10/10 14/11/11
f 5/8/8 14/11/11 13/9/9
f 6/10/10 7/12/12 14/11/11
f 7/12/12 15/13/13 14/11/11
f 7/12/12 8/14/14 16/15/15
f 7/12/12 16/15/15 15/13/13
f 8/14/14 9/16/16 16/15/15
f 10/3/3 17/17/17 1/18/1
f 10/3/3 11/5/5 18/19/18
f 10/3/3 18/19/18 17/17/17
f 11/5/5 12/7/7 18/19/18
f 12/7/7 19/20/19 18/19/18
f 12/7/7 13/9/9 20/21/20
f 12/7/7 20/21/20 19/20/19
f 13/9/9 14/11/11 20/21/20
f 14/11/11 21/22/21 20/21/20
f 14/11/11 15/13/13 22/23/22
f 14/11/11 22/23/22 21/22/21
f 15/13/13 16/15/15 22/23/22
f 16/15/15 23/24/23 22/23/22
f 16/15/15 9/25/16 23/24/23
f 1/18/1 17/17/17 24/26/24
f 17/17/17 18/19/18 24/26/24
f 18/19/18 25/27/25 24/26/24
f 18/19/18 19/20/19 26/28/26
f 18/19/18 26/28/26 25/27/25
f 19/20/19 20/21/20 26/28/26
f 20/21/20 27/29/27 26/28/26
f 20/21/20 21/22/21 28/30/28
f 20/21/20 28/30/28 27/29/27
f 21/22/21 22/23/22 28/30/28
f 22/23/22 29/31/29 28/30/28
f 22/23/22 23/24/23 30/32/30
f 22/23/22 30/32/30 29/31/29
f 23/24/23 9/25/16 30/32/30
f 24/26/24 31/33/31 1/34/1
f 24/26/24 25/27/25 32/35/32
f 24/26/24 32/35/32 31/33/31
f 25/27/25 26/28/26 32/35/32
f 26/28/26 33/36/33 32/35/32
f 26/28/26 27/29/27 34/37/34
f 26/28/26 34/37/34 33/36/33
f 27/29/27 28/30/28 34/37/34
f 28/30/28 35/38/35 34/37/34
f 28/30/28 29/31/29 36/39/36
f 28/30/28 36/39/36 35/38/35
f 29/31/29 30/32/30 36/39/36
f 30/32/30 37/40/37 36/39/36
f 30/32/30 9/41/16 37/40/37
f 1/34/1 31/33/31 38/42/38
f 31/33/31 32/35/32 38/42/38
f 32/35/32 39/43/39 38/42/38
f 32/35/32 33/36/33 40/44/40
f 32/35/32 40/44/40 39/43/39
f 33/36/33 34/37/34 40/44/40
f 34/37/34 41/45/41 40/44/40
f 34/37/34 35/38/35 42/46/42
f 34/37/34 42/46/42 41/45/41
f 35/38/35 36/39/36 42/46/42
f 36/39/36 43/47/43 42/46/42
f 36/39/36 37/40/37 44/48/44
f 36/39/36 44/48/44 43/47/43
f 37/40/37 9/41/16 44/48/44
f 38/42/38 45/49/45 1/50/1
f 38/42/38 39/43/39 46/51/46
f 38/42/38 46/51/46 45/49/45
f 39/43/39 40/44/40 46/51/46
f 40/44/40 47/52/47 46/51/46
f 40/44/40 41/45/41 48/53/48
f 40/44/40 48/53/48 47/52/47
f 41/45/41 42/46/42 48/53/48
f 42/46/42 49/54/49 48/53/48
f 42/46/42 43/47/43 50/55/50
f 42/46/42 50/55/50 49/54/49
f 43/47/43 44/48/44 50/55/50
f 44/48/44 51/56/51 50/55/50
f 44/48/44 9/57/16 51/56/51
f 1/50/1 45/49/45 52/58/52
f 45/49/45 46/51/46 52/58/52
f 46/51/46 53/59/53 52/58/52
f 46/51/46 47/52/47 54/60/54
f 46/51/46 54/60/54 53/59/53
f 47/52/47 48/53/48 54/60/54
f 48/53/48 55/61/55 54/60/54
f 48/53/48 49/54/49 56/62/56
f 48/53/48 56/62/56 55/61/55
f 49/54/49 50/55/50 56/62/56
f 50/55/50 57/63/57 56/62/56
f 50/55/50 51/56/51 58/64/58
f 50/55/50 58/64/58 57/63/57
f 51/56/51 9/57/16 58/64/58
f 52/58/52 2/65/2 1/66/1
f 52/58/52 53/59/53 3/67/4
f 52/58/52 3/67/4 2/65/2
f 53/59/53 54/60/54 3/67/4
f 54/60/54 4/68/6 3/67/4
f 54/60/54 55/61/55 5/69/8
f 54/60/54 5/69/8 4/68/6
f 55/61/55 56/62/56 5/69/8
f 56/62/56 6/70/10 5/69/8
f 56/62/56 57/63/57 7/71/12
f 56/62/56 7/71/12 6/70/10
f 57/63/57 58/64/58 7/71/12
f 58/64/58 8/72/14 7/71/12
f 58/64/58 9/73/16 8/72/14
# 112 triangles in group

g Box01
usemtl cord
f 59/74/59 60/75/60 61/76/60
f 60/75/60 62/77/61 61/76/60
s 2
f 61/76/62 62/77/63 63/78/63
f 62/77/63 64/79/64 63/78/63
s 1
f 63/78/65 64/79/66 65/80/66
f 64/79/66 66/81/67 65/80/66
s 2
f 65/80/68 66/81/69 59/74/69
f 66/81/69 60/75/70 59/74/69
s 3
f 65/80/71 59/74/72 63/78/72
f 59/74/72 61/76/73 63/78/72
f 60/75/74 66/81/75 62/77/75
f 66/81/75 64/79/76 62/77/75
# 12 triangles in group

# 124 triangles total

