# Wavefront OBJ exported by MilkShape 3D

mtllib bread.mtl

v 6.090343 -1.357944 0.375000
v 7.391422 1.872213 0.375000
v 6.243641 5.102365 0.375000
v 2.033076 7.144381 0.375000
v -0.000000 7.648169 0.375000
v 5.274394 -1.357944 5.098156
v 6.401161 1.872213 5.748902
v 5.407154 5.102365 4.988533
v 1.760696 7.144381 3.640814
v 3.045172 -1.357944 8.555749
v 3.695711 1.872213 9.682877
v 3.121821 5.102365 8.365875
v 1.016538 6.907307 6.031559
v 0.000000 -1.357944 9.821317
v 0.000000 1.872213 11.122807
v 0.000000 5.102365 9.602066
v 0.000000 6.907307 6.906629
v -3.045172 -1.357944 8.555749
v -3.695711 1.872213 9.682877
v -3.121821 5.102365 8.365875
v -1.016538 6.907307 6.031559
v -5.274394 -1.357944 5.098156
v -6.401161 1.872213 5.748902
v -5.407154 5.102365 4.988533
v -1.760696 7.144381 3.640814
v -6.090343 -1.357944 0.375000
v -7.391422 1.872213 0.375000
v -6.243641 5.102365 0.375000
v -2.033076 7.144381 0.375000
v -5.274394 -1.357944 -4.348160
v -6.401161 1.872213 -4.998907
v -5.407154 5.102365 -4.238538
v -1.760696 7.144381 -2.890817
v -3.045172 -1.357944 -7.805749
v -3.695711 1.872213 -8.932874
v -3.121821 5.102365 -7.615875
v -1.016538 6.907307 -5.281560
v -0.000000 -1.357944 -9.071315
v -0.000000 1.872213 -10.372807
v -0.000000 5.102365 -8.852066
v -0.000000 6.907307 -6.156630
v 3.045172 -1.357944 -7.805749
v 3.695711 1.872213 -8.932874
v 3.121821 5.102365 -7.615875
v 1.016538 6.907307 -5.281560
v 5.274394 -1.357944 -4.348160
v 6.401161 1.872213 -4.998907
v 5.407154 5.102365 -4.238538
v 1.760696 7.144381 -2.890817
v -0.000000 -1.357944 0.375000
# 50 vertices

vt 1.007779 0.535923
vt 0.952004 0.274580
vt 0.591464 0.535923
vt 1.096717 0.535923
vt 1.029026 0.238573
vt 1.018259 0.535923
vt 0.961079 0.280645
vt 0.730438 0.535923
vt 0.711819 0.355218
vt 0.799621 0.083263
vt 0.844090 0.020897
vt 0.804861 0.093769
vt 0.660950 0.222932
vt 0.591464 0.013237
vt 0.591464 -0.058778
vt 0.591464 0.025368
vt 0.591464 0.174513
vt 0.383305 0.083263
vt 0.338836 0.020897
vt 0.378066 0.093769
vt 0.521976 0.222932
vt 0.230923 0.274580
vt 0.153901 0.238573
vt 0.221848 0.280645
vt 0.471108 0.355218
vt 0.175147 0.535923
vt 0.086210 0.535923
vt 0.164668 0.535923
vt 0.452489 0.535923
vt 0.230923 0.797266
vt 0.153901 0.833273
vt 0.221848 0.791200
vt 0.471108 0.716628
vt 0.383305 0.988582
vt 0.338836 1.050948
vt 0.378066 0.978076
vt 0.521976 0.848913
vt 0.591464 1.058609
vt 0.591464 1.130623
vt 0.591464 1.046477
vt 0.591464 0.897333
vt 0.799621 0.988582
vt 0.844090 1.050948
vt 0.804861 0.978076
vt 0.660950 0.848913
vt 0.952004 0.797266
vt 1.029026 0.833273
vt 0.961079 0.791200
vt 0.711819 0.716628
# 49 texture coordinates

vn 0.000000 -1.000000 0.000000
vn 0.948040 -0.318150 0.000000
vn 0.999831 -0.018368 0.000000
vn 0.950376 -0.007915 0.311004
vn 0.900951 -0.329385 0.282475
vn 0.786186 0.617989 0.000000
vn 0.741395 0.625678 0.242611
vn 0.389062 0.921211 0.000000
vn 0.400170 0.908985 0.116662
vn 0.000000 1.000000 -0.000000
vn 0.654554 -0.363836 0.662708
vn 0.695151 0.013349 0.718740
vn 0.551225 0.653824 0.518330
vn 0.282059 0.938829 0.197593
vn 0.000000 0.027686 0.999617
vn 0.000000 -0.397291 0.917693
vn 0.000000 0.680773 0.732494
vn 0.000000 0.940513 0.339758
vn -0.654554 -0.363836 0.662708
vn -0.695151 0.013349 0.718740
vn -0.551225 0.653824 0.518330
vn -0.282059 0.938829 0.197593
vn -0.950376 -0.007915 0.311004
vn -0.900951 -0.329385 0.282475
vn -0.741395 0.625678 0.242611
vn -0.400170 0.908985 0.116662
vn -0.948040 -0.318150 0.000000
vn -0.999831 -0.018368 0.000000
vn -0.786186 0.617989 0.000000
vn -0.389062 0.921211 0.000000
vn -0.950376 -0.007916 -0.311004
vn -0.900951 -0.329385 -0.282475
vn -0.741395 0.625678 -0.242611
vn -0.400170 0.908985 -0.116662
vn -0.654554 -0.363836 -0.662708
vn -0.695151 0.013349 -0.718740
vn -0.551225 0.653823 -0.518330
vn -0.282059 0.938829 -0.197593
vn 0.000000 0.027686 -0.999617
vn 0.000000 -0.397291 -0.917693
vn 0.000000 0.680773 -0.732495
vn 0.000000 0.940513 -0.339758
vn 0.654554 -0.363836 -0.662708
vn 0.695151 0.013349 -0.718740
vn 0.551225 0.653823 -0.518330
vn 0.282059 0.938829 -0.197593
vn 0.950376 -0.007916 -0.311004
vn 0.900951 -0.329385 -0.282475
vn 0.741395 0.625678 -0.242611
vn 0.400170 0.908985 -0.116662
# 50 normals

g Cylinder02
usemtl Material01
s 2
f 1/1/1 6/2/1 50/3/1
s 1
f 1/1/2 2/4/3 7/5/4
f 1/1/2 7/5/4 6/2/5
f 2/4/3 3/6/6 7/5/4
f 3/6/6 8/7/7 7/5/4
f 3/6/6 4/8/8 9/9/9
f 3/6/6 9/9/9 8/7/7
f 4/8/8 5/3/10 9/9/9
s 2
f 6/2/1 10/10/1 50/3/1
s 1
f 6/2/5 7/5/4 10/10/11
f 7/5/4 11/11/12 10/10/11
f 7/5/4 8/7/7 12/12/13
f 7/5/4 12/12/13 11/11/12
f 8/7/7 9/9/9 12/12/13
f 9/9/9 13/13/14 12/12/13
f 9/9/9 5/3/10 13/13/14
s 2
f 10/10/1 14/14/1 50/3/1
s 1
f 10/10/11 11/11/12 15/15/15
f 10/10/11 15/15/15 14/14/16
f 11/11/12 12/12/13 15/15/15
f 12/12/13 16/16/17 15/15/15
f 12/12/13 13/13/14 17/17/18
f 12/12/13 17/17/18 16/16/17
f 13/13/14 5/3/10 17/17/18
s 2
f 14/14/1 18/18/1 50/3/1
s 1
f 14/14/16 15/15/15 18/18/19
f 15/15/15 19/19/20 18/18/19
f 15/15/15 16/16/17 20/20/21
f 15/15/15 20/20/21 19/19/20
f 16/16/17 17/17/18 20/20/21
f 17/17/18 21/21/22 20/20/21
f 17/17/18 5/3/10 21/21/22
s 2
f 18/18/1 22/22/1 50/3/1
s 1
f 18/18/19 19/19/20 23/23/23
f 18/18/19 23/23/23 22/22/24
f 19/19/20 20/20/21 23/23/23
f 20/20/21 24/24/25 23/23/23
f 20/20/21 21/21/22 25/25/26
f 20/20/21 25/25/26 24/24/25
f 21/21/22 5/3/10 25/25/26
s 2
f 22/22/1 26/26/1 50/3/1
s 1
f 22/22/24 23/23/23 26/26/27
f 23/23/23 27/27/28 26/26/27
f 23/23/23 24/24/25 28/28/29
f 23/23/23 28/28/29 27/27/28
f 24/24/25 25/25/26 28/28/29
f 25/25/26 29/29/30 28/28/29
f 25/25/26 5/3/10 29/29/30
s 2
f 26/26/1 30/30/1 50/3/1
s 1
f 26/26/27 27/27/28 31/31/31
f 26/26/27 31/31/31 30/30/32
f 27/27/28 28/28/29 31/31/31
f 28/28/29 32/32/33 31/31/31
f 28/28/29 29/29/30 33/33/34
f 28/28/29 33/33/34 32/32/33
f 29/29/30 5/3/10 33/33/34
s 2
f 30/30/1 34/34/1 50/3/1
s 1
f 30/30/32 31/31/31 34/34/35
f 31/31/31 35/35/36 34/34/35
f 31/31/31 32/32/33 36/36/37
f 31/31/31 36/36/37 35/35/36
f 32/32/33 33/33/34 36/36/37
f 33/33/34 37/37/38 36/36/37
f 33/33/34 5/3/10 37/37/38
s 2
f 34/34/1 38/38/1 50/3/1
s 1
f 34/34/35 35/35/36 39/39/39
f 34/34/35 39/39/39 38/38/40
f 35/35/36 36/36/37 39/39/39
f 36/36/37 40/40/41 39/39/39
f 36/36/37 37/37/38 41/41/42
f 36/36/37 41/41/42 40/40/41
f 37/37/38 5/3/10 41/41/42
s 2
f 38/38/1 42/42/1 50/3/1
s 1
f 38/38/40 39/39/39 42/42/43
f 39/39/39 43/43/44 42/42/43
f 39/39/39 40/40/41 44/44/45
f 39/39/39 44/44/45 43/43/44
f 40/40/41 41/41/42 44/44/45
f 41/41/42 45/45/46 44/44/45
f 41/41/42 5/3/10 45/45/46
s 2
f 42/42/1 46/46/1 50/3/1
s 1
f 42/42/43 43/43/44 47/47/47
f 42/42/43 47/47/47 46/46/48
f 43/43/44 44/44/45 47/47/47
f 44/44/45 48/48/49 47/47/47
f 44/44/45 45/45/46 49/49/50
f 44/44/45 49/49/50 48/48/49
f 45/45/46 5/3/10 49/49/50
s 2
f 46/46/1 1/1/1 50/3/1
s 1
f 46/46/48 47/47/47 1/1/2
f 47/47/47 2/4/3 1/1/2
f 47/47/47 48/48/49 3/6/6
f 47/47/47 3/6/6 2/4/3
f 48/48/49 49/49/50 3/6/6
f 49/49/50 4/8/8 3/6/6
f 49/49/50 5/3/10 4/8/8
# 96 triangles in group

# 96 triangles total

