# Wavefront OBJ exported by MilkShape 3D

mtllib buildplace.mtl

v -25.505859 21.335686 -19.609215
v -9.239826 -75.981705 -7.333804
v -22.995247 21.978653 -17.269409
v -20.425726 22.031548 -19.755272
v -22.936338 21.388588 -22.095074
v -22.510340 21.347542 28.092043
v -8.744058 -75.751938 11.717691
v -20.271452 22.029892 25.501095
v -22.843906 22.020805 23.017719
v -25.082792 21.338448 25.608669
v 20.312223 22.009941 25.491356
v 9.140483 -75.850403 11.908621
v 22.732430 21.326065 27.913389
v 25.391251 21.291653 25.522936
v 22.971041 21.975533 23.100906
v 19.988604 22.100983 -19.564810
v 8.801903 -75.935760 -7.333835
v 22.618782 22.015869 -17.269976
v 25.058935 21.359280 -19.799665
v 22.428759 21.444366 -22.094498
v 22.716595 17.860397 26.216787
v 23.295593 13.831505 13.870971
v 23.536047 12.099476 2.963955
v 23.295593 13.831505 -7.492769
v 22.816597 18.235397 -19.119770
v 22.224260 11.975838 13.870977
v 22.464714 10.243801 2.963964
v 22.224260 11.975838 -7.492763
v 24.598177 12.153221 13.870975
v 24.838636 10.421188 2.963955
v 24.598177 12.153221 -7.492775
v -22.819962 18.235397 26.216784
v -22.304415 13.831505 13.870972
v -22.063963 12.099476 2.963955
v -22.304415 13.831505 -7.492769
v -22.719959 18.610397 -19.119774
v -23.375750 11.975838 13.870977
v -23.135294 10.243801 2.963964
v -23.375750 11.975838 -7.492763
v -21.001833 12.153221 13.870975
v -20.761374 10.421188 2.963955
v -21.001833 12.153221 -7.492775
v 10.408525 13.831505 -19.566490
v -0.498495 12.099476 -19.806940
v -10.955219 13.831505 -19.566486
v 10.408530 11.975838 -18.495155
v -0.498486 10.243801 -18.735615
v -10.955215 11.975838 -18.495157
v 10.408527 12.153221 -20.869070
v -0.498497 10.421188 -21.109531
v -10.955223 12.153221 -20.869072
v 10.208525 13.831505 25.633511
v -0.698495 12.099476 25.393059
v -11.155217 13.831505 25.633514
v 10.208530 11.975838 26.704845
v -0.698485 10.243801 26.464386
v -11.155213 11.975838 26.704842
v 10.208528 12.153221 24.330927
v -0.698497 10.421188 24.090467
v -11.155221 12.153221 24.330927
# 60 vertices

vt 0.363586 0.655439
vt 0.363586 0.493613
vt 0.515088 0.655439
vt 0.515088 0.493613
vt 0.000000 0.000000
vt 0.000000 0.250000
vt 0.333333 0.250000
vt 0.000000 0.500000
vt 0.333333 0.500000
vt 0.000000 0.750000
vt 0.333333 0.750000
vt 0.000000 1.000000
vt 0.666667 0.250000
vt 0.666667 0.000000
vt 0.666667 0.500000
vt 0.666667 0.750000
vt 0.666667 1.000000
vt 1.000000 0.250000
vt 1.000000 0.500000
vt 1.000000 0.750000
# 20 texture coordinates

vn -0.678771 -0.020861 0.734054
vn 0.136922 -0.982898 0.123143
vn 0.683635 0.168029 0.710218
vn 0.139319 -0.982572 0.123053
vn 0.683689 -0.014441 -0.729631
vn -0.678749 -0.202490 -0.705902
vn -0.138137 0.982887 -0.121869
vn 0.757012 -0.002860 0.653395
vn 0.139126 -0.980612 -0.137997
vn 0.682829 0.180296 -0.707982
vn 0.138982 -0.980296 -0.140367
vn -0.752015 -0.032360 -0.658351
vn -0.677954 -0.214677 0.703059
vn -0.137818 0.980631 0.139170
vn -0.709635 -0.016753 0.704370
vn -0.139089 -0.980623 -0.137956
vn 0.651997 -0.211132 0.728233
vn -0.136698 -0.980962 -0.137937
vn 0.704640 -0.018467 -0.709325
vn -0.656791 0.176727 -0.733071
vn 0.137818 0.980631 0.139175
vn -0.645177 0.166644 0.745638
vn -0.139230 -0.982565 0.123209
vn 0.715485 -0.030122 0.697979
vn -0.136898 -0.982914 0.123037
vn 0.640177 -0.201934 -0.741213
vn -0.720286 -0.004351 -0.693664
vn 0.138134 0.982886 -0.121877
vn 0.163863 0.971463 0.171491
vn 0.218126 0.953220 -0.209266
vn -0.855212 -0.502730 0.125999
vn -0.503526 0.863974 0.003164
vn -0.850851 -0.525405 -0.001320
vn 0.217074 0.948448 0.230924
vn -0.857111 -0.496657 -0.136724
vn 0.125629 0.984702 -0.120744
vn 0.914948 -0.358918 0.184521
vn 0.917553 -0.397609 -0.001713
vn 0.916542 -0.350919 -0.191853
vn -0.140229 0.980160 0.140079
vn 0.217486 0.951000 -0.219770
vn -0.856127 -0.500037 0.130424
vn 0.216254 0.945918 0.241812
vn -0.858145 -0.493691 -0.140914
vn -0.116695 0.989503 -0.085236
vn 0.916062 -0.355724 0.185177
vn 0.917772 -0.347602 -0.192010
vn -0.219061 0.951269 -0.217026
vn 0.131592 -0.499938 0.856006
vn 0.003164 0.863974 0.503527
vn -0.001320 -0.525407 0.850850
vn 0.240218 0.946265 -0.216511
vn -0.139496 -0.494445 0.857943
vn 0.182373 -0.356653 -0.916264
vn -0.001713 -0.397609 -0.917553
vn -0.191925 -0.348282 -0.917532
vn -0.207779 0.953544 -0.218133
vn 0.125120 -0.503261 0.855029
vn 0.230621 0.948343 -0.217853
vn -0.134170 -0.497348 0.857113
vn 0.183259 -0.359799 -0.914856
vn -0.195159 -0.350248 -0.916100
# 62 normals

g Box01
usemtl wood
s 1
f 1/1/1 2/2/2 3/3/1
s 2
f 3/1/3 2/2/4 4/3/3
s 1
f 4/1/5 2/2/2 5/3/5
s 2
f 5/1/6 2/2/4 1/3/6
s 3
f 5/1/7 1/2/7 4/3/7
f 1/2/7 3/4/7 4/3/7
# 6 triangles in group

g Duplicate02
usemtl wood
s 1
f 6/1/8 7/2/9 8/3/8
s 2
f 8/1/10 7/2/11 9/3/10
s 1
f 9/1/12 7/2/9 10/3/12
s 2
f 10/1/13 7/2/11 6/3/13
s 3
f 10/1/14 6/2/14 9/3/14
f 6/2/14 8/4/14 9/3/14
# 6 triangles in group

g Duplicate03
usemtl wood
s 1
f 11/1/15 12/2/16 13/3/15
s 2
f 13/1/17 12/2/18 14/3/17
s 1
f 14/1/19 12/2/16 15/3/19
s 2
f 15/1/20 12/2/18 11/3/20
s 3
f 15/1/21 11/2/21 14/3/21
f 11/2/21 13/4/21 14/3/21
# 6 triangles in group

g Duplicate04
usemtl wood
s 1
f 16/1/22 17/2/23 18/3/22
s 2
f 18/1/24 17/2/25 19/3/24
s 1
f 19/1/26 17/2/23 20/3/26
s 2
f 20/1/27 17/2/25 16/3/27
s 3
f 20/1/28 16/2/28 19/3/28
f 16/2/28 18/4/28 19/3/28
# 6 triangles in group

g Cylinder03
usemtl liana
s 1
f 21/5/29 22/6/30 26/7/31
f 22/6/30 23/8/32 26/7/31
f 23/8/32 27/9/33 26/7/31
f 23/8/32 24/10/34 28/11/35
f 23/8/32 28/11/35 27/9/33
f 24/10/34 25/12/36 28/11/35
f 26/7/31 29/13/37 21/14/29
f 26/7/31 27/9/33 30/15/38
f 26/7/31 30/15/38 29/13/37
f 27/9/33 28/11/35 30/15/38
f 28/11/35 31/16/39 30/15/38
f 28/11/35 25/17/36 31/16/39
f 21/14/29 29/13/37 22/18/30
f 29/13/37 30/15/38 22/18/30
f 30/15/38 23/19/32 22/18/30
f 30/15/38 31/16/39 24/20/34
f 30/15/38 24/20/34 23/19/32
f 31/16/39 25/17/36 24/20/34
# 18 triangles in group

g Duplicate05
usemtl liana
f 32/5/40 33/6/41 37/7/42
f 33/6/41 34/8/32 37/7/42
f 34/8/32 38/9/33 37/7/42
f 34/8/32 35/10/43 39/11/44
f 34/8/32 39/11/44 38/9/33
f 35/10/43 36/12/45 39/11/44
f 37/7/42 40/13/46 32/14/40
f 37/7/42 38/9/33 41/15/38
f 37/7/42 41/15/38 40/13/46
f 38/9/33 39/11/44 41/15/38
f 39/11/44 42/16/47 41/15/38
f 39/11/44 36/17/45 42/16/47
f 32/14/40 40/13/46 33/18/41
f 40/13/46 41/15/38 33/18/41
f 41/15/38 34/19/32 33/18/41
f 41/15/38 42/16/47 35/20/43
f 41/15/38 35/20/43 34/19/32
f 42/16/47 36/17/45 35/20/43
# 18 triangles in group

g Duplicate06
usemtl liana
f 25/5/36 43/6/48 46/7/49
f 43/6/48 44/8/50 46/7/49
f 44/8/50 47/9/51 46/7/49
f 44/8/50 45/10/52 48/11/53
f 44/8/50 48/11/53 47/9/51
f 45/10/52 36/12/45 48/11/53
f 46/7/49 49/13/54 25/14/36
f 46/7/49 47/9/51 50/15/55
f 46/7/49 50/15/55 49/13/54
f 47/9/51 48/11/53 50/15/55
f 48/11/53 51/16/56 50/15/55
f 48/11/53 36/17/45 51/16/56
f 25/14/36 49/13/54 43/18/48
f 49/13/54 50/15/55 43/18/48
f 50/15/55 44/19/50 43/18/48
f 50/15/55 51/16/56 45/20/52
f 50/15/55 45/20/52 44/19/50
f 51/16/56 36/17/45 45/20/52
# 18 triangles in group

g Duplicate07
usemtl liana
f 21/5/29 52/6/57 55/7/58
f 52/6/57 53/8/50 55/7/58
f 53/8/50 56/9/51 55/7/58
f 53/8/50 54/10/59 57/11/60
f 53/8/50 57/11/60 56/9/51
f 54/10/59 32/12/40 57/11/60
f 55/7/58 58/13/61 21/14/29
f 55/7/58 56/9/51 59/15/55
f 55/7/58 59/15/55 58/13/61
f 56/9/51 57/11/60 59/15/55
f 57/11/60 60/16/62 59/15/55
f 57/11/60 32/17/40 60/16/62
f 21/14/29 58/13/61 52/18/57
f 58/13/61 59/15/55 52/18/57
f 59/15/55 53/19/50 52/18/57
f 59/15/55 60/16/62 54/20/59
f 59/15/55 54/20/59 53/19/50
f 60/16/62 32/17/40 54/20/59
# 18 triangles in group

# 96 triangles total

