# Wavefront OBJ exported by MilkShape 3D

mtllib bush13.mtl

v 41.699615 3.301594 1.052385
v 32.680088 11.069157 1.397305
v 20.878128 15.042850 1.377338
v 9.510105 12.415775 1.313149
v 0.431820 6.494144 1.333332
v 2.241955 -1.572002 -3.686796
v 0.960049 -1.775036 5.372388
v 10.919968 4.286243 6.304976
v 11.689114 4.408054 -4.419583
v 21.667114 6.792866 -4.788502
v 21.391315 6.792866 7.550834
v 31.637600 4.287724 -5.281622
v 30.359432 4.513096 8.583834
v 38.574001 1.471394 -0.288147
v 38.574001 1.471394 2.357664
v -0.400000 -16.294659 0.801106
v 1.747403 -4.794659 0.801109
v 4.153180 3.205341 1.301109
v 0.028572 7.491062 0.801109
v 1.245006 -4.794659 2.102364
v 3.087937 3.205341 4.190475
v -0.027107 -4.794659 2.794739
v 0.390651 3.205341 5.727897
v -1.473701 -4.794659 2.554276
v -2.676590 3.205341 5.193961
v -2.417899 -4.794659 1.493492
v -4.678589 3.205341 2.838509
v -2.417899 -4.794659 0.108727
v -4.678589 3.205341 -0.236298
v -1.473701 -4.794659 -0.952065
v -2.676590 3.205341 -2.591744
v -0.027107 -4.794659 -1.192529
v 0.390651 3.205341 -3.125680
v 1.245006 -4.794659 -0.500145
v 3.087937 3.205341 -1.588265
v -35.092163 3.301594 23.684341
v -27.715612 11.069157 18.482677
v -17.806776 15.042850 12.071617
v -8.237787 12.415775 5.933983
v -0.635101 6.494144 0.972670
v 0.580959 -1.572002 6.168770
v -3.277935 -1.775036 -2.127073
v -12.138948 4.286243 2.515353
v -6.943001 4.408054 11.928627
v -15.110315 6.792866 17.672432
v -21.599504 6.792866 7.173594
v -23.203703 4.287724 23.516327
v -29.683411 4.513096 11.191632
v -31.740702 1.471394 23.106274
v -33.181709 1.471394 20.887306
v -21.391479 3.301594 -33.761215
v -16.189823 11.069157 -26.384666
v -9.778763 15.042850 -16.475826
v -3.641129 12.415775 -6.906834
v 1.320186 6.494144 0.695843
v -3.875916 -1.572002 1.911911
v 4.419924 -1.775036 -1.946987
v -0.222499 4.286243 -10.807999
v -9.635773 4.408054 -5.612049
v -15.379580 6.792866 -13.779366
v -4.880737 6.792866 -20.268555
v -21.223473 4.287724 -21.872753
v -8.898775 4.513096 -28.352463
v -20.813419 1.471394 -30.409756
v -18.594448 1.471394 -31.850761
v 25.370405 15.474262 -28.951878
v 18.481998 20.265354 -20.501923
v 10.300264 20.614872 -11.120350
v 3.623514 14.778889 -3.537470
v -0.921060 6.461765 1.721228
v -2.026937 -0.722698 -4.658548
v 4.044803 -1.291653 2.165201
v 9.834785 7.416782 -3.073908
v 2.200045 7.758137 -10.638090
v 7.724304 12.956043 -17.555347
v 16.863884 12.875401 -9.260960
v 14.088072 13.475452 -25.627663
v 23.707325 13.317280 -15.558882
v 22.748764 12.810184 -27.979332
v 24.745584 12.810184 -26.243523
v -35.566650 15.474262 -18.891720
v -25.957573 20.265354 -13.742203
v -15.187213 20.614872 -7.500874
v -6.469671 14.778889 -2.393679
v -0.440443 6.461765 1.063991
v -6.491996 -0.722698 3.366870
v -0.952161 -1.291653 -3.895348
v -7.199790 7.416782 -8.579281
v -13.168221 7.758137 0.358501
v -21.012470 12.956043 -3.744389
v -14.614387 12.875401 -14.298695
v -30.150738 13.475452 -8.450966
v -22.102383 13.317280 -19.814693
v -34.111740 12.810184 -16.503815
v -32.788834 12.810184 -18.795158
v -9.399973 14.974262 40.106346
v -7.284889 19.765354 29.411556
v -4.465225 20.114872 17.287022
v -2.129955 14.278889 7.457202
v -0.586145 5.961765 0.680500
v 3.385415 -1.222698 5.794329
v -5.179174 -1.791653 2.619831
v -7.831806 6.916782 9.963911
v 2.460432 7.258137 13.058399
v 0.830256 12.456043 21.759457
v -11.133499 12.375401 18.726715
v -0.998892 12.975452 31.874493
v -14.219199 12.817280 27.500248
v -7.541786 12.310184 38.016853
v -10.119793 12.310184 37.421677
v 19.410889 6.986767 27.381941
v 17.122494 11.788349 19.113770
v 12.517855 13.679440 9.876675
v 6.087633 11.159649 2.835689
v -0.298515 6.628010 -1.641867
v 1.618387 -1.330196 -0.386641
v -5.488383 3.286411 2.998218
v 0.706139 8.476383 8.480154
v 8.710118 2.883877 3.995622
v 14.679579 4.921391 9.955442
v 5.817259 11.488758 15.491072
v 19.197765 3.621471 17.274721
v 8.828817 11.089741 22.767191
v 18.230457 4.846958 25.154560
v 16.359585 6.258907 26.381960
v 9.974218 9.313801 -31.096840
v 9.210901 13.662762 -22.312851
v 6.745495 14.839520 -12.181709
v 3.255364 11.143772 -3.729910
v -0.101572 5.304813 2.270479
v -5.621207 0.907467 -2.063127
v 2.406979 -1.923306 1.224944
v 6.902707 3.894543 -5.201627
v -2.818124 7.042042 -8.525715
v -0.135916 10.461605 -16.036896
v 11.232292 7.038723 -12.666191
v 1.615756 10.246197 -24.555168
v 14.172489 6.420589 -19.956154
v 7.603758 7.829082 -29.333324
v 10.056921 7.104198 -28.657372
v 31.594488 24.582321 19.204300
v 22.154490 27.770096 12.682722
v 11.843281 26.330475 5.850169
v 3.789824 19.150776 1.408138
v -0.624327 6.384296 0.432053
v 3.806725 2.762302 -2.102751
v -1.838590 2.889805 5.084813
v 4.431256 13.103245 8.892221
v 10.988323 12.154560 0.423013
v 18.272043 18.472294 3.946925
v 11.161329 19.947559 13.926739
v 27.023512 20.386478 9.014210
v 18.215372 21.836094 19.703028
v 30.437643 21.444263 17.272835
v 28.958960 21.785633 19.440157
v -37.580696 23.296585 -0.247023
v -26.183990 26.484375 1.079376
v -13.872044 25.044754 2.271346
v -4.675854 17.865055 2.412555
v -0.320149 5.098591 1.202075
v -3.042519 1.476597 5.520422
v -1.432350 1.604084 -3.476133
v -8.755774 11.817539 -3.894363
v -10.569265 10.868855 6.661860
v -18.654778 17.186573 6.969929
v -17.061634 18.661823 -5.180000
v -28.760818 19.100758 6.604348
v -26.001789 20.550373 -6.968490
v -35.652496 20.158527 0.915252
v -35.364395 20.499912 -1.692581
# 170 vertices

vt 0.337584 0.029903
vt 0.392583 0.245553
vt 0.236532 0.002086
vt 0.237334 0.265836
vt 0.103299 0.235649
vt 0.146642 0.031056
vt 0.438117 0.493091
vt 0.245135 0.501193
vt 0.062463 0.498936
vt 0.404254 0.734629
vt 0.252619 0.747675
vt 0.110464 0.742980
vt 0.321908 0.983539
vt 0.244874 0.997759
vt 0.173553 0.982970
vt 0.487644 -0.171270
vt 0.604606 -0.171270
vt 0.604606 -0.613223
vt 0.487644 0.270685
vt 0.604606 0.270685
vt 0.487644 0.712638
vt 0.721568 -0.171270
vt 0.721568 0.270685
vt 0.721568 0.712638
vt 0.838531 -0.171270
vt 0.838531 -0.613223
vt 0.838531 0.270685
vt 0.955493 -0.171270
vt 0.955493 0.270685
vt 0.955493 0.712638
vt 1.072455 -0.171270
vt 1.072455 -0.613223
vt 1.072455 0.270685
vt 1.189417 -0.171270
vt 1.189417 0.270685
vt 1.189417 0.712638
vt 1.306380 -0.171270
vt 1.306380 -0.613223
vt 1.306380 0.270685
vt 1.423342 -0.171270
vt 1.423342 0.270685
vt 1.423342 0.712638
vt 1.540304 -0.171270
vt 1.540304 -0.613223
vt 1.540304 0.270685
# 45 texture coordinates

vn 0.499397 -0.243975 -0.831311
vn 0.414859 0.381336 -0.826121
vn 0.957180 0.289381 -0.008040
vn 0.397874 0.917426 -0.005153
vn 0.423803 0.373915 0.824972
vn 0.508037 -0.288920 0.811433
vn 0.057970 0.630228 -0.774243
vn -0.070851 0.997460 0.007302
vn 0.024302 0.641875 0.766424
vn -0.219631 0.540188 -0.812379
vn -0.471150 0.881616 0.027769
vn -0.234983 0.510967 0.826859
vn -0.331052 0.465428 -0.820842
vn -0.545984 0.837145 0.033003
vn -0.307235 0.428208 0.849850
vn 0.981491 -0.150265 0.118728
vn 0.741588 -0.166329 0.649909
vn 0.766750 0.011503 0.641843
vn 0.987522 0.131069 -0.087305
vn 0.760792 0.035520 0.648023
vn 0.025037 0.999246 -0.029678
vn 0.167415 -0.175245 0.970186
vn 0.169287 0.255717 0.951815
vn -0.476173 -0.172782 0.862210
vn -0.500844 0.014139 0.865422
vn -0.491192 0.044124 0.869933
vn -0.925769 -0.158003 0.343492
vn -0.900122 0.286935 0.327794
vn -0.925435 -0.137077 -0.353242
vn -0.939945 0.003174 -0.341311
vn -0.932289 0.086496 -0.351221
vn -0.487420 -0.122571 -0.864522
vn -0.473720 0.272642 -0.837410
vn 0.164747 -0.120134 -0.978993
vn 0.174045 0.000393 -0.984738
vn 0.170399 0.078820 -0.982218
vn 0.752020 -0.129128 -0.646368
vn 0.739015 0.242787 -0.628419
vn 0.992649 0.004403 -0.120948
vn 0.033935 -0.243976 0.969187
vn 0.102007 0.381336 0.918791
vn -0.798380 0.289381 0.528060
vn -0.330878 0.917426 0.221019
vn -0.804743 0.373915 -0.461060
vn -0.868014 -0.288920 -0.403828
vn 0.373066 0.630228 0.680907
vn 0.055444 0.997460 -0.044712
vn -0.437806 0.641875 -0.629542
vn 0.626651 0.540187 0.561700
vn 0.380015 0.881616 -0.279895
vn -0.253266 0.510967 -0.821443
vn 0.724706 0.465428 0.508112
vn 0.439926 0.837145 -0.325044
vn -0.205192 0.428208 -0.880076
vn -0.969188 -0.243974 0.033934
vn -0.918791 0.381336 0.102007
vn -0.528060 0.289382 -0.798380
vn -0.221019 0.917426 -0.330879
vn 0.461060 0.373915 -0.804743
vn 0.403828 -0.288920 -0.868014
vn -0.680907 0.630228 0.373066
vn 0.044712 0.997460 0.055444
vn 0.629542 0.641875 -0.437806
vn -0.561700 0.540187 0.626651
vn 0.279896 0.881616 0.380015
vn 0.821443 0.510967 -0.253266
vn -0.508112 0.465428 0.724706
vn 0.325045 0.837145 0.439926
vn 0.880076 0.428208 -0.205192
vn -0.267285 -0.087304 -0.959655
vn -0.436347 0.485967 -0.757256
vn 0.538951 0.556592 -0.632248
vn 0.069759 0.993666 -0.088104
vn 0.816782 0.481486 0.317865
vn 0.986554 -0.127758 0.101930
vn -0.668845 0.619638 -0.410725
vn -0.230266 0.933161 0.276021
vn 0.470555 0.620933 0.626913
vn -0.854520 0.452370 -0.255259
vn -0.443744 0.705343 0.552796
vn 0.378602 0.419938 0.824811
vn -0.916472 0.348300 -0.196891
vn -0.478214 0.640936 0.600427
vn 0.366497 0.319671 0.873780
vn -0.891023 -0.087303 0.445485
vn -0.660084 0.485967 0.572822
vn -0.723468 0.556593 -0.408410
vn -0.099795 0.993666 -0.051667
vn 0.156175 0.481486 -0.862427
vn -0.088186 -0.127757 -0.987877
vn -0.275557 0.619639 0.734926
vn 0.314887 0.933161 0.173368
vn 0.525609 0.620933 -0.581530
vn -0.087519 0.452370 0.887526
vn 0.627310 0.705343 0.330113
vn 0.737416 0.419938 -0.529027
vn -0.018402 0.348300 0.937202
vn 0.680643 0.640936 0.354860
vn 0.787795 0.319670 -0.526488
vn 0.686530 -0.087303 0.721842
vn 0.740782 0.485967 0.463764
vn -0.179043 0.556594 0.811263
vn -0.020231 0.993666 0.110541
vn -0.870404 0.481487 0.102798
vn -0.918929 -0.127754 0.373160
vn 0.783379 0.619638 0.048645
vn 0.073730 0.933161 -0.351816
vn -0.709793 0.620933 -0.332619
vn 0.874333 0.452370 -0.175793
vn 0.132281 0.705343 -0.696415
vn -0.721510 0.419938 -0.550522
vn 0.901631 0.348301 -0.256413
vn 0.140354 0.640936 -0.754654
vn -0.733812 0.319670 -0.599442
vn 0.762690 -0.548868 -0.342121
vn 0.989154 0.101184 -0.106468
vn 0.680803 -0.300144 0.668148
vn 0.590263 0.557772 0.583507
vn -0.102744 0.087504 0.990852
vn -0.341710 -0.593766 0.728475
vn 0.810926 0.558192 -0.175561
vn 0.348749 0.865056 0.360627
vn -0.186227 0.587008 0.787871
vn 0.633860 0.649821 -0.419468
vn 0.069907 0.991238 0.112074
vn -0.455005 0.634785 0.624515
vn 0.539511 0.650991 -0.533984
vn 0.006657 0.998346 0.057105
vn -0.561015 0.607006 0.562855
vn -0.612931 -0.548869 -0.568382
vn -0.484498 0.101185 -0.868921
vn 0.349022 -0.300143 -0.887749
vn 0.306487 0.557772 -0.771334
vn 0.952229 0.087505 -0.292581
vn 0.804082 -0.593766 0.029907
vn -0.478459 0.558192 -0.677864
vn 0.195692 0.865056 -0.461933
vn 0.798004 0.587008 -0.136423
vn -0.633792 0.649821 -0.419572
vn 0.075850 0.991238 -0.108140
vn 0.752653 0.634785 0.174817
vn -0.702339 0.650991 -0.287978
vn 0.049965 0.998346 -0.028440
vn 0.737317 0.607006 0.296491
vn 0.923162 -0.114450 -0.366978
vn 0.674935 0.411060 -0.612774
vn 0.666033 0.663919 0.340017
vn 0.048960 0.990449 -0.128896
vn -0.238733 0.621233 0.746376
vn 0.024701 0.060875 0.997840
vn 0.296830 0.489717 -0.819798
vn -0.345626 0.865242 -0.363180
vn -0.593748 0.684685 0.422694
vn 0.141232 0.299164 -0.943692
vn -0.684164 0.516321 -0.515105
vn -0.785830 0.471294 0.400441
vn -0.149843 0.206963 -0.966806
vn -0.779258 0.311035 -0.544072
vn -0.913143 0.359512 0.192148
vn -0.642819 -0.114450 0.757420
vn -0.308253 0.411059 0.857910
vn -0.747701 0.663919 0.012466
vn 0.017283 0.990449 0.136794
vn -0.139614 0.621233 -0.771089
vn -0.490267 0.060877 -0.869444
vn 0.122786 0.489717 0.863192
vn 0.475672 0.865242 0.158407
vn 0.325806 0.684684 -0.651965
vn 0.318336 0.299165 0.899535
vn 0.845907 0.516321 0.133615
vn 0.505850 0.471295 -0.722493
vn 0.586191 0.206964 0.783292
vn 0.943470 0.311035 0.114549
vn 0.716050 0.359512 -0.598351
# 174 normals

g Triangles
usemtl Material01
s 1
f 14/1/1 12/2/2 1/3/3
f 1/3/3 12/2/2 2/4/4
f 1/3/3 2/4/4 13/5/5
f 1/3/3 13/5/5 15/6/6
f 12/2/2 10/7/7 2/4/4
f 2/4/4 10/7/7 3/8/8
f 2/4/4 3/8/8 11/9/9
f 2/4/4 11/9/9 13/5/5
f 10/7/7 9/10/10 3/8/8
f 3/8/8 9/10/10 4/11/11
f 3/8/8 4/11/11 8/12/12
f 3/8/8 8/12/12 11/9/9
f 9/10/10 6/13/13 4/11/11
f 4/11/11 6/13/13 5/14/14
f 4/11/11 5/14/14 7/15/15
f 4/11/11 7/15/15 8/12/12
# 16 triangles in group

g Cylinder02
usemtl Material01
f 17/16/16 20/17/17 16/18/18
f 17/16/16 18/19/19 21/20/20
f 17/16/16 21/20/20 20/17/17
f 18/19/19 19/21/21 21/20/20
f 16/18/18 20/17/17 22/22/22
f 20/17/17 21/20/20 22/22/22
f 21/20/20 23/23/23 22/22/22
f 21/20/20 19/24/21 23/23/23
f 22/22/22 24/25/24 16/26/25
f 22/22/22 23/23/23 25/27/26
f 22/22/22 25/27/26 24/25/24
f 23/23/23 19/24/21 25/27/26
f 16/26/25 24/25/24 26/28/27
f 24/25/24 25/27/26 26/28/27
f 25/27/26 27/29/28 26/28/27
f 25/27/26 19/30/21 27/29/28
f 26/28/27 28/31/29 16/32/30
f 26/28/27 27/29/28 29/33/31
f 26/28/27 29/33/31 28/31/29
f 27/29/28 19/30/21 29/33/31
f 16/32/30 28/31/29 30/34/32
f 28/31/29 29/33/31 30/34/32
f 29/33/31 31/35/33 30/34/32
f 29/33/31 19/36/21 31/35/33
f 30/34/32 32/37/34 16/38/35
f 30/34/32 31/35/33 33/39/36
f 30/34/32 33/39/36 32/37/34
f 31/35/33 19/36/21 33/39/36
f 16/38/35 32/37/34 34/40/37
f 32/37/34 33/39/36 34/40/37
f 33/39/36 35/41/38 34/40/37
f 33/39/36 19/42/21 35/41/38
f 34/40/37 17/43/16 16/44/39
f 34/40/37 35/41/38 18/45/19
f 34/40/37 18/45/19 17/43/16
f 35/41/38 19/42/21 18/45/19
# 36 triangles in group

g Duplicate01
usemtl Material01
f 49/1/40 47/2/41 36/3/42
f 36/3/42 47/2/41 37/4/43
f 36/3/42 37/4/43 48/5/44
f 36/3/42 48/5/44 50/6/45
f 47/2/41 45/7/46 37/4/43
f 37/4/43 45/7/46 38/8/47
f 37/4/43 38/8/47 46/9/48
f 37/4/43 46/9/48 48/5/44
f 45/7/46 44/10/49 38/8/47
f 38/8/47 44/10/49 39/11/50
f 38/8/47 39/11/50 43/12/51
f 38/8/47 43/12/51 46/9/48
f 44/10/49 41/13/52 39/11/50
f 39/11/50 41/13/52 40/14/53
f 39/11/50 40/14/53 42/15/54
f 39/11/50 42/15/54 43/12/51
# 16 triangles in group

g Duplicate02
usemtl Material01
f 64/1/55 62/2/56 51/3/57
f 51/3/57 62/2/56 52/4/58
f 51/3/57 52/4/58 63/5/59
f 51/3/57 63/5/59 65/6/60
f 62/2/56 60/7/61 52/4/58
f 52/4/58 60/7/61 53/8/62
f 52/4/58 53/8/62 61/9/63
f 52/4/58 61/9/63 63/5/59
f 60/7/61 59/10/64 53/8/62
f 53/8/62 59/10/64 54/11/65
f 53/8/62 54/11/65 58/12/66
f 53/8/62 58/12/66 61/9/63
f 59/10/64 56/13/67 54/11/65
f 54/11/65 56/13/67 55/14/68
f 54/11/65 55/14/68 57/15/69
f 54/11/65 57/15/69 58/12/66
# 16 triangles in group

g Duplicate03
usemtl Material01
f 79/1/70 77/2/71 66/3/72
f 66/3/72 77/2/71 67/4/73
f 66/3/72 67/4/73 78/5/74
f 66/3/72 78/5/74 80/6/75
f 77/2/71 75/7/76 67/4/73
f 67/4/73 75/7/76 68/8/77
f 67/4/73 68/8/77 76/9/78
f 67/4/73 76/9/78 78/5/74
f 75/7/76 74/10/79 68/8/77
f 68/8/77 74/10/79 69/11/80
f 68/8/77 69/11/80 73/12/81
f 68/8/77 73/12/81 76/9/78
f 74/10/79 71/13/82 69/11/80
f 69/11/80 71/13/82 70/14/83
f 69/11/80 70/14/83 72/15/84
f 69/11/80 72/15/84 73/12/81
# 16 triangles in group

g Duplicate04
usemtl Material01
f 94/1/85 92/2/86 81/3/87
f 81/3/87 92/2/86 82/4/88
f 81/3/87 82/4/88 93/5/89
f 81/3/87 93/5/89 95/6/90
f 92/2/86 90/7/91 82/4/88
f 82/4/88 90/7/91 83/8/92
f 82/4/88 83/8/92 91/9/93
f 82/4/88 91/9/93 93/5/89
f 90/7/91 89/10/94 83/8/92
f 83/8/92 89/10/94 84/11/95
f 83/8/92 84/11/95 88/12/96
f 83/8/92 88/12/96 91/9/93
f 89/10/94 86/13/97 84/11/95
f 84/11/95 86/13/97 85/14/98
f 84/11/95 85/14/98 87/15/99
f 84/11/95 87/15/99 88/12/96
# 16 triangles in group

g Duplicate05
usemtl Material01
f 109/1/100 107/2/101 96/3/102
f 96/3/102 107/2/101 97/4/103
f 96/3/102 97/4/103 108/5/104
f 96/3/102 108/5/104 110/6/105
f 107/2/101 105/7/106 97/4/103
f 97/4/103 105/7/106 98/8/107
f 97/4/103 98/8/107 106/9/108
f 97/4/103 106/9/108 108/5/104
f 105/7/106 104/10/109 98/8/107
f 98/8/107 104/10/109 99/11/110
f 98/8/107 99/11/110 103/12/111
f 98/8/107 103/12/111 106/9/108
f 104/10/109 101/13/112 99/11/110
f 99/11/110 101/13/112 100/14/113
f 99/11/110 100/14/113 102/15/114
f 99/11/110 102/15/114 103/12/111
# 16 triangles in group

g Duplicate06
usemtl Material01
f 124/1/115 122/2/116 111/3/117
f 111/3/117 122/2/116 112/4/118
f 111/3/117 112/4/118 123/5/119
f 111/3/117 123/5/119 125/6/120
f 122/2/116 120/7/121 112/4/118
f 112/4/118 120/7/121 113/8/122
f 112/4/118 113/8/122 121/9/123
f 112/4/118 121/9/123 123/5/119
f 120/7/121 119/10/124 113/8/122
f 113/8/122 119/10/124 114/11/125
f 113/8/122 114/11/125 118/12/126
f 113/8/122 118/12/126 121/9/123
f 119/10/124 116/13/127 114/11/125
f 114/11/125 116/13/127 115/14/128
f 114/11/125 115/14/128 117/15/129
f 114/11/125 117/15/129 118/12/126
# 16 triangles in group

g Duplicate07
usemtl Material01
f 139/1/130 137/2/131 126/3/132
f 126/3/132 137/2/131 127/4/133
f 126/3/132 127/4/133 138/5/134
f 126/3/132 138/5/134 140/6/135
f 137/2/131 135/7/136 127/4/133
f 127/4/133 135/7/136 128/8/137
f 127/4/133 128/8/137 136/9/138
f 127/4/133 136/9/138 138/5/134
f 135/7/136 134/10/139 128/8/137
f 128/8/137 134/10/139 129/11/140
f 128/8/137 129/11/140 133/12/141
f 128/8/137 133/12/141 136/9/138
f 134/10/139 131/13/142 129/11/140
f 129/11/140 131/13/142 130/14/143
f 129/11/140 130/14/143 132/15/144
f 129/11/140 132/15/144 133/12/141
# 16 triangles in group

g Duplicate09
usemtl Material01
f 154/1/145 152/2/146 141/3/147
f 141/3/147 152/2/146 142/4/148
f 141/3/147 142/4/148 153/5/149
f 141/3/147 153/5/149 155/6/150
f 152/2/146 150/7/151 142/4/148
f 142/4/148 150/7/151 143/8/152
f 142/4/148 143/8/152 151/9/153
f 142/4/148 151/9/153 153/5/149
f 150/7/151 149/10/154 143/8/152
f 143/8/152 149/10/154 144/11/155
f 143/8/152 144/11/155 148/12/156
f 143/8/152 148/12/156 151/9/153
f 149/10/154 146/13/157 144/11/155
f 144/11/155 146/13/157 145/14/158
f 144/11/155 145/14/158 147/15/159
f 144/11/155 147/15/159 148/12/156
# 16 triangles in group

g Duplicate10
usemtl Material01
f 169/1/160 167/2/161 156/3/162
f 156/3/162 167/2/161 157/4/163
f 156/3/162 157/4/163 168/5/164
f 156/3/162 168/5/164 170/6/165
f 167/2/161 165/7/166 157/4/163
f 157/4/163 165/7/166 158/8/167
f 157/4/163 158/8/167 166/9/168
f 157/4/163 166/9/168 168/5/164
f 165/7/166 164/10/169 158/8/167
f 158/8/167 164/10/169 159/11/170
f 158/8/167 159/11/170 163/12/171
f 158/8/167 163/12/171 166/9/168
f 164/10/169 161/13/172 159/11/170
f 159/11/170 161/13/172 160/14/173
f 159/11/170 160/14/173 162/15/174
f 159/11/170 162/15/174 163/12/171
# 16 triangles in group

# 196 triangles total

