# Wavefront OBJ exported by MilkShape 3D

mtllib bush04.mtl

v 19.669935 33.944115 7.934817
v 19.040705 -4.989290 0.785867
v -20.553576 33.944115 7.934817
v -21.182798 -4.989290 0.785867
v -16.493876 33.944115 14.095146
v -8.943135 -4.989290 18.644463
v 1.767206 33.944115 -22.921890
v 9.317952 -4.989290 -18.372566
v 17.766542 33.944115 9.953260
v 8.957336 -4.989290 16.452301
v -3.548692 33.944115 -25.279053
v -12.357896 -4.989290 -18.780014
# 12 vertices

vt 0.000000 1.000000
vt 0.000000 0.000000
vt 1.000000 1.000000
vt 1.000000 0.000000
# 4 texture coordinates

vn 0.000000 0.180601 -0.983557
vn 0.874822 0.220090 0.431563
vn 0.823915 -0.269629 -0.498461
# 3 normals

g Box01
usemtl branches
s 1
f 1/1/1 2/2/1 3/3/1
f 2/2/1 4/4/1 3/3/1
# 2 triangles in group

g Duplicate01
usemtl branches
f 5/1/2 6/2/2 7/3/2
f 6/2/2 8/4/2 7/3/2
# 2 triangles in group

g Duplicate02
usemtl branches
f 9/1/3 10/2/3 11/3/3
f 10/2/3 12/4/3 11/3/3
# 2 triangles in group

# 6 triangles total

