# Wavefront OBJ exported by MilkShape 3D

mtllib bush14.mtl

v -2.903785 3.479895 -28.305580
v -1.153152 8.625180 -22.340904
v -4.594702 8.620816 -20.504688
v -0.515698 9.235560 -15.196272
v -4.942335 9.231196 -12.897150
v -4.580074 4.837214 -5.404250
v -0.902397 4.824125 -6.475634
v -1.957780 -1.319855 -0.076941
v 16.087652 3.479895 -21.609299
v 13.397478 8.625180 -16.005280
v 9.611240 8.620816 -16.943546
v 9.090503 9.235560 -10.269235
v 4.262451 9.231196 -11.522650
v -0.482063 4.837214 -5.711941
v 2.967879 4.824125 -4.047286
v -29.876217 3.479895 -4.343921
v -23.687084 8.625180 -4.924278
v -22.541290 8.620816 -1.195592
v -16.552082 9.235560 -4.186759
v -15.139845 9.231196 0.597242
v -7.715489 4.837214 1.671348
v -8.065454 4.824125 -2.143189
v -19.679222 3.479895 -21.708721
v -14.691467 8.625180 -17.998672
v -16.334953 8.620816 -14.461036
v -9.882622 9.235560 -12.676347
v -12.034243 9.231196 -8.176160
v -7.235590 4.837214 -2.410080
v -4.943239 4.824125 -5.479006
v -8.537123 3.479895 27.353943
v -8.684326 8.625180 21.139408
v -4.884790 8.620816 20.256504
v -7.450890 9.235560 14.073234
v -2.580029 9.231196 12.998145
v -0.990638 4.837214 5.666791
v -4.820299 4.824125 5.749816
v -25.148323 3.479895 15.970481
v -21.099384 8.625180 11.253673
v -17.684994 8.620816 13.139934
v -15.454569 9.235560 6.827798
v -11.115425 9.231196 9.288100
v -5.028648 4.837214 4.903352
v -7.930187 4.824125 2.402511
v 23.718002 3.479895 11.189729
v 17.589554 8.625180 10.148437
v 17.447853 8.620816 6.250245
v 10.888541 9.235560 7.589374
v 10.762626 9.231196 2.602867
v 3.869241 4.837214 -0.356209
v 3.220006 4.824125 3.418931
v 9.374118 3.479895 25.323669
v 5.516543 8.625180 20.449116
v 8.019634 8.620816 17.457375
v 2.249073 9.235560 14.063502
v 5.492115 9.231196 10.273536
v 2.349343 4.837214 3.461943
v -0.659195 4.824125 5.832994
v 24.506058 3.479895 -9.880254
v 19.499855 8.625180 -6.195148
v 16.597290 8.620816 -8.801127
v 13.004102 9.235560 -3.152527
v 9.329628 9.231196 -6.525862
v 2.412506 4.837214 -3.622722
v 4.677115 4.824125 -0.533267
v 3.397550 4.541031 -17.738453
v 3.282851 11.119945 -13.631328
v 0.657667 11.114366 -13.275040
v 2.195850 11.900392 -9.044655
v -1.167578 11.894816 -8.625345
v -2.506835 6.276540 -3.884972
v 0.111223 6.259802 -3.711957
v -1.920422 -1.596073 0.024825
v 14.346706 4.541031 -9.243308
v 11.418429 11.119945 -6.373471
v 9.152152 11.114366 -7.820489
v 7.410440 11.900392 -3.790404
v 4.532554 11.894816 -5.670998
v 0.224187 6.276540 -3.141338
v 2.118973 6.259802 -1.319504
v -19.188505 4.541031 -8.996788
v -15.039590 11.119945 -7.945587
v -15.077835 11.114366 -5.366371
v -10.552266 11.900392 -5.859391
v -10.638966 11.894816 -2.563380
v -6.034122 6.276540 -0.201941
v -5.460034 6.259802 -2.652971
v -8.903911 4.541031 -17.464790
v -6.438484 11.119945 -14.020673
v -8.251406 11.114366 -12.196540
v -4.428360 11.900392 -9.615147
v -6.774210 11.894816 -7.308602
v -4.863988 6.276540 -2.629553
v -2.727413 6.259802 -4.014292
v -11.967038 4.541031 15.575430
v -10.756560 11.119945 11.678771
v -8.098832 11.114366 11.996741
v -8.468762 11.900392 7.567677
v -5.073586 11.894816 8.010592
v -2.498452 6.276540 3.815873
v -5.007651 6.259802 2.993804
v -20.382282 4.541031 4.709643
v -16.756420 11.119945 2.701275
v -14.931349 11.114366 4.652761
v -12.153364 11.900392 1.237845
v -9.847261 11.894816 3.757125
v -4.965292 6.276540 2.420097
v -6.327500 6.259802 0.203585
v 12.417195 4.541031 12.885943
v 8.648627 11.119945 10.840549
v 9.375813 11.114366 8.385022
v 4.826557 11.900392 7.721037
v 5.792759 11.894816 4.592617
v 1.929598 6.276540 1.180574
v 0.713666 6.259802 3.379161
v 0.113556 4.541031 18.399559
v -1.371748 11.119945 14.489378
v 0.885719 11.114366 13.200698
v -2.155490 11.900392 9.774528
v 0.751207 11.894816 8.158457
v 0.138132 6.276540 3.207269
v -2.317734 6.259802 3.994801
v 17.358725 4.541031 -0.031777
v 13.326878 11.119945 1.116866
v 11.986099 11.114366 -1.165236
v 8.460914 11.900392 1.526311
v 6.779191 11.894816 -1.408898
v 1.668381 6.276540 -1.182287
v 2.492453 6.259802 1.254815
# 128 vertices

vt 0.079784 0.888398
vt 0.154878 0.992222
vt 0.237299 0.885162
vt 0.046286 0.738265
vt 0.264669 0.734986
vt 0.065375 0.573209
vt 0.232533 0.582919
vt 0.129667 0.466400
# 8 texture coordinates

vn -0.183043 0.922116 -0.340879
vn -0.304700 0.763601 -0.569273
vn -0.136481 0.957403 -0.254464
vn 0.049922 0.993838 0.098962
vn 0.116857 0.946770 0.299952
vn 0.196480 0.810901 0.551212
vn 0.177725 0.779590 0.600544
vn -0.020701 0.999383 0.028377
vn 0.092065 0.922116 -0.375802
vn 0.154481 0.763601 -0.626936
vn 0.068844 0.957403 -0.280428
vn -0.029119 0.993838 0.106947
vn -0.113865 0.946770 0.301100
vn -0.224126 0.808703 0.543845
vn -0.271695 0.776025 0.569180
vn -0.369542 0.922116 0.114636
vn -0.616953 0.763602 0.190478
vn -0.275831 0.957403 0.085419
vn 0.106669 0.993838 -0.030122
vn 0.316738 0.946770 -0.057476
vn 0.577533 0.811655 -0.087593
vn 0.621906 0.780810 -0.059736
vn -0.351330 0.922116 -0.162080
vn -0.585940 0.763601 -0.271269
vn -0.262139 0.957403 -0.121088
vn 0.099426 0.993838 0.048990
vn 0.273841 0.946770 0.169226
vn 0.492809 0.807144 0.325051
vn 0.509364 0.773492 0.377173
vn 0.088579 0.922116 0.376638
vn 0.146978 0.763601 0.628737
vn 0.065970 0.957403 0.281117
vn -0.022608 0.993838 -0.108510
vn -0.035242 0.946770 -0.319976
vn -0.047174 0.809480 -0.585249
vn -0.016292 0.777286 -0.628936
vn -0.186193 0.922116 0.339168
vn -0.311481 0.763602 0.565590
vn -0.139079 0.957403 0.253053
vn 0.055807 0.993838 -0.095766
vn 0.187916 0.946770 -0.261369
vn 0.356338 0.809719 -0.466240
vn 0.408420 0.777673 -0.477930
vn 0.386620 0.922116 -0.015086
vn 0.645230 0.763601 -0.024309
vn 0.288540 0.957403 -0.011118
vn -0.110830 0.993838 0.001487
vn -0.320821 0.946770 -0.026460
vn -0.585028 0.808354 -0.065619
vn -0.622707 0.775459 -0.104402
vn 0.297410 0.922116 0.247488
vn 0.495766 0.763601 0.413677
vn 0.221867 0.957403 0.184808
vn -0.083358 0.993838 -0.073054
vn -0.220711 0.946770 -0.234335
vn -0.394562 0.803993 -0.444878
vn -0.398221 0.768358 -0.501046
vn 0.257717 0.922116 -0.288591
vn 0.430728 0.763601 -0.481027
vn 0.192439 0.957403 -0.215282
vn -0.075919 0.993838 0.080758
vn -0.241895 0.946770 0.212399
vn -0.455061 0.807026 0.376336
vn -0.509804 0.773301 0.376969
vn -0.077383 0.826750 -0.557222
vn -0.115592 0.524563 -0.843488
vn -0.059464 0.900682 -0.430390
vn 0.015821 0.988978 0.147215
vn 0.008237 0.866752 0.498672
vn -0.003752 0.591729 0.806128
vn -0.051571 0.549998 0.833573
vn -0.049785 0.997845 0.042740
vn 0.303382 0.824114 -0.478326
vn 0.459127 0.518901 -0.721071
vn 0.234821 0.899001 -0.369670
vn -0.083132 0.988958 0.122685
vn -0.316519 0.865655 0.387889
vn -0.524860 0.586901 0.616497
vn -0.578391 0.545478 0.606563
vn -0.555768 0.831312 -0.006443
vn -0.844972 0.534689 -0.011373
vn -0.428353 0.903596 -0.005274
vn 0.147121 0.989097 0.006451
vn 0.484273 0.872211 0.068765
vn 0.784522 0.606320 0.130003
vn 0.803127 0.566606 0.184242
vn -0.394891 0.831879 -0.389920
vn -0.599668 0.535868 -0.594343
vn -0.304083 0.903947 -0.300690
vn 0.101454 0.989083 0.106870
vn 0.301953 0.871365 0.386713
vn 0.478071 0.599004 0.642372
vn 0.455558 0.554779 0.696195
vn -0.065436 0.824941 0.561418
vn -0.100345 0.520644 0.847857
vn -0.050875 0.899526 0.433894
vn 0.021639 0.988954 -0.146633
vn 0.116842 0.865521 -0.487053
vn 0.205142 0.587246 -0.782981
vn 0.257712 0.545193 -0.797715
vn -0.411358 0.825204 0.387070
vn -0.622537 0.521289 0.583700
vn -0.318101 0.899703 0.298907
vn 0.110861 0.988983 -0.098098
vn 0.401484 0.867000 -0.295163
vn 0.659729 0.591373 -0.463720
vn 0.709117 0.550984 -0.439965
vn 0.531627 0.832573 0.155546
vn 0.808909 0.537461 0.238331
vn 0.409447 0.904392 0.120121
vn -0.139795 0.989116 -0.045894
vn -0.446501 0.872839 -0.196950
vn -0.721296 0.604138 -0.338747
vn -0.725801 0.561695 -0.397129
vn 0.278027 0.830050 0.483445
vn 0.420836 0.531802 0.734904
vn 0.214150 0.902784 0.372989
vn -0.069502 0.989039 -0.130273
vn -0.190507 0.869522 -0.455673
vn -0.294236 0.591087 -0.751027
vn -0.259430 0.544782 -0.797439
vn 0.484050 0.826840 -0.286410
vn 0.733334 0.524867 -0.432131
vn 0.373955 0.900752 -0.220915
vn -0.129491 0.989015 0.071290
vn -0.454250 0.868621 0.197874
vn -0.745466 0.592476 0.305373
vn -0.789645 0.550576 0.270789
# 128 normals

g Triangles
usemtl leaves
s 1
f 2/1/1 1/2/2 3/3/3
f 4/4/4 2/1/1 3/3/3
f 4/4/4 3/3/3 5/5/5
f 7/6/6 4/4/4 5/5/5
f 7/6/6 5/5/5 6/7/7
f 8/8/8 7/6/6 6/7/7
# 6 triangles in group

g Duplicate01
usemtl leaves
f 10/1/9 9/2/10 11/3/11
f 12/4/12 10/1/9 11/3/11
f 12/4/12 11/3/11 13/5/13
f 15/6/14 12/4/12 13/5/13
f 15/6/14 13/5/13 14/7/15
f 8/8/8 15/6/14 14/7/15
# 6 triangles in group

g Duplicate02
usemtl leaves
f 17/1/16 16/2/17 18/3/18
f 19/4/19 17/1/16 18/3/18
f 19/4/19 18/3/18 20/5/20
f 22/6/21 19/4/19 20/5/20
f 22/6/21 20/5/20 21/7/22
f 8/8/8 22/6/21 21/7/22
f 24/1/23 23/2/24 25/3/25
f 26/4/26 24/1/23 25/3/25
f 26/4/26 25/3/25 27/5/27
f 29/6/28 26/4/26 27/5/27
f 29/6/28 27/5/27 28/7/29
f 8/8/8 29/6/28 28/7/29
# 12 triangles in group

g Duplicate03
usemtl leaves
f 31/1/30 30/2/31 32/3/32
f 33/4/33 31/1/30 32/3/32
f 33/4/33 32/3/32 34/5/34
f 36/6/35 33/4/33 34/5/34
f 36/6/35 34/5/34 35/7/36
f 8/8/8 36/6/35 35/7/36
f 38/1/37 37/2/38 39/3/39
f 40/4/40 38/1/37 39/3/39
f 40/4/40 39/3/39 41/5/41
f 43/6/42 40/4/40 41/5/41
f 43/6/42 41/5/41 42/7/43
f 8/8/8 43/6/42 42/7/43
f 45/1/44 44/2/45 46/3/46
f 47/4/47 45/1/44 46/3/46
f 47/4/47 46/3/46 48/5/48
f 50/6/49 47/4/47 48/5/48
f 50/6/49 48/5/48 49/7/50
f 8/8/8 50/6/49 49/7/50
f 52/1/51 51/2/52 53/3/53
f 54/4/54 52/1/51 53/3/53
f 54/4/54 53/3/53 55/5/55
f 57/6/56 54/4/54 55/5/55
f 57/6/56 55/5/55 56/7/57
f 8/8/8 57/6/56 56/7/57
# 24 triangles in group

g Duplicate04
usemtl leaves
f 59/1/58 58/2/59 60/3/60
f 61/4/61 59/1/58 60/3/60
f 61/4/61 60/3/60 62/5/62
f 64/6/63 61/4/61 62/5/62
f 64/6/63 62/5/62 63/7/64
f 8/8/8 64/6/63 63/7/64
# 6 triangles in group

g Duplicate05
usemtl leaves
f 66/1/65 65/2/66 67/3/67
f 68/4/68 66/1/65 67/3/67
f 68/4/68 67/3/67 69/5/69
f 71/6/70 68/4/68 69/5/69
f 71/6/70 69/5/69 70/7/71
f 72/8/72 71/6/70 70/7/71
f 74/1/73 73/2/74 75/3/75
f 76/4/76 74/1/73 75/3/75
f 76/4/76 75/3/75 77/5/77
f 79/6/78 76/4/76 77/5/77
f 79/6/78 77/5/77 78/7/79
f 72/8/72 79/6/78 78/7/79
f 81/1/80 80/2/81 82/3/82
f 83/4/83 81/1/80 82/3/82
f 83/4/83 82/3/82 84/5/84
f 86/6/85 83/4/83 84/5/84
f 86/6/85 84/5/84 85/7/86
f 72/8/72 86/6/85 85/7/86
f 88/1/87 87/2/88 89/3/89
f 90/4/90 88/1/87 89/3/89
f 90/4/90 89/3/89 91/5/91
f 93/6/92 90/4/90 91/5/91
f 93/6/92 91/5/91 92/7/93
f 72/8/72 93/6/92 92/7/93
f 95/1/94 94/2/95 96/3/96
f 97/4/97 95/1/94 96/3/96
f 97/4/97 96/3/96 98/5/98
f 100/6/99 97/4/97 98/5/98
f 100/6/99 98/5/98 99/7/100
f 72/8/72 100/6/99 99/7/100
f 102/1/101 101/2/102 103/3/103
f 104/4/104 102/1/101 103/3/103
f 104/4/104 103/3/103 105/5/105
f 107/6/106 104/4/104 105/5/105
f 107/6/106 105/5/105 106/7/107
f 72/8/72 107/6/106 106/7/107
f 109/1/108 108/2/109 110/3/110
f 111/4/111 109/1/108 110/3/110
f 111/4/111 110/3/110 112/5/112
f 114/6/113 111/4/111 112/5/112
f 114/6/113 112/5/112 113/7/114
f 72/8/72 114/6/113 113/7/114
f 116/1/115 115/2/116 117/3/117
f 118/4/118 116/1/115 117/3/117
f 118/4/118 117/3/117 119/5/119
f 121/6/120 118/4/118 119/5/119
f 121/6/120 119/5/119 120/7/121
f 72/8/72 121/6/120 120/7/121
f 123/1/122 122/2/123 124/3/124
f 125/4/125 123/1/122 124/3/124
f 125/4/125 124/3/124 126/5/126
f 128/6/127 125/4/125 126/5/126
f 128/6/127 126/5/126 127/7/128
f 72/8/72 128/6/127 127/7/128
# 54 triangles in group

# 108 triangles total

