# Wavefront OBJ exported by MilkShape 3D

mtllib bush05.mtl

v -1.258666 -0.573293 1.455641
v 1.153840 -0.157894 -0.722812
v 5.021670 7.640896 0.523340
v -0.679955 7.640891 6.118712
v 9.318797 11.078989 5.372836
v 4.039515 11.078989 10.553736
v 10.112830 7.818064 12.506668
v 0.942143 -0.413405 0.898529
v -1.985625 0.001993 0.294959
v -2.996613 7.800781 -3.818215
v 4.270096 7.800779 -2.688410
v -1.426797 11.238875 -10.687959
v 5.301638 11.238875 -9.641846
v 3.711232 7.977951 -16.097893
v -0.089238 -0.573293 -0.724045
v -0.157220 -0.157894 2.456709
v -3.804054 7.640896 4.920002
v -3.977040 7.640891 -2.845889
v -10.442581 11.078989 5.729059
v -10.602753 11.078989 -1.461576
v -16.326225 7.818064 2.408422
v 2.869452 24.028393 0.192902
v 2.869453 8.762184 0.192902
v -3.369451 24.028395 0.192902
v -3.369452 8.762186 0.192902
v -0.249999 24.028395 3.312354
v -0.249999 8.762185 3.312354
v -0.249999 24.028395 -2.926551
v -0.249999 8.762185 -2.926551
v -0.125000 23.826258 0.192902
v -0.680017 -3.562751 0.496350
v 0.430017 -3.562751 0.496350
v 0.430017 -3.562751 -0.110546
v -0.680017 -3.562751 -0.110546
# 34 vertices

vt 0.970063 0.926803
vt 0.970007 0.778999
vt 0.590471 0.595234
vt 0.550895 0.992524
vt 0.295404 0.626243
vt 0.169552 0.977996
vt 0.005341 0.820841
vt 0.050479 0.978652
vt 0.050479 0.010426
vt 0.467628 0.978652
vt 0.467628 0.010426
vt 0.000000 0.000000
vt 1.000000 0.000000
vt 1.000000 1.000000
vt 0.000000 1.000000
# 15 texture coordinates

vn -0.642637 0.414285 -0.644504
vn -0.649238 0.409567 -0.640894
vn -0.564581 0.598786 -0.568070
vn -0.452064 0.763834 -0.460648
vn -0.115064 0.986414 -0.117249
vn 0.012343 0.999845 0.012578
vn 0.350228 0.866013 0.356878
vn -0.129404 0.443140 0.887064
vn -0.121450 0.438138 0.890666
vn -0.114176 0.624441 0.772682
vn -0.095216 0.784785 0.612411
vn -0.023202 0.988530 0.149233
vn 0.002585 0.999858 -0.016626
vn 0.072105 0.883016 -0.463771
vn 0.905052 0.424391 -0.027798
vn 0.906814 0.420035 -0.035474
vn 0.793786 0.607761 -0.023026
vn 0.636601 0.771063 -0.014181
vn 0.159627 0.987171 -0.003556
vn -0.017354 0.999849 0.000387
vn -0.489432 0.871973 0.010902
vn 0.000000 0.000000 -1.000000
vn 1.000000 -0.000000 0.000000
vn 0.000000 0.011079 0.999939
vn 0.000000 1.000000 0.000000
vn 0.999795 0.020260 0.000000
vn 0.000000 0.011079 -0.999939
vn -0.999795 0.020260 0.000000
vn 0.000000 -1.000000 0.000000
# 29 normals

g Duplicate03
usemtl leaf
s 1
f 2/1/1 1/2/2 4/3/3
f 2/1/1 4/3/3 3/4/4
f 3/4/4 4/3/3 6/5/5
f 3/4/4 6/5/5 5/6/6
f 7/7/7 5/6/6 6/5/5
f 9/1/8 8/2/9 11/3/10
f 9/1/8 11/3/10 10/4/11
f 10/4/11 11/3/10 13/5/12
f 10/4/11 13/5/12 12/6/13
f 14/7/14 12/6/13 13/5/12
f 16/1/15 15/2/16 18/3/17
f 16/1/15 18/3/17 17/4/18
f 17/4/18 18/3/17 20/5/19
f 17/4/18 20/5/19 19/6/20
f 21/7/21 19/6/20 20/5/19
# 15 triangles in group

g Box01
usemtl flower
f 22/8/22 23/9/22 24/10/22
f 23/9/22 25/11/22 24/10/22
# 2 triangles in group

g Duplicate01
usemtl flower
f 26/8/23 27/9/23 28/10/23
f 27/9/23 29/11/23 28/10/23
# 2 triangles in group

g Box02
usemtl green
f 31/12/24 32/13/24 30/14/25
s 2
f 32/12/26 33/13/26 30/14/25
s 1
f 33/12/27 34/13/27 30/14/25
s 2
f 34/12/28 31/13/28 30/14/25
s 3
f 31/15/29 34/12/29 32/14/29
f 34/12/29 33/13/29 32/14/29
# 6 triangles in group

# 25 triangles total

