# Wavefront OBJ exported by MilkShape 3D

mtllib bush09.mtl

v -9.251227 13.083334 7.585413
v 8.251229 13.083334 7.585413
v 8.251229 13.083334 -9.002081
v -9.251227 13.083334 -9.002081
v 3.976908 12.269025 -0.333334
v 3.976908 -4.602355 -0.333334
v -3.976908 12.269025 -0.333334
v -3.976908 -4.602355 -0.333334
v -18.790531 12.570718 -6.940417
v -3.787992 10.542909 -15.723814
v -12.331189 7.344496 -29.577662
v -27.333729 9.372303 -20.794268
v -11.530260 8.717790 -20.009342
v -11.530260 -7.721179 -16.214108
v -18.348015 9.639305 -16.017818
v -18.348015 -6.799664 -12.222584
v -21.415878 10.393448 28.749840
v -6.185872 10.393448 28.749840
v -6.185872 12.395122 14.507187
v -21.415878 12.395122 14.507187
v -9.905231 10.542647 21.837172
v -9.905231 -6.164544 19.489128
v -16.826357 10.542647 21.837172
v -16.826357 -6.164544 19.489128
v 7.250790 7.792542 24.537575
v 22.480797 7.792542 24.537575
v 22.480797 10.290061 10.373455
v 7.250790 10.290061 10.373455
v 18.761436 8.182900 17.634323
v 18.761436 -8.432166 14.704641
v 11.840311 8.182900 17.634323
v 11.840311 -8.432166 14.704641
v 17.161282 10.561890 -1.160771
v 28.527105 8.964527 4.016422
v 33.996078 8.195913 -5.579052
v 22.630239 9.793278 -10.756251
v 28.257359 8.241207 -1.828723
v 26.083736 -7.224923 -1.828723
v 23.092268 8.967115 -4.181448
v 20.918646 -6.499018 -4.181448
v 15.729950 4.459208 -14.777905
v 21.927711 4.459208 -25.092709
v 12.453237 6.956729 -30.785551
v 6.255474 6.956729 -20.470743
v 15.796507 4.849566 -25.348259
v 13.836822 -11.765499 -26.525759
v 12.979997 4.849566 -20.660797
v 11.020309 -11.765499 -21.838293
v -19.033173 5.480333 2.298078
v -28.768559 5.603777 -4.774020
v -35.265491 7.944855 4.210464
v -25.530106 7.821410 11.282559
v -29.557507 5.887867 1.317470
v -30.901321 -10.756949 2.876816
v -25.133358 5.831770 4.531311
v -26.477169 -10.813048 6.090658
# 56 vertices

vt 0.375000 0.646370
vt 0.375000 0.309581
vt 0.706424 0.646370
vt 0.706424 0.309581
vt 0.787861 0.848047
vt 0.787861 0.019447
vt 0.979800 0.848047
vt 0.979800 0.019447
# 8 texture coordinates

vn 0.000000 1.000000 0.000000
vn 0.000000 0.000000 -1.000000
vn -0.000000 0.974370 -0.224951
vn -0.515038 -0.192821 -0.835198
vn 0.000000 0.990268 0.139173
vn 0.000000 0.139173 -0.990268
vn 0.000000 0.984808 0.173648
vn 0.000000 0.173648 -0.984808
vn 0.139173 0.990268 -0.000000
vn 0.407176 -0.057225 -0.911555
vn 0.188918 0.975410 0.113513
vn -0.849166 0.136316 -0.510230
vn 0.129547 0.978373 -0.161255
vn -0.582298 0.122307 0.803722
# 14 normals

g Box01
usemtl flower
s 3
f 4/1/1 1/2/1 3/3/1
f 1/2/1 2/4/1 3/3/1
# 2 triangles in group

g Box02
usemtl flower
s 1
f 5/5/2 6/6/2 7/7/2
f 6/6/2 8/8/2 7/7/2
# 2 triangles in group

g Duplicate24
usemtl flower
s 3
f 12/1/3 9/2/3 11/3/3
f 9/2/3 10/4/3 11/3/3
s 1
f 13/5/4 14/6/4 15/7/4
f 14/6/4 16/8/4 15/7/4
# 4 triangles in group

g Duplicate25
usemtl flower
s 3
f 20/1/5 17/2/5 19/3/5
f 17/2/5 18/4/5 19/3/5
s 1
f 21/5/6 22/6/6 23/7/6
f 22/6/6 24/8/6 23/7/6
# 4 triangles in group

g Duplicate26
usemtl flower
s 3
f 28/1/7 25/2/7 27/3/7
f 25/2/7 26/4/7 27/3/7
s 1
f 29/5/8 30/6/8 31/7/8
f 30/6/8 32/8/8 31/7/8
# 4 triangles in group

g Duplicate27
usemtl flower
s 3
f 36/1/9 33/2/9 35/3/9
f 33/2/9 34/4/9 35/3/9
s 1
f 37/5/10 38/6/10 39/7/10
f 38/6/10 40/8/10 39/7/10
# 4 triangles in group

g Duplicate28
usemtl flower
s 3
f 44/1/11 41/2/11 43/3/11
f 41/2/11 42/4/11 43/3/11
s 1
f 45/5/12 46/6/12 47/7/12
f 46/6/12 48/8/12 47/7/12
# 4 triangles in group

g Duplicate29
usemtl flower
s 3
f 52/1/13 49/2/13 51/3/13
f 49/2/13 50/4/13 51/3/13
s 1
f 53/5/14 54/6/14 55/7/14
f 54/6/14 56/8/14 55/7/14
# 4 triangles in group

# 28 triangles total

