# Wavefront OBJ exported by MilkShape 3D

mtllib bush06.mtl

v -0.426549 3.943834 -28.451324
v -0.364687 14.153643 -24.825834
v -0.268192 20.628151 -19.170069
v -0.156846 22.122292 -12.644206
v -0.025706 18.386974 -4.958182
v 0.080691 -4.522832 1.277654
v 0.046050 9.920303 -0.752621
v 3.688271 4.441872 -6.475136
v 5.250526 5.686970 -16.077234
v 3.413619 5.935992 -22.572271
v 0.003984 3.943834 28.666157
v 0.003983 14.153643 25.040102
v 0.003982 20.628151 19.383482
v 0.003983 22.122292 12.856620
v 0.003985 18.386974 5.169422
v 0.003984 -4.522832 -1.067360
v 0.003984 9.920303 0.963226
v -3.735308 4.441872 6.619838
v -5.461135 5.686970 16.192577
v -3.735307 5.935992 22.719442
v 27.821892 3.943834 0.241848
v 24.277481 14.153643 0.241852
v 18.748178 20.628151 0.241846
v 12.368231 22.122292 0.241847
v 4.854066 18.386974 0.241846
v -1.242334 -4.522832 0.241846
v 0.742544 9.920303 0.241847
v 6.271832 4.441872 4.067244
v 15.629091 5.686970 5.832809
v 22.009029 5.935992 4.067245
v -28.008932 3.943834 -0.314612
v -24.465042 14.153643 -0.251332
v -18.936584 20.628151 -0.152610
v -12.557608 22.122292 -0.038696
v -5.044583 18.386974 0.095464
v 1.050885 -4.522832 0.204310
v -0.933691 9.920303 0.168872
v -6.396876 4.441872 -3.754667
v -15.722594 5.686970 -5.687037
v -22.131699 5.935992 -4.035641
v 16.456064 2.861545 -11.609377
v 14.362503 11.639818 -10.112244
v 11.096547 17.206535 -7.776718
v 7.328143 18.491180 -5.081884
v 2.889804 15.279598 -1.907972
v -0.711120 -4.418007 0.667094
v 0.461275 8.000044 -0.171300
v 5.203829 3.289751 -0.353297
v 11.412333 4.360268 -3.311788
v 14.499227 4.574376 -7.000554
v -16.735970 2.861545 11.659806
v -14.618301 11.639818 10.198525
v -11.314738 17.206535 7.918934
v -7.502929 18.491180 5.288633
v -3.013475 15.279598 2.190725
v 0.628912 -4.418007 -0.322672
v -0.556984 8.000044 0.495646
v -5.298376 3.289751 0.594471
v -11.552634 4.360268 3.445738
v -14.700814 4.574376 7.082544
v 10.560866 2.861545 16.428408
v 9.197968 11.639818 14.361298
v 7.071835 17.206535 11.136591
v 4.618618 18.491180 7.415792
v 1.729270 15.279598 3.033513
v -0.614921 -4.418007 -0.521923
v 0.148305 8.000044 0.635664
v 0.040332 3.289751 5.401975
v 2.607266 4.360268 11.570673
v 6.091604 4.574376 14.579947
v -10.582238 2.861545 -16.356514
v -9.256498 11.639818 -14.264209
v -7.188351 17.206535 -11.000218
v -4.802032 18.491180 -7.234074
v -1.991472 15.279598 -2.798395
v 0.288790 -4.418007 0.800362
v -0.453623 8.000044 -0.371330
v -0.262914 3.289751 -5.138644
v -2.720306 4.360268 -11.356155
v -6.149181 4.574376 -14.428450
# 80 vertices

vt 0.000000 0.510465
vt 0.106326 0.690518
vt 0.179167 0.376898
vt 0.330424 0.837154
vt 0.435137 0.463907
vt 0.594207 0.835938
vt 0.808473 0.651480
vt 0.741463 0.336449
vt 0.970770 0.364973
vt 1.000000 0.000000
# 10 texture coordinates

vn 0.787170 0.202136 -0.582670
vn 0.840710 0.255638 -0.477342
vn 0.874432 0.268770 -0.403895
vn 0.920914 0.309641 -0.236728
vn 0.957224 0.289230 -0.008286
vn 0.950778 0.309456 0.016080
vn 0.942121 0.241463 0.232604
vn 0.918990 0.169477 0.355999
vn 0.889344 0.134918 0.436880
vn 0.870722 0.070503 0.486695
vn -0.797163 0.202064 0.568947
vn -0.848839 0.255561 0.462776
vn -0.881270 0.268699 0.388798
vn -0.924847 0.309590 0.220936
vn -0.957226 0.289228 -0.008069
vn -0.950364 0.309460 -0.032306
vn -0.937991 0.241504 -0.248694
vn -0.912732 0.169517 -0.371731
vn -0.881684 0.134958 -0.452128
vn -0.862193 0.070527 -0.501646
vn 0.585930 0.203410 0.784417
vn 0.478286 0.258650 0.839251
vn 0.402632 0.272679 0.873804
vn 0.229941 0.315302 0.920713
vn -0.008517 0.295313 0.955362
vn -0.033731 0.315867 0.948204
vn -0.258870 0.246087 0.934038
vn -0.385793 0.172415 0.906331
vn -0.468359 0.136798 0.872884
vn -0.518769 0.071293 0.851937
vn -0.572044 0.203485 -0.794582
vn -0.463383 0.258729 -0.847547
vn -0.387089 0.272752 -0.880777
vn -0.213512 0.315353 -0.924643
vn 0.025548 0.295313 -0.955059
vn 0.050645 0.315859 -0.947453
vn 0.275445 0.246041 -0.929298
vn 0.401793 0.172372 -0.899361
vn 0.483712 0.136755 -0.864477
vn 0.533712 0.071268 -0.842658
vn 0.928438 0.164630 0.333017
vn 0.875071 0.209158 0.436467
vn 0.834549 0.220111 0.505054
vn 0.726657 0.254801 0.638002
vn 0.558178 0.238339 0.794753
vn 0.535751 0.255651 0.804744
vn 0.349257 0.199224 0.915603
vn 0.232511 0.139610 0.962522
vn 0.148204 0.111251 0.982679
vn 0.095785 0.058046 0.993708
vn -0.922687 0.164547 -0.348674
vn -0.867619 0.209089 -0.451132
vn -0.825965 0.220062 -0.518993
vn -0.715885 0.254804 -0.650064
vn -0.544710 0.238415 -0.804021
vn -0.522122 0.255742 -0.813624
vn -0.333584 0.199343 -0.921403
vn -0.215892 0.139705 -0.966371
vn -0.131135 0.111332 -0.985093
vn -0.078453 0.058091 -0.995224
vn -0.320409 0.169710 0.931953
vn -0.432055 0.217044 0.875340
vn -0.506254 0.229024 0.831417
vn -0.648824 0.265408 0.713152
vn -0.813171 0.247254 0.526895
vn -0.823418 0.264769 0.501876
vn -0.932082 0.203930 0.299392
vn -0.974041 0.141938 0.176347
vn -0.989766 0.112072 0.088334
vn -0.997706 0.058077 0.034793
vn 0.337144 0.169799 -0.926014
vn 0.447831 0.217114 -0.867357
vn 0.521259 0.229071 -0.822080
vn 0.661705 0.265398 -0.701221
vn 0.822579 0.247165 -0.512126
vn 0.832382 0.264663 -0.486923
vn 0.937294 0.203800 -0.282747
vn 0.977012 0.141837 -0.159150
vn 0.991170 0.111988 -0.070999
vn 0.998163 0.058033 -0.017408
# 80 normals

g Triangles
usemtl Material01
s 1
f 1/1/1 2/2/2 10/3/3
f 2/2/2 3/4/4 10/3/3
f 10/3/3 3/4/4 9/5/5
f 9/5/5 3/4/4 4/6/6
f 9/5/5 4/6/6 5/7/7
f 9/5/5 5/7/7 8/8/8
f 8/8/8 5/7/7 7/9/9
f 8/8/8 7/9/9 6/10/10
# 8 triangles in group

g Duplicate02
usemtl Material01
f 11/1/11 12/2/12 20/3/13
f 12/2/12 13/4/14 20/3/13
f 20/3/13 13/4/14 19/5/15
f 19/5/15 13/4/14 14/6/16
f 19/5/15 14/6/16 15/7/17
f 19/5/15 15/7/17 18/8/18
f 18/8/18 15/7/17 17/9/19
f 18/8/18 17/9/19 16/10/20
# 8 triangles in group

g Duplicate03
usemtl Material01
f 21/1/21 22/2/22 30/3/23
f 22/2/22 23/4/24 30/3/23
f 30/3/23 23/4/24 29/5/25
f 29/5/25 23/4/24 24/6/26
f 29/5/25 24/6/26 25/7/27
f 29/5/25 25/7/27 28/8/28
f 28/8/28 25/7/27 27/9/29
f 28/8/28 27/9/29 26/10/30
f 31/1/31 32/2/32 40/3/33
f 32/2/32 33/4/34 40/3/33
f 40/3/33 33/4/34 39/5/35
f 39/5/35 33/4/34 34/6/36
f 39/5/35 34/6/36 35/7/37
f 39/5/35 35/7/37 38/8/38
f 38/8/38 35/7/37 37/9/39
f 38/8/38 37/9/39 36/10/40
# 16 triangles in group

g Duplicate04
usemtl Material01
f 41/1/41 42/2/42 50/3/43
f 42/2/42 43/4/44 50/3/43
f 50/3/43 43/4/44 49/5/45
f 49/5/45 43/4/44 44/6/46
f 49/5/45 44/6/46 45/7/47
f 49/5/45 45/7/47 48/8/48
f 48/8/48 45/7/47 47/9/49
f 48/8/48 47/9/49 46/10/50
f 51/1/51 52/2/52 60/3/53
f 52/2/52 53/4/54 60/3/53
f 60/3/53 53/4/54 59/5/55
f 59/5/55 53/4/54 54/6/56
f 59/5/55 54/6/56 55/7/57
f 59/5/55 55/7/57 58/8/58
f 58/8/58 55/7/57 57/9/59
f 58/8/58 57/9/59 56/10/60
f 61/1/61 62/2/62 70/3/63
f 62/2/62 63/4/64 70/3/63
f 70/3/63 63/4/64 69/5/65
f 69/5/65 63/4/64 64/6/66
f 69/5/65 64/6/66 65/7/67
f 69/5/65 65/7/67 68/8/68
f 68/8/68 65/7/67 67/9/69
f 68/8/68 67/9/69 66/10/70
f 71/1/71 72/2/72 80/3/73
f 72/2/72 73/4/74 80/3/73
f 80/3/73 73/4/74 79/5/75
f 79/5/75 73/4/74 74/6/76
f 79/5/75 74/6/76 75/7/77
f 79/5/75 75/7/77 78/8/78
f 78/8/78 75/7/77 77/9/79
f 78/8/78 77/9/79 76/10/80
# 32 triangles in group

# 64 triangles total

