# Wavefront OBJ exported by MilkShape 3D

mtllib cacao.mtl

v 10.053047 -1.250000 -0.375000
v 8.351076 1.750000 -0.125000
v 4.441864 6.500000 -0.375000
v -0.000000 9.000000 -0.374999
v 8.706195 -1.250000 4.498814
v 7.232244 1.750000 3.292303
v 4.332129 5.414732 1.664132
v 5.026524 -1.250000 8.066690
v 4.175538 1.750000 5.793940
v 2.220932 5.000000 3.656885
v 1.474373 -4.500000 12.141804
v 0.000000 1.750000 6.709602
v 0.000000 5.000000 4.203266
v -3.485646 -4.250000 9.092716
v -4.175538 1.750000 5.793940
v -2.220932 5.000000 3.656885
v -8.706195 -1.250000 4.498814
v -7.232244 1.750000 3.292303
v -3.332129 4.585268 2.164132
v -10.053047 -1.250000 -0.375000
v -8.351076 1.750000 -0.125000
v -4.441864 6.500000 -0.375000
v -9.256232 -4.250000 -4.683010
v -7.232244 1.750000 -3.542301
v -3.846767 6.500000 -2.414132
v -5.026524 -1.250000 -8.816689
v -4.175538 1.750000 -6.043941
v -2.220932 6.500000 -3.906882
v 0.000000 -1.250000 -10.122623
v -0.000000 1.750000 -6.959602
v -0.000000 6.500000 -4.453267
v 7.107512 -4.250000 -9.242926
v 4.175538 1.750000 -6.043941
v 2.220932 6.500000 -3.906882
v 10.409992 -4.250000 -6.183589
v 7.232244 1.750000 -3.542301
v 3.846767 6.500000 -2.414132
v 0.000000 -1.250000 -0.375000
v 10.427354 2.393674 5.537932
v 12.239578 -0.047889 5.404020
v 9.041535 -0.047891 3.864024
v 9.041535 -0.047891 6.944016
v 8.461429 2.393674 10.696427
v 9.430453 -0.047889 12.233657
v 9.288797 -0.047891 8.686969
v 6.569327 -0.047891 10.132937
v -8.843728 2.393674 8.578054
v -7.035784 -0.047889 8.760868
v -9.917823 -0.047891 6.688933
v -10.452659 -0.047891 9.722134
v -4.833895 2.393674 -11.053351
v -4.146532 -0.047889 -9.371207
v -3.670159 -0.047891 -12.888610
v -6.599406 -0.047891 -11.936841
v 0.595502 2.393674 -9.819288
v 0.792576 -0.047889 -8.012845
v 2.220023 -0.047891 -11.262681
v -0.858093 -0.047891 -11.155193
# 58 vertices

vt 5.210942 -1.738139
vt 5.210942 -4.176332
vt 5.210942 -3.363601
vt 5.471818 -4.176332
vt 5.471818 -3.363601
vt 5.210942 -2.550870
vt 5.471818 -2.550870
vt 5.732698 -3.363601
vt 5.732698 -4.176332
vt 5.732698 -2.550870
vt 5.732698 -1.738139
vt 5.993573 -4.176332
vt 5.993573 -3.363601
vt 5.993573 -2.550870
vt 6.254454 -3.363601
vt 6.254454 -4.176332
vt 6.254454 -2.550870
vt 6.254454 -1.738139
vt 6.515329 -4.176332
vt 6.515329 -3.363601
vt 6.515329 -2.550870
vt 6.776210 -3.363601
vt 6.776210 -4.176332
vt 6.776210 -2.550870
vt 6.776210 -1.738139
vt 7.037086 -4.176332
vt 7.037086 -3.363601
vt 7.037086 -2.550870
vt 7.297963 -3.363601
vt 7.297963 -4.176332
vt 7.297963 -2.550870
vt 7.297963 -1.738139
vt 7.558843 -4.176332
vt 7.558843 -3.363601
vt 7.558843 -2.550870
vt 7.819718 -3.363601
vt 7.819718 -4.176332
vt 7.819718 -2.550870
vt 7.819718 -1.738139
vt 8.080597 -4.176332
vt 8.080597 -3.363601
vt 8.080597 -2.550870
vt 8.341474 -3.363601
vt 8.341474 -4.176332
vt 8.341474 -2.550870
vt 8.341474 -1.738139
vt 0.000000 0.000000
vt 1.000000 0.000000
vt 1.000000 1.000000
vt 0.000000 1.000000
# 50 texture coordinates

vn 0.000000 -0.971724 0.236120
vn 0.000000 -1.000000 0.000000
vn 0.018198 -0.999807 0.007386
vn 0.870242 0.492357 0.016218
vn 0.812102 0.583149 0.020689
vn 0.712782 0.540208 0.447345
vn 0.656666 0.604945 0.450368
vn 0.637514 0.761617 0.116252
vn 0.536323 0.699769 0.471891
vn -0.023932 0.992290 0.121605
vn 0.239140 -0.960487 -0.142394
vn 0.356491 0.629113 0.690747
vn 0.417349 0.621007 0.663453
vn 0.292407 0.702384 0.648964
vn 0.290993 -0.917124 -0.272409
vn -0.056299 0.606208 0.793311
vn -0.002064 0.633337 0.773873
vn 0.000000 0.666346 0.745643
vn -0.045822 -0.947305 -0.317039
vn -0.404274 0.588774 0.699935
vn -0.473870 0.381791 0.793526
vn -0.450867 0.707508 0.544198
vn -0.103977 -0.977083 -0.185736
vn -0.703812 0.493126 0.511346
vn -0.600916 0.681778 0.417227
vn -0.558978 0.697221 0.448806
vn 0.000000 -0.954103 0.299478
vn -0.808201 0.588769 0.012746
vn -0.858899 0.497431 -0.121883
vn -0.616337 0.742719 0.261720
vn 0.222745 -0.956656 0.187602
vn -0.764322 0.438036 -0.473219
vn -0.723163 0.476579 -0.499907
vn -0.602715 0.692887 -0.395780
vn 0.204636 -0.971225 -0.121848
vn -0.416595 0.560505 -0.715739
vn -0.493883 0.661596 -0.564242
vn -0.332283 0.705755 -0.625698
vn -0.198376 -0.980126 0.000000
vn 0.038763 0.691289 -0.721538
vn -0.000000 0.604610 -0.796522
vn -0.000000 0.620719 -0.784033
vn -0.284352 -0.954018 0.094838
vn 0.392521 0.564596 -0.726057
vn 0.445463 0.580904 -0.681259
vn 0.332283 0.705755 -0.625698
vn -0.088153 -0.940618 0.327821
vn 0.701047 0.562238 -0.438660
vn 0.673643 0.575069 -0.464221
vn 0.602715 0.692887 -0.395780
vn -0.869676 0.493623 0.000000
vn 0.406710 0.348200 -0.844597
vn 0.803380 0.594983 0.024006
vn 0.418585 0.263014 0.869258
vn -0.408288 0.493623 -0.767878
vn 0.936674 0.348199 -0.037411
vn 0.355968 0.594983 0.720612
vn -0.570996 0.263014 0.777681
vn -0.856463 0.493623 -0.151018
vn 0.547194 0.348199 -0.761141
vn 0.787006 0.594983 0.163147
vn 0.261281 0.263015 0.928739
vn -0.268744 0.493624 -0.827111
vn 0.928940 0.348198 0.125809
vn 0.225427 0.594983 0.771478
vn -0.697363 0.263015 0.666714
vn -0.030351 0.493623 -0.869146
vn 0.858277 0.348198 0.376987
vn 0.004047 0.594982 0.803729
vn -0.854120 0.263015 0.448667
# 70 normals

g Cylinder01
usemtl Material01
s 2
f 1/1/1 5/1/2 38/1/3
s 1
f 1/2/4 2/3/5 5/4/6
f 2/3/5 6/5/7 5/4/6
f 2/3/5 3/6/8 7/7/9
f 2/3/5 7/7/9 6/5/7
f 3/6/8 4/1/10 7/7/9
s 2
f 5/1/2 8/1/11 38/1/3
s 1
f 5/4/6 6/5/7 9/8/12
f 5/4/6 9/8/12 8/9/13
f 6/5/7 7/7/9 9/8/12
f 7/7/9 10/10/14 9/8/12
f 7/7/9 4/11/10 10/10/14
s 2
f 8/1/11 11/1/15 38/1/3
s 1
f 8/9/13 9/8/12 11/12/16
f 9/8/12 12/13/17 11/12/16
f 9/8/12 10/10/14 13/14/18
f 9/8/12 13/14/18 12/13/17
f 10/10/14 4/11/10 13/14/18
s 2
f 11/1/15 14/1/19 38/1/3
s 1
f 11/12/16 12/13/17 15/15/20
f 11/12/16 15/15/20 14/16/21
f 12/13/17 13/14/18 15/15/20
f 13/14/18 16/17/22 15/15/20
f 13/14/18 4/18/10 16/17/22
s 2
f 14/1/19 17/1/23 38/1/3
s 1
f 14/16/21 15/15/20 17/19/24
f 15/15/20 18/20/25 17/19/24
f 15/15/20 16/17/22 19/21/26
f 15/15/20 19/21/26 18/20/25
f 16/17/22 4/18/10 19/21/26
s 2
f 17/1/23 20/1/27 38/1/3
s 1
f 17/19/24 18/20/25 21/22/28
f 17/19/24 21/22/28 20/23/29
f 18/20/25 19/21/26 21/22/28
f 19/21/26 22/24/30 21/22/28
f 19/21/26 4/25/10 22/24/30
s 2
f 20/1/27 23/1/31 38/1/3
s 1
f 20/23/29 21/22/28 23/26/32
f 21/22/28 24/27/33 23/26/32
f 21/22/28 22/24/30 25/28/34
f 21/22/28 25/28/34 24/27/33
f 22/24/30 4/25/10 25/28/34
s 2
f 23/1/31 26/1/35 38/1/3
s 1
f 23/26/32 24/27/33 27/29/36
f 23/26/32 27/29/36 26/30/37
f 24/27/33 25/28/34 27/29/36
f 25/28/34 28/31/38 27/29/36
f 25/28/34 4/32/10 28/31/38
s 2
f 26/1/35 29/1/39 38/1/3
s 1
f 26/30/37 27/29/36 29/33/40
f 27/29/36 30/34/41 29/33/40
f 27/29/36 28/31/38 31/35/42
f 27/29/36 31/35/42 30/34/41
f 28/31/38 4/32/10 31/35/42
s 2
f 29/1/39 32/1/43 38/1/3
s 1
f 29/33/40 30/34/41 33/36/44
f 29/33/40 33/36/44 32/37/45
f 30/34/41 31/35/42 33/36/44
f 31/35/42 34/38/46 33/36/44
f 31/35/42 4/39/10 34/38/46
s 2
f 32/1/43 35/1/47 38/1/3
s 1
f 32/37/45 33/36/44 35/40/48
f 33/36/44 36/41/49 35/40/48
f 33/36/44 34/38/46 37/42/50
f 33/36/44 37/42/50 36/41/49
f 34/38/46 4/39/10 37/42/50
s 2
f 35/1/47 1/1/1 38/1/3
s 1
f 35/40/48 36/41/49 2/43/5
f 35/40/48 2/43/5 1/44/4
f 36/41/49 37/42/50 2/43/5
f 37/42/50 3/45/8 2/43/5
f 37/42/50 4/46/10 3/45/8
# 72 triangles in group

g Box01
usemtl Material01
f 40/47/2 42/48/2 41/49/2
s 2
f 41/50/51 42/47/51 39/49/51
s 3
f 41/50/52 39/47/53 40/49/53
f 42/47/54 40/48/53 39/49/53
# 4 triangles in group

g Duplicate01
usemtl Material01
s 1
f 44/47/2 46/48/2 45/49/2
s 2
f 45/50/55 46/47/55 43/49/55
s 3
f 45/50/56 43/47/57 44/49/57
f 46/47/58 44/48/57 43/49/57
# 4 triangles in group

g Duplicate02
usemtl Material01
s 1
f 48/47/2 50/48/2 49/49/2
s 2
f 49/50/59 50/47/59 47/49/59
s 3
f 49/50/60 47/47/61 48/49/61
f 50/47/62 48/48/61 47/49/61
# 4 triangles in group

g Duplicate03
usemtl Material01
s 1
f 52/47/2 54/48/2 53/49/2
s 2
f 53/50/63 54/47/63 51/49/63
s 3
f 53/50/64 51/47/65 52/49/65
f 54/47/66 52/48/65 51/49/65
# 4 triangles in group

g Duplicate04
usemtl Material01
s 1
f 56/47/2 58/48/2 57/49/2
s 2
f 57/50/67 58/47/67 55/49/67
s 3
f 57/50/68 55/47/69 56/49/69
f 58/47/70 56/48/69 55/49/69
# 4 triangles in group

# 92 triangles total

