# Wavefront OBJ exported by MilkShape 3D

mtllib cacaotree.mtl

v 7.354655 -10.500000 -0.625000
v 2.502194 7.307798 -0.125000
v 3.872799 15.960632 -2.125000
v 0.275004 24.795134 0.125000
v 2.649776 33.142056 -2.125000
v 0.000000 40.000000 -0.375000
v 4.585552 -10.500000 6.048183
v 1.316232 8.436972 2.493702
v 2.922962 15.110648 0.240849
v -0.589198 25.544142 1.832401
v 2.141820 32.553146 -0.694401
v -1.636565 -10.500000 7.696329
v -1.613899 9.086493 3.140471
v 0.525095 14.440902 0.825161
v -2.704017 25.996349 2.254093
v 0.774051 32.074814 -0.341063
v -6.626316 -10.500000 3.078339
v -4.081752 8.767260 1.328270
v -1.515159 14.455728 -0.812054
v -4.476952 25.811245 1.072542
v -0.423575 32.067268 -1.331078
v -6.626316 -10.500000 -4.328339
v -4.228982 7.719656 -1.578269
v -1.661446 15.143953 -3.437946
v -4.572948 25.128204 -0.822536
v -0.549219 32.536179 -2.918922
v -1.636565 -10.500000 -8.946325
v -1.944723 6.732557 -3.390468
v 0.196389 15.987343 -5.075162
v -2.919715 24.461580 -2.004098
v 0.491730 33.128452 -3.908936
v 4.585552 -10.500000 -7.298184
v 1.050932 6.549260 -2.743700
v 2.659360 16.350796 -4.490847
v -0.762174 24.313349 -1.582405
v 1.915416 33.398098 -3.555606
v -0.000000 -10.500000 -0.625000
v 0.000000 43.973766 -0.447918
v 31.387196 30.094427 -0.927600
v 0.000000 30.094427 34.676414
v -31.387196 30.094427 -0.927600
v -0.000000 30.094427 -36.531624
v 18.039307 38.718796 -0.447918
v 0.000000 38.718796 17.528971
v -18.039307 38.718796 -0.447918
v -0.000000 38.718796 -18.424803
v -1.250000 30.059921 10.206036
v -2.501884 9.698492 1.157738
v 0.001884 9.698492 1.157738
v 0.001884 10.771548 -0.948253
v -2.501884 10.771548 -0.948253
v -1.000000 27.024784 -6.936993
v -2.251884 17.895523 -0.852873
v 0.251884 17.895523 -0.852873
v 0.251884 17.217081 -1.741126
v -2.251884 17.217081 -1.741126
v 0.000000 35.752384 14.075925
v 22.774324 26.180502 9.558563
v 0.000000 18.294994 23.160683
v -22.774324 26.180502 9.558563
v -0.000000 34.066013 -4.043560
v 13.089194 32.088074 12.434958
v 0.000000 28.106586 19.302826
v -13.089194 32.088074 12.434958
v -0.000000 36.069569 5.567091
v 1.651824 30.483408 -10.466258
v 14.291687 20.651602 -1.201091
v -3.422952 25.221661 2.030613
v -13.085886 20.651602 -14.565371
v 4.628753 16.081545 -17.797081
v 9.101563 26.784216 -5.597247
v -0.798554 29.091702 -4.432089
v -6.633275 26.784216 -13.278158
v 3.266848 24.476751 -14.443328
# 74 vertices

vt -0.984863 1.560604
vt -0.984863 -0.560604
vt -0.984863 -0.136362
vt -0.770825 -0.560604
vt -0.770825 -0.136362
vt -0.984863 0.287879
vt -0.770825 0.287879
vt -0.984863 0.712121
vt -0.770825 0.712121
vt -0.984863 1.136362
vt -0.770825 1.136362
vt -0.556786 -0.136362
vt -0.556786 -0.560604
vt -0.556786 0.287879
vt -0.556786 0.712121
vt -0.556786 1.136362
vt -0.556786 1.560604
vt -0.342747 -0.560604
vt -0.342747 -0.136362
vt -0.342747 0.287879
vt -0.342747 0.712121
vt -0.342747 1.136362
vt -0.128709 -0.136362
vt -0.128709 -0.560604
vt -0.128709 0.287879
vt -0.128709 0.712121
vt -0.128709 1.136362
vt -0.128709 1.560604
vt 0.085330 -0.560604
vt 0.085330 -0.136362
vt 0.085330 0.287879
vt 0.085330 0.712121
vt 0.085330 1.136362
vt 0.299369 -0.136362
vt 0.299369 -0.560604
vt 0.299369 0.287879
vt 0.299369 0.712121
vt 0.299369 1.136362
vt 0.299369 1.560604
vt 0.513407 -0.560604
vt 0.513407 -0.136362
vt 0.513407 0.287879
vt 0.513407 0.712121
vt 0.513407 1.136362
vt 0.485278 0.517429
vt 0.338316 0.351589
vt 0.656541 0.352754
vt 0.340547 0.685824
vt 0.669385 0.690710
vt 0.979012 -0.002812
vt 0.009412 -0.003035
vt 0.016379 0.989481
vt 1.009415 0.997516
vt 0.000000 0.000000
vt 1.000000 0.000000
vt 1.000000 1.000000
vt 0.000000 1.000000
# 57 texture coordinates

vn 0.000000 -1.000000 0.000000
vn 0.987360 0.000000 -0.158496
vn 0.987360 0.000000 0.158496
vn 0.623490 0.000000 0.781831
vn -0.222521 0.000000 0.974928
vn -0.900969 0.000000 0.433884
vn -0.900969 0.000000 -0.433884
vn -0.222521 0.000000 -0.974928
vn 0.623490 0.000000 -0.781832
vn 0.000000 1.000000 0.000000
vn 0.000000 0.707107 0.707107
vn 0.707107 0.707107 0.000000
vn -0.707107 0.707107 0.000000
vn -0.000000 0.707107 -0.707107
vn 1.000000 0.000000 0.000000
vn 0.000000 0.000000 1.000000
vn -1.000000 0.000000 0.000000
vn -0.000000 0.000000 -1.000000
# 18 normals

g Cylinder02
usemtl wood
s 2
f 1/1/1 7/1/1 37/1/1
s 1
f 1/2/2 2/3/3 7/4/4
f 2/3/3 8/5/4 7/4/4
f 2/3/3 3/6/2 9/7/4
f 2/3/3 9/7/4 8/5/4
f 3/6/2 4/8/3 9/7/4
f 4/8/3 10/9/4 9/7/4
f 4/8/3 5/10/2 11/11/4
f 4/8/3 11/11/4 10/9/4
f 5/10/2 6/1/3 11/11/4
s 2
f 7/1/1 12/1/1 37/1/1
s 1
f 7/4/4 8/5/4 13/12/5
f 7/4/4 13/12/5 12/13/5
f 8/5/4 9/7/4 13/12/5
f 9/7/4 14/14/5 13/12/5
f 9/7/4 10/9/4 15/15/5
f 9/7/4 15/15/5 14/14/5
f 10/9/4 11/11/4 15/15/5
f 11/11/4 16/16/5 15/15/5
f 11/11/4 6/17/5 16/16/5
s 2
f 12/1/1 17/1/1 37/1/1
s 1
f 12/13/5 13/12/5 17/18/6
f 13/12/5 18/19/6 17/18/6
f 13/12/5 14/14/5 19/20/6
f 13/12/5 19/20/6 18/19/6
f 14/14/5 15/15/5 19/20/6
f 15/15/5 20/21/6 19/20/6
f 15/15/5 16/16/5 21/22/6
f 15/15/5 21/22/6 20/21/6
f 16/16/5 6/17/5 21/22/6
s 2
f 17/1/1 22/1/1 37/1/1
s 1
f 17/18/6 18/19/6 23/23/7
f 17/18/6 23/23/7 22/24/7
f 18/19/6 19/20/6 23/23/7
f 19/20/6 24/25/7 23/23/7
f 19/20/6 20/21/6 25/26/7
f 19/20/6 25/26/7 24/25/7
f 20/21/6 21/22/6 25/26/7
f 21/22/6 26/27/7 25/26/7
f 21/22/6 6/28/7 26/27/7
s 2
f 22/1/1 27/1/1 37/1/1
s 1
f 22/24/7 23/23/7 27/29/8
f 23/23/7 28/30/8 27/29/8
f 23/23/7 24/25/7 29/31/8
f 23/23/7 29/31/8 28/30/8
f 24/25/7 25/26/7 29/31/8
f 25/26/7 30/32/8 29/31/8
f 25/26/7 26/27/7 31/33/8
f 25/26/7 31/33/8 30/32/8
f 26/27/7 6/28/7 31/33/8
s 2
f 27/1/1 32/1/1 37/1/1
s 1
f 27/29/8 28/30/8 33/34/9
f 27/29/8 33/34/9 32/35/9
f 28/30/8 29/31/8 33/34/9
f 29/31/8 34/36/9 33/34/9
f 29/31/8 30/32/8 35/37/9
f 29/31/8 35/37/9 34/36/9
f 30/32/8 31/33/8 35/37/9
f 31/33/8 36/38/9 35/37/9
f 31/33/8 6/39/9 36/38/9
s 2
f 32/1/1 1/1/1 37/1/1
s 1
f 32/35/9 33/34/9 1/40/2
f 33/34/9 2/41/3 1/40/2
f 33/34/9 34/36/9 3/42/2
f 33/34/9 3/42/2 2/41/3
f 34/36/9 35/37/9 3/42/2
f 35/37/9 4/43/3 3/42/2
f 35/37/9 36/38/9 5/44/2
f 35/37/9 5/44/2 4/43/3
f 36/38/9 6/39/9 5/44/2
# 70 triangles in group

g Sphere02
usemtl Material03
f 38/45/10 44/46/11 43/47/12
f 38/45/10 45/48/13 44/46/11
f 38/45/10 46/49/14 45/48/13
f 38/45/10 43/47/12 46/49/14
f 39/50/15 43/47/12 40/51/16
f 43/47/12 44/46/11 40/51/16
f 40/51/16 44/46/11 45/48/13
f 40/51/16 45/48/13 41/52/17
f 41/52/17 45/48/13 42/53/18
f 45/48/13 46/49/14 42/53/18
f 42/53/18 46/49/14 43/47/12
f 42/53/18 43/47/12 39/50/15
# 12 triangles in group

g Box01
usemtl wood
f 48/54/16 49/55/16 47/56/16
s 2
f 49/54/15 50/55/15 47/56/15
s 1
f 50/54/18 51/55/18 47/56/18
s 2
f 51/54/17 48/55/17 47/56/17
s 3
f 48/57/1 51/54/1 49/56/1
f 51/54/1 50/55/1 49/56/1
# 6 triangles in group

g Duplicate01
usemtl wood
s 1
f 53/54/16 54/55/16 52/56/16
s 2
f 54/54/15 55/55/15 52/56/15
s 1
f 55/54/18 56/55/18 52/56/18
s 2
f 56/54/17 53/55/17 52/56/17
s 3
f 53/57/1 56/54/1 54/56/1
f 56/54/1 55/55/1 54/56/1
# 6 triangles in group

g Duplicate02
usemtl Material03
s 1
f 57/45/10 63/46/11 62/47/12
f 57/45/10 64/48/13 63/46/11
f 57/45/10 65/49/14 64/48/13
f 57/45/10 62/47/12 65/49/14
f 58/50/15 62/47/12 59/51/16
f 62/47/12 63/46/11 59/51/16
f 59/51/16 63/46/11 64/48/13
f 59/51/16 64/48/13 60/52/17
f 60/52/17 64/48/13 61/53/18
f 64/48/13 65/49/14 61/53/18
f 61/53/18 65/49/14 62/47/12
f 61/53/18 62/47/12 58/50/15
# 12 triangles in group

g Duplicate03
usemtl Material03
f 66/45/10 72/46/11 71/47/12
f 66/45/10 73/48/13 72/46/11
f 66/45/10 74/49/14 73/48/13
f 66/45/10 71/47/12 74/49/14
f 67/50/15 71/47/12 68/51/16
f 71/47/12 72/46/11 68/51/16
f 68/51/16 72/46/11 73/48/13
f 68/51/16 73/48/13 69/52/17
f 69/52/17 73/48/13 70/53/18
f 73/48/13 74/49/14 70/53/18
f 70/53/18 74/49/14 71/47/12
f 70/53/18 71/47/12 67/50/15
# 12 triangles in group

# 118 triangles total

