# Wavefront OBJ exported by MilkShape 3D

mtllib cacaofruit.mtl

v -0.000002 1.750000 -18.016474
v -0.000002 1.750000 18.016455
v -0.000000 6.433221 15.602718
v -3.440120 5.061538 15.602718
v -4.865052 1.750000 15.602722
v -3.440120 -1.561538 15.602718
v -0.000000 -2.933222 15.602718
v 3.440109 -1.561538 15.602715
v 4.865051 1.750000 15.602715
v 3.440109 5.061538 15.602715
v -0.000002 9.861576 9.008245
v -5.958444 7.485752 9.008242
v -8.426523 1.750000 9.008242
v -5.958444 -3.985752 9.008242
v -0.000002 -6.361578 9.008245
v 5.958445 -3.985752 9.008243
v 8.426512 1.750000 9.008243
v 5.958445 7.485752 9.008243
v -0.000002 11.116442 -0.000004
v -6.880225 8.373075 -0.000003
v -9.730112 1.750000 -0.000003
v -6.880225 -4.873075 -0.000003
v -0.000002 -7.616442 -0.000004
v 6.880219 -4.873075 -0.000004
v 9.730108 1.750000 -0.000003
v 6.880219 8.373075 -0.000004
v -0.000003 9.861576 -9.008242
v -5.958442 7.485752 -9.008236
v -8.426527 1.750000 -9.008241
v -5.958442 -3.985752 -9.008236
v -0.000003 -6.361578 -9.008242
v 5.958443 -3.985752 -9.008236
v 8.426514 1.750000 -9.008238
v 5.958443 7.485752 -9.008236
v -0.000002 6.433221 -15.602717
v -3.440119 5.061538 -15.602716
v -4.865052 1.750000 -15.602715
v -3.440119 -1.561538 -15.602716
v -0.000002 -2.933222 -15.602717
v 3.440108 -1.561538 -15.602718
v 4.865053 1.750000 -15.602717
v 3.440108 5.061538 -15.602718
# 42 vertices

vt 7.411042 -1.019993
vt 7.478013 -1.021508
vt 7.482012 -0.844775
vt 8.410789 -1.042615
vt 8.347816 -0.864367
vt 8.343818 -1.041098
vt 7.483671 -0.771572
vt 8.349474 -0.791163
vt 7.474015 -1.198238
vt 8.339818 -1.217828
vt 7.472357 -1.271443
vt 8.338163 -1.291036
vt 7.660980 -1.025648
vt 7.667906 -0.719540
vt 7.670775 -0.592747
vt 7.654053 -1.331756
vt 7.651186 -1.458549
vt 7.910915 -1.031303
vt 7.918913 -0.677841
vt 7.922229 -0.531431
vt 7.902917 -1.384765
vt 7.899605 -1.531173
vt 8.160851 -1.036958
vt 8.167779 -0.730852
vt 8.170649 -0.604053
vt 8.153926 -1.343066
vt 8.151055 -1.469859
# 27 texture coordinates

vn 0.000001 0.000000 1.000000
vn 0.000000 0.772769 0.634687
vn -0.483827 0.499226 0.718808
vn -0.000000 0.000000 -1.000000
vn -0.483829 0.499227 -0.718806
vn 0.000000 0.772770 -0.634686
vn -0.762168 0.000000 0.647380
vn -0.762169 0.000000 -0.647379
vn -0.483827 -0.499226 0.718808
vn -0.483829 -0.499227 -0.718806
vn 0.000000 -0.772769 0.634687
vn 0.000000 -0.772770 -0.634686
vn 0.483827 -0.499226 0.718808
vn 0.483828 -0.499227 -0.718806
vn 0.762168 0.000000 0.647380
vn 0.762168 0.000000 -0.647379
vn 0.483827 0.499226 0.718808
vn 0.483828 0.499228 -0.718806
vn -0.000000 0.952309 0.305136
vn -0.662732 0.681592 0.310191
vn -0.948951 0.000000 0.315422
vn -0.662732 -0.681592 0.310191
vn -0.000000 -0.952309 0.305136
vn 0.662732 -0.681592 0.310192
vn 0.948951 0.000000 0.315422
vn 0.662732 0.681592 0.310192
vn -0.000000 1.000000 -0.000000
vn -0.697452 0.716631 -0.000000
vn -1.000000 0.000000 -0.000000
vn -0.697452 -0.716631 -0.000000
vn -0.000000 -1.000000 -0.000000
vn 0.697452 -0.716631 -0.000000
vn 1.000000 -0.000000 -0.000000
vn 0.697452 0.716631 -0.000000
vn -0.000000 0.952309 -0.305136
vn -0.662731 0.681593 -0.310191
vn -0.948951 0.000000 -0.315422
vn -0.662731 -0.681592 -0.310191
vn -0.000000 -0.952309 -0.305136
vn 0.662732 -0.681592 -0.310192
vn 0.948952 0.000000 -0.315422
vn 0.662731 0.681592 -0.310192
# 42 normals

g Sphere01
usemtl Material01
s 1
f 2/1/1 3/2/2 4/3/3
f 1/4/4 36/5/5 35/6/6
f 2/1/1 4/3/3 5/7/7
f 1/4/4 37/8/8 36/5/5
f 2/1/1 5/7/7 6/3/9
f 1/4/4 38/5/10 37/8/8
f 2/1/1 6/3/9 7/2/11
f 1/4/4 39/6/12 38/5/10
f 2/1/1 7/2/11 8/9/13
f 1/4/4 40/10/14 39/6/12
f 2/1/1 8/9/13 9/11/15
f 1/4/4 41/12/16 40/10/14
f 2/1/1 9/11/15 10/9/17
f 1/4/4 42/10/18 41/12/16
f 2/1/1 10/9/17 3/2/2
f 1/4/4 35/6/6 42/10/18
f 3/2/2 11/13/19 12/14/20
f 3/2/2 12/14/20 4/3/3
f 4/3/3 12/14/20 5/7/7
f 12/14/20 13/15/21 5/7/7
f 5/7/7 13/15/21 14/14/22
f 5/7/7 14/14/22 6/3/9
f 6/3/9 14/14/22 7/2/11
f 14/14/22 15/13/23 7/2/11
f 7/2/11 15/13/23 16/16/24
f 7/2/11 16/16/24 8/9/13
f 8/9/13 16/16/24 9/11/15
f 16/16/24 17/17/25 9/11/15
f 9/11/15 17/17/25 18/16/26
f 9/11/15 18/16/26 10/9/17
f 10/9/17 18/16/26 3/2/2
f 18/16/26 11/13/19 3/2/2
f 11/13/19 19/18/27 12/14/20
f 19/18/27 20/19/28 12/14/20
f 12/14/20 20/19/28 21/20/29
f 12/14/20 21/20/29 13/15/21
f 13/15/21 21/20/29 14/14/22
f 21/20/29 22/19/30 14/14/22
f 14/14/22 22/19/30 23/18/31
f 14/14/22 23/18/31 15/13/23
f 15/13/23 23/18/31 16/16/24
f 23/18/31 24/21/32 16/16/24
f 16/16/24 24/21/32 25/22/33
f 16/16/24 25/22/33 17/17/25
f 17/17/25 25/22/33 18/16/26
f 25/22/33 26/21/34 18/16/26
f 18/16/26 26/21/34 19/18/27
f 18/16/26 19/18/27 11/13/19
f 19/18/27 27/23/35 28/24/36
f 19/18/27 28/24/36 20/19/28
f 20/19/28 28/24/36 21/20/29
f 28/24/36 29/25/37 21/20/29
f 21/20/29 29/25/37 30/24/38
f 21/20/29 30/24/38 22/19/30
f 22/19/30 30/24/38 23/18/31
f 30/24/38 31/23/39 23/18/31
f 23/18/31 31/23/39 32/26/40
f 23/18/31 32/26/40 24/21/32
f 24/21/32 32/26/40 25/22/33
f 32/26/40 33/27/41 25/22/33
f 25/22/33 33/27/41 34/26/42
f 25/22/33 34/26/42 26/21/34
f 26/21/34 34/26/42 19/18/27
f 34/26/42 27/23/35 19/18/27
f 27/23/35 35/6/6 28/24/36
f 35/6/6 36/5/5 28/24/36
f 28/24/36 36/5/5 37/8/8
f 28/24/36 37/8/8 29/25/37
f 29/25/37 37/8/8 30/24/38
f 37/8/8 38/5/10 30/24/38
f 30/24/38 38/5/10 39/6/12
f 30/24/38 39/6/12 31/23/39
f 31/23/39 39/6/12 32/26/40
f 39/6/12 40/10/14 32/26/40
f 32/26/40 40/10/14 41/12/16
f 32/26/40 41/12/16 33/27/41
f 33/27/41 41/12/16 34/26/42
f 41/12/16 42/10/18 34/26/42
f 34/26/42 42/10/18 35/6/6
f 34/26/42 35/6/6 27/23/35
# 80 triangles in group

# 80 triangles total

