# Wavefront OBJ exported by MilkShape 3D

mtllib cave.mtl

v 3.185659 43.250000 0.315044
v 3.130325 -20.000002 0.474265
v 47.009258 -11.637497 14.235617
v 39.666107 -11.637497 39.274231
v 22.590073 -11.637495 40.109192
v 13.119683 -9.588366 -24.020771
v -6.409031 -8.658144 -29.905346
v -27.009022 -11.887495 31.056141
v -39.918133 -11.637495 4.528984
v -36.242405 -11.637495 -14.380877
v -23.662506 -11.637495 -29.312092
v -6.594205 -14.137499 -39.434376
v 18.793219 -11.637495 -36.243458
v 42.742485 -11.637495 -25.901779
v 44.416573 -11.637495 -6.603303
v 40.277168 13.605327 12.174647
v 34.926594 11.367165 33.531414
v 24.306028 10.000000 33.119160
v 11.184426 12.281539 -18.478374
v -6.038722 13.285725 -23.444313
v -20.831743 8.284939 30.560028
v -33.240986 9.548700 2.533010
v -33.939781 7.615334 -12.214976
v -19.917135 8.246725 -24.882763
v -3.944210 11.250315 -34.219646
v 16.435760 10.000000 -30.966091
v 37.674728 10.000000 -22.543285
v 37.835777 10.000000 -6.062245
v 34.774540 20.631329 13.378830
v 30.599558 21.210964 32.035160
v 19.846577 19.832487 31.833897
v 10.239295 27.011930 -15.483349
v -6.415812 28.713663 -17.323696
v -19.164274 20.238611 26.296684
v -30.459156 19.868401 4.067118
v -27.271122 18.576176 -7.209334
v -18.608541 18.398939 -21.411327
v -5.326494 20.127693 -26.896034
v 14.590839 19.750000 -26.582905
v 33.942734 19.750000 -19.554878
v 33.323792 24.437763 -5.096854
v 30.870779 30.000000 11.833699
v 25.281805 32.750000 23.759018
v 18.780083 30.750000 29.669048
v 2.428259 28.319813 27.827681
v -10.117369 29.555756 25.516068
v -15.340282 32.000000 20.449814
v -23.878891 32.500000 3.513702
v -20.877172 33.500000 -5.425960
v -14.095774 30.500000 -15.829113
v -2.054296 29.500000 -22.543537
v 13.066034 30.500000 -22.995701
v 27.520393 32.948395 -11.332553
v 30.335640 34.113831 -2.059515
v 17.601162 37.137497 5.173555
v 13.775231 36.488075 12.742373
v 8.637959 38.111954 17.936623
v 1.403411 38.745735 19.009800
v -4.986113 40.260605 17.823788
v -10.201107 39.847271 12.838129
v -13.170315 41.976524 5.830074
v -11.472488 40.032303 -2.904486
v -6.767303 39.637497 -9.145581
v -0.052910 40.637497 -11.873677
v 8.900179 37.637497 -13.195283
v 14.687254 42.637497 -8.017735
v 17.592211 40.137497 -1.098750
v 43.152626 24.909372 10.789724
v 44.934185 -38.823685 10.699984
v 42.726353 -17.674166 -0.447765
v 55.006989 -35.254898 3.906872
v 50.841488 -35.475311 16.647800
v 35.982101 -17.674166 20.167564
v 31.371805 -17.674166 7.579822
v 42.004269 8.989711 2.234323
v 53.676178 9.267727 4.987128
v 50.670723 9.108127 14.823885
v 39.155060 9.211298 18.025349
v 35.806175 9.211298 8.299497
v 41.843258 17.937466 4.713013
v 51.038605 18.041492 5.825256
v 47.897396 18.112869 15.799061
v 40.625042 18.112869 15.926006
v 38.506977 16.674156 9.044433
v 44.298347 9.151531 15.436008
v 46.281998 -35.835625 10.876955
v 24.986412 -15.931444 1.758002
v 45.237091 -15.824183 -13.441115
v 61.835423 -33.713852 9.327178
v 52.597614 -33.681442 38.752144
v 28.176655 -15.931444 29.918232
v 28.881428 0.964705 6.358842
v 44.312275 1.140875 -8.348272
v 58.268440 1.039742 9.084800
v 53.104961 1.105118 31.252182
v 33.484577 1.105118 23.908665
v 32.947380 6.634645 9.818295
v 43.307873 6.700563 -3.135292
v 57.372089 6.745792 14.687553
v 50.889603 6.745792 26.234753
v 37.238731 5.834122 20.645233
v -29.793919 11.401531 -20.755062
v -34.169842 -15.835627 -23.889870
v -39.206280 -25.931444 -0.444128
v -56.719765 -34.574181 -20.808060
v -32.064308 -25.963854 -38.650646
v -6.409122 -13.681444 -30.690994
v -15.032530 -13.681444 -4.888582
v -38.600658 3.214705 -5.182080
v -49.648308 0.140875 -19.590668
v -36.387966 3.289741 -34.612202
v -14.133848 3.355118 -29.836384
v -21.133816 3.355118 -10.090817
v -35.212688 8.884645 -9.307786
v -44.418594 5.700563 -18.677383
v -30.770428 8.995792 -33.813747
v -19.111849 8.995792 -27.533779
v -24.462273 8.084122 -13.787436
v 16.103548 19.660393 -23.305290
v 21.146088 -37.983376 -41.865330
v 4.832552 -16.632654 -42.486835
v 22.220497 -31.023254 -52.413357
v 33.380917 -34.196510 -40.438423
v 22.866705 -21.427149 -23.005741
v 3.832035 -20.687044 -29.171799
v 5.834143 8.281300 -32.401745
v 19.783297 11.057764 -37.972980
v 28.592737 8.670681 -28.862770
v 21.765223 5.401308 -18.936634
v 7.254177 6.026587 -23.840767
v 8.100662 16.424480 -27.917999
v 17.854593 18.660934 -33.111588
v 26.687517 16.440094 -23.745953
v 20.152042 14.598444 -18.879791
v 10.196083 13.728027 -22.927696
v -2.951773 29.461748 22.331781
v 0.000000 23.218790 21.847918
v 0.701773 29.461748 23.473604
v 2.951773 29.461748 21.364054
v -0.701772 29.461748 20.222231
v -12.440563 28.562603 15.540854
v -13.499999 16.815365 18.347916
v -15.409756 28.562603 18.019129
v -14.559439 28.562603 21.154980
v -11.590246 28.562603 18.676704
v 4.197247 28.992119 -0.058556
v 2.620789 24.480989 9.287823
v -4.014081 28.493116 7.397526
v -1.757645 30.966919 16.284431
v 6.453686 31.465939 8.828358
# 150 vertices

vt -6.856027 -1.737238
vt -6.856027 -0.664006
vt -6.216900 -0.664006
vt -6.856027 4.702146
vt -6.216900 3.628916
vt -6.856027 3.628916
vt -6.216900 -1.737238
vt -5.577766 -0.664006
vt -6.216900 4.702146
vt -5.577766 3.628916
vt -5.577766 -1.737238
vt -4.938638 -0.664006
vt -5.577766 4.702146
vt -4.938638 3.628916
vt -4.938638 -1.737238
vt -4.299510 -0.664006
vt -4.938638 4.702146
vt -4.299510 3.628916
vt -4.299510 -1.737238
vt -3.660382 -0.664006
vt -4.299510 4.702146
vt -3.660382 3.628916
vt -3.660382 -1.737238
vt -3.021252 -0.664006
vt -3.660382 4.702146
vt -3.021252 3.628916
vt -3.021252 -1.737238
vt -2.382124 -0.664006
vt -3.021252 4.702146
vt -2.382124 3.628916
vt -2.382124 -1.737238
vt -1.742994 -0.664006
vt -2.382124 4.702146
vt -1.742994 3.628916
vt -1.742994 -1.737238
vt -1.103867 -0.664006
vt -1.742994 4.702146
vt -1.103867 3.628916
vt -1.103867 -1.737238
vt -0.464736 -0.664006
vt -1.103867 4.702146
vt -0.464736 3.628916
vt -0.464736 -1.737238
vt 0.174392 -0.664006
vt -0.464736 4.702146
vt 0.174392 3.628916
vt 0.174392 -1.737238
vt 0.813518 -0.664006
vt 0.174392 4.702146
vt 0.813518 3.628916
vt 0.813518 -1.737238
vt 1.452647 -0.664006
vt 0.813518 4.702146
vt 1.452647 3.628916
vt -6.856027 0.409226
vt -6.216900 0.409226
vt -5.577766 0.409226
vt -4.938638 0.409226
vt -4.299510 0.409226
vt -3.660382 0.409226
vt -3.021252 0.409226
vt -2.382124 0.409226
vt -1.742994 0.409226
vt -1.103867 0.409226
vt -0.464736 0.409226
vt 0.174392 0.409226
vt 0.813518 0.409226
vt 1.452647 0.409226
vt -6.856027 1.482456
vt -6.216900 1.482456
vt -5.577766 1.482456
vt -4.938638 1.482456
vt -4.299510 1.482456
vt -3.660382 1.482456
vt -3.021252 1.482456
vt -2.382124 1.482456
vt -1.742994 1.482456
vt -1.103867 1.482456
vt -0.464736 1.482456
vt 0.174392 1.482456
vt 0.813518 1.482456
vt 1.452647 1.482456
vt -6.856027 2.555686
vt -6.216900 2.555686
vt -5.577766 2.555686
vt -4.938638 2.555686
vt -4.299510 2.555686
vt -3.660382 2.555686
vt -3.021252 2.555686
vt -2.382124 2.555686
vt -1.742994 2.555686
vt -1.103867 2.555686
vt -0.464736 2.555686
vt 0.174392 2.555686
vt 0.813518 2.555686
vt 1.452647 2.555686
vt -0.663269 0.096278
vt -0.663269 0.615432
vt -0.392382 0.615432
vt -0.663269 2.172895
vt -0.392382 1.653741
vt -0.663269 1.653741
vt -0.392382 0.096278
vt -0.121496 0.615432
vt -0.392382 2.172895
vt -0.121496 1.653741
vt -0.121496 0.096278
vt 0.149391 0.615432
vt -0.121496 2.172895
vt 0.149391 1.653741
vt 0.149391 0.096278
vt 0.420278 0.615432
vt 0.149391 2.172895
vt 0.420278 1.653741
vt 0.420278 0.096278
vt 0.691164 0.615432
vt 0.420278 2.172895
vt 0.691164 1.653741
vt -0.663269 1.134586
vt -0.392382 1.134586
vt -0.121496 1.134586
vt 0.149391 1.134586
vt 0.420278 1.134586
vt 0.691164 1.134586
vt -1.324536 -0.911368
vt -1.324536 0.009405
vt -0.722856 0.009405
vt -1.324536 2.771723
vt -0.722856 1.850950
vt -1.324536 1.850950
vt -0.722856 -0.911368
vt -0.121177 0.009405
vt -0.722856 2.771723
vt -0.121177 1.850950
vt -0.121177 -0.911368
vt 0.480502 0.009405
vt -0.121177 2.771723
vt 0.480502 1.850950
vt 0.480502 -0.911368
vt 1.082181 0.009405
vt 0.480502 2.771723
vt 1.082181 1.850950
vt 1.082181 -0.911368
vt 1.683860 0.009405
vt 1.082181 2.771723
vt 1.683860 1.850950
vt -1.324536 0.930177
vt -0.722856 0.930177
vt -0.121177 0.930177
vt 0.480502 0.930177
vt 1.082181 0.930177
vt 1.683860 0.930177
vt -1.438131 -1.139997
vt -1.438131 -0.280537
vt -0.777906 -0.280537
vt -1.438131 2.297842
vt -0.777906 1.438382
vt -1.438131 1.438382
vt -0.777906 -1.139997
vt -0.117686 -0.280537
vt -0.777906 2.297842
vt -0.117686 1.438382
vt -0.117686 -1.139997
vt 0.542538 -0.280537
vt -0.117686 2.297842
vt 0.542538 1.438382
vt 0.542538 -1.139997
vt 1.202760 -0.280537
vt 0.542538 2.297842
vt 1.202760 1.438382
vt 1.202760 -1.139997
vt 1.862982 -0.280537
vt 1.202760 2.297842
vt 1.862982 1.438382
vt -1.438131 0.578922
vt -0.777906 0.578922
vt -0.117686 0.578922
vt 0.542538 0.578922
vt 1.202760 0.578922
vt 1.862982 0.578922
vt -1.444949 0.416303
vt -1.444949 1.449931
vt -1.072899 1.449931
vt -1.444949 4.550816
vt -1.072899 3.517188
vt -1.444949 3.517188
vt -1.072899 0.416303
vt -0.700849 1.449931
vt -1.072899 4.550816
vt -0.700849 3.517188
vt -0.700849 0.416303
vt -0.328800 1.449931
vt -0.700849 4.550816
vt -0.328800 3.517188
vt -0.328800 0.416303
vt 0.043250 1.449931
vt -0.328800 4.550816
vt 0.043250 3.517188
vt 0.043250 0.416303
vt 0.415300 1.449931
vt 0.043250 4.550816
vt 0.415300 3.517188
vt -1.444949 2.483560
vt -1.072899 2.483560
vt -0.700849 2.483560
vt -0.328800 2.483560
vt 0.043250 2.483560
vt 0.415300 2.483560
vt 0.583489 0.726078
vt 0.583489 -0.033771
vt 1.285933 0.726078
vt 1.285933 -0.033771
# 212 texture coordinates

vn -0.023716 -0.998627 0.046701
vn 0.939579 -0.342331 0.001125
vn 0.577025 -0.259171 0.774515
vn 0.064354 0.996828 0.046832
vn 0.319559 0.930260 0.180276
vn 0.335992 0.888332 0.313009
vn -0.721774 0.125950 0.680573
vn 0.287202 0.924943 0.248988
vn -0.729086 0.276269 0.626186
vn 0.030830 0.818808 0.573240
vn 0.406036 0.570952 0.713546
vn -0.151905 0.873801 0.461948
vn 0.236219 0.058689 0.969926
vn -0.388295 0.826715 0.407148
vn -0.840759 -0.530667 0.107314
vn -0.387072 0.920079 0.060255
vn -0.877642 -0.267981 -0.397404
vn -0.412908 0.860694 -0.297847
vn -0.576983 -0.521469 -0.628618
vn -0.322249 0.876853 -0.356770
vn -0.196372 -0.251755 -0.947659
vn -0.081788 0.853135 -0.515239
vn 0.248612 -0.531728 -0.809603
vn 0.014308 0.873147 -0.487246
vn 0.788414 -0.255683 -0.559491
vn 0.216736 0.930210 -0.296201
vn 0.853635 -0.513021 -0.090094
vn 0.330887 0.893738 0.302895
vn 0.904081 0.416501 0.095732
vn 0.529114 0.325958 0.783447
vn -0.643753 0.040545 0.764159
vn -0.712884 -0.207286 0.669947
vn 0.487342 -0.279842 0.827155
vn 0.110798 0.167891 0.979559
vn -0.943037 0.293621 0.156420
vn -0.846986 0.389524 -0.361782
vn -0.597581 0.341142 -0.725616
vn -0.191907 0.422971 -0.885588
vn 0.233859 0.356914 -0.904391
vn 0.771232 0.357100 -0.526954
vn 0.938606 0.333807 -0.087133
vn 0.895087 0.444865 0.030242
vn 0.555639 0.467817 0.687323
vn -0.650805 -0.049434 0.757634
vn -0.569854 -0.703367 0.424900
vn 0.500669 -0.743941 0.442585
vn -0.347337 0.305954 0.886425
vn -0.930789 0.358557 0.071193
vn -0.813457 0.437344 -0.383429
vn -0.609361 0.418667 -0.673348
vn -0.198700 0.474071 -0.857774
vn 0.169892 0.382591 -0.908164
vn 0.709959 0.472578 -0.522137
vn 0.952360 0.302840 -0.036035
vn 0.658924 0.731532 0.175156
vn 0.424803 0.846106 0.321943
vn -0.016597 0.660595 0.750559
vn -0.122697 -0.408471 0.904487
vn -0.227660 0.123715 0.965850
vn -0.548604 0.637046 0.541484
vn -0.773443 0.627101 0.092358
vn -0.678175 0.632849 -0.373606
vn -0.492893 0.615753 -0.614739
vn -0.210567 0.591676 -0.778191
vn 0.144843 0.621494 -0.769913
vn 0.543334 0.692998 -0.473858
vn 0.730225 0.682511 0.030816
vn -0.527705 -0.841482 -0.115911
vn -0.393212 -0.145539 -0.907856
vn 0.753454 -0.346318 -0.558902
vn -0.269710 0.962936 0.003211
vn 0.714307 0.535663 -0.450367
vn -0.462472 0.444260 -0.767302
vn 0.424109 -0.491448 0.760665
vn 0.525710 0.444581 0.725242
vn -0.576060 -0.140847 0.805182
vn -0.533908 0.368614 0.760964
vn -0.930424 -0.216948 -0.295373
vn -0.890259 0.431672 -0.145252
vn -0.068153 0.150717 -0.986225
vn 0.852195 0.168594 -0.495318
vn 0.668728 0.102814 0.736364
vn -0.451711 0.200453 0.869354
vn -0.948395 0.221726 -0.226683
vn -0.360783 -0.910288 -0.203005
vn -0.958187 -0.161288 -0.236356
vn -0.007595 -0.170786 -0.985279
vn -0.061367 0.995330 0.074511
vn 0.020954 0.877576 -0.478980
vn -0.552424 0.833014 0.030248
vn 0.739933 -0.594228 -0.315267
vn 0.632931 0.773809 -0.024874
vn 0.338825 -0.351823 0.872593
vn 0.245299 0.776234 0.580766
vn -0.836391 -0.280574 0.470881
vn -0.373179 0.846546 0.379602
vn -0.806096 0.439748 -0.396020
vn 0.037616 0.513321 -0.857372
vn 0.953291 0.265483 -0.144069
vn 0.430527 0.477049 0.766205
vn -0.630371 0.500244 0.593623
vn 0.415562 -0.899034 0.138011
vn 0.217299 -0.456261 0.862906
vn -0.879035 -0.475068 0.040085
vn -0.023983 0.998859 0.041287
vn -0.598741 0.800600 -0.023434
vn -0.057476 0.859158 0.508473
vn 0.285627 -0.838237 -0.464516
vn -0.161280 0.806948 -0.568175
vn 0.924515 -0.264612 -0.274322
vn 0.576396 0.776235 -0.255398
vn 0.666909 -0.571276 0.478410
vn 0.386057 0.846546 0.366497
vn -0.482682 0.429195 0.763420
vn -0.878478 0.477497 -0.016551
vn -0.240699 0.314638 -0.918187
vn 0.710155 0.557878 -0.429479
vn 0.564596 0.518929 0.641829
vn -0.342873 -0.938822 0.032413
vn -0.916220 -0.166204 -0.364577
vn 0.114408 -0.050067 -0.992171
vn -0.167427 0.883763 0.436958
vn 0.096330 0.810120 -0.578296
vn -0.781591 0.615551 0.101058
vn 0.832247 -0.553824 0.025369
vn 0.670560 0.687575 0.278551
vn 0.200296 -0.393876 0.897075
vn 0.125151 0.201225 0.971517
vn -0.776779 -0.446519 0.444112
vn -0.570379 0.349845 0.743153
vn -0.713845 0.354936 -0.603693
vn 0.183733 0.449016 -0.874430
vn 0.978425 0.205954 0.016338
vn 0.308267 -0.041308 0.950403
vn -0.745944 0.028835 0.665384
vn -0.291631 -0.210212 0.933146
vn 0.000000 -1.000000 0.000000
vn 0.660846 -0.257830 0.704844
vn 0.291631 -0.210212 -0.933146
vn -0.660846 -0.257830 -0.704845
vn 0.000000 1.000000 0.000000
vn -0.635787 -0.124680 -0.761728
vn -0.954527 -0.147934 0.258830
vn 0.635787 -0.124680 0.761728
vn 0.954528 -0.147934 -0.258830
vn -0.362774 -0.813814 -0.453985
vn 0.241774 -0.948912 0.202758
vn -0.555727 -0.753682 0.350901
vn 0.649266 -0.310609 0.694245
vn 0.870984 -0.483632 -0.086521
vn -0.241775 0.948912 -0.202757
# 151 normals

g Sphere02
usemtl Material01
s 1
f 2/1/1 3/2/2 4/3/3
f 1/4/4 56/5/5 55/6/6
f 2/7/1 4/3/3 5/8/7
f 1/9/4 57/10/8 56/5/5
f 2/11/1 5/8/7 6/12/9
f 1/13/4 58/14/10 57/10/8
f 2/15/1 6/12/9 7/16/11
f 1/17/4 59/18/12 58/14/10
f 2/19/1 7/16/11 8/20/13
f 1/21/4 60/22/14 59/18/12
f 2/23/1 8/20/13 9/24/15
f 1/25/4 61/26/16 60/22/14
f 2/27/1 9/24/15 10/28/17
f 1/29/4 62/30/18 61/26/16
f 2/31/1 10/28/17 11/32/19
f 1/33/4 63/34/20 62/30/18
f 2/35/1 11/32/19 12/36/21
f 1/37/4 64/38/22 63/34/20
f 2/39/1 12/36/21 13/40/23
f 1/41/4 65/42/24 64/38/22
f 2/43/1 13/40/23 14/44/25
f 1/45/4 66/46/26 65/42/24
f 2/47/1 14/44/25 15/48/27
f 1/49/4 67/50/28 66/46/26
f 2/51/1 15/48/27 3/52/2
f 1/53/4 55/54/6 67/50/28
f 3/2/2 16/55/29 4/3/3
f 16/55/29 17/56/30 4/3/3
f 4/3/3 17/56/30 18/57/31
f 4/3/3 18/57/31 5/8/7
f 5/8/7 18/57/31 6/12/9
f 18/57/31 19/58/32 6/12/9
f 6/12/9 19/58/32 20/59/33
f 6/12/9 20/59/33 7/16/11
f 7/16/11 20/59/33 8/20/13
f 20/59/33 21/60/34 8/20/13
f 8/20/13 21/60/34 22/61/35
f 8/20/13 22/61/35 9/24/15
f 9/24/15 22/61/35 10/28/17
f 22/61/35 23/62/36 10/28/17
f 10/28/17 23/62/36 24/63/37
f 10/28/17 24/63/37 11/32/19
f 11/32/19 24/63/37 12/36/21
f 24/63/37 25/64/38 12/36/21
f 12/36/21 25/64/38 26/65/39
f 12/36/21 26/65/39 13/40/23
f 13/40/23 26/65/39 14/44/25
f 26/65/39 27/66/40 14/44/25
f 14/44/25 27/66/40 28/67/41
f 14/44/25 28/67/41 15/48/27
f 15/48/27 28/67/41 3/52/2
f 28/67/41 16/68/29 3/52/2
f 16/55/29 29/69/42 30/70/43
f 16/55/29 30/70/43 17/56/30
f 17/56/30 30/70/43 18/57/31
f 30/70/43 31/71/44 18/57/31
f 18/57/31 31/71/44 32/72/45
f 18/57/31 32/72/45 19/58/32
f 19/58/32 32/72/45 20/59/33
f 32/72/45 33/73/46 20/59/33
f 20/59/33 33/73/46 34/74/47
f 20/59/33 34/74/47 21/60/34
f 21/60/34 34/74/47 22/61/35
f 34/74/47 35/75/48 22/61/35
f 22/61/35 35/75/48 36/76/49
f 22/61/35 36/76/49 23/62/36
f 23/62/36 36/76/49 24/63/37
f 36/76/49 37/77/50 24/63/37
f 24/63/37 37/77/50 38/78/51
f 24/63/37 38/78/51 25/64/38
f 25/64/38 38/78/51 26/65/39
f 38/78/51 39/79/52 26/65/39
f 26/65/39 39/79/52 40/80/53
f 26/65/39 40/80/53 27/66/40
f 27/66/40 40/80/53 28/67/41
f 40/80/53 41/81/54 28/67/41
f 28/67/41 41/81/54 29/82/42
f 28/67/41 29/82/42 16/68/29
f 29/69/42 42/83/55 30/70/43
f 42/83/55 43/84/56 30/70/43
f 30/70/43 43/84/56 44/85/57
f 30/70/43 44/85/57 31/71/44
f 31/71/44 44/85/57 32/72/45
f 44/85/57 45/86/58 32/72/45
f 32/72/45 45/86/58 46/87/59
f 32/72/45 46/87/59 33/73/46
f 33/73/46 46/87/59 34/74/47
f 46/87/59 47/88/60 34/74/47
f 34/74/47 47/88/60 48/89/61
f 34/74/47 48/89/61 35/75/48
f 35/75/48 48/89/61 36/76/49
f 48/89/61 49/90/62 36/76/49
f 36/76/49 49/90/62 50/91/63
f 36/76/49 50/91/63 37/77/50
f 37/77/50 50/91/63 38/78/51
f 50/91/63 51/92/64 38/78/51
f 38/78/51 51/92/64 52/93/65
f 38/78/51 52/93/65 39/79/52
f 39/79/52 52/93/65 40/80/53
f 52/93/65 53/94/66 40/80/53
f 40/80/53 53/94/66 54/95/67
f 40/80/53 54/95/67 41/81/54
f 41/81/54 54/95/67 29/82/42
f 54/95/67 42/96/55 29/82/42
f 42/83/55 55/6/6 56/5/5
f 42/83/55 56/5/5 43/84/56
f 43/84/56 56/5/5 44/85/57
f 56/5/5 57/10/8 44/85/57
f 44/85/57 57/10/8 58/14/10
f 44/85/57 58/14/10 45/86/58
f 45/86/58 58/14/10 46/87/59
f 58/14/10 59/18/12 46/87/59
f 46/87/59 59/18/12 60/22/14
f 46/87/59 60/22/14 47/88/60
f 47/88/60 60/22/14 48/89/61
f 60/22/14 61/26/16 48/89/61
f 48/89/61 61/26/16 62/30/18
f 48/89/61 62/30/18 49/90/62
f 49/90/62 62/30/18 50/91/63
f 62/30/18 63/34/20 50/91/63
f 50/91/63 63/34/20 64/38/22
f 50/91/63 64/38/22 51/92/64
f 51/92/64 64/38/22 52/93/65
f 64/38/22 65/42/24 52/93/65
f 52/93/65 65/42/24 66/46/26
f 52/93/65 66/46/26 53/94/66
f 53/94/66 66/46/26 54/95/67
f 66/46/26 67/50/28 54/95/67
f 54/95/67 67/50/28 55/54/6
f 54/95/67 55/54/6 42/96/55
# 130 triangles in group

g Sphere04
usemtl Material01
f 69/97/68 70/98/69 71/99/70
f 68/100/71 81/101/72 80/102/73
f 69/103/68 71/99/70 72/104/74
f 68/105/71 82/106/75 81/101/72
f 69/107/68 72/104/74 73/108/76
f 68/109/71 83/110/77 82/106/75
f 69/111/68 73/108/76 74/112/78
f 68/113/71 84/114/79 83/110/77
f 69/115/68 74/112/78 70/116/69
f 68/117/71 80/118/73 84/114/79
f 70/98/69 75/119/80 71/99/70
f 75/119/80 76/120/81 71/99/70
f 71/99/70 76/120/81 77/121/82
f 71/99/70 77/121/82 72/104/74
f 72/104/74 77/121/82 73/108/76
f 77/121/82 78/122/83 73/108/76
f 73/108/76 78/122/83 79/123/84
f 73/108/76 79/123/84 74/112/78
f 74/112/78 79/123/84 70/116/69
f 79/123/84 75/124/80 70/116/69
f 75/119/80 80/102/73 81/101/72
f 75/119/80 81/101/72 76/120/81
f 76/120/81 81/101/72 77/121/82
f 81/101/72 82/106/75 77/121/82
f 77/121/82 82/106/75 83/110/77
f 77/121/82 83/110/77 78/122/83
f 78/122/83 83/110/77 79/123/84
f 83/110/77 84/114/79 79/123/84
f 79/123/84 84/114/79 80/118/73
f 79/123/84 80/118/73 75/124/80
# 30 triangles in group

g Duplicate01
usemtl Material01
f 86/125/85 87/126/86 88/127/87
f 85/128/88 98/129/89 97/130/90
f 86/131/85 88/127/87 89/132/91
f 85/133/88 99/134/92 98/129/89
f 86/135/85 89/132/91 90/136/93
f 85/137/88 100/138/94 99/134/92
f 86/139/85 90/136/93 91/140/95
f 85/141/88 101/142/96 100/138/94
f 86/143/85 91/140/95 87/144/86
f 85/145/88 97/146/90 101/142/96
f 87/126/86 92/147/97 88/127/87
f 92/147/97 93/148/98 88/127/87
f 88/127/87 93/148/98 94/149/99
f 88/127/87 94/149/99 89/132/91
f 89/132/91 94/149/99 90/136/93
f 94/149/99 95/150/100 90/136/93
f 90/136/93 95/150/100 96/151/101
f 90/136/93 96/151/101 91/140/95
f 91/140/95 96/151/101 87/144/86
f 96/151/101 92/152/97 87/144/86
f 92/147/97 97/130/90 98/129/89
f 92/147/97 98/129/89 93/148/98
f 93/148/98 98/129/89 94/149/99
f 98/129/89 99/134/92 94/149/99
f 94/149/99 99/134/92 100/138/94
f 94/149/99 100/138/94 95/150/100
f 95/150/100 100/138/94 96/151/101
f 100/138/94 101/142/96 96/151/101
f 96/151/101 101/142/96 97/146/90
f 96/151/101 97/146/90 92/152/97
# 30 triangles in group

g Duplicate02
usemtl Material01
f 103/153/102 104/154/103 105/155/104
f 102/156/105 115/157/106 114/158/107
f 103/159/102 105/155/104 106/160/108
f 102/161/105 116/162/109 115/157/106
f 103/163/102 106/160/108 107/164/110
f 102/165/105 117/166/111 116/162/109
f 103/167/102 107/164/110 108/168/112
f 102/169/105 118/170/113 117/166/111
f 103/171/102 108/168/112 104/172/103
f 102/173/105 114/174/107 118/170/113
f 104/154/103 109/175/114 105/155/104
f 109/175/114 110/176/115 105/155/104
f 105/155/104 110/176/115 111/177/116
f 105/155/104 111/177/116 106/160/108
f 106/160/108 111/177/116 107/164/110
f 111/177/116 112/178/117 107/164/110
f 107/164/110 112/178/117 113/179/118
f 107/164/110 113/179/118 108/168/112
f 108/168/112 113/179/118 104/172/103
f 113/179/118 109/180/114 104/172/103
f 109/175/114 114/158/107 115/157/106
f 109/175/114 115/157/106 110/176/115
f 110/176/115 115/157/106 111/177/116
f 115/157/106 116/162/109 111/177/116
f 111/177/116 116/162/109 117/166/111
f 111/177/116 117/166/111 112/178/117
f 112/178/117 117/166/111 113/179/118
f 117/166/111 118/170/113 113/179/118
f 113/179/118 118/170/113 114/174/107
f 113/179/118 114/174/107 109/180/114
# 30 triangles in group

g Duplicate03
usemtl Material01
f 120/181/119 121/182/120 122/183/121
f 119/184/122 132/185/123 131/186/124
f 120/187/119 122/183/121 123/188/125
f 119/189/122 133/190/126 132/185/123
f 120/191/119 123/188/125 124/192/127
f 119/193/122 134/194/128 133/190/126
f 120/195/119 124/192/127 125/196/129
f 119/197/122 135/198/130 134/194/128
f 120/199/119 125/196/129 121/200/120
f 119/201/122 131/202/124 135/198/130
f 121/182/120 126/203/131 122/183/121
f 126/203/131 127/204/132 122/183/121
f 122/183/121 127/204/132 128/205/133
f 122/183/121 128/205/133 123/188/125
f 123/188/125 128/205/133 124/192/127
f 128/205/133 129/206/134 124/192/127
f 124/192/127 129/206/134 130/207/135
f 124/192/127 130/207/135 125/196/129
f 125/196/129 130/207/135 121/200/120
f 130/207/135 126/208/131 121/200/120
f 126/203/131 131/186/124 132/185/123
f 126/203/131 132/185/123 127/204/132
f 127/204/132 132/185/123 128/205/133
f 132/185/123 133/190/126 128/205/133
f 128/205/133 133/190/126 134/194/128
f 128/205/133 134/194/128 129/206/134
f 129/206/134 134/194/128 130/207/135
f 134/194/128 135/198/130 130/207/135
f 130/207/135 135/198/130 131/202/124
f 130/207/135 131/202/124 126/208/131
# 30 triangles in group

g Box01
usemtl Material01
f 136/209/136 137/210/137 138/211/136
s 2
f 138/209/138 137/210/137 139/211/138
s 1
f 139/209/139 137/210/137 140/211/139
s 2
f 140/209/140 137/210/137 136/211/140
s 3
f 140/209/141 136/210/141 139/211/141
f 136/210/141 138/212/141 139/211/141
# 6 triangles in group

g Duplicate04
usemtl Material01
s 1
f 141/209/142 142/210/137 143/211/142
s 2
f 143/209/143 142/210/137 144/211/143
s 1
f 144/209/144 142/210/137 145/211/144
s 2
f 145/209/145 142/210/137 141/211/145
s 3
f 145/209/141 141/210/141 144/211/141
f 141/210/141 143/212/141 144/211/141
# 6 triangles in group

g Duplicate05
usemtl Material01
s 1
f 146/209/146 147/210/147 148/211/146
s 2
f 148/209/148 147/210/147 149/211/148
s 1
f 149/209/149 147/210/147 150/211/149
s 2
f 150/209/150 147/210/147 146/211/150
s 3
f 150/209/151 146/210/151 149/211/151
f 146/210/151 148/212/151 149/211/151
# 6 triangles in group

# 268 triangles total

