# Wavefront OBJ exported by MilkShape 3D

mtllib claw.mtl

v 4.713126 3.097401 7.840241
v 2.843228 0.525283 10.510264
v 4.345346 -2.559299 8.171395
v 6.215242 0.012818 5.501370
v 4.713126 3.097401 7.840241
v 0.330627 2.231506 2.551485
v 2.843228 0.525283 10.510264
v -1.423949 0.347497 3.807069
v -0.490681 1.491601 -3.940835
v -1.853750 0.326056 -4.338157
v 2.731739 0.058423 -12.247324
v -0.008407 -1.866952 2.668224
v 4.345346 -2.559299 8.171395
v -0.712699 -1.065120 -3.968096
v 2.731739 0.058423 -12.247324
v 6.215242 0.012818 5.501370
v 1.746158 0.017057 1.412642
v 0.650374 0.100424 -3.570778
v 0.330627 2.231506 2.551485
v 4.713126 3.097401 7.840241
v -0.490681 1.491601 -3.940835
v 2.731739 0.058423 -12.247324
# 22 vertices

vt -0.062500 1.062500
vt -0.062500 0.062500
vt -0.062500 0.395833
vt 0.187500 0.062500
vt 0.187500 0.395833
vt -0.062500 0.729167
vt 0.187500 0.729167
vt 0.437500 0.395833
vt 0.437500 0.062500
vt 0.437500 0.729167
vt 0.437500 1.062500
vt 0.687500 0.062500
vt 0.687500 0.395833
vt 0.687500 0.729167
vt 0.937500 0.395833
vt 0.937500 0.062500
vt 0.937500 0.729167
vt 0.937500 1.062500
# 18 texture coordinates

vn 0.828353 -0.021084 0.559809
vn -0.558295 0.757389 0.338626
vn -0.632869 0.752976 0.180288
vn -0.840747 0.083796 0.534904
vn -0.952024 0.089300 0.292706
vn -0.609200 0.772918 -0.177408
vn -0.984983 0.089532 -0.147623
vn -0.550028 0.760722 -0.344631
vn -0.121874 -0.990517 -0.063424
vn -0.141929 -0.989801 -0.012241
vn -0.056558 -0.989776 -0.130940
vn -0.036821 -0.988090 -0.149409
vn 0.683722 -0.083025 -0.725004
vn 0.865047 -0.090280 -0.493501
vn 0.993070 -0.090215 -0.075318
vn 0.674120 0.638378 -0.371532
vn 0.520079 0.662253 -0.539387
vn 0.772746 0.634706 0.003359
vn 0.738215 0.651757 0.173931
# 19 normals

g Cylinder04
usemtl wood
s 2
f 1/1/1 2/1/1 3/1/1
f 1/1/1 3/1/1 4/1/1
s 1
f 5/2/2 6/3/3 7/4/4
f 6/3/3 8/5/5 7/4/4
f 6/3/3 9/6/6 10/7/7
f 6/3/3 10/7/7 8/5/5
f 9/6/6 11/1/8 10/7/7
f 7/4/4 8/5/5 12/8/9
f 7/4/4 12/8/9 13/9/10
f 8/5/5 10/7/7 12/8/9
f 10/7/7 14/10/11 12/8/9
f 10/7/7 15/11/12 14/10/11
f 13/9/10 12/8/9 16/12/13
f 12/8/9 17/13/14 16/12/13
f 12/8/9 14/10/11 18/14/15
f 12/8/9 18/14/15 17/13/14
f 14/10/11 15/11/12 18/14/15
f 16/12/13 17/13/14 19/15/16
f 16/12/13 19/15/16 20/16/17
f 17/13/14 18/14/15 19/15/16
f 18/14/15 21/17/18 19/15/16
f 18/14/15 22/18/19 21/17/18
# 22 triangles in group

# 22 triangles total

