# Wavefront OBJ exported by MilkShape 3D

mtllib coconut.mtl

v 0.000000 5.171761 7.340135
v 0.000000 4.828239 -12.340141
v 5.533386 4.861042 -10.460841
v 3.450010 0.774001 -10.389503
v -1.231294 -0.235413 -10.371881
v -4.985408 2.592906 -10.421253
v -4.985408 7.129179 -10.500432
v -1.231294 9.957500 -10.549800
v 3.450010 8.948083 -10.532179
v 8.953208 4.946923 -5.540770
v 5.582233 -1.666048 -5.425340
v -1.992276 -3.299315 -5.396832
v -8.066562 1.277001 -5.476711
v -8.066562 8.616844 -5.604830
v -1.992276 13.193160 -5.684710
v 5.582233 11.559895 -5.656201
v 8.953208 5.053077 0.540770
v 5.582233 -1.559896 0.656202
v -1.992276 -3.193160 0.684711
v -8.066562 1.383155 0.604831
v -8.066562 8.722998 0.476711
v -1.992276 13.299315 0.396833
v 5.582233 11.666048 0.425343
v 5.533386 5.138957 5.460840
v 3.450010 1.051918 5.532180
v -1.231294 0.042501 5.549799
v -4.985408 2.870820 5.500432
v -4.985408 7.407094 5.421252
v -1.231294 10.235413 5.371883
v 3.450010 9.225998 5.389502
# 30 vertices

vt -1.296042 0.106048
vt -1.296042 0.492576
vt -1.100502 0.492576
vt -1.296042 2.038661
vt -1.100502 1.652143
vt -1.296042 1.652143
vt -1.100502 0.106048
vt -0.904964 0.492576
vt -1.100502 2.038661
vt -0.904964 1.652143
vt -0.904964 0.106048
vt -0.709424 0.492576
vt -0.904964 2.038661
vt -0.709424 1.652143
vt -0.709424 0.106048
vt -0.513887 0.492576
vt -0.709424 2.038661
vt -0.513887 1.652143
vt -0.513887 0.106048
vt -0.318349 0.492576
vt -0.513887 2.038661
vt -0.318349 1.652143
vt -0.318349 0.106048
vt -0.122817 0.492576
vt -0.318349 2.038661
vt -0.122817 1.652143
vt -0.122817 0.106048
vt 0.072729 0.492576
vt -0.122817 2.038661
vt 0.072729 1.652143
vt -1.296042 0.879093
vt -1.100502 0.879093
vt -0.904964 0.879093
vt -0.709424 0.879093
vt -0.513887 0.879093
vt -0.318349 0.879093
vt -0.122817 0.879093
vt 0.072729 0.879093
vt -1.296042 1.265619
vt -1.100502 1.265619
vt -0.904964 1.265619
vt -0.709424 1.265619
vt -0.513887 1.265619
vt -0.318349 1.265619
vt -0.122817 1.265619
vt 0.072729 1.265619
# 46 texture coordinates

vn 0.000000 -0.017452 -0.999848
vn 0.642257 0.071983 -0.763102
vn 0.418302 -0.560397 -0.714828
vn 0.000000 0.017452 0.999848
vn 0.366473 -0.466729 0.804899
vn 0.642256 -0.071982 0.763102
vn -0.130163 -0.610425 -0.781306
vn -0.148402 -0.666628 0.730469
vn -0.608843 -0.318839 -0.726397
vn -0.532643 -0.254182 0.807269
vn -0.532643 0.254182 -0.807269
vn -0.608843 0.318839 0.726397
vn -0.148402 0.666628 -0.730468
vn -0.130163 0.610424 0.781307
vn 0.366473 0.466729 -0.804898
vn 0.418302 0.560397 0.714828
vn 0.940367 -0.164977 -0.297476
vn 0.581698 -0.762869 -0.282236
vn -0.205194 -0.939424 -0.274552
vn -0.852815 -0.431599 -0.293988
vn -0.852815 0.421076 -0.308871
vn -0.205194 0.929270 -0.307170
vn 0.581698 0.752555 -0.308688
vn 0.940367 0.164977 0.297476
vn 0.581698 -0.752555 0.308688
vn -0.205194 -0.929269 0.307171
vn -0.852815 -0.421076 0.308871
vn -0.852815 0.431599 0.293988
vn -0.205194 0.939424 0.274552
vn 0.581698 0.762869 0.282236
# 30 normals

g Sphere02
usemtl Material02
s 1
f 2/1/1 3/2/2 4/3/3
f 1/4/4 25/5/5 24/6/6
f 2/7/1 4/3/3 5/8/7
f 1/9/4 26/10/8 25/5/5
f 2/11/1 5/8/7 6/12/9
f 1/13/4 27/14/10 26/10/8
f 2/15/1 6/12/9 7/16/11
f 1/17/4 28/18/12 27/14/10
f 2/19/1 7/16/11 8/20/13
f 1/21/4 29/22/14 28/18/12
f 2/23/1 8/20/13 9/24/15
f 1/25/4 30/26/16 29/22/14
f 2/27/1 9/24/15 3/28/2
f 1/29/4 24/30/6 30/26/16
f 3/2/2 10/31/17 4/3/3
f 10/31/17 11/32/18 4/3/3
f 4/3/3 11/32/18 12/33/19
f 4/3/3 12/33/19 5/8/7
f 5/8/7 12/33/19 6/12/9
f 12/33/19 13/34/20 6/12/9
f 6/12/9 13/34/20 14/35/21
f 6/12/9 14/35/21 7/16/11
f 7/16/11 14/35/21 8/20/13
f 14/35/21 15/36/22 8/20/13
f 8/20/13 15/36/22 16/37/23
f 8/20/13 16/37/23 9/24/15
f 9/24/15 16/37/23 3/28/2
f 16/37/23 10/38/17 3/28/2
f 10/31/17 17/39/24 18/40/25
f 10/31/17 18/40/25 11/32/18
f 11/32/18 18/40/25 12/33/19
f 18/40/25 19/41/26 12/33/19
f 12/33/19 19/41/26 20/42/27
f 12/33/19 20/42/27 13/34/20
f 13/34/20 20/42/27 14/35/21
f 20/42/27 21/43/28 14/35/21
f 14/35/21 21/43/28 22/44/29
f 14/35/21 22/44/29 15/36/22
f 15/36/22 22/44/29 16/37/23
f 22/44/29 23/45/30 16/37/23
f 16/37/23 23/45/30 17/46/24
f 16/37/23 17/46/24 10/38/17
f 17/39/24 24/6/6 18/40/25
f 24/6/6 25/5/5 18/40/25
f 18/40/25 25/5/5 26/10/8
f 18/40/25 26/10/8 19/41/26
f 19/41/26 26/10/8 20/42/27
f 26/10/8 27/14/10 20/42/27
f 20/42/27 27/14/10 28/18/12
f 20/42/27 28/18/12 21/43/28
f 21/43/28 28/18/12 22/44/29
f 28/18/12 29/22/14 22/44/29
f 22/44/29 29/22/14 30/26/16
f 22/44/29 30/26/16 23/45/30
f 23/45/30 30/26/16 17/46/24
f 30/26/16 24/30/6 17/46/24
# 56 triangles in group

# 56 triangles total

