# Wavefront OBJ exported by MilkShape 3D

mtllib coffeetree.mtl

v 3.450377 -10.500000 -0.805496
v 1.093635 7.307798 -0.583760
v 1.759310 15.960632 -1.470703
v 0.011934 24.795134 -0.472893
v 1.165313 33.142056 -1.470703
v -0.121630 40.000000 -0.694628
v 2.105480 -10.500000 2.153867
v 0.517637 8.436972 0.577558
v 1.297993 15.110648 -0.421517
v -0.407791 25.544142 0.284290
v 0.918609 32.553146 -0.836273
v -0.916476 -10.500000 2.884772
v -0.905468 9.086493 0.864381
v 0.133398 14.440902 -0.162391
v -1.434916 25.996349 0.471298
v 0.254311 32.074814 -0.679578
v -3.339897 -10.500000 0.836827
v -2.104054 8.767260 0.060722
v -0.857512 14.455728 -0.888449
v -2.295994 25.811245 -0.052685
v -0.327351 32.067268 -1.118621
v -3.339897 -10.500000 -2.447819
v -2.175561 7.719656 -1.228243
v -0.928560 15.143953 -2.052956
v -2.342618 25.128204 -0.893098
v -0.388374 32.536179 -1.822784
v -0.916476 -10.500000 -4.495762
v -1.066142 6.732557 -2.031900
v -0.026248 15.987343 -2.779013
v -1.539676 24.461580 -1.417086
v 0.117194 33.128452 -2.261826
v 2.105480 -10.500000 -3.764859
v 0.388786 6.549260 -1.745078
v 1.169967 16.350796 -2.519886
v -0.491802 24.313349 -1.230078
v 0.808649 33.398098 -2.105134
v -0.121630 -10.500000 -0.805496
v -0.000000 43.973766 -0.585658
v 13.505942 30.094427 -0.755426
v 0.000000 30.094427 11.845469
v -13.505942 30.094427 -0.755426
v -0.000000 30.094427 -13.356325
v 7.762332 38.718796 -0.585658
v 0.000000 38.718796 5.776684
v -7.762332 38.718796 -0.585658
v -0.000000 38.718796 -6.947998
v -0.135755 9.723766 -1.084417
v 9.018783 -4.155573 16.425905
v -22.502029 -4.155573 11.551213
v -8.679394 -4.155573 -18.939863
v 22.841425 -4.155573 -14.065176
v 4.950120 4.468796 9.078545
v -11.582980 4.468796 5.382593
v -5.221634 4.468796 -11.247382
v 11.311463 4.468796 -7.551423
v 0.731200 17.223766 -0.550703
v 15.324528 3.344427 1.344649
v -2.366048 3.344427 17.639389
v -13.777527 3.344427 -2.942889
v 3.913046 3.344427 -19.237637
v 9.094179 11.968796 0.681395
v -0.853993 11.968796 8.759119
v -7.631782 11.968796 -1.782799
v 2.316395 11.968796 -9.860522
v 0.807065 24.723766 -0.589709
v 10.349279 10.844427 -9.214098
v 10.208761 10.844427 11.173967
v -8.991939 10.844427 7.713369
v -8.851429 10.844427 -12.674700
v 6.365099 19.468796 -5.454110
v 5.618923 19.468796 5.431027
v -4.750967 19.468796 4.274694
v -4.004791 19.468796 -6.610444
v -0.076526 30.973768 0.382899
v 5.083942 17.094429 10.430820
v -12.684538 17.094429 7.633586
v -4.892628 17.094429 -9.863067
v 12.875852 17.094429 -7.065833
v 2.790413 25.718798 6.214695
v -6.529397 25.718798 4.093854
v -2.943468 25.718798 -5.448899
v 6.376343 25.718798 -3.328054
v -0.088545 36.398521 -1.222605
v -5.882551 24.274061 9.716634
v -14.676465 24.274061 -11.354019
v 6.103912 24.274061 -11.885121
v 14.897822 24.274061 9.185529
v -3.533060 31.807980 4.985031
v -7.554750 31.807980 -6.407935
v 3.355971 31.807980 -7.430243
v 7.377656 31.807980 3.962725
# 91 vertices

vt -0.984863 1.560604
vt -0.984863 -0.560604
vt -0.984863 -0.136362
vt -0.770825 -0.560604
vt -0.770825 -0.136362
vt -0.984863 0.287879
vt -0.770825 0.287879
vt -0.984863 0.712121
vt -0.770825 0.712121
vt -0.984863 1.136362
vt -0.770825 1.136362
vt -0.556786 -0.136362
vt -0.556786 -0.560604
vt -0.556786 0.287879
vt -0.556786 0.712121
vt -0.556786 1.136362
vt -0.556786 1.560604
vt -0.342747 -0.560604
vt -0.342747 -0.136362
vt -0.342747 0.287879
vt -0.342747 0.712121
vt -0.342747 1.136362
vt -0.128709 -0.136362
vt -0.128709 -0.560604
vt -0.128709 0.287879
vt -0.128709 0.712121
vt -0.128709 1.136362
vt -0.128709 1.560604
vt 0.085330 -0.560604
vt 0.085330 -0.136362
vt 0.085330 0.287879
vt 0.085330 0.712121
vt 0.085330 1.136362
vt 0.299369 -0.136362
vt 0.299369 -0.560604
vt 0.299369 0.287879
vt 0.299369 0.712121
vt 0.299369 1.136362
vt 0.299369 1.560604
vt 0.513407 -0.560604
vt 0.513407 -0.136362
vt 0.513407 0.287879
vt 0.513407 0.712121
vt 0.513407 1.136362
vt 0.485278 0.517429
vt 0.338316 0.351589
vt 0.656541 0.352754
vt 0.340547 0.685824
vt 0.669385 0.690710
vt 0.979012 -0.002812
vt 0.009412 -0.003035
vt 0.016379 0.989481
vt 1.009415 0.997516
# 53 texture coordinates

vn 0.000000 -1.000000 0.000000
vn 0.987360 0.000000 -0.158496
vn 0.987360 0.000000 0.158496
vn 0.623490 0.000000 0.781831
vn -0.222521 0.000000 0.974928
vn -0.900969 0.000000 0.433884
vn -0.900969 0.000000 -0.433884
vn -0.222521 0.000000 -0.974928
vn 0.623490 0.000000 -0.781832
vn 0.000000 1.000000 0.000000
vn 0.000000 0.707107 0.707107
vn 0.707107 0.707107 0.000000
vn -0.707107 0.707107 0.000000
vn -0.000000 0.707107 -0.707107
vn 1.000000 0.000000 0.000000
vn 0.000000 0.000000 1.000000
vn -1.000000 0.000000 0.000000
vn -0.000000 0.000000 -1.000000
# 18 normals

g Cylinder02
usemtl wood
s 2
f 1/1/1 7/1/1 37/1/1
s 1
f 1/2/2 2/3/3 7/4/4
f 2/3/3 8/5/4 7/4/4
f 2/3/3 3/6/2 9/7/4
f 2/3/3 9/7/4 8/5/4
f 3/6/2 4/8/3 9/7/4
f 4/8/3 10/9/4 9/7/4
f 4/8/3 5/10/2 11/11/4
f 4/8/3 11/11/4 10/9/4
f 5/10/2 6/1/3 11/11/4
s 2
f 7/1/1 12/1/1 37/1/1
s 1
f 7/4/4 8/5/4 13/12/5
f 7/4/4 13/12/5 12/13/5
f 8/5/4 9/7/4 13/12/5
f 9/7/4 14/14/5 13/12/5
f 9/7/4 10/9/4 15/15/5
f 9/7/4 15/15/5 14/14/5
f 10/9/4 11/11/4 15/15/5
f 11/11/4 16/16/5 15/15/5
f 11/11/4 6/17/5 16/16/5
s 2
f 12/1/1 17/1/1 37/1/1
s 1
f 12/13/5 13/12/5 17/18/6
f 13/12/5 18/19/6 17/18/6
f 13/12/5 14/14/5 19/20/6
f 13/12/5 19/20/6 18/19/6
f 14/14/5 15/15/5 19/20/6
f 15/15/5 20/21/6 19/20/6
f 15/15/5 16/16/5 21/22/6
f 15/15/5 21/22/6 20/21/6
f 16/16/5 6/17/5 21/22/6
s 2
f 17/1/1 22/1/1 37/1/1
s 1
f 17/18/6 18/19/6 23/23/7
f 17/18/6 23/23/7 22/24/7
f 18/19/6 19/20/6 23/23/7
f 19/20/6 24/25/7 23/23/7
f 19/20/6 20/21/6 25/26/7
f 19/20/6 25/26/7 24/25/7
f 20/21/6 21/22/6 25/26/7
f 21/22/6 26/27/7 25/26/7
f 21/22/6 6/28/7 26/27/7
s 2
f 22/1/1 27/1/1 37/1/1
s 1
f 22/24/7 23/23/7 27/29/8
f 23/23/7 28/30/8 27/29/8
f 23/23/7 24/25/7 29/31/8
f 23/23/7 29/31/8 28/30/8
f 24/25/7 25/26/7 29/31/8
f 25/26/7 30/32/8 29/31/8
f 25/26/7 26/27/7 31/33/8
f 25/26/7 31/33/8 30/32/8
f 26/27/7 6/28/7 31/33/8
s 2
f 27/1/1 32/1/1 37/1/1
s 1
f 27/29/8 28/30/8 33/34/9
f 27/29/8 33/34/9 32/35/9
f 28/30/8 29/31/8 33/34/9
f 29/31/8 34/36/9 33/34/9
f 29/31/8 30/32/8 35/37/9
f 29/31/8 35/37/9 34/36/9
f 30/32/8 31/33/8 35/37/9
f 31/33/8 36/38/9 35/37/9
f 31/33/8 6/39/9 36/38/9
s 2
f 32/1/1 1/1/1 37/1/1
s 1
f 32/35/9 33/34/9 1/40/2
f 33/34/9 2/41/3 1/40/2
f 33/34/9 34/36/9 3/42/2
f 33/34/9 3/42/2 2/41/3
f 34/36/9 35/37/9 3/42/2
f 35/37/9 4/43/3 3/42/2
f 35/37/9 36/38/9 5/44/2
f 35/37/9 5/44/2 4/43/3
f 36/38/9 6/39/9 5/44/2
# 70 triangles in group

g Sphere02
usemtl Material03
f 38/45/10 44/46/11 43/47/12
f 38/45/10 45/48/13 44/46/11
f 38/45/10 46/49/14 45/48/13
f 38/45/10 43/47/12 46/49/14
f 39/50/15 43/47/12 40/51/16
f 43/47/12 44/46/11 40/51/16
f 40/51/16 44/46/11 45/48/13
f 40/51/16 45/48/13 41/52/17
f 41/52/17 45/48/13 42/53/18
f 45/48/13 46/49/14 42/53/18
f 42/53/18 46/49/14 43/47/12
f 42/53/18 43/47/12 39/50/15
# 12 triangles in group

g Duplicate01
usemtl Material03
f 47/45/10 53/46/11 52/47/12
f 47/45/10 54/48/13 53/46/11
f 47/45/10 55/49/14 54/48/13
f 47/45/10 52/47/12 55/49/14
f 48/50/15 52/47/12 49/51/16
f 52/47/12 53/46/11 49/51/16
f 49/51/16 53/46/11 54/48/13
f 49/51/16 54/48/13 50/52/17
f 50/52/17 54/48/13 51/53/18
f 54/48/13 55/49/14 51/53/18
f 51/53/18 55/49/14 52/47/12
f 51/53/18 52/47/12 48/50/15
# 12 triangles in group

g Duplicate02
usemtl Material03
f 56/45/10 62/46/11 61/47/12
f 56/45/10 63/48/13 62/46/11
f 56/45/10 64/49/14 63/48/13
f 56/45/10 61/47/12 64/49/14
f 57/50/15 61/47/12 58/51/16
f 61/47/12 62/46/11 58/51/16
f 58/51/16 62/46/11 63/48/13
f 58/51/16 63/48/13 59/52/17
f 59/52/17 63/48/13 60/53/18
f 63/48/13 64/49/14 60/53/18
f 60/53/18 64/49/14 61/47/12
f 60/53/18 61/47/12 57/50/15
# 12 triangles in group

g Duplicate03
usemtl Material03
f 65/45/10 71/46/11 70/47/12
f 65/45/10 72/48/13 71/46/11
f 65/45/10 73/49/14 72/48/13
f 65/45/10 70/47/12 73/49/14
f 66/50/15 70/47/12 67/51/16
f 70/47/12 71/46/11 67/51/16
f 67/51/16 71/46/11 72/48/13
f 67/51/16 72/48/13 68/52/17
f 68/52/17 72/48/13 69/53/18
f 72/48/13 73/49/14 69/53/18
f 69/53/18 73/49/14 70/47/12
f 69/53/18 70/47/12 66/50/15
# 12 triangles in group

g Duplicate04
usemtl Material03
f 74/45/10 80/46/11 79/47/12
f 74/45/10 81/48/13 80/46/11
f 74/45/10 82/49/14 81/48/13
f 74/45/10 79/47/12 82/49/14
f 75/50/15 79/47/12 76/51/16
f 79/47/12 80/46/11 76/51/16
f 76/51/16 80/46/11 81/48/13
f 76/51/16 81/48/13 77/52/17
f 77/52/17 81/48/13 78/53/18
f 81/48/13 82/49/14 78/53/18
f 78/53/18 82/49/14 79/47/12
f 78/53/18 79/47/12 75/50/15
# 12 triangles in group

g Duplicate05
usemtl Material03
f 83/45/10 89/46/11 88/47/12
f 83/45/10 90/48/13 89/46/11
f 83/45/10 91/49/14 90/48/13
f 83/45/10 88/47/12 91/49/14
f 84/50/15 88/47/12 85/51/16
f 88/47/12 89/46/11 85/51/16
f 85/51/16 89/46/11 90/48/13
f 85/51/16 90/48/13 86/52/17
f 86/52/17 90/48/13 87/53/18
f 90/48/13 91/49/14 87/53/18
f 87/53/18 91/49/14 88/47/12
f 87/53/18 88/47/12 84/50/15
# 12 triangles in group

# 142 triangles total

