# Wavefront OBJ exported by MilkShape 3D

mtllib cookie.mtl

v -0.000000 3.603722 -0.250000
v -0.000000 -0.103720 -0.250000
v 4.639393 0.439221 -0.250000
v 3.280546 0.439221 3.033024
v 0.000000 0.439221 4.392898
v -3.280546 0.439221 3.033024
v -4.639393 0.439221 -0.250000
v -3.280546 0.439221 -3.533024
v -0.000000 0.439221 -4.892897
v 3.280546 0.439221 -3.533024
v 6.561092 1.750000 -0.250000
v 4.639393 1.750000 4.392898
v 0.000000 1.750000 6.316048
v -4.639393 1.750000 4.392898
v -6.561092 1.750000 -0.250000
v -4.639393 1.750000 -4.892897
v -0.000000 1.750000 -6.816048
v 4.639393 1.750000 -4.892897
v 4.639393 3.060779 -0.250000
v 3.280546 3.060779 3.033024
v 0.000000 3.060779 4.392898
v -3.280546 3.060779 3.033024
v -4.639393 3.060779 -0.250000
v -3.280546 3.060779 -3.533024
v -0.000000 3.060779 -4.892897
v 3.280546 3.060779 -3.533024
# 26 vertices

vt 0.492419 0.466506
vt 0.940282 0.466506
vt 0.809106 0.125129
vt 0.492419 -0.016274
vt 0.175733 0.125129
vt 0.044557 0.466506
vt 0.175733 0.807884
vt 0.492419 0.949288
vt 0.809106 0.807884
vt 1.125792 0.466506
vt 0.940282 -0.016274
vt 0.492419 -0.216249
vt 0.044557 -0.016274
vt -0.140954 0.466506
vt 0.044557 0.949288
vt 0.492419 1.149262
vt 0.940282 0.949288
# 17 texture coordinates

vn 0.000000 -1.000000 0.000000
vn 0.707107 -0.707107 0.000000
vn 0.500000 -0.707107 0.500000
vn 0.000000 1.000000 0.000000
vn 0.500000 0.707107 0.500000
vn 0.707107 0.707107 0.000000
vn 0.000000 -0.707107 0.707107
vn 0.000000 0.707107 0.707107
vn -0.500000 -0.707107 0.500000
vn -0.500000 0.707107 0.500000
vn -0.707107 -0.707107 0.000000
vn -0.707107 0.707107 0.000000
vn -0.500000 -0.707107 -0.500000
vn -0.500000 0.707107 -0.500000
vn -0.000000 -0.707107 -0.707107
vn -0.000000 0.707107 -0.707107
vn 0.500000 -0.707107 -0.500000
vn 0.500000 0.707107 -0.500000
vn 1.000000 0.000000 0.000000
vn 0.707107 0.000000 0.707107
vn 0.000000 0.000000 1.000000
vn -0.707107 0.000000 0.707107
vn -1.000000 0.000000 0.000000
vn -0.707107 0.000000 -0.707107
vn -0.000000 0.000000 -1.000000
vn 0.707107 0.000000 -0.707107
# 26 normals

g Sphere03
usemtl Material01
s 1
f 2/1/1 3/2/2 4/3/3
f 1/1/4 20/3/5 19/2/6
f 2/1/1 4/3/3 5/4/7
f 1/1/4 21/4/8 20/3/5
f 2/1/1 5/4/7 6/5/9
f 1/1/4 22/5/10 21/4/8
f 2/1/1 6/5/9 7/6/11
f 1/1/4 23/6/12 22/5/10
f 2/1/1 7/6/11 8/7/13
f 1/1/4 24/7/14 23/6/12
f 2/1/1 8/7/13 9/8/15
f 1/1/4 25/8/16 24/7/14
f 2/1/1 9/8/15 10/9/17
f 1/1/4 26/9/18 25/8/16
f 2/1/1 10/9/17 3/2/2
f 1/1/4 19/2/6 26/9/18
f 3/2/2 11/10/19 12/11/20
f 3/2/2 12/11/20 4/3/3
f 4/3/3 12/11/20 5/4/7
f 12/11/20 13/12/21 5/4/7
f 5/4/7 13/12/21 14/13/22
f 5/4/7 14/13/22 6/5/9
f 6/5/9 14/13/22 7/6/11
f 14/13/22 15/14/23 7/6/11
f 7/6/11 15/14/23 16/15/24
f 7/6/11 16/15/24 8/7/13
f 8/7/13 16/15/24 9/8/15
f 16/15/24 17/16/25 9/8/15
f 9/8/15 17/16/25 18/17/26
f 9/8/15 18/17/26 10/9/17
f 10/9/17 18/17/26 3/2/2
f 18/17/26 11/10/19 3/2/2
f 11/10/19 19/2/6 12/11/20
f 19/2/6 20/3/5 12/11/20
f 12/11/20 20/3/5 21/4/8
f 12/11/20 21/4/8 13/12/21
f 13/12/21 21/4/8 14/13/22
f 21/4/8 22/5/10 14/13/22
f 14/13/22 22/5/10 23/6/12
f 14/13/22 23/6/12 15/14/23
f 15/14/23 23/6/12 16/15/24
f 23/6/12 24/7/14 16/15/24
f 16/15/24 24/7/14 25/8/16
f 16/15/24 25/8/16 17/16/25
f 17/16/25 25/8/16 18/17/26
f 25/8/16 26/9/18 18/17/26
f 18/17/26 26/9/18 19/2/6
f 18/17/26 19/2/6 11/10/19
# 48 triangles in group

# 48 triangles total

