# Wavefront OBJ exported by MilkShape 3D

mtllib coral01.mtl

v 4.916667 8.634600 0.331488
v 4.916667 -1.198734 0.331488
v -4.916667 8.634600 0.331488
v -4.916667 -1.198734 0.331488
v 0.000001 8.634600 -4.585179
v 0.000001 -1.198734 -4.585179
v -0.000001 8.634600 5.248156
v -0.000001 -1.198734 5.248156
# 8 vertices

vt 0.000000 1.000000
vt 0.000000 0.000000
vt 1.000000 1.000000
vt 1.000000 0.000000
# 4 texture coordinates

vn 0.000000 0.000000 -1.000000
vn -1.000000 0.000000 -0.000000
# 2 normals

g Box01
usemtl Material01
s 1
f 1/1/1 2/2/1 3/3/1
f 2/2/1 4/4/1 3/3/1
# 2 triangles in group

g Duplicate01
usemtl Material01
f 5/1/2 6/2/2 7/3/2
f 6/2/2 8/4/2 7/3/2
# 2 triangles in group

# 4 triangles total

