# Wavefront OBJ exported by MilkShape 3D

mtllib crate01.mtl

v -10.625000 18.666666 10.666666
v -10.625000 -0.083333 10.666666
v 10.625000 18.666666 10.666666
v 10.625000 -0.083333 10.666666
v 10.625000 18.666666 -10.583334
v 10.625000 -0.083333 -10.583334
v -10.625000 18.666666 -10.583334
v -10.625000 -0.083333 -10.583334
v -12.193185 18.916666 -8.896334
v -12.193185 -0.833333 -8.896334
v -8.806815 18.916666 -8.896334
v -8.806815 -0.833333 -8.896334
v -8.806815 18.916666 -12.020334
v -8.806815 -0.833333 -12.020334
v -12.193185 18.916666 -12.020334
v -12.193185 -0.833333 -12.020334
v -12.193185 18.916666 12.103666
v -12.193185 -0.833333 12.103666
v -8.806815 18.916666 12.103666
v -8.806815 -0.833333 12.103666
v -8.806815 18.916666 8.979666
v -8.806815 -0.833333 8.979666
v -12.193185 18.916666 8.979666
v -12.193185 -0.833333 8.979666
v 9.056815 18.916666 -8.896334
v 9.056815 -0.833333 -8.896334
v 12.443185 18.916666 -8.896334
v 12.443185 -0.833333 -8.896334
v 12.443185 18.916666 -12.020334
v 12.443185 -0.833333 -12.020334
v 9.056815 18.916666 -12.020334
v 9.056815 -0.833333 -12.020334
v 9.056815 18.916666 12.353666
v 9.056815 -0.833333 12.353666
v 12.443185 18.916666 12.353666
v 12.443185 -0.833333 12.353666
v 12.443185 18.916666 9.229666
v 12.443185 -0.833333 9.229666
v 9.056815 18.916666 9.229666
v 9.056815 -0.833333 9.229666
v 8.946026 17.312998 9.047350
v 9.022724 17.312998 -8.659090
v 12.889210 17.312998 12.740534
v 12.875000 16.999998 -12.272726
v 12.889210 20.436998 12.740534
v 12.818180 20.436998 -12.204546
v 8.946026 20.436998 9.047350
v 9.022724 20.436998 -8.659090
v -8.559652 17.312998 -8.895832
v -12.315336 17.312998 -12.339016
v -12.315336 20.436998 -12.339016
v -8.559652 20.436998 -8.895832
v -8.573851 17.312998 8.935610
v -12.301126 16.999998 12.674246
v -12.244307 20.436998 12.606066
v -8.573851 20.436998 8.935610
v 9.071026 -2.187004 9.130684
v 9.147724 -2.187004 -8.575756
v 13.014210 -2.187004 12.823868
v 13.000000 -2.500004 -12.189392
v 13.014210 0.936996 12.823868
v 12.943180 0.936996 -12.121212
v 9.071026 0.936996 9.130684
v 9.147724 0.936996 -8.575756
v -8.434652 -2.187004 -8.812498
v -12.190336 -2.187004 -12.255682
v -12.190336 0.936996 -12.255682
v -8.434652 0.936996 -8.812498
v -8.448851 -2.187004 9.018944
v -12.176126 -2.500004 12.757580
v -12.119307 0.936996 12.689400
v -8.448851 0.936996 9.018944
# 72 vertices

vt 0.000000 1.000000
vt 0.000000 0.000000
vt 1.000000 1.000000
vt 1.000000 0.000000
vt 2.005227 0.756472
vt 2.005227 0.033221
vt 2.198336 0.756472
vt 2.198336 0.033221
# 8 texture coordinates

vn 0.000000 0.000000 1.000000
vn 1.000000 0.000000 0.000000
vn 0.000000 0.000000 -1.000000
vn -1.000000 0.000000 0.000000
vn 0.000000 1.000000 0.000000
vn 0.000000 -1.000000 0.000000
vn 0.004332 -0.999476 -0.032091
vn -0.023512 -0.999193 0.032574
vn -0.018962 -0.999820 -0.000260
vn -0.027664 -0.998928 0.037102
vn 0.444385 0.008908 0.895792
vn 0.893979 0.016278 -0.447813
vn 0.894525 0.007439 0.446956
vn 0.449569 0.016263 -0.893098
vn -0.441867 0.000000 -0.897081
vn -0.897169 0.000000 0.441688
vn -0.892297 0.000000 -0.451448
vn -0.457583 0.000000 0.889167
vn 0.683591 0.000000 -0.729865
vn -0.683591 0.000000 0.729865
vn 0.682490 -0.003162 0.730888
vn -0.684152 0.003211 -0.729332
vn -0.682767 0.000049 -0.730636
vn 0.684019 0.000049 0.729464
vn -0.004538 -0.999448 0.032914
vn 0.019594 -0.999808 0.000357
vn -0.444385 0.008908 -0.895792
vn -0.894525 0.007439 -0.446956
vn 0.437393 0.000000 0.899270
vn 0.892942 0.000000 0.450172
vn 0.675775 0.000000 -0.737108
vn -0.675775 0.000000 0.737108
vn 0.023938 -0.999206 -0.031848
vn 0.028090 -0.998947 -0.036280
vn -0.893979 0.016278 0.447813
vn -0.449569 0.016263 0.893098
vn 0.895283 0.000000 -0.445499
vn 0.451910 0.000000 -0.892063
vn -0.707008 -0.002302 -0.707201
vn 0.708180 0.002337 0.706028
vn 0.707203 0.000036 0.707010
vn -0.708086 0.000036 -0.706127
# 42 normals

g Box01
usemtl Material01
s 1
f 1/1/1 2/2/1 3/3/1
f 2/2/1 4/4/1 3/3/1
s 2
f 3/1/2 4/2/2 5/3/2
f 4/2/2 6/4/2 5/3/2
s 1
f 5/1/3 6/2/3 7/3/3
f 6/2/3 8/4/3 7/3/3
s 2
f 7/1/4 8/2/4 1/3/4
f 8/2/4 2/4/4 1/3/4
s 3
f 7/1/5 1/2/5 5/3/5
f 1/2/5 3/4/5 5/3/5
f 2/1/6 8/2/6 4/3/6
f 8/2/6 6/4/6 4/3/6
# 12 triangles in group

g Box02
usemtl Material02
s 1
f 9/5/1 10/6/1 11/7/1
f 10/6/1 12/8/1 11/7/1
s 2
f 11/5/2 12/6/2 13/7/2
f 12/6/2 14/8/2 13/7/2
s 1
f 13/5/3 14/6/3 15/7/3
f 14/6/3 16/8/3 15/7/3
s 2
f 15/5/4 16/6/4 9/7/4
f 16/6/4 10/8/4 9/7/4
s 3
f 15/5/5 9/6/5 13/7/5
f 9/6/5 11/8/5 13/7/5
f 10/5/6 16/6/6 12/7/6
f 16/6/6 14/8/6 12/7/6
# 12 triangles in group

g Duplicate01
usemtl Material02
s 1
f 17/5/1 18/6/1 19/7/1
f 18/6/1 20/8/1 19/7/1
s 2
f 19/5/2 20/6/2 21/7/2
f 20/6/2 22/8/2 21/7/2
s 1
f 21/5/3 22/6/3 23/7/3
f 22/6/3 24/8/3 23/7/3
s 2
f 23/5/4 24/6/4 17/7/4
f 24/6/4 18/8/4 17/7/4
s 3
f 23/5/5 17/6/5 21/7/5
f 17/6/5 19/8/5 21/7/5
f 18/5/6 24/6/6 20/7/6
f 24/6/6 22/8/6 20/7/6
# 12 triangles in group

g Duplicate02
usemtl Material02
s 1
f 25/5/1 26/6/1 27/7/1
f 26/6/1 28/8/1 27/7/1
s 2
f 27/5/2 28/6/2 29/7/2
f 28/6/2 30/8/2 29/7/2
s 1
f 29/5/3 30/6/3 31/7/3
f 30/6/3 32/8/3 31/7/3
s 2
f 31/5/4 32/6/4 25/7/4
f 32/6/4 26/8/4 25/7/4
s 3
f 31/5/5 25/6/5 29/7/5
f 25/6/5 27/8/5 29/7/5
f 26/5/6 32/6/6 28/7/6
f 32/6/6 30/8/6 28/7/6
# 12 triangles in group

g Duplicate03
usemtl Material02
s 1
f 33/5/1 34/6/1 35/7/1
f 34/6/1 36/8/1 35/7/1
s 2
f 35/5/2 36/6/2 37/7/2
f 36/6/2 38/8/2 37/7/2
s 1
f 37/5/3 38/6/3 39/7/3
f 38/6/3 40/8/3 39/7/3
s 2
f 39/5/4 40/6/4 33/7/4
f 40/6/4 34/8/4 33/7/4
s 3
f 39/5/5 33/6/5 37/7/5
f 33/6/5 35/8/5 37/7/5
f 34/5/6 40/6/6 36/7/6
f 40/6/6 38/8/6 36/7/6
# 12 triangles in group

g Duplicate08
usemtl Material02
s 1
f 41/5/7 42/6/8 43/7/9
f 42/6/8 44/8/10 43/7/9
s 2
f 43/5/11 44/6/12 45/7/13
f 44/6/12 46/8/14 45/7/13
s 1
f 45/5/5 46/6/5 47/7/5
f 46/6/5 48/8/5 47/7/5
s 2
f 47/5/15 48/6/16 41/7/17
f 48/6/16 42/8/18 41/7/17
s 3
f 47/5/19 41/6/20 45/7/20
f 41/6/20 43/8/19 45/7/20
f 42/5/21 48/6/22 44/7/23
f 48/6/22 46/8/24 44/7/23
s 1
f 42/5/8 49/6/25 44/7/10
f 49/6/25 50/8/26 44/7/10
s 2
f 44/5/12 50/6/27 46/7/14
f 50/6/27 51/8/28 46/7/14
s 1
f 46/5/5 51/6/5 48/7/5
f 51/6/5 52/8/5 48/7/5
s 2
f 48/5/16 52/6/29 42/7/18
f 52/6/29 49/8/30 42/7/18
s 3
f 48/5/22 42/6/21 46/7/24
f 42/6/21 44/8/23 46/7/24
f 49/5/31 52/6/32 50/7/32
f 52/6/32 51/8/31 50/7/32
s 1
f 49/5/25 53/6/33 50/7/26
f 53/6/33 54/8/34 50/7/26
s 2
f 50/5/27 54/6/35 51/7/28
f 54/6/35 55/8/36 51/7/28
s 1
f 51/5/5 55/6/5 52/7/5
f 55/6/5 56/8/5 52/7/5
s 2
f 52/5/29 56/6/37 49/7/30
f 56/6/37 53/8/38 49/7/30
s 3
f 52/5/32 49/6/31 51/7/31
f 49/6/31 50/8/32 51/7/31
f 53/5/39 56/6/40 54/7/41
f 56/6/40 55/8/42 54/7/41
s 1
f 53/5/33 41/6/7 54/7/34
f 41/6/7 43/8/9 54/7/34
s 2
f 54/5/35 43/6/11 55/7/36
f 43/6/11 45/8/13 55/7/36
s 1
f 55/5/5 45/6/5 56/7/5
f 45/6/5 47/8/5 56/7/5
s 2
f 56/5/37 47/6/15 53/7/38
f 47/6/15 41/8/17 53/7/38
s 3
f 56/5/40 53/6/39 55/7/42
f 53/6/39 54/8/41 55/7/42
f 41/5/20 47/6/19 43/7/19
f 47/6/19 45/8/20 43/7/19
# 48 triangles in group

g Duplicate09
usemtl Material02
s 1
f 57/5/7 58/6/8 59/7/9
f 58/6/8 60/8/10 59/7/9
s 2
f 59/5/11 60/6/12 61/7/13
f 60/6/12 62/8/14 61/7/13
s 1
f 61/5/5 62/6/5 63/7/5
f 62/6/5 64/8/5 63/7/5
s 2
f 63/5/15 64/6/16 57/7/17
f 64/6/16 58/8/18 57/7/17
s 3
f 63/5/19 57/6/20 61/7/20
f 57/6/20 59/8/19 61/7/20
f 58/5/21 64/6/22 60/7/23
f 64/6/22 62/8/24 60/7/23
s 1
f 58/5/8 65/6/25 60/7/10
f 65/6/25 66/8/26 60/7/10
s 2
f 60/5/12 66/6/27 62/7/14
f 66/6/27 67/8/28 62/7/14
s 1
f 62/5/5 67/6/5 64/7/5
f 67/6/5 68/8/5 64/7/5
s 2
f 64/5/16 68/6/29 58/7/18
f 68/6/29 65/8/30 58/7/18
s 3
f 64/5/22 58/6/21 62/7/24
f 58/6/21 60/8/23 62/7/24
f 65/5/31 68/6/32 66/7/32
f 68/6/32 67/8/31 66/7/32
s 1
f 65/5/25 69/6/33 66/7/26
f 69/6/33 70/8/34 66/7/26
s 2
f 66/5/27 70/6/35 67/7/28
f 70/6/35 71/8/36 67/7/28
s 1
f 67/5/5 71/6/5 68/7/5
f 71/6/5 72/8/5 68/7/5
s 2
f 68/5/29 72/6/37 65/7/30
f 72/6/37 69/8/38 65/7/30
s 3
f 68/5/32 65/6/31 67/7/31
f 65/6/31 66/8/32 67/7/31
f 69/5/39 72/6/40 70/7/41
f 72/6/40 71/8/42 70/7/41
s 1
f 69/5/33 57/6/7 70/7/34
f 57/6/7 59/8/9 70/7/34
s 2
f 70/5/35 59/6/11 71/7/36
f 59/6/11 61/8/13 71/7/36
s 1
f 71/5/5 61/6/5 72/7/5
f 61/6/5 63/8/5 72/7/5
s 2
f 72/5/37 63/6/15 69/7/38
f 63/6/15 57/8/17 69/7/38
s 3
f 72/5/40 69/6/39 71/7/42
f 69/6/39 70/8/41 71/7/42
f 57/5/20 63/6/19 59/7/19
f 63/6/19 61/8/20 59/7/19
# 48 triangles in group

# 156 triangles total

