# Wavefront OBJ exported by MilkShape 3D

mtllib crystal01.mtl

v 0.471428 -0.296055 0.016203
v 0.954545 0.658491 0.016203
v -0.000000 2.681217 0.016203
v 0.145679 -0.296055 0.433238
v 0.294971 0.658491 0.924030
v -0.381393 -0.296055 0.273945
v -0.772244 0.658491 0.577271
v -0.381393 -0.296055 -0.241539
v -0.772244 0.658491 -0.544865
v 0.145679 -0.296055 -0.400832
v 0.294971 0.658491 -0.891624
v 0.000000 -0.296055 0.016203
# 12 vertices

vt 0.000000 1.000000
vt 0.000000 0.000000
vt 0.000000 0.333333
vt 0.200000 0.000000
vt 0.200000 0.333333
vt 0.200000 0.666667
vt 0.400000 0.333333
vt 0.400000 0.000000
vt 0.600000 0.000000
vt 0.600000 0.333333
vt 0.600000 0.666667
vt 0.800000 0.333333
vt 0.800000 0.000000
vt 1.000000 0.000000
vt 1.000000 0.333333
vt 1.000000 0.666667
# 16 texture coordinates

vn 0.000000 -1.000000 0.000000
vn 0.971904 0.000000 -0.235377
vn 0.971904 0.000000 0.235377
vn 0.309017 0.000000 0.951057
vn -0.809017 0.000000 0.587785
vn -0.809017 0.000000 -0.587785
vn 0.309017 0.000000 -0.951057
# 7 normals

g Cylinder02
usemtl cristal
s 2
f 1/1/1 4/1/1 12/1/1
s 1
f 1/2/2 2/3/3 4/4/4
f 2/3/3 5/5/4 4/4/4
f 2/3/3 3/6/4 5/5/4
s 2
f 4/1/1 6/1/1 12/1/1
s 1
f 4/4/4 5/5/4 7/7/5
f 4/4/4 7/7/5 6/8/5
f 5/5/4 3/6/4 7/7/5
s 2
f 6/1/1 8/1/1 12/1/1
s 1
f 6/8/5 7/7/5 8/9/6
f 7/7/5 9/10/6 8/9/6
f 7/7/5 3/11/6 9/10/6
s 2
f 8/1/1 10/1/1 12/1/1
s 1
f 8/9/6 9/10/6 11/12/7
f 8/9/6 11/12/7 10/13/7
f 9/10/6 3/11/6 11/12/7
s 2
f 10/1/1 1/1/1 12/1/1
s 1
f 10/13/7 11/12/7 1/14/2
f 11/12/7 2/15/3 1/14/2
f 11/12/7 3/16/2 2/15/3
# 20 triangles in group

# 20 triangles total

