# Wavefront OBJ exported by MilkShape 3D

mtllib excrement.mtl

v 9.388305 2.203259 -8.430286
v 9.452990 5.908888 -5.330292
v 7.115955 5.949677 3.800976
v 0.070184 6.072659 7.247025
v -7.118718 6.198143 1.089155
v -4.935426 6.160036 -5.854607
v 4.606829 9.744045 -3.523094
v 3.452255 9.491979 3.226917
v -1.671087 9.591666 3.331347
v -3.511097 9.623780 -1.315062
v -0.083277 11.064180 -3.320887
v 3.142543 11.757992 -1.477388
v 0.204194 11.832511 0.675600
v -1.288463 13.276946 -1.040086
v 12.504582 3.294315 -5.330292
v 9.998857 3.338055 4.809182
v -0.879774 3.527939 10.208474
v -10.072963 3.688408 2.148317
v -6.528261 3.626537 -8.536467
v 6.934034 7.142126 -5.513634
v 5.504574 7.601271 5.201958
v -2.246230 7.394182 5.441742
v -5.724390 7.454897 -1.211283
v -0.892550 8.870787 -5.357426
v 5.000225 9.518036 -1.770325
v 0.878966 10.115474 2.096743
v 11.249590 -0.828053 -5.330290
v 8.808299 -0.785437 4.424085
v -0.606315 -0.621107 9.077300
v -9.033933 -0.474003 1.743757
v -6.009246 -0.526796 -7.512093
v 5.955741 3.014925 -4.753323
v 4.655913 4.614817 4.447560
v -2.103578 3.819853 4.635637
v -4.956031 3.869646 -1.250927
v -0.660481 5.294893 -4.579536
v 4.244153 7.709667 -0.408414
v 0.592242 9.111583 2.803920
v -1.941880 10.194164 0.280557
v 7.422366 -0.761250 -5.330290
v 5.189590 -0.722273 3.177871
v 0.512661 -0.640642 5.416754
v -5.437519 -0.536776 0.434563
v -4.095627 -0.560198 -4.197109
v 3.023911 3.066101 -2.292839
v 2.079120 4.659792 2.006286
v -1.440294 3.808277 2.027053
v -2.267870 3.822723 -1.379190
v 0.292202 5.278265 -2.062208
v 1.900341 7.750574 -0.046319
v -0.278594 9.126783 1.047270
v -0.229236 9.460960 -0.330735
v 6.312007 3.402407 -5.330292
v 4.143664 3.440254 2.792772
v 0.930756 3.496332 4.285582
v -4.253859 3.586838 0.030000
v -3.431969 3.572489 -3.172733
v 2.190246 7.224924 -1.532526
v 1.335215 7.674040 1.251873
v -1.172995 7.375454 1.220955
v -1.374859 7.378975 -1.418840
v 0.648901 8.843880 -1.284304
v 1.207841 9.584232 -1.184399
v -0.530099 10.140067 -0.745558
# 64 vertices

vt 2.424188 0.256872
vt 2.753802 0.256872
vt 2.417201 0.659805
vt 2.171756 -0.930000
vt 2.483149 -1.061046
vt 1.410715 -1.377914
vt 1.308106 -1.762840
vt 0.634215 -0.577521
vt 0.315115 -0.715190
vt 0.870041 0.325022
vt 0.697992 0.673607
vt 1.900735 0.021975
vt 2.152106 0.280702
vt 1.776026 -0.855385
vt 1.997704 -1.112098
vt 1.222634 -0.868958
vt 1.160511 -1.143265
vt 1.023887 -0.265023
vt 0.784822 -0.278512
vt 1.394139 -0.004308
vt 1.306727 0.260399
vt 1.742572 -0.243924
vt 1.943227 -0.205849
vt 1.425190 -0.523768
vt 1.498075 -0.708486
vt 1.291399 0.005185
vt 2.618245 0.256872
vt 2.354553 -1.010991
vt 1.337645 -1.615812
vt 0.427346 -0.662605
vt 0.754053 0.540460
vt 2.046437 0.181878
vt 1.906037 -1.014042
vt 1.175919 -1.038489
vt 0.867815 -0.273359
vt 1.331793 0.159289
vt 1.861561 -0.382869
vt 1.467105 -0.800404
vt 1.139633 -0.226350
vt 1.193385 -0.472420
vt 2.204852 0.256872
vt 1.963681 -0.849009
vt 1.458509 -1.140018
vt 0.815808 -0.492438
vt 0.960750 0.109582
vt 1.729758 -0.137933
vt 1.627708 -0.696728
vt 1.247563 -0.699428
vt 1.158173 -0.256688
vt 1.434696 -0.167910
vt 1.608397 -0.429933
vt 1.373042 -0.572077
vt 1.378374 -0.392965
vt 1.071673 0.027438
vt 2.084918 0.256872
vt 1.850707 -0.798955
vt 1.503669 -0.992989
vt 0.943659 -0.439853
vt 1.032435 -0.023566
vt 1.639711 -0.236757
vt 1.547356 -0.598671
vt 1.276435 -0.594652
vt 1.254631 -0.251534
vt 1.473225 -0.269021
vt 1.533598 -0.282007
vt 1.345877 -0.339047
vt 1.438951 -0.097792
# 67 texture coordinates

vn 0.184348 0.927047 -0.326495
vn 0.913253 0.264478 -0.309871
vn -0.000009 -0.000504 -1.000000
vn -0.196084 0.961601 -0.192029
vn 0.737344 0.285910 0.612029
vn -0.010001 0.961079 0.276094
vn -0.099823 0.321787 0.941535
vn 0.274339 0.958582 -0.076540
vn -0.909576 0.338356 0.241218
vn -0.262913 0.937049 -0.229819
vn -0.505794 0.371294 -0.778661
vn -0.389600 0.920946 -0.008378
vn 0.755461 0.343388 -0.558000
vn 0.193559 0.961284 0.196131
vn 0.618910 0.351540 0.702403
vn 0.216672 0.957704 -0.189356
vn -0.508601 0.297819 0.807854
vn -0.410633 0.909108 0.070029
vn -0.931418 0.325485 -0.162848
vn -0.387651 0.804164 0.450608
vn -0.090445 0.215073 -0.972401
vn 0.243966 0.961755 -0.124532
vn 0.974890 0.219127 -0.039658
vn -0.048392 0.863371 -0.502244
vn 0.133864 0.530566 0.837007
vn -0.984675 0.162929 0.062210
vn 0.573766 -0.794352 -0.199495
vn 0.436026 -0.822018 0.366290
vn -0.083574 -0.832544 0.547618
vn -0.545136 -0.825629 0.145476
vn -0.121508 -0.871403 -0.475281
vn 0.562002 -0.820705 -0.102942
vn 0.377294 -0.821413 0.427703
vn -0.259648 -0.822694 0.505725
vn -0.540428 -0.771814 -0.335025
vn 0.320555 -0.706248 -0.631235
vn 0.655689 -0.680710 0.326659
vn -0.293986 -0.403375 0.866522
vn -0.903279 -0.339074 0.262900
vn -0.534718 -0.680713 -0.500706
vn -0.458730 -0.806336 -0.373348
vn 0.052589 -0.833663 -0.549765
vn 0.513316 -0.842109 -0.165408
vn 0.460521 -0.818608 0.343224
vn -0.316749 -0.865989 0.386953
vn -0.349157 -0.854287 -0.385075
vn 0.401295 -0.811189 -0.425364
vn 0.573453 -0.812649 -0.103697
vn 0.129106 -0.730839 0.670228
vn -0.458707 -0.632393 0.624234
vn -0.453573 -0.889772 0.050769
vn 0.033525 -0.765115 -0.643020
vn -0.856768 0.284964 -0.429819
vn -0.713163 0.309829 -0.628812
vn 0.109307 0.310125 -0.944391
vn 0.906253 0.306242 -0.291413
vn 0.431951 0.376944 0.819348
vn -0.910024 0.340987 0.235766
vn -0.588512 0.330298 -0.737941
vn 0.698329 0.236533 -0.675565
vn 0.782572 0.237142 0.575626
vn -0.245766 0.137813 0.959482
vn -0.986070 0.113244 0.121826
vn -0.266014 -0.222825 -0.937862
# 64 normals

g Cylinder03
usemtl Material01
s 1
f 2/1/1 15/2/2 1/3/3
f 2/1/1 3/4/4 16/5/5
f 2/1/1 16/5/5 15/2/2
f 3/4/4 4/6/6 16/5/5
f 4/6/6 17/7/7 16/5/5
f 4/6/6 5/8/8 18/9/9
f 4/6/6 18/9/9 17/7/7
f 5/8/8 6/10/10 18/9/9
f 6/10/10 19/11/11 18/9/9
f 6/10/10 7/12/12 20/13/13
f 6/10/10 20/13/13 19/11/11
f 7/12/12 8/14/14 20/13/13
f 8/14/14 21/15/15 20/13/13
f 8/14/14 9/16/16 22/17/17
f 8/14/14 22/17/17 21/15/15
f 9/16/16 10/18/18 22/17/17
f 10/18/18 23/19/19 22/17/17
f 10/18/18 11/20/20 24/21/21
f 10/18/18 24/21/21 23/19/19
f 11/20/20 12/22/22 24/21/21
f 12/22/22 25/23/23 24/21/21
f 12/22/22 13/24/24 26/25/25
f 12/22/22 26/25/25 25/23/23
f 13/24/24 14/26/26 26/25/25
f 1/3/3 15/2/2 27/27/27
f 15/2/2 16/5/5 27/27/27
f 16/5/5 28/28/28 27/27/27
f 16/5/5 17/7/7 29/29/29
f 16/5/5 29/29/29 28/28/28
f 17/7/7 18/9/9 29/29/29
f 18/9/9 30/30/30 29/29/29
f 18/9/9 19/11/11 31/31/31
f 18/9/9 31/31/31 30/30/30
f 19/11/11 20/13/13 31/31/31
f 20/13/13 32/32/32 31/31/31
f 20/13/13 21/15/15 33/33/33
f 20/13/13 33/33/33 32/32/32
f 21/15/15 22/17/17 33/33/33
f 22/17/17 34/34/34 33/33/33
f 22/17/17 23/19/19 35/35/35
f 22/17/17 35/35/35 34/34/34
f 23/19/19 24/21/21 35/35/35
f 24/21/21 36/36/36 35/35/35
f 24/21/21 25/23/23 37/37/37
f 24/21/21 37/37/37 36/36/36
f 25/23/23 26/25/25 37/37/37
f 26/25/25 38/38/38 37/37/37
f 26/25/25 14/39/26 39/40/39
f 26/25/25 39/40/39 38/38/38
f 27/27/27 40/41/40 1/3/3
f 27/27/27 28/28/28 41/42/41
f 27/27/27 41/42/41 40/41/40
f 28/28/28 29/29/29 41/42/41
f 29/29/29 42/43/42 41/42/41
f 29/29/29 30/30/30 43/44/43
f 29/29/29 43/44/43 42/43/42
f 30/30/30 31/31/31 43/44/43
f 31/31/31 44/45/44 43/44/43
f 31/31/31 32/32/32 45/46/45
f 31/31/31 45/46/45 44/45/44
f 32/32/32 33/33/33 45/46/45
f 33/33/33 46/47/46 45/46/45
f 33/33/33 34/34/34 47/48/47
f 33/33/33 47/48/47 46/47/46
f 34/34/34 35/35/35 47/48/47
f 35/35/35 48/49/48 47/48/47
f 35/35/35 36/36/36 49/50/49
f 35/35/35 49/50/49 48/49/48
f 36/36/36 37/37/37 49/50/49
f 37/37/37 50/51/50 49/50/49
f 37/37/37 38/38/38 51/52/51
f 37/37/37 51/52/51 50/51/50
f 38/38/38 39/40/39 51/52/51
f 39/40/39 52/53/52 51/52/51
f 39/40/39 14/54/26 52/53/52
f 1/3/3 40/41/40 53/55/53
f 40/41/40 41/42/41 53/55/53
f 41/42/41 54/56/54 53/55/53
f 41/42/41 42/43/42 55/57/55
f 41/42/41 55/57/55 54/56/54
f 42/43/42 43/44/43 55/57/55
f 43/44/43 56/58/56 55/57/55
f 43/44/43 44/45/44 57/59/57
f 43/44/43 57/59/57 56/58/56
f 44/45/44 45/46/45 57/59/57
f 45/46/45 58/60/58 57/59/57
f 45/46/45 46/47/46 59/61/59
f 45/46/45 59/61/59 58/60/58
f 46/47/46 47/48/47 59/61/59
f 47/48/47 60/62/60 59/61/59
f 47/48/47 48/49/48 61/63/61
f 47/48/47 61/63/61 60/62/60
f 48/49/48 49/50/49 61/63/61
f 49/50/49 62/64/62 61/63/61
f 49/50/49 50/51/50 63/65/63
f 49/50/49 63/65/63 62/64/62
f 50/51/50 51/52/51 63/65/63
f 51/52/51 64/66/64 63/65/63
f 51/52/51 52/53/52 14/67/26
f 51/52/51 14/67/26 64/66/64
f 53/55/53 2/1/1 1/3/3
f 53/55/53 54/56/54 3/4/4
f 53/55/53 3/4/4 2/1/1
f 54/56/54 55/57/55 3/4/4
f 55/57/55 4/6/6 3/4/4
f 55/57/55 56/58/56 5/8/8
f 55/57/55 5/8/8 4/6/6
f 56/58/56 57/59/57 5/8/8
f 57/59/57 6/10/10 5/8/8
f 57/59/57 58/60/58 7/12/12
f 57/59/57 7/12/12 6/10/10
f 58/60/58 59/61/59 7/12/12
f 59/61/59 8/14/14 7/12/12
f 59/61/59 60/62/60 9/16/16
f 59/61/59 9/16/16 8/14/14
f 60/62/60 61/63/61 9/16/16
f 61/63/61 10/18/18 9/16/16
f 61/63/61 62/64/62 11/20/20
f 61/63/61 11/20/20 10/18/18
f 62/64/62 63/65/63 11/20/20
f 63/65/63 12/22/22 11/20/20
f 63/65/63 64/66/64 13/24/24
f 63/65/63 13/24/24 12/22/22
f 64/66/64 14/67/26 13/24/24
# 124 triangles in group

# 124 triangles total

