# Wavefront OBJ exported by MilkShape 3D

mtllib fence04.mtl

v -20.995853 31.667210 1.096808
v -20.995853 -26.667210 1.096808
v -19.004147 31.667210 1.096808
v -19.004147 -26.667210 1.096808
v -19.004147 31.667210 1.096808
v -19.004147 -26.667210 1.096808
v -19.004147 31.667210 -1.096808
v -19.004147 -26.667210 -1.096808
v -19.004147 31.667210 -1.096808
v -19.004147 -26.667210 -1.096808
v -20.995853 31.667210 -1.096808
v -20.995853 -26.667210 -1.096808
v -20.995853 31.667210 -1.096808
v -20.995853 -26.667210 -1.096808
v -20.995853 31.667210 1.096808
v -20.995853 -26.667210 1.096808
v -20.995853 31.667210 1.096808
v -19.004147 31.667210 1.096808
v -20.995853 -26.667210 1.096808
v -19.004147 -26.667210 1.096808
v 19.004147 31.667210 1.096808
v 19.004147 -26.667210 1.096808
v 20.995853 31.667210 1.096808
v 20.995853 -26.667210 1.096808
v 20.995853 31.667210 1.096808
v 20.995853 -26.667210 1.096808
v 20.995853 31.667210 -1.096808
v 20.995853 -26.667210 -1.096808
v 20.995853 31.667210 -1.096808
v 20.995853 -26.667210 -1.096808
v 19.004147 31.667210 -1.096808
v 19.004147 -26.667210 -1.096808
v 19.004147 31.667210 -1.096808
v 19.004147 -26.667210 -1.096808
v 19.004147 31.667210 1.096808
v 19.004147 -26.667210 1.096808
v 19.004147 31.667210 1.096808
v 20.995853 31.667210 1.096808
v 19.004147 -26.667210 1.096808
v 20.995853 -26.667210 1.096808
v -19.875000 30.500000 -0.125000
v -20.125000 -25.250000 -0.125000
v 19.625000 -25.250000 -0.125000
v 19.875000 30.500000 -0.125000
v 19.875000 30.500000 -0.125000
v 20.125000 -25.250000 -0.125000
v -19.625000 -25.250000 -0.125000
v -19.875000 30.500000 -0.125000
v -19.748240 30.620195 0.419316
v -19.748240 29.879805 0.419316
v 20.248247 30.620195 0.419316
v 20.248247 29.879805 0.419316
v 20.248247 30.620195 0.419316
v 20.248247 29.879805 0.419316
v 20.248247 30.620195 -0.419316
v 20.248247 29.879805 -0.419316
v 20.248247 30.620195 -0.419316
v 20.248247 29.879805 -0.419316
v -19.748240 30.620195 -0.419316
v -19.748240 29.879805 -0.419316
v -19.748240 30.620195 -0.419316
v -19.748240 29.879805 -0.419316
v -19.748240 30.620195 0.419316
v -19.748240 29.879805 0.419316
v -19.748240 30.620195 0.419316
v 20.248247 30.620195 0.419316
v -19.748240 29.879805 0.419316
v 20.248247 29.879805 0.419316
# 68 vertices

vt 0.000000 1.000000
vt 0.000000 0.000000
vt 1.000000 1.000000
vt 1.000000 0.000000
vt 2.013006 -0.070272
vt 1.994057 -23.362602
vt 21.996658 -23.866512
vt 22.095226 -0.080300
# 8 texture coordinates

vn 0.000000 0.000000 1.000000
vn 1.000000 0.000000 0.000000
vn 0.000000 0.000000 -1.000000
vn -1.000000 0.000000 0.000000
vn 0.000000 1.000000 0.000000
vn 0.000000 -1.000000 0.000000
# 6 normals

g Box01
usemtl Material01
s 1
f 1/1/1 2/2/1 3/3/1
f 2/2/1 4/4/1 3/3/1
s 2
f 5/1/2 6/2/2 7/3/2
f 6/2/2 8/4/2 7/3/2
s 1
f 9/1/3 10/2/3 11/3/3
f 10/2/3 12/4/3 11/3/3
s 2
f 13/1/4 14/2/4 15/3/4
f 14/2/4 16/4/4 15/3/4
s 3
f 13/1/5 17/2/5 7/3/5
f 17/2/5 18/4/5 7/3/5
f 19/1/6 14/2/6 20/3/6
f 14/2/6 8/4/6 20/3/6
# 12 triangles in group

g Duplicate02
usemtl Material01
s 1
f 21/1/1 22/2/1 23/3/1
f 22/2/1 24/4/1 23/3/1
s 2
f 25/1/2 26/2/2 27/3/2
f 26/2/2 28/4/2 27/3/2
s 1
f 29/1/3 30/2/3 31/3/3
f 30/2/3 32/4/3 31/3/3
s 2
f 33/1/4 34/2/4 35/3/4
f 34/2/4 36/4/4 35/3/4
s 3
f 33/1/5 37/2/5 27/3/5
f 37/2/5 38/4/5 27/3/5
f 39/1/6 34/2/6 40/3/6
f 34/2/6 28/4/6 40/3/6
# 12 triangles in group

g Plane02
usemtl Material02
s 1
f 41/5/1 42/6/1 43/7/1
f 41/5/1 43/7/1 44/8/1
# 2 triangles in group

g Duplicate03
usemtl Material02
f 45/5/3 46/6/3 47/7/3
f 45/5/3 47/7/3 48/8/3
# 2 triangles in group

g Duplicate04
usemtl Material01
f 49/1/1 50/2/1 51/3/1
f 50/2/1 52/4/1 51/3/1
s 2
f 53/1/2 54/2/2 55/3/2
f 54/2/2 56/4/2 55/3/2
s 1
f 57/1/3 58/2/3 59/3/3
f 58/2/3 60/4/3 59/3/3
s 2
f 61/1/4 62/2/4 63/3/4
f 62/2/4 64/4/4 63/3/4
s 3
f 61/1/5 65/2/5 55/3/5
f 65/2/5 66/4/5 55/3/5
f 67/1/6 62/2/6 68/3/6
f 62/2/6 56/4/6 68/3/6
# 12 triangles in group

# 40 triangles total

