# Wavefront OBJ exported by MilkShape 3D

mtllib fence04.mtl

v 1.198223 9.829929 48.866463
v 1.198223 11.071833 -49.697388
v 4.335260 7.880169 48.902451
v 4.335260 7.546782 -49.749359
v 8.261448 10.322261 48.857357
v 8.261448 11.961961 -49.684277
v 5.124411 12.272024 48.821377
v 5.124411 15.486967 -49.632317
v 8.261450 40.719376 -48.491993
v 8.261443 43.635788 50.100029
v 5.124408 37.220352 -48.394917
v 5.124409 41.689724 50.186062
v 1.198218 41.602905 -48.516502
v 1.198217 44.127209 50.078350
v 4.335266 45.101925 -48.613640
v 4.335258 46.073246 49.992310
v 3.141660 -75.842522 -37.893154
v -2.197380 51.374249 -34.322548
v 1.438118 52.272114 -37.911568
v 6.090626 51.951847 -33.495979
v 2.352535 50.717442 -30.005919
v -2.197380 51.374249 -34.322548
v 2.352535 50.717442 -30.005919
v 6.090626 51.951847 -33.495979
v 1.438118 52.272114 -37.911568
v 4.595285 -76.080437 43.882130
v 3.365560 51.224041 37.647179
v -3.621065 51.716953 37.582817
v -3.499444 50.657337 31.627428
v 3.512048 49.846981 31.854357
v 3.365560 51.224041 37.647179
v 3.512048 49.846981 31.854357
v -3.499444 50.657337 31.627428
v -3.621065 51.716953 37.582817
v 0.338625 25.709248 -47.963299
v 2.058510 27.907930 50.568874
v 3.473369 27.656576 -48.122044
v 5.193829 31.432648 50.443050
v 7.401233 25.217535 -48.060291
v 9.120974 27.017889 50.463535
v 4.266489 23.270218 -47.901554
v 5.985655 23.493212 50.589375
# 42 vertices

vt 0.790881 1.047722
vt 0.790881 0.055536
vt 0.872757 1.047722
vt 0.872757 0.055536
vt 0.996356 0.498857
vt 0.514455 0.955438
vt 0.510089 -0.014377
vt 0.028188 0.442204
# 8 texture coordinates

vn -0.527759 -0.849327 -0.010702
vn -0.644041 -0.764979 -0.004272
vn -0.747006 -0.664814 0.002247
vn 0.528188 -0.849123 0.002870
vn 0.644417 -0.764663 -0.004136
vn 0.747311 -0.664382 -0.011055
vn 0.527709 0.849308 0.014132
vn 0.644017 0.764797 0.018102
vn 0.747003 0.664467 0.021698
vn -0.527734 0.848957 0.027722
vn -0.644210 0.764631 0.018236
vn -0.747308 0.664425 0.008372
vn 0.000003 0.018455 0.999830
vn -0.000003 0.014739 -0.999891
vn 0.744698 -0.667110 0.019734
vn 0.642610 -0.765629 0.029402
vn 0.527527 -0.848667 0.038476
vn -0.744899 -0.666493 0.030217
vn -0.642833 -0.765556 0.026244
vn -0.527753 -0.849120 0.021740
vn -0.744697 0.667184 -0.017082
vn -0.642505 0.766173 -0.012856
vn -0.527297 0.849640 -0.008369
vn 0.744897 0.667147 -0.006572
vn 0.642842 0.765831 -0.016005
vn 0.527774 0.849013 -0.025114
vn -0.000002 -0.027749 -0.999615
vn 0.000005 0.044158 0.999025
vn -0.701332 -0.009428 -0.712773
vn -0.232734 -0.950793 0.204518
vn 0.688697 0.009053 -0.724993
vn -0.060901 -0.993306 -0.098159
vn 0.689038 -0.040797 0.723576
vn -0.691161 -0.049244 0.721021
vn -0.084532 0.983426 0.160397
vn -0.088132 0.975391 0.202102
vn -0.091571 0.965584 0.243440
vn -0.005754 0.048862 0.998789
vn 0.318238 -0.945239 0.072445
vn -0.997872 -0.064593 -0.008886
vn 0.032584 -0.968006 0.248802
vn 0.021246 -0.094878 -0.995262
vn 0.999684 0.010769 0.022720
vn 0.070899 0.982309 -0.173330
vn 0.095044 0.975136 -0.200190
vn 0.119060 0.966642 -0.226778
vn -0.528011 0.849182 -0.009732
vn -0.644335 0.764661 -0.011185
vn -0.747336 0.664330 -0.012406
vn 0.527542 0.848504 -0.041715
vn 0.643925 0.764341 -0.033796
vn 0.746985 0.664363 -0.025179
vn 0.527898 -0.849284 0.006305
vn 0.644069 -0.764963 -0.002641
vn -0.527620 -0.849408 0.011133
vn -0.643964 -0.764802 0.019702
vn -0.746936 -0.664312 0.027862
vn -0.017425 -0.053337 -0.998425
vn 0.017449 0.020164 0.999644
# 59 normals

g Duplicate03
usemtl wood
s 1
f 1/1/1 2/2/2 3/3/2
f 2/2/2 4/4/3 3/3/2
s 2
f 3/1/4 4/2/5 5/3/5
f 4/2/5 6/4/6 5/3/5
s 1
f 5/1/7 6/2/8 7/3/8
f 6/2/8 8/4/9 7/3/8
s 2
f 7/1/10 8/2/11 1/3/11
f 8/2/11 2/4/12 1/3/11
s 3
f 7/1/13 1/2/13 5/3/13
f 1/2/13 3/4/13 5/3/13
f 2/1/14 8/2/14 4/3/14
f 8/2/14 6/4/14 4/3/14
# 12 triangles in group

g Duplicate01
usemtl wood
s 1
f 9/1/15 10/2/16 11/3/16
f 10/2/16 12/4/17 11/3/16
s 2
f 11/1/18 12/2/19 13/3/19
f 12/2/19 14/4/20 13/3/19
s 1
f 13/1/21 14/2/22 15/3/22
f 14/2/22 16/4/23 15/3/22
s 2
f 15/1/24 16/2/25 9/3/25
f 16/2/25 10/4/26 9/3/25
s 3
f 15/1/27 9/2/27 13/3/27
f 9/2/27 11/4/27 13/3/27
f 10/1/28 16/2/28 12/3/28
f 16/2/28 14/4/28 12/3/28
# 12 triangles in group

g Duplicate02
usemtl wood
s 1
f 18/2/29 19/4/29 17/3/30
s 2
f 19/2/31 20/4/31 17/3/32
s 1
f 20/2/33 21/4/33 17/3/30
s 2
f 21/2/34 18/4/34 17/3/32
# 4 triangles in group

g Box01
usemtl Material01
s 3
f 25/5/35 22/6/36 24/7/36
f 22/6/36 23/8/37 24/7/36
# 2 triangles in group

g Duplicate04
usemtl wood
s 1
f 27/2/38 28/4/38 26/3/39
s 2
f 28/2/40 29/4/40 26/3/41
s 1
f 29/2/42 30/4/42 26/3/39
s 2
f 30/2/43 27/4/43 26/3/41
# 4 triangles in group

g Duplicate05
usemtl Material01
s 3
f 34/5/44 31/6/45 33/7/45
f 31/6/45 32/8/46 33/7/45
# 2 triangles in group

g Duplicate01
usemtl wood
s 1
f 35/1/47 36/2/48 37/3/48
f 36/2/48 38/4/49 37/3/48
s 2
f 37/1/50 38/2/51 39/3/51
f 38/2/51 40/4/52 39/3/51
s 1
f 39/1/53 40/2/54 41/3/54
f 40/2/54 42/4/6 41/3/54
s 2
f 41/1/55 42/2/56 35/3/56
f 42/2/56 36/4/57 35/3/56
s 3
f 41/1/58 35/2/58 39/3/58
f 35/2/58 37/4/58 39/3/58
f 36/1/59 42/2/59 38/3/59
f 42/2/59 40/4/59 38/3/59
# 12 triangles in group

# 48 triangles total

