# Wavefront OBJ exported by MilkShape 3D

mtllib fir02.mtl

v 11.061466 -7.442712 0.513477
v 5.097124 7.889470 0.513477
v 3.977638 34.372311 0.513477
v 2.828541 60.855160 0.513477
v 0.000000 97.671349 -0.153191
v 5.530733 -7.442712 10.768009
v 2.548562 7.889470 5.238762
v 1.988819 34.372311 3.832196
v 1.414271 60.855160 2.932823
v 0.000000 97.671349 -0.153191
v -5.530733 -7.442712 10.768009
v -2.548562 7.889470 5.238762
v -1.988819 34.372311 3.832196
v -1.414271 60.855160 2.932823
v 0.000000 97.671349 -0.153191
v -11.061466 -7.442712 0.513477
v -5.097124 7.889470 0.513477
v -3.977638 34.372311 0.513477
v -2.828541 60.855160 0.513477
v 0.000000 97.671349 -0.153191
v -5.530733 -7.442712 -9.741049
v -2.548562 7.889470 -4.211811
v -1.988819 34.372311 -2.805246
v -1.414271 60.855160 -1.905869
v 0.000000 97.671349 -0.153191
v 5.530733 -7.442712 -9.741049
v 2.548562 7.889470 -4.211811
v 1.988819 34.372311 -2.805246
v 1.414271 60.855160 -1.905869
v 0.000000 97.671349 -0.153191
v 0.000000 97.671349 -0.153191
v 0.000000 28.553143 -0.153194
v 47.336365 8.629864 -0.153194
v 14.627744 8.629864 43.761620
v -38.295925 8.629864 26.987656
v -38.295925 8.629864 -27.294037
v 14.627744 8.629864 -44.068001
v -0.000009 38.553143 0.513475
v -36.934765 18.629864 -6.665913
v -4.753022 18.629864 -35.970127
v 33.997208 18.629864 -14.855208
v 25.764456 18.629864 27.498634
v -18.073895 18.629864 32.559895
v -0.000024 46.886475 0.513447
v 14.219461 26.963196 -38.271599
v 40.854221 26.963196 1.703177
v 11.029749 26.963196 40.033779
v -34.037392 26.963196 23.748659
v -32.066032 26.963196 -24.646717
v -0.000022 52.886471 0.846783
v 14.024319 32.963192 -30.694281
v 34.726608 32.963192 4.652547
v 7.437841 32.963192 34.739910
v -30.129717 32.963192 17.988152
v -26.059053 32.963192 -22.452379
v -0.000018 61.219803 0.846793
v -5.683724 41.296524 -25.828245
v 23.965576 41.296524 -12.848339
v 20.495205 41.296524 19.057772
v -11.298799 41.296524 25.796902
v -27.478260 41.296524 -1.944156
v -0.000017 68.397896 0.180120
v 7.377570 46.260906 -23.615515
v 26.352474 46.260906 0.991078
v 8.909100 46.260906 24.476938
v -20.846304 46.260906 14.385429
v -21.792843 46.260906 -15.337316
v -0.000012 75.731224 0.180131
v -10.011679 53.594242 -16.068369
v 14.275820 53.594242 -15.872765
v 18.834583 53.594242 6.507402
v -2.635383 53.594242 20.143450
v -20.463331 53.594242 6.190882
v -0.000010 82.064545 -0.153213
v 8.088877 59.927570 -12.439165
v 15.863345 59.927563 4.589921
v 1.715171 59.927567 15.064147
v -14.803276 59.927551 4.508516
v -10.864110 59.927567 -12.489448
v 0.000001 88.731209 -0.153216
v 16.022934 66.594238 1.645456
v 2.339485 66.594223 12.192530
v -14.577053 66.594231 5.678181
v -11.348594 66.594215 -8.894923
v 7.563225 66.594231 -11.387279
v 0.000004 97.517792 -0.153209
v 1.878919 84.036919 5.134630
v -4.610261 84.036911 3.216049
v -4.728203 84.036919 -3.358738
v 1.688060 84.036911 -5.503582
v 5.771480 84.036919 -0.254397
v 0.073600 89.601379 -0.125049
v 0.853535 77.702232 9.319798
v -8.279020 77.672470 3.400639
v -5.990568 77.570480 -6.884822
v 4.556285 77.537193 -7.322412
v 8.786165 77.618629 2.692585
v -0.000000 33.398304 0.513471
v 30.462938 4.860831 0.513471
v 9.413571 4.860831 27.916618
v -24.645042 4.860831 17.449553
v -24.645042 4.860831 -16.422598
v 9.413571 4.860831 -26.889671
v 0.000002 54.040661 0.513473
v 15.409627 22.332359 16.115711
v -11.225033 22.332359 21.521545
v -22.347090 22.332359 -2.105074
v -2.586226 22.332359 -22.112942
v 20.748707 22.332359 -10.851871
v -0.000001 76.373993 0.846812
v -6.352802 44.665691 13.696487
v -12.447309 44.665691 -3.461901
v -1.340056 44.665691 -14.665803
v 11.619106 44.665691 -4.431802
v 8.521050 44.665691 13.097063
# 115 vertices

vt 0.000000 1.000000
vt 0.000000 0.000000
vt 0.000000 0.250000
vt 0.166667 0.250000
vt 0.166667 0.000000
vt 0.000000 0.500000
vt 0.166667 0.500000
vt 0.000000 0.750000
vt 0.166667 0.750000
vt 0.166667 1.000000
vt 0.333333 0.000000
vt 0.333333 0.250000
vt 0.333333 0.500000
vt 0.333333 0.750000
vt 0.333333 1.000000
vt 0.500000 0.250000
vt 0.500000 0.000000
vt 0.500000 0.500000
vt 0.500000 0.750000
vt 0.500000 1.000000
vt 0.666667 0.000000
vt 0.666667 0.250000
vt 0.666667 0.500000
vt 0.666667 0.750000
vt 0.666667 1.000000
vt 0.833333 0.250000
vt 0.833333 0.000000
vt 0.833333 0.500000
vt 0.833333 0.750000
vt 0.833333 1.000000
vt 1.000000 0.000000
vt 1.000000 0.250000
vt 1.000000 0.500000
vt 1.000000 0.750000
vt 1.000000 1.000000
vt 0.500973 0.477959
vt 1.035748 0.899809
vt 0.528372 0.991557
vt 0.956645 0.004733
vt 0.034063 0.025710
vt 0.020350 0.964078
# 41 texture coordinates

vn 0.000000 1.000000 0.000000
vn 1.000000 0.000000 0.000000
vn 0.500000 0.000000 0.866025
vn -0.500000 0.000000 0.866025
vn -1.000000 0.000000 -0.000000
vn -0.500000 0.000000 -0.866025
vn 0.500000 0.000000 -0.866025
vn 0.267617 0.500000 0.823639
vn 0.866025 0.500000 0.000000
vn -0.700629 0.500000 0.509037
vn -0.700629 0.500000 -0.509037
vn 0.267617 0.500000 -0.823639
# 12 normals

g Cylinder01
usemtl wood
s 2
f 5/1/1 31/1/1 10/1/1
s 1
f 1/2/2 2/3/2 7/4/3
f 1/2/2 7/4/3 6/5/3
f 2/3/2 3/6/2 7/4/3
f 3/6/2 8/7/3 7/4/3
f 3/6/2 4/8/2 9/9/3
f 3/6/2 9/9/3 8/7/3
f 4/8/2 5/1/2 9/9/3
f 5/1/2 10/10/3 9/9/3
s 2
f 10/1/1 31/1/1 15/1/1
s 1
f 6/5/3 7/4/3 11/11/4
f 7/4/3 12/12/4 11/11/4
f 7/4/3 8/7/3 13/13/4
f 7/4/3 13/13/4 12/12/4
f 8/7/3 9/9/3 13/13/4
f 9/9/3 14/14/4 13/13/4
f 9/9/3 10/10/3 15/15/4
f 9/9/3 15/15/4 14/14/4
s 2
f 15/1/1 31/1/1 20/1/1
s 1
f 11/11/4 12/12/4 17/16/5
f 11/11/4 17/16/5 16/17/5
f 12/12/4 13/13/4 17/16/5
f 13/13/4 18/18/5 17/16/5
f 13/13/4 14/14/4 19/19/5
f 13/13/4 19/19/5 18/18/5
f 14/14/4 15/15/4 19/19/5
f 15/15/4 20/20/5 19/19/5
s 2
f 20/1/1 31/1/1 25/1/1
s 1
f 16/17/5 17/16/5 21/21/6
f 17/16/5 22/22/6 21/21/6
f 17/16/5 18/18/5 23/23/6
f 17/16/5 23/23/6 22/22/6
f 18/18/5 19/19/5 23/23/6
f 19/19/5 24/24/6 23/23/6
f 19/19/5 20/20/5 25/25/6
f 19/19/5 25/25/6 24/24/6
s 2
f 25/1/1 31/1/1 30/1/1
s 1
f 21/21/6 22/22/6 27/26/7
f 21/21/6 27/26/7 26/27/7
f 22/22/6 23/23/6 27/26/7
f 23/23/6 28/28/7 27/26/7
f 23/23/6 24/24/6 29/29/7
f 23/23/6 29/29/7 28/28/7
f 24/24/6 25/25/6 29/29/7
f 25/25/6 30/30/7 29/29/7
s 2
f 30/1/1 31/1/1 5/1/1
s 1
f 26/27/7 27/26/7 1/31/2
f 27/26/7 2/32/2 1/31/2
f 27/26/7 28/28/7 3/33/2
f 27/26/7 3/33/2 2/32/2
f 28/28/7 29/29/7 3/33/2
f 29/29/7 4/34/2 3/33/2
f 29/29/7 30/30/7 5/35/2
f 29/29/7 5/35/2 4/34/2
# 54 triangles in group

g Sphere01
usemtl needles
f 32/36/1 34/37/8 33/38/9
f 32/36/1 35/39/10 34/37/8
f 32/36/1 36/40/11 35/39/10
f 32/36/1 37/41/12 36/40/11
f 32/36/1 33/38/9 37/41/12
# 5 triangles in group

g Duplicate01
usemtl needles
f 38/36/1 40/37/8 39/38/9
f 38/36/1 41/39/10 40/37/8
f 38/36/1 42/40/11 41/39/10
f 38/36/1 43/41/12 42/40/11
f 38/36/1 39/38/9 43/41/12
# 5 triangles in group

g Duplicate02
usemtl needles
f 44/36/1 46/37/8 45/38/9
f 44/36/1 47/39/10 46/37/8
f 44/36/1 48/40/11 47/39/10
f 44/36/1 49/41/12 48/40/11
f 44/36/1 45/38/9 49/41/12
# 5 triangles in group

g Duplicate03
usemtl needles
f 50/36/1 52/37/8 51/38/9
f 50/36/1 53/39/10 52/37/8
f 50/36/1 54/40/11 53/39/10
f 50/36/1 55/41/12 54/40/11
f 50/36/1 51/38/9 55/41/12
# 5 triangles in group

g Duplicate04
usemtl needles
f 56/36/1 58/37/8 57/38/9
f 56/36/1 59/39/10 58/37/8
f 56/36/1 60/40/11 59/39/10
f 56/36/1 61/41/12 60/40/11
f 56/36/1 57/38/9 61/41/12
# 5 triangles in group

g Duplicate05
usemtl needles
f 62/36/1 64/37/8 63/38/9
f 62/36/1 65/39/10 64/37/8
f 62/36/1 66/40/11 65/39/10
f 62/36/1 67/41/12 66/40/11
f 62/36/1 63/38/9 67/41/12
# 5 triangles in group

g Duplicate06
usemtl needles
f 68/36/1 70/37/8 69/38/9
f 68/36/1 71/39/10 70/37/8
f 68/36/1 72/40/11 71/39/10
f 68/36/1 73/41/12 72/40/11
f 68/36/1 69/38/9 73/41/12
# 5 triangles in group

g Duplicate07
usemtl needles
f 74/36/1 76/37/8 75/38/9
f 74/36/1 77/39/10 76/37/8
f 74/36/1 78/40/11 77/39/10
f 74/36/1 79/41/12 78/40/11
f 74/36/1 75/38/9 79/41/12
# 5 triangles in group

g Duplicate08
usemtl needles
f 80/36/1 82/37/8 81/38/9
f 80/36/1 83/39/10 82/37/8
f 80/36/1 84/40/11 83/39/10
f 80/36/1 85/41/12 84/40/11
f 80/36/1 81/38/9 85/41/12
# 5 triangles in group

g Duplicate09
usemtl needles
f 86/36/1 88/37/8 87/38/9
f 86/36/1 89/39/10 88/37/8
f 86/36/1 90/40/11 89/39/10
f 86/36/1 91/41/12 90/40/11
f 86/36/1 87/38/9 91/41/12
# 5 triangles in group

g Duplicate10
usemtl needles
f 92/36/1 94/37/8 93/38/9
f 92/36/1 95/39/10 94/37/8
f 92/36/1 96/40/11 95/39/10
f 92/36/1 97/41/12 96/40/11
f 92/36/1 93/38/9 97/41/12
# 5 triangles in group

g Duplicate11
usemtl needles
f 98/36/1 100/37/8 99/38/9
f 98/36/1 101/39/10 100/37/8
f 98/36/1 102/40/11 101/39/10
f 98/36/1 103/41/12 102/40/11
f 98/36/1 99/38/9 103/41/12
# 5 triangles in group

g Duplicate12
usemtl needles
f 104/36/1 106/37/8 105/38/9
f 104/36/1 107/39/10 106/37/8
f 104/36/1 108/40/11 107/39/10
f 104/36/1 109/41/12 108/40/11
f 104/36/1 105/38/9 109/41/12
# 5 triangles in group

g Duplicate13
usemtl needles
f 110/36/1 112/37/8 111/38/9
f 110/36/1 113/39/10 112/37/8
f 110/36/1 114/40/11 113/39/10
f 110/36/1 115/41/12 114/40/11
f 110/36/1 111/38/9 115/41/12
# 5 triangles in group

# 124 triangles total

