# Wavefront OBJ exported by MilkShape 3D

mtllib firestone.mtl

v -0.000000 5.966145 -1.000000
v -0.000000 -3.466144 -1.000000
v 7.514761 -2.084818 -1.000000
v 2.322189 -1.084818 2.970959
v -2.079570 -3.334818 0.454187
v -4.829570 -3.334818 -3.954188
v 0.822189 -2.084818 -3.220959
v 10.627478 1.250000 -1.000000
v 2.284071 0.750000 5.365784
v -4.347811 1.250000 1.470745
v -8.597811 1.250000 -4.470746
v 3.784071 1.250000 -7.615784
v 6.514761 2.834819 -1.000000
v 2.322189 4.584819 2.970959
v -1.829570 4.584819 0.454187
v -5.329570 3.084819 -3.954188
v 0.822189 4.584819 -3.220959
# 17 vertices

vt 0.000000 0.000000
vt 0.000000 0.250000
vt 0.200000 0.250000
vt 0.000000 1.000000
vt 0.200000 0.750000
vt 0.000000 0.750000
vt 0.200000 0.000000
vt 0.400000 0.250000
vt 0.200000 1.000000
vt 0.400000 0.750000
vt 0.400000 0.000000
vt 0.600000 0.250000
vt 0.400000 1.000000
vt 0.600000 0.750000
vt 0.600000 0.000000
vt 0.800000 0.250000
vt 0.600000 1.000000
vt 0.800000 0.750000
vt 0.800000 0.000000
vt 1.000000 0.250000
vt 0.800000 1.000000
vt 1.000000 0.750000
vt 0.000000 0.500000
vt 0.200000 0.500000
vt 0.400000 0.500000
vt 0.600000 0.500000
vt 0.800000 0.500000
vt 1.000000 0.500000
# 28 texture coordinates

vn 0.164523 -0.986292 -0.012678
vn 0.397336 -0.911528 -0.106020
vn 0.115681 -0.742839 0.659400
vn -0.024073 0.997526 -0.066041
vn 0.038595 0.838485 0.543556
vn 0.393865 0.893493 -0.215732
vn -0.264274 -0.807349 0.527586
vn -0.505907 0.747835 0.429885
vn -0.287816 -0.936637 -0.199682
vn -0.428747 0.873551 -0.230400
vn 0.207115 -0.852818 -0.479380
vn 0.147027 0.849088 -0.507378
vn 0.919651 0.185746 0.346035
vn 0.069741 -0.191016 0.979106
vn -0.674002 0.059647 0.736317
vn -0.847203 0.288198 -0.446306
vn 0.247073 0.108362 -0.962919
# 17 normals

g Sphere10
usemtl Material01
s 1
f 2/1/1 3/2/2 4/3/3
f 1/4/4 14/5/5 13/6/6
f 2/7/1 4/3/3 5/8/7
f 1/9/4 15/10/8 14/5/5
f 2/11/1 5/8/7 6/12/9
f 1/13/4 16/14/10 15/10/8
f 2/15/1 6/12/9 7/16/11
f 1/17/4 17/18/12 16/14/10
f 2/19/1 7/16/11 3/20/2
f 1/21/4 13/22/6 17/18/12
f 3/2/2 8/23/13 4/3/3
f 8/23/13 9/24/14 4/3/3
f 4/3/3 9/24/14 10/25/15
f 4/3/3 10/25/15 5/8/7
f 5/8/7 10/25/15 6/12/9
f 10/25/15 11/26/16 6/12/9
f 6/12/9 11/26/16 12/27/17
f 6/12/9 12/27/17 7/16/11
f 7/16/11 12/27/17 3/20/2
f 12/27/17 8/28/13 3/20/2
f 8/23/13 13/6/6 14/5/5
f 8/23/13 14/5/5 9/24/14
f 9/24/14 14/5/5 10/25/15
f 14/5/5 15/10/8 10/25/15
f 10/25/15 15/10/8 16/14/10
f 10/25/15 16/14/10 11/26/16
f 11/26/16 16/14/10 12/27/17
f 16/14/10 17/18/12 12/27/17
f 12/27/17 17/18/12 13/22/6
f 12/27/17 13/22/6 8/28/13
# 30 triangles in group

# 30 triangles total

