# Wavefront OBJ exported by MilkShape 3D

mtllib flour.mtl

v 10.053047 -1.250000 -0.375000
v 8.351076 1.750000 -0.125000
v 4.441864 6.500000 -0.375000
v -0.000000 9.000000 -0.374999
v 8.706195 -1.250000 4.498814
v 7.232244 1.750000 3.292303
v 4.332129 5.414732 1.664132
v 5.026524 -1.250000 8.066690
v 4.175538 1.750000 5.793940
v 2.220932 5.000000 3.656885
v 1.474373 -4.500000 12.141804
v 0.000000 1.750000 6.709602
v 0.000000 5.000000 4.203266
v -3.485646 -4.250000 9.092716
v -4.175538 1.750000 5.793940
v -2.220932 5.000000 3.656885
v -8.706195 -1.250000 4.498814
v -7.232244 1.750000 3.292303
v -3.332129 4.585268 2.164132
v -10.053047 -1.250000 -0.375000
v -8.351076 1.750000 -0.125000
v -4.441864 6.500000 -0.375000
v -9.256232 -4.250000 -4.683010
v -7.232244 1.750000 -3.542301
v -3.846767 6.500000 -2.414132
v -5.026524 -1.250000 -8.816689
v -4.175538 1.750000 -6.043941
v -2.220932 6.500000 -3.906882
v 0.000000 -1.250000 -10.122623
v -0.000000 1.750000 -6.959602
v -0.000000 6.500000 -4.453267
v 7.107512 -4.250000 -9.242926
v 4.175538 1.750000 -6.043941
v 2.220932 6.500000 -3.906882
v 10.409992 -4.250000 -6.183589
v 7.232244 1.750000 -3.542301
v 3.846767 6.500000 -2.414132
v 0.000000 -1.250000 -0.375000
# 38 vertices

vt 5.210942 -1.738139
vt 5.210942 -4.176332
vt 5.210942 -3.363601
vt 5.471818 -4.176332
vt 5.471818 -3.363601
vt 5.210942 -2.550870
vt 5.471818 -2.550870
vt 5.732698 -3.363601
vt 5.732698 -4.176332
vt 5.732698 -2.550870
vt 5.732698 -1.738139
vt 5.993573 -4.176332
vt 5.993573 -3.363601
vt 5.993573 -2.550870
vt 6.254454 -3.363601
vt 6.254454 -4.176332
vt 6.254454 -2.550870
vt 6.254454 -1.738139
vt 6.515329 -4.176332
vt 6.515329 -3.363601
vt 6.515329 -2.550870
vt 6.776210 -3.363601
vt 6.776210 -4.176332
vt 6.776210 -2.550870
vt 6.776210 -1.738139
vt 7.037086 -4.176332
vt 7.037086 -3.363601
vt 7.037086 -2.550870
vt 7.297963 -3.363601
vt 7.297963 -4.176332
vt 7.297963 -2.550870
vt 7.297963 -1.738139
vt 7.558843 -4.176332
vt 7.558843 -3.363601
vt 7.558843 -2.550870
vt 7.819718 -3.363601
vt 7.819718 -4.176332
vt 7.819718 -2.550870
vt 7.819718 -1.738139
vt 8.080597 -4.176332
vt 8.080597 -3.363601
vt 8.080597 -2.550870
vt 8.341474 -3.363601
vt 8.341474 -4.176332
vt 8.341474 -2.550870
vt 8.341474 -1.738139
# 46 texture coordinates

vn 0.000000 -1.000000 0.000000
vn 1.000000 0.000000 0.000000
vn 0.866025 0.000000 0.500000
vn 0.500000 0.000000 0.866025
vn 0.000000 0.000000 1.000000
vn -0.500000 0.000000 0.866025
vn -0.866025 0.000000 0.500000
vn -1.000000 0.000000 -0.000000
vn -0.866025 0.000000 -0.500000
vn -0.500000 0.000000 -0.866025
vn 0.000000 0.000000 -1.000000
vn 0.500000 0.000000 -0.866025
vn 0.866025 0.000000 -0.500000
# 13 normals

g Cylinder01
usemtl Material01
s 2
f 1/1/1 5/1/1 38/1/1
s 1
f 1/2/2 2/3/2 5/4/3
f 2/3/2 6/5/3 5/4/3
f 2/3/2 3/6/2 7/7/3
f 2/3/2 7/7/3 6/5/3
f 3/6/2 4/1/2 7/7/3
s 2
f 5/1/1 8/1/1 38/1/1
s 1
f 5/4/3 6/5/3 9/8/4
f 5/4/3 9/8/4 8/9/4
f 6/5/3 7/7/3 9/8/4
f 7/7/3 10/10/4 9/8/4
f 7/7/3 4/11/4 10/10/4
s 2
f 8/1/1 11/1/1 38/1/1
s 1
f 8/9/4 9/8/4 11/12/5
f 9/8/4 12/13/5 11/12/5
f 9/8/4 10/10/4 13/14/5
f 9/8/4 13/14/5 12/13/5
f 10/10/4 4/11/4 13/14/5
s 2
f 11/1/1 14/1/1 38/1/1
s 1
f 11/12/5 12/13/5 15/15/6
f 11/12/5 15/15/6 14/16/6
f 12/13/5 13/14/5 15/15/6
f 13/14/5 16/17/6 15/15/6
f 13/14/5 4/18/6 16/17/6
s 2
f 14/1/1 17/1/1 38/1/1
s 1
f 14/16/6 15/15/6 17/19/7
f 15/15/6 18/20/7 17/19/7
f 15/15/6 16/17/6 19/21/7
f 15/15/6 19/21/7 18/20/7
f 16/17/6 4/18/6 19/21/7
s 2
f 17/1/1 20/1/1 38/1/1
s 1
f 17/19/7 18/20/7 21/22/8
f 17/19/7 21/22/8 20/23/8
f 18/20/7 19/21/7 21/22/8
f 19/21/7 22/24/8 21/22/8
f 19/21/7 4/25/8 22/24/8
s 2
f 20/1/1 23/1/1 38/1/1
s 1
f 20/23/8 21/22/8 23/26/9
f 21/22/8 24/27/9 23/26/9
f 21/22/8 22/24/8 25/28/9
f 21/22/8 25/28/9 24/27/9
f 22/24/8 4/25/8 25/28/9
s 2
f 23/1/1 26/1/1 38/1/1
s 1
f 23/26/9 24/27/9 27/29/10
f 23/26/9 27/29/10 26/30/10
f 24/27/9 25/28/9 27/29/10
f 25/28/9 28/31/10 27/29/10
f 25/28/9 4/32/10 28/31/10
s 2
f 26/1/1 29/1/1 38/1/1
s 1
f 26/30/10 27/29/10 29/33/11
f 27/29/10 30/34/11 29/33/11
f 27/29/10 28/31/10 31/35/11
f 27/29/10 31/35/11 30/34/11
f 28/31/10 4/32/10 31/35/11
s 2
f 29/1/1 32/1/1 38/1/1
s 1
f 29/33/11 30/34/11 33/36/12
f 29/33/11 33/36/12 32/37/12
f 30/34/11 31/35/11 33/36/12
f 31/35/11 34/38/12 33/36/12
f 31/35/11 4/39/12 34/38/12
s 2
f 32/1/1 35/1/1 38/1/1
s 1
f 32/37/12 33/36/12 35/40/13
f 33/36/12 36/41/13 35/40/13
f 33/36/12 34/38/12 37/42/13
f 33/36/12 37/42/13 36/41/13
f 34/38/12 4/39/12 37/42/13
s 2
f 35/1/1 1/1/1 38/1/1
s 1
f 35/40/13 36/41/13 2/43/2
f 35/40/13 2/43/2 1/44/2
f 36/41/13 37/42/13 2/43/2
f 37/42/13 3/45/2 2/43/2
f 37/42/13 4/46/2 3/45/2
# 72 triangles in group

# 72 triangles total

