# Wavefront OBJ exported by MilkShape 3D

mtllib flowers06.mtl

v -9.251227 13.083334 7.585413
v 8.251229 13.083334 7.585413
v 8.251229 13.083334 -9.002081
v -9.251227 13.083334 -9.002081
v 3.976908 12.269025 -0.333334
v 3.976908 -4.602355 -0.333334
v -3.976908 12.269025 -0.333334
v -3.976908 -4.602355 -0.333334
v -18.528433 11.790991 -11.757347
v -7.360662 10.412621 -19.796326
v -14.945159 7.200098 -29.781914
v -26.112923 8.578470 -21.742929
v -13.665402 8.595634 -22.433624
v -12.767200 -4.249256 -18.983446
v -18.740480 9.222019 -18.780390
v -17.842278 -3.622863 -15.330210
v -18.785185 9.692813 8.294358
v -28.016127 9.047321 18.571388
v -18.420015 9.718349 27.232862
v -9.189078 10.363838 16.955832
v -21.135818 8.883464 20.196533
v -20.205933 -4.414537 20.196533
v -16.940912 9.176801 15.526239
v -16.011028 -4.121205 15.526239
v 24.636223 12.218020 -10.400587
v 30.261032 8.948226 -22.603632
v 18.435759 7.585556 -27.689186
v 12.810951 10.855351 -15.486140
v 23.242086 8.474740 -21.884769
v 23.242086 -4.401510 -18.434589
v 20.685951 9.960666 -16.339222
v 20.685951 -2.915583 -12.889044
v 22.069508 8.908564 23.009335
v 27.105576 12.099535 10.531352
v 15.398111 10.241934 5.331223
v 10.362041 7.050963 17.809202
v 20.429602 9.814257 10.995479
v 23.391388 -3.014648 8.910135
v 18.141014 8.364153 16.665970
v 21.102798 -4.464750 14.580624
v 6.178997 8.315254 -21.393621
v 10.263123 5.918598 -29.964205
v 1.676891 4.919802 -33.535950
v -2.407233 7.316462 -24.965364
v 5.166725 5.571546 -29.459322
v 5.166725 -3.866347 -27.036158
v 3.310738 6.660685 -25.564512
v 3.310738 -2.777208 -23.141344
v -27.132372 8.348600 8.663815
v -32.375320 5.677176 0.837320
v -39.859146 4.871642 6.389077
v -34.616196 7.543071 14.215573
v -34.567390 5.491868 5.475111
v -32.490330 -3.896721 7.051755
v -32.184788 6.705872 9.031776
v -30.107723 -2.682717 10.608419
v 29.523338 5.681934 -8.866961
v 20.554869 3.010510 -5.984385
v 23.828743 2.204976 2.739796
v 32.797203 4.876405 -0.142775
v 24.408791 2.825202 -2.598888
v 26.496880 -6.563387 -4.160905
v 28.484406 4.039206 -3.908841
v 30.572495 -5.349383 -5.470863
v 1.921688 3.233727 24.187761
v 1.458547 5.624675 14.703664
v -7.815704 4.474892 15.084080
v -7.352565 2.083952 24.568167
v -2.809059 4.041004 17.076042
v -1.840707 -5.300360 14.478583
v -2.598593 2.954472 21.385986
v -1.630231 -6.386898 18.788530
# 72 vertices

vt 0.012902 0.990120
vt 0.012902 0.653331
vt 0.365799 0.990120
vt 0.365799 0.653331
vt 0.787861 0.848047
vt 0.787861 0.019447
vt 0.979800 0.848047
vt 0.979800 0.019447
# 8 texture coordinates

vn 0.000000 1.000000 0.000000
vn 0.000000 0.000000 -1.000000
vn -0.067380 0.963573 -0.258819
vn -0.585931 -0.248179 -0.771423
vn -0.069756 0.997564 -0.000000
vn 0.741335 0.051839 0.669130
vn 0.000000 0.965926 -0.258819
vn -0.913545 -0.105271 -0.392877
vn -0.222182 0.962374 0.156434
vn -0.904445 -0.143506 -0.401729
vn 0.000000 0.963055 -0.269306
vn -0.908826 -0.103744 -0.404070
vn -0.230840 0.957627 -0.172229
vn -0.814435 -0.083757 0.574178
vn -0.229185 0.957627 0.174425
vn 0.327446 -0.083757 0.941150
vn -0.109165 0.962590 0.248000
vn -0.993831 -0.108885 0.021082
# 18 normals

g Box01
usemtl flower
s 3
f 4/1/1 1/2/1 3/3/1
f 1/2/1 2/4/1 3/3/1
# 2 triangles in group

g Box02
usemtl flower
s 1
f 5/5/2 6/6/2 7/7/2
f 6/6/2 8/8/2 7/7/2
# 2 triangles in group

g Duplicate01
usemtl flower
s 3
f 12/1/3 9/2/3 11/3/3
f 9/2/3 10/4/3 11/3/3
s 1
f 13/5/4 14/6/4 15/7/4
f 14/6/4 16/8/4 15/7/4
# 4 triangles in group

g Duplicate02
usemtl flower
s 3
f 20/1/5 17/2/5 19/3/5
f 17/2/5 18/4/5 19/3/5
s 1
f 21/5/6 22/6/6 23/7/6
f 22/6/6 24/8/6 23/7/6
# 4 triangles in group

g Duplicate03
usemtl flower
s 3
f 28/1/7 25/2/7 27/3/7
f 25/2/7 26/4/7 27/3/7
s 1
f 29/5/8 30/6/8 31/7/8
f 30/6/8 32/8/8 31/7/8
# 4 triangles in group

g Duplicate04
usemtl flower
s 3
f 36/1/9 33/2/9 35/3/9
f 33/2/9 34/4/9 35/3/9
s 1
f 37/5/10 38/6/10 39/7/10
f 38/6/10 40/8/10 39/7/10
# 4 triangles in group

g Duplicate08
usemtl flower
s 3
f 44/1/11 41/2/11 43/3/11
f 41/2/11 42/4/11 43/3/11
s 1
f 45/5/12 46/6/12 47/7/12
f 46/6/12 48/8/12 47/7/12
# 4 triangles in group

g Duplicate09
usemtl flower
s 3
f 52/1/13 49/2/13 51/3/13
f 49/2/13 50/4/13 51/3/13
s 1
f 53/5/14 54/6/14 55/7/14
f 54/6/14 56/8/14 55/7/14
# 4 triangles in group

g Duplicate10
usemtl flower
s 3
f 60/1/15 57/2/15 59/3/15
f 57/2/15 58/4/15 59/3/15
s 1
f 61/5/16 62/6/16 63/7/16
f 62/6/16 64/8/16 63/7/16
# 4 triangles in group

g Duplicate11
usemtl flower
s 3
f 68/1/17 65/2/17 67/3/17
f 65/2/17 66/4/17 67/3/17
s 1
f 69/5/18 70/6/18 71/7/18
f 70/6/18 72/8/18 71/7/18
# 4 triangles in group

# 36 triangles total

