# Wavefront OBJ exported by MilkShape 3D

mtllib flowers05.mtl

v 6.672213 20.868736 -0.187097
v 6.672213 -2.736075 -0.187097
v -6.564642 20.868736 -0.187097
v -6.564642 -2.736075 -0.187097
v -0.061721 20.868736 7.371584
v -0.061721 -2.736075 7.371584
v 0.169293 20.868736 -7.745779
v 0.169293 -2.736075 -7.745779
v -3.309952 13.614637 -7.451892
v -0.055998 -2.443554 -3.541673
v -11.354689 11.611373 -9.201983
v -8.100736 -4.446818 -5.291763
v -8.341290 13.284494 -3.717064
v -5.087337 -2.773697 0.193159
v -6.323349 11.941516 -12.936813
v -3.069398 -4.116677 -9.026593
v -17.455620 16.329147 -16.408796
v -17.455620 -3.176952 -16.408796
v -24.276632 16.329147 -10.953313
v -24.276632 -3.176952 -10.953313
v -18.219582 16.329147 -9.219089
v -18.219582 -3.176952 -9.219089
v -23.512667 16.329147 -18.143024
v -23.512667 -3.176952 -18.143024
v 29.798765 18.681349 -11.178079
v 29.798765 -4.533060 -11.178079
v 22.977751 18.681349 -6.063563
v 22.977751 -4.533060 -6.063563
v 29.034801 18.681349 -4.437727
v 29.034801 -4.533060 -4.437727
v 23.741718 18.681349 -12.803916
v 23.741718 -4.533060 -12.803916
v -5.022023 15.480042 17.708336
v -5.022023 -1.331752 17.708336
v -13.575269 15.480042 24.086094
v -13.575269 -1.331752 24.086094
v -5.980001 15.480042 26.113487
v -5.980001 -1.331752 26.113487
v -12.617288 15.480042 15.680932
v -12.617288 -1.331752 15.680932
v 20.574100 15.480042 5.901121
v 20.574100 -1.331752 5.901121
v 12.020854 15.480042 12.278878
v 12.020854 -1.331752 12.278878
v 19.616123 15.480042 14.306274
v 19.616123 -1.331752 14.306274
v 12.978833 15.480042 3.873719
v 12.978833 -1.331752 3.873719
v -5.459807 13.923977 5.514160
v 1.110126 -1.081866 1.712969
v -11.044112 10.249686 11.406796
v -4.474180 -4.756158 7.605601
v -5.625936 12.522440 12.190714
v 0.943997 -2.483407 8.389526
v -10.877982 11.651225 4.730235
v -4.308053 -3.354625 0.929044
v 24.791925 13.923977 -2.456460
v 26.838776 -1.081866 -10.537262
v 24.756376 10.249686 6.227334
v 26.803232 -4.756158 -1.853476
v 28.953491 12.522440 2.235722
v 31.000345 -2.483407 -5.845083
v 20.594805 11.651225 1.535146
v 22.641665 -3.354625 -6.545657
v 11.321306 11.462139 -29.777290
v 11.321306 -3.313851 -29.777290
v 4.273649 11.462139 -24.542709
v 4.273649 -3.313851 -24.542709
v 10.531958 11.462139 -22.878714
v 10.531958 -3.313851 -22.878714
v 5.062999 11.462139 -31.441294
v 5.062999 -3.313851 -31.441294
v 34.321304 11.462139 23.972712
v 34.321304 -3.313851 23.972712
v 27.273649 11.462139 29.207293
v 27.273649 -3.313851 29.207293
v 33.531960 11.462139 30.871288
v 33.531960 -3.313851 30.871288
v 28.063000 11.462139 22.308708
v 28.063000 -3.313851 22.308708
v -26.928696 11.462139 10.972712
v -26.928696 -3.313851 10.972712
v -33.976353 11.462139 16.207293
v -33.976353 -3.313851 16.207293
v -27.718040 11.462139 17.871288
v -27.718040 -3.313851 17.871288
v -33.187000 11.462139 9.308708
v -33.187000 -3.313851 9.308708
# 88 vertices

vt 0.452042 0.978870
vt 0.452042 -0.002342
vt 0.979746 0.978870
vt 0.979746 -0.002342
# 4 texture coordinates

vn 0.000000 0.000000 -1.000000
vn 0.999883 0.000000 0.015280
vn 0.251789 -0.180501 -0.950800
vn 0.955842 0.236250 0.174794
vn -0.624602 0.000000 -0.780943
vn 0.860087 0.000000 -0.510147
vn -0.599907 0.000000 -0.800070
vn 0.845070 0.000000 -0.534655
vn -0.597768 0.000000 -0.801669
vn 0.843721 0.000000 -0.536783
vn -0.683515 -0.116737 -0.720541
vn 0.705587 0.448002 -0.549037
vn -0.992838 -0.108513 -0.049978
vn 0.023990 0.476531 -0.878830
vn -0.596264 0.000000 -0.802789
vn 0.842767 0.000000 -0.538279
# 16 normals

g Box03
usemtl flower
s 1
f 1/1/1 2/2/1 3/3/1
f 2/2/1 4/4/1 3/3/1
# 2 triangles in group

g Duplicate07
usemtl flower
f 5/1/2 6/2/2 7/3/2
f 6/2/2 8/4/2 7/3/2
# 2 triangles in group

g Duplicate08
usemtl flower
f 9/1/3 10/2/3 11/3/3
f 10/2/3 12/4/3 11/3/3
f 13/1/4 14/2/4 15/3/4
f 14/2/4 16/4/4 15/3/4
# 4 triangles in group

g Duplicate09
usemtl flower
f 17/1/5 18/2/5 19/3/5
f 18/2/5 20/4/5 19/3/5
f 21/1/6 22/2/6 23/3/6
f 22/2/6 24/4/6 23/3/6
# 4 triangles in group

g Duplicate10
usemtl flower
f 25/1/7 26/2/7 27/3/7
f 26/2/7 28/4/7 27/3/7
f 29/1/8 30/2/8 31/3/8
f 30/2/8 32/4/8 31/3/8
# 4 triangles in group

g Duplicate11
usemtl flower
f 33/1/9 34/2/9 35/3/9
f 34/2/9 36/4/9 35/3/9
f 37/1/10 38/2/10 39/3/10
f 38/2/10 40/4/10 39/3/10
# 4 triangles in group

g Duplicate12
usemtl flower
f 41/1/9 42/2/9 43/3/9
f 42/2/9 44/4/9 43/3/9
f 45/1/10 46/2/10 47/3/10
f 46/2/10 48/4/10 47/3/10
# 4 triangles in group

g Duplicate13
usemtl flower
f 49/1/11 50/2/11 51/3/11
f 50/2/11 52/4/11 51/3/11
f 53/1/12 54/2/12 55/3/12
f 54/2/12 56/4/12 55/3/12
# 4 triangles in group

g Duplicate14
usemtl flower
f 57/1/13 58/2/13 59/3/13
f 58/2/13 60/4/13 59/3/13
f 61/1/14 62/2/14 63/3/14
f 62/2/14 64/4/14 63/3/14
# 4 triangles in group

g Duplicate15
usemtl flower
f 65/1/15 66/2/15 67/3/15
f 66/2/15 68/4/15 67/3/15
f 69/1/16 70/2/16 71/3/16
f 70/2/16 72/4/16 71/3/16
# 4 triangles in group

g Duplicate16
usemtl flower
f 73/1/15 74/2/15 75/3/15
f 74/2/15 76/4/15 75/3/15
f 77/1/16 78/2/16 79/3/16
f 78/2/16 80/4/16 79/3/16
# 4 triangles in group

g Duplicate17
usemtl flower
f 81/1/15 82/2/15 83/3/15
f 82/2/15 84/4/15 83/3/15
f 85/1/16 86/2/16 87/3/16
f 86/2/16 88/4/16 87/3/16
# 4 triangles in group

# 44 triangles total

