# Wavefront OBJ exported by MilkShape 3D

mtllib flowers01.mtl

v -2.480362 7.940319 3.535281
v 3.427007 6.134254 3.535281
v 3.369251 5.945339 -2.121701
v -2.538119 7.751405 -2.121701
v -1.009748 -1.697345 0.734228
v 1.009748 -1.697345 0.734228
v 1.009748 6.916336 0.679353
v -1.009748 6.916336 0.679353
v -2.280219 6.384384 -8.721673
v 0.237008 4.624608 -4.992515
v 3.523019 3.167991 -7.615516
v 1.005793 4.927768 -11.344675
v -1.252331 -3.636368 -8.106794
v -0.307661 -3.636368 -6.897672
v 0.898418 4.744201 -7.839964
v -0.046251 4.744201 -9.049087
v -11.061846 5.495495 1.505752
v -11.921865 3.735719 -2.910514
v -15.971544 2.279101 -1.779975
v -15.111525 4.038878 2.636294
v -11.767767 -4.525257 0.538127
v -12.164900 -4.525257 -0.943988
v -13.643286 3.855311 -0.547857
v -13.246155 3.855311 0.934256
v 10.067106 6.162161 12.276203
v 12.646481 4.402385 8.589760
v 9.020098 2.945768 6.462004
v 6.440718 4.705545 10.148449
v 10.272781 -3.858591 11.096237
v 11.063055 -3.858591 9.780999
v 9.751129 4.521978 8.992714
v 8.960855 4.521978 10.307948
v 10.573423 7.828828 4.396340
v 9.483451 6.069052 0.031137
v 5.498492 4.612434 1.372068
v 6.588463 6.372211 5.737277
v 9.817826 -2.191924 3.466988
v 9.343670 -2.191924 2.007686
v 7.888044 6.188644 2.480647
v 8.362198 6.188644 3.939946
v -2.102445 8.384384 15.334016
v -6.244614 6.624608 13.577462
v -7.571904 5.167990 17.566986
v -3.429735 6.927767 19.323545
v -3.299388 -1.636369 15.378164
v -4.750191 -1.636369 14.878614
v -5.248486 6.744200 16.325768
v -3.797684 6.744200 16.825315
v -6.977773 8.384384 -13.860974
v -11.893298 6.624608 -15.797821
v -13.468399 5.167990 -11.398815
v -8.552873 6.927767 -9.461965
v -8.398190 -1.636369 -13.812296
v -10.119864 -1.636369 -14.363119
v -10.711192 6.744200 -12.767432
v -8.989522 6.744200 -12.216609
v 17.893858 4.495495 -8.380379
v 15.329034 2.735719 -5.802902
v 17.673073 1.279101 -3.330470
v 20.237902 3.038878 -5.907950
v 17.536407 -5.525257 -7.436026
v 16.718523 -5.525257 -6.491417
v 17.563335 2.855311 -5.581517
v 18.381218 2.855311 -6.526123
# 64 vertices

vt 0.452330 0.971476
vt 0.452330 0.569438
vt 0.825343 0.971476
vt 0.825343 0.569438
vt 0.844606 0.865125
vt 0.844606 0.575753
vt 0.991938 0.865125
vt 0.991938 0.575753
# 8 texture coordinates

vn 0.292194 0.955722 -0.034899
vn 0.000000 0.006371 0.999980
vn 0.467968 0.878233 0.098551
vn -0.775189 0.179658 0.605644
vn -0.392260 0.878233 -0.273566
vn 0.950209 0.179658 -0.254608
vn -0.075700 0.878233 -0.472203
vn 0.843220 0.179658 0.506659
vn -0.406040 0.878233 -0.252662
vn 0.935582 0.179658 -0.303988
vn -0.446146 0.878233 0.172222
vn 0.320269 0.179658 -0.930135
vn -0.388381 0.907263 0.161353
vn 0.298638 0.198800 -0.933431
vn -0.040636 0.843556 0.535502
vn -0.747928 0.145706 -0.647590
# 16 normals

g Box01
usemtl flowers
s 3
f 4/1/1 1/2/1 3/3/1
f 1/2/1 2/4/1 3/3/1
# 2 triangles in group

g Duplicate01
usemtl flowers
f 8/5/2 5/6/2 7/7/2
f 5/6/2 6/8/2 7/7/2
# 2 triangles in group

g Duplicate02
usemtl flowers
f 12/1/3 9/2/3 11/3/3
f 9/2/3 10/4/3 11/3/3
f 16/5/4 13/6/4 15/7/4
f 13/6/4 14/8/4 15/7/4
# 4 triangles in group

g Duplicate03
usemtl flowers
f 20/1/5 17/2/5 19/3/5
f 17/2/5 18/4/5 19/3/5
f 24/5/6 21/6/6 23/7/6
f 21/6/6 22/8/6 23/7/6
# 4 triangles in group

g Duplicate04
usemtl flowers
f 28/1/7 25/2/7 27/3/7
f 25/2/7 26/4/7 27/3/7
f 32/5/8 29/6/8 31/7/8
f 29/6/8 30/8/8 31/7/8
# 4 triangles in group

g Duplicate05
usemtl flowers
f 36/1/9 33/2/9 35/3/9
f 33/2/9 34/4/9 35/3/9
f 40/5/10 37/6/10 39/7/10
f 37/6/10 38/8/10 39/7/10
# 4 triangles in group

g Duplicate06
usemtl flowers
f 44/1/11 41/2/11 43/3/11
f 41/2/11 42/4/11 43/3/11
f 48/5/12 45/6/12 47/7/12
f 45/6/12 46/8/12 47/7/12
# 4 triangles in group

g Duplicate07
usemtl flowers
f 52/1/13 49/2/13 51/3/13
f 49/2/13 50/4/13 51/3/13
f 56/5/14 53/6/14 55/7/14
f 53/6/14 54/8/14 55/7/14
# 4 triangles in group

g Duplicate08
usemtl flowers
f 60/1/15 57/2/15 59/3/15
f 57/2/15 58/4/15 59/3/15
f 64/5/16 61/6/16 63/7/16
f 61/6/16 62/8/16 63/7/16
# 4 triangles in group

# 32 triangles total

