# Wavefront OBJ exported by MilkShape 3D

mtllib flowers04.mtl

v 7.022299 13.902623 -0.056112
v 7.022299 -0.481564 -0.056112
v -6.283791 13.902623 -0.056112
v -6.283791 -0.481564 -0.056112
v 0.369254 13.902623 6.874141
v 0.369254 -0.481564 6.874141
v 0.369255 13.902623 -6.986363
v 0.369255 -0.481564 -6.986363
v -10.412289 12.734438 -19.917976
v -10.412289 0.008231 -19.917976
v -20.811813 12.734438 -13.148874
v -20.811813 0.008231 -13.148874
v -12.362878 12.734438 -11.117010
v -12.362878 0.008231 -11.117010
v -18.861221 12.734438 -21.949844
v -18.861221 0.008231 -21.949844
v 27.857325 10.202857 -13.187624
v 27.857325 -0.173746 -13.187624
v 17.889757 10.202857 -6.969165
v 17.889757 -0.173746 -6.969165
v 25.987759 10.202857 -5.102586
v 25.987759 -0.173746 -5.102586
v 19.759329 10.202857 -15.054202
v 19.759329 -0.173746 -15.054202
v 13.785273 10.202857 13.466108
v 13.785273 -0.173746 13.466108
v 10.762124 10.202857 25.151850
v 10.762124 -0.173746 25.151850
v 17.832108 10.202857 20.634823
v 17.832108 -0.173746 20.634823
v 6.715290 10.202857 17.983137
v 6.715290 -0.173746 17.983137
v -21.299473 10.202857 14.513152
v -21.299473 -0.173746 14.513152
v -11.229228 10.202857 8.476839
v -11.229228 -0.173746 8.476839
v -19.294725 10.202857 6.463334
v -19.294725 -0.173746 6.463334
v -13.233974 10.202857 16.526663
v -13.233974 -0.173746 16.526663
v 6.883421 17.293587 -20.371119
v 6.883421 -0.819776 -20.371119
v 9.836388 17.293587 -5.900961
v 9.836388 -0.819776 -5.900961
v 15.318941 17.293587 -14.416476
v 15.318941 -0.819776 -14.416476
v 1.400869 17.293587 -11.855606
v 1.400869 -0.819776 -11.855606
# 48 vertices

vt 0.015055 0.439033
vt 0.015055 0.022797
vt 0.421944 0.439033
vt 0.421944 0.022797
# 4 texture coordinates

vn 0.000000 0.000000 -1.000000
vn 1.000000 0.000000 0.000000
vn -0.545521 0.000000 -0.838097
vn 0.857540 0.000000 -0.514417
vn -0.529309 0.000000 -0.848429
vn 0.847666 0.000000 -0.530530
vn -0.968127 0.000000 -0.250458
vn 0.232020 0.000000 -0.972711
vn 0.514130 0.000000 0.857712
vn -0.856637 0.000000 0.515919
vn -0.979806 0.000000 0.199952
vn -0.180958 0.000000 -0.983491
# 12 normals

g Box01
usemtl flower
s 1
f 1/1/1 2/2/1 3/3/1
f 2/2/1 4/4/1 3/3/1
# 2 triangles in group

g Duplicate01
usemtl flower
f 5/1/2 6/2/2 7/3/2
f 6/2/2 8/4/2 7/3/2
# 2 triangles in group

g Duplicate02
usemtl flower
f 9/1/3 10/2/3 11/3/3
f 10/2/3 12/4/3 11/3/3
f 13/1/4 14/2/4 15/3/4
f 14/2/4 16/4/4 15/3/4
# 4 triangles in group

g Duplicate03
usemtl flower
f 17/1/5 18/2/5 19/3/5
f 18/2/5 20/4/5 19/3/5
f 21/1/6 22/2/6 23/3/6
f 22/2/6 24/4/6 23/3/6
# 4 triangles in group

g Duplicate04
usemtl flower
f 25/1/7 26/2/7 27/3/7
f 26/2/7 28/4/7 27/3/7
f 29/1/8 30/2/8 31/3/8
f 30/2/8 32/4/8 31/3/8
# 4 triangles in group

g Duplicate05
usemtl flower
f 33/1/9 34/2/9 35/3/9
f 34/2/9 36/4/9 35/3/9
f 37/1/10 38/2/10 39/3/10
f 38/2/10 40/4/10 39/3/10
# 4 triangles in group

g Duplicate06
usemtl flower
f 41/1/11 42/2/11 43/3/11
f 42/2/11 44/4/11 43/3/11
f 45/1/12 46/2/12 47/3/12
f 46/2/12 48/4/12 47/3/12
# 4 triangles in group

# 24 triangles total

