# Wavefront OBJ exported by MilkShape 3D

mtllib flowers09.mtl

v -8.751228 9.833334 7.585413
v 8.751228 9.833334 7.585413
v 8.751228 9.833334 -9.002081
v -8.751228 9.833334 -9.002081
v 3.382777 9.083334 -0.333334
v 3.382777 -2.916667 -0.333334
v -2.882777 9.083334 -0.333334
v -2.882777 -2.916667 -0.333334
v -17.068909 7.166667 -10.753807
v -6.460096 7.166667 -16.878807
v -12.585095 7.166667 -27.487621
v -23.193909 7.166667 -21.362621
v -11.709933 6.416667 -20.487345
v -11.709933 -5.583333 -20.487345
v -17.136061 6.416667 -17.354565
v -17.136061 -5.583333 -17.354565
v -19.656025 7.166667 21.588257
v -25.293081 7.166667 18.512671
v -29.095324 7.166667 23.072418
v -23.458269 7.166667 26.148016
v -25.815928 6.416667 21.341450
v -25.815928 -5.583333 21.341450
v -22.932716 6.416667 22.914530
v -22.932716 -5.583333 22.914530
v 12.355354 7.166667 -9.153212
v 20.552204 7.166667 -18.256739
v 11.448685 7.166667 -26.453590
v 3.251827 7.166667 -17.350067
v 14.444212 6.416667 -20.066378
v 14.444212 -5.583333 -20.066378
v 10.251743 6.416667 -15.410156
v 10.251743 -5.583333 -15.410156
v 8.167929 7.166667 21.762104
v 19.604288 7.166667 17.372093
v 15.214287 7.166667 5.935734
v 3.777921 7.166667 10.325737
v 14.983583 6.416667 12.986722
v 14.983583 -5.583333 12.986722
v 9.134192 6.416667 15.232105
v 9.134192 -5.583333 15.232105
v -31.891857 2.499999 0.989784
v -24.127325 2.499999 -1.977498
v -27.107845 2.499999 -9.707523
v -34.872379 2.499999 -6.740248
v -27.264479 1.749999 -4.941644
v -27.264479 -10.250000 -4.941644
v -31.235826 1.749999 -3.423952
v -31.235826 -10.250000 -3.423952
v -2.234554 4.833333 -31.467793
v 5.044696 4.833333 -34.647022
v 2.250457 4.833333 -42.929195
v -5.028799 4.833333 -39.749966
v 2.103613 4.083332 -37.822895
v 2.103613 -7.916667 -37.822895
v -1.619526 4.083332 -36.196796
v -1.619526 -7.916667 -36.196796
v -8.832069 2.833333 39.095436
v 2.604286 2.833333 34.705429
v -1.785713 2.833333 23.269066
v -13.222080 2.833333 27.659073
v -2.016418 2.083333 30.320053
v -2.016418 -9.916666 30.320053
v -7.865807 2.083333 32.565437
v -7.865807 -9.916666 32.565437
v 22.011377 2.833333 2.675438
v 30.845686 2.833333 -0.913612
v 27.454519 2.833333 -10.263408
v 18.620197 2.833333 -6.674359
v 27.276304 2.083333 -4.498876
v 27.276304 -9.916666 -4.498876
v 22.757792 2.083333 -2.663162
v 22.757792 -9.916666 -2.663162
v -15.613901 9.833334 19.039734
v -8.449271 9.833334 7.573929
v -21.534254 9.833334 -0.602472
v -28.698883 9.833334 10.863333
v -16.893522 9.083334 7.187428
v -16.893522 -2.916667 7.187428
v -19.458330 9.083334 11.291977
v -19.458330 -2.916667 11.291977
# 80 vertices

vt 0.014743 0.965764
vt 0.014743 0.372169
vt 0.599934 0.965764
vt 0.599934 0.372169
vt 0.648680 0.853096
vt 0.648680 0.011419
vt 0.966547 0.853096
vt 0.966547 0.011419
# 8 texture coordinates

vn 0.000000 1.000000 0.000000
vn 0.000000 0.000000 -1.000000
vn -0.500000 0.000000 -0.866025
vn -0.478951 0.000000 0.877842
vn -0.743146 0.000000 -0.669130
vn -0.358370 0.000000 -0.933580
vn -0.356981 0.000000 -0.934112
vn -0.400245 0.000000 -0.916408
vn -0.376389 0.000000 -0.926462
vn -0.848048 0.000000 -0.529920
# 10 normals

g Box01
usemtl flower
s 3
f 4/1/1 1/2/1 3/3/1
f 1/2/1 2/4/1 3/3/1
# 2 triangles in group

g Box02
usemtl flower
s 1
f 5/5/2 6/6/2 7/7/2
f 6/6/2 8/8/2 7/7/2
# 2 triangles in group

g Duplicate06
usemtl flower
s 3
f 12/1/1 9/2/1 11/3/1
f 9/2/1 10/4/1 11/3/1
s 1
f 13/5/3 14/6/3 15/7/3
f 14/6/3 16/8/3 15/7/3
# 4 triangles in group

g Duplicate07
usemtl flower
s 3
f 20/1/1 17/2/1 19/3/1
f 17/2/1 18/4/1 19/3/1
s 1
f 21/5/4 22/6/4 23/7/4
f 22/6/4 24/8/4 23/7/4
# 4 triangles in group

g Duplicate08
usemtl flower
s 3
f 28/1/1 25/2/1 27/3/1
f 25/2/1 26/4/1 27/3/1
s 1
f 29/5/5 30/6/5 31/7/5
f 30/6/5 32/8/5 31/7/5
# 4 triangles in group

g Duplicate09
usemtl flower
s 3
f 36/1/1 33/2/1 35/3/1
f 33/2/1 34/4/1 35/3/1
s 1
f 37/5/6 38/6/6 39/7/6
f 38/6/6 40/8/6 39/7/6
# 4 triangles in group

g Duplicate10
usemtl flower
s 3
f 44/1/1 41/2/1 43/3/1
f 41/2/1 42/4/1 43/3/1
s 1
f 45/5/7 46/6/7 47/7/7
f 46/6/7 48/8/7 47/7/7
# 4 triangles in group

g Duplicate11
usemtl flower
s 3
f 52/1/1 49/2/1 51/3/1
f 49/2/1 50/4/1 51/3/1
s 1
f 53/5/8 54/6/8 55/7/8
f 54/6/8 56/8/8 55/7/8
# 4 triangles in group

g Duplicate12
usemtl flower
s 3
f 60/1/1 57/2/1 59/3/1
f 57/2/1 58/4/1 59/3/1
s 1
f 61/5/6 62/6/6 63/7/6
f 62/6/6 64/8/6 63/7/6
# 4 triangles in group

g Duplicate13
usemtl flower
s 3
f 68/1/1 65/2/1 67/3/1
f 65/2/1 66/4/1 67/3/1
s 1
f 69/5/9 70/6/9 71/7/9
f 70/6/9 72/8/9 71/7/9
# 4 triangles in group

g Duplicate14
usemtl flower
s 3
f 76/1/1 73/2/1 75/3/1
f 73/2/1 74/4/1 75/3/1
s 1
f 77/5/10 78/6/10 79/7/10
f 78/6/10 80/8/10 79/7/10
# 4 triangles in group

# 40 triangles total

