# Wavefront OBJ exported by MilkShape 3D

mtllib flowers03.mtl

v 7.282985 14.737434 -0.884316
v 7.282985 -3.298006 -0.884316
v -8.084492 14.737434 -0.884316
v -8.084492 -3.298006 -0.884316
v -0.400752 14.737434 6.829555
v -0.400752 -3.298006 6.829555
v -0.400752 14.737434 -8.598188
v -0.400752 -3.298006 -8.598188
v -10.523986 14.409132 -25.929098
v -10.523986 -3.626308 -25.929098
v -24.092665 14.409132 -18.686214
v -24.092665 -3.626308 -18.686214
v -13.701029 14.409132 -15.496715
v -13.701029 -3.626308 -15.496715
v -20.915621 14.409132 -29.118601
v -20.915621 -3.626308 -29.118601
v -20.809788 12.134357 -2.069002
v -20.809788 -1.351537 -2.069002
v -16.433281 12.134357 -14.531171
v -16.433281 -1.351537 -14.531171
v -25.356279 12.134357 -10.324693
v -25.356279 -1.351537 -10.324693
v -11.886785 12.134357 -6.275486
v -11.886785 -1.351537 -6.275486
v 25.311024 12.134357 -14.552170
v 25.311024 -1.351537 -14.552170
v 15.910180 12.134357 -23.800936
v 15.910180 -1.351537 -23.800936
v 15.936629 12.134357 -13.904497
v 15.936629 -1.351537 -13.904497
v 25.284573 12.134357 -24.448606
v 25.284573 -1.351537 -24.448606
v 15.399348 12.134357 22.846649
v 15.399348 -1.351537 22.846649
v 2.840683 12.134357 18.890574
v 2.840683 -1.351537 18.890574
v 7.339586 12.134357 27.696306
v 7.339586 -1.351537 27.696306
v 10.900440 12.134357 14.040921
v 10.900440 -1.351537 14.040921
# 40 vertices

vt 0.441598 0.991250
vt 0.441598 0.473794
vt 0.009251 0.991250
vt 0.009251 0.473794
# 4 texture coordinates

vn 0.000000 0.000000 -1.000000
vn 1.000000 0.000000 0.000000
vn -0.470905 0.000000 -0.882184
vn 0.883707 0.000000 -0.468040
vn 0.943510 0.000000 0.331345
vn -0.287893 0.000000 0.957663
vn 0.701317 0.000000 -0.712849
vn 0.748276 0.000000 0.663388
vn 0.300453 0.000000 -0.953797
vn 0.967642 0.000000 0.252328
# 10 normals

g Box01
usemtl flower
s 1
f 1/1/1 2/2/1 3/3/1
f 2/2/1 4/4/1 3/3/1
# 2 triangles in group

g Duplicate01
usemtl flower
f 5/1/2 6/2/2 7/3/2
f 6/2/2 8/4/2 7/3/2
# 2 triangles in group

g Duplicate02
usemtl flower
f 9/1/3 10/2/3 11/3/3
f 10/2/3 12/4/3 11/3/3
f 13/1/4 14/2/4 15/3/4
f 14/2/4 16/4/4 15/3/4
# 4 triangles in group

g Duplicate03
usemtl flower
f 17/1/5 18/2/5 19/3/5
f 18/2/5 20/4/5 19/3/5
f 21/1/6 22/2/6 23/3/6
f 22/2/6 24/4/6 23/3/6
# 4 triangles in group

g Duplicate04
usemtl flower
f 25/1/7 26/2/7 27/3/7
f 26/2/7 28/4/7 27/3/7
f 29/1/8 30/2/8 31/3/8
f 30/2/8 32/4/8 31/3/8
# 4 triangles in group

g Duplicate05
usemtl flower
f 33/1/9 34/2/9 35/3/9
f 34/2/9 36/4/9 35/3/9
f 37/1/10 38/2/10 39/3/10
f 38/2/10 40/4/10 39/3/10
# 4 triangles in group

# 20 triangles total

