# Wavefront OBJ exported by MilkShape 3D

mtllib fungus05.mtl

v 3.137763 -3.264720 0.121809
v 1.568882 -3.264720 2.839191
v 0.000000 -4.913529 -0.067566
v 3.998858 4.634086 0.121809
v 1.999429 4.634086 3.584921
v 1.872365 15.532890 0.121809
v 0.936182 15.532890 1.636041
v -1.568882 -3.264720 2.839191
v -1.999429 4.634086 3.584921
v -0.936182 15.532890 1.636041
v -3.137763 -3.264720 0.121809
v 0.000000 -4.913529 -0.067566
v -3.998858 4.634086 0.121809
v -1.872365 15.532890 0.121809
v -1.568882 -3.264720 -2.595573
v -1.999429 4.634086 -3.341303
v -0.936182 15.532890 -1.392423
v 1.568882 -3.264720 -2.595573
v 0.000000 -4.913529 -0.067566
v 1.999429 4.634086 -3.341303
v 0.936182 15.532890 -1.392423
v 3.137763 -3.264720 0.121809
v 3.998858 4.634086 0.121809
v 1.872365 15.532890 0.121809
v 0.000000 24.998577 -0.500000
v 2.963006 19.886122 2.774178
v 4.752292 19.886122 -0.809524
v -1.057485 19.886122 3.659281
v -4.281667 19.886122 1.179281
v -4.281667 19.886122 -2.798329
v -1.057485 19.886122 -5.278327
v 2.963006 19.886122 -4.393226
v 8.137845 11.380129 -0.608266
v 9.754464 12.371419 0.000000
v 5.597568 10.946924 5.634422
v 6.130086 13.244557 7.921563
v -2.110371 14.102835 9.878025
v -1.157796 10.391335 7.697031
v -7.041315 10.131735 4.026369
v -8.761675 14.299953 4.396134
v -8.815259 13.687478 -4.396136
v -7.622579 10.363604 -2.613480
v -2.463886 10.912340 -7.222567
v -2.230775 12.726614 -9.878027
v 6.033530 12.140913 -7.921563
v 4.550163 11.364737 -6.330166
# 46 vertices

vt 0.000000 0.333333
vt 0.166667 0.333333
vt 0.166667 0.000000
vt 0.000000 0.666667
vt 0.166667 0.666667
vt 0.000000 1.000000
vt 0.166667 1.000000
vt 0.333333 0.333333
vt 0.333333 0.666667
vt 0.333333 1.000000
vt 0.500000 0.333333
vt 0.500000 0.000000
vt 0.500000 0.666667
vt 0.500000 1.000000
vt 0.666667 0.333333
vt 0.666667 0.666667
vt 0.666667 1.000000
vt 0.833333 0.333333
vt 0.833333 0.000000
vt 0.833333 0.666667
vt 0.833333 1.000000
vt 1.000000 0.333333
vt 1.000000 0.666667
vt 1.000000 1.000000
vt 0.473952 0.500000
vt 0.637945 0.299516
vt 0.736976 0.500000
vt 0.415424 0.250000
vt 0.236976 0.388740
vt 0.236976 0.611261
vt 0.415424 0.750000
vt 0.637945 0.700485
vt 1.000000 0.500000
vt 0.929523 0.500000
vt 0.899594 0.044344
vt 0.855652 0.098063
vt 0.372578 0.066988
vt 0.356896 0.000000
vt 0.007813 0.164198
vt 0.071310 0.194010
vt 0.063498 0.692709
vt 0.000000 0.722521
vt 0.267052 0.992188
vt 0.282735 0.925200
vt 0.836121 0.894125
vt 0.930844 0.979094
# 46 texture coordinates

vn 1.000000 0.000000 -0.000000
vn 0.500000 0.000000 0.866025
vn -0.500000 0.000000 0.866025
vn -1.000000 0.000000 -0.000000
vn -0.500000 0.000000 -0.866025
vn 0.500000 0.000000 -0.866025
vn 0.000000 1.000000 0.000000
vn 0.311745 0.866025 0.390916
vn 0.500000 0.866025 0.000000
vn -0.111260 0.866025 0.487464
vn -0.450484 0.866025 0.216942
vn -0.450484 0.866025 -0.216942
vn -0.111260 0.866025 -0.487464
vn 0.311745 0.866025 -0.390916
vn 0.866025 0.500000 0.000000
vn 0.623490 0.000000 0.781831
vn 0.539958 0.500000 0.677086
vn -0.192709 0.500000 0.844312
vn -0.222521 0.000000 0.974928
vn -0.900969 0.000000 0.433884
vn -0.780262 0.500000 0.375754
vn -0.780262 0.500000 -0.375754
vn -0.900969 0.000000 -0.433884
vn -0.222521 0.000000 -0.974928
vn -0.192709 0.500000 -0.844312
vn 0.539958 0.500000 -0.677086
vn 0.623490 0.000000 -0.781831
# 27 normals

g Cylinder03
usemtl Material01
s 1
f 1/1/1 2/2/2 3/3/2
f 1/1/1 4/4/1 5/5/2
f 1/1/1 5/5/2 2/2/2
f 4/4/1 6/6/1 5/5/2
f 6/6/1 7/7/2 5/5/2
f 3/3/2 2/2/2 8/8/3
f 2/2/2 5/5/2 8/8/3
f 5/5/2 9/9/3 8/8/3
f 5/5/2 7/7/2 10/10/3
f 5/5/2 10/10/3 9/9/3
f 8/8/3 11/11/4 12/12/4
f 8/8/3 9/9/3 13/13/4
f 8/8/3 13/13/4 11/11/4
f 9/9/3 10/10/3 13/13/4
f 10/10/3 14/14/4 13/13/4
f 12/12/4 11/11/4 15/15/5
f 11/11/4 13/13/4 15/15/5
f 13/13/4 16/16/5 15/15/5
f 13/13/4 14/14/4 17/17/5
f 13/13/4 17/17/5 16/16/5
f 15/15/5 18/18/6 19/19/6
f 15/15/5 16/16/5 20/20/6
f 15/15/5 20/20/6 18/18/6
f 16/16/5 17/17/5 20/20/6
f 17/17/5 21/21/6 20/20/6
f 19/19/6 18/18/6 22/22/1
f 18/18/6 20/20/6 22/22/1
f 20/20/6 23/23/1 22/22/1
f 20/20/6 21/21/6 24/24/1
f 20/20/6 24/24/1 23/23/1
# 30 triangles in group

g Sphere02
usemtl Material02
f 25/25/7 26/26/8 27/27/9
f 25/25/7 28/28/10 26/26/8
f 25/25/7 29/29/11 28/28/10
f 25/25/7 30/30/12 29/29/11
f 25/25/7 31/31/13 30/30/12
f 25/25/7 32/32/14 31/31/13
f 25/25/7 27/27/9 32/32/14
f 33/33/1 34/34/15 35/35/16
f 34/34/15 36/36/17 35/35/16
f 35/35/16 36/36/17 37/37/18
f 35/35/16 37/37/18 38/38/19
f 38/38/19 37/37/18 39/39/20
f 37/37/18 40/40/21 39/39/20
f 39/39/20 40/40/21 41/41/22
f 39/39/20 41/41/22 42/42/23
f 42/42/23 41/41/22 43/43/24
f 41/41/22 44/44/25 43/43/24
f 43/43/24 44/44/25 45/45/26
f 43/43/24 45/45/26 46/46/27
f 46/46/27 45/45/26 33/33/1
f 45/45/26 34/34/15 33/33/1
f 34/34/15 27/27/9 26/26/8
f 34/34/15 26/26/8 36/36/17
f 36/36/17 26/26/8 37/37/18
f 26/26/8 28/28/10 37/37/18
f 37/37/18 28/28/10 29/29/11
f 37/37/18 29/29/11 40/40/21
f 40/40/21 29/29/11 41/41/22
f 29/29/11 30/30/12 41/41/22
f 41/41/22 30/30/12 31/31/13
f 41/41/22 31/31/13 44/44/25
f 44/44/25 31/31/13 45/45/26
f 31/31/13 32/32/14 45/45/26
f 45/45/26 32/32/14 27/27/9
f 45/45/26 27/27/9 34/34/15
# 35 triangles in group

# 65 triangles total

