# Wavefront OBJ exported by MilkShape 3D

mtllib gate.mtl

v 0.162146 32.359932 4.754925
v 0.237366 73.858452 4.878841
v 1.769996 30.859932 6.815136
v 1.845216 73.858452 7.189054
v 0.683361 30.859932 9.650792
v 0.758581 73.858452 10.024704
v -1.596066 30.859932 9.093111
v -1.520846 73.858452 9.467024
v -1.918195 32.359932 6.162785
v -1.842974 73.858452 6.286701
v -0.104532 79.958000 7.569264
v -0.179751 30.859932 7.195351
v 2.293535 31.270725 2.867973
v 2.293535 70.590843 2.843954
v 0.933052 31.270725 5.466190
v 0.933052 70.590843 5.442173
v -1.268255 31.270725 4.473761
v -1.268255 70.590843 4.449740
v -1.268255 32.270725 1.262185
v -1.268255 70.590843 1.238167
v 0.933052 32.270725 0.269754
v 0.933052 70.590843 0.245735
v 0.324625 76.690376 2.843954
v 0.324626 31.270725 2.867973
v -0.206050 32.270725 1.138958
v -0.277948 72.769264 1.208555
v -1.577159 32.270725 -1.833797
v -1.649058 72.769264 -1.764200
v -0.270386 31.270725 -4.882917
v -0.342284 72.769264 -4.813323
v 1.908353 31.270725 -3.794628
v 1.836457 72.769264 -3.725032
v 1.948115 32.270725 -0.072903
v 1.876217 72.769264 -0.003305
v 0.288676 78.868782 -1.819461
v 0.360575 32.270725 -1.889057
v 2.293535 31.270725 -6.316961
v 2.293534 70.590843 -6.340979
v 0.933052 31.270725 -3.718743
v 0.933052 70.590843 -3.742763
v -1.268255 31.270725 -4.711173
v -1.268255 70.590843 -4.735192
v -1.268255 31.270725 -7.922748
v -1.268255 70.590843 -7.946768
v 0.933052 29.770725 -9.165178
v 0.933052 70.590843 -8.939198
v 0.324625 76.690376 -6.340979
v 0.324626 31.270725 -6.316961
v -0.490785 28.815338 -14.443877
v -0.419965 73.313850 -14.128061
v 1.755055 28.815338 -13.666926
v 1.825873 73.313850 -13.351112
v 1.916511 30.315338 -10.463175
v 1.987332 73.313850 -10.147360
v -0.187107 30.315338 -8.318048
v -0.116288 73.313850 -8.002241
v -1.717330 28.815338 -11.720304
v -1.646511 73.313850 -11.404491
v 0.317601 79.413383 -11.595067
v 0.246782 28.815338 -11.910876
v 0.270449 -22.980040 -14.164527
v 0.324769 60.219963 -14.325305
v -2.588709 -22.980040 -16.021278
v -2.534389 60.219963 -16.182064
v -1.706355 -22.980040 -19.314272
v -1.652034 60.219963 -19.475056
v 1.698127 -22.980040 -19.492693
v 1.752448 60.219963 -19.653477
v 2.919859 -22.980040 -16.309973
v 2.974179 60.219963 -16.470757
v 0.172995 65.819962 -17.221329
v 0.118675 -22.980040 -17.060549
v 0.207169 -22.980040 -19.244589
v 0.264218 60.219963 -19.385948
v -2.930975 -22.980040 -20.576647
v -2.873925 60.219963 -20.718014
v -2.633848 -22.980040 -23.972830
v -2.576799 60.219963 -24.114189
v 0.687930 -22.980040 -24.739721
v 0.744980 60.219963 -24.881084
v 2.443774 -22.980040 -21.817507
v 2.500824 60.219963 -21.958870
v -0.388140 65.819962 -22.211620
v -0.445188 -22.980040 -22.070261
v -1.488097 29.904535 11.681025
v -1.473521 72.224663 11.696990
v 0.204689 31.404535 9.490737
v 0.219263 72.224663 9.506701
v 2.229077 29.904535 11.047738
v 2.243652 72.224663 11.063703
v 1.787432 29.904535 14.200310
v 1.802008 72.224663 14.216275
v -0.509908 29.904535 14.591701
v -0.495334 72.224663 14.607666
v 0.459212 78.324181 12.218269
v 0.444638 29.904535 12.202302
v -2.316715 -23.230040 16.095821
v -2.083918 59.719963 15.838142
v 0.925587 -23.230040 15.042338
v 1.158382 59.719963 14.784648
v 2.929439 -23.230040 17.800406
v 3.162234 59.719963 17.542717
v 0.925587 -23.230040 20.558474
v 1.158385 59.719963 20.300785
v -2.316714 -23.230040 19.504980
v -2.083920 59.719963 19.247292
v 0.262230 65.319962 17.542713
v 0.029437 -23.230040 17.800406
v -0.267506 -20.730040 19.917196
v 0.011593 58.219963 19.504456
v 2.418942 -20.730040 22.016085
v 2.698048 58.219963 21.603336
v 1.252944 -20.730040 25.219645
v 1.532047 58.219963 24.806900
v -2.154138 -20.730040 25.100664
v -1.875033 58.219963 24.687923
v -3.093824 -20.730040 21.823568
v -2.814725 58.219963 21.410828
v -0.089611 63.819962 22.402683
v -0.368718 -20.730040 22.815432
v -5.647059 34.466568 -22.956688
v -5.734097 34.770409 22.378429
v -3.490818 36.754715 -23.008087
v -3.577860 37.058556 22.327045
v -1.294648 35.095863 -23.086525
v -1.381674 35.399689 22.248547
v -2.093591 31.782476 -23.083618
v -2.180618 32.086319 22.251499
v -4.783521 31.393560 -23.003372
v -4.870580 31.697401 22.331753
v -3.536978 34.199928 25.522442
v -3.158524 33.834145 -25.912834
v 6.223952 33.640709 -22.956688
v 6.347374 33.349747 22.378429
v 4.362641 31.106848 -23.008087
v 4.486060 30.815878 22.327045
v 1.980676 32.485676 -23.086525
v 2.104083 32.194725 22.248547
v 2.369859 35.871735 -23.083618
v 2.493270 35.580765 22.251499
v 4.992347 36.585579 -23.003372
v 5.115788 36.294609 22.331753
v 4.097102 33.648209 25.522442
v 3.676895 33.965149 -25.912834
v -5.647059 56.549904 -23.556690
v -5.734097 56.853737 21.778427
v -3.490818 58.838043 -23.608089
v -3.577860 59.141888 21.727043
v -1.294648 57.179192 -23.686527
v -1.381674 57.483021 21.648544
v -2.093591 53.865807 -23.683620
v -2.180618 54.169647 21.651497
v -4.783521 53.476891 -23.603373
v -4.870580 53.780731 21.731750
v -3.536978 56.283260 24.922440
v -3.158524 55.917473 -26.512835
v 6.223952 55.724037 -23.556690
v 6.347374 55.433079 21.778427
v 4.362641 53.190178 -23.608089
v 4.486060 52.899208 21.727043
v 1.980676 54.569016 -23.686527
v 2.104083 54.278061 21.648544
v 2.369859 57.955067 -23.683620
v 2.493270 57.664093 21.651497
v 4.992347 58.668911 -23.603373
v 5.115788 58.377937 21.731750
v 4.097102 55.731537 24.922440
v 3.676895 56.048477 -26.512835
# 168 vertices

vt 0.000000 1.000000
vt 0.645986 0.526445
vt 0.378701 0.526445
vt 0.461292 0.246020
vt 0.000000 0.000000
vt 0.200000 0.000000
vt 0.200000 1.000000
vt 0.162455 0.353132
vt 0.400000 1.000000
vt 0.400000 0.000000
vt 0.162455 0.699757
vt 0.600000 0.000000
vt 0.600000 1.000000
vt 0.461292 0.806868
vt 0.800000 1.000000
vt 0.800000 0.000000
vt 1.000000 0.000000
vt 1.000000 1.000000
vt 0.529484 0.140894
vt 0.803912 0.352912
vt 0.519145 0.484175
vt 0.684803 0.676519
vt 0.336760 0.664499
vt 0.240768 0.333466
# 24 texture coordinates

vn -0.231458 -0.814004 -0.532752
vn -0.053999 -0.959378 -0.276908
vn -0.198321 -0.933443 -0.298919
vn 0.171731 0.405617 -0.897766
vn -0.021276 0.999638 0.016497
vn 0.944305 0.308919 -0.113392
vn -0.144816 0.003217 -0.989453
vn 0.461791 0.003271 -0.886983
vn 0.990961 -0.001582 -0.134143
vn 0.992684 -0.000687 -0.120743
vn 0.000000 -1.000000 0.000000
vn 0.435887 0.388493 0.811835
vn 0.463946 -0.008515 0.885823
vn -0.252448 -0.949091 -0.188404
vn -0.711409 0.354067 0.607070
vn -0.752975 -0.004194 0.658035
vn -0.754505 -0.004387 0.656280
vn -0.419597 -0.791811 -0.443817
vn -0.858142 0.327688 -0.395238
vn -0.906812 0.002716 -0.421527
vn -0.907790 0.002898 -0.419416
vn 0.000000 -0.983174 -0.182670
vn -0.094680 -0.972785 -0.211481
vn 0.951649 0.307189 -0.000000
vn -0.027773 0.999614 -0.000000
vn 0.306484 0.398750 0.864330
vn 0.985101 -0.000108 -0.171976
vn 0.985107 0.000105 0.171941
vn 0.326351 0.000577 0.945249
vn -0.146711 -0.978415 -0.145531
vn -0.793815 0.340044 0.504211
vn -0.839940 0.000331 0.542679
vn -0.231944 -0.912136 -0.337951
vn -0.793815 0.340044 -0.504211
vn -0.839940 -0.000340 -0.542679
vn -0.088077 -0.922549 -0.375695
vn 0.306484 0.398750 -0.864330
vn 0.326327 -0.000590 -0.945257
vn 0.004551 -0.987172 0.159594
vn -0.091931 -0.978273 0.185822
vn -0.288772 0.447102 0.846588
vn 0.056556 0.998390 -0.004367
vn -0.952951 0.302855 0.012769
vn 0.033537 -0.001658 0.999436
vn -0.612916 -0.002446 0.790144
vn -0.999905 -0.001792 0.013697
vn -0.081905 -0.939987 0.331233
vn -0.322546 0.443750 -0.836092
vn -0.344210 0.000970 -0.938892
vn -0.230477 -0.926073 0.298780
vn 0.798611 0.354580 -0.486306
vn 0.847659 0.002371 -0.530536
vn -0.146602 -0.980860 0.128148
vn 0.816539 0.349364 0.459576
vn 0.865966 0.000665 0.500102
vn 0.000000 -0.970772 0.240002
vn -0.077127 -0.981879 0.173104
vn 0.987194 0.000883 -0.159522
vn -0.193332 -0.962208 0.191778
vn -0.851753 0.001255 -0.523942
vn -0.189588 -0.884870 0.425513
vn 0.314462 0.002260 -0.949267
vn 0.301758 0.005278 -0.953370
vn 0.222850 -0.955878 0.191406
vn 0.180431 -0.953984 0.239498
vn -0.372069 0.394003 -0.840432
vn 0.128310 0.974106 -0.186156
vn 0.754855 0.346913 -0.556638
vn -0.646462 0.006443 -0.762919
vn -0.111409 0.007230 -0.993748
vn 0.799764 0.002975 -0.600307
vn 0.413834 -0.827302 0.379887
vn 0.887444 0.321358 0.330413
vn 0.934905 -0.004135 0.354875
vn 0.223590 -0.889548 0.398387
vn -0.161347 0.509377 0.845283
vn -0.175434 -0.006919 0.984467
vn 0.019252 -0.979928 0.198418
vn -0.951881 0.306462 -0.001717
vn -0.999999 0.001578 -0.000091
vn 0.046474 0.459854 0.886778
vn 0.000000 1.000000 0.000000
vn -0.829014 0.459854 0.318229
vn 0.285920 0.001665 0.958252
vn -0.184187 0.002020 0.982889
vn -0.933580 0.001302 0.358367
vn -0.558833 0.459855 -0.690101
vn -0.629321 -0.001091 -0.777145
vn 0.483636 0.459855 -0.744734
vn 0.544638 -0.001976 -0.838669
vn 0.857737 0.459854 0.229830
vn 0.965926 -0.000130 0.258819
vn 0.199755 0.459854 0.865235
vn -0.761160 0.459854 0.457351
vn 0.447975 0.001212 0.894045
vn -0.010712 0.001706 0.999941
vn -0.857167 0.001463 0.515037
vn -0.670178 0.459854 -0.582577
vn -0.754710 -0.000597 -0.656059
vn 0.346967 0.459854 -0.817403
vn 0.390730 -0.001832 -0.920503
vn 0.884615 0.459854 0.077394
vn 0.996195 -0.000535 0.087156
vn 0.068300 -0.964991 -0.253236
vn -0.079535 -0.875228 -0.477126
vn -0.032360 -0.980442 -0.194127
vn -0.937715 0.310455 -0.155909
vn 0.015930 0.999652 0.021023
vn -0.120427 0.407218 -0.905357
vn -0.999954 0.000341 0.009610
vn -0.941684 0.000458 -0.336497
vn -0.128299 0.000426 -0.991735
vn -0.149420 -0.961427 -0.230936
vn 0.877669 0.323672 -0.353460
vn 0.925675 -0.000175 -0.378319
vn 0.675970 0.359530 0.643275
vn 0.717481 -0.000510 0.696578
vn -0.482298 0.383927 0.787393
vn -0.513209 -0.000147 0.858264
vn -0.718403 0.459854 -0.521950
vn 0.274405 0.459855 -0.844533
vn -0.924637 0.001412 -0.380848
vn -0.647936 -0.000548 -0.761695
vn 0.309013 -0.003822 -0.951050
vn 0.887994 0.459855 -0.000000
vn 0.999996 -0.002806 0.000003
vn 0.274405 0.459856 0.844532
vn 0.309018 0.002087 0.951054
vn -0.718403 0.459854 0.521949
vn -0.809011 0.004096 0.587779
vn 0.030990 0.459854 -0.887454
vn 0.853595 0.459854 -0.244765
vn -0.201316 -0.004409 -0.979516
vn 0.269142 -0.005986 -0.963082
vn 0.961252 -0.004839 -0.275628
vn 0.496560 0.459855 0.736180
vn 0.559195 0.002357 0.829033
vn -0.546703 0.459856 0.699749
vn -0.615650 0.006296 0.787994
vn -0.834441 0.459855 -0.303712
vn -0.939690 0.001534 -0.342024
vn -0.733491 0.178888 -0.655736
vn -0.068397 0.699609 -0.711245
vn 0.023064 -0.005465 -0.999719
vn -0.787490 0.192983 0.585335
vn 0.024514 -0.005969 0.999682
vn -0.061629 0.743480 0.665912
vn -0.998514 0.054450 -0.002282
vn -0.910118 0.414325 -0.004524
vn -0.084083 0.996435 -0.006840
vn 0.752771 0.251079 -0.608519
vn 0.764862 0.248165 0.594475
vn 0.941515 0.336972 -0.000451
vn 0.544073 -0.568519 -0.617066
vn 0.557468 -0.572578 0.601152
vn 0.673533 -0.739131 0.006247
vn -0.394890 -0.583272 -0.709828
vn -0.409752 -0.626722 0.662814
vn -0.545124 -0.838343 0.004572
vn 0.749825 -0.088166 -0.655736
vn 0.153149 -0.686059 -0.711244
vn -0.023557 0.002612 -0.999719
vn 0.805138 -0.095574 0.585336
vn -0.025059 0.002936 0.999682
vn 0.151777 -0.730429 0.665911
vn 0.997707 0.067644 -0.002282
vn 0.953827 -0.300322 -0.004524
vn 0.204892 -0.978761 -0.006840
vn -0.716559 -0.340949 -0.608520
vn -0.728917 -0.339530 0.594474
vn -0.893429 -0.449204 -0.000451
vn -0.609304 0.497974 -0.617066
vn -0.623093 0.500372 0.601152
vn -0.758591 0.651537 0.006247
vn 0.320863 0.627049 -0.709828
vn 0.330319 0.671986 0.662815
vn 0.438892 0.898528 0.004572
# 177 normals

g Cylinder01
usemtl wood
s 2
f 1/1/1 3/1/2 12/1/3
f 2/2/4 11/3/5 4/4/6
s 1
f 1/5/7 2/1/8 3/6/9
f 2/1/8 4/7/10 3/6/9
s 2
f 3/1/2 5/1/11 12/1/3
f 4/4/6 11/3/5 6/8/12
s 1
f 3/6/9 4/7/10 6/9/13
f 3/6/9 6/9/13 5/10/13
s 2
f 5/1/11 7/1/14 12/1/3
f 6/8/12 11/3/5 8/11/15
s 1
f 5/10/13 6/9/13 7/12/16
f 6/9/13 8/13/17 7/12/16
s 2
f 7/1/14 9/1/18 12/1/3
f 8/11/15 11/3/5 10/14/19
s 1
f 7/12/16 8/13/17 10/15/20
f 7/12/16 10/15/20 9/16/21
s 2
f 9/1/18 1/1/1 12/1/3
f 10/14/19 11/3/5 2/2/4
s 1
f 9/16/21 10/15/20 1/17/7
f 10/15/20 2/18/8 1/17/7
# 20 triangles in group

g Duplicate05
usemtl wood
s 2
f 13/1/22 15/1/11 24/1/23
f 14/2/24 23/3/25 16/4/26
s 1
f 13/5/27 14/1/28 15/6/29
f 14/1/28 16/7/29 15/6/29
s 2
f 15/1/11 17/1/30 24/1/23
f 16/4/26 23/3/25 18/8/31
s 1
f 15/6/29 16/7/29 18/9/32
f 15/6/29 18/9/32 17/10/32
s 2
f 17/1/30 19/1/33 24/1/23
f 18/8/31 23/3/25 20/11/34
s 1
f 17/10/32 18/9/32 19/12/35
f 18/9/32 20/13/35 19/12/35
s 2
f 19/1/33 21/1/36 24/1/23
f 20/11/34 23/3/25 22/14/37
s 1
f 19/12/35 20/13/35 22/15/38
f 19/12/35 22/15/38 21/16/38
s 2
f 21/1/36 13/1/22 24/1/23
f 22/14/37 23/3/25 14/2/24
s 1
f 21/16/38 22/15/38 13/17/27
f 22/15/38 14/18/28 13/17/27
# 20 triangles in group

g Duplicate06
usemtl wood
s 2
f 25/1/11 27/1/39 36/1/40
f 26/2/41 35/3/42 28/4/43
s 1
f 25/5/44 26/1/45 27/6/46
f 26/1/45 28/7/46 27/6/46
s 2
f 27/1/39 29/1/47 36/1/40
f 28/4/43 35/3/42 30/8/48
s 1
f 27/6/46 28/7/46 30/9/49
f 27/6/46 30/9/49 29/10/49
s 2
f 29/1/47 31/1/50 36/1/40
f 30/8/48 35/3/42 32/11/51
s 1
f 29/10/49 30/9/49 31/12/52
f 30/9/49 32/13/52 31/12/52
s 2
f 31/1/50 33/1/53 36/1/40
f 32/11/51 35/3/42 34/14/54
s 1
f 31/12/52 32/13/52 34/15/55
f 31/12/52 34/15/55 33/16/55
s 2
f 33/1/53 25/1/11 36/1/40
f 34/14/54 35/3/42 26/2/41
s 1
f 33/16/55 34/15/55 25/17/44
f 34/15/55 26/18/45 25/17/44
# 20 triangles in group

g Duplicate07
usemtl wood
s 2
f 37/1/56 39/1/11 48/1/57
f 38/2/24 47/3/25 40/4/26
s 1
f 37/5/58 38/1/28 39/6/29
f 38/1/28 40/7/29 39/6/29
s 2
f 39/1/11 41/1/11 48/1/57
f 40/4/26 47/3/25 42/8/31
s 1
f 39/6/29 40/7/29 42/9/32
f 39/6/29 42/9/32 41/10/32
s 2
f 41/1/11 43/1/59 48/1/57
f 42/8/31 47/3/25 44/11/34
s 1
f 41/10/32 42/9/32 43/12/60
f 42/9/32 44/13/35 43/12/60
s 2
f 43/1/59 45/1/61 48/1/57
f 44/11/34 47/3/25 46/14/37
s 1
f 43/12/60 44/13/35 46/15/62
f 43/12/60 46/15/62 45/16/63
s 2
f 45/1/61 37/1/56 48/1/57
f 46/14/37 47/3/25 38/2/24
s 1
f 45/16/63 46/15/62 37/17/58
f 46/15/62 38/18/28 37/17/58
# 20 triangles in group

g Duplicate08
usemtl wood
s 2
f 49/1/11 51/1/64 60/1/65
f 50/2/66 59/3/67 52/4/68
s 1
f 49/5/69 50/1/70 51/6/71
f 50/1/70 52/7/71 51/6/71
s 2
f 51/1/64 53/1/72 60/1/65
f 52/4/68 59/3/67 54/8/73
s 1
f 51/6/71 52/7/71 54/9/74
f 51/6/71 54/9/74 53/10/74
s 2
f 53/1/72 55/1/75 60/1/65
f 54/8/73 59/3/67 56/11/76
s 1
f 53/10/74 54/9/74 55/12/77
f 54/9/74 56/13/77 55/12/77
s 2
f 55/1/75 57/1/78 60/1/65
f 56/11/76 59/3/67 58/14/79
s 1
f 55/12/77 56/13/77 58/15/80
f 55/12/77 58/15/80 57/16/80
s 2
f 57/1/78 49/1/11 60/1/65
f 58/14/79 59/3/67 50/2/66
s 1
f 57/16/80 58/15/80 49/17/69
f 58/15/80 50/18/70 49/17/69
# 20 triangles in group

g Duplicate09
usemtl wood
s 2
f 61/1/11 63/1/11 72/1/11
f 62/2/81 71/3/82 64/4/83
s 1
f 61/5/84 62/1/85 63/6/86
f 62/1/85 64/7/86 63/6/86
s 2
f 63/1/11 65/1/11 72/1/11
f 64/4/83 71/3/82 66/8/87
s 1
f 63/6/86 64/7/86 66/9/88
f 63/6/86 66/9/88 65/10/88
s 2
f 65/1/11 67/1/11 72/1/11
f 66/8/87 71/3/82 68/11/89
s 1
f 65/10/88 66/9/88 67/12/90
f 66/9/88 68/13/90 67/12/90
s 2
f 67/1/11 69/1/11 72/1/11
f 68/11/89 71/3/82 70/14/91
s 1
f 67/12/90 68/13/90 70/15/92
f 67/12/90 70/15/92 69/16/92
s 2
f 69/1/11 61/1/11 72/1/11
f 70/14/91 71/3/82 62/2/81
s 1
f 69/16/92 70/15/92 61/17/84
f 70/15/92 62/18/85 61/17/84
# 20 triangles in group

g Duplicate10
usemtl wood
s 2
f 73/1/11 75/1/11 84/1/11
f 74/2/93 83/3/82 76/4/94
s 1
f 73/5/95 74/1/96 75/6/97
f 74/1/96 76/7/97 75/6/97
s 2
f 75/1/11 77/1/11 84/1/11
f 76/4/94 83/3/82 78/8/98
s 1
f 75/6/97 76/7/97 78/9/99
f 75/6/97 78/9/99 77/10/99
s 2
f 77/1/11 79/1/11 84/1/11
f 78/8/98 83/3/82 80/11/100
s 1
f 77/10/99 78/9/99 79/12/101
f 78/9/99 80/13/101 79/12/101
s 2
f 79/1/11 81/1/11 84/1/11
f 80/11/100 83/3/82 82/14/102
s 1
f 79/12/101 80/13/101 82/15/103
f 79/12/101 82/15/103 81/16/103
s 2
f 81/1/11 73/1/11 84/1/11
f 82/14/102 83/3/82 74/2/93
s 1
f 81/16/103 82/15/103 73/17/95
f 82/15/103 74/18/96 73/17/95
# 20 triangles in group

g Duplicate11
usemtl wood
s 2
f 85/1/104 87/1/105 96/1/106
f 86/2/107 95/3/108 88/4/109
s 1
f 85/5/110 86/1/111 87/6/112
f 86/1/111 88/7/112 87/6/112
s 2
f 87/1/105 89/1/113 96/1/106
f 88/4/109 95/3/108 90/8/114
s 1
f 87/6/112 88/7/112 90/9/115
f 87/6/112 90/9/115 89/10/115
s 2
f 89/1/113 91/1/11 96/1/106
f 90/8/114 95/3/108 92/11/116
s 1
f 89/10/115 90/9/115 91/12/117
f 90/9/115 92/13/117 91/12/117
s 2
f 91/1/11 93/1/11 96/1/106
f 92/11/116 95/3/108 94/14/118
s 1
f 91/12/117 92/13/117 94/15/119
f 91/12/117 94/15/119 93/16/119
s 2
f 93/1/11 85/1/104 96/1/106
f 94/14/118 95/3/108 86/2/107
s 1
f 93/16/119 94/15/119 85/17/110
f 94/15/119 86/18/111 85/17/110
# 20 triangles in group

g Duplicate12
usemtl wood
s 2
f 97/1/11 99/1/11 108/1/11
f 98/2/120 107/3/82 100/4/121
s 1
f 97/5/122 98/1/123 99/6/124
f 98/1/123 100/7/124 99/6/124
s 2
f 99/1/11 101/1/11 108/1/11
f 100/4/121 107/3/82 102/8/125
s 1
f 99/6/124 100/7/124 102/9/126
f 99/6/124 102/9/126 101/10/126
s 2
f 101/1/11 103/1/11 108/1/11
f 102/8/125 107/3/82 104/11/127
s 1
f 101/10/126 102/9/126 103/12/128
f 102/9/126 104/13/128 103/12/128
s 2
f 103/1/11 105/1/11 108/1/11
f 104/11/127 107/3/82 106/14/129
s 1
f 103/12/128 104/13/128 106/15/130
f 103/12/128 106/15/130 105/16/130
s 2
f 105/1/11 97/1/11 108/1/11
f 106/14/129 107/3/82 98/2/120
s 1
f 105/16/130 106/15/130 97/17/122
f 106/15/130 98/18/123 97/17/122
# 20 triangles in group

g Duplicate13
usemtl wood
s 2
f 109/1/11 111/1/11 120/1/11
f 110/2/131 119/3/82 112/4/132
s 1
f 109/5/133 110/1/134 111/6/135
f 110/1/134 112/7/135 111/6/135
s 2
f 111/1/11 113/1/11 120/1/11
f 112/4/132 119/3/82 114/8/136
s 1
f 111/6/135 112/7/135 114/9/137
f 111/6/135 114/9/137 113/10/137
s 2
f 113/1/11 115/1/11 120/1/11
f 114/8/136 119/3/82 116/11/138
s 1
f 113/10/137 114/9/137 115/12/139
f 114/9/137 116/13/139 115/12/139
s 2
f 115/1/11 117/1/11 120/1/11
f 116/11/138 119/3/82 118/14/140
s 1
f 115/12/139 116/13/139 118/15/141
f 115/12/139 118/15/141 117/16/141
s 2
f 117/1/11 109/1/11 120/1/11
f 118/14/140 119/3/82 110/2/131
s 1
f 117/16/141 118/15/141 109/17/133
f 118/15/141 110/18/134 109/17/133
# 20 triangles in group

g Duplicate00
usemtl wood
s 2
f 121/19/142 123/20/143 132/21/144
f 122/2/145 131/3/146 124/4/147
s 1
f 121/5/148 122/1/149 123/6/150
f 122/1/149 124/7/150 123/6/150
s 2
f 123/20/143 125/22/151 132/21/144
f 124/4/147 131/3/146 126/8/152
s 1
f 123/6/150 124/7/150 126/9/153
f 123/6/150 126/9/153 125/10/153
s 2
f 125/22/151 127/23/154 132/21/144
f 126/8/152 131/3/146 128/11/155
s 1
f 125/10/153 126/9/153 127/12/156
f 126/9/153 128/13/156 127/12/156
s 2
f 127/23/154 129/24/157 132/21/144
f 128/11/155 131/3/146 130/14/158
s 1
f 127/12/156 128/13/156 130/15/159
f 127/12/156 130/15/159 129/16/159
s 2
f 129/24/157 121/19/142 132/21/144
f 130/14/158 131/3/146 122/2/145
s 1
f 129/16/159 130/15/159 121/17/148
f 130/15/159 122/18/149 121/17/148
# 20 triangles in group

g Duplicate01
usemtl wood
s 2
f 133/19/160 135/20/161 144/21/162
f 134/2/163 143/3/164 136/4/165
s 1
f 133/5/166 134/1/167 135/6/168
f 134/1/167 136/7/168 135/6/168
s 2
f 135/20/161 137/22/169 144/21/162
f 136/4/165 143/3/164 138/8/170
s 1
f 135/6/168 136/7/168 138/9/171
f 135/6/168 138/9/171 137/10/171
s 2
f 137/22/169 139/23/172 144/21/162
f 138/8/170 143/3/164 140/11/173
s 1
f 137/10/171 138/9/171 139/12/174
f 138/9/171 140/13/174 139/12/174
s 2
f 139/23/172 141/24/175 144/21/162
f 140/11/173 143/3/164 142/14/176
s 1
f 139/12/174 140/13/174 142/15/177
f 139/12/174 142/15/177 141/16/177
s 2
f 141/24/175 133/19/160 144/21/162
f 142/14/176 143/3/164 134/2/163
s 1
f 141/16/177 142/15/177 133/17/166
f 142/15/177 134/18/167 133/17/166
# 20 triangles in group

g Duplicate02
usemtl wood
s 2
f 145/19/142 147/20/143 156/21/144
f 146/2/145 155/3/146 148/4/147
s 1
f 145/5/148 146/1/149 147/6/150
f 146/1/149 148/7/150 147/6/150
s 2
f 147/20/143 149/22/151 156/21/144
f 148/4/147 155/3/146 150/8/152
s 1
f 147/6/150 148/7/150 150/9/153
f 147/6/150 150/9/153 149/10/153
s 2
f 149/22/151 151/23/154 156/21/144
f 150/8/152 155/3/146 152/11/155
s 1
f 149/10/153 150/9/153 151/12/156
f 150/9/153 152/13/156 151/12/156
s 2
f 151/23/154 153/24/157 156/21/144
f 152/11/155 155/3/146 154/14/158
s 1
f 151/12/156 152/13/156 154/15/159
f 151/12/156 154/15/159 153/16/159
s 2
f 153/24/157 145/19/142 156/21/144
f 154/14/158 155/3/146 146/2/145
s 1
f 153/16/159 154/15/159 145/17/148
f 154/15/159 146/18/149 145/17/148
s 2
f 157/19/160 159/20/161 168/21/162
f 158/2/163 167/3/164 160/4/165
s 1
f 157/5/166 158/1/167 159/6/168
f 158/1/167 160/7/168 159/6/168
s 2
f 159/20/161 161/22/169 168/21/162
f 160/4/165 167/3/164 162/8/170
s 1
f 159/6/168 160/7/168 162/9/171
f 159/6/168 162/9/171 161/10/171
s 2
f 161/22/169 163/23/172 168/21/162
f 162/8/170 167/3/164 164/11/173
s 1
f 161/10/171 162/9/171 163/12/174
f 162/9/171 164/13/174 163/12/174
s 2
f 163/23/172 165/24/175 168/21/162
f 164/11/173 167/3/164 166/14/176
s 1
f 163/12/174 164/13/174 166/15/177
f 163/12/174 166/15/177 165/16/177
s 2
f 165/24/175 157/19/160 168/21/162
f 166/14/176 167/3/164 158/2/163
s 1
f 165/16/177 166/15/177 157/17/166
f 166/15/177 158/18/167 157/17/166
# 40 triangles in group

# 280 triangles total

