# Wavefront OBJ exported by MilkShape 3D

mtllib gate_closed.mtl

v 0.162145 -30.456734 4.791590
v 0.237366 37.291805 5.045506
v 1.769995 -30.456734 7.101801
v 1.845216 37.291805 7.355719
v 0.683361 -30.456734 9.937456
v 0.758581 37.291805 10.191368
v -1.596066 -30.456734 9.379775
v -1.520846 37.291805 9.633688
v -1.918195 -30.456734 6.199450
v -1.842974 37.291805 6.453366
v -0.104532 43.391357 7.735929
v -0.179752 -30.456734 7.482016
v 2.293535 -31.545940 2.904637
v 2.293535 34.024197 3.010618
v 0.933052 -31.545940 5.502855
v 0.933052 34.024197 5.608837
v -1.268255 -31.545940 4.510425
v -1.268255 34.024197 4.616405
v -1.268255 -31.545940 1.298850
v -1.268255 34.024197 1.404831
v 0.933052 -31.545940 0.306419
v 0.933052 34.024197 0.412400
v 0.324625 40.123730 3.010618
v 0.324625 -31.545940 2.904637
v -0.206051 -31.545940 1.175622
v -0.277948 36.202606 1.375220
v -1.577160 -31.545940 -1.797133
v -1.649058 36.202606 -1.597535
v -0.270386 -31.545940 -4.846252
v -0.342284 36.202606 -4.646658
v 1.908353 -31.545940 -3.757963
v 1.836457 36.202606 -3.558367
v 1.948115 -31.545940 -0.036238
v 1.876217 36.202606 0.163359
v 0.288676 42.302143 -1.652797
v 0.360574 -31.545940 -1.852393
v 2.293534 -31.545940 -6.280297
v 2.293534 34.024197 -6.174314
v 0.933052 -31.545940 -3.682078
v 0.933052 34.024197 -3.576098
v -1.268255 -31.545940 -4.674509
v -1.268255 34.024197 -4.568527
v -1.268255 -31.545940 -7.886084
v -1.268255 34.024197 -7.780103
v 0.933052 -31.545940 -8.878514
v 0.933052 34.024197 -8.772533
v 0.324625 40.123730 -6.174314
v 0.324625 -31.545940 -6.280297
v -0.490785 -31.001328 -14.157213
v -0.419965 36.747200 -13.961397
v 1.755055 -31.001328 -13.380262
v 1.825873 36.747200 -13.184448
v 1.916511 -31.001328 -10.176511
v 1.987332 36.747200 -9.980696
v -0.187107 -31.001328 -8.031384
v -0.116288 36.747200 -7.835577
v -1.717330 -31.001328 -11.433640
v -1.646511 36.747200 -11.237827
v 0.317601 42.846745 -11.428403
v 0.246782 -31.001328 -11.624212
v 0.270449 -22.980040 -14.164527
v 0.324769 60.219963 -14.325305
v -2.588709 -22.980040 -16.021278
v -2.534389 60.219963 -16.182064
v -1.706355 -22.980040 -19.314272
v -1.652034 60.219963 -19.475056
v 1.698127 -22.980040 -19.492693
v 1.752448 60.219963 -19.653477
v 2.919859 -22.980040 -16.309973
v 2.974179 60.219963 -16.470757
v 0.172995 65.819962 -17.221329
v 0.118675 -22.980040 -17.060549
v 0.207169 -22.980040 -19.244589
v 0.264218 60.219963 -19.385948
v -2.930975 -22.980040 -20.576647
v -2.873925 60.219963 -20.718014
v -2.633848 -22.980040 -23.972830
v -2.576799 60.219963 -24.114189
v 0.687930 -22.980040 -24.739721
v 0.744980 60.219963 -24.881084
v 2.443774 -22.980040 -21.817507
v 2.500824 60.219963 -21.958870
v -0.388140 65.819962 -22.211620
v -0.445188 -22.980040 -22.070261
v -1.488097 -29.912128 11.967689
v -1.473521 35.658005 11.863654
v 0.204689 -29.912128 9.777401
v 0.219263 35.658005 9.673365
v 2.229077 -29.912128 11.334402
v 2.243652 35.658005 11.230367
v 1.787432 -29.912128 14.486974
v 1.802008 35.658005 14.382939
v -0.509908 -29.912128 14.878364
v -0.495334 35.658005 14.774329
v 0.459212 41.757534 12.384933
v 0.444638 -29.912128 12.488966
v -2.316715 -23.230040 16.095821
v -2.083918 59.719963 15.838142
v 0.925587 -23.230040 15.042338
v 1.158382 59.719963 14.784648
v 2.929439 -23.230040 17.800406
v 3.162234 59.719963 17.542717
v 0.925587 -23.230040 20.558474
v 1.158385 59.719963 20.300785
v -2.316714 -23.230040 19.504980
v -2.083920 59.719963 19.247292
v 0.262230 65.319962 17.542713
v 0.029437 -23.230040 17.800406
v -0.267506 -20.730040 19.917196
v 0.011593 58.219963 19.504456
v 2.418942 -20.730040 22.016085
v 2.698048 58.219963 21.603336
v 1.252944 -20.730040 25.219645
v 1.532047 58.219963 24.806900
v -2.154138 -20.730040 25.100664
v -1.875033 58.219963 24.687923
v -3.093824 -20.730040 21.823568
v -2.814725 58.219963 21.410828
v -0.089611 63.819962 22.402683
v -0.368718 -20.730040 22.815432
v -4.695879 36.403297 26.186195
v -3.890226 -4.930038 25.341543
v 4.695879 36.403297 26.186195
v 3.890226 -4.930038 25.341543
v 4.695879 36.403297 -25.988918
v 3.890226 -4.930038 -25.144266
v -4.695879 36.403297 -25.988918
v -3.890226 -4.930038 -25.144266
v -5.647059 34.466568 -22.956688
v -5.734097 34.770409 22.378429
v -3.490818 36.754715 -23.008087
v -3.577860 37.058556 22.327045
v -1.294648 35.095863 -23.086525
v -1.381674 35.399689 22.248547
v -2.093591 31.782476 -23.083618
v -2.180618 32.086319 22.251499
v -4.783521 31.393560 -23.003372
v -4.870580 31.697401 22.331753
v -3.536978 34.199928 25.522442
v -3.158524 33.834145 -25.912834
v 6.223952 33.640709 -22.956688
v 6.347374 33.349747 22.378429
v 4.362641 31.106848 -23.008087
v 4.486060 30.815878 22.327045
v 1.980676 32.485676 -23.086525
v 2.104083 32.194725 22.248547
v 2.369859 35.871735 -23.083618
v 2.493270 35.580765 22.251499
v 4.992347 36.585579 -23.003372
v 5.115788 36.294609 22.331753
v 4.097102 33.648209 25.522442
v 3.676895 33.965149 -25.912834
v -5.647059 56.549904 -23.556690
v -5.734097 56.853737 21.778427
v -3.490818 58.838043 -23.608089
v -3.577860 59.141888 21.727043
v -1.294648 57.179192 -23.686527
v -1.381674 57.483021 21.648544
v -2.093591 53.865807 -23.683620
v -2.180618 54.169647 21.651497
v -4.783521 53.476891 -23.603373
v -4.870580 53.780731 21.731750
v -3.536978 56.283260 24.922440
v -3.158524 55.917473 -26.512835
v 6.223952 55.724037 -23.556690
v 6.347374 55.433079 21.778427
v 4.362641 53.190178 -23.608089
v 4.486060 52.899208 21.727043
v 1.980676 54.569016 -23.686527
v 2.104083 54.278061 21.648544
v 2.369859 57.955067 -23.683620
v 2.493270 57.664093 21.651497
v 4.992347 58.668911 -23.603373
v 5.115788 58.377937 21.731750
v 4.097102 55.731537 24.922440
v 3.676895 56.048477 -26.512835
# 176 vertices

vt 0.000000 1.000000
vt 0.645986 0.526445
vt 0.378701 0.526445
vt 0.461292 0.246020
vt 0.000000 0.000000
vt 0.200000 0.000000
vt 0.200000 1.000000
vt 0.162455 0.353132
vt 0.400000 1.000000
vt 0.400000 0.000000
vt 0.162455 0.699757
vt 0.600000 0.000000
vt 0.600000 1.000000
vt 0.461292 0.806868
vt 0.800000 1.000000
vt 0.800000 0.000000
vt 1.000000 0.000000
vt 1.000000 1.000000
vt 0.529484 0.140894
vt 0.803912 0.352912
vt 0.519145 0.484175
vt 0.684803 0.676519
vt 0.336760 0.664499
vt 0.240768 0.333466
# 24 texture coordinates

vn 0.000000 -1.000000 0.000000
vn 0.171731 0.405617 -0.897766
vn -0.021276 0.999638 0.016497
vn 0.944305 0.308919 -0.113392
vn -0.133531 0.003863 -0.991037
vn 0.480973 0.002752 -0.876731
vn 0.992684 -0.000650 -0.120743
vn 0.435887 0.388493 0.811835
vn 0.463952 -0.003835 0.885852
vn -0.711409 0.354067 0.607070
vn -0.754505 -0.001622 0.656293
vn -0.858142 0.327688 -0.395238
vn -0.905832 0.002593 -0.423630
vn 0.951649 0.307189 -0.000000
vn -0.027773 0.999614 -0.000000
vn 0.306484 0.398750 0.864330
vn 0.985107 0.000278 -0.171941
vn 0.985107 -0.000278 0.171941
vn 0.326351 -0.001528 0.945248
vn -0.793815 0.340044 0.504211
vn -0.839940 -0.000877 0.542678
vn -0.793815 0.340044 -0.504211
vn -0.839940 0.000877 -0.542678
vn 0.306484 0.398750 -0.864330
vn 0.326351 0.001528 -0.945248
vn -0.288772 0.447101 0.846588
vn 0.056556 0.998390 -0.004367
vn -0.952951 0.302854 0.012769
vn 0.033536 -0.002909 0.999433
vn -0.612916 -0.002978 0.790143
vn -0.999907 -0.001101 0.013627
vn -0.322546 0.443748 -0.836093
vn -0.344144 0.002401 -0.938914
vn 0.798611 0.354579 -0.486306
vn 0.847723 0.002462 -0.530433
vn 0.816539 0.349363 0.459576
vn 0.865906 -0.000555 0.500206
vn -0.372069 0.394003 -0.840432
vn 0.128310 0.974106 -0.186156
vn 0.754855 0.346912 -0.556638
vn -0.646471 0.002881 -0.762933
vn -0.111408 0.002989 -0.993770
vn 0.799675 0.000900 -0.600433
vn 0.887444 0.321357 0.330413
vn 0.934963 -0.002003 0.354741
vn -0.161347 0.509376 0.845283
vn -0.175572 -0.002662 0.984463
vn -0.951882 0.306461 -0.001717
vn -0.999999 0.001046 -0.000239
vn 0.046474 0.459854 0.886778
vn 0.000000 1.000000 0.000000
vn -0.829014 0.459854 0.318229
vn 0.285920 0.001665 0.958252
vn -0.184187 0.002020 0.982889
vn -0.933580 0.001302 0.358367
vn -0.558833 0.459855 -0.690101
vn -0.629321 -0.001091 -0.777145
vn 0.483636 0.459855 -0.744734
vn 0.544638 -0.001976 -0.838669
vn 0.857737 0.459854 0.229830
vn 0.965926 -0.000130 0.258819
vn 0.199755 0.459854 0.865235
vn -0.761160 0.459854 0.457351
vn 0.447975 0.001212 0.894045
vn -0.010712 0.001706 0.999941
vn -0.857167 0.001463 0.515037
vn -0.670178 0.459854 -0.582577
vn -0.754710 -0.000597 -0.656059
vn 0.346967 0.459854 -0.817403
vn 0.390730 -0.001832 -0.920503
vn 0.884615 0.459854 0.077394
vn 0.996195 -0.000535 0.087156
vn -0.937715 0.310455 -0.155909
vn 0.015930 0.999652 0.021023
vn -0.120427 0.407217 -0.905357
vn -0.999955 0.000237 0.009530
vn -0.941652 -0.000325 -0.336588
vn -0.128245 -0.001545 -0.991741
vn 0.877669 0.323671 -0.353460
vn 0.925670 -0.000806 -0.378330
vn 0.675970 0.359529 0.643276
vn 0.717481 0.000946 0.696578
vn -0.482298 0.383926 0.787394
vn -0.513209 0.001476 0.858263
vn -0.718403 0.459854 -0.521950
vn 0.274405 0.459855 -0.844533
vn -0.924637 0.001412 -0.380848
vn -0.647936 -0.000548 -0.761695
vn 0.309013 -0.003822 -0.951050
vn 0.887994 0.459855 -0.000000
vn 0.999996 -0.002806 0.000003
vn 0.274405 0.459856 0.844532
vn 0.309018 0.002087 0.951054
vn -0.718403 0.459854 0.521949
vn -0.809011 0.004096 0.587779
vn 0.030990 0.459854 -0.887454
vn 0.853595 0.459854 -0.244765
vn -0.201316 -0.004409 -0.979516
vn 0.269142 -0.005986 -0.963082
vn 0.961252 -0.004839 -0.275628
vn 0.496560 0.459855 0.736180
vn 0.559195 0.002357 0.829033
vn -0.546703 0.459856 0.699749
vn -0.615650 0.006296 0.787994
vn -0.834441 0.459855 -0.303712
vn -0.939690 0.001534 -0.342024
vn 0.000000 -0.020431 0.999791
vn 0.999810 -0.019488 0.000000
vn 0.000000 -0.020431 -0.999791
vn -0.999810 -0.019488 0.000000
vn -0.733491 0.178888 -0.655736
vn -0.068397 0.699609 -0.711245
vn 0.023064 -0.005465 -0.999719
vn -0.787490 0.192983 0.585335
vn 0.024514 -0.005969 0.999682
vn -0.061629 0.743480 0.665912
vn -0.998514 0.054450 -0.002282
vn -0.910118 0.414325 -0.004524
vn -0.084083 0.996435 -0.006840
vn 0.752771 0.251079 -0.608519
vn 0.764862 0.248165 0.594475
vn 0.941515 0.336972 -0.000451
vn 0.544073 -0.568519 -0.617066
vn 0.557468 -0.572578 0.601152
vn 0.673533 -0.739131 0.006247
vn -0.394890 -0.583272 -0.709828
vn -0.409752 -0.626722 0.662814
vn -0.545124 -0.838343 0.004572
vn 0.749825 -0.088166 -0.655736
vn 0.153149 -0.686059 -0.711244
vn -0.023557 0.002612 -0.999719
vn 0.805138 -0.095574 0.585336
vn -0.025059 0.002936 0.999682
vn 0.151777 -0.730429 0.665911
vn 0.997707 0.067644 -0.002282
vn 0.953827 -0.300322 -0.004524
vn 0.204892 -0.978761 -0.006840
vn -0.716559 -0.340949 -0.608520
vn -0.728917 -0.339530 0.594474
vn -0.893429 -0.449204 -0.000451
vn -0.609304 0.497974 -0.617066
vn -0.623093 0.500372 0.601152
vn -0.758591 0.651537 0.006247
vn 0.320863 0.627049 -0.709828
vn 0.330319 0.671986 0.662815
vn 0.438892 0.898528 0.004572
# 146 normals

g Cylinder01
usemtl wood
s 2
f 1/1/1 3/1/1 12/1/1
f 2/2/2 11/3/3 4/4/4
s 1
f 1/5/5 2/1/6 3/6/7
f 2/1/6 4/7/7 3/6/7
s 2
f 3/1/1 5/1/1 12/1/1
f 4/4/4 11/3/3 6/8/8
s 1
f 3/6/7 4/7/7 6/9/9
f 3/6/7 6/9/9 5/10/9
s 2
f 5/1/1 7/1/1 12/1/1
f 6/8/8 11/3/3 8/11/10
s 1
f 5/10/9 6/9/9 7/12/11
f 6/9/9 8/13/11 7/12/11
s 2
f 7/1/1 9/1/1 12/1/1
f 8/11/10 11/3/3 10/14/12
s 1
f 7/12/11 8/13/11 10/15/13
f 7/12/11 10/15/13 9/16/13
s 2
f 9/1/1 1/1/1 12/1/1
f 10/14/12 11/3/3 2/2/2
s 1
f 9/16/13 10/15/13 1/17/5
f 10/15/13 2/18/6 1/17/5
# 20 triangles in group

g Duplicate05
usemtl wood
s 2
f 13/1/1 15/1/1 24/1/1
f 14/2/14 23/3/15 16/4/16
s 1
f 13/5/17 14/1/18 15/6/19
f 14/1/18 16/7/19 15/6/19
s 2
f 15/1/1 17/1/1 24/1/1
f 16/4/16 23/3/15 18/8/20
s 1
f 15/6/19 16/7/19 18/9/21
f 15/6/19 18/9/21 17/10/21
s 2
f 17/1/1 19/1/1 24/1/1
f 18/8/20 23/3/15 20/11/22
s 1
f 17/10/21 18/9/21 19/12/23
f 18/9/21 20/13/23 19/12/23
s 2
f 19/1/1 21/1/1 24/1/1
f 20/11/22 23/3/15 22/14/24
s 1
f 19/12/23 20/13/23 22/15/25
f 19/12/23 22/15/25 21/16/25
s 2
f 21/1/1 13/1/1 24/1/1
f 22/14/24 23/3/15 14/2/14
s 1
f 21/16/25 22/15/25 13/17/17
f 22/15/25 14/18/18 13/17/17
# 20 triangles in group

g Duplicate06
usemtl wood
s 2
f 25/1/1 27/1/1 36/1/1
f 26/2/26 35/3/27 28/4/28
s 1
f 25/5/29 26/1/30 27/6/31
f 26/1/30 28/7/31 27/6/31
s 2
f 27/1/1 29/1/1 36/1/1
f 28/4/28 35/3/27 30/8/32
s 1
f 27/6/31 28/7/31 30/9/33
f 27/6/31 30/9/33 29/10/33
s 2
f 29/1/1 31/1/1 36/1/1
f 30/8/32 35/3/27 32/11/34
s 1
f 29/10/33 30/9/33 31/12/35
f 30/9/33 32/13/35 31/12/35
s 2
f 31/1/1 33/1/1 36/1/1
f 32/11/34 35/3/27 34/14/36
s 1
f 31/12/35 32/13/35 34/15/37
f 31/12/35 34/15/37 33/16/37
s 2
f 33/1/1 25/1/1 36/1/1
f 34/14/36 35/3/27 26/2/26
s 1
f 33/16/37 34/15/37 25/17/29
f 34/15/37 26/18/30 25/17/29
# 20 triangles in group

g Duplicate07
usemtl wood
s 2
f 37/1/1 39/1/1 48/1/1
f 38/2/14 47/3/15 40/4/16
s 1
f 37/5/17 38/1/18 39/6/19
f 38/1/18 40/7/19 39/6/19
s 2
f 39/1/1 41/1/1 48/1/1
f 40/4/16 47/3/15 42/8/20
s 1
f 39/6/19 40/7/19 42/9/21
f 39/6/19 42/9/21 41/10/21
s 2
f 41/1/1 43/1/1 48/1/1
f 42/8/20 47/3/15 44/11/22
s 1
f 41/10/21 42/9/21 43/12/23
f 42/9/21 44/13/23 43/12/23
s 2
f 43/1/1 45/1/1 48/1/1
f 44/11/22 47/3/15 46/14/24
s 1
f 43/12/23 44/13/23 46/15/25
f 43/12/23 46/15/25 45/16/25
s 2
f 45/1/1 37/1/1 48/1/1
f 46/14/24 47/3/15 38/2/14
s 1
f 45/16/25 46/15/25 37/17/17
f 46/15/25 38/18/18 37/17/17
# 20 triangles in group

g Duplicate08
usemtl wood
s 2
f 49/1/1 51/1/1 60/1/1
f 50/2/38 59/3/39 52/4/40
s 1
f 49/5/41 50/1/42 51/6/43
f 50/1/42 52/7/43 51/6/43
s 2
f 51/1/1 53/1/1 60/1/1
f 52/4/40 59/3/39 54/8/44
s 1
f 51/6/43 52/7/43 54/9/45
f 51/6/43 54/9/45 53/10/45
s 2
f 53/1/1 55/1/1 60/1/1
f 54/8/44 59/3/39 56/11/46
s 1
f 53/10/45 54/9/45 55/12/47
f 54/9/45 56/13/47 55/12/47
s 2
f 55/1/1 57/1/1 60/1/1
f 56/11/46 59/3/39 58/14/48
s 1
f 55/12/47 56/13/47 58/15/49
f 55/12/47 58/15/49 57/16/49
s 2
f 57/1/1 49/1/1 60/1/1
f 58/14/48 59/3/39 50/2/38
s 1
f 57/16/49 58/15/49 49/17/41
f 58/15/49 50/18/42 49/17/41
# 20 triangles in group

g Duplicate09
usemtl wood
s 2
f 61/1/1 63/1/1 72/1/1
f 62/2/50 71/3/51 64/4/52
s 1
f 61/5/53 62/1/54 63/6/55
f 62/1/54 64/7/55 63/6/55
s 2
f 63/1/1 65/1/1 72/1/1
f 64/4/52 71/3/51 66/8/56
s 1
f 63/6/55 64/7/55 66/9/57
f 63/6/55 66/9/57 65/10/57
s 2
f 65/1/1 67/1/1 72/1/1
f 66/8/56 71/3/51 68/11/58
s 1
f 65/10/57 66/9/57 67/12/59
f 66/9/57 68/13/59 67/12/59
s 2
f 67/1/1 69/1/1 72/1/1
f 68/11/58 71/3/51 70/14/60
s 1
f 67/12/59 68/13/59 70/15/61
f 67/12/59 70/15/61 69/16/61
s 2
f 69/1/1 61/1/1 72/1/1
f 70/14/60 71/3/51 62/2/50
s 1
f 69/16/61 70/15/61 61/17/53
f 70/15/61 62/18/54 61/17/53
# 20 triangles in group

g Duplicate10
usemtl wood
s 2
f 73/1/1 75/1/1 84/1/1
f 74/2/62 83/3/51 76/4/63
s 1
f 73/5/64 74/1/65 75/6/66
f 74/1/65 76/7/66 75/6/66
s 2
f 75/1/1 77/1/1 84/1/1
f 76/4/63 83/3/51 78/8/67
s 1
f 75/6/66 76/7/66 78/9/68
f 75/6/66 78/9/68 77/10/68
s 2
f 77/1/1 79/1/1 84/1/1
f 78/8/67 83/3/51 80/11/69
s 1
f 77/10/68 78/9/68 79/12/70
f 78/9/68 80/13/70 79/12/70
s 2
f 79/1/1 81/1/1 84/1/1
f 80/11/69 83/3/51 82/14/71
s 1
f 79/12/70 80/13/70 82/15/72
f 79/12/70 82/15/72 81/16/72
s 2
f 81/1/1 73/1/1 84/1/1
f 82/14/71 83/3/51 74/2/62
s 1
f 81/16/72 82/15/72 73/17/64
f 82/15/72 74/18/65 73/17/64
# 20 triangles in group

g Duplicate11
usemtl wood
s 2
f 85/1/1 87/1/1 96/1/1
f 86/2/73 95/3/74 88/4/75
s 1
f 85/5/76 86/1/77 87/6/78
f 86/1/77 88/7/78 87/6/78
s 2
f 87/1/1 89/1/1 96/1/1
f 88/4/75 95/3/74 90/8/79
s 1
f 87/6/78 88/7/78 90/9/80
f 87/6/78 90/9/80 89/10/80
s 2
f 89/1/1 91/1/1 96/1/1
f 90/8/79 95/3/74 92/11/81
s 1
f 89/10/80 90/9/80 91/12/82
f 90/9/80 92/13/82 91/12/82
s 2
f 91/1/1 93/1/1 96/1/1
f 92/11/81 95/3/74 94/14/83
s 1
f 91/12/82 92/13/82 94/15/84
f 91/12/82 94/15/84 93/16/84
s 2
f 93/1/1 85/1/1 96/1/1
f 94/14/83 95/3/74 86/2/73
s 1
f 93/16/84 94/15/84 85/17/76
f 94/15/84 86/18/77 85/17/76
# 20 triangles in group

g Duplicate12
usemtl wood
s 2
f 97/1/1 99/1/1 108/1/1
f 98/2/85 107/3/51 100/4/86
s 1
f 97/5/87 98/1/88 99/6/89
f 98/1/88 100/7/89 99/6/89
s 2
f 99/1/1 101/1/1 108/1/1
f 100/4/86 107/3/51 102/8/90
s 1
f 99/6/89 100/7/89 102/9/91
f 99/6/89 102/9/91 101/10/91
s 2
f 101/1/1 103/1/1 108/1/1
f 102/8/90 107/3/51 104/11/92
s 1
f 101/10/91 102/9/91 103/12/93
f 102/9/91 104/13/93 103/12/93
s 2
f 103/1/1 105/1/1 108/1/1
f 104/11/92 107/3/51 106/14/94
s 1
f 103/12/93 104/13/93 106/15/95
f 103/12/93 106/15/95 105/16/95
s 2
f 105/1/1 97/1/1 108/1/1
f 106/14/94 107/3/51 98/2/85
s 1
f 105/16/95 106/15/95 97/17/87
f 106/15/95 98/18/88 97/17/87
# 20 triangles in group

g Duplicate13
usemtl wood
s 2
f 109/1/1 111/1/1 120/1/1
f 110/2/96 119/3/51 112/4/97
s 1
f 109/5/98 110/1/99 111/6/100
f 110/1/99 112/7/100 111/6/100
s 2
f 111/1/1 113/1/1 120/1/1
f 112/4/97 119/3/51 114/8/101
s 1
f 111/6/100 112/7/100 114/9/102
f 111/6/100 114/9/102 113/10/102
s 2
f 113/1/1 115/1/1 120/1/1
f 114/8/101 119/3/51 116/11/103
s 1
f 113/10/102 114/9/102 115/12/104
f 114/9/102 116/13/104 115/12/104
s 2
f 115/1/1 117/1/1 120/1/1
f 116/11/103 119/3/51 118/14/105
s 1
f 115/12/104 116/13/104 118/15/106
f 115/12/104 118/15/106 117/16/106
s 2
f 117/1/1 109/1/1 120/1/1
f 118/14/105 119/3/51 110/2/96
s 1
f 117/16/106 118/15/106 109/17/98
f 118/15/106 110/18/99 109/17/98
# 20 triangles in group

g Box02
usemtl coll
f 121/1/107 122/5/107 123/18/107
f 122/5/107 124/17/107 123/18/107
s 2
f 123/1/108 124/5/108 125/18/108
f 124/5/108 126/17/108 125/18/108
s 1
f 125/1/109 126/5/109 127/18/109
f 126/5/109 128/17/109 127/18/109
s 2
f 127/1/110 128/5/110 121/18/110
f 128/5/110 122/17/110 121/18/110
s 3
f 127/1/51 121/5/51 125/18/51
f 121/5/51 123/17/51 125/18/51
f 122/1/1 128/5/1 124/18/1
f 128/5/1 126/17/1 124/18/1
# 12 triangles in group

g Duplicate00
usemtl wood
s 2
f 129/19/111 131/20/112 140/21/113
f 130/2/114 139/3/115 132/4/116
s 1
f 129/5/117 130/1/118 131/6/119
f 130/1/118 132/7/119 131/6/119
s 2
f 131/20/112 133/22/120 140/21/113
f 132/4/116 139/3/115 134/8/121
s 1
f 131/6/119 132/7/119 134/9/122
f 131/6/119 134/9/122 133/10/122
s 2
f 133/22/120 135/23/123 140/21/113
f 134/8/121 139/3/115 136/11/124
s 1
f 133/10/122 134/9/122 135/12/125
f 134/9/122 136/13/125 135/12/125
s 2
f 135/23/123 137/24/126 140/21/113
f 136/11/124 139/3/115 138/14/127
s 1
f 135/12/125 136/13/125 138/15/128
f 135/12/125 138/15/128 137/16/128
s 2
f 137/24/126 129/19/111 140/21/113
f 138/14/127 139/3/115 130/2/114
s 1
f 137/16/128 138/15/128 129/17/117
f 138/15/128 130/18/118 129/17/117
# 20 triangles in group

g Duplicate01
usemtl wood
s 2
f 141/19/129 143/20/130 152/21/131
f 142/2/132 151/3/133 144/4/134
s 1
f 141/5/135 142/1/136 143/6/137
f 142/1/136 144/7/137 143/6/137
s 2
f 143/20/130 145/22/138 152/21/131
f 144/4/134 151/3/133 146/8/139
s 1
f 143/6/137 144/7/137 146/9/140
f 143/6/137 146/9/140 145/10/140
s 2
f 145/22/138 147/23/141 152/21/131
f 146/8/139 151/3/133 148/11/142
s 1
f 145/10/140 146/9/140 147/12/143
f 146/9/140 148/13/143 147/12/143
s 2
f 147/23/141 149/24/144 152/21/131
f 148/11/142 151/3/133 150/14/145
s 1
f 147/12/143 148/13/143 150/15/146
f 147/12/143 150/15/146 149/16/146
s 2
f 149/24/144 141/19/129 152/21/131
f 150/14/145 151/3/133 142/2/132
s 1
f 149/16/146 150/15/146 141/17/135
f 150/15/146 142/18/136 141/17/135
# 20 triangles in group

g Duplicate02
usemtl wood
s 2
f 153/19/111 155/20/112 164/21/113
f 154/2/114 163/3/115 156/4/116
s 1
f 153/5/117 154/1/118 155/6/119
f 154/1/118 156/7/119 155/6/119
s 2
f 155/20/112 157/22/120 164/21/113
f 156/4/116 163/3/115 158/8/121
s 1
f 155/6/119 156/7/119 158/9/122
f 155/6/119 158/9/122 157/10/122
s 2
f 157/22/120 159/23/123 164/21/113
f 158/8/121 163/3/115 160/11/124
s 1
f 157/10/122 158/9/122 159/12/125
f 158/9/122 160/13/125 159/12/125
s 2
f 159/23/123 161/24/126 164/21/113
f 160/11/124 163/3/115 162/14/127
s 1
f 159/12/125 160/13/125 162/15/128
f 159/12/125 162/15/128 161/16/128
s 2
f 161/24/126 153/19/111 164/21/113
f 162/14/127 163/3/115 154/2/114
s 1
f 161/16/128 162/15/128 153/17/117
f 162/15/128 154/18/118 153/17/117
s 2
f 165/19/129 167/20/130 176/21/131
f 166/2/132 175/3/133 168/4/134
s 1
f 165/5/135 166/1/136 167/6/137
f 166/1/136 168/7/137 167/6/137
s 2
f 167/20/130 169/22/138 176/21/131
f 168/4/134 175/3/133 170/8/139
s 1
f 167/6/137 168/7/137 170/9/140
f 167/6/137 170/9/140 169/10/140
s 2
f 169/22/138 171/23/141 176/21/131
f 170/8/139 175/3/133 172/11/142
s 1
f 169/10/140 170/9/140 171/12/143
f 170/9/140 172/13/143 171/12/143
s 2
f 171/23/141 173/24/144 176/21/131
f 172/11/142 175/3/133 174/14/145
s 1
f 171/12/143 172/13/143 174/15/146
f 171/12/143 174/15/146 173/16/146
s 2
f 173/24/144 165/19/129 176/21/131
f 174/14/145 175/3/133 166/2/132
s 1
f 173/16/146 174/15/146 165/17/135
f 174/15/146 166/18/136 165/17/135
# 40 triangles in group

# 292 triangles total

