# Wavefront OBJ exported by MilkShape 3D

mtllib goldbag.mtl

v -0.125000 -0.434989 0.005402
v 1.644341 0.138900 0.005402
v 2.107079 1.573624 0.005402
v 1.644341 2.993298 0.202932
v -0.125000 4.322088 1.415627
v 0.869557 4.865358 2.386782
v 1.230394 0.138900 1.087780
v 1.584871 1.573624 1.414193
v 1.230394 2.676840 1.238016
v 0.636875 4.409936 2.589705
v 0.182243 0.138900 1.663701
v 0.262596 1.573624 2.163795
v 0.182243 2.508457 1.788772
v 0.047703 4.221759 2.822088
v -1.009670 0.138900 1.463686
v -1.241039 1.573624 1.903461
v -1.009670 2.566936 1.597496
v -0.622278 4.287112 2.741383
v -1.787637 0.138900 0.581323
v -2.222467 1.573624 0.755004
v -1.787637 2.824914 0.753689
v -1.059578 4.576527 2.464175
v -1.787637 0.138900 -0.570519
v -2.222467 1.573624 -0.744201
v -1.787637 3.161680 -0.347825
v -1.059578 5.164724 2.006735
v -1.009670 0.138900 -1.452883
v -1.241039 1.573624 -1.892655
v -1.009670 3.419659 -1.191633
v -0.622278 5.252140 2.456448
v 0.182243 0.138900 -1.652897
v 0.262596 1.573624 -2.152991
v 0.182243 3.478137 -1.382908
v 0.047703 5.271957 2.558387
v 1.230394 0.138900 -1.076977
v 1.584871 1.573624 -1.403390
v 1.230394 3.309754 -0.832153
v 0.636875 5.214904 2.264858
v -0.125000 4.136751 1.035631
v 0.542687 4.328542 1.428859
v -0.125000 4.472713 1.631610
v 0.081327 3.776830 1.697947
v -0.665170 3.987564 1.595163
v -0.665170 4.669519 1.262554
v 0.081327 4.880254 1.159771
v 0.822442 -0.072920 -3.138829
v 0.822442 0.330927 -3.138829
v 0.254149 -0.072920 -2.360875
v 0.254149 0.330927 -2.360875
v -0.665369 -0.072920 -2.658027
v -0.665369 0.330927 -2.658027
v -0.665369 -0.072920 -3.619630
v -0.665369 0.330927 -3.619630
v 0.254149 -0.072920 -3.916783
v 0.254149 0.330927 -3.916783
v -0.000000 0.330927 -3.138829
v -0.000000 -0.072920 -3.138829
v -0.150047 0.582039 -2.815299
v -0.320720 0.948048 -2.815299
v -0.665096 0.341868 -2.037345
v -0.835769 0.707877 -2.037345
v -1.498462 -0.046737 -2.334497
v -1.669136 0.319272 -2.334497
v -1.498462 -0.046737 -3.296101
v -1.669136 0.319272 -3.296101
v -0.665096 0.341868 -3.593253
v -0.835769 0.707877 -3.593253
v -1.066106 0.600469 -2.815299
v -0.895433 0.234460 -2.815299
v -2.265794 -0.072920 -1.315299
v -2.265794 0.330927 -1.315299
v -2.834088 -0.072920 -0.537345
v -2.834088 0.330927 -0.537345
v -3.753606 -0.072920 -0.834497
v -3.753606 0.330927 -0.834497
v -3.753606 -0.072920 -1.796100
v -3.753606 0.330927 -1.796100
v -2.834088 -0.072920 -2.093253
v -2.834088 0.330927 -2.093253
v -3.088236 0.330927 -1.315299
v -3.088236 -0.072920 -1.315299
v -1.942264 -0.072920 0.243524
v -1.942264 0.330927 0.243524
v -2.510558 -0.072920 1.021479
v -2.510558 0.330927 1.021479
v -3.430076 -0.072920 0.724326
v -3.430076 0.330927 0.724326
v -3.430076 -0.072920 -0.237276
v -3.430076 0.330927 -0.237276
v -2.510558 -0.072920 -0.534428
v -2.510558 0.330927 -0.534428
v -2.764707 0.330927 0.243524
v -2.764707 -0.072920 0.243524
v 3.247786 -0.072920 -1.465738
v 3.247786 0.330927 -1.465738
v 3.412630 -0.072920 -0.516529
v 3.412630 0.330927 -0.516529
v 2.560125 -0.072920 -0.061502
v 2.560125 0.330927 -0.061502
v 1.868406 -0.072920 -0.729488
v 1.868406 0.330927 -0.729488
v 2.293404 -0.072920 -1.597353
v 2.293404 0.330927 -1.597353
v 2.676471 0.330927 -0.874123
v 2.676471 -0.072920 -0.874123
v 2.109700 -0.111741 0.714914
v 2.512502 -0.118789 0.743081
v 2.062603 0.414981 1.520222
v 2.465406 0.407932 1.548389
v 2.096204 1.348649 1.273344
v 2.499006 1.341601 1.301510
v 2.164067 1.398967 0.315458
v 2.566868 1.391919 0.343624
v 2.172407 0.496397 -0.029670
v 2.575209 0.489349 -0.001503
v 2.523798 0.702402 0.787020
v 2.120996 0.709450 0.758853
v 2.702507 -0.123495 1.735115
v 3.009534 0.008985 1.961556
v 2.126247 0.541499 2.127396
v 2.433275 0.673980 2.353836
v 2.177957 1.342184 1.588837
v 2.484984 1.474665 1.815278
v 2.786171 1.172040 0.863710
v 3.093200 1.304521 1.090150
v 3.110361 0.266202 0.954115
v 3.417388 0.398682 1.180556
v 2.887676 0.772166 1.680276
v 2.580649 0.639685 1.453835
v 1.925052 -0.072920 2.060297
v 1.925052 0.330927 2.060297
v 1.872145 -0.072920 3.022259
v 1.872145 0.330927 3.022259
v 0.939131 -0.072920 3.273850
v 0.939131 0.330927 3.273850
v 0.415404 -0.072920 2.467383
v 0.415404 0.330927 2.467383
v 1.024737 -0.072920 1.717365
v 1.024737 0.330927 1.717365
v 1.235294 0.330927 2.508230
v 1.235294 -0.072920 2.508230
# 141 vertices

vt 0.040949 -0.443312
vt 0.234283 -0.443312
vt 0.234283 -0.780768
vt 0.040949 -0.105856
vt 0.234283 -0.105856
vt 0.040949 0.231600
vt 0.234283 0.231600
vt 0.234283 0.569056
vt 0.040949 0.906513
vt 0.234283 0.906513
vt 0.427617 -0.443312
vt 0.427617 -0.105856
vt 0.427617 0.231600
vt 0.427617 0.906513
vt 0.620951 -0.443312
vt 0.620951 -0.780768
vt 0.620951 -0.105856
vt 0.620951 0.231600
vt 0.620951 0.569056
vt 0.620951 0.906513
vt 0.814286 -0.443312
vt 0.814286 -0.105856
vt 0.814286 0.231600
vt 0.814286 0.906513
vt 1.007620 -0.443312
vt 1.007620 -0.780768
vt 1.007620 -0.105856
vt 1.007620 0.231600
vt 1.007620 0.569056
vt 1.007620 0.906513
vt 1.200954 -0.443312
vt 1.200954 -0.105856
vt 1.200954 0.231600
vt 1.200954 0.906513
vt 1.394288 -0.443312
vt 1.394288 -0.780768
vt 1.394288 -0.105856
vt 1.394288 0.231600
vt 1.394288 0.569056
vt 1.394288 0.906513
vt 1.587622 -0.443312
vt 1.587622 -0.105856
vt 1.587622 0.231600
vt 1.587622 0.906513
vt 1.780957 -0.443312
vt 1.780957 -0.780768
vt 1.780957 -0.105856
vt 1.780957 0.231600
vt 1.780957 0.569056
vt 1.780957 0.906513
vt 0.000000 0.000000
vt 0.000000 0.500000
vt 0.200000 0.500000
vt 0.000000 1.000000
vt 0.400000 0.500000
vt 0.400000 0.000000
vt 0.400000 1.000000
vt 0.600000 0.500000
vt 0.800000 0.500000
vt 0.800000 0.000000
vt 0.800000 1.000000
vt 1.000000 0.500000
vt 0.796029 0.428781
vt 0.609397 0.186819
vt 0.525932 0.428781
vt 0.307418 0.279240
vt 0.307418 0.578322
vt 0.609397 0.670743
# 68 texture coordinates

vn 0.763868 -0.640780 0.076857
vn 0.524735 -0.717374 0.458287
vn 0.000000 -1.000000 -0.000000
vn 0.993919 -0.000234 -0.110117
vn 0.743993 0.002514 0.668183
vn 0.850248 0.483935 0.207085
vn 0.624085 0.366951 0.689830
vn 0.000001 0.802907 -0.596104
vn 0.736949 -0.188970 -0.648997
vn 0.593173 -0.696104 -0.404456
vn 0.135852 -0.595086 0.792097
vn 0.171008 0.025210 0.984947
vn 0.148402 0.303739 0.941127
vn 0.134491 -0.958602 -0.250986
vn -0.337474 -0.718162 0.608568
vn -0.476901 0.008161 0.878919
vn -0.399198 0.322909 0.858120
vn -0.388114 -0.869509 -0.305486
vn -0.755733 -0.590738 0.282659
vn -0.937457 -0.000288 0.348101
vn -0.819314 0.402455 0.408355
vn -0.716203 -0.456981 -0.527467
vn -0.652169 -0.716706 -0.246999
vn -0.943262 0.008977 -0.331929
vn -0.792642 0.597241 -0.122561
vn -0.659856 0.063101 -0.748738
vn -0.393967 -0.593923 -0.701459
vn -0.496182 0.020302 -0.867981
vn -0.441212 0.611362 -0.656939
vn -0.318704 0.398655 -0.859943
vn 0.116088 -0.718689 -0.685573
vn 0.172531 0.026578 -0.984645
vn 0.143743 0.744057 -0.652470
vn 0.107971 0.464747 -0.878836
vn 0.610212 -0.592196 -0.526256
vn 0.763142 0.014574 -0.646066
vn 0.678682 0.572487 -0.460054
vn 0.510295 0.264227 -0.818403
vn -0.000014 -0.438371 -0.898794
vn 1.000000 0.000000 0.000001
vn 0.302227 -0.856762 0.417872
vn -0.000014 0.438371 0.898794
vn -0.802114 -0.536734 0.261783
vn -0.802114 0.536734 -0.261782
vn 0.302228 0.856763 -0.417870
vn 0.000000 1.000000 0.000000
vn 0.971904 0.000000 -0.235377
vn 0.971904 0.000000 0.235377
vn 0.309017 0.000000 0.951057
vn -0.809017 0.000000 0.587785
vn -0.809017 0.000000 -0.587785
vn 0.309017 0.000000 -0.951057
# 52 normals

g Cylinder01
usemtl Material01
s 1
f 2/1/1 7/2/2 1/3/3
f 2/1/1 3/4/4 8/5/5
f 2/1/1 8/5/5 7/2/2
f 3/4/4 4/6/6 8/5/5
f 4/6/6 9/7/7 8/5/5
f 4/6/6 5/8/8 9/7/7
f 6/9/9 10/10/10 5/8/8
f 1/3/3 7/2/2 11/11/11
f 7/2/2 8/5/5 11/11/11
f 8/5/5 12/12/12 11/11/11
f 8/5/5 9/7/7 13/13/13
f 8/5/5 13/13/13 12/12/12
f 9/7/7 5/8/8 13/13/13
f 5/8/8 10/10/10 14/14/14
f 11/11/11 15/15/15 1/16/3
f 11/11/11 12/12/12 16/17/16
f 11/11/11 16/17/16 15/15/15
f 12/12/12 13/13/13 16/17/16
f 13/13/13 17/18/17 16/17/16
f 13/13/13 5/19/8 17/18/17
f 14/14/14 18/20/18 5/19/8
f 1/16/3 15/15/15 19/21/19
f 15/15/15 16/17/16 19/21/19
f 16/17/16 20/22/20 19/21/19
f 16/17/16 17/18/17 21/23/21
f 16/17/16 21/23/21 20/22/20
f 17/18/17 5/19/8 21/23/21
f 5/19/8 18/20/18 22/24/22
f 19/21/19 23/25/23 1/26/3
f 19/21/19 20/22/20 24/27/24
f 19/21/19 24/27/24 23/25/23
f 20/22/20 21/23/21 24/27/24
f 21/23/21 25/28/25 24/27/24
f 21/23/21 5/29/8 25/28/25
f 22/24/22 26/30/26 5/29/8
f 1/26/3 23/25/23 27/31/27
f 23/25/23 24/27/24 27/31/27
f 24/27/24 28/32/28 27/31/27
f 24/27/24 25/28/25 29/33/29
f 24/27/24 29/33/29 28/32/28
f 25/28/25 5/29/8 29/33/29
f 5/29/8 26/30/26 30/34/30
f 27/31/27 31/35/31 1/36/3
f 27/31/27 28/32/28 32/37/32
f 27/31/27 32/37/32 31/35/31
f 28/32/28 29/33/29 32/37/32
f 29/33/29 33/38/33 32/37/32
f 29/33/29 5/39/8 33/38/33
f 30/34/30 34/40/34 5/39/8
f 1/36/3 31/35/31 35/41/35
f 31/35/31 32/37/32 35/41/35
f 32/37/32 36/42/36 35/41/35
f 32/37/32 33/38/33 37/43/37
f 32/37/32 37/43/37 36/42/36
f 33/38/33 5/39/8 37/43/37
f 5/39/8 34/40/34 38/44/38
f 35/41/35 2/45/1 1/46/3
f 35/41/35 36/42/36 3/47/4
f 35/41/35 3/47/4 2/45/1
f 36/42/36 37/43/37 3/47/4
f 37/43/37 4/48/6 3/47/4
f 37/43/37 5/49/8 4/48/6
f 38/44/38 6/50/9 5/49/8
# 63 triangles in group

g Cylinder03
usemtl Material01
f 39/51/39 40/52/40 42/53/41
f 40/52/40 41/54/42 42/53/41
f 42/53/41 43/55/43 39/56/39
f 42/53/41 41/57/42 43/55/43
f 39/56/39 43/55/43 44/58/44
f 43/55/43 41/57/42 44/58/44
f 44/58/44 45/59/45 39/60/39
f 44/58/44 41/61/42 45/59/45
f 39/60/39 45/59/45 40/62/40
f 45/59/45 41/61/42 40/62/40
# 10 triangles in group

g Cylinder04
usemtl gold
s 2
f 46/63/3 48/64/3 57/65/3
f 47/63/46 56/65/46 49/64/46
s 1
f 46/63/47 47/63/48 48/64/49
f 47/63/48 49/64/49 48/64/49
s 2
f 48/64/3 50/66/3 57/65/3
f 49/64/46 56/65/46 51/66/46
s 1
f 48/64/49 49/64/49 51/66/50
f 48/64/49 51/66/50 50/66/50
s 2
f 50/66/3 52/67/3 57/65/3
f 51/66/46 56/65/46 53/67/46
s 1
f 50/66/50 51/66/50 52/67/51
f 51/66/50 53/67/51 52/67/51
s 2
f 52/67/3 54/68/3 57/65/3
f 53/67/46 56/65/46 55/68/46
s 1
f 52/67/51 53/67/51 55/68/52
f 52/67/51 55/68/52 54/68/52
s 2
f 54/68/3 46/63/3 57/65/3
f 55/68/46 56/65/46 47/63/46
s 1
f 54/68/52 55/68/52 46/63/47
f 55/68/52 47/63/48 46/63/47
# 20 triangles in group

g Duplicate01
usemtl gold
s 2
f 58/63/3 60/64/3 69/65/3
f 59/63/46 68/65/46 61/64/46
s 1
f 58/63/47 59/63/48 60/64/49
f 59/63/48 61/64/49 60/64/49
s 2
f 60/64/3 62/66/3 69/65/3
f 61/64/46 68/65/46 63/66/46
s 1
f 60/64/49 61/64/49 63/66/50
f 60/64/49 63/66/50 62/66/50
s 2
f 62/66/3 64/67/3 69/65/3
f 63/66/46 68/65/46 65/67/46
s 1
f 62/66/50 63/66/50 64/67/51
f 63/66/50 65/67/51 64/67/51
s 2
f 64/67/3 66/68/3 69/65/3
f 65/67/46 68/65/46 67/68/46
s 1
f 64/67/51 65/67/51 67/68/52
f 64/67/51 67/68/52 66/68/52
s 2
f 66/68/3 58/63/3 69/65/3
f 67/68/46 68/65/46 59/63/46
s 1
f 66/68/52 67/68/52 58/63/47
f 67/68/52 59/63/48 58/63/47
# 20 triangles in group

g Duplicate02
usemtl gold
s 2
f 70/63/3 72/64/3 81/65/3
f 71/63/46 80/65/46 73/64/46
s 1
f 70/63/47 71/63/48 72/64/49
f 71/63/48 73/64/49 72/64/49
s 2
f 72/64/3 74/66/3 81/65/3
f 73/64/46 80/65/46 75/66/46
s 1
f 72/64/49 73/64/49 75/66/50
f 72/64/49 75/66/50 74/66/50
s 2
f 74/66/3 76/67/3 81/65/3
f 75/66/46 80/65/46 77/67/46
s 1
f 74/66/50 75/66/50 76/67/51
f 75/66/50 77/67/51 76/67/51
s 2
f 76/67/3 78/68/3 81/65/3
f 77/67/46 80/65/46 79/68/46
s 1
f 76/67/51 77/67/51 79/68/52
f 76/67/51 79/68/52 78/68/52
s 2
f 78/68/3 70/63/3 81/65/3
f 79/68/46 80/65/46 71/63/46
s 1
f 78/68/52 79/68/52 70/63/47
f 79/68/52 71/63/48 70/63/47
# 20 triangles in group

g Duplicate03
usemtl gold
s 2
f 82/63/3 84/64/3 93/65/3
f 83/63/46 92/65/46 85/64/46
s 1
f 82/63/47 83/63/48 84/64/49
f 83/63/48 85/64/49 84/64/49
s 2
f 84/64/3 86/66/3 93/65/3
f 85/64/46 92/65/46 87/66/46
s 1
f 84/64/49 85/64/49 87/66/50
f 84/64/49 87/66/50 86/66/50
s 2
f 86/66/3 88/67/3 93/65/3
f 87/66/46 92/65/46 89/67/46
s 1
f 86/66/50 87/66/50 88/67/51
f 87/66/50 89/67/51 88/67/51
s 2
f 88/67/3 90/68/3 93/65/3
f 89/67/46 92/65/46 91/68/46
s 1
f 88/67/51 89/67/51 91/68/52
f 88/67/51 91/68/52 90/68/52
s 2
f 90/68/3 82/63/3 93/65/3
f 91/68/46 92/65/46 83/63/46
s 1
f 90/68/52 91/68/52 82/63/47
f 91/68/52 83/63/48 82/63/47
# 20 triangles in group

g Duplicate04
usemtl gold
s 2
f 94/63/3 96/64/3 105/65/3
f 95/63/46 104/65/46 97/64/46
s 1
f 94/63/47 95/63/48 96/64/49
f 95/63/48 97/64/49 96/64/49
s 2
f 96/64/3 98/66/3 105/65/3
f 97/64/46 104/65/46 99/66/46
s 1
f 96/64/49 97/64/49 99/66/50
f 96/64/49 99/66/50 98/66/50
s 2
f 98/66/3 100/67/3 105/65/3
f 99/66/46 104/65/46 101/67/46
s 1
f 98/66/50 99/66/50 100/67/51
f 99/66/50 101/67/51 100/67/51
s 2
f 100/67/3 102/68/3 105/65/3
f 101/67/46 104/65/46 103/68/46
s 1
f 100/67/51 101/67/51 103/68/52
f 100/67/51 103/68/52 102/68/52
s 2
f 102/68/3 94/63/3 105/65/3
f 103/68/46 104/65/46 95/63/46
s 1
f 102/68/52 103/68/52 94/63/47
f 103/68/52 95/63/48 94/63/47
# 20 triangles in group

g Duplicate05
usemtl gold
s 2
f 106/63/3 108/64/3 117/65/3
f 107/63/46 116/65/46 109/64/46
s 1
f 106/63/47 107/63/48 108/64/49
f 107/63/48 109/64/49 108/64/49
s 2
f 108/64/3 110/66/3 117/65/3
f 109/64/46 116/65/46 111/66/46
s 1
f 108/64/49 109/64/49 111/66/50
f 108/64/49 111/66/50 110/66/50
s 2
f 110/66/3 112/67/3 117/65/3
f 111/66/46 116/65/46 113/67/46
s 1
f 110/66/50 111/66/50 112/67/51
f 111/66/50 113/67/51 112/67/51
s 2
f 112/67/3 114/68/3 117/65/3
f 113/67/46 116/65/46 115/68/46
s 1
f 112/67/51 113/67/51 115/68/52
f 112/67/51 115/68/52 114/68/52
s 2
f 114/68/3 106/63/3 117/65/3
f 115/68/46 116/65/46 107/63/46
s 1
f 114/68/52 115/68/52 106/63/47
f 115/68/52 107/63/48 106/63/47
# 20 triangles in group

g Duplicate06
usemtl gold
s 2
f 118/63/3 120/64/3 129/65/3
f 119/63/46 128/65/46 121/64/46
s 1
f 118/63/47 119/63/48 120/64/49
f 119/63/48 121/64/49 120/64/49
s 2
f 120/64/3 122/66/3 129/65/3
f 121/64/46 128/65/46 123/66/46
s 1
f 120/64/49 121/64/49 123/66/50
f 120/64/49 123/66/50 122/66/50
s 2
f 122/66/3 124/67/3 129/65/3
f 123/66/46 128/65/46 125/67/46
s 1
f 122/66/50 123/66/50 124/67/51
f 123/66/50 125/67/51 124/67/51
s 2
f 124/67/3 126/68/3 129/65/3
f 125/67/46 128/65/46 127/68/46
s 1
f 124/67/51 125/67/51 127/68/52
f 124/67/51 127/68/52 126/68/52
s 2
f 126/68/3 118/63/3 129/65/3
f 127/68/46 128/65/46 119/63/46
s 1
f 126/68/52 127/68/52 118/63/47
f 127/68/52 119/63/48 118/63/47
# 20 triangles in group

g Duplicate07
usemtl gold
s 2
f 130/63/3 132/64/3 141/65/3
f 131/63/46 140/65/46 133/64/46
s 1
f 130/63/47 131/63/48 132/64/49
f 131/63/48 133/64/49 132/64/49
s 2
f 132/64/3 134/66/3 141/65/3
f 133/64/46 140/65/46 135/66/46
s 1
f 132/64/49 133/64/49 135/66/50
f 132/64/49 135/66/50 134/66/50
s 2
f 134/66/3 136/67/3 141/65/3
f 135/66/46 140/65/46 137/67/46
s 1
f 134/66/50 135/66/50 136/67/51
f 135/66/50 137/67/51 136/67/51
s 2
f 136/67/3 138/68/3 141/65/3
f 137/67/46 140/65/46 139/68/46
s 1
f 136/67/51 137/67/51 139/68/52
f 136/67/51 139/68/52 138/68/52
s 2
f 138/68/3 130/63/3 141/65/3
f 139/68/46 140/65/46 131/63/46
s 1
f 138/68/52 139/68/52 130/63/47
f 139/68/52 131/63/48 130/63/47
# 20 triangles in group

# 233 triangles total

