# Wavefront OBJ exported by MilkShape 3D

mtllib grainbundle.mtl

v 18.398809 -0.878007 0.763950
v -13.083919 -0.762748 -0.235398
v 15.899137 13.297873 0.726967
v -13.644516 2.416483 -0.243694
v 16.122776 8.674633 8.983339
v -13.441044 0.513714 1.803144
v 16.994341 8.306816 -5.380166
v -13.245566 0.431226 -1.418163
v 17.437094 1.786266 7.696895
v -13.111147 -0.752296 0.448807
v 16.589449 11.236151 -3.128370
v -13.301250 1.367036 -1.978981
v 14.772524 14.150417 5.691938
v -13.691805 1.584563 0.787174
v 18.223104 3.444349 -3.290222
v -12.917938 -0.816489 -1.227257
# 16 vertices

vt 0.864097 0.942901
vt 0.456560 0.061695
vt 0.317145 0.942901
vt 0.704751 0.061695
# 4 texture coordinates

vn -0.031738 -0.002989 0.999492
vn -0.256768 0.965632 -0.040308
vn -0.215076 0.727307 0.651742
vn -0.135260 0.610879 -0.780084
# 4 normals

g Box01
usemtl Material01
s 1
f 3/1/1 2/2/1 1/3/1
f 3/1/1 4/4/1 2/2/1
# 2 triangles in group

g Duplicate01
usemtl Material01
f 7/1/2 6/2/2 5/3/2
f 7/1/2 8/4/2 6/2/2
# 2 triangles in group

g Duplicate02
usemtl Material01
f 11/1/3 10/2/3 9/3/3
f 11/1/3 12/4/3 10/2/3
f 15/1/4 14/2/4 13/3/4
f 15/1/4 16/4/4 14/2/4
# 4 triangles in group

# 8 triangles total

