# Wavefront OBJ exported by MilkShape 3D

mtllib grapes.mtl

v -0.000000 -4.945180 0.412859
v 1.481534 -4.043815 0.605223
v 2.872550 0.634691 0.412859
v 3.762546 3.596313 0.605223
v -0.000000 5.842574 0.637284
v 0.457819 -4.043815 1.778955
v 0.887667 0.634691 3.107757
v 1.162690 3.596313 4.355692
v -1.198587 -4.043815 1.330629
v -2.323941 0.634691 2.078398
v -3.043963 3.596313 2.923140
v -1.198587 -4.043815 -0.120182
v -2.323941 0.634691 -1.252680
v -3.043963 3.596313 -1.712694
v 0.457819 -4.043815 -0.568507
v 0.887667 0.634691 -2.282039
v 1.162690 3.596313 -3.145245
v -2.209126 5.443916 0.750001
v 1.665612 5.495061 0.750001
v 2.709126 10.056085 0.750001
v -1.165612 10.004934 0.749999
# 21 vertices

vt 0.691125 0.492935
vt 0.691125 0.603774
vt 0.746570 0.603774
vt 0.691125 0.714613
vt 0.746570 0.714613
vt 0.691125 0.825453
vt 0.746570 0.825453
vt 0.691125 0.936292
vt 0.802015 0.603774
vt 0.802015 0.492935
vt 0.802015 0.714613
vt 0.802015 0.825453
vt 0.802015 0.936292
vt 0.857459 0.603774
vt 0.857459 0.714613
vt 0.857459 0.825453
vt 0.912905 0.603774
vt 0.912905 0.492935
vt 0.912905 0.714613
vt 0.912905 0.825453
vt 0.912905 0.936292
vt 0.968350 0.603774
vt 0.968350 0.714613
vt 0.968350 0.825453
vt 0.857944 0.291231
vt 0.857944 0.041875
vt 0.981829 0.291231
vt 0.981829 0.041875
# 28 texture coordinates

vn -0.000182 -0.998799 -0.048999
vn 0.802012 -0.577053 -0.154229
vn 0.255175 -0.505217 0.824404
vn 0.926939 -0.292353 0.235190
vn 0.291726 -0.341167 0.893589
vn 0.951495 0.258909 -0.166204
vn 0.315396 0.090061 0.944677
vn -0.000018 0.999997 0.002356
vn -0.614426 -0.632682 0.471374
vn -0.767714 -0.315369 0.557814
vn -0.754890 0.386455 0.529899
vn -0.673660 -0.523422 -0.521740
vn -0.772300 -0.297994 -0.561028
vn -0.801009 0.167128 -0.574850
vn 0.227086 -0.584565 -0.778919
vn 0.291434 -0.308083 -0.905622
vn 0.286127 0.422784 -0.859875
vn -0.000000 0.000001 1.000000
# 18 normals

g Cylinder01
usemtl vine
s 1
f 1/1/1 2/2/2 6/3/3
f 2/2/2 3/4/4 6/3/3
f 3/4/4 7/5/5 6/3/3
f 3/4/4 4/6/6 8/7/7
f 3/4/4 8/7/7 7/5/5
f 4/6/6 5/8/8 8/7/7
f 6/3/3 9/9/9 1/10/1
f 6/3/3 7/5/5 10/11/10
f 6/3/3 10/11/10 9/9/9
f 7/5/5 8/7/7 10/11/10
f 8/7/7 11/12/11 10/11/10
f 8/7/7 5/13/8 11/12/11
f 1/10/1 9/9/9 12/14/12
f 9/9/9 10/11/10 12/14/12
f 10/11/10 13/15/13 12/14/12
f 10/11/10 11/12/11 14/16/14
f 10/11/10 14/16/14 13/15/13
f 11/12/11 5/13/8 14/16/14
f 12/14/12 15/17/15 1/18/1
f 12/14/12 13/15/13 16/19/16
f 12/14/12 16/19/16 15/17/15
f 13/15/13 14/16/14 16/19/16
f 14/16/14 17/20/17 16/19/16
f 14/16/14 5/21/8 17/20/17
f 1/18/1 15/17/15 2/22/2
f 15/17/15 16/19/16 2/22/2
f 16/19/16 3/23/4 2/22/2
f 16/19/16 17/20/17 4/24/6
f 16/19/16 4/24/6 3/23/4
f 17/20/17 5/21/8 4/24/6
# 30 triangles in group

g Box02
usemtl vine
s 3
f 21/25/18 18/26/18 20/27/18
f 18/26/18 19/28/18 20/27/18
# 2 triangles in group

# 32 triangles total

