# Wavefront OBJ exported by MilkShape 3D

mtllib grapevine.mtl

v 4.994684 -15.000000 1.469822
v 1.177463 -15.000000 5.196748
v 0.370610 -15.000000 0.860841
v 4.994684 -15.000000 1.469822
v 2.356972 3.712936 0.860841
v 1.177463 -15.000000 5.196748
v 0.842092 3.220310 2.553049
v 1.299456 8.871090 -0.620159
v -0.174757 9.582495 0.332294
v 3.165798 15.685982 -2.021231
v 2.077487 15.958878 -0.956967
v 4.124629 23.416281 -1.745421
v 3.829158 22.820333 -1.057092
v 0.164616 29.494133 -0.298061
v -3.754802 -15.000000 2.931597
v -1.609036 2.423226 1.906683
v -3.754802 -15.000000 2.931597
v -2.033995 9.777807 -0.485519
v 0.338388 16.506668 -1.363480
v 2.739558 22.520134 -1.000643
v 0.164616 29.494133 -0.298061
v -2.985888 -15.000000 -2.195269
v -2.985888 -15.000000 -2.195269
v -1.609036 2.423226 -0.185001
v -1.708856 9.187109 -1.943409
v 0.351875 16.572317 -2.678981
v 2.361621 22.930548 -1.654084
v 2.421592 -15.000000 -3.098695
v 0.842092 3.220310 -0.831367
v 2.421592 -15.000000 -3.098695
v 0.351329 8.626724 -2.026622
v 2.099312 16.065109 -3.085494
v 3.217643 23.484398 -2.114382
v 0.164616 29.494133 -0.298061
v 4.994684 -15.000000 1.469822
v 2.356972 3.712936 0.860841
v 1.299456 8.871090 -0.620159
v 3.165798 15.685982 -2.021231
v 4.124629 23.416281 -1.745421
v 4.031157 4.909837 -0.026318
v 4.031157 -1.826511 -10.473676
v -4.031157 4.909837 -0.026318
v -4.031157 -1.826511 -10.473676
v -1.953626 11.076505 0.740664
v 4.830884 2.673490 9.952179
v 4.311971 11.076505 -4.333119
v 11.096484 2.673489 4.878388
v -1.572460 8.743170 -3.991727
v -11.935528 4.840157 -1.020165
v 0.649813 8.743170 3.758266
v -9.713255 4.840157 6.729826
v 3.328784 13.743170 -1.078772
v 5.344925 7.006823 -9.362096
v -3.202067 13.743170 -2.566474
v -1.185926 7.006823 -10.849801
v 0.125031 19.076502 -3.034603
v -3.037154 12.840157 2.749099
v 4.608581 19.076502 -0.582436
v 1.446397 12.840157 5.201271
v 3.401957 24.743177 1.178982
v 9.801625 20.840166 -1.363022
v 1.626943 24.743177 -3.613166
v 8.026615 20.840166 -6.155173
v 4.783223 20.909842 -2.575601
v 1.693128 14.173496 -8.396034
v 0.164017 20.909842 -0.389678
v -2.926086 14.173496 -6.210114
v 5.837200 -12.452508 -2.507679
v 0.496143 -12.452504 -2.507679
v 5.837199 14.779971 -2.507679
v 0.496142 14.779971 -2.507679
v 2.397151 1.692027 2.321374
v 3.507621 1.692029 -2.479588
v 2.397151 22.635437 2.321373
v 3.507620 22.635437 -2.479588
v -4.792053 -7.049306 -2.639204
v -4.112444 -7.104373 1.717374
v -4.268498 7.431846 -2.399399
v -3.588892 7.376782 1.957172
# 79 vertices

vt 0.162934 0.947826
vt 0.162934 -0.048458
vt 0.162934 0.150799
vt 0.292587 -0.048458
vt 0.292587 0.150799
vt 0.162934 0.350056
vt 0.292587 0.350056
vt 0.162934 0.549313
vt 0.292587 0.549313
vt 0.162934 0.748569
vt 0.292587 0.748569
vt 0.422240 0.150799
vt 0.422240 -0.048458
vt 0.422240 0.350056
vt 0.422240 0.549313
vt 0.422240 0.748569
vt 0.422240 0.947826
vt 0.551894 -0.048458
vt 0.551894 0.150799
vt 0.551894 0.350056
vt 0.551894 0.549313
vt 0.551894 0.748569
vt 0.681546 0.150799
vt 0.681546 -0.048458
vt 0.681546 0.350056
vt 0.681546 0.549313
vt 0.681546 0.748569
vt 0.681546 0.947826
vt 0.811199 -0.048458
vt 0.811199 0.150799
vt 0.811199 0.350056
vt 0.811199 0.549313
vt 0.811199 0.748569
vt 0.541570 0.980620
vt 0.541570 0.334794
vt 0.056026 0.980620
vt 0.056026 0.334794
vt 0.870052 0.247499
vt 0.870052 0.022522
vt 0.013915 0.247499
vt 0.013915 0.022522
# 41 texture coordinates

vn 0.000000 -1.000000 0.000000
vn 0.693472 0.120864 0.710273
vn 0.676195 0.227946 0.700572
vn 0.211738 0.140013 0.967245
vn 0.221260 0.249239 0.942828
vn 0.593359 0.178854 0.784816
vn 0.187386 0.234636 0.953851
vn 0.738046 -0.093844 0.668192
vn 0.283231 0.016202 0.958915
vn 0.876880 0.106635 0.468732
vn 0.446115 -0.010460 0.894915
vn 0.728228 0.331655 0.599741
vn -0.841858 0.131084 0.523539
vn -0.871418 0.135061 0.471582
vn -0.872209 0.227167 0.433181
vn -0.691440 0.259019 0.674403
vn -0.459022 -0.078876 0.884917
vn -0.516184 -0.272390 0.812009
vn -0.754470 0.133587 -0.642596
vn -0.791231 -0.017332 -0.611272
vn -0.711447 -0.033443 -0.701943
vn -0.746177 0.240306 -0.620865
vn -0.898231 0.147592 -0.414003
vn 0.365970 -0.014923 -0.930507
vn 0.425689 0.147988 -0.892686
vn 0.431691 -0.192266 -0.881293
vn 0.217748 -0.049592 -0.974744
vn -0.083469 0.201375 -0.975951
vn -0.065842 0.257880 -0.963931
vn 0.802803 0.108930 -0.586209
vn 0.741610 0.022522 -0.670453
vn 0.765316 -0.168671 -0.621162
vn 0.658753 -0.190258 -0.727906
vn 0.499389 0.151727 -0.852989
vn 0.000000 0.840439 -0.541906
vn 0.372799 0.805656 0.460368
vn -0.327228 0.940275 0.093831
vn 0.137711 0.784583 -0.604537
vn -0.329777 0.726416 0.602965
vn 0.462496 0.869914 -0.171309
vn -0.305928 0.698912 -0.646475
vn 0.000000 0.000000 -1.000000
vn 0.974277 0.000000 0.225352
vn -0.987444 0.033143 0.154456
# 44 normals

g Cylinder02
usemtl wood
s 2
f 1/1/1 2/1/1 3/1/1
s 1
f 4/2/2 5/3/3 6/4/4
f 5/3/3 7/5/5 6/4/4
f 5/3/3 8/6/6 9/7/7
f 5/3/3 9/7/7 7/5/5
f 8/6/6 10/8/8 9/7/7
f 10/8/8 11/9/9 9/7/7
f 10/8/8 12/10/10 13/11/11
f 10/8/8 13/11/11 11/9/9
f 12/10/10 14/1/12 13/11/11
s 2
f 2/1/1 15/1/1 3/1/1
s 1
f 6/4/4 7/5/5 16/12/13
f 6/4/4 16/12/13 17/13/14
f 7/5/5 9/7/7 16/12/13
f 9/7/7 18/14/15 16/12/13
f 9/7/7 11/9/9 19/15/16
f 9/7/7 19/15/16 18/14/15
f 11/9/9 13/11/11 19/15/16
f 13/11/11 20/16/17 19/15/16
f 13/11/11 21/17/18 20/16/17
s 2
f 15/1/1 22/1/1 3/1/1
s 1
f 17/13/14 16/12/13 23/18/19
f 16/12/13 24/19/20 23/18/19
f 16/12/13 18/14/15 25/20/21
f 16/12/13 25/20/21 24/19/20
f 18/14/15 19/15/16 25/20/21
f 19/15/16 26/21/22 25/20/21
f 19/15/16 20/16/17 27/22/23
f 19/15/16 27/22/23 26/21/22
f 20/16/17 21/17/18 27/22/23
s 2
f 22/1/1 28/1/1 3/1/1
s 1
f 23/18/19 24/19/20 29/23/24
f 23/18/19 29/23/24 30/24/25
f 24/19/20 25/20/21 29/23/24
f 25/20/21 31/25/26 29/23/24
f 25/20/21 26/21/22 32/26/27
f 25/20/21 32/26/27 31/25/26
f 26/21/22 27/22/23 32/26/27
f 27/22/23 33/27/28 32/26/27
f 27/22/23 34/28/29 33/27/28
s 2
f 28/1/1 1/1/1 3/1/1
s 1
f 30/24/25 29/23/24 35/29/30
f 29/23/24 36/30/31 35/29/30
f 29/23/24 31/25/26 37/31/32
f 29/23/24 37/31/32 36/30/31
f 31/25/26 32/26/27 37/31/32
f 32/26/27 38/32/33 37/31/32
f 32/26/27 33/27/28 39/33/34
f 32/26/27 39/33/34 38/32/33
f 33/27/28 34/28/29 39/33/34
# 50 triangles in group

g Box01
usemtl vine
f 40/34/35 41/35/35 42/36/35
f 41/35/35 43/37/35 42/36/35
# 2 triangles in group

g Duplicate01
usemtl vine
f 44/34/36 45/35/36 46/36/36
f 45/35/36 47/37/36 46/36/36
# 2 triangles in group

g Duplicate02
usemtl vine
f 48/34/37 49/35/37 50/36/37
f 49/35/37 51/37/37 50/36/37
# 2 triangles in group

g Duplicate03
usemtl vine
f 52/34/38 53/35/38 54/36/38
f 53/35/38 55/37/38 54/36/38
# 2 triangles in group

g Duplicate04
usemtl vine
f 56/34/39 57/35/39 58/36/39
f 57/35/39 59/37/39 58/36/39
# 2 triangles in group

g Duplicate05
usemtl vine
f 60/34/40 61/35/40 62/36/40
f 61/35/40 63/37/40 62/36/40
# 2 triangles in group

g Duplicate06
usemtl vine
f 64/34/41 65/35/41 66/36/41
f 65/35/41 67/37/41 66/36/41
# 2 triangles in group

g Box01
usemtl vine
f 68/38/42 69/39/42 70/40/42
f 69/39/42 71/41/42 70/40/42
# 2 triangles in group

g Duplicate07
usemtl vine
f 72/38/43 73/39/43 74/40/43
f 73/39/43 75/41/43 74/40/43
# 2 triangles in group

g Duplicate08
usemtl vine
f 76/38/44 77/39/44 78/40/44
f 77/39/44 79/41/44 78/40/44
# 2 triangles in group

# 70 triangles total

