# Wavefront OBJ exported by MilkShape 3D

mtllib gras01.mtl

v 18.500000 24.783295 -10.241669
v 19.500000 -1.466706 3.758331
v -8.250000 24.783295 3.758331
v -8.250000 -1.466706 3.758331
v -21.606813 24.783295 -9.724564
v -21.606813 -1.466706 -9.724564
v -5.143179 24.783295 -2.158774
v -4.143179 -1.466706 11.841226
v 25.509775 13.294140 8.264553
v 23.009775 -1.277553 8.264553
v 19.740231 13.294140 -7.547899
v 17.240231 -1.277553 -7.547899
v -3.986911 17.931679 17.179028
v -0.986914 -1.815093 22.179026
v 16.236916 17.931679 9.537628
v 16.236916 -1.815093 9.537628
v -3.892110 18.531679 -2.151592
v -3.892110 -1.215093 -2.151592
v 8.142113 18.531679 -8.331753
v 11.142113 -1.215093 -17.331753
v 12.785628 24.354723 17.373602
v 12.785628 -1.895278 17.373602
v -8.780158 24.354723 -0.090024
v -8.780158 -1.895278 -0.090024
v -10.675293 24.354723 -18.973911
v -10.675293 -1.895278 -18.973911
v -10.675291 24.354723 8.776065
v -10.675291 -1.895278 8.776065
v 12.677376 13.365568 23.084362
v 12.677376 -1.706125 23.084362
v 18.144699 13.365568 7.164900
v 18.144699 -1.706125 7.164900
v -20.728199 17.503107 21.796345
v -14.728199 -2.243665 18.796345
v 6.612712 17.503107 19.811436
v 6.612712 -2.243665 19.811436
v -4.674209 18.103107 -6.940390
v -1.674211 -1.643665 -1.940390
v 19.562737 18.103107 -4.276237
v 19.562737 -1.643665 -4.276237
v -6.179937 13.204256 -17.327938
v -4.179939 -1.587670 -15.327938
v -20.570053 13.204256 -2.955411
v -18.570055 -1.587670 -0.955411
v 13.358829 30.388214 9.087105
v 9.297052 -3.229706 12.586868
v -4.577943 29.454382 -11.445324
v -4.577943 -3.229706 -11.445324
v -2.471460 30.388214 12.093078
v -7.055086 -3.229706 9.311583
v 11.513271 29.454382 -11.310672
v 11.513271 -3.229706 -11.310672
v 0.415164 13.294140 22.924995
v -1.999651 -1.277553 23.572046
v -9.250352 13.294140 9.144609
v -11.665165 -1.277553 9.791656
# 56 vertices

vt 0.000000 1.000000
vt 0.000000 0.000000
vt 1.000000 1.000000
vt 1.000000 0.000000
# 4 texture coordinates

vn -0.416364 -0.440156 -0.795552
vn -0.219715 -0.232270 -0.947511
vn 0.000000 0.000000 -1.000000
vn -0.417565 0.000000 0.908647
vn -0.602259 0.151843 0.783727
vn -0.743126 0.292635 0.601771
vn 0.927451 -0.159119 -0.338402
vn 0.339415 0.279020 0.898301
vn 0.474532 0.142202 0.868676
vn 0.591686 0.000000 0.806169
vn 0.456830 0.000000 0.889554
vn 0.586284 -0.105935 0.803149
vn 0.694957 -0.208116 0.688276
vn 0.629320 0.000000 -0.777146
vn -1.000000 0.000000 0.000000
vn 0.945778 0.000000 0.324815
vn 0.071808 -0.128451 0.989113
vn 0.012195 -0.064474 0.997845
vn -0.047512 0.000000 0.998871
vn -0.106363 0.228851 0.967633
vn 0.001502 0.115877 0.993262
vn 0.109330 0.000000 0.994005
vn -0.694099 -0.187811 -0.694948
vn 0.747244 -0.157495 -0.645617
vn 0.812766 -0.079346 -0.577162
vn 0.866025 0.000000 -0.500000
vn 0.844929 -0.157495 0.511165
vn 0.800072 -0.079346 0.594633
vn 0.743145 0.000000 0.669131
vn 0.808264 -0.159119 -0.566913
# 30 normals

g Box02
usemtl gras1
s 1
f 1/1/1 2/2/2 3/3/2
f 2/2/2 4/4/3 3/3/2
# 2 triangles in group

g Duplicate02
usemtl gras1
f 5/1/4 6/2/5 7/3/5
f 6/2/5 8/4/6 7/3/5
# 2 triangles in group

g Duplicate03
usemtl gras1
f 9/1/7 10/2/7 11/3/7
f 10/2/7 12/4/7 11/3/7
# 2 triangles in group

g Duplicate04
usemtl gras1
f 13/1/8 14/2/9 15/3/9
f 14/2/9 16/4/10 15/3/9
# 2 triangles in group

g Duplicate05
usemtl gras1
f 17/1/11 18/2/12 19/3/12
f 18/2/12 20/4/13 19/3/12
# 2 triangles in group

g Duplicate01
usemtl gras1
f 21/1/14 22/2/14 23/3/14
f 22/2/14 24/4/14 23/3/14
f 25/1/15 26/2/15 27/3/15
f 26/2/15 28/4/15 27/3/15
f 29/1/16 30/2/16 31/3/16
f 30/2/16 32/4/16 31/3/16
f 33/1/17 34/2/18 35/3/18
f 34/2/18 36/4/19 35/3/18
f 37/1/20 38/2/21 39/3/21
f 38/2/21 40/4/22 39/3/21
# 10 triangles in group

g Duplicate02
usemtl gras1
f 41/1/23 42/2/23 43/3/23
f 42/2/23 44/4/23 43/3/23
# 2 triangles in group

g Duplicate03
usemtl gras1
f 45/1/24 46/2/25 47/3/25
f 46/2/25 48/4/26 47/3/25
# 2 triangles in group

g Duplicate04
usemtl gras1
f 49/1/27 50/2/28 51/3/28
f 50/2/28 52/4/29 51/3/28
# 2 triangles in group

g Duplicate05
usemtl gras1
f 53/1/30 54/2/30 55/3/30
f 54/2/30 56/4/30 55/3/30
# 2 triangles in group

# 28 triangles total

