# Wavefront OBJ exported by MilkShape 3D

mtllib gras02.mtl

v 9.885014 24.783295 -17.718420
v 17.340565 -1.466706 -5.826616
v -7.161237 24.783295 7.201221
v -7.161237 -1.466706 7.201221
v -25.284441 24.783295 1.567174
v -25.284441 -1.466706 1.567174
v -7.195991 24.783295 0.518161
v 0.259561 -1.466706 12.409956
v 24.762421 13.294140 -4.669277
v 22.555059 -1.277553 -3.495598
v 12.244720 13.294140 -15.922213
v 10.037352 -1.277553 -14.748537
v 2.903484 17.931679 17.049597
v 7.899686 -1.815093 20.055922
v 17.172653 17.931679 0.808125
v 17.172653 -1.815093 0.808125
v -6.087987 18.531679 -0.062838
v -6.087987 -1.215093 -0.062838
v 1.636193 18.531679 -11.169331
v 0.059790 -1.215093 -20.524265
v 10.221544 24.354723 28.102293
v 10.221544 -1.895278 28.102293
v -17.018593 24.354723 22.807348
v -17.018593 -1.895278 22.807348
v -27.557346 24.354723 7.023580
v -27.557346 -1.895278 7.023580
v -14.529523 24.354723 31.525351
v -14.529523 -1.895278 31.525351
v 12.807010 13.365568 33.195431
v 12.807010 -1.706124 33.195431
v 10.160632 13.365568 16.572613
v 10.160632 -1.706124 16.572613
v -17.293060 17.503107 47.741154
v -13.403794 -2.243665 42.275452
v 5.915679 17.503107 33.152786
v 5.915679 -2.243665 33.152786
v -16.609304 18.103107 14.831209
v -11.613108 -1.643664 17.837536
v 6.041394 18.103107 5.804957
v 6.041394 -1.643664 5.804957
v -22.815445 13.204256 6.366446
v -20.110609 -1.587670 7.193397
v -28.773678 13.204256 25.812382
v -26.068827 -1.587670 26.639334
v 23.358498 30.388214 -19.413479
v 21.415205 -3.229707 -14.416473
v -2.118125 29.454380 -29.121735
v -2.118125 -3.229707 -29.121735
v 10.792405 30.388214 -9.327484
v 5.439470 -3.229706 -9.631516
v 12.152797 29.454380 -36.557213
v 12.152797 -3.229706 -36.557213
v 9.487855 13.294140 20.056332
v 7.659472 -1.277553 21.761332
v -5.515792 13.294140 12.426659
v -7.344174 -1.277553 14.131657
v -19.506407 24.354721 9.640221
v -19.506407 -1.895278 9.640221
v -29.451113 24.354721 -16.266619
v -29.451113 -1.895278 -16.266619
v -21.650423 24.354721 -33.568138
v -21.650423 -1.895278 -33.568138
v -35.525398 24.354721 -9.535929
v -35.525398 -1.895278 -9.535929
v -22.455538 13.365568 14.531776
v -22.455538 -1.706124 14.531776
v -9.760968 13.365568 3.478771
v -9.760968 -1.706124 3.478771
v -50.741615 17.503107 -3.286470
v -44.045471 -2.243665 -2.884559
v -26.071230 17.503107 8.664997
v -26.071230 -2.243665 8.664997
v -22.470078 18.103107 -20.146233
v -22.372000 -1.643664 -14.316105
v -2.812332 18.103107 -5.720532
v -2.812332 -1.643664 -5.720532
v -18.580303 13.204256 -29.895004
v -17.848249 -1.587670 -27.162926
v -38.228775 13.204256 -24.643076
v -37.496727 -1.587670 -21.911036
v 27.524633 24.354721 23.895821
v 27.524633 -1.895278 23.895821
v 17.579926 24.354721 -2.011019
v 17.579926 -1.895278 -2.011019
v 25.380627 24.354721 -19.312534
v 25.380627 -1.895278 -19.312534
v 11.505642 24.354721 4.719667
v 11.505642 -1.895278 4.719667
v 25.908829 13.365568 27.454039
v 25.908829 -1.706124 27.454039
v 38.603409 13.365568 16.401033
v 38.603409 -1.706124 16.401033
v -3.710577 17.503107 10.969127
v 2.985581 -2.243665 11.371035
v 20.959803 17.503107 22.920589
v 20.959803 -2.243665 22.920589
v 24.560959 18.103107 -5.890636
v 24.659037 -1.643664 -0.060508
v 44.218704 18.103107 8.535046
v 44.218704 -1.643664 8.535046
v 28.450747 13.204256 -15.639400
v 29.182800 -1.587670 -12.907337
v 8.802257 13.204256 -10.387480
v 9.534307 -1.587670 -7.655426
v 5.966349 23.253506 -4.953018
v -2.444333 -2.701422 -1.105339
v -16.825630 22.532524 -42.007526
v -16.825630 -2.701422 -42.007526
v -22.573141 23.253506 -5.927259
v -29.380543 -2.701422 -11.693725
v 10.912257 22.532524 -36.226204
v 10.912257 -2.701422 -36.226204
v 8.241434 23.253506 28.150932
v 0.494799 -2.701422 22.374180
v 17.900600 22.532524 -8.965944
v 17.900600 -2.701422 -8.965944
v -8.987450 23.253506 2.206959
v -9.524445 -2.701422 -6.482866
v 31.524677 22.532524 18.434605
v 31.524677 -2.701422 18.434605
v 38.993389 16.110416 -21.924120
v 31.195435 -2.293827 -16.655397
v 21.357143 16.110416 -31.281540
v 21.357143 -2.293827 -31.281540
# 124 vertices

vt 0.000000 1.000000
vt 0.000000 0.000000
vt 1.000000 1.000000
vt 1.000000 0.000000
# 4 texture coordinates

vn -0.741117 -0.440156 -0.506960
vn -0.638826 -0.232270 -0.733452
vn -0.469471 0.000000 -0.882948
vn 0.057896 0.000000 0.998323
vn -0.163826 0.151843 0.974733
vn -0.373626 0.292635 0.880209
vn 0.660021 -0.159118 -0.734203
vn 0.721413 0.279020 0.633807
vn 0.826805 0.142202 0.544216
vn 0.900901 0.000000 0.434025
vn 0.820977 0.000000 0.570961
vn 0.894714 -0.105935 0.433895
vn 0.936736 -0.208115 0.281449
vn 0.190809 0.000000 -0.981627
vn -0.882948 0.000000 0.469472
vn 0.987563 0.000000 -0.157222
vn 0.527763 -0.128452 0.839622
vn 0.479227 -0.064475 0.875319
vn 0.426990 0.000000 0.904256
vn 0.360363 0.228851 0.904304
vn 0.467635 0.115877 0.876293
vn 0.563190 0.000000 0.826327
vn -0.939112 -0.187811 -0.287744
vn 0.356679 -0.157495 -0.920856
vn 0.446669 -0.079346 -0.891174
vn 0.529919 0.000000 -0.848048
vn 0.986006 -0.157495 0.054662
vn 0.985585 -0.079346 0.149419
vn 0.970296 0.000000 0.241922
vn 0.447505 -0.159119 -0.880012
vn 0.933580 0.000000 -0.358368
vn -0.866026 0.000000 -0.499999
vn 0.656661 0.000000 0.754186
vn -0.432368 -0.128451 0.892501
vn -0.488361 -0.064475 0.870257
vn -0.540582 0.000000 0.841292
vn -0.575930 0.228851 0.784813
vn -0.495330 0.115877 0.860942
vn -0.402320 0.000000 0.915499
vn -0.253634 -0.187813 -0.948892
vn 0.805843 -0.333651 -0.489177
vn 0.892074 -0.170156 -0.418630
vn 0.943386 0.000000 -0.331697
vn 0.631318 -0.322297 0.705381
vn 0.585906 -0.164010 0.793608
vn 0.520046 0.000000 0.854138
vn 0.913059 -0.326814 0.243959
vn 0.912861 -0.166922 0.372589
vn 0.874221 0.000000 0.485528
vn -0.360359 -0.289440 0.886773
vn -0.445798 -0.146750 0.883023
vn -0.518899 0.000000 0.854836
vn 0.427175 -0.411481 -0.805111
vn 0.661759 -0.216641 -0.717734
vn 0.829751 0.000000 -0.558133
# 55 normals

g Box02
usemtl gras1
s 1
f 1/1/1 2/2/2 3/3/2
f 2/2/2 4/4/3 3/3/2
# 2 triangles in group

g Duplicate02
usemtl gras1
f 5/1/4 6/2/5 7/3/5
f 6/2/5 8/4/6 7/3/5
# 2 triangles in group

g Duplicate03
usemtl gras1
f 9/1/7 10/2/7 11/3/7
f 10/2/7 12/4/7 11/3/7
# 2 triangles in group

g Duplicate04
usemtl gras1
f 13/1/8 14/2/9 15/3/9
f 14/2/9 16/4/10 15/3/9
# 2 triangles in group

g Duplicate05
usemtl gras1
f 17/1/11 18/2/12 19/3/12
f 18/2/12 20/4/13 19/3/12
# 2 triangles in group

g Duplicate01
usemtl gras1
f 21/1/14 22/2/14 23/3/14
f 22/2/14 24/4/14 23/3/14
f 25/1/15 26/2/15 27/3/15
f 26/2/15 28/4/15 27/3/15
f 29/1/16 30/2/16 31/3/16
f 30/2/16 32/4/16 31/3/16
f 33/1/17 34/2/18 35/3/18
f 34/2/18 36/4/19 35/3/18
f 37/1/20 38/2/21 39/3/21
f 38/2/21 40/4/22 39/3/21
# 10 triangles in group

g Duplicate02
usemtl gras1
f 41/1/23 42/2/23 43/3/23
f 42/2/23 44/4/23 43/3/23
# 2 triangles in group

g Duplicate03
usemtl gras1
f 45/1/24 46/2/25 47/3/25
f 46/2/25 48/4/26 47/3/25
# 2 triangles in group

g Duplicate04
usemtl gras1
f 49/1/27 50/2/28 51/3/28
f 50/2/28 52/4/29 51/3/28
# 2 triangles in group

g Duplicate05
usemtl gras1
f 53/1/30 54/2/30 55/3/30
f 54/2/30 56/4/30 55/3/30
# 2 triangles in group

g Duplicate01
usemtl gras1
f 57/1/31 58/2/31 59/3/31
f 58/2/31 60/4/31 59/3/31
f 61/1/32 62/2/32 63/3/32
f 62/2/32 64/4/32 63/3/32
f 65/1/33 66/2/33 67/3/33
f 66/2/33 68/4/33 67/3/33
f 69/1/34 70/2/35 71/3/35
f 70/2/35 72/4/36 71/3/35
f 73/1/37 74/2/38 75/3/38
f 74/2/38 76/4/39 75/3/38
f 77/1/40 78/2/40 79/3/40
f 78/2/40 80/4/40 79/3/40
# 12 triangles in group

g Duplicate02
usemtl gras1
f 81/1/31 82/2/31 83/3/31
f 82/2/31 84/4/31 83/3/31
f 85/1/32 86/2/32 87/3/32
f 86/2/32 88/4/32 87/3/32
f 89/1/33 90/2/33 91/3/33
f 90/2/33 92/4/33 91/3/33
f 93/1/34 94/2/35 95/3/35
f 94/2/35 96/4/36 95/3/35
f 97/1/37 98/2/38 99/3/38
f 98/2/38 100/4/39 99/3/38
f 101/1/40 102/2/40 103/3/40
f 102/2/40 104/4/40 103/3/40
# 12 triangles in group

g Duplicate03
usemtl gras1
f 105/1/41 106/2/42 107/3/42
f 106/2/42 108/4/43 107/3/42
f 109/1/44 110/2/45 111/3/45
f 110/2/45 112/4/46 111/3/45
# 4 triangles in group

g Duplicate04
usemtl gras1
f 113/1/47 114/2/48 115/3/48
f 114/2/48 116/4/49 115/3/48
f 117/1/50 118/2/51 119/3/51
f 118/2/51 120/4/52 119/3/51
# 4 triangles in group

g Duplicate05
usemtl gras1
f 121/1/53 122/2/54 123/3/54
f 122/2/54 124/4/55 123/3/54
# 2 triangles in group

# 62 triangles total

