# Wavefront OBJ exported by MilkShape 3D

mtllib hammock.mtl

v -6.701939 -17.298183 0.353076
v -12.027576 14.451231 -0.208309
v -7.115905 -17.331394 1.354658
v -8.111059 -17.446287 1.769528
v -9.104444 -17.575562 1.354658
v -9.514151 -17.643476 0.353076
v -9.100183 -17.610266 -0.648506
v -8.105030 -17.495365 -1.063375
v -7.111645 -17.366100 -0.648506
v -8.108043 -17.470825 0.353076
v 9.121941 -17.660667 0.353076
v 12.195127 14.385294 -0.208309
v 8.713484 -17.585606 1.354658
v 7.722503 -17.439014 1.769528
v 6.729511 -17.306784 1.354658
v 6.316184 -17.266342 0.353076
v 6.724642 -17.341404 -0.648506
v 7.715624 -17.487988 -1.063375
v 8.708615 -17.620235 -0.648506
v 7.719063 -17.463499 0.353076
v 0.169163 4.352275 -0.121236
v 3.815010 4.853046 -0.121236
v 3.118715 4.853046 1.324569
v 1.295792 4.853046 2.218123
v -0.957465 4.853046 2.218123
v -2.780389 4.853046 1.324569
v -3.476684 4.853046 -0.121236
v -2.780389 4.853046 -1.567036
v -0.957465 4.853046 -2.460591
v 1.295792 4.853046 -2.460591
v 3.118715 4.853046 -1.567036
v 7.684179 6.279120 -0.121236
v 5.619224 6.279120 2.550255
v 2.250901 6.279120 4.201331
v -1.912575 6.279120 4.201331
v -5.280898 6.279120 2.550255
v -7.349677 6.279120 -0.121236
v -5.280898 6.279120 -2.792722
v -1.912575 6.279120 -4.443801
v 2.250901 6.279120 -4.443801
v 5.619224 6.279120 -2.792722
v 9.988591 8.413393 -0.121236
v 8.112884 7.913393 3.369244
v 2.889085 7.273113 5.151155
v -2.550759 7.273113 5.151155
v -7.778378 7.913393 3.369244
v -9.654090 8.413393 -0.121236
v -7.778378 7.913393 -3.611708
v -2.550759 7.290673 -5.470755
v 2.889085 7.290673 -5.470755
v 8.112884 7.913393 -3.611708
v 12.036063 11.662467 -0.121236
v 8.767543 9.900947 3.693926
v 3.113185 8.439062 5.527525
v -2.774859 8.439062 5.527525
v -8.433036 9.900947 3.693926
v -11.443868 11.662467 -0.121236
v -8.433036 9.921372 -4.110430
v -2.774859 8.401078 -5.987984
v 3.113185 8.401078 -5.987984
v 8.767543 9.921372 -4.110430
v -11.785714 12.321465 -0.203063
v -11.785714 11.140338 -0.203063
v -11.087325 11.730902 -0.203063
v -11.569901 11.730902 0.513187
v -12.350721 11.730902 0.239605
v -12.350721 11.730902 -0.645731
v -11.569901 11.730902 -0.919315
v 11.642857 12.237867 -0.203063
v 11.642857 11.081079 -0.203063
v 12.422465 11.659473 -0.203063
v 11.883765 11.659473 0.397475
v 11.012143 11.659473 0.168091
v 11.012143 11.659473 -0.574217
v 11.883765 11.659473 -0.803602
v -9.960423 11.839843 4.148030
v -9.960423 4.252913 4.148030
v 9.960423 11.839843 4.148030
v 9.960423 4.252913 4.148030
v 9.960423 11.839843 -4.470822
v 9.960423 4.252913 -4.470822
v -9.960423 11.839843 -4.470822
v -9.960423 4.252913 -4.470822
# 83 vertices

vt 0.000000 1.000000
vt 0.000000 0.000000
vt 0.125000 0.000000
vt 0.250000 1.000000
vt 0.250000 0.000000
vt 0.375000 0.000000
vt 0.500000 1.000000
vt 0.500000 0.000000
vt 0.625000 0.000000
vt 0.750000 1.000000
vt 0.750000 0.000000
vt 0.875000 0.000000
vt 1.000000 1.000000
vt 1.000000 0.000000
vt 0.612228 0.366720
vt 0.644791 0.501642
vt 0.474289 0.501642
vt 0.526977 0.283334
vt 0.421601 0.283334
vt 0.336349 0.366720
vt 0.303786 0.501642
vt 0.336349 0.636564
vt 0.421601 0.719950
vt 0.526977 0.719950
vt 0.612228 0.636564
vt 0.729168 0.252339
vt 0.825738 0.501642
vt 0.571644 0.098262
vt 0.376934 0.098262
vt 0.219410 0.252339
vt 0.122661 0.501642
vt 0.219410 0.750945
vt 0.376934 0.905023
vt 0.571644 0.905023
vt 0.729168 0.750945
vt 0.933506 0.501642
vt 0.845787 0.175912
vt 0.610434 0.010769
vt 0.378754 0.010769
vt 0.102612 0.175912
vt 0.076226 0.494499
vt 0.102612 0.827372
vt 0.378754 0.978229
vt 0.610434 0.978229
vt 0.845787 0.827372
vt 0.876403 0.145612
vt 1.000000 0.494499
vt 0.619978 0.000000
vt 0.369209 0.000000
vt 0.071996 0.145612
vt 0.000000 0.494499
vt 0.071996 0.873913
vt 0.369209 1.000000
vt 0.619978 1.000000
vt 0.876403 0.873913
vt 0.618245 0.790701
vt 0.713288 0.790701
vt 0.647615 0.696982
vt 0.541355 0.732779
vt 0.541355 0.848623
vt 0.647615 0.884421
# 61 texture coordinates

vn 0.121847 -0.992396 0.017453
vn 0.986224 0.165415 -0.000768
vn -0.121850 0.992395 -0.017456
vn 0.694294 0.141992 0.705545
vn -0.007487 0.060970 0.998112
vn -0.708021 -0.030190 0.705545
vn -0.996946 -0.078087 -0.000767
vn -0.705016 -0.054664 -0.707082
vn -0.003236 0.026359 -0.999647
vn 0.697299 0.117519 -0.707081
vn -0.139157 -0.990117 0.017455
vn 0.995432 -0.095475 -0.000769
vn 0.139155 0.990117 -0.017450
vn 0.707387 -0.042543 0.705545
vn 0.008548 0.060830 0.998112
vn -0.691709 0.154088 0.705546
vn -0.983187 0.182602 -0.000766
vn -0.695141 0.129670 -0.707082
vn 0.003697 0.026298 -0.999647
vn 0.703955 -0.066960 -0.707081
vn -0.222248 0.946090 -0.235627
vn -0.301458 0.953480 0.000000
vn -0.000000 1.000000 0.000000
vn -0.095857 0.897527 -0.430415
vn 0.082630 0.924678 -0.371677
vn 0.239025 0.929050 -0.282371
vn 0.241612 0.970373 0.000000
vn 0.239025 0.929050 0.282371
vn 0.082630 0.924678 0.371677
vn -0.095857 0.897527 0.430415
vn -0.222248 0.946089 0.235628
vn -0.373813 0.829653 -0.414656
vn -0.515336 0.856988 0.000000
vn -0.134269 0.784586 -0.605307
vn 0.135012 0.784056 -0.605828
vn 0.337458 0.836520 -0.431690
vn 0.472674 0.881237 0.000000
vn 0.337458 0.836520 0.431690
vn 0.135024 0.790452 0.597456
vn -0.132337 0.792363 0.595523
vn -0.373271 0.831328 0.411780
vn -0.757754 0.652533 -0.002997
vn -0.550931 0.610030 -0.569506
vn -0.169632 0.537888 -0.825773
vn 0.165541 0.548020 -0.819921
vn 0.538696 0.599144 -0.592312
vn 0.785681 0.618631 0.000000
vn 0.537183 0.622983 0.568618
vn 0.165646 0.608482 0.776087
vn -0.171522 0.593116 0.786634
vn -0.546395 0.630824 0.550921
vn -0.615278 0.380599 -0.690346
vn -0.846003 0.533126 -0.007436
vn -0.188230 0.334281 -0.923486
vn 0.177626 0.311668 -0.933441
vn 0.613122 0.319943 -0.722301
vn 0.895142 0.445703 -0.008372
vn 0.622842 0.373766 0.687290
vn 0.184089 0.416102 0.890489
vn -0.198179 0.446449 0.872587
vn -0.617975 0.432080 0.656821
vn -0.000139 -1.000000 0.000000
vn 1.000000 0.000000 0.000000
vn 0.322858 0.000000 0.946447
vn -0.822496 0.000000 0.568771
vn -0.822496 0.000000 -0.568770
vn 0.322857 0.000000 -0.946448
vn 0.271643 0.000000 0.962398
vn -0.001035 0.999999 0.000000
vn -0.768886 0.000000 0.639386
vn -0.768887 0.000000 -0.639385
vn 0.271643 0.000000 -0.962398
vn 0.000000 0.000000 1.000000
vn 0.000000 0.000000 -1.000000
vn -1.000000 0.000000 0.000000
# 75 normals

g Cylinder01
usemtl Material01
s 2
f 1/1/1 3/1/1 10/1/1
s 1
f 1/2/2 2/1/3 3/3/4
s 2
f 3/1/1 4/1/1 10/1/1
s 1
f 3/3/4 2/4/3 4/5/5
s 2
f 4/1/1 5/1/1 10/1/1
s 1
f 4/5/5 2/4/3 5/6/6
s 2
f 5/1/1 6/1/1 10/1/1
s 1
f 5/6/6 2/7/3 6/8/7
s 2
f 6/1/1 7/1/1 10/1/1
s 1
f 6/8/7 2/7/3 7/9/8
s 2
f 7/1/1 8/1/1 10/1/1
s 1
f 7/9/8 2/10/3 8/11/9
s 2
f 8/1/1 9/1/1 10/1/1
s 1
f 8/11/9 2/10/3 9/12/10
s 2
f 9/1/1 1/1/1 10/1/1
s 1
f 9/12/10 2/13/3 1/14/2
# 16 triangles in group

g Duplicate00
usemtl Material01
s 2
f 11/1/11 13/1/11 20/1/11
s 1
f 11/2/12 12/1/13 13/3/14
s 2
f 13/1/11 14/1/11 20/1/11
s 1
f 13/3/14 12/4/13 14/5/15
s 2
f 14/1/11 15/1/11 20/1/11
s 1
f 14/5/15 12/4/13 15/6/16
s 2
f 15/1/11 16/1/11 20/1/11
s 1
f 15/6/16 12/7/13 16/8/17
s 2
f 16/1/11 17/1/11 20/1/11
s 1
f 16/8/17 12/7/13 17/9/18
s 2
f 17/1/11 18/1/11 20/1/11
s 1
f 17/9/18 12/10/13 18/11/19
s 2
f 18/1/11 19/1/11 20/1/11
s 1
f 18/11/19 12/10/13 19/12/20
s 2
f 19/1/11 11/1/11 20/1/11
s 1
f 19/12/20 12/13/13 11/14/12
# 16 triangles in group

g Sphere04
usemtl Material02
f 23/15/21 22/16/22 21/17/23
f 24/18/24 23/15/21 21/17/23
f 25/19/25 24/18/24 21/17/23
f 26/20/26 25/19/25 21/17/23
f 27/21/27 26/20/26 21/17/23
f 28/22/28 27/21/27 21/17/23
f 29/23/29 28/22/28 21/17/23
f 30/24/30 29/23/29 21/17/23
f 31/25/31 30/24/30 21/17/23
f 22/16/22 31/25/31 21/17/23
f 33/26/32 32/27/33 22/16/22
f 23/15/21 33/26/32 22/16/22
f 24/18/24 33/26/32 23/15/21
f 24/18/24 34/28/34 33/26/32
f 35/29/35 34/28/34 24/18/24
f 25/19/25 35/29/35 24/18/24
f 26/20/26 35/29/35 25/19/25
f 26/20/26 36/30/36 35/29/35
f 37/31/37 36/30/36 26/20/26
f 27/21/27 37/31/37 26/20/26
f 28/22/28 37/31/37 27/21/27
f 28/22/28 38/32/38 37/31/37
f 39/33/39 38/32/38 28/22/28
f 29/23/29 39/33/39 28/22/28
f 30/24/30 39/33/39 29/23/29
f 30/24/30 40/34/40 39/33/39
f 41/35/41 40/34/40 30/24/30
f 31/25/31 41/35/41 30/24/30
f 22/16/22 41/35/41 31/25/31
f 22/16/22 32/27/33 41/35/41
f 33/26/32 42/36/42 32/27/33
f 33/26/32 43/37/43 42/36/42
f 44/38/44 43/37/43 33/26/32
f 34/28/34 44/38/44 33/26/32
f 35/29/35 44/38/44 34/28/34
f 35/29/35 45/39/45 44/38/44
f 46/40/46 45/39/45 35/29/35
f 36/30/36 46/40/46 35/29/35
f 37/31/37 46/40/46 36/30/36
f 37/31/37 47/41/47 46/40/46
f 48/42/48 47/41/47 37/31/37
f 38/32/38 48/42/48 37/31/37
f 39/33/39 48/42/48 38/32/38
f 39/33/39 49/43/49 48/42/48
f 50/44/50 49/43/49 39/33/39
f 40/34/40 50/44/50 39/33/39
f 41/35/41 50/44/50 40/34/40
f 41/35/41 51/45/51 50/44/50
f 42/36/42 51/45/51 41/35/41
f 32/27/33 42/36/42 41/35/41
f 53/46/52 52/47/53 42/36/42
f 43/37/43 53/46/52 42/36/42
f 44/38/44 53/46/52 43/37/43
f 44/38/44 54/48/54 53/46/52
f 55/49/55 54/48/54 44/38/44
f 45/39/45 55/49/55 44/38/44
f 46/40/46 55/49/55 45/39/45
f 46/40/46 56/50/56 55/49/55
f 57/51/57 56/50/56 46/40/46
f 47/41/47 57/51/57 46/40/46
f 48/42/48 57/51/57 47/41/47
f 48/42/48 58/52/58 57/51/57
f 59/53/59 58/52/58 48/42/48
f 49/43/49 59/53/59 48/42/48
f 50/44/50 59/53/59 49/43/49
f 50/44/50 60/54/60 59/53/59
f 61/55/61 60/54/60 50/44/50
f 51/45/51 61/55/61 50/44/50
f 42/36/42 61/55/61 51/45/51
f 42/36/42 52/47/53 61/55/61
# 70 triangles in group

g Sphere05
usemtl Material02
f 63/56/62 64/57/63 65/58/64
f 62/56/23 65/58/64 64/57/63
f 63/56/62 65/58/64 66/59/65
f 62/56/23 66/59/65 65/58/64
f 63/56/62 66/59/65 67/60/66
f 62/56/23 67/60/66 66/59/65
f 63/56/62 67/60/66 68/61/67
f 62/56/23 68/61/67 67/60/66
f 63/56/62 68/61/67 64/57/63
f 62/56/23 64/57/63 68/61/67
# 10 triangles in group

g Duplicate01
usemtl Material02
f 70/56/62 71/57/63 72/58/68
f 69/56/69 72/58/68 71/57/63
f 70/56/62 72/58/68 73/59/70
f 69/56/69 73/59/70 72/58/68
f 70/56/62 73/59/70 74/60/71
f 69/56/69 74/60/71 73/59/70
f 70/56/62 74/60/71 75/61/72
f 69/56/69 75/61/72 74/60/71
f 70/56/62 75/61/72 71/57/63
f 69/56/69 71/57/63 75/61/72
# 10 triangles in group

g Box02
usemtl Material03
f 76/1/73 77/2/73 78/13/73
f 77/2/73 79/14/73 78/13/73
s 2
f 78/1/63 79/2/63 80/13/63
f 79/2/63 81/14/63 80/13/63
s 1
f 80/1/74 81/2/74 82/13/74
f 81/2/74 83/14/74 82/13/74
s 2
f 82/1/75 83/2/75 76/13/75
f 83/2/75 77/14/75 76/13/75
s 3
f 82/1/23 76/2/23 80/13/23
f 76/2/23 78/14/23 80/13/23
f 77/1/62 83/2/62 79/13/62
f 83/2/62 81/14/62 79/13/62
# 12 triangles in group

# 134 triangles total

