# Wavefront OBJ exported by MilkShape 3D

mtllib herb02.mtl

v -6.567090 4.622752 -21.250416
v -1.070782 9.768038 -17.300621
v -8.925235 9.763674 -13.823710
v 2.012480 10.378417 -11.740457
v -8.103814 10.374054 -7.320279
v -5.604785 5.980072 -1.315110
v 2.982378 5.966982 -4.292179
v -0.375160 -0.176998 0.516963
v 1.402002 -0.176998 -0.224173
v 13.826765 4.622752 18.556562
v 7.263935 9.768038 16.666681
v 13.830950 9.763674 10.264627
v 2.551506 10.378417 12.268864
v 11.027493 10.374054 4.081110
v 6.746083 5.980072 -0.978889
v -0.687585 5.966982 5.197849
v 1.095384 -0.176998 -0.854924
v -0.404523 -0.176998 0.548151
v 20.926500 4.073699 -8.488223
v 17.576597 8.705295 -2.966532
v 13.166350 8.701369 -10.028372
v 12.325067 9.254737 0.434889
v 6.703258 9.250810 -8.665812
v 0.935739 5.295507 -5.772721
v 4.926343 5.283726 2.022787
v -0.309483 -0.246859 -0.693980
v 0.642454 -0.246858 0.907985
v -22.825426 4.073699 -0.773046
v -16.047163 8.705295 -4.091507
v -17.389048 8.701369 3.480283
v -9.185138 9.254737 -4.915566
v -10.966468 9.250810 4.818682
v -4.033726 5.295507 4.615643
v -1.812677 5.283726 -3.406811
v 0.653595 -0.246859 0.860705
v 0.998886 -0.246858 -0.838369
v -10.457813 3.791068 18.044678
v -10.098105 7.968953 11.074883
v -4.725573 7.965411 15.839500
v -7.737934 8.464570 5.260066
v -0.855693 8.461028 11.429765
v 2.024379 4.893187 5.863174
v -3.317434 4.882561 0.184628
v 1.123617 -0.106248 0.328666
v -0.062584 -0.106248 -0.775331
v 4.701282 13.428574 -2.571428
v 4.701282 2.571429 -2.571428
v -4.701282 13.428574 2.857143
v -4.701282 2.571429 2.857143
v 2.548561 13.428574 4.936002
v 2.548561 2.571429 4.936002
v -2.548561 13.428574 -4.650287
v -2.548561 2.571429 -4.650287
# 53 vertices

vt 0.079784 0.888398
vt 0.154878 0.992222
vt 0.237299 0.885162
vt 0.046286 0.738265
vt 0.264669 0.734986
vt 0.065375 0.573209
vt 0.232533 0.582919
vt 0.129667 0.466400
vt 0.165027 0.466400
vt 0.049607 0.360967
vt 0.049607 0.036508
vt 0.327303 0.360967
vt 0.327303 0.036508
# 13 texture coordinates

vn -0.161482 0.917436 -0.363641
vn -0.267975 0.750243 -0.604422
vn -0.120642 0.954753 -0.271832
vn 0.045473 0.993373 0.105553
vn 0.124181 0.938507 0.322154
vn 0.233969 0.740031 0.630565
vn 0.274208 0.621097 0.734199
vn 0.309477 0.495943 0.811335
vn 0.329825 0.515476 0.790885
vn 0.274922 0.919372 0.281379
vn 0.457460 0.755659 0.468732
vn 0.205332 0.955844 0.210241
vn -0.078554 0.993522 -0.082118
vn -0.225935 0.940318 -0.254472
vn -0.436236 0.745742 -0.503554
vn -0.510913 0.627845 -0.587179
vn -0.571605 0.503076 -0.648214
vn -0.582615 0.522160 -0.622824
vn 0.316013 0.927891 -0.197872
vn 0.530867 0.779728 -0.331969
vn 0.235533 0.960622 -0.147410
vn -0.092029 0.994169 0.056203
vn -0.279763 0.947331 0.155874
vn -0.563539 0.768083 0.304093
vn -0.664343 0.654498 0.360944
vn -0.740949 0.532478 0.409220
vn -0.717077 0.551573 0.426109
vn -0.352612 0.933713 -0.062006
vn -0.595624 0.796352 -0.105145
vn -0.262365 0.963862 -0.046201
vn 0.102110 0.994586 0.019289
vn 0.302156 0.950595 0.071205
vn 0.609264 0.778006 0.153310
vn 0.723842 0.666215 0.179472
vn 0.814048 0.546968 0.195323
vn 0.805137 0.570072 0.163622
vn -0.238631 0.932887 0.269771
vn -0.403098 0.793963 0.455120
vn -0.177650 0.963402 0.200740
vn 0.070229 0.994517 -0.077480
vn 0.219882 0.949771 -0.222680
vn 0.450255 0.775198 -0.443101
vn 0.532058 0.662700 -0.527013
vn 0.592261 0.543105 -0.595201
vn 0.561380 0.566591 -0.603180
vn -0.500000 0.000000 -0.866025
vn 0.882948 0.000000 -0.469472
# 47 normals

g Triangles
usemtl leaves
s 1
f 2/1/1 1/2/2 3/3/3
f 4/4/4 2/1/1 3/3/3
f 4/4/4 3/3/3 5/5/5
f 7/6/6 4/4/4 5/5/5
f 7/6/6 5/5/5 6/7/7
f 9/8/8 7/6/6 6/7/7
f 9/8/8 6/7/7 8/9/9
# 7 triangles in group

g Duplicate04
usemtl leaves
f 11/1/10 10/2/11 12/3/12
f 13/4/13 11/1/10 12/3/12
f 13/4/13 12/3/12 14/5/14
f 16/6/15 13/4/13 14/5/14
f 16/6/15 14/5/14 15/7/16
f 18/8/17 16/6/15 15/7/16
f 18/8/17 15/7/16 17/9/18
# 7 triangles in group

g Duplicate05
usemtl leaves
f 20/1/19 19/2/20 21/3/21
f 22/4/22 20/1/19 21/3/21
f 22/4/22 21/3/21 23/5/23
f 25/6/24 22/4/22 23/5/23
f 25/6/24 23/5/23 24/7/25
f 27/8/26 25/6/24 24/7/25
f 27/8/26 24/7/25 26/9/27
# 7 triangles in group

g Duplicate06
usemtl leaves
f 29/1/28 28/2/29 30/3/30
f 31/4/31 29/1/28 30/3/30
f 31/4/31 30/3/30 32/5/32
f 34/6/33 31/4/31 32/5/32
f 34/6/33 32/5/32 33/7/34
f 36/8/35 34/6/33 33/7/34
f 36/8/35 33/7/34 35/9/36
# 7 triangles in group

g Duplicate07
usemtl leaves
f 38/1/37 37/2/38 39/3/39
f 40/4/40 38/1/37 39/3/39
f 40/4/40 39/3/39 41/5/41
f 43/6/42 40/4/40 41/5/41
f 43/6/42 41/5/41 42/7/43
f 45/8/44 43/6/42 42/7/43
f 45/8/44 42/7/43 44/9/45
# 7 triangles in group

g Duplicate09
usemtl leaves
f 46/10/46 47/11/46 48/12/46
f 47/11/46 49/13/46 48/12/46
f 50/10/47 51/11/47 52/12/47
f 51/11/47 53/13/47 52/12/47
# 4 triangles in group

# 39 triangles total

