# Wavefront OBJ exported by MilkShape 3D

mtllib hugepalm01.mtl

v 7.967215 -14.328316 -0.183004
v 5.262568 46.672058 0.928335
v 3.743865 124.693909 9.168223
v 1.490990 162.795471 16.186470
v -0.547262 167.119293 16.922482
v 5.661928 -14.328316 5.869489
v 3.749450 46.510300 5.098038
v 2.675567 124.192001 11.671349
v 0.881220 162.501556 17.530766
v 0.096469 -14.328316 8.376513
v 0.096469 46.443291 6.825184
v 0.096469 123.984062 12.708164
v -0.590891 162.379852 18.087593
v -5.468991 -14.328316 5.869489
v -3.556513 46.510300 5.098038
v -2.482629 124.192001 11.671349
v -2.062996 162.501556 17.530766
v -7.774278 -14.328316 -0.183004
v -5.069632 46.672058 0.928335
v -3.550928 124.693909 9.168223
v -2.672763 162.795471 16.186470
v -5.468991 -14.328316 -6.235493
v -3.556513 46.833832 -3.241365
v -2.482629 125.195847 6.665099
v -2.062996 163.089447 14.842176
v 0.096469 -14.328316 -8.742513
v 0.096469 46.900818 -4.968517
v 0.096469 125.403809 5.628274
v -0.590891 163.211090 14.285339
v 5.661928 -14.328316 -6.235493
v 3.749450 46.833832 -3.241365
v 2.675567 125.195847 6.665099
v 0.881220 163.089447 14.842176
v 0.096469 -14.328316 -0.183004
v 2.798757 163.286682 13.808113
v -3.742422 161.989441 19.526314
v -28.466679 167.143295 8.048535
v -17.624575 180.984055 0.549239
v -9.009223 171.777756 -9.119533
v -45.561367 168.867722 -6.726865
v -37.184353 182.564697 -15.391213
v -27.375172 173.481857 -25.116764
v -53.072037 170.046234 -24.706100
v -44.640438 172.054550 -32.145584
v -52.367432 165.760605 -34.994022
v 27.344910 162.913315 26.693602
v 16.314478 172.340820 38.646847
v 7.555284 159.764053 43.834747
v 44.156910 158.013580 41.115372
v 35.570118 166.795456 54.116829
v 25.615765 154.311066 59.384853
v 51.329029 151.258942 58.104843
v 42.753464 149.894287 65.532677
v 50.449768 142.880417 65.857742
v 2.724745 161.862793 20.075083
v -3.732505 163.182312 14.280803
v 9.124450 170.028641 -7.878295
v 20.294954 179.467819 3.946982
v 28.670334 166.807251 9.486646
v 24.856583 171.405533 -23.955856
v 37.186665 180.894470 -14.459130
v 45.670181 168.115952 -7.820752
v 44.031231 169.723923 -31.660107
v 52.501122 168.327957 -24.135269
v 54.003132 163.092529 -32.433052
v -10.578276 159.943954 43.018650
v -21.367725 173.800781 35.476109
v -29.775763 164.639206 25.617985
v -26.637138 155.504959 58.248589
v -38.635883 168.534744 52.866264
v -47.129482 159.703079 41.948467
v -45.992069 151.693512 64.584190
v -54.310974 153.728149 57.043846
v -56.058720 145.671417 62.768482
v 2.980181 160.949478 17.009127
v -2.145501 161.241806 15.720282
v -0.233939 180.399933 1.196523
v 8.475725 188.527771 4.920002
v 15.204523 180.078003 5.024747
v 3.572442 183.063324 -15.846585
v 15.565312 191.112350 -13.104913
v 25.326744 182.427689 -11.604001
v 15.265620 183.392487 -26.746338
v 24.472969 183.094910 -24.390732
v 22.966942 179.334045 -30.423874
v 0.375663 172.304123 36.881424
v -8.266270 181.381989 36.416786
v -14.939971 173.736679 32.976711
v -3.799676 167.354858 53.393181
v -15.757515 175.936737 53.786392
v -25.442617 168.686096 48.966358
v -15.709322 162.959534 63.318291
v -24.857815 163.740036 60.921936
v -23.462902 157.679626 65.024750
v -1.044418 160.436172 19.265076
v 1.211572 161.678406 13.805208
v 18.304062 176.786667 14.751363
v 14.727304 183.258316 25.718210
v 11.675948 173.570663 31.266504
v 42.776913 174.091354 19.234118
v 41.183460 180.110794 30.635563
v 36.968876 170.315552 37.086205
v 55.458008 169.680023 27.505880
v 52.328403 168.183075 35.117889
v 58.594406 163.500946 32.566254
v -18.490822 175.927750 23.301102
v -14.610324 186.601364 15.824048
v -11.583020 180.165665 7.057231
v -43.058575 176.389816 18.059446
v -41.054291 186.939484 10.030871
v -36.862362 180.765381 0.402274
v -55.587231 176.741882 8.772948
v -52.290886 178.678833 1.290950
v -58.703274 173.575211 1.769401
v 1.397582 160.944000 18.058834
v -0.969175 162.254303 13.509027
v 12.827194 181.432846 8.664137
v 16.438360 187.589325 18.903385
v 20.044127 178.036835 22.429646
v 27.944105 192.465942 3.145975
v 34.436893 197.981628 15.127405
v 38.962154 187.560715 21.752340
v 43.290161 197.950394 6.782298
v 47.530819 195.817719 15.021305
v 50.748577 192.717117 9.290420
v -14.247716 171.557190 31.219593
v -18.783262 182.101746 26.165117
v -21.231422 176.023865 17.686428
v -30.196074 174.902664 40.649551
v -37.591007 185.536606 33.647491
v -40.943169 180.478836 22.124075
v -46.351299 179.101135 39.914497
v -50.481323 181.698654 31.775522
v -53.166256 175.283157 34.447609
v -2.976916 161.077423 16.510866
v 2.705481 162.152954 14.779773
v 14.493565 173.732742 30.536030
v 4.475048 180.191101 36.268925
v -2.519808 170.974335 36.009636
v 26.540085 174.549164 53.397049
v 17.456341 180.171097 60.789291
v 9.012784 171.020142 60.254620
v 27.739542 174.220901 69.566528
v 19.847670 172.949005 72.032272
v 25.467026 167.314682 74.123596
v -16.109352 179.330246 9.092301
v -7.039058 189.457764 8.858610
v 0.971482 183.025146 4.179579
v -28.632416 192.904388 -9.797125
v -20.388426 203.288986 -11.788914
v -10.945493 196.939301 -16.138042
v -30.368547 202.855453 -22.820644
v -22.427223 204.521210 -25.002266
v -27.426622 200.688141 -30.266155
# 154 vertices

vt -0.731162 4.464652
vt -0.731162 -5.729316
vt -0.731162 -3.180831
vt -0.335167 -3.180831
vt -0.335167 -5.729316
vt -0.731162 -0.632338
vt -0.335167 -0.632338
vt -0.731162 1.916162
vt -0.335167 1.916162
vt 0.060826 -5.729316
vt 0.060826 -3.180831
vt 0.060826 -0.632338
vt 0.060826 1.916162
vt 0.060826 4.464652
vt 0.456823 -3.180831
vt 0.456823 -5.729316
vt 0.456823 -0.632338
vt 0.456823 1.916162
vt 0.852817 -5.729316
vt 0.852817 -3.180831
vt 0.852817 -0.632338
vt 0.852817 1.916162
vt 0.852817 4.464652
vt 1.248810 -3.180831
vt 1.248810 -5.729316
vt 1.248810 -0.632338
vt 1.248810 1.916162
vt 1.644807 -5.729316
vt 1.644807 -3.180831
vt 1.644807 -0.632338
vt 1.644807 1.916162
vt 1.644807 4.464652
vt 2.040802 -3.180831
vt 2.040802 -5.729316
vt 2.040802 -0.632338
vt 2.040802 1.916162
vt 2.436796 -5.729316
vt 2.436796 -3.180831
vt 2.436796 -0.632338
vt 2.436796 1.916162
vt 2.436796 4.464652
vt 0.429291 0.690008
vt 0.309678 0.991255
vt 0.214787 0.710183
vt 0.199649 0.997119
vt 0.087197 0.695857
vt 0.410136 0.384787
vt 0.229127 0.372219
vt 0.091735 0.381968
vt 0.366590 0.070045
vt 0.119098 0.077668
vt 0.223384 -0.006933
# 52 texture coordinates

vn 0.000000 -1.000000 0.000000
vn 0.999046 0.043659 0.000857
vn 0.999493 0.031820 0.001257
vn 0.727657 -0.008438 0.685889
vn 0.727364 0.031558 0.685526
vn 0.999218 0.038889 0.007101
vn 0.702748 -0.062807 0.708661
vn 0.969380 0.240227 0.050930
vn 0.681175 0.046775 0.730624
vn 0.004111 0.981039 0.193768
vn 0.000000 0.026178 0.999657
vn 0.000000 -0.025092 0.999685
vn -0.000081 -0.108487 0.994098
vn 0.000153 0.052098 0.998642
vn -0.727657 -0.008438 0.685889
vn -0.727364 0.031558 0.685526
vn -0.703430 -0.075119 0.706784
vn -0.682733 0.034117 0.729871
vn -0.999046 0.043659 0.000857
vn -0.999493 0.031820 0.001257
vn -0.999759 0.021662 0.003561
vn -0.971612 0.231437 0.049068
vn -0.727378 0.076369 -0.681974
vn -0.726693 0.056240 -0.684657
vn -0.704640 0.127908 -0.697941
vn -0.687391 0.288459 -0.666547
vn 0.000000 0.062221 -0.998062
vn 0.000000 0.097725 -0.995213
vn -0.000023 0.178087 -0.984015
vn 0.000203 0.398775 -0.917049
vn 0.727378 0.076369 -0.681974
vn 0.726693 0.056240 -0.684657
vn 0.704636 0.140166 -0.695587
vn 0.686148 0.300427 -0.662529
vn -0.362665 0.656425 0.661499
vn -0.276791 0.862092 0.424482
vn 0.057275 0.909711 0.411274
vn 0.278237 0.959697 -0.039568
vn 0.522652 0.805855 -0.278267
vn -0.558238 0.668595 0.491276
vn -0.138368 0.979259 -0.148004
vn 0.302462 0.836697 -0.456569
vn -0.606632 0.787016 -0.112264
vn -0.294844 0.859345 -0.417843
vn -0.523238 0.782407 -0.337730
vn 0.371890 0.867291 -0.330914
vn -0.054857 0.998478 -0.005629
vn -0.530496 0.624811 0.572875
vn 0.564165 0.808505 -0.167446
vn 0.132180 0.833939 0.535793
vn -0.313420 0.579673 0.752161
vn 0.601726 0.671235 0.432861
vn 0.284415 0.614144 0.736163
vn 0.514471 0.575659 0.635560
vn -0.510806 0.838201 -0.191042
vn -0.228013 0.969994 -0.084385
vn -0.197052 0.949094 0.245748
vn 0.264217 0.857374 0.441701
vn 0.471841 0.613079 0.633640
vn -0.343460 0.855467 -0.387571
vn 0.366142 0.929935 0.034063
vn 0.646097 0.642208 0.412465
vn 0.280800 0.849757 -0.446167
vn 0.600659 0.785234 -0.150388
vn 0.503772 0.777197 -0.377065
vn 0.533307 0.687037 0.493522
vn 0.233724 0.963990 0.126874
vn -0.433827 0.824249 -0.363879
vn 0.364764 0.633034 0.682800
vn -0.336326 0.888266 0.312838
vn -0.616504 0.772487 -0.152269
vn -0.266755 0.624262 0.734261
vn -0.584634 0.688061 0.429855
vn -0.493243 0.588783 0.640348
vn -0.731991 0.633196 0.251500
vn -0.421014 0.906549 0.030271
vn -0.236644 0.785778 0.571448
vn 0.436722 0.838887 0.324874
vn 0.605750 0.561339 0.563884
vn -0.574765 0.798220 -0.180251
vn 0.248979 0.967413 -0.046056
vn 0.643978 0.736182 0.208154
vn -0.038559 0.871173 -0.489460
vn 0.360145 0.863608 -0.352814
vn 0.176829 0.832024 -0.525802
vn 0.735049 0.676796 0.040609
vn 0.247670 0.946269 -0.207928
vn -0.592747 0.744652 -0.306831
vn 0.569148 0.652958 0.499717
vn -0.253102 0.866253 0.430750
vn -0.643267 0.759464 0.097063
vn 0.027880 0.596909 0.801825
vn -0.368912 0.647424 0.666893
vn -0.188031 0.547480 0.815420
vn -0.201788 0.830766 -0.518758
vn 0.128023 0.976103 -0.175593
vn -0.429003 0.899283 -0.085121
vn -0.124847 0.812679 0.569180
vn -0.385469 0.584693 0.713827
vn 0.305437 0.865803 -0.396351
vn 0.275393 0.854517 0.440408
vn 0.036615 0.564455 0.824651
vn 0.638654 0.756337 0.141685
vn 0.519824 0.653433 0.550281
vn 0.667585 0.647664 0.367235
vn 0.200284 0.540690 0.817031
vn 0.443060 0.773191 0.453733
vn 0.417166 0.816522 -0.399080
vn -0.283087 0.631240 0.722079
vn -0.235364 0.970916 -0.043887
vn 0.003082 0.857731 -0.514090
vn -0.609625 0.770833 0.184862
vn -0.484055 0.843920 -0.231278
vn -0.638520 0.766582 -0.068151
# 114 normals

g Cylinder01
usemtl Material02
s 2
f 1/1/1 6/1/1 34/1/1
s 1
f 1/2/2 2/3/3 7/4/4
f 1/2/2 7/4/4 6/5/5
f 2/3/3 3/6/6 7/4/4
f 3/6/6 8/7/7 7/4/4
f 3/6/6 4/8/8 9/9/9
f 3/6/6 9/9/9 8/7/7
f 4/8/8 5/1/10 9/9/9
s 2
f 6/1/1 10/1/1 34/1/1
s 1
f 6/5/5 7/4/4 10/10/11
f 7/4/4 11/11/12 10/10/11
f 7/4/4 8/7/7 12/12/13
f 7/4/4 12/12/13 11/11/12
f 8/7/7 9/9/9 12/12/13
f 9/9/9 13/13/14 12/12/13
f 9/9/9 5/14/10 13/13/14
s 2
f 10/1/1 14/1/1 34/1/1
s 1
f 10/10/11 11/11/12 15/15/15
f 10/10/11 15/15/15 14/16/16
f 11/11/12 12/12/13 15/15/15
f 12/12/13 16/17/17 15/15/15
f 12/12/13 13/13/14 17/18/18
f 12/12/13 17/18/18 16/17/17
f 13/13/14 5/14/10 17/18/18
s 2
f 14/1/1 18/1/1 34/1/1
s 1
f 14/16/16 15/15/15 18/19/19
f 15/15/15 19/20/20 18/19/19
f 15/15/15 16/17/17 20/21/21
f 15/15/15 20/21/21 19/20/20
f 16/17/17 17/18/18 20/21/21
f 17/18/18 21/22/22 20/21/21
f 17/18/18 5/23/10 21/22/22
s 2
f 18/1/1 22/1/1 34/1/1
s 1
f 18/19/19 19/20/20 23/24/23
f 18/19/19 23/24/23 22/25/24
f 19/20/20 20/21/21 23/24/23
f 20/21/21 24/26/25 23/24/23
f 20/21/21 21/22/22 25/27/26
f 20/21/21 25/27/26 24/26/25
f 21/22/22 5/23/10 25/27/26
s 2
f 22/1/1 26/1/1 34/1/1
s 1
f 22/25/24 23/24/23 26/28/27
f 23/24/23 27/29/28 26/28/27
f 23/24/23 24/26/25 28/30/29
f 23/24/23 28/30/29 27/29/28
f 24/26/25 25/27/26 28/30/29
f 25/27/26 29/31/30 28/30/29
f 25/27/26 5/32/10 29/31/30
s 2
f 26/1/1 30/1/1 34/1/1
s 1
f 26/28/27 27/29/28 31/33/31
f 26/28/27 31/33/31 30/34/32
f 27/29/28 28/30/29 31/33/31
f 28/30/29 32/35/33 31/33/31
f 28/30/29 29/31/30 33/36/34
f 28/30/29 33/36/34 32/35/33
f 29/31/30 5/32/10 33/36/34
s 2
f 30/1/1 1/1/1 34/1/1
s 1
f 30/34/32 31/33/31 1/37/2
f 31/33/31 2/38/3 1/37/2
f 31/33/31 32/35/33 3/39/6
f 31/33/31 3/39/6 2/38/3
f 32/35/33 33/36/34 3/39/6
f 33/36/34 4/40/8 3/39/6
f 33/36/34 5/41/10 4/40/8
# 64 triangles in group

g Duplicate06
usemtl Material01
f 37/42/35 36/43/36 38/44/37
f 38/44/37 36/43/36 35/45/38
f 38/44/37 35/45/38 39/46/39
f 40/47/40 37/42/35 38/44/37
f 40/47/40 38/44/37 41/48/41
f 41/48/41 39/46/39 42/49/42
f 41/48/41 38/44/37 39/46/39
f 43/50/43 40/47/40 41/48/41
f 43/50/43 41/48/41 44/51/44
f 44/51/44 41/48/41 42/49/42
f 45/52/45 43/50/43 44/51/44
f 46/42/46 35/43/38 47/44/47
f 47/44/47 35/43/38 36/45/36
f 47/44/47 36/45/36 48/46/48
f 49/47/49 46/42/46 47/44/47
f 49/47/49 47/44/47 50/48/50
f 50/48/50 48/46/48 51/49/51
f 50/48/50 47/44/47 48/46/48
f 52/50/52 49/47/49 50/48/50
f 52/50/52 50/48/50 53/51/53
f 53/51/53 50/48/50 51/49/51
f 54/52/54 52/50/52 53/51/53
f 57/42/55 56/43/56 58/44/57
f 58/44/57 56/43/56 55/45/58
f 58/44/57 55/45/58 59/46/59
f 60/47/60 57/42/55 58/44/57
f 60/47/60 58/44/57 61/48/61
f 61/48/61 59/46/59 62/49/62
f 61/48/61 58/44/57 59/46/59
f 63/50/63 60/47/60 61/48/61
f 63/50/63 61/48/61 64/51/64
f 64/51/64 61/48/61 62/49/62
f 65/52/65 63/50/63 64/51/64
f 66/42/66 55/43/58 67/44/67
f 67/44/67 55/43/58 56/45/56
f 67/44/67 56/45/56 68/46/68
f 69/47/69 66/42/66 67/44/67
f 69/47/69 67/44/67 70/48/70
f 70/48/70 68/46/68 71/49/71
f 70/48/70 67/44/67 68/46/68
f 72/50/72 69/47/69 70/48/70
f 72/50/72 70/48/70 73/51/73
f 73/51/73 70/48/70 71/49/71
f 74/52/74 72/50/72 73/51/73
# 44 triangles in group

g Duplicate11
usemtl Material01
f 77/42/75 76/43/76 78/44/77
f 78/44/77 76/43/76 75/45/78
f 78/44/77 75/45/78 79/46/79
f 80/47/80 77/42/75 78/44/77
f 80/47/80 78/44/77 81/48/81
f 81/48/81 79/46/79 82/49/82
f 81/48/81 78/44/77 79/46/79
f 83/50/83 80/47/80 81/48/81
f 83/50/83 81/48/81 84/51/84
f 84/51/84 81/48/81 82/49/82
f 85/52/85 83/50/83 84/51/84
f 86/42/86 75/43/78 87/44/87
f 87/44/87 75/43/78 76/45/76
f 87/44/87 76/45/76 88/46/88
f 89/47/89 86/42/86 87/44/87
f 89/47/89 87/44/87 90/48/90
f 90/48/90 88/46/88 91/49/91
f 90/48/90 87/44/87 88/46/88
f 92/50/92 89/47/89 90/48/90
f 92/50/92 90/48/90 93/51/93
f 93/51/93 90/48/90 91/49/91
f 94/52/94 92/50/92 93/51/93
f 97/42/95 96/43/96 98/44/97
f 98/44/97 96/43/96 95/45/98
f 98/44/97 95/45/98 99/46/99
f 100/47/100 97/42/95 98/44/97
f 100/47/100 98/44/97 101/48/101
f 101/48/101 99/46/99 102/49/102
f 101/48/101 98/44/97 99/46/99
f 103/50/103 100/47/100 101/48/101
f 103/50/103 101/48/101 104/51/104
f 104/51/104 101/48/101 102/49/102
f 105/52/105 103/50/103 104/51/104
f 106/42/106 95/43/98 107/44/107
f 107/44/107 95/43/98 96/45/96
f 107/44/107 96/45/96 108/46/108
f 109/47/109 106/42/106 107/44/107
f 109/47/109 107/44/107 110/48/110
f 110/48/110 108/46/108 111/49/111
f 110/48/110 107/44/107 108/46/108
f 112/50/112 109/47/109 110/48/110
f 112/50/112 110/48/110 113/51/113
f 113/51/113 110/48/110 111/49/111
f 114/52/114 112/50/112 113/51/113
# 44 triangles in group

g Duplicate04
usemtl Material01
f 117/42/75 116/43/76 118/44/77
f 118/44/77 116/43/76 115/45/78
f 118/44/77 115/45/78 119/46/79
f 120/47/80 117/42/75 118/44/77
f 120/47/80 118/44/77 121/48/81
f 121/48/81 119/46/79 122/49/82
f 121/48/81 118/44/77 119/46/79
f 123/50/83 120/47/80 121/48/81
f 123/50/83 121/48/81 124/51/84
f 124/51/84 121/48/81 122/49/82
f 125/52/85 123/50/83 124/51/84
f 126/42/86 115/43/78 127/44/87
f 127/44/87 115/43/78 116/45/76
f 127/44/87 116/45/76 128/46/88
f 129/47/89 126/42/86 127/44/87
f 129/47/89 127/44/87 130/48/90
f 130/48/90 128/46/88 131/49/91
f 130/48/90 127/44/87 128/46/88
f 132/50/92 129/47/89 130/48/90
f 132/50/92 130/48/90 133/51/93
f 133/51/93 130/48/90 131/49/91
f 134/52/94 132/50/92 133/51/93
f 137/42/95 136/43/96 138/44/97
f 138/44/97 136/43/96 135/45/98
f 138/44/97 135/45/98 139/46/99
f 140/47/100 137/42/95 138/44/97
f 140/47/100 138/44/97 141/48/101
f 141/48/101 139/46/99 142/49/102
f 141/48/101 138/44/97 139/46/99
f 143/50/103 140/47/100 141/48/101
f 143/50/103 141/48/101 144/51/104
f 144/51/104 141/48/101 142/49/102
f 145/52/105 143/50/103 144/51/104
f 146/42/106 135/43/98 147/44/107
f 147/44/107 135/43/98 136/45/96
f 147/44/107 136/45/96 148/46/108
f 149/47/109 146/42/106 147/44/107
f 149/47/109 147/44/107 150/48/110
f 150/48/110 148/46/108 151/49/111
f 150/48/110 147/44/107 148/46/108
f 152/50/112 149/47/109 150/48/110
f 152/50/112 150/48/110 153/51/113
f 153/51/113 150/48/110 151/49/111
f 154/52/114 152/50/112 153/51/113
# 44 triangles in group

# 196 triangles total

