# Wavefront OBJ exported by MilkShape 3D

mtllib ironbolt.mtl

v -0.000002 0.183333 -14.316686
v -0.008519 3.039126 11.183335
v 2.853754 0.075155 11.183335
v 0.008520 -2.672455 11.183335
v -2.853753 0.291515 11.183335
# 5 vertices

vt 1.969557 0.137702
vt 2.179264 0.137702
vt 2.179264 0.336527
vt 1.969557 0.336527
# 4 texture coordinates

vn 0.717186 0.692578 -0.077324
vn 0.000000 -0.000001 -1.000000
vn 0.692402 -0.717004 -0.080530
vn -0.717186 -0.692579 -0.077323
vn -0.692402 0.717004 -0.080530
vn 0.000000 0.000000 1.000000
# 6 normals

g Box01
usemtl wood
s 1
f 2/1/1 3/2/1 1/3/2
s 2
f 3/1/3 4/2/3 1/3/2
s 1
f 4/1/4 5/2/4 1/3/2
s 2
f 5/1/5 2/2/5 1/3/2
s 3
f 2/4/6 5/1/6 3/3/6
f 5/1/6 4/2/6 3/3/6
# 6 triangles in group

# 6 triangles total

