# Wavefront OBJ exported by MilkShape 3D

mtllib jetty01.mtl

v 13.858835 11.024424 42.945335
v 12.559505 11.216398 -42.105072
v 16.618671 7.084928 42.751755
v 15.319336 7.276898 -42.298630
v 21.100416 8.589677 43.502060
v 19.801100 8.781655 -41.548355
v 21.110470 13.459162 44.159370
v 19.811144 13.651136 -40.891068
v 16.634920 14.963913 43.815254
v 15.335581 15.155890 -41.235107
v 16.565325 11.216398 -41.615662
v 17.864674 11.024424 43.434761
v 13.525494 11.156207 -36.853107
v 13.559505 -142.227570 -36.994461
v 16.285332 10.962615 -40.792603
v 16.319344 -142.421143 -40.933960
v 20.767086 11.712928 -39.287853
v 20.801102 -141.670868 -39.429199
v 20.777128 12.370234 -34.418365
v 20.811140 -141.013580 -34.559723
v 16.301577 12.026122 -32.913616
v 16.335587 -141.357620 -33.054974
v 17.565336 -141.738144 -36.994461
v 17.531330 11.645614 -36.853104
v 13.525494 11.156206 39.146893
v 13.559505 -142.227570 39.005539
v 16.285332 10.962614 35.207397
v 16.319344 -142.421143 35.066040
v 20.767086 11.712927 36.712147
v 20.801102 -141.670868 36.570801
v 20.777128 12.370234 41.581635
v 20.811140 -141.013580 41.440277
v 16.301577 12.026121 43.086384
v 16.335587 -141.357620 42.945026
v 17.565336 -141.738144 39.005539
v 17.531330 11.645613 39.146896
v -11.190100 11.024426 -41.753601
v -12.859766 11.216396 43.290359
v -13.955011 7.084927 -41.656441
v -15.624685 7.276897 43.387489
v -18.407837 8.589676 -42.562714
v -20.077526 8.781654 42.481262
v -18.394947 13.459164 -43.219971
v -20.064629 13.651134 41.824020
v -13.934135 14.963913 -42.719872
v -15.603790 15.155888 42.324043
v -16.846067 11.216396 42.661446
v -15.176422 11.024426 -42.382530
v -13.641874 11.156208 38.007889
v -13.680801 -142.227570 38.147964
v -16.537519 10.962616 41.848663
v -16.576445 -142.421143 41.988747
v -20.964039 11.712929 40.188431
v -21.002960 -141.670868 40.328484
v -20.804138 12.370235 35.321556
v -20.843048 -141.013580 35.461624
v -16.278784 12.026123 33.973892
v -16.317709 -141.357620 34.113998
v -17.684185 -141.738144 38.008156
v -17.645279 11.645615 37.868080
v -10.989531 11.156208 -37.945839
v -11.028452 -142.227570 -37.805763
v -13.885166 10.962612 -34.105049
v -13.924089 -142.421143 -33.964966
v -18.311676 11.712925 -35.765320
v -18.350597 -141.670868 -35.625237
v -18.151768 12.370235 -40.632172
v -18.190693 -141.013580 -40.492088
v -13.626436 12.026119 -41.979813
v -13.665354 -141.357620 -41.839729
v -15.031837 -141.738144 -37.945572
v -14.992918 11.645611 -38.085640
v -22.583019 15.821951 -29.260778
v -22.509718 13.722866 -29.077021
v 23.932146 17.091272 -33.316238
v 24.005447 14.992189 -33.132477
v 23.170046 16.277138 -42.312183
v 23.243347 14.178052 -42.128426
v -23.345119 15.007814 -38.256725
v -23.271818 12.908730 -38.072964
v -21.755056 14.632199 -19.195187
v -21.755056 12.586441 -19.705252
v 24.889799 15.223592 -21.567131
v 24.889799 13.177833 -22.077200
v 24.415384 17.413561 -30.350618
v 24.415384 15.367802 -30.860683
v -22.229471 16.822170 -27.978682
v -22.229471 14.776413 -28.488749
v -21.941610 16.564718 -8.892544
v -21.941610 14.467880 -8.672157
v 24.760149 16.479507 -9.703265
v 24.760151 14.382671 -9.482882
v 24.601950 15.532122 -18.717052
v 24.601950 13.435285 -18.496662
v -22.099819 15.617331 -17.906336
v -22.099817 13.520494 -17.685951
v -23.608278 16.564718 1.107457
v -23.608278 14.467880 1.327843
v 23.093481 16.479507 0.296735
v 23.093483 14.382671 0.517119
v 22.935282 15.532122 -8.717051
v 22.935282 13.435285 -8.496662
v -23.766487 15.617331 -7.906337
v -23.766485 13.520494 -7.685951
v -22.553232 15.812194 10.076550
v -22.568609 13.719642 9.819077
v 24.091316 15.178261 12.443617
v 24.075951 13.085711 12.186142
v 24.562277 16.280359 3.458379
v 24.546900 14.187808 3.200909
v -22.082291 16.914293 1.091302
v -22.097656 14.821743 0.833832
v -21.864285 15.173090 20.312597
v -21.773859 13.067919 20.385944
v 24.770557 17.233353 21.945299
v 24.860998 15.128183 22.018641
v 25.100853 16.932083 12.891508
v 25.191284 14.826912 12.964858
v -21.534019 14.871819 11.258801
v -21.443577 12.766649 11.332148
v -22.544144 16.129683 31.855352
v -22.485575 14.041698 32.142048
v 24.119846 17.199120 30.109657
v 24.178429 15.111133 30.396326
v 23.812565 15.958305 21.135410
v 23.871140 13.870320 21.422096
v -22.851454 14.888867 22.881115
v -22.792870 12.800884 23.167793
v -23.088717 15.818654 41.877846
v -23.107328 13.722088 41.655655
v 23.611414 15.324114 42.634945
v 23.592827 13.227549 42.412754
v 23.767647 16.277912 33.621796
v 23.749043 14.181347 33.399605
v -22.932522 16.772455 32.864681
v -22.951109 14.675890 32.642498
# 136 vertices

vt 0.000000 1.000000
vt 0.000000 0.000000
vt 0.200000 0.000000
vt 0.200000 1.000000
vt 0.400000 1.000000
vt 0.400000 0.000000
vt 0.600000 0.000000
vt 0.600000 1.000000
vt 0.800000 1.000000
vt 0.800000 0.000000
vt 1.000000 0.000000
vt 1.000000 1.000000
vt 1.201604 0.242848
vt 1.436249 -2.131984
vt 1.201604 -2.131984
vt 1.436249 0.242848
vt 1.670886 0.242848
vt 1.670886 -2.131984
vt 1.905528 -2.131984
vt 1.905528 0.242848
vt 2.140172 0.242848
vt 2.140172 -2.131984
vt 2.374815 -2.131984
vt 2.374815 0.242848
vt 2.360235 -1.350605
vt 2.781881 -1.326837
vt 2.351668 -0.930516
vt 2.773314 -0.906748
# 28 texture coordinates

vn -0.120206 -0.132553 0.983860
vn 0.120203 0.132556 -0.983860
vn -0.973670 0.227441 0.015388
vn -0.973639 -0.227640 0.014361
vn -0.311802 -0.950144 0.002619
vn 0.812106 -0.583348 -0.013723
vn 0.811984 0.583574 -0.011088
vn -0.312099 0.950024 0.006912
vn -0.120207 0.983859 -0.132555
vn 0.120202 -0.983860 0.132556
vn -0.312624 0.000806 -0.949877
vn -0.973972 -0.000007 -0.226667
vn -0.973316 -0.000427 0.229467
vn 0.811222 0.000719 -0.584737
vn 0.812626 -0.000357 0.582785
vn -0.310960 -0.000945 0.950422
vn 0.154469 -0.132554 -0.979065
vn -0.154466 0.132556 0.979065
vn 0.973614 0.227441 0.018601
vn 0.973547 -0.227641 0.019628
vn 0.311703 -0.950144 0.008264
vn -0.812090 -0.583348 -0.014627
vn -0.811877 0.583574 -0.017257
vn 0.312150 0.950024 0.003984
vn 0.115508 0.983860 0.136669
vn -0.115503 -0.983860 -0.136670
vn 0.279283 0.000806 0.960208
vn 0.965468 -0.000007 0.260520
vn 0.980732 -0.000427 -0.195359
vn -0.831135 0.000719 0.556070
vn -0.791793 -0.000357 -0.610790
vn 0.343940 -0.000945 -0.938991
vn 0.084073 0.089813 0.992404
vn 0.995853 0.027175 -0.086824
vn -0.084073 -0.089813 -0.992404
vn -0.995853 -0.027175 0.086824
vn -0.034767 0.995588 -0.087156
vn 0.034767 -0.995588 0.087156
vn 0.052336 -0.241590 0.968966
vn 0.998630 0.012661 -0.050781
vn -0.052336 0.241590 -0.968966
vn -0.998630 -0.012661 0.050781
vn -0.000000 0.970296 0.241922
vn -0.000000 -0.970296 -0.241922
vn 0.017453 0.104513 0.994370
vn 0.999848 -0.001823 -0.017357
vn -0.017452 -0.104514 -0.994370
vn -0.999848 0.001823 0.017358
vn -0.000000 0.994522 -0.104528
vn 0.000000 -0.994522 0.104528
vn -0.051954 -0.121580 0.991221
vn 0.998623 -0.013569 0.050678
vn 0.051954 0.121579 -0.991221
vn -0.998623 0.013568 -0.050676
vn 0.007292 0.992489 0.122117
vn -0.007292 -0.992489 -0.122118
vn -0.036436 0.033234 0.998783
vn 0.998415 0.044111 0.034956
vn 0.036436 -0.033235 -0.998783
vn -0.998415 -0.044112 -0.034952
vn -0.042893 0.998474 -0.034790
vn 0.042893 -0.998474 0.034789
vn 0.033899 0.136886 0.990007
vn 0.999039 0.022899 -0.037374
vn -0.033899 -0.136882 -0.990007
vn -0.999039 -0.022899 0.037377
vn -0.027783 0.990323 -0.135975
vn 0.027783 -0.990323 0.135974
vn -0.017234 -0.105221 0.994299
vn 0.999813 -0.010582 0.016211
vn 0.017234 0.105221 -0.994299
vn -0.999813 0.010581 -0.016207
vn 0.008822 0.994393 0.105383
vn -0.008822 -0.994393 -0.105383
# 74 normals

g Cylinder02
usemtl wood
s 2
f 1/1/1 3/1/1 12/1/1
f 2/1/2 11/1/2 4/1/2
s 1
f 1/2/3 2/1/4 3/3/5
f 2/1/4 4/4/5 3/3/5
s 2
f 3/1/1 5/1/1 12/1/1
f 4/1/2 11/1/2 6/1/2
s 1
f 3/3/5 4/4/5 6/5/6
f 3/3/5 6/5/6 5/6/6
s 2
f 5/1/1 7/1/1 12/1/1
f 6/1/2 11/1/2 8/1/2
s 1
f 5/6/6 6/5/6 7/7/7
f 6/5/6 8/8/7 7/7/7
s 2
f 7/1/1 9/1/1 12/1/1
f 8/1/2 11/1/2 10/1/2
s 1
f 7/7/7 8/8/7 10/9/8
f 7/7/7 10/9/8 9/10/8
s 2
f 9/1/1 1/1/1 12/1/1
f 10/1/2 11/1/2 2/1/2
s 1
f 9/10/8 10/9/8 1/11/3
f 10/9/8 2/12/4 1/11/3
# 20 triangles in group

g Duplicate01
usemtl wood
s 2
f 24/13/9 15/13/9 13/13/9
f 16/13/10 23/13/10 14/13/10
s 1
f 15/14/11 14/13/12 13/15/13
f 15/14/11 16/16/11 14/13/12
s 2
f 24/13/9 17/13/9 15/13/9
f 18/13/10 23/13/10 16/13/10
s 1
f 18/17/14 16/16/11 15/14/11
f 17/18/14 18/17/14 15/14/11
s 2
f 24/13/9 19/13/9 17/13/9
f 20/13/10 23/13/10 18/13/10
s 1
f 19/19/15 18/17/14 17/18/14
f 19/19/15 20/20/15 18/17/14
s 2
f 24/13/9 21/13/9 19/13/9
f 22/13/10 23/13/10 20/13/10
s 1
f 22/21/16 20/20/15 19/19/15
f 21/22/16 22/21/16 19/19/15
s 2
f 24/13/9 13/13/9 21/13/9
f 14/13/10 23/13/10 22/13/10
s 1
f 13/23/13 22/21/16 21/22/16
f 13/23/13 14/24/12 22/21/16
# 20 triangles in group

g Duplicate02
usemtl wood
s 2
f 36/13/9 27/13/9 25/13/9
f 28/13/10 35/13/10 26/13/10
s 1
f 27/14/11 26/13/12 25/15/13
f 27/14/11 28/16/11 26/13/12
s 2
f 36/13/9 29/13/9 27/13/9
f 30/13/10 35/13/10 28/13/10
s 1
f 30/17/14 28/16/11 27/14/11
f 29/18/14 30/17/14 27/14/11
s 2
f 36/13/9 31/13/9 29/13/9
f 32/13/10 35/13/10 30/13/10
s 1
f 31/19/15 30/17/14 29/18/14
f 31/19/15 32/20/15 30/17/14
s 2
f 36/13/9 33/13/9 31/13/9
f 34/13/10 35/13/10 32/13/10
s 1
f 34/21/16 32/20/15 31/19/15
f 33/22/16 34/21/16 31/19/15
s 2
f 36/13/9 25/13/9 33/13/9
f 26/13/10 35/13/10 34/13/10
s 1
f 25/23/13 34/21/16 33/22/16
f 25/23/13 26/24/12 34/21/16
# 20 triangles in group

g Duplicate03
usemtl wood
s 2
f 37/1/17 39/1/17 48/1/17
f 38/1/18 47/1/18 40/1/18
s 1
f 37/2/19 38/1/20 39/3/21
f 38/1/20 40/4/21 39/3/21
s 2
f 39/1/17 41/1/17 48/1/17
f 40/1/18 47/1/18 42/1/18
s 1
f 39/3/21 40/4/21 42/5/22
f 39/3/21 42/5/22 41/6/22
s 2
f 41/1/17 43/1/17 48/1/17
f 42/1/18 47/1/18 44/1/18
s 1
f 41/6/22 42/5/22 43/7/23
f 42/5/22 44/8/23 43/7/23
s 2
f 43/1/17 45/1/17 48/1/17
f 44/1/18 47/1/18 46/1/18
s 1
f 43/7/23 44/8/23 46/9/24
f 43/7/23 46/9/24 45/10/24
s 2
f 45/1/17 37/1/17 48/1/17
f 46/1/18 47/1/18 38/1/18
s 1
f 45/10/24 46/9/24 37/11/19
f 46/9/24 38/12/20 37/11/19
s 2
f 60/13/25 51/13/25 49/13/25
f 52/13/26 59/13/26 50/13/26
s 1
f 51/14/27 50/13/28 49/15/29
f 51/14/27 52/16/27 50/13/28
s 2
f 60/13/25 53/13/25 51/13/25
f 54/13/26 59/13/26 52/13/26
s 1
f 54/17/30 52/16/27 51/14/27
f 53/18/30 54/17/30 51/14/27
s 2
f 60/13/25 55/13/25 53/13/25
f 56/13/26 59/13/26 54/13/26
s 1
f 55/19/31 54/17/30 53/18/30
f 55/19/31 56/20/31 54/17/30
s 2
f 60/13/25 57/13/25 55/13/25
f 58/13/26 59/13/26 56/13/26
s 1
f 58/21/32 56/20/31 55/19/31
f 57/22/32 58/21/32 55/19/31
s 2
f 60/13/25 49/13/25 57/13/25
f 50/13/26 59/13/26 58/13/26
s 1
f 49/23/29 58/21/32 57/22/32
f 49/23/29 50/24/28 58/21/32
s 2
f 72/13/25 63/13/25 61/13/25
f 64/13/26 71/13/26 62/13/26
s 1
f 63/14/27 62/13/28 61/15/29
f 63/14/27 64/16/27 62/13/28
s 2
f 72/13/25 65/13/25 63/13/25
f 66/13/26 71/13/26 64/13/26
s 1
f 66/17/30 64/16/27 63/14/27
f 65/18/30 66/17/30 63/14/27
s 2
f 72/13/25 67/13/25 65/13/25
f 68/13/26 71/13/26 66/13/26
s 1
f 67/19/31 66/17/30 65/18/30
f 67/19/31 68/20/31 66/17/30
s 2
f 72/13/25 69/13/25 67/13/25
f 70/13/26 71/13/26 68/13/26
s 1
f 70/21/32 68/20/31 67/19/31
f 69/22/32 70/21/32 67/19/31
s 2
f 72/13/25 61/13/25 69/13/25
f 62/13/26 71/13/26 70/13/26
s 1
f 61/23/29 70/21/32 69/22/32
f 61/23/29 62/24/28 70/21/32
# 60 triangles in group

g Box01
usemtl wood
f 73/25/33 74/26/33 75/27/33
f 74/26/33 76/28/33 75/27/33
s 2
f 75/25/34 76/26/34 77/27/34
f 76/26/34 78/28/34 77/27/34
s 1
f 77/25/35 78/26/35 79/27/35
f 78/26/35 80/28/35 79/27/35
s 2
f 79/25/36 80/26/36 73/27/36
f 80/26/36 74/28/36 73/27/36
s 3
f 79/25/37 73/26/37 77/27/37
f 73/26/37 75/28/37 77/27/37
f 74/25/38 80/26/38 76/27/38
f 80/26/38 78/28/38 76/27/38
# 12 triangles in group

g Duplicate04
usemtl wood
s 1
f 81/25/39 82/26/39 83/27/39
f 82/26/39 84/28/39 83/27/39
s 2
f 83/25/40 84/26/40 85/27/40
f 84/26/40 86/28/40 85/27/40
s 1
f 85/25/41 86/26/41 87/27/41
f 86/26/41 88/28/41 87/27/41
s 2
f 87/25/42 88/26/42 81/27/42
f 88/26/42 82/28/42 81/27/42
s 3
f 87/25/43 81/26/43 85/27/43
f 81/26/43 83/28/43 85/27/43
f 82/25/44 88/26/44 84/27/44
f 88/26/44 86/28/44 84/27/44
# 12 triangles in group

g Duplicate05
usemtl wood
s 1
f 89/25/45 90/26/45 91/27/45
f 90/26/45 92/28/45 91/27/45
s 2
f 91/25/46 92/26/46 93/27/46
f 92/26/46 94/28/46 93/27/46
s 1
f 93/25/47 94/26/47 95/27/47
f 94/26/47 96/28/47 95/27/47
s 2
f 95/25/48 96/26/48 89/27/48
f 96/26/48 90/28/48 89/27/48
s 3
f 95/25/49 89/26/49 93/27/49
f 89/26/49 91/28/49 93/27/49
f 90/25/50 96/26/50 92/27/50
f 96/26/50 94/28/50 92/27/50
# 12 triangles in group

g Duplicate06
usemtl wood
s 1
f 97/25/45 98/26/45 99/27/45
f 98/26/45 100/28/45 99/27/45
s 2
f 99/25/46 100/26/46 101/27/46
f 100/26/46 102/28/46 101/27/46
s 1
f 101/25/47 102/26/47 103/27/47
f 102/26/47 104/28/47 103/27/47
s 2
f 103/25/48 104/26/48 97/27/48
f 104/26/48 98/28/48 97/27/48
s 3
f 103/25/49 97/26/49 101/27/49
f 97/26/49 99/28/49 101/27/49
f 98/25/50 104/26/50 100/27/50
f 104/26/50 102/28/50 100/27/50
# 12 triangles in group

g Duplicate07
usemtl wood
s 1
f 105/25/51 106/26/51 107/27/51
f 106/26/51 108/28/51 107/27/51
s 2
f 107/25/52 108/26/52 109/27/52
f 108/26/52 110/28/52 109/27/52
s 1
f 109/25/53 110/26/53 111/27/53
f 110/26/53 112/28/53 111/27/53
s 2
f 111/25/54 112/26/54 105/27/54
f 112/26/54 106/28/54 105/27/54
s 3
f 111/25/55 105/26/55 109/27/55
f 105/26/55 107/28/55 109/27/55
f 106/25/56 112/26/56 108/27/56
f 112/26/56 110/28/56 108/27/56
# 12 triangles in group

g Duplicate08
usemtl wood
s 1
f 113/25/57 114/26/57 115/27/57
f 114/26/57 116/28/57 115/27/57
s 2
f 115/25/58 116/26/58 117/27/58
f 116/26/58 118/28/58 117/27/58
s 1
f 117/25/59 118/26/59 119/27/59
f 118/26/59 120/28/59 119/27/59
s 2
f 119/25/60 120/26/60 113/27/60
f 120/26/60 114/28/60 113/27/60
s 3
f 119/25/61 113/26/61 117/27/61
f 113/26/61 115/28/61 117/27/61
f 114/25/62 120/26/62 116/27/62
f 120/26/62 118/28/62 116/27/62
# 12 triangles in group

g Duplicate09
usemtl wood
s 1
f 121/25/63 122/26/63 123/27/63
f 122/26/63 124/28/63 123/27/63
s 2
f 123/25/64 124/26/64 125/27/64
f 124/26/64 126/28/64 125/27/64
s 1
f 125/25/65 126/26/65 127/27/65
f 126/26/65 128/28/65 127/27/65
s 2
f 127/25/66 128/26/66 121/27/66
f 128/26/66 122/28/66 121/27/66
s 3
f 127/25/67 121/26/67 125/27/67
f 121/26/67 123/28/67 125/27/67
f 122/25/68 128/26/68 124/27/68
f 128/26/68 126/28/68 124/27/68
# 12 triangles in group

g Duplicate10
usemtl wood
s 1
f 129/25/69 130/26/69 131/27/69
f 130/26/69 132/28/69 131/27/69
s 2
f 131/25/70 132/26/70 133/27/70
f 132/26/70 134/28/70 133/27/70
s 1
f 133/25/71 134/26/71 135/27/71
f 134/26/71 136/28/71 135/27/71
s 2
f 135/25/72 136/26/72 129/27/72
f 136/26/72 130/28/72 129/27/72
s 3
f 135/25/73 129/26/73 133/27/73
f 129/26/73 131/28/73 133/27/73
f 130/25/74 136/26/74 132/27/74
f 136/26/74 134/28/74 132/27/74
# 12 triangles in group

# 216 triangles total

