# Wavefront OBJ exported by MilkShape 3D

mtllib jetty02.mtl

v 13.858835 11.024424 42.945335
v 16.618671 7.084928 42.751755
v 17.864674 11.024424 43.434761
v 12.559505 11.216398 -42.105072
v 16.565325 11.216398 -41.615662
v 15.319336 7.276898 -42.298630
v 13.858835 11.024424 42.945335
v 16.618671 7.084928 42.751755
v 15.319336 7.276898 -42.298630
v 21.100416 8.589677 43.502060
v 19.801100 8.781655 -41.548355
v 19.801100 8.781655 -41.548355
v 21.100416 8.589677 43.502060
v 21.110470 13.459162 44.159370
v 19.811144 13.651136 -40.891068
v 21.110470 13.459162 44.159370
v 19.811144 13.651136 -40.891068
v 16.634920 14.963913 43.815254
v 15.335581 15.155890 -41.235107
v 15.335581 15.155890 -41.235107
v 16.634920 14.963913 43.815254
v 13.858835 11.024424 42.945335
v 12.559505 11.216398 -42.105072
v 17.531330 11.645614 -36.853104
v 16.285332 10.962615 -40.792603
v 13.525494 11.156207 -36.853107
v 16.319344 -142.421143 -40.933960
v 17.565336 -141.738144 -36.994461
v 13.559505 -142.227570 -36.994461
v 16.285332 10.962615 -40.792603
v 13.525494 11.156207 -36.853107
v 16.319344 -142.421143 -40.933960
v 20.767086 11.712928 -39.287853
v 20.801102 -141.670868 -39.429199
v 20.801102 -141.670868 -39.429199
v 20.767086 11.712928 -39.287853
v 20.777128 12.370234 -34.418365
v 20.811140 -141.013580 -34.559723
v 20.777128 12.370234 -34.418365
v 20.811140 -141.013580 -34.559723
v 16.301577 12.026122 -32.913616
v 16.335587 -141.357620 -33.054974
v 16.335587 -141.357620 -33.054974
v 16.301577 12.026122 -32.913616
v 13.525494 11.156207 -36.853107
v 13.559505 -142.227570 -36.994461
v 17.531330 11.645613 39.146896
v 16.285332 10.962614 35.207397
v 13.525494 11.156206 39.146893
v 16.319344 -142.421143 35.066040
v 17.565336 -141.738144 39.005539
v 13.559505 -142.227570 39.005539
v 16.285332 10.962614 35.207397
v 13.525494 11.156206 39.146893
v 16.319344 -142.421143 35.066040
v 20.767086 11.712927 36.712147
v 20.801102 -141.670868 36.570801
v 20.801102 -141.670868 36.570801
v 20.767086 11.712927 36.712147
v 20.777128 12.370234 41.581635
v 20.811140 -141.013580 41.440277
v 20.777128 12.370234 41.581635
v 20.811140 -141.013580 41.440277
v 16.301577 12.026121 43.086384
v 16.335587 -141.357620 42.945026
v 16.335587 -141.357620 42.945026
v 16.301577 12.026121 43.086384
v 13.525494 11.156206 39.146893
v 13.559505 -142.227570 39.005539
v -11.190100 11.024426 -41.753601
v -13.955011 7.084927 -41.656441
v -15.176422 11.024426 -42.382530
v -12.859766 11.216396 43.290359
v -16.846067 11.216396 42.661446
v -15.624685 7.276897 43.387489
v -11.190100 11.024426 -41.753601
v -13.955011 7.084927 -41.656441
v -15.624685 7.276897 43.387489
v -18.407837 8.589676 -42.562714
v -20.077526 8.781654 42.481262
v -20.077526 8.781654 42.481262
v -18.407837 8.589676 -42.562714
v -18.394947 13.459164 -43.219971
v -20.064629 13.651134 41.824020
v -18.394947 13.459164 -43.219971
v -20.064629 13.651134 41.824020
v -13.934135 14.963913 -42.719872
v -15.603790 15.155888 42.324043
v -15.603790 15.155888 42.324043
v -13.934135 14.963913 -42.719872
v -11.190100 11.024426 -41.753601
v -12.859766 11.216396 43.290359
v -17.645279 11.645615 37.868080
v -16.537519 10.962616 41.848663
v -13.641874 11.156208 38.007889
v -16.576445 -142.421143 41.988747
v -17.684185 -141.738144 38.008156
v -13.680801 -142.227570 38.147964
v -16.537519 10.962616 41.848663
v -13.641874 11.156208 38.007889
v -16.576445 -142.421143 41.988747
v -20.964039 11.712929 40.188431
v -21.002960 -141.670868 40.328484
v -21.002960 -141.670868 40.328484
v -20.964039 11.712929 40.188431
v -20.804138 12.370235 35.321556
v -20.843048 -141.013580 35.461624
v -20.804138 12.370235 35.321556
v -20.843048 -141.013580 35.461624
v -16.278784 12.026123 33.973892
v -16.317709 -141.357620 34.113998
v -16.317709 -141.357620 34.113998
v -16.278784 12.026123 33.973892
v -13.641874 11.156208 38.007889
v -13.680801 -142.227570 38.147964
v -14.992918 11.645611 -38.085640
v -13.885166 10.962612 -34.105049
v -10.989531 11.156208 -37.945839
v -13.924089 -142.421143 -33.964966
v -15.031837 -141.738144 -37.945572
v -11.028452 -142.227570 -37.805763
v -13.885166 10.962612 -34.105049
v -10.989531 11.156208 -37.945839
v -13.924089 -142.421143 -33.964966
v -18.311676 11.712925 -35.765320
v -18.350597 -141.670868 -35.625237
v -18.350597 -141.670868 -35.625237
v -18.311676 11.712925 -35.765320
v -18.151768 12.370235 -40.632172
v -18.190693 -141.013580 -40.492088
v -18.151768 12.370235 -40.632172
v -18.190693 -141.013580 -40.492088
v -13.626436 12.026119 -41.979813
v -13.665354 -141.357620 -41.839729
v -13.665354 -141.357620 -41.839729
v -13.626436 12.026119 -41.979813
v -10.989531 11.156208 -37.945839
v -11.028452 -142.227570 -37.805763
v -23.095457 15.911838 -31.603733
v -23.008478 13.813951 -31.412411
v 23.537971 17.995346 -29.960190
v 23.624964 15.897460 -29.768867
v 23.537971 17.995346 -29.960190
v 23.624964 15.897460 -29.768867
v 23.892038 17.187262 -38.981956
v 23.979034 15.089376 -38.790634
v 23.892038 17.187262 -38.981956
v 23.979034 15.089376 -38.790634
v -22.741394 15.103758 -40.625500
v -22.654409 13.005871 -40.434177
v -22.741394 15.103758 -40.625500
v -22.654409 13.005871 -40.434177
v -23.095457 15.911838 -31.603733
v -23.008478 13.813951 -31.412411
v -23.095457 15.911838 -31.603733
v 23.537971 17.995346 -29.960190
v -23.008478 13.813951 -31.412411
v 23.624964 15.897460 -29.768867
v -20.543299 14.632199 -15.253510
v -20.631870 12.586441 -15.755823
v 24.981041 15.223592 -25.689213
v 24.892460 13.177833 -26.191536
v 24.981041 15.223592 -25.689213
v 24.892460 13.177833 -26.191536
v 22.988590 17.413561 -34.256878
v 22.900024 15.367802 -34.759205
v 22.988590 17.413561 -34.256878
v 22.900024 15.367802 -34.759205
v -22.535744 16.822170 -23.821182
v -22.624327 14.776413 -24.323500
v -22.535744 16.822170 -23.821182
v -22.624327 14.776413 -24.323500
v -20.543299 14.632199 -15.253510
v -20.631870 12.586441 -15.755823
v -20.543299 14.632199 -15.253510
v 24.981041 15.223592 -25.689213
v -20.631870 12.586441 -15.755823
v 24.892460 13.177833 -26.191536
v -21.941610 16.564718 -8.892544
v -21.941610 14.467880 -8.672157
v 24.760149 16.479507 -9.703265
v 24.760151 14.382671 -9.482882
v 24.760149 16.479507 -9.703265
v 24.760151 14.382671 -9.482882
v 24.601950 15.532122 -18.717052
v 24.601950 13.435285 -18.496662
v 24.601950 15.532122 -18.717052
v 24.601950 13.435285 -18.496662
v -22.099819 15.617331 -17.906336
v -22.099817 13.520494 -17.685951
v -22.099819 15.617331 -17.906336
v -22.099817 13.520494 -17.685951
v -21.941610 16.564718 -8.892544
v -21.941610 14.467880 -8.672157
v -21.941610 16.564718 -8.892544
v 24.760149 16.479507 -9.703265
v -21.941610 14.467880 -8.672157
v 24.760151 14.382671 -9.482882
v -22.170744 15.388782 -1.905661
v -22.051313 13.292558 -2.097723
v 16.592308 15.209627 24.154144
v 16.711746 13.113404 23.962088
v 16.592308 15.209627 24.154144
v 16.711746 13.113404 23.962088
v 21.623743 16.181376 16.676750
v 21.743168 14.085150 16.484695
v 21.623743 16.181376 16.676750
v 21.743168 14.085150 16.484695
v -17.139326 16.360533 -9.383076
v -17.019890 14.264306 -9.575113
v -17.139326 16.360533 -9.383076
v -17.019890 14.264306 -9.575113
v -22.170744 15.388782 -1.905661
v -22.051313 13.292558 -2.097723
v -22.170744 15.388782 -1.905661
v 16.592308 15.209627 24.154144
v -22.051313 13.292558 -2.097723
v 16.711746 13.113404 23.962088
v -19.074305 17.347565 18.514648
v -19.148144 15.240809 18.552650
v 25.317228 15.531941 4.098830
v 25.243418 13.425187 4.136817
v 25.317228 15.531941 4.098830
v 25.243418 13.425187 4.136817
v 22.515381 15.474654 -4.521916
v 22.441542 13.367902 -4.483922
v 22.515381 15.474654 -4.521916
v 22.441542 13.367902 -4.483922
v -21.876200 17.290279 9.893907
v -21.950020 15.183522 9.931895
v -21.876200 17.290279 9.893907
v -21.950020 15.183522 9.931895
v -19.074305 17.347565 18.514648
v -19.148144 15.240809 18.552650
v -19.074305 17.347565 18.514648
v 25.317228 15.531941 4.098830
v -19.148144 15.240809 18.552650
v 25.243418 13.425187 4.136817
v -21.844553 16.129683 35.155205
v -21.751480 14.041698 35.432625
v 24.258871 17.199120 27.735611
v 24.351950 15.111133 28.013000
v 24.258871 17.199120 27.735611
v 24.351950 15.111133 28.013000
v 22.860197 15.958305 18.865704
v 22.953270 13.870320 19.143112
v 22.860197 15.958305 18.865704
v 22.953270 13.870320 19.143112
v -23.243259 14.888867 26.285309
v -23.150175 12.800884 26.562710
v -23.243259 14.888867 26.285309
v -23.150175 12.800884 26.562710
v -21.844553 16.129683 35.155205
v -21.751480 14.041698 35.432625
v -21.844553 16.129683 35.155205
v 24.258871 17.199120 27.735611
v -21.751480 14.041698 35.432625
v 24.351950 15.111133 28.013000
v -23.088717 15.818654 41.877846
v -23.107328 13.722088 41.655655
v 23.611414 15.324114 42.634945
v 23.592827 13.227549 42.412754
v 23.611414 15.324114 42.634945
v 23.592827 13.227549 42.412754
v 23.767647 16.277912 33.621796
v 23.749043 14.181347 33.399605
v 23.767647 16.277912 33.621796
v 23.749043 14.181347 33.399605
v -22.932522 16.772455 32.864681
v -22.951109 14.675890 32.642498
v -22.932522 16.772455 32.864681
v -22.951109 14.675890 32.642498
v -23.088717 15.818654 41.877846
v -23.107328 13.722088 41.655655
v -23.088717 15.818654 41.877846
v 23.611414 15.324114 42.634945
v -23.107328 13.722088 41.655655
v 23.592827 13.227549 42.412754
# 278 vertices

vt 0.000000 1.000000
vt 0.000000 0.000000
vt 0.200000 0.000000
vt 0.200000 1.000000
vt 0.400000 1.000000
vt 0.400000 0.000000
vt 0.600000 0.000000
vt 0.600000 1.000000
vt 0.800000 1.000000
vt 0.800000 0.000000
vt 1.000000 0.000000
vt 1.000000 1.000000
vt 1.201604 0.242848
vt 1.436249 -2.131984
vt 1.201604 -2.131984
vt 1.436249 0.242848
vt 1.670886 0.242848
vt 1.670886 -2.131984
vt 1.905528 -2.131984
vt 1.905528 0.242848
vt 2.140172 0.242848
vt 2.140172 -2.131984
vt 2.374815 -2.131984
vt 2.374815 0.242848
vt 2.360235 -1.350605
vt 2.781881 -1.326837
vt 2.351668 -0.930516
vt 2.773314 -0.906748
# 28 texture coordinates

vn -0.120206 -0.132553 0.983860
vn 0.120203 0.132556 -0.983860
vn -0.973670 0.227441 0.015388
vn -0.973639 -0.227640 0.014361
vn -0.311802 -0.950144 0.002619
vn 0.812106 -0.583348 -0.013723
vn 0.811984 0.583574 -0.011088
vn -0.312099 0.950024 0.006912
vn -0.120207 0.983859 -0.132555
vn 0.120202 -0.983860 0.132556
vn -0.312624 0.000806 -0.949877
vn -0.973972 -0.000007 -0.226667
vn -0.973316 -0.000427 0.229467
vn 0.811222 0.000719 -0.584737
vn 0.812626 -0.000357 0.582785
vn -0.310960 -0.000945 0.950422
vn 0.154469 -0.132554 -0.979065
vn -0.154466 0.132556 0.979065
vn 0.973614 0.227441 0.018601
vn 0.973547 -0.227641 0.019628
vn 0.311703 -0.950144 0.008264
vn -0.812090 -0.583348 -0.014627
vn -0.811877 0.583574 -0.017257
vn 0.312150 0.950024 0.003984
vn 0.115508 0.983860 0.136669
vn -0.115503 -0.983860 -0.136670
vn 0.279283 0.000806 0.960208
vn 0.965468 -0.000007 0.260520
vn 0.980732 -0.000427 -0.195359
vn -0.831135 0.000719 0.556070
vn -0.791793 -0.000357 -0.610790
vn 0.343940 -0.000945 -0.938991
vn 0.084073 0.089813 0.992404
vn 0.995853 0.027175 -0.086824
vn -0.084073 -0.089813 -0.992404
vn -0.995853 -0.027175 0.086824
vn -0.034767 0.995588 -0.087156
vn 0.034767 -0.995588 0.087156
vn 0.052336 -0.241590 0.968966
vn 0.998630 0.012661 -0.050781
vn -0.052336 0.241590 -0.968966
vn -0.998630 -0.012661 0.050781
vn -0.000000 0.970296 0.241922
vn -0.000000 -0.970296 -0.241922
vn 0.017453 0.104513 0.994370
vn 0.999848 -0.001823 -0.017357
vn -0.017452 -0.104514 -0.994370
vn -0.999848 0.001823 0.017358
vn -0.000000 0.994522 -0.104528
vn 0.000000 -0.994522 0.104528
vn -0.051954 -0.121580 0.991221
vn 0.998623 -0.013569 0.050678
vn 0.051954 0.121579 -0.991221
vn -0.998623 0.013568 -0.050676
vn 0.007292 0.992489 0.122117
vn -0.007292 -0.992489 -0.122118
vn -0.036436 0.033234 0.998783
vn 0.998415 0.044111 0.034956
vn 0.036436 -0.033235 -0.998783
vn -0.998415 -0.044112 -0.034952
vn -0.042893 0.998474 -0.034790
vn 0.042893 -0.998474 0.034789
vn 0.033899 0.136886 0.990007
vn 0.999039 0.022899 -0.037374
vn -0.033899 -0.136882 -0.990007
vn -0.999039 -0.022899 0.037377
vn -0.027783 0.990323 -0.135975
vn 0.027783 -0.990323 0.135974
vn -0.017234 -0.105221 0.994299
vn 0.999813 -0.010582 0.016211
vn 0.017234 0.105221 -0.994299
vn -0.999813 0.010581 -0.016207
vn 0.008822 0.994393 0.105383
vn -0.008822 -0.994393 -0.105383
# 74 normals

g Cylinder02
usemtl wood
s 2
f 1/1/1 2/1/1 3/1/1
f 4/1/2 5/1/2 6/1/2
s 1
f 7/2/3 4/1/4 8/3/5
f 4/1/4 9/4/5 8/3/5
s 2
f 2/1/1 10/1/1 3/1/1
f 6/1/2 5/1/2 11/1/2
s 1
f 8/3/5 9/4/5 12/5/6
f 8/3/5 12/5/6 13/6/6
s 2
f 10/1/1 14/1/1 3/1/1
f 11/1/2 5/1/2 15/1/2
s 1
f 13/6/6 12/5/6 16/7/7
f 12/5/6 17/8/7 16/7/7
s 2
f 14/1/1 18/1/1 3/1/1
f 15/1/2 5/1/2 19/1/2
s 1
f 16/7/7 17/8/7 20/9/8
f 16/7/7 20/9/8 21/10/8
s 2
f 18/1/1 1/1/1 3/1/1
f 19/1/2 5/1/2 4/1/2
s 1
f 21/10/8 20/9/8 22/11/3
f 20/9/8 23/12/4 22/11/3
# 20 triangles in group

g Duplicate01
usemtl wood
s 2
f 24/13/9 25/13/9 26/13/9
f 27/13/10 28/13/10 29/13/10
s 1
f 30/14/11 29/13/12 31/15/13
f 30/14/11 32/16/11 29/13/12
s 2
f 24/13/9 33/13/9 25/13/9
f 34/13/10 28/13/10 27/13/10
s 1
f 35/17/14 32/16/11 30/14/11
f 36/18/14 35/17/14 30/14/11
s 2
f 24/13/9 37/13/9 33/13/9
f 38/13/10 28/13/10 34/13/10
s 1
f 39/19/15 35/17/14 36/18/14
f 39/19/15 40/20/15 35/17/14
s 2
f 24/13/9 41/13/9 37/13/9
f 42/13/10 28/13/10 38/13/10
s 1
f 43/21/16 40/20/15 39/19/15
f 44/22/16 43/21/16 39/19/15
s 2
f 24/13/9 26/13/9 41/13/9
f 29/13/10 28/13/10 42/13/10
s 1
f 45/23/13 43/21/16 44/22/16
f 45/23/13 46/24/12 43/21/16
# 20 triangles in group

g Duplicate02
usemtl wood
s 2
f 47/13/9 48/13/9 49/13/9
f 50/13/10 51/13/10 52/13/10
s 1
f 53/14/11 52/13/12 54/15/13
f 53/14/11 55/16/11 52/13/12
s 2
f 47/13/9 56/13/9 48/13/9
f 57/13/10 51/13/10 50/13/10
s 1
f 58/17/14 55/16/11 53/14/11
f 59/18/14 58/17/14 53/14/11
s 2
f 47/13/9 60/13/9 56/13/9
f 61/13/10 51/13/10 57/13/10
s 1
f 62/19/15 58/17/14 59/18/14
f 62/19/15 63/20/15 58/17/14
s 2
f 47/13/9 64/13/9 60/13/9
f 65/13/10 51/13/10 61/13/10
s 1
f 66/21/16 63/20/15 62/19/15
f 67/22/16 66/21/16 62/19/15
s 2
f 47/13/9 49/13/9 64/13/9
f 52/13/10 51/13/10 65/13/10
s 1
f 68/23/13 66/21/16 67/22/16
f 68/23/13 69/24/12 66/21/16
# 20 triangles in group

g Duplicate03
usemtl wood
s 2
f 70/1/17 71/1/17 72/1/17
f 73/1/18 74/1/18 75/1/18
s 1
f 76/2/19 73/1/20 77/3/21
f 73/1/20 78/4/21 77/3/21
s 2
f 71/1/17 79/1/17 72/1/17
f 75/1/18 74/1/18 80/1/18
s 1
f 77/3/21 78/4/21 81/5/22
f 77/3/21 81/5/22 82/6/22
s 2
f 79/1/17 83/1/17 72/1/17
f 80/1/18 74/1/18 84/1/18
s 1
f 82/6/22 81/5/22 85/7/23
f 81/5/22 86/8/23 85/7/23
s 2
f 83/1/17 87/1/17 72/1/17
f 84/1/18 74/1/18 88/1/18
s 1
f 85/7/23 86/8/23 89/9/24
f 85/7/23 89/9/24 90/10/24
s 2
f 87/1/17 70/1/17 72/1/17
f 88/1/18 74/1/18 73/1/18
s 1
f 90/10/24 89/9/24 91/11/19
f 89/9/24 92/12/20 91/11/19
s 2
f 93/13/25 94/13/25 95/13/25
f 96/13/26 97/13/26 98/13/26
s 1
f 99/14/27 98/13/28 100/15/29
f 99/14/27 101/16/27 98/13/28
s 2
f 93/13/25 102/13/25 94/13/25
f 103/13/26 97/13/26 96/13/26
s 1
f 104/17/30 101/16/27 99/14/27
f 105/18/30 104/17/30 99/14/27
s 2
f 93/13/25 106/13/25 102/13/25
f 107/13/26 97/13/26 103/13/26
s 1
f 108/19/31 104/17/30 105/18/30
f 108/19/31 109/20/31 104/17/30
s 2
f 93/13/25 110/13/25 106/13/25
f 111/13/26 97/13/26 107/13/26
s 1
f 112/21/32 109/20/31 108/19/31
f 113/22/32 112/21/32 108/19/31
s 2
f 93/13/25 95/13/25 110/13/25
f 98/13/26 97/13/26 111/13/26
s 1
f 114/23/29 112/21/32 113/22/32
f 114/23/29 115/24/28 112/21/32
s 2
f 116/13/25 117/13/25 118/13/25
f 119/13/26 120/13/26 121/13/26
s 1
f 122/14/27 121/13/28 123/15/29
f 122/14/27 124/16/27 121/13/28
s 2
f 116/13/25 125/13/25 117/13/25
f 126/13/26 120/13/26 119/13/26
s 1
f 127/17/30 124/16/27 122/14/27
f 128/18/30 127/17/30 122/14/27
s 2
f 116/13/25 129/13/25 125/13/25
f 130/13/26 120/13/26 126/13/26
s 1
f 131/19/31 127/17/30 128/18/30
f 131/19/31 132/20/31 127/17/30
s 2
f 116/13/25 133/13/25 129/13/25
f 134/13/26 120/13/26 130/13/26
s 1
f 135/21/32 132/20/31 131/19/31
f 136/22/32 135/21/32 131/19/31
s 2
f 116/13/25 118/13/25 133/13/25
f 121/13/26 120/13/26 134/13/26
s 1
f 137/23/29 135/21/32 136/22/32
f 137/23/29 138/24/28 135/21/32
# 60 triangles in group

g Box01
usemtl wood
f 139/25/33 140/26/33 141/27/33
f 140/26/33 142/28/33 141/27/33
s 2
f 143/25/34 144/26/34 145/27/34
f 144/26/34 146/28/34 145/27/34
s 1
f 147/25/35 148/26/35 149/27/35
f 148/26/35 150/28/35 149/27/35
s 2
f 151/25/36 152/26/36 153/27/36
f 152/26/36 154/28/36 153/27/36
s 3
f 151/25/37 155/26/37 145/27/37
f 155/26/37 156/28/37 145/27/37
f 157/25/38 152/26/38 158/27/38
f 152/26/38 146/28/38 158/27/38
# 12 triangles in group

g Duplicate04
usemtl wood
s 1
f 159/25/39 160/26/39 161/27/39
f 160/26/39 162/28/39 161/27/39
s 2
f 163/25/40 164/26/40 165/27/40
f 164/26/40 166/28/40 165/27/40
s 1
f 167/25/41 168/26/41 169/27/41
f 168/26/41 170/28/41 169/27/41
s 2
f 171/25/42 172/26/42 173/27/42
f 172/26/42 174/28/42 173/27/42
s 3
f 171/25/43 175/26/43 165/27/43
f 175/26/43 176/28/43 165/27/43
f 177/25/44 172/26/44 178/27/44
f 172/26/44 166/28/44 178/27/44
# 12 triangles in group

g Duplicate05
usemtl wood
s 1
f 179/25/45 180/26/45 181/27/45
f 180/26/45 182/28/45 181/27/45
s 2
f 183/25/46 184/26/46 185/27/46
f 184/26/46 186/28/46 185/27/46
s 1
f 187/25/47 188/26/47 189/27/47
f 188/26/47 190/28/47 189/27/47
s 2
f 191/25/48 192/26/48 193/27/48
f 192/26/48 194/28/48 193/27/48
s 3
f 191/25/49 195/26/49 185/27/49
f 195/26/49 196/28/49 185/27/49
f 197/25/50 192/26/50 198/27/50
f 192/26/50 186/28/50 198/27/50
# 12 triangles in group

g Duplicate07
usemtl wood
s 1
f 199/25/51 200/26/51 201/27/51
f 200/26/51 202/28/51 201/27/51
s 2
f 203/25/52 204/26/52 205/27/52
f 204/26/52 206/28/52 205/27/52
s 1
f 207/25/53 208/26/53 209/27/53
f 208/26/53 210/28/53 209/27/53
s 2
f 211/25/54 212/26/54 213/27/54
f 212/26/54 214/28/54 213/27/54
s 3
f 211/25/55 215/26/55 205/27/55
f 215/26/55 216/28/55 205/27/55
f 217/25/56 212/26/56 218/27/56
f 212/26/56 206/28/56 218/27/56
# 12 triangles in group

g Duplicate08
usemtl wood
s 1
f 219/25/57 220/26/57 221/27/57
f 220/26/57 222/28/57 221/27/57
s 2
f 223/25/58 224/26/58 225/27/58
f 224/26/58 226/28/58 225/27/58
s 1
f 227/25/59 228/26/59 229/27/59
f 228/26/59 230/28/59 229/27/59
s 2
f 231/25/60 232/26/60 233/27/60
f 232/26/60 234/28/60 233/27/60
s 3
f 231/25/61 235/26/61 225/27/61
f 235/26/61 236/28/61 225/27/61
f 237/25/62 232/26/62 238/27/62
f 232/26/62 226/28/62 238/27/62
# 12 triangles in group

g Duplicate09
usemtl wood
s 1
f 239/25/63 240/26/63 241/27/63
f 240/26/63 242/28/63 241/27/63
s 2
f 243/25/64 244/26/64 245/27/64
f 244/26/64 246/28/64 245/27/64
s 1
f 247/25/65 248/26/65 249/27/65
f 248/26/65 250/28/65 249/27/65
s 2
f 251/25/66 252/26/66 253/27/66
f 252/26/66 254/28/66 253/27/66
s 3
f 251/25/67 255/26/67 245/27/67
f 255/26/67 256/28/67 245/27/67
f 257/25/68 252/26/68 258/27/68
f 252/26/68 246/28/68 258/27/68
# 12 triangles in group

g Duplicate10
usemtl wood
s 1
f 259/25/69 260/26/69 261/27/69
f 260/26/69 262/28/69 261/27/69
s 2
f 263/25/70 264/26/70 265/27/70
f 264/26/70 266/28/70 265/27/70
s 1
f 267/25/71 268/26/71 269/27/71
f 268/26/71 270/28/71 269/27/71
s 2
f 271/25/72 272/26/72 273/27/72
f 272/26/72 274/28/72 273/27/72
s 3
f 271/25/73 275/26/73 265/27/73
f 275/26/73 276/28/73 265/27/73
f 277/25/74 272/26/74 278/27/74
f 272/26/74 266/28/74 278/27/74
# 12 triangles in group

# 204 triangles total

