# Wavefront OBJ exported by MilkShape 3D

mtllib juice.mtl

v 5.375000 -0.250000 0.375000
v 6.233170 4.583334 0.375000
v 6.480437 17.416668 0.275000
v 4.283528 20.350000 0.464483
v 3.793553 20.325001 -1.770714
v 4.654886 -0.250000 3.062500
v 5.398083 4.583334 3.764413
v 5.612222 17.416668 3.708672
v 3.709644 20.350000 2.629381
v 2.687500 -0.250000 5.029886
v 3.116585 4.583334 6.245635
v 3.240218 17.416668 6.222291
v 2.141764 20.350000 4.214195
v 0.000000 -0.250000 5.750000
v 0.000000 4.583334 7.153829
v 0.000000 17.416668 7.142344
v 0.000000 20.350000 4.794276
v -2.687500 -0.250000 5.029886
v -3.116585 4.583334 6.245635
v -3.240218 17.416668 6.222291
v -2.141764 20.350000 4.214195
v -4.654886 -0.250000 3.062500
v -5.398083 4.583334 3.764413
v -5.612222 17.416668 3.708672
v -3.709644 20.350000 2.629381
v -5.375000 -0.250000 0.375000
v -6.233170 4.583334 0.375000
v -6.480437 17.416668 0.275000
v -4.283528 20.350000 0.464483
v -4.654886 -0.250000 -2.312500
v -5.398083 4.583334 -3.014413
v -5.612222 17.416668 -3.158673
v -3.793553 20.325001 -1.770714
v -2.687500 -0.250000 -4.279886
v -3.116585 4.583334 -5.495636
v -3.240218 17.416668 -5.672297
v -2.141764 20.350000 -3.285229
v -0.000000 -0.250000 -5.000000
v -0.000000 4.583334 -6.403827
v -0.000000 17.416668 -6.592346
v -0.000000 20.350000 -3.865313
v 2.687500 -0.250000 -4.279886
v 3.116585 4.583334 -5.495636
v 3.240218 17.416668 -5.672297
v 2.141764 20.350000 -3.285229
v 4.654886 -0.250000 -2.312500
v 5.398083 4.583334 -3.014413
v 5.612222 17.416668 -3.158673
v 0.000000 -0.250000 0.375000
v 1.609766 26.650000 0.320307
v 2.879223 31.250000 0.254693
v 1.394098 26.650000 1.096858
v 2.493481 31.250000 1.457572
v 0.804883 26.650000 1.665332
v 1.439612 31.250000 2.338140
v 0.000000 26.650000 1.873409
v 0.000000 31.250000 2.660450
v -0.804883 26.650000 1.665332
v -1.439612 31.250000 2.338140
v -1.394098 26.650000 1.096858
v -2.493481 31.250000 1.457572
v -1.609766 26.650000 0.320307
v -2.879223 31.250000 0.254693
v -1.394098 26.650000 -0.456244
v -2.493481 31.250000 -0.948186
v -0.804883 26.650000 -1.024718
v -1.439612 31.250000 -1.828755
v 0.000000 26.650000 -1.232795
v 0.000000 31.250000 -2.151065
v 0.804883 26.650000 -1.024718
v 1.439612 31.250000 -1.828755
v 1.394098 26.650000 -0.456244
v 2.493481 31.250000 -0.948186
v 0.000000 31.250000 0.254693
v 0.000000 26.650000 0.320307
v 1.905393 23.983334 0.275000
v 1.963717 27.166666 0.375000
v 3.503516 29.750000 0.375000
v 1.650118 23.983334 1.238635
v 1.700628 27.166666 1.315049
v 3.034133 29.750000 1.957498
v 0.952696 23.983334 1.944065
v 0.981858 27.166666 2.003214
v 1.751758 29.750000 3.115969
v 0.000000 23.983334 2.202271
v 0.000000 27.166666 2.255100
v 0.000000 29.750000 3.539999
v -0.952696 23.983334 1.944065
v -0.981858 27.166666 2.003214
v -1.751758 29.750000 3.115969
v -1.650118 23.983334 1.238635
v -1.700628 27.166666 1.315049
v -3.034133 29.750000 1.957498
v -1.905393 23.983334 0.275000
v -1.963717 27.166666 0.375000
v -3.503516 29.750000 0.375000
v -1.650118 23.983334 -0.688636
v -1.700628 27.166666 -0.565050
v -3.034133 29.750000 -1.207499
v -0.952696 23.983334 -1.394066
v -0.981858 27.166666 -1.253214
v -1.751758 29.750000 -2.365966
v -0.000000 23.983334 -1.652272
v -0.000000 27.166666 -1.505100
v -0.000000 29.750000 -2.789997
v 0.952696 23.983334 -1.394066
v 0.981858 27.166666 -1.253214
v 1.751758 29.750000 -2.365966
v 1.650118 23.983334 -0.688636
v 1.700628 27.166666 -0.565050
v 3.034133 29.750000 -1.207499
# 111 vertices

vt 0.500000 0.008488
vt 0.355909 0.008488
vt 0.500000 0.172688
vt 0.292694 0.172688
vt 0.500000 0.336888
vt 0.253173 0.336888
vt 0.500000 0.501087
vt 0.279737 0.501087
vt 0.500000 0.665286
vt 0.250426 0.008488
vt 0.140936 0.172688
vt 0.072483 0.336888
vt 0.118494 0.501087
vt 0.410512 0.665286
vt 0.211817 0.008488
vt 0.085388 0.172688
vt 0.006345 0.336888
vt 0.059475 0.501087
vt 0.644091 0.008488
vt 0.707306 0.172688
vt 0.746827 0.336888
vt 0.720262 0.501087
vt 0.749574 0.008488
vt 0.859064 0.172688
vt 0.927518 0.336888
vt 0.881506 0.501087
vt 0.589488 0.665286
vt 0.788183 0.008488
vt 0.914612 0.172688
vt 0.993655 0.336888
vt 0.940525 0.501087
vt 1.166683 0.444507
vt 1.081830 0.127049
vt 0.534052 0.452356
vt 0.676749 0.451295
vt 0.540225 0.451295
vt 0.658458 0.380135
vt 0.850007 -0.105346
vt 0.608487 0.328042
vt 0.533329 -0.190409
vt 0.534052 0.147326
vt 0.216653 -0.105346
vt 0.471962 0.328042
vt -0.015171 0.127049
vt 0.421991 0.380135
vt -0.100024 0.444507
vt 0.403700 0.451295
vt -0.015171 0.761964
vt 0.421991 0.522455
vt 0.216653 0.994359
vt 0.471962 0.574548
vt 0.533329 1.079422
vt 0.540225 0.593616
vt 0.850007 0.994359
vt 0.608487 0.574548
vt 1.081830 0.761964
vt 0.658458 0.522455
vt 0.448334 0.665286
vt 0.500000 0.905924
vt 0.449599 0.905924
vt 0.500000 0.993686
vt 0.415154 0.993686
vt 0.412703 0.905924
vt 0.353042 0.993686
vt 0.396669 0.665286
vt 0.399198 0.905924
vt 0.330307 0.993686
vt 0.551666 0.665286
vt 0.550401 0.905924
vt 0.584846 0.993686
vt 0.587297 0.905924
vt 0.646958 0.993686
vt 0.603331 0.665286
vt 0.600802 0.905924
vt 0.669693 0.993686
# 75 texture coordinates

vn 0.723531 -0.690292 -0.000000
vn 0.473314 -0.837637 0.272650
vn 0.000000 -1.000000 0.000000
vn 0.928422 -0.371527 -0.000000
vn 0.809616 -0.369757 0.455853
vn 0.998680 -0.050517 0.009305
vn 0.864018 -0.043274 0.501597
vn 0.758073 0.651605 0.027133
vn 0.670723 0.636686 0.380476
vn 0.276959 0.947728 -0.158449
vn 0.356869 -0.716676 0.599183
vn 0.483467 -0.368076 0.794217
vn 0.507492 -0.045643 0.860447
vn 0.315429 0.793827 0.519946
vn 0.000000 -0.852711 0.522382
vn -0.000000 -0.368214 0.929741
vn 0.000000 -0.047090 0.998891
vn -0.000078 0.597258 0.802049
vn -0.356869 -0.716676 0.599183
vn -0.483467 -0.368076 0.794217
vn -0.507492 -0.045643 0.860447
vn -0.316484 0.792754 0.520940
vn -0.473314 -0.837637 0.272650
vn -0.809616 -0.369757 0.455853
vn -0.864018 -0.043274 0.501597
vn -0.673378 0.633722 0.380734
vn -0.723531 -0.690292 -0.000000
vn -0.928422 -0.371527 -0.000000
vn -0.998680 -0.050517 0.009305
vn -0.585467 0.810474 0.019004
vn -0.473314 -0.837637 -0.272650
vn -0.809616 -0.369757 -0.455853
vn -0.861987 -0.080955 -0.500425
vn -0.683281 0.617757 -0.389234
vn -0.356869 -0.716676 -0.599183
vn -0.483467 -0.368076 -0.794217
vn -0.497425 -0.055374 -0.865738
vn -0.294986 0.792228 -0.534189
vn 0.000000 -0.852711 -0.522382
vn -0.000000 -0.368214 -0.929741
vn 0.000000 -0.047090 -0.998891
vn -0.001124 0.600010 -0.799992
vn 0.356869 -0.716676 -0.599183
vn 0.483467 -0.368076 -0.794217
vn 0.497425 -0.055374 -0.865738
vn 0.381918 0.608567 -0.695546
vn 0.473315 -0.837637 -0.272650
vn 0.809616 -0.369757 -0.455853
vn 0.861987 -0.080955 -0.500425
vn 0.693648 -0.720314 -0.000000
vn 0.771605 -0.437522 0.461737
vn 0.887500 0.460809 -0.000000
vn 0.000000 1.000000 0.000000
vn 0.586084 0.730412 0.350719
vn 0.347373 -0.700178 0.623765
vn 0.422284 0.496675 0.758281
vn 0.000000 -0.413912 0.910317
vn 0.000000 0.738988 0.673718
vn -0.347373 -0.700178 0.623765
vn -0.422284 0.496675 0.758281
vn -0.771605 -0.437522 0.461737
vn -0.586084 0.730412 0.350719
vn -0.693648 -0.720314 -0.000000
vn -0.887500 0.460809 -0.000000
vn -0.751637 -0.482423 -0.449788
vn -0.605182 0.708946 -0.362148
vn -0.328933 -0.736840 -0.590652
vn -0.441505 0.420182 -0.792793
vn 0.000000 -0.501518 -0.865147
vn 0.000000 0.696953 -0.717117
vn 0.328933 -0.736840 -0.590652
vn 0.441504 0.420182 -0.792793
vn 0.751637 -0.482423 -0.449788
vn 0.605182 0.708946 -0.362148
vn 0.638385 0.769718 -0.000000
vn 0.903895 0.427755 0.000000
vn 0.551298 0.775783 0.306970
vn 0.783301 0.431856 0.447146
vn 0.962649 -0.270752 0.000000
vn 0.828224 -0.257952 0.497500
vn 0.937557 -0.347832 0.000000
vn 0.461793 0.838310 0.289799
vn 0.450477 0.442812 0.775234
vn 0.321942 0.787056 0.526209
vn 0.471472 -0.237279 0.849361
vn 0.462715 -0.282543 0.840276
vn 0.000000 0.792590 0.609755
vn 0.000000 0.449738 0.893160
vn 0.000000 -0.228971 0.973433
vn 0.000000 0.857558 0.514388
vn -0.450477 0.442812 0.775234
vn -0.321942 0.787056 0.526209
vn -0.471472 -0.237279 0.849361
vn -0.462715 -0.282543 0.840276
vn -0.551298 0.775783 0.306970
vn -0.783301 0.431856 0.447146
vn -0.828224 -0.257952 0.497500
vn -0.461793 0.838310 0.289799
vn -0.903895 0.427755 0.000000
vn -0.638385 0.769718 -0.000000
vn -0.962649 -0.270752 0.000000
vn -0.937557 -0.347832 0.000000
vn -0.551298 0.775783 -0.306970
vn -0.783301 0.431856 -0.447146
vn -0.828224 -0.257952 -0.497500
vn -0.461793 0.838310 -0.289799
vn -0.450476 0.442812 -0.775234
vn -0.321942 0.787056 -0.526209
vn -0.471471 -0.237278 -0.849361
vn -0.462715 -0.282542 -0.840277
vn 0.000000 0.792590 -0.609755
vn -0.000000 0.449738 -0.893160
vn 0.000000 -0.228971 -0.973433
vn 0.000000 0.857558 -0.514387
vn 0.450476 0.442812 -0.775234
vn 0.321942 0.787056 -0.526209
vn 0.471471 -0.237278 -0.849361
vn 0.462715 -0.282542 -0.840277
vn 0.551298 0.775783 -0.306970
vn 0.783301 0.431856 -0.447146
vn 0.828224 -0.257952 -0.497500
vn 0.461793 0.838310 -0.289799
# 122 normals

g Cylinder01
usemtl bottle
s 1
f 1/1/1 6/2/2 49/1/3
f 1/1/1 2/3/4 7/4/5
f 1/1/1 7/4/5 6/2/2
f 2/3/4 3/5/6 7/4/5
f 3/5/6 8/6/7 7/4/5
f 3/5/6 4/7/8 9/8/9
f 3/5/6 9/8/9 8/6/7
f 4/7/8 5/9/10 9/8/9
f 6/2/2 10/10/11 49/1/3
f 6/2/2 7/4/5 10/10/11
f 7/4/5 11/11/12 10/10/11
f 7/4/5 8/6/7 12/12/13
f 7/4/5 12/12/13 11/11/12
f 8/6/7 9/8/9 12/12/13
f 9/8/9 13/13/14 12/12/13
f 9/8/9 5/14/10 13/13/14
f 10/10/11 14/15/15 49/1/3
f 10/10/11 11/11/12 15/16/16
f 10/10/11 15/16/16 14/15/15
f 11/11/12 12/12/13 15/16/16
f 12/12/13 16/17/17 15/16/16
f 12/12/13 13/13/14 17/18/18
f 12/12/13 17/18/18 16/17/17
f 13/13/14 5/14/10 17/18/18
f 14/15/15 18/10/19 49/1/3
f 14/15/15 15/16/16 18/10/19
f 15/16/16 19/11/20 18/10/19
f 15/16/16 16/17/17 20/12/21
f 15/16/16 20/12/21 19/11/20
f 16/17/17 17/18/18 20/12/21
f 17/18/18 21/13/22 20/12/21
f 17/18/18 5/14/10 21/13/22
f 18/10/19 22/2/23 49/1/3
f 18/10/19 19/11/20 23/4/24
f 18/10/19 23/4/24 22/2/23
f 19/11/20 20/12/21 23/4/24
f 20/12/21 24/6/25 23/4/24
f 20/12/21 21/13/22 25/8/26
f 20/12/21 25/8/26 24/6/25
f 21/13/22 5/14/10 25/8/26
f 22/2/23 26/1/27 49/1/3
f 22/2/23 23/4/24 26/1/27
f 23/4/24 27/3/28 26/1/27
f 23/4/24 24/6/25 28/5/29
f 23/4/24 28/5/29 27/3/28
f 24/6/25 25/8/26 28/5/29
f 25/8/26 29/7/30 28/5/29
f 25/8/26 5/9/10 29/7/30
f 26/1/27 30/19/31 49/1/3
f 26/1/27 27/3/28 31/20/32
f 26/1/27 31/20/32 30/19/31
f 27/3/28 28/5/29 31/20/32
f 28/5/29 32/21/33 31/20/32
f 28/5/29 29/7/30 33/22/34
f 28/5/29 33/22/34 32/21/33
f 29/7/30 5/9/10 33/22/34
f 30/19/31 34/23/35 49/1/3
f 30/19/31 31/20/32 34/23/35
f 31/20/32 35/24/36 34/23/35
f 31/20/32 32/21/33 36/25/37
f 31/20/32 36/25/37 35/24/36
f 32/21/33 33/22/34 36/25/37
f 33/22/34 37/26/38 36/25/37
f 33/22/34 5/27/10 37/26/38
f 34/23/35 38/28/39 49/1/3
f 34/23/35 35/24/36 39/29/40
f 34/23/35 39/29/40 38/28/39
f 35/24/36 36/25/37 39/29/40
f 36/25/37 40/30/41 39/29/40
f 36/25/37 37/26/38 41/31/42
f 36/25/37 41/31/42 40/30/41
f 37/26/38 5/27/10 41/31/42
f 38/28/39 42/23/43 49/1/3
f 38/28/39 39/29/40 42/23/43
f 39/29/40 43/24/44 42/23/43
f 39/29/40 40/30/41 44/25/45
f 39/29/40 44/25/45 43/24/44
f 40/30/41 41/31/42 44/25/45
f 41/31/42 45/26/46 44/25/45
f 41/31/42 5/27/10 45/26/46
f 42/23/43 46/19/47 49/1/3
f 42/23/43 43/24/44 47/20/48
f 42/23/43 47/20/48 46/19/47
f 43/24/44 44/25/45 47/20/48
f 44/25/45 48/21/49 47/20/48
f 44/25/45 45/26/46 5/22/10
f 44/25/45 5/22/10 48/21/49
f 46/19/47 1/1/1 49/1/3
f 46/19/47 47/20/48 1/1/1
f 47/20/48 2/3/4 1/1/1
f 47/20/48 48/21/49 3/5/6
f 47/20/48 3/5/6 2/3/4
f 48/21/49 5/22/10 3/5/6
f 5/22/10 4/7/8 3/5/6
# 94 triangles in group

g Cylinder02
usemtl cork
f 50/32/50 52/33/51 75/34/3
f 51/35/52 74/36/53 53/37/54
f 50/32/50 51/35/52 52/33/51
f 51/35/52 53/37/54 52/33/51
f 52/33/51 54/38/55 75/34/3
f 53/37/54 74/36/53 55/39/56
f 52/33/51 53/37/54 55/39/56
f 52/33/51 55/39/56 54/38/55
f 54/38/55 56/40/57 75/34/3
f 55/39/56 74/36/53 57/41/58
f 54/38/55 55/39/56 56/40/57
f 55/39/56 57/41/58 56/40/57
f 56/40/57 58/42/59 75/34/3
f 57/41/58 74/36/53 59/43/60
f 56/40/57 57/41/58 59/43/60
f 56/40/57 59/43/60 58/42/59
f 58/42/59 60/44/61 75/34/3
f 59/43/60 74/36/53 61/45/62
f 58/42/59 59/43/60 60/44/61
f 59/43/60 61/45/62 60/44/61
f 60/44/61 62/46/63 75/34/3
f 61/45/62 74/36/53 63/47/64
f 60/44/61 61/45/62 63/47/64
f 60/44/61 63/47/64 62/46/63
f 62/46/63 64/48/65 75/34/3
f 63/47/64 74/36/53 65/49/66
f 62/46/63 63/47/64 64/48/65
f 63/47/64 65/49/66 64/48/65
f 64/48/65 66/50/67 75/34/3
f 65/49/66 74/36/53 67/51/68
f 64/48/65 65/49/66 67/51/68
f 64/48/65 67/51/68 66/50/67
f 66/50/67 68/52/69 75/34/3
f 67/51/68 74/36/53 69/53/70
f 66/50/67 67/51/68 68/52/69
f 67/51/68 69/53/70 68/52/69
f 68/52/69 70/54/71 75/34/3
f 69/53/70 74/36/53 71/55/72
f 68/52/69 69/53/70 71/55/72
f 68/52/69 71/55/72 70/54/71
f 70/54/71 72/56/73 75/34/3
f 71/55/72 74/36/53 73/57/74
f 70/54/71 71/55/72 72/56/73
f 71/55/72 73/57/74 72/56/73
f 72/56/73 50/32/50 75/34/3
f 73/57/74 74/36/53 51/35/52
f 72/56/73 73/57/74 51/35/52
f 72/56/73 51/35/52 50/32/50
# 48 triangles in group

g Duplicate01
usemtl glass
f 4/7/75 76/9/76 9/8/77
f 76/9/76 79/58/78 9/8/77
f 76/9/76 77/59/79 80/60/80
f 76/9/76 80/60/80 79/58/78
f 77/59/79 78/61/81 80/60/80
f 78/61/81 81/62/82 80/60/80
f 9/8/77 79/58/78 82/14/83
f 9/8/77 82/14/83 13/13/84
f 79/58/78 80/60/80 82/14/83
f 80/60/80 83/63/85 82/14/83
f 80/60/80 81/62/82 84/64/86
f 80/60/80 84/64/86 83/63/85
f 13/13/84 82/14/83 17/18/87
f 82/14/83 85/65/88 17/18/87
f 82/14/83 83/63/85 86/66/89
f 82/14/83 86/66/89 85/65/88
f 83/63/85 84/64/86 86/66/89
f 84/64/86 87/67/90 86/66/89
f 17/18/87 85/65/88 88/14/91
f 17/18/87 88/14/91 21/13/92
f 85/65/88 86/66/89 88/14/91
f 86/66/89 89/63/93 88/14/91
f 86/66/89 87/67/90 90/64/94
f 86/66/89 90/64/94 89/63/93
f 21/13/92 88/14/91 25/8/95
f 88/14/91 91/58/96 25/8/95
f 88/14/91 89/63/93 92/60/97
f 88/14/91 92/60/97 91/58/96
f 89/63/93 90/64/94 92/60/97
f 90/64/94 93/62/98 92/60/97
f 25/8/95 91/58/96 94/9/99
f 25/8/95 94/9/99 29/7/100
f 91/58/96 92/60/97 94/9/99
f 92/60/97 95/59/101 94/9/99
f 92/60/97 93/62/98 96/61/102
f 92/60/97 96/61/102 95/59/101
f 29/7/100 94/9/99 33/22/103
f 94/9/99 97/68/104 33/22/103
f 94/9/99 95/59/101 98/69/105
f 94/9/99 98/69/105 97/68/104
f 95/59/101 96/61/102 98/69/105
f 96/61/102 99/70/106 98/69/105
f 33/22/103 97/68/104 100/27/107
f 33/22/103 100/27/107 37/26/108
f 97/68/104 98/69/105 100/27/107
f 98/69/105 101/71/109 100/27/107
f 98/69/105 99/70/106 102/72/110
f 98/69/105 102/72/110 101/71/109
f 37/26/108 100/27/107 41/31/111
f 100/27/107 103/73/112 41/31/111
f 100/27/107 101/71/109 104/74/113
f 100/27/107 104/74/113 103/73/112
f 101/71/109 102/72/110 104/74/113
f 102/72/110 105/75/114 104/74/113
f 41/31/111 103/73/112 106/27/115
f 41/31/111 106/27/115 45/26/116
f 103/73/112 104/74/113 106/27/115
f 104/74/113 107/71/117 106/27/115
f 104/74/113 105/75/114 108/72/118
f 104/74/113 108/72/118 107/71/117
f 45/26/116 106/27/115 5/22/119
f 106/27/115 109/68/120 5/22/119
f 106/27/115 107/71/117 110/69/121
f 106/27/115 110/69/121 109/68/120
f 107/71/117 108/72/118 110/69/121
f 108/72/118 111/70/122 110/69/121
f 5/22/119 109/68/120 76/9/76
f 5/22/119 76/9/76 4/7/75
f 109/68/120 110/69/121 76/9/76
f 110/69/121 77/59/79 76/9/76
f 110/69/121 111/70/122 78/61/81
f 110/69/121 78/61/81 77/59/79
# 72 triangles in group

# 214 triangles total

