# Wavefront OBJ exported by MilkShape 3D

mtllib key.mtl

v -0.055985 1.071555 -6.049543
v -2.081993 1.036191 -5.221792
v 1.958063 1.106711 -5.233754
v 2.838310 1.122075 -3.154803
v 2.034606 1.108047 -1.221790
v -2.923969 1.021493 -3.181122
v -2.148968 1.035023 -1.154804
v -0.536773 1.063163 -0.585426
v 0.376509 1.079104 -0.585425
v 0.376509 1.079104 3.548773
v -0.571399 1.062558 6.267394
v 1.566804 1.099881 3.553105
v 1.562476 1.099804 4.371284
v 0.376509 1.079104 4.366961
v 0.376509 1.079104 5.457867
v 1.519192 1.099049 5.453540
v 1.519192 1.099051 6.267392
v -0.053061 1.071607 -5.043431
v -1.193239 1.051704 -4.555126
v 1.139740 1.092427 -4.444014
v 1.695210 1.102121 -3.110681
v 1.139740 1.092427 -1.832902
v -0.079373 1.071147 -1.508340
v -1.295563 1.049918 -1.812433
v -1.883193 1.039661 -3.198400
v -2.352857 0.521771 -3.198400
v -1.630745 0.534374 -4.888458
v -0.062479 0.561748 -5.543427
v 1.555906 0.589996 -4.829977
v 2.365722 0.604135 -3.142842
v 1.669924 0.591989 -1.502491
v -1.677521 0.533557 -1.479099
v -0.052038 0.561930 -1.055123
v -0.091714 0.561238 3.960755
v -0.091714 0.561238 5.817898
v 1.249351 0.584647 3.936940
v 1.296964 0.585477 5.873450
v -2.370645 1.540845 -3.198399
v -1.648533 1.553450 -4.888460
v -0.080267 1.580825 -5.543429
v 1.538118 1.609074 -4.829980
v 2.347933 1.623209 -3.142844
v 1.652135 1.611064 -1.502492
v -1.695310 1.552633 -1.479100
v -0.069826 1.581006 -1.055123
v -0.109502 1.580315 3.960753
v -0.109502 1.580315 5.817898
v 1.231564 1.603722 3.936943
v 1.279175 1.604553 5.873454
# 49 vertices

vt 0.304387 0.649053
vt 0.351702 0.650015
vt 0.369610 0.536138
vt 0.408537 0.554209
vt 0.391977 0.650015
vt 0.441431 0.572783
vt 0.505289 0.504410
vt 0.545334 0.530583
vt 0.543783 0.555838
vt 0.721691 0.539871
vt 0.582148 0.504410
vt 0.690251 0.555512
vt 0.748808 0.646920
vt 0.789329 0.647586
vt 0.646381 0.573924
vt 0.693128 0.645127
vt 0.646381 0.719427
vt 0.680655 0.740934
vt 0.715249 0.763435
vt 0.545997 0.752829
vt 0.544456 0.780691
vt 0.545751 0.808894
vt 0.450042 0.725618
vt 0.412474 0.744193
vt 0.375246 0.762768
vt 0.541996 0.251076
vt 0.582148 0.274034
vt 0.502375 0.122541
vt 0.541996 0.147589
vt 0.658864 0.144493
vt 0.678314 0.122541
vt 0.678314 0.167892
vt 0.582148 0.167651
vt 0.582148 0.228441
vt 0.681957 0.228201
vt 0.654857 0.252404
vt 0.682321 0.273793
# 37 texture coordinates

vn -0.999711 -0.017451 -0.016551
vn -0.093409 -0.993805 0.060222
vn -0.787085 -0.013738 0.616692
vn 0.139516 -0.987816 0.068958
vn 0.994677 0.017362 -0.101572
vn 0.508513 0.008877 -0.861009
vn -0.817307 -0.014266 0.576026
vn 0.214272 -0.976347 -0.028886
vn -0.089779 -0.001567 -0.995960
vn 0.678146 0.011837 0.734832
vn 0.852726 0.014885 0.522146
vn -0.142359 -0.967690 -0.208113
vn 0.079255 -0.988717 0.127115
vn 0.988536 0.017255 -0.149994
vn -0.623677 -0.010887 -0.781606
vn -0.988761 -0.017260 -0.148508
vn -0.793804 -0.013855 0.608016
vn 0.101998 -0.990784 0.089123
vn 0.601175 0.010493 -0.799049
vn -0.016779 -0.000291 0.999859
vn 0.010387 -0.953051 -0.302633
vn -0.003926 -0.000070 -0.999992
vn 0.779557 0.013608 0.626183
vn 0.097089 -0.977332 0.188140
vn -0.696992 -0.012167 -0.716976
vn -0.141933 -0.989873 -0.002573
vn 0.684451 0.011948 -0.728961
vn -0.703117 -0.012274 0.710969
vn 0.231262 -0.972698 -0.019403
vn 0.313060 -0.949609 -0.015359
vn 0.754791 0.013175 0.655833
vn 0.761490 0.013294 -0.648040
vn 0.434256 0.007581 -0.900757
vn 0.691171 0.012063 0.722591
vn 0.738946 0.012896 0.673641
vn 0.284209 -0.958679 -0.012624
vn 0.729506 0.012734 -0.683856
vn -0.128036 0.989939 0.060222
vn 0.104957 0.992083 0.068958
vn 0.180067 0.983230 -0.028886
vn -0.176045 0.962132 -0.208113
vn 0.044701 0.990880 0.127115
vn 0.067359 0.993740 0.089121
vn -0.022880 0.952832 -0.302634
vn 0.062921 0.980125 0.188138
vn -0.176393 0.984317 -0.002573
vn 0.197175 0.980176 -0.019403
vn 0.279728 0.959956 -0.015358
vn 0.250579 0.968014 -0.012622
# 49 normals

g Duplicate02
usemtl Material01
s 1
f 6/1/1 26/2/2 7/3/3
f 7/3/3 26/2/2 32/4/4
f 32/4/4 26/2/2 25/5/5
f 32/4/4 25/5/5 24/6/6
f 8/7/7 7/3/3 32/4/4
f 8/7/7 32/4/4 33/8/8
f 33/8/8 32/4/4 24/6/6
f 33/8/8 24/6/6 23/9/9
f 5/10/10 9/11/11 33/8/8
f 33/8/8 23/9/9 31/12/12
f 5/10/10 33/8/8 31/12/12
f 5/10/10 31/12/12 30/13/13
f 30/13/13 4/14/14 5/10/10
f 22/15/15 21/16/16 31/12/12
f 31/12/12 21/16/16 30/13/13
f 21/16/16 20/17/17 30/13/13
f 30/13/13 20/17/17 29/18/18
f 4/14/14 30/13/13 29/18/18
f 4/14/14 29/18/18 3/19/19
f 20/17/17 18/20/20 29/18/18
f 29/18/18 18/20/20 28/21/21
f 29/18/18 28/21/21 3/19/19
f 28/21/21 1/22/22 3/19/19
f 18/20/20 19/23/23 27/24/24
f 18/20/20 27/24/24 28/21/21
f 28/21/21 27/24/24 2/25/25
f 28/21/21 2/25/25 1/22/22
f 26/2/2 6/1/1 2/25/25
f 26/2/2 2/25/25 27/24/24
f 25/5/5 26/2/2 19/23/23
f 26/2/2 27/24/24 19/23/23
f 31/12/12 23/9/9 22/15/15
f 34/26/26 8/7/7 33/8/8
f 33/8/8 9/11/11 10/27/27
f 11/28/28 34/26/26 35/29/29
f 11/28/28 35/29/29 37/30/30
f 17/31/31 11/28/28 37/30/30
f 17/31/31 37/30/30 16/32/32
f 37/30/30 15/33/33 16/32/32
f 35/29/29 15/33/33 37/30/30
f 15/33/33 35/29/29 14/34/34
f 13/35/35 14/34/34 36/36/36
f 13/35/35 36/36/36 12/37/37
f 36/36/36 10/27/27 12/37/37
f 36/36/36 14/34/34 34/26/26
f 14/34/34 35/29/29 34/26/26
f 34/26/26 11/28/28 8/7/7
f 10/27/27 36/36/36 34/26/26
f 10/27/27 34/26/26 33/8/8
f 7/3/3 38/2/38 6/1/1
f 44/4/39 38/2/38 7/3/3
f 25/5/5 38/2/38 44/4/39
f 24/6/6 25/5/5 44/4/39
f 44/4/39 7/3/3 8/7/7
f 45/8/40 44/4/39 8/7/7
f 24/6/6 44/4/39 45/8/40
f 23/9/9 24/6/6 45/8/40
f 45/8/40 9/11/11 5/10/10
f 43/12/41 23/9/9 45/8/40
f 43/12/41 45/8/40 5/10/10
f 42/13/42 43/12/41 5/10/10
f 5/10/10 4/14/14 42/13/42
f 43/12/41 21/16/16 22/15/15
f 42/13/42 21/16/16 43/12/41
f 42/13/42 20/17/17 21/16/16
f 41/18/43 20/17/17 42/13/42
f 41/18/43 42/13/42 4/14/14
f 3/19/19 41/18/43 4/14/14
f 41/18/43 18/20/20 20/17/17
f 40/21/44 18/20/20 41/18/43
f 3/19/19 40/21/44 41/18/43
f 3/19/19 1/22/22 40/21/44
f 39/24/45 19/23/23 18/20/20
f 40/21/44 39/24/45 18/20/20
f 2/25/25 39/24/45 40/21/44
f 1/22/22 2/25/25 40/21/44
f 2/25/25 6/1/1 38/2/38
f 39/24/45 2/25/25 38/2/38
f 19/23/23 38/2/38 25/5/5
f 19/23/23 39/24/45 38/2/38
f 22/15/15 23/9/9 43/12/41
f 45/8/40 8/7/7 46/26/46
f 10/27/27 9/11/11 45/8/40
f 47/29/47 46/26/46 11/28/28
f 49/30/48 47/29/47 11/28/28
f 49/30/48 11/28/28 17/31/31
f 16/32/32 49/30/48 17/31/31
f 16/32/32 15/33/33 49/30/48
f 49/30/48 15/33/33 47/29/47
f 14/34/34 47/29/47 15/33/33
f 48/36/49 14/34/34 13/35/35
f 12/37/37 48/36/49 13/35/35
f 12/37/37 10/27/27 48/36/49
f 46/26/46 14/34/34 48/36/49
f 46/26/46 47/29/47 14/34/34
f 8/7/7 11/28/28 46/26/46
f 46/26/46 48/36/49 10/27/27
f 45/8/40 46/26/46 10/27/27
# 98 triangles in group

# 98 triangles total

