# Wavefront OBJ exported by MilkShape 3D

mtllib kiwinest.mtl

v 0.263443 1.750000 0.383216
v 12.153965 7.250000 -7.984356
v 1.003300 7.250000 -12.689945
v -9.551861 7.250000 -10.058493
v -14.254191 7.250000 0.290557
v -9.887741 7.250000 11.316645
v 5.093694 7.250000 13.569678
v 14.967436 7.250000 4.933122
v 12.153965 7.250000 -7.984356
v 0.548466 -10.750000 0.423532
v 9.165554 9.500000 8.253090
v 11.865963 9.500000 -2.116804
v 6.775911 9.500000 -9.906952
v -2.411332 9.500000 -11.815962
v -10.447998 9.500000 -6.173182
v -10.429094 9.500000 6.495412
v -0.679738 9.500000 12.979122
v 9.165554 9.500000 8.253090
v 0.501483 -4.500001 0.487134
v 1.966889 9.000000 9.770459
v 8.541723 9.000000 5.068153
v 9.028290 9.000000 -2.098355
v 4.181228 9.000000 -7.907774
v -3.504187 9.000000 -8.701517
v -9.461164 9.000000 -1.263087
v -6.417871 9.000000 7.515858
v 1.966889 9.000000 9.770459
v 0.042865 3.875300 4.769268
v -4.042865 2.624700 -1.769266
v -2.462925 2.744121 -1.888355
v -2.750462 1.754232 -1.573070
v -3.566526 1.344207 -1.006966
v -4.433075 1.754232 -0.521656
v -4.842499 2.744121 -0.401430
v -4.554964 3.734012 -0.716717
v -3.738900 4.144034 -1.282822
v -2.872350 3.734012 -1.768130
v -0.706162 3.056772 -0.713206
v -1.171407 1.455098 -0.203063
v -2.491826 0.791662 0.712914
v -3.893934 1.455098 1.498160
v -4.556396 3.056772 1.692688
v -4.091152 4.658446 1.182545
v -2.770735 5.321881 0.266567
v -1.368628 4.658446 -0.518679
v 0.556396 3.443228 1.307312
v 0.091153 1.841555 1.817455
v -1.229266 1.178119 2.733434
v -2.631373 1.841555 3.518680
v -3.293837 3.443228 3.713205
v -2.828592 5.044902 3.203062
v -1.508174 5.708338 2.287084
v -0.106066 5.044902 1.501840
v 0.842500 3.755879 3.401432
v 0.554963 2.765989 3.716718
v -0.261098 2.355964 4.282823
v -1.127649 2.765989 4.768131
v -1.537074 3.755879 4.888356
v -1.249539 4.745768 4.573068
v -0.433475 5.155793 4.006963
v 0.433075 4.745768 3.521654
v 0.865460 0.752220 -3.159834
v 1.134539 8.247776 -5.340165
v 2.510962 7.483420 -5.125996
v 2.096279 7.262937 -6.096249
v 1.103168 7.200079 -6.501634
v 0.113384 7.331666 -6.104688
v -0.293273 7.580614 -5.137930
v 0.121411 7.801098 -4.167677
v 1.114520 7.863955 -3.762294
v 2.104305 7.732370 -4.159239
v 3.310249 5.579494 -4.577225
v 2.639275 5.222746 -6.147123
v 1.032391 5.121039 -6.803054
v -0.569114 5.333951 -6.160779
v -1.227099 5.736760 -4.596535
v -0.556126 6.093509 -3.026634
v 1.050759 6.195217 -2.370707
v 2.652262 5.982306 -3.012980
v 3.227097 3.263241 -3.903465
v 2.556127 2.906492 -5.473364
v 0.949240 2.804784 -6.129295
v -0.652264 3.017694 -5.487019
v -1.310249 3.420506 -3.922774
v -0.639274 3.777255 -2.352877
v 0.967609 3.878963 -1.696945
v 2.569114 3.666049 -2.339222
v 2.293271 1.419385 -3.362070
v 1.878588 1.198900 -4.332321
v 0.885481 1.136042 -4.737708
v -0.104305 1.267629 -4.340760
v -0.510961 1.516579 -3.374004
v -0.096278 1.737065 -2.403753
v 0.896832 1.799923 -1.998366
v 1.886616 1.668337 -2.395314
v 1.617398 1.555937 -0.993769
v 5.382601 7.444061 2.493766
v 6.056135 6.780205 1.216935
v 5.302570 7.494001 0.926084
v 4.385263 7.849175 1.358485
v 3.841572 7.637679 2.260827
v 3.989982 6.983390 3.104540
v 4.743549 6.269590 3.395384
v 5.660847 5.914419 2.962991
v 6.204542 6.125918 2.060650
v 5.753312 5.245384 -0.238253
v 4.534008 6.400330 -0.708849
v 3.049783 6.975017 -0.009221
v 2.170075 6.632802 1.450803
v 2.410200 5.574148 2.815959
v 3.629506 4.419202 3.286559
v 5.113727 3.844514 2.586928
v 5.993435 4.186729 1.126907
v 4.589798 3.425852 -1.315960
v 3.370497 4.580799 -1.786559
v 1.886273 5.155488 -1.086928
v 1.006563 4.813270 0.373093
v 1.246689 3.754617 1.738252
v 2.465990 2.599671 2.208848
v 3.950218 2.024982 1.509219
v 4.829925 2.367197 0.049195
v 3.010018 2.016608 -1.604541
v 2.256449 2.730402 -1.895387
v 1.339149 3.085579 -1.462997
v 0.795457 2.874079 -0.560651
v 0.943865 2.219796 0.283062
v 1.697433 1.506000 0.573912
v 2.614740 1.150824 0.141513
v 3.158429 1.362325 -0.760826
v -9.556416 22.591169 17.236967
v -9.756418 -7.241168 17.236967
v 15.597456 13.732893 12.622597
v 15.844622 -7.041169 12.622597
v 13.509710 14.292305 10.461201
v 13.683228 -7.041169 10.461197
v -9.556416 22.591169 15.199909
v -9.756418 -7.241168 15.199909
v -10.056414 22.591169 -13.763035
v -10.256418 -7.241168 -13.763035
v 13.277964 14.430958 -9.667172
v 13.433229 -7.041169 -9.667174
v 15.227718 13.908523 -11.971429
v 15.451765 -7.041169 -11.971429
v -10.056414 22.591169 -15.800091
v -10.256418 -7.241168 -15.800091
v -11.019637 24.160299 19.494152
v -10.526004 21.674015 19.494152
v 16.907251 14.209911 13.850000
v 15.664878 12.655765 13.850000
v 16.907251 14.209911 -13.850000
v 15.664878 12.655765 -13.850000
v -11.019637 24.160299 -19.494152
v -10.526004 21.674015 -19.494152
v -10.500000 32.974998 18.568439
v -10.500000 27.475000 18.568439
v 10.500000 32.974998 18.568439
v 10.500000 27.475000 18.568439
v 10.500000 32.974998 -2.431561
v 10.500000 27.475000 -2.431561
v -10.500000 32.974998 -2.431561
v -10.500000 27.475000 -2.431561
# 161 vertices

vt 0.000000 1.000000
vt 0.000000 0.746094
vt 0.142857 0.746094
vt 0.285714 0.746094
vt 0.285714 1.000000
vt 0.428571 0.746094
vt 0.571429 0.746094
vt 0.571429 1.000000
vt 0.714286 0.746094
vt 0.857143 0.746094
vt 0.857143 1.000000
vt 1.000000 0.746094
vt 0.000000 0.000000
vt 0.000000 0.200000
vt 0.125000 0.200000
vt 0.125000 0.800000
vt 0.000000 0.800000
vt 0.125000 0.000000
vt 0.250000 0.200000
vt 0.125000 1.000000
vt 0.250000 0.800000
vt 0.250000 0.000000
vt 0.375000 0.200000
vt 0.250000 1.000000
vt 0.375000 0.800000
vt 0.375000 0.000000
vt 0.500000 0.200000
vt 0.375000 1.000000
vt 0.500000 0.800000
vt 0.500000 0.000000
vt 0.625000 0.200000
vt 0.500000 1.000000
vt 0.625000 0.800000
vt 0.625000 0.000000
vt 0.750000 0.200000
vt 0.625000 1.000000
vt 0.750000 0.800000
vt 0.750000 0.000000
vt 0.875000 0.200000
vt 0.750000 1.000000
vt 0.875000 0.800000
vt 0.875000 0.000000
vt 1.000000 0.200000
vt 0.875000 1.000000
vt 1.000000 0.800000
vt 0.000000 0.400000
vt 0.125000 0.400000
vt 0.250000 0.400000
vt 0.375000 0.400000
vt 0.500000 0.400000
vt 0.625000 0.400000
vt 0.750000 0.400000
vt 0.875000 0.400000
vt 1.000000 0.400000
vt 0.000000 0.600000
vt 0.125000 0.600000
vt 0.250000 0.600000
vt 0.375000 0.600000
vt 0.500000 0.600000
vt 0.625000 0.600000
vt 0.750000 0.600000
vt 0.875000 0.600000
vt 1.000000 0.600000
vt 1.106950 0.373503
vt 1.106950 -0.099618
vt 1.594882 0.373503
vt 1.594882 -0.099618
vt 0.060143 0.853317
vt 0.060143 0.534877
vt 0.912471 0.853317
vt 0.912471 0.534877
vt 1.000000 1.000000
vt 1.000000 0.000000
# 73 texture coordinates

vn 0.011542 0.999578 0.026649
vn -0.158363 0.913289 0.375267
vn -0.030743 0.921934 0.386126
vn 0.226491 0.933291 0.278692
vn 0.354206 0.935116 0.009758
vn 0.210209 0.937727 -0.276549
vn -0.098468 0.930752 -0.352142
vn -0.319025 0.941654 -0.107288
vn -0.371036 0.925095 0.080813
vn -0.088298 0.992305 0.086801
vn -0.862351 0.453787 -0.224563
vn -0.857111 0.496330 0.137905
vn -0.485808 0.511118 0.709047
vn 0.170481 0.527833 0.832063
vn 0.751951 0.534177 0.386295
vn 0.749328 0.526600 -0.401497
vn 0.057360 0.528601 -0.846931
vn -0.381938 0.470164 -0.795656
vn -0.112199 0.993522 0.018051
vn -0.493866 0.528454 -0.690531
vn -0.720553 0.565368 -0.401449
vn -0.793686 0.550771 0.258291
vn -0.391755 0.560502 0.729634
vn 0.308972 0.596092 0.741088
vn 0.788677 0.599627 0.135781
vn 0.549064 0.589754 -0.592215
vn 0.219121 0.536584 -0.814901
vn -0.526030 -0.120936 -0.841823
vn 0.363001 -0.071296 -0.929057
vn 0.117278 -0.595320 -0.794883
vn 0.526030 0.120938 0.841823
vn 0.832326 -0.479996 0.277197
vn 0.977479 0.081336 0.194731
vn -0.254360 -0.877270 -0.407061
vn 0.414779 -0.622372 0.663785
vn -0.765848 -0.595320 -0.243045
vn -0.115724 -0.479996 0.869604
vn -0.994160 -0.071296 -0.081008
vn -0.253475 0.081337 0.963916
vn -0.829072 0.418674 -0.370610
vn -0.214254 0.637489 0.740070
vn -0.375920 0.704815 -0.601598
vn 0.308518 0.813047 0.493732
vn 0.030338 0.418675 -0.907629
vn 0.759094 0.637488 0.131855
vn 0.719500 -0.025264 -0.694033
vn 0.537956 -0.711055 -0.452775
vn -0.028444 -0.998558 -0.045519
vn -0.642776 -0.711055 0.285028
vn -0.939201 -0.025265 0.342437
vn -0.751028 0.653017 0.097601
vn -0.190749 0.932968 -0.305262
vn 0.416952 0.653017 -0.632234
vn 0.939201 0.025265 -0.342438
vn 0.751028 -0.653016 -0.097601
vn 0.190749 -0.932968 0.305262
vn -0.416953 -0.653016 0.632234
vn -0.719499 0.025265 0.694033
vn -0.537955 0.711055 0.452775
vn 0.028444 0.998558 0.045519
vn 0.642776 0.711054 -0.285028
vn 0.034643 0.969923 -0.240936
vn 0.820464 0.554318 -0.139893
vn 0.541721 0.516433 -0.663201
vn -0.034643 -0.969922 0.240938
vn 0.535023 -0.748552 -0.391689
vn 0.701475 -0.692848 0.167018
vn 0.016752 0.369217 -0.929192
vn -0.027316 -0.852262 -0.522402
vn -0.499007 0.552505 -0.667630
vn -0.582216 -0.709828 -0.396445
vn -0.778897 0.609753 -0.146700
vn -0.749156 -0.642569 0.160845
vn -0.480088 0.816139 0.321609
vn -0.591467 -0.412366 0.692908
vn 0.024757 0.789570 0.613160
vn -0.020318 -0.478421 0.877896
vn 0.532691 0.781036 0.325920
vn 0.555585 -0.452123 0.697789
vn 0.984591 0.168672 -0.046164
vn 0.699174 -0.012665 -0.714839
vn 0.001874 -0.068451 -0.997653
vn -0.692271 0.035563 -0.720761
vn -0.970121 0.236423 -0.054484
vn -0.677208 0.416110 0.606829
vn 0.012562 0.470758 0.882173
vn 0.699210 0.368403 0.612687
vn 0.970121 -0.236423 0.054484
vn 0.677209 -0.416110 -0.606828
vn -0.012562 -0.470758 -0.882173
vn -0.699211 -0.368403 -0.612686
vn -0.984591 -0.168672 0.046165
vn -0.699174 0.012665 0.714839
vn -0.001873 0.068451 0.997653
vn 0.692271 -0.035563 0.720760
vn 0.500451 0.727412 0.469489
vn 0.889929 0.377489 -0.255985
vn 0.488049 0.809287 -0.326898
vn -0.500450 -0.727414 -0.469487
vn -0.149445 -0.105548 -0.983120
vn 0.189271 -0.551698 -0.812284
vn -0.078551 0.978384 -0.191297
vn -0.675587 -0.024270 -0.736881
vn -0.278756 0.884695 0.373643
vn -0.972624 -0.024595 -0.231078
vn -0.288475 0.493375 0.820587
vn -0.879549 -0.446588 0.164172
vn 0.206688 0.198256 0.958110
vn -0.456699 -0.775113 0.436608
vn 0.667395 -0.085724 0.739754
vn -0.002990 -0.994595 0.103786
vn 0.952901 0.124872 0.276383
vn 0.388445 -0.858224 -0.335502
vn 0.824619 0.081096 -0.559846
vn 0.288820 0.557034 -0.778650
vn -0.361296 0.798556 -0.481430
vn -0.736392 0.657855 0.157968
vn -0.615607 0.222730 0.755922
vn -0.077477 -0.248312 0.965577
vn 0.563881 -0.483817 0.669297
vn 0.936663 -0.348045 0.039074
vn 0.615608 -0.222730 -0.755922
vn 0.077478 0.248312 -0.965577
vn -0.563880 0.483818 -0.669298
vn -0.936663 0.348045 -0.039074
vn -0.824619 -0.081096 0.559846
vn -0.288820 -0.557035 0.778650
vn 0.361296 -0.798555 0.481430
vn 0.736392 -0.657855 -0.157968
vn 0.180023 -0.001207 0.983662
vn 0.178696 0.000452 0.983904
vn 0.570687 0.005382 0.821150
vn 0.915986 0.010392 0.401076
vn -0.706739 -0.005699 0.707451
vn 0.720350 0.005909 -0.693586
vn 0.707439 0.008466 -0.706723
vn -0.719986 -0.008518 0.693936
vn -0.917302 -0.007085 -0.398129
vn -0.583724 -0.003522 -0.811945
vn -0.199987 -0.000156 -0.979799
vn -0.198168 0.001329 -0.980167
vn -0.999978 0.006704 0.000000
vn 0.338541 0.940952 0.000000
vn 0.329851 0.943468 -0.032665
vn 0.305217 0.952061 -0.020548
vn 0.279640 0.959906 -0.019559
vn 0.007812 -0.999969 0.000000
vn 0.007455 -0.999966 -0.003549
vn 0.004970 -0.999985 -0.002366
vn 0.002366 -0.999994 -0.002366
vn -0.172494 0.001156 0.985010
vn -0.171426 -0.000038 0.985197
vn -0.560907 -0.003052 0.827873
vn -0.906717 -0.006934 0.421682
vn -0.752480 -0.008088 -0.658566
vn 0.763979 0.008130 0.645190
vn 0.751889 0.005395 0.659267
vn -0.764287 -0.005568 -0.644852
vn 0.903497 0.010168 -0.428474
vn 0.545418 0.004755 -0.838151
vn 0.148785 0.000310 -0.988870
vn 0.147311 -0.000988 -0.989090
vn 0.324786 0.945787 0.000000
vn 0.322848 0.946022 0.028487
vn 0.302742 0.952863 0.019983
vn 0.279536 0.959901 0.021225
vn 0.007662 -0.999966 0.003014
vn 0.005108 -0.999985 0.002009
vn 0.002294 -0.999995 0.002009
vn 0.212333 0.042157 0.976288
vn 0.189522 -0.045122 0.980839
vn 0.165165 -0.132032 0.977388
vn 0.781100 -0.624406 0.000000
vn 0.154205 -0.123271 -0.980319
vn 0.190466 -0.039450 -0.980901
vn 0.225138 0.044700 -0.973301
vn -0.980855 -0.194741 0.000000
vn 0.335633 0.941993 0.000000
vn -0.325568 -0.945518 0.000000
vn 0.000000 0.000000 1.000000
vn 1.000000 0.000000 0.000000
vn 0.000000 0.000000 -1.000000
vn -1.000000 0.000000 0.000000
vn 0.000000 1.000000 0.000000
vn 0.000000 -1.000000 0.000000
# 185 normals

g Plane01
usemtl Material01
s 1
f 1/1/1 2/2/2 3/3/3
f 3/3/3 4/4/4 1/5/1
f 1/5/1 4/4/4 5/6/5
f 5/6/5 6/7/6 1/8/1
f 1/8/1 6/7/6 7/9/7
f 7/9/7 8/10/8 1/11/1
f 1/11/1 8/10/8 9/12/9
# 7 triangles in group

g Duplicate01
usemtl Material01
f 10/1/10 11/2/11 12/3/12
f 12/3/12 13/4/13 10/5/10
f 10/5/10 13/4/13 14/6/14
f 14/6/14 15/7/15 10/8/10
f 10/8/10 15/7/15 16/9/16
f 16/9/16 17/10/17 10/11/10
f 10/11/10 17/10/17 18/12/18
# 7 triangles in group

g Duplicate02
usemtl Material01
f 19/1/19 20/2/20 21/3/21
f 21/3/21 22/4/22 19/5/19
f 19/5/19 22/4/22 23/6/23
f 23/6/23 24/7/24 19/8/19
f 19/8/19 24/7/24 25/9/25
f 25/9/25 26/10/26 19/11/19
f 19/11/19 26/10/26 27/12/27
# 7 triangles in group

g Sphere02
usemtl Material02
f 29/13/28 30/14/29 31/15/30
f 28/1/31 55/16/32 54/17/33
f 29/18/28 31/15/30 32/19/34
f 28/20/31 56/21/35 55/16/32
f 29/22/28 32/19/34 33/23/36
f 28/24/31 57/25/37 56/21/35
f 29/26/28 33/23/36 34/27/38
f 28/28/31 58/29/39 57/25/37
f 29/30/28 34/27/38 35/31/40
f 28/32/31 59/33/41 58/29/39
f 29/34/28 35/31/40 36/35/42
f 28/36/31 60/37/43 59/33/41
f 29/38/28 36/35/42 37/39/44
f 28/40/31 61/41/45 60/37/43
f 29/42/28 37/39/44 30/43/29
f 28/44/31 54/45/33 61/41/45
f 30/14/29 38/46/46 39/47/47
f 30/14/29 39/47/47 31/15/30
f 31/15/30 39/47/47 32/19/34
f 39/47/47 40/48/48 32/19/34
f 32/19/34 40/48/48 41/49/49
f 32/19/34 41/49/49 33/23/36
f 33/23/36 41/49/49 34/27/38
f 41/49/49 42/50/50 34/27/38
f 34/27/38 42/50/50 43/51/51
f 34/27/38 43/51/51 35/31/40
f 35/31/40 43/51/51 36/35/42
f 43/51/51 44/52/52 36/35/42
f 36/35/42 44/52/52 45/53/53
f 36/35/42 45/53/53 37/39/44
f 37/39/44 45/53/53 30/43/29
f 45/53/53 38/54/46 30/43/29
f 38/46/46 46/55/54 39/47/47
f 46/55/54 47/56/55 39/47/47
f 39/47/47 47/56/55 48/57/56
f 39/47/47 48/57/56 40/48/48
f 40/48/48 48/57/56 41/49/49
f 48/57/56 49/58/57 41/49/49
f 41/49/49 49/58/57 50/59/58
f 41/49/49 50/59/58 42/50/50
f 42/50/50 50/59/58 43/51/51
f 50/59/58 51/60/59 43/51/51
f 43/51/51 51/60/59 52/61/60
f 43/51/51 52/61/60 44/52/52
f 44/52/52 52/61/60 45/53/53
f 52/61/60 53/62/61 45/53/53
f 45/53/53 53/62/61 46/63/54
f 45/53/53 46/63/54 38/54/46
f 46/55/54 54/17/33 55/16/32
f 46/55/54 55/16/32 47/56/55
f 47/56/55 55/16/32 48/57/56
f 55/16/32 56/21/35 48/57/56
f 48/57/56 56/21/35 57/25/37
f 48/57/56 57/25/37 49/58/57
f 49/58/57 57/25/37 50/59/58
f 57/25/37 58/29/39 50/59/58
f 50/59/58 58/29/39 59/33/41
f 50/59/58 59/33/41 51/60/59
f 51/60/59 59/33/41 52/61/60
f 59/33/41 60/37/43 52/61/60
f 52/61/60 60/37/43 61/41/45
f 52/61/60 61/41/45 53/62/61
f 53/62/61 61/41/45 46/63/54
f 61/41/45 54/45/33 46/63/54
# 64 triangles in group

g Duplicate03
usemtl Material02
f 63/13/62 64/14/63 65/15/64
f 62/1/65 89/16/66 88/17/67
f 63/18/62 65/15/64 66/19/68
f 62/20/65 90/21/69 89/16/66
f 63/22/62 66/19/68 67/23/70
f 62/24/65 91/25/71 90/21/69
f 63/26/62 67/23/70 68/27/72
f 62/28/65 92/29/73 91/25/71
f 63/30/62 68/27/72 69/31/74
f 62/32/65 93/33/75 92/29/73
f 63/34/62 69/31/74 70/35/76
f 62/36/65 94/37/77 93/33/75
f 63/38/62 70/35/76 71/39/78
f 62/40/65 95/41/79 94/37/77
f 63/42/62 71/39/78 64/43/63
f 62/44/65 88/45/67 95/41/79
f 64/14/63 72/46/80 73/47/81
f 64/14/63 73/47/81 65/15/64
f 65/15/64 73/47/81 66/19/68
f 73/47/81 74/48/82 66/19/68
f 66/19/68 74/48/82 75/49/83
f 66/19/68 75/49/83 67/23/70
f 67/23/70 75/49/83 68/27/72
f 75/49/83 76/50/84 68/27/72
f 68/27/72 76/50/84 77/51/85
f 68/27/72 77/51/85 69/31/74
f 69/31/74 77/51/85 70/35/76
f 77/51/85 78/52/86 70/35/76
f 70/35/76 78/52/86 79/53/87
f 70/35/76 79/53/87 71/39/78
f 71/39/78 79/53/87 64/43/63
f 79/53/87 72/54/80 64/43/63
f 72/46/80 80/55/88 73/47/81
f 80/55/88 81/56/89 73/47/81
f 73/47/81 81/56/89 82/57/90
f 73/47/81 82/57/90 74/48/82
f 74/48/82 82/57/90 75/49/83
f 82/57/90 83/58/91 75/49/83
f 75/49/83 83/58/91 84/59/92
f 75/49/83 84/59/92 76/50/84
f 76/50/84 84/59/92 77/51/85
f 84/59/92 85/60/93 77/51/85
f 77/51/85 85/60/93 86/61/94
f 77/51/85 86/61/94 78/52/86
f 78/52/86 86/61/94 79/53/87
f 86/61/94 87/62/95 79/53/87
f 79/53/87 87/62/95 80/63/88
f 79/53/87 80/63/88 72/54/80
f 80/55/88 88/17/67 89/16/66
f 80/55/88 89/16/66 81/56/89
f 81/56/89 89/16/66 82/57/90
f 89/16/66 90/21/69 82/57/90
f 82/57/90 90/21/69 91/25/71
f 82/57/90 91/25/71 83/58/91
f 83/58/91 91/25/71 84/59/92
f 91/25/71 92/29/73 84/59/92
f 84/59/92 92/29/73 93/33/75
f 84/59/92 93/33/75 85/60/93
f 85/60/93 93/33/75 86/61/94
f 93/33/75 94/37/77 86/61/94
f 86/61/94 94/37/77 95/41/79
f 86/61/94 95/41/79 87/62/95
f 87/62/95 95/41/79 80/63/88
f 95/41/79 88/45/67 80/63/88
# 64 triangles in group

g Duplicate04
usemtl Material02
f 97/13/96 98/14/97 99/15/98
f 96/1/99 123/16/100 122/17/101
f 97/18/96 99/15/98 100/19/102
f 96/20/99 124/21/103 123/16/100
f 97/22/96 100/19/102 101/23/104
f 96/24/99 125/25/105 124/21/103
f 97/26/96 101/23/104 102/27/106
f 96/28/99 126/29/107 125/25/105
f 97/30/96 102/27/106 103/31/108
f 96/32/99 127/33/109 126/29/107
f 97/34/96 103/31/108 104/35/110
f 96/36/99 128/37/111 127/33/109
f 97/38/96 104/35/110 105/39/112
f 96/40/99 129/41/113 128/37/111
f 97/42/96 105/39/112 98/43/97
f 96/44/99 122/45/101 129/41/113
f 98/14/97 106/46/114 107/47/115
f 98/14/97 107/47/115 99/15/98
f 99/15/98 107/47/115 100/19/102
f 107/47/115 108/48/116 100/19/102
f 100/19/102 108/48/116 109/49/117
f 100/19/102 109/49/117 101/23/104
f 101/23/104 109/49/117 102/27/106
f 109/49/117 110/50/118 102/27/106
f 102/27/106 110/50/118 111/51/119
f 102/27/106 111/51/119 103/31/108
f 103/31/108 111/51/119 104/35/110
f 111/51/119 112/52/120 104/35/110
f 104/35/110 112/52/120 113/53/121
f 104/35/110 113/53/121 105/39/112
f 105/39/112 113/53/121 98/43/97
f 113/53/121 106/54/114 98/43/97
f 106/46/114 114/55/122 107/47/115
f 114/55/122 115/56/123 107/47/115
f 107/47/115 115/56/123 116/57/124
f 107/47/115 116/57/124 108/48/116
f 108/48/116 116/57/124 109/49/117
f 116/57/124 117/58/125 109/49/117
f 109/49/117 117/58/125 118/59/126
f 109/49/117 118/59/126 110/50/118
f 110/50/118 118/59/126 111/51/119
f 118/59/126 119/60/127 111/51/119
f 111/51/119 119/60/127 120/61/128
f 111/51/119 120/61/128 112/52/120
f 112/52/120 120/61/128 113/53/121
f 120/61/128 121/62/129 113/53/121
f 113/53/121 121/62/129 114/63/122
f 113/53/121 114/63/122 106/54/114
f 114/55/122 122/17/101 123/16/100
f 114/55/122 123/16/100 115/56/123
f 115/56/123 123/16/100 116/57/124
f 123/16/100 124/21/103 116/57/124
f 116/57/124 124/21/103 125/25/105
f 116/57/124 125/25/105 117/58/125
f 117/58/125 125/25/105 118/59/126
f 125/25/105 126/29/107 118/59/126
f 118/59/126 126/29/107 127/33/109
f 118/59/126 127/33/109 119/60/127
f 119/60/127 127/33/109 120/61/128
f 127/33/109 128/37/111 120/61/128
f 120/61/128 128/37/111 129/41/113
f 120/61/128 129/41/113 121/62/129
f 121/62/129 129/41/113 114/63/122
f 129/41/113 122/45/101 114/63/122
# 64 triangles in group

g Box03
usemtl Material01
f 130/64/130 131/65/131 132/66/132
f 131/65/131 133/67/133 132/66/132
s 2
f 132/64/134 133/65/135 134/66/136
f 133/65/135 135/67/137 134/66/136
s 1
f 134/64/138 135/65/139 136/66/140
f 135/65/139 137/67/141 136/66/140
s 2
f 136/64/142 137/65/142 130/66/142
f 137/65/142 131/67/142 130/66/142
s 3
f 136/64/143 130/65/144 134/66/145
f 130/65/144 132/67/146 134/66/145
f 131/64/147 137/65/148 133/66/149
f 137/65/148 135/67/150 133/66/149
# 12 triangles in group

g Duplicate01
usemtl Material01
s 1
f 138/64/151 139/65/152 140/66/153
f 139/65/152 141/67/154 140/66/153
s 2
f 140/64/155 141/65/156 142/66/157
f 141/65/156 143/67/158 142/66/157
s 1
f 142/64/159 143/65/160 144/66/161
f 143/65/160 145/67/162 144/66/161
s 2
f 144/64/142 145/65/142 138/66/142
f 145/65/142 139/67/142 138/66/142
s 3
f 144/64/163 138/65/164 142/66/165
f 138/65/164 140/67/166 142/66/165
f 139/64/147 145/65/167 141/66/168
f 145/65/167 143/67/169 141/66/168
# 12 triangles in group

g Duplicate02
usemtl Material01
s 1
f 140/64/153 141/65/154 134/66/138
f 141/65/154 135/67/139 134/66/138
s 2
f 134/64/136 135/65/137 132/66/134
f 135/65/137 133/67/135 132/66/134
s 1
f 132/64/132 133/65/133 142/66/159
f 133/65/133 143/67/160 142/66/159
s 2
f 142/64/157 143/65/158 140/66/155
f 143/65/158 141/67/156 140/66/155
s 3
f 142/64/165 140/65/166 132/66/146
f 140/65/166 134/67/145 132/66/146
f 141/64/168 143/65/169 135/66/150
f 143/65/169 133/67/149 135/66/150
# 12 triangles in group

g Box04
usemtl Material02
s 1
f 146/68/170 147/69/171 148/70/171
f 147/69/171 149/71/172 148/70/171
s 2
f 148/68/173 149/69/173 150/70/173
f 149/69/173 151/71/173 150/70/173
s 1
f 150/68/174 151/69/175 152/70/175
f 151/69/175 153/71/176 152/70/175
s 2
f 152/68/177 153/69/177 146/70/177
f 153/69/177 147/71/177 146/70/177
s 3
f 152/68/178 146/69/178 150/70/178
f 146/69/178 148/71/178 150/70/178
f 147/68/179 153/69/179 149/70/179
f 153/69/179 151/71/179 149/70/179
# 12 triangles in group

g Box05
s 1
f 154/1/180 155/13/180 156/72/180
f 155/13/180 157/73/180 156/72/180
s 2
f 156/1/181 157/13/181 158/72/181
f 157/13/181 159/73/181 158/72/181
s 1
f 158/1/182 159/13/182 160/72/182
f 159/13/182 161/73/182 160/72/182
s 2
f 160/1/183 161/13/183 154/72/183
f 161/13/183 155/73/183 154/72/183
s 3
f 160/1/184 154/13/184 158/72/184
f 154/13/184 156/73/184 158/72/184
f 155/1/185 161/13/185 157/72/185
f 161/13/185 159/73/185 157/72/185
# 12 triangles in group

# 273 triangles total

