# Wavefront OBJ exported by MilkShape 3D

mtllib lockpick.mtl

v -0.055985 1.071555 -6.049543
v -1.323373 1.036191 -5.290758
v 1.164960 1.106711 -5.337203
v 2.045207 1.122075 -3.258252
v 1.241503 1.108047 -1.325238
v -2.165349 1.021493 -3.250087
v -1.390347 1.035023 -1.223770
v -0.540969 1.025362 -0.570672
v 0.380837 1.033333 -0.570672
v -0.053061 1.071607 -5.043431
v -0.434618 1.051704 -4.624092
v 0.346636 1.092427 -4.547462
v 0.902107 1.102121 -3.214129
v 0.346636 1.092427 -1.936350
v -0.079373 1.071147 -1.508340
v -0.536943 1.049918 -1.881399
v -1.124572 1.039661 -3.267365
v -1.594237 0.521771 -3.267365
v -0.872125 0.534374 -4.957424
v -0.062479 0.561748 -5.543427
v 0.762802 0.589996 -4.933426
v 1.572618 0.604135 -3.246291
v 0.876820 0.591989 -1.605940
v -0.918901 0.533557 -1.548065
v -0.066019 0.519949 -1.045520
v -1.612025 1.540845 -3.267364
v -0.889912 1.553450 -4.957426
v -0.080267 1.580825 -5.543429
v 0.745014 1.609074 -4.933429
v 1.554830 1.623209 -3.246292
v 0.859032 1.611064 -1.605940
v -0.936690 1.552633 -1.548065
v -0.074912 1.591713 -1.019204
v -0.080000 1.066510 6.768495
v 0.230346 0.882920 5.450550
v -0.390345 0.646649 4.132604
v -0.079999 0.556915 2.814658
v 0.446116 1.066510 5.450549
v -0.041518 1.066509 4.132604
v 0.385166 1.066510 2.814659
v 0.230345 1.250100 5.450550
v -0.390344 1.486370 4.132605
v -0.079999 1.576105 2.814657
v 0.014575 1.066510 5.450549
v -0.739172 1.066509 4.132604
v -0.545165 1.066510 2.814658
# 46 vertices

vt 0.272000 0.563091
vt 0.318627 0.564412
vt 0.335273 0.408271
vt 0.373764 0.433048
vt 0.356972 0.564412
vt 0.404948 0.458517
vt 0.466555 0.363640
vt 0.505332 0.399921
vt 0.504242 0.435283
vt 0.676833 0.413389
vt 0.541814 0.363640
vt 0.647059 0.434836
vt 0.703866 0.560167
vt 0.742450 0.561081
vt 0.603773 0.460081
vt 0.649124 0.557709
vt 0.603773 0.659583
vt 0.637751 0.689072
vt 0.670584 0.719923
vt 0.506390 0.705381
vt 0.505621 0.743583
vt 0.506151 0.782253
vt 0.413302 0.668072
vt 0.377583 0.693541
vt 0.340741 0.719009
vt 0.317175 0.564412
vt 0.372311 0.433048
vt 0.504606 0.397910
vt 0.645607 0.434836
vt 0.702414 0.560167
vt 0.636298 0.689072
vt 0.504168 0.743584
vt 0.376130 0.693541
vt 0.504190 -0.044299
vt 0.504190 0.056399
vt 0.542168 0.056399
vt 0.504190 0.157096
vt 0.542168 0.157096
vt 0.504190 0.257794
vt 0.542168 0.257794
vt 0.466213 0.056399
vt 0.466213 0.157096
vt 0.466213 0.257794
# 43 texture coordinates

vn -0.999711 -0.017451 -0.016551
vn -0.093409 -0.993805 0.060222
vn -0.852572 -0.016186 0.522359
vn 0.091690 -0.995462 0.025465
vn 0.994677 0.017362 -0.101572
vn 0.704476 0.023711 -0.709331
vn -0.813659 -0.032981 0.580407
vn 0.163824 -0.984949 -0.055116
vn -0.185586 0.020124 -0.982422
vn 0.793384 0.004301 0.608706
vn 0.927103 -0.025892 0.373910
vn -0.192560 -0.965755 -0.173889
vn 0.079255 -0.988717 0.127115
vn 0.988536 0.017255 -0.149994
vn -0.826707 -0.012916 -0.562484
vn -0.988761 -0.017260 -0.148508
vn -0.873285 -0.015565 0.486961
vn 0.046470 -0.997179 0.058949
vn 0.695672 0.012605 -0.718249
vn -0.019139 -0.001214 0.999816
vn 0.017007 -0.961560 -0.274067
vn -0.010975 -0.000254 -0.999940
vn 0.860684 0.014627 0.508930
vn 0.174893 -0.974961 0.137346
vn -0.764086 -0.013464 -0.644974
vn -0.128036 0.989939 0.060222
vn 0.059644 0.997370 0.041181
vn 0.124380 0.991768 -0.030430
vn -0.239251 0.958859 -0.152801
vn 0.044701 0.990880 0.127115
vn -0.000783 0.998808 0.048797
vn -0.036987 0.961024 -0.273978
vn 0.126265 0.980596 0.149959
vn -0.097336 -0.000001 0.995252
vn 0.008823 -0.988904 0.148294
vn 0.995565 -0.000000 -0.094080
vn 0.010036 -0.993782 0.110892
vn 0.999767 -0.000001 -0.021582
vn -0.004209 -0.999285 0.037584
vn 0.988114 -0.005082 0.153637
vn 0.008822 0.988904 0.148294
vn 0.010036 0.993782 0.110893
vn -0.004201 0.999385 0.034815
vn -0.931322 -0.000000 0.364197
vn -0.981030 0.000000 0.193857
vn -0.996811 -0.009546 -0.079221
# 46 normals

g Duplicate03
usemtl Material01
s 1
f 6/1/1 18/2/2 7/3/3
f 7/3/3 18/2/2 24/4/4
f 24/4/4 18/2/2 17/5/5
f 24/4/4 17/5/5 16/6/6
f 8/7/7 7/3/3 24/4/4
f 8/7/7 24/4/4 25/8/8
f 25/8/8 24/4/4 16/6/6
f 25/8/8 16/6/6 15/9/9
f 5/10/10 9/11/11 25/8/8
f 25/8/8 15/9/9 23/12/12
f 5/10/10 25/8/8 23/12/12
f 5/10/10 23/12/12 22/13/13
f 22/13/13 4/14/14 5/10/10
f 14/15/15 13/16/16 23/12/12
f 23/12/12 13/16/16 22/13/13
f 13/16/16 12/17/17 22/13/13
f 22/13/13 12/17/17 21/18/18
f 4/14/14 22/13/13 21/18/18
f 4/14/14 21/18/18 3/19/19
f 12/17/17 10/20/20 21/18/18
f 21/18/18 10/20/20 20/21/21
f 21/18/18 20/21/21 3/19/19
f 20/21/21 1/22/22 3/19/19
f 10/20/20 11/23/23 19/24/24
f 10/20/20 19/24/24 20/21/21
f 20/21/21 19/24/24 2/25/25
f 20/21/21 2/25/25 1/22/22
f 18/2/2 6/1/1 2/25/25
f 18/2/2 2/25/25 19/24/24
f 17/5/5 18/2/2 11/23/23
f 18/2/2 19/24/24 11/23/23
f 23/12/12 15/9/9 14/15/15
f 7/3/3 26/26/26 6/1/1
f 32/27/27 26/26/26 7/3/3
f 17/5/5 26/26/26 32/27/27
f 16/6/6 17/5/5 32/27/27
f 32/27/27 7/3/3 8/7/7
f 33/28/28 32/27/27 8/7/7
f 16/6/6 32/27/27 33/28/28
f 15/9/9 16/6/6 33/28/28
f 33/28/28 9/11/11 5/10/10
f 31/29/29 15/9/9 33/28/28
f 31/29/29 33/28/28 5/10/10
f 30/30/30 31/29/29 5/10/10
f 5/10/10 4/14/14 30/30/30
f 31/29/29 13/16/16 14/15/15
f 30/30/30 13/16/16 31/29/29
f 30/30/30 12/17/17 13/16/16
f 29/31/31 12/17/17 30/30/30
f 29/31/31 30/30/30 4/14/14
f 3/19/19 29/31/31 4/14/14
f 29/31/31 10/20/20 12/17/17
f 28/32/32 10/20/20 29/31/31
f 3/19/19 28/32/32 29/31/31
f 3/19/19 1/22/22 28/32/32
f 27/33/33 11/23/23 10/20/20
f 28/32/32 27/33/33 10/20/20
f 2/25/25 27/33/33 28/32/32
f 1/22/22 2/25/25 28/32/32
f 2/25/25 6/1/1 26/26/26
f 27/33/33 2/25/25 26/26/26
f 11/23/23 26/26/26 17/5/5
f 11/23/23 27/33/33 26/26/26
f 14/15/15 15/9/9 31/29/29
f 34/34/34 35/35/35 38/36/36
f 35/35/35 36/37/37 38/36/36
f 36/37/37 39/38/38 38/36/36
f 36/37/37 37/39/39 40/40/40
f 36/37/37 40/40/40 39/38/38
f 37/39/39 25/8/8 40/40/40
f 25/8/8 9/11/11 40/40/40
f 38/36/36 41/35/41 34/34/34
f 38/36/36 39/38/38 42/37/42
f 38/36/36 42/37/42 41/35/41
f 39/38/38 40/40/40 42/37/42
f 40/40/40 43/39/43 42/37/42
f 40/40/40 9/11/11 33/28/28
f 40/40/40 33/28/28 43/39/43
f 34/34/34 41/35/41 44/41/44
f 41/35/41 42/37/42 44/41/44
f 42/37/42 45/42/45 44/41/44
f 42/37/42 43/39/43 46/43/46
f 42/37/42 46/43/46 45/42/45
f 43/39/43 33/28/28 46/43/46
f 33/28/28 8/7/7 46/43/46
f 44/41/44 35/35/35 34/34/34
f 44/41/44 45/42/45 36/37/37
f 44/41/44 36/37/37 35/35/35
f 45/42/45 46/43/46 36/37/37
f 46/43/46 37/39/39 36/37/37
f 46/43/46 8/7/7 25/8/8
f 46/43/46 25/8/8 37/39/39
# 92 triangles in group

# 92 triangles total

