# Wavefront OBJ exported by MilkShape 3D

mtllib longbow.mtl

v 12.180453 1.314801 4.211732
v 10.740993 1.400951 1.030743
v 8.751287 1.394147 -0.984856
v 4.060111 1.405995 -2.289605
v -0.013315 1.427745 -3.020266
v -3.981573 1.449494 -2.206894
v -8.449881 1.461342 -0.981533
v -10.994436 1.454539 1.092855
v -12.615342 1.540688 4.196313
v 10.897195 1.124987 0.958686
v 8.907949 0.875101 -1.071930
v 4.222665 0.733986 -2.491132
v -0.046619 1.152666 -3.156663
v -4.168849 0.777486 -2.403593
v -8.591968 0.942296 -1.068844
v -11.162878 1.178576 1.034927
v 11.301377 1.010679 0.826094
v 9.307143 0.660104 -1.258025
v 4.675481 0.455632 -2.964390
v -0.060414 1.038724 -3.485955
v -4.558390 0.499130 -2.889206
v -8.914992 0.727300 -1.306502
v -11.529419 1.064268 0.858894
v 11.716796 1.124987 0.710634
v 9.715036 0.875101 -1.434128
v 5.153305 0.733986 -3.432148
v 0.040211 1.152666 -3.721568
v -4.922001 0.777486 -3.379271
v -9.229737 0.942296 -1.555289
v -11.879379 1.178576 0.667900
v 11.900090 1.400951 0.679941
v 9.892686 1.394147 -1.497077
v 5.376227 1.405995 -3.620403
v 0.073515 1.427745 -3.857965
v -5.046691 1.449494 -3.586712
v -9.351817 1.461342 -1.669473
v -12.007730 1.454539 0.573803
v 11.743890 1.676914 0.752002
v 9.736027 1.913195 -1.410000
v 5.213671 2.078002 -3.418875
v 0.106819 1.702823 -3.721568
v -4.859412 2.121503 -3.390012
v -9.209731 1.980388 -1.582162
v -11.839292 1.730503 0.631738
v 11.339702 1.791220 0.884592
v 9.336827 2.128188 -1.223907
v 4.760857 2.356360 -2.945618
v 0.033785 1.816765 -3.485955
v -4.469871 2.399856 -2.904397
v -8.886707 2.195383 -1.344503
v -11.472734 1.844810 0.807759
v 10.924286 1.676914 1.000051
v 8.928937 1.913195 -1.047805
v 4.283033 2.078002 -2.477860
v 0.019990 1.702823 -3.156663
v -4.106259 2.121503 -2.414333
v -8.571963 1.980388 -1.095715
v -11.122780 1.730503 0.998761
v -12.930079 1.547908 3.619473
v -12.512573 1.382862 3.465018
v 12.657604 1.306555 3.619473
v 12.291859 1.141509 3.465018
v 12.300027 1.458692 3.455747
v 12.657265 1.293646 3.301291
v -12.504401 1.700045 3.455747
v -12.930408 1.534998 3.301291
v 12.235071 1.737907 3.437938
v 12.235071 0.882286 3.437938
v 12.834072 1.007589 3.437938
v 12.235071 1.007589 3.815049
v 11.636070 1.007589 3.437938
v 12.235071 1.007589 3.060828
v 13.082184 1.310097 3.437938
v 12.235071 1.310097 3.971252
v 11.387948 1.310097 3.437938
v 12.235071 1.310097 2.904625
v 12.834072 1.612604 3.437938
v 12.235071 1.612604 3.815049
v 11.636070 1.612604 3.437938
v 12.235071 1.612604 3.060828
v -12.424510 1.973201 3.467451
v -12.424510 1.117581 3.467451
v -11.825508 1.242884 3.467451
v -12.424510 1.242884 3.844562
v -13.023508 1.242884 3.467451
v -12.424510 1.242884 3.090341
v -11.577392 1.545391 3.467451
v -12.424510 1.545391 4.000765
v -13.271622 1.545391 3.467451
v -12.424510 1.545391 2.934137
v -11.825508 1.847899 3.467451
v -12.424510 1.847899 3.844562
v -13.023508 1.847899 3.467451
v -12.424510 1.847899 3.090341
v -1.503075 2.054122 -3.341044
v 1.747788 2.054122 -3.358490
v -1.493489 1.870659 -3.826344
v 1.757372 1.870660 -3.843787
v -1.489519 1.427744 -4.027363
v 1.761343 1.427744 -4.044804
v -1.493489 0.984828 -3.826344
v 1.757373 0.984827 -3.843789
v -1.503075 0.801366 -3.341044
v 1.747788 0.801367 -3.358490
v -1.512660 0.984828 -2.855744
v 1.738202 0.984827 -2.873186
v -1.516629 1.427744 -2.654726
v 1.734232 1.427744 -2.672169
v -1.512660 1.870659 -2.855744
v 1.738202 1.870660 -2.873186
v 1.747788 1.427744 -3.358490
v -1.503075 1.427744 -3.341044
# 112 vertices

vt 0.000000 0.000000
vt 0.000000 0.125000
vt 0.125000 0.125000
vt 0.000000 0.250000
vt 0.125000 0.250000
vt 0.000000 0.375000
vt 0.125000 0.375000
vt 0.000000 0.500000
vt 0.125000 0.500000
vt 0.000000 0.625000
vt 0.125000 0.625000
vt 0.000000 0.750000
vt 0.125000 0.750000
vt 0.000000 0.875000
vt 0.125000 0.875000
vt 0.000000 1.000000
vt 0.250000 0.125000
vt 0.250000 0.000000
vt 0.250000 0.250000
vt 0.250000 0.375000
vt 0.250000 0.500000
vt 0.250000 0.625000
vt 0.250000 0.750000
vt 0.250000 0.875000
vt 0.250000 1.000000
vt 0.375000 0.125000
vt 0.375000 0.250000
vt 0.375000 0.375000
vt 0.375000 0.500000
vt 0.375000 0.625000
vt 0.375000 0.750000
vt 0.375000 0.875000
vt 0.500000 0.125000
vt 0.500000 0.000000
vt 0.500000 0.250000
vt 0.500000 0.375000
vt 0.500000 0.500000
vt 0.500000 0.625000
vt 0.500000 0.750000
vt 0.500000 0.875000
vt 0.500000 1.000000
vt 0.625000 0.125000
vt 0.625000 0.250000
vt 0.625000 0.375000
vt 0.625000 0.500000
vt 0.625000 0.625000
vt 0.625000 0.750000
vt 0.625000 0.875000
vt 0.750000 0.125000
vt 0.750000 0.000000
vt 0.750000 0.250000
vt 0.750000 0.375000
vt 0.750000 0.500000
vt 0.750000 0.625000
vt 0.750000 0.750000
vt 0.750000 0.875000
vt 0.750000 1.000000
vt 0.875000 0.125000
vt 0.875000 0.250000
vt 0.875000 0.375000
vt 0.875000 0.500000
vt 0.875000 0.625000
vt 0.875000 0.750000
vt 0.875000 0.875000
vt 1.000000 0.125000
vt 1.000000 0.000000
vt 1.000000 0.250000
vt 1.000000 0.375000
vt 1.000000 0.500000
vt 1.000000 0.625000
vt 1.000000 0.750000
vt 1.000000 0.875000
vt 1.000000 1.000000
vt -1.667134 -0.693519
vt -1.553051 -1.858279
vt 5.324728 -2.396786
vt 5.224796 -3.561547
vt 5.227025 -1.323130
vt 5.324640 -2.487891
vt -1.550819 0.380139
vt -1.667222 -0.784625
vt 0.125000 0.000000
vt 0.125000 1.000000
vt 0.375000 0.000000
vt 0.375000 1.000000
vt 0.625000 0.000000
vt 0.625000 1.000000
vt 0.875000 0.000000
vt 0.875000 1.000000
# 89 texture coordinates

vn 0.295929 -0.053777 0.953695
vn -0.902645 -0.001469 0.430383
vn -0.615130 -0.685140 0.390127
vn -0.629859 -0.006777 0.776680
vn -0.492846 -0.572272 0.655445
vn -0.211141 -0.003199 0.977450
vn -0.160169 -0.613941 0.772931
vn 0.016085 -0.000911 0.999870
vn 0.007863 -0.620154 0.784441
vn 0.225870 0.000786 0.974157
vn 0.161867 -0.617978 0.769351
vn 0.586400 0.006089 0.809999
vn 0.461202 -0.573153 0.677339
vn 0.868923 -0.009490 0.494857
vn 0.574950 -0.685772 0.446262
vn -0.430450 0.054909 0.900943
vn 0.046571 -0.993300 0.105764
vn 0.059647 -0.994968 0.080509
vn 0.059863 -0.997614 0.034380
vn -0.009117 -0.999812 -0.017129
vn -0.076396 -0.996447 0.035468
vn -0.067690 -0.995665 0.063793
vn -0.079777 -0.990845 0.108910
vn 0.685423 -0.687092 -0.241038
vn 0.603445 -0.580219 -0.546992
vn 0.279637 -0.616313 -0.736180
vn -0.013543 -0.556297 -0.830873
vn -0.288670 -0.616306 -0.732691
vn -0.564460 -0.586363 -0.581001
vn -0.676700 -0.669277 -0.306832
vn 0.953506 -0.008665 -0.301250
vn 0.721671 0.003291 -0.692228
vn 0.343330 -0.000855 -0.939214
vn -0.008787 0.000715 -0.999961
vn -0.340164 0.002790 -0.940362
vn -0.671265 -0.003094 -0.741211
vn -0.923668 0.018765 -0.382735
vn 0.695040 0.680580 -0.231797
vn 0.603665 0.586073 -0.540469
vn 0.287448 0.618520 -0.731304
vn -0.003541 0.557168 -0.830392
vn -0.280008 0.615244 -0.736933
vn -0.565960 0.576686 -0.589170
vn -0.662691 0.680288 -0.313129
vn 0.056314 0.990222 0.127629
vn 0.059030 0.994890 0.081912
vn 0.069376 0.996781 0.040192
vn 0.004322 0.999859 -0.016215
vn -0.065746 0.997347 0.031236
vn -0.068167 0.995767 0.061654
vn -0.062059 0.994065 0.089345
vn -0.613482 0.681006 0.399838
vn -0.499669 0.562222 0.658967
vn -0.158284 0.607902 0.778076
vn 0.014146 0.619761 0.784663
vn 0.163966 0.622999 0.764845
vn 0.453362 0.587075 0.670676
vn 0.583033 0.684682 0.437358
vn -0.009618 -0.690790 0.722991
vn -0.009651 -0.682544 0.730780
vn -0.009684 -0.674211 0.738475
vn 0.543607 -0.033916 -0.838654
vn 0.999848 -0.017438 0.000358
vn 0.543859 0.014950 0.839043
vn 0.009907 0.689753 -0.723977
vn 0.009641 0.681526 -0.731731
vn 0.009373 0.673211 -0.739391
vn -0.481871 0.875531 -0.035302
vn -0.999991 0.004136 0.000541
vn -0.489057 -0.871516 0.035827
vn 0.010372 0.722157 0.691651
vn 0.010331 0.730604 0.682723
vn 0.010288 0.738940 0.673693
vn -0.010636 -0.740501 -0.671971
vn -0.010357 -0.732156 -0.681059
vn -0.010076 -0.723699 -0.690043
vn 0.000000 -1.000000 -0.000000
vn 0.692609 -0.721313 -0.000000
vn 0.000000 -0.787206 0.616690
vn 0.000000 1.000000 -0.000000
vn 0.000000 0.787207 0.616689
vn 0.692609 0.721313 -0.000000
vn -0.692608 -0.721314 -0.000000
vn -0.692608 0.721314 -0.000000
vn 0.000000 -0.787206 -0.616690
vn 0.000000 0.787206 -0.616690
vn 1.000000 -0.000000 -0.000000
vn 0.000001 -0.000000 1.000000
vn -1.000000 -0.000000 -0.000000
vn 0.000001 -0.000000 -1.000000
vn -0.999842 0.000000 -0.017765
vn 0.999842 0.000000 0.017764
vn -0.004757 0.603369 -0.797448
vn -0.005965 0.000001 -0.999982
vn -0.004757 -0.603371 -0.797447
vn 0.004757 -0.603372 0.797446
vn 0.005965 0.000000 0.999982
vn 0.004757 0.603370 0.797447
# 98 normals

g Cylinder02
usemtl Material01
s 1
f 1/1/1 2/2/2 10/3/3
f 2/2/2 3/4/4 10/3/3
f 3/4/4 11/5/5 10/3/3
f 3/4/4 4/6/6 12/7/7
f 3/4/4 12/7/7 11/5/5
f 4/6/6 5/8/8 12/7/7
f 5/8/8 13/9/9 12/7/7
f 5/8/8 6/10/10 14/11/11
f 5/8/8 14/11/11 13/9/9
f 6/10/10 7/12/12 14/11/11
f 7/12/12 15/13/13 14/11/11
f 7/12/12 8/14/14 16/15/15
f 7/12/12 16/15/15 15/13/13
f 8/14/14 9/16/16 16/15/15
f 10/3/3 17/17/17 1/18/1
f 10/3/3 11/5/5 18/19/18
f 10/3/3 18/19/18 17/17/17
f 11/5/5 12/7/7 18/19/18
f 12/7/7 19/20/19 18/19/18
f 12/7/7 13/9/9 20/21/20
f 12/7/7 20/21/20 19/20/19
f 13/9/9 14/11/11 20/21/20
f 14/11/11 21/22/21 20/21/20
f 14/11/11 15/13/13 22/23/22
f 14/11/11 22/23/22 21/22/21
f 15/13/13 16/15/15 22/23/22
f 16/15/15 23/24/23 22/23/22
f 16/15/15 9/25/16 23/24/23
f 1/18/1 17/17/17 24/26/24
f 17/17/17 18/19/18 24/26/24
f 18/19/18 25/27/25 24/26/24
f 18/19/18 19/20/19 26/28/26
f 18/19/18 26/28/26 25/27/25
f 19/20/19 20/21/20 26/28/26
f 20/21/20 27/29/27 26/28/26
f 20/21/20 21/22/21 28/30/28
f 20/21/20 28/30/28 27/29/27
f 21/22/21 22/23/22 28/30/28
f 22/23/22 29/31/29 28/30/28
f 22/23/22 23/24/23 30/32/30
f 22/23/22 30/32/30 29/31/29
f 23/24/23 9/25/16 30/32/30
f 24/26/24 31/33/31 1/34/1
f 24/26/24 25/27/25 32/35/32
f 24/26/24 32/35/32 31/33/31
f 25/27/25 26/28/26 32/35/32
f 26/28/26 33/36/33 32/35/32
f 26/28/26 27/29/27 34/37/34
f 26/28/26 34/37/34 33/36/33
f 27/29/27 28/30/28 34/37/34
f 28/30/28 35/38/35 34/37/34
f 28/30/28 29/31/29 36/39/36
f 28/30/28 36/39/36 35/38/35
f 29/31/29 30/32/30 36/39/36
f 30/32/30 37/40/37 36/39/36
f 30/32/30 9/41/16 37/40/37
f 1/34/1 31/33/31 38/42/38
f 31/33/31 32/35/32 38/42/38
f 32/35/32 39/43/39 38/42/38
f 32/35/32 33/36/33 40/44/40
f 32/35/32 40/44/40 39/43/39
f 33/36/33 34/37/34 40/44/40
f 34/37/34 41/45/41 40/44/40
f 34/37/34 35/38/35 42/46/42
f 34/37/34 42/46/42 41/45/41
f 35/38/35 36/39/36 42/46/42
f 36/39/36 43/47/43 42/46/42
f 36/39/36 37/40/37 44/48/44
f 36/39/36 44/48/44 43/47/43
f 37/40/37 9/41/16 44/48/44
f 38/42/38 45/49/45 1/50/1
f 38/42/38 39/43/39 46/51/46
f 38/42/38 46/51/46 45/49/45
f 39/43/39 40/44/40 46/51/46
f 40/44/40 47/52/47 46/51/46
f 40/44/40 41/45/41 48/53/48
f 40/44/40 48/53/48 47/52/47
f 41/45/41 42/46/42 48/53/48
f 42/46/42 49/54/49 48/53/48
f 42/46/42 43/47/43 50/55/50
f 42/46/42 50/55/50 49/54/49
f 43/47/43 44/48/44 50/55/50
f 44/48/44 51/56/51 50/55/50
f 44/48/44 9/57/16 51/56/51
f 1/50/1 45/49/45 52/58/52
f 45/49/45 46/51/46 52/58/52
f 46/51/46 53/59/53 52/58/52
f 46/51/46 47/52/47 54/60/54
f 46/51/46 54/60/54 53/59/53
f 47/52/47 48/53/48 54/60/54
f 48/53/48 55/61/55 54/60/54
f 48/53/48 49/54/49 56/62/56
f 48/53/48 56/62/56 55/61/55
f 49/54/49 50/55/50 56/62/56
f 50/55/50 57/63/57 56/62/56
f 50/55/50 51/56/51 58/64/58
f 50/55/50 58/64/58 57/63/57
f 51/56/51 9/57/16 58/64/58
f 52/58/52 2/65/2 1/66/1
f 52/58/52 53/59/53 3/67/4
f 52/58/52 3/67/4 2/65/2
f 53/59/53 54/60/54 3/67/4
f 54/60/54 4/68/6 3/67/4
f 54/60/54 55/61/55 5/69/8
f 54/60/54 5/69/8 4/68/6
f 55/61/55 56/62/56 5/69/8
f 56/62/56 6/70/10 5/69/8
f 56/62/56 57/63/57 7/71/12
f 56/62/56 7/71/12 6/70/10
f 57/63/57 58/64/58 7/71/12
f 58/64/58 8/72/14 7/71/12
f 58/64/58 9/73/16 8/72/14
# 112 triangles in group

g Box01
usemtl cord
f 59/74/59 60/75/60 61/76/60
f 60/75/60 62/77/61 61/76/60
s 2
f 61/76/62 62/77/63 63/78/63
f 62/77/63 64/79/64 63/78/63
s 1
f 63/78/65 64/79/66 65/80/66
f 64/79/66 66/81/67 65/80/66
s 2
f 65/80/68 66/81/69 59/74/69
f 66/81/69 60/75/70 59/74/69
s 3
f 65/80/71 59/74/72 63/78/72
f 59/74/72 61/76/73 63/78/72
f 60/75/74 66/81/75 62/77/75
f 66/81/75 64/79/76 62/77/75
# 12 triangles in group

g Sphere01
usemtl metal
s 1
f 68/1/77 69/4/78 70/19/79
f 67/16/80 78/23/81 77/12/82
f 68/18/77 70/19/79 71/35/83
f 67/25/80 79/39/84 78/23/81
f 68/34/77 71/35/83 72/51/85
f 67/41/80 80/55/86 79/39/84
f 68/50/77 72/51/85 69/67/78
f 67/57/80 77/71/82 80/55/86
f 69/4/78 73/8/87 74/21/88
f 69/4/78 74/21/88 70/19/79
f 70/19/79 74/21/88 71/35/83
f 74/21/88 75/37/89 71/35/83
f 71/35/83 75/37/89 76/53/90
f 71/35/83 76/53/90 72/51/85
f 72/51/85 76/53/90 69/67/78
f 76/53/90 73/69/87 69/67/78
f 73/8/87 77/12/82 74/21/88
f 77/12/82 78/23/81 74/21/88
f 74/21/88 78/23/81 79/39/84
f 74/21/88 79/39/84 75/37/89
f 75/37/89 79/39/84 76/53/90
f 79/39/84 80/55/86 76/53/90
f 76/53/90 80/55/86 77/71/82
f 76/53/90 77/71/82 73/69/87
# 24 triangles in group

g Duplicate01
usemtl metal
f 82/1/77 83/4/78 84/19/79
f 81/16/80 92/23/81 91/12/82
f 82/18/77 84/19/79 85/35/83
f 81/25/80 93/39/84 92/23/81
f 82/34/77 85/35/83 86/51/85
f 81/41/80 94/55/86 93/39/84
f 82/50/77 86/51/85 83/67/78
f 81/57/80 91/71/82 94/55/86
f 83/4/78 87/8/87 88/21/88
f 83/4/78 88/21/88 84/19/79
f 84/19/79 88/21/88 85/35/83
f 88/21/88 89/37/89 85/35/83
f 85/35/83 89/37/89 90/53/90
f 85/35/83 90/53/90 86/51/85
f 86/51/85 90/53/90 83/67/78
f 90/53/90 87/69/87 83/67/78
f 87/8/87 91/12/82 88/21/88
f 91/12/82 92/23/81 88/21/88
f 88/21/88 92/23/81 93/39/84
f 88/21/88 93/39/84 89/37/89
f 89/37/89 93/39/84 90/53/90
f 93/39/84 94/55/86 90/53/90
f 90/53/90 94/55/86 91/71/82
f 90/53/90 91/71/82 87/69/87
# 24 triangles in group

g Cylinder03
usemtl metal
s 2
f 95/16/91 97/16/91 112/16/91
f 96/16/92 111/16/92 98/16/92
s 1
f 95/1/80 96/16/80 97/82/93
f 96/16/80 98/83/93 97/82/93
s 2
f 97/16/91 99/16/91 112/16/91
f 98/16/92 111/16/92 100/16/92
s 1
f 97/82/93 98/83/93 100/25/94
f 97/82/93 100/25/94 99/18/94
s 2
f 99/16/91 101/16/91 112/16/91
f 100/16/92 111/16/92 102/16/92
s 1
f 99/18/94 100/25/94 101/84/95
f 100/25/94 102/85/95 101/84/95
s 2
f 101/16/91 103/16/91 112/16/91
f 102/16/92 111/16/92 104/16/92
s 1
f 101/84/95 102/85/95 104/41/77
f 101/84/95 104/41/77 103/34/77
s 2
f 103/16/91 105/16/91 112/16/91
f 104/16/92 111/16/92 106/16/92
s 1
f 103/34/77 104/41/77 105/86/96
f 104/41/77 106/87/96 105/86/96
s 2
f 105/16/91 107/16/91 112/16/91
f 106/16/92 111/16/92 108/16/92
s 1
f 105/86/96 106/87/96 108/57/97
f 105/86/96 108/57/97 107/50/97
s 2
f 107/16/91 109/16/91 112/16/91
f 108/16/92 111/16/92 110/16/92
s 1
f 107/50/97 108/57/97 109/88/98
f 108/57/97 110/89/98 109/88/98
s 2
f 109/16/91 95/16/91 112/16/91
f 110/16/92 111/16/92 96/16/92
s 1
f 109/88/98 110/89/98 96/73/80
f 109/88/98 96/73/80 95/66/80
# 32 triangles in group

# 204 triangles total

