# Wavefront OBJ exported by MilkShape 3D

mtllib map.mtl

v -14.815533 2.320821 -12.442822
v -13.520561 -0.157065 10.509947
v -8.472662 7.923551 -11.267067
v -9.080509 3.746229 11.137860
v -4.310879 4.972621 -13.115141
v -1.764400 3.529128 8.613949
v 1.857188 2.023864 -11.749640
v 4.105431 5.854720 9.971423
v 9.810502 3.106566 8.383652
v 8.884512 4.567573 -14.614161
v 15.661806 3.734097 -13.343836
v 14.145109 0.877898 8.915842
# 12 vertices

vt 0.003125 0.998313
vt 1.000000 1.000000
vt 0.006250 0.795337
vt 1.002083 0.793651
vt 0.008333 0.601736
vt 1.002083 0.587302
vt 0.009375 0.401637
vt 1.002083 0.396825
vt 0.006250 0.174603
vt 1.000000 0.200099
vt 0.003125 0.003125
vt 1.000000 0.000248
# 12 texture coordinates

vn -0.322571 0.945056 0.053069
vn -0.218877 0.972695 0.077177
vn 0.056437 0.994211 0.091431
vn 0.184411 0.980402 0.069318
vn 0.357840 0.933576 0.019666
vn 0.046297 0.996463 -0.070127
vn -0.097066 0.987334 -0.125497
vn -0.092897 0.988805 -0.116769
vn -0.004433 0.998330 -0.057599
vn 0.179297 0.983612 0.018957
vn 0.055771 0.997824 0.035171
vn 0.181098 0.981256 0.065885
# 12 normals

g Triangles
usemtl Material01
s 1
f 1/1/1 2/2/2 3/3/3
f 3/3/3 2/2/2 4/4/4
f 5/5/5 3/3/3 4/4/4
f 4/4/4 6/6/6 5/5/5
f 7/7/7 5/5/5 6/6/6
f 7/7/7 6/6/6 8/8/8
f 10/9/9 7/7/7 8/8/8
f 10/9/9 8/8/8 9/10/10
f 11/11/11 10/9/9 9/10/10
f 11/11/11 9/10/10 12/12/12
# 10 triangles in group

# 10 triangles total

