# Wavefront OBJ exported by MilkShape 3D

mtllib marble04.mtl

v -14.958641 5.295519 15.342107
v -14.958641 -1.454481 15.342107
v 14.958641 5.295519 15.342107
v 14.958641 -1.454481 15.342107
v 14.958641 5.295519 -15.035207
v 14.958641 -1.454481 -15.035207
v -14.958641 5.295519 -15.035207
v -14.958641 -1.454481 -15.035207
v -46.362694 5.295519 16.848570
v -46.362694 -1.454481 16.848570
v -16.518288 5.295519 14.761647
v -16.518288 -1.454481 14.761647
v -18.637302 5.295519 -15.541669
v -18.637302 -1.454481 -15.541669
v -48.481712 5.295519 -13.454746
v -48.481712 -1.454481 -13.454746
v 15.801823 5.295519 13.905893
v 15.801823 -1.454481 13.905893
v 45.496109 5.295519 17.551891
v 45.496109 -1.454481 17.551891
v 49.198181 5.295519 -12.598995
v 49.198181 -1.454481 -12.598995
v 19.503887 5.295519 -16.244995
v 19.503887 -1.454481 -16.244995
v -47.958641 6.346805 46.569679
v -47.958641 -0.386753 47.040535
v -18.041359 6.346805 46.569679
v -18.041359 -0.386753 47.040535
v -18.041359 4.227791 16.266365
v -18.041359 -2.505767 16.737221
v -47.958641 4.227791 16.266365
v -47.958641 -2.505767 16.737221
v -4.782091 -1.527298 43.180069
v -2.949806 -7.917245 42.007942
v 21.064764 3.264040 57.463921
v 22.897055 -3.125906 56.291798
v 33.949814 11.758286 31.298956
v 35.782093 5.368337 30.126829
v 8.102946 6.966943 17.015104
v 9.935235 0.576998 15.842979
v 26.430883 2.494367 -17.931374
v 26.664162 -4.185872 -18.870792
v 55.646378 4.380801 -24.090996
v 55.879654 -2.299439 -25.030415
v 19.974627 6.406749 -47.355698
v 20.207905 -0.273490 -48.295113
v 63.095627 2.865435 -65.638535
v 64.993896 -3.446014 -64.180878
v 37.432865 -7.480547 -77.015228
v 39.331123 -13.791996 -75.557625
v 50.025898 5.243839 -38.319881
v 51.924198 -1.067602 -36.862213
v -13.419453 5.295519 -16.645098
v -13.419453 -1.454481 -16.645098
v 16.479607 5.295519 -17.689196
v 16.479607 -1.454481 -17.689196
v 15.419453 5.295519 -48.048004
v 15.419453 -1.454481 -48.048004
v -14.479607 5.295519 -47.003906
v -14.479607 -1.454481 -47.003906
v -50.971474 2.859982 -22.607084
v -49.921326 -3.770396 -21.901516
v -21.862835 7.965636 -17.952627
v -20.812691 1.335262 -17.247061
v -16.678677 5.611434 -47.791588
v -15.628525 -1.018942 -47.086021
v -45.787300 0.505778 -52.446045
v -44.737160 -6.124599 -51.740479
# 68 vertices

vt 0.000000 1.000000
vt 0.000000 0.000000
vt 1.000000 1.000000
vt 1.000000 0.000000
vt 0.179815 0.000000
vt 0.186312 0.030939
vt 0.993503 0.202861
vt 1.000000 0.233800
vt 0.000000 0.969061
vt 0.006497 1.000000
vt 0.931125 0.716667
vt 1.000000 0.680364
vt 0.068875 0.963699
vt 0.456914 0.036303
vt 0.525791 0.000000
# 15 texture coordinates

vn -0.666667 0.666667 0.333333
vn -0.408248 -0.408248 0.816497
vn 0.408248 0.408248 0.816497
vn 0.666667 -0.666667 0.333333
vn 0.666667 0.666667 -0.333333
vn 0.408248 -0.408248 -0.816497
vn -0.408248 0.408248 -0.816497
vn -0.666667 -0.666667 -0.333333
vn -0.641791 0.666667 0.379026
vn -0.350298 -0.408248 0.842986
vn 0.464210 0.408248 0.786030
vn 0.688295 -0.666667 0.286017
vn 0.641791 0.666667 -0.379026
vn 0.350298 -0.408248 -0.842986
vn -0.464210 0.408248 -0.786030
vn -0.688295 -0.666667 -0.286017
vn -0.702321 0.666667 0.249602
vn -0.504711 -0.408248 0.760658
vn 0.305699 0.408248 0.860164
vn 0.621074 -0.666667 0.412095
vn 0.702321 0.666667 -0.249602
vn 0.504711 -0.408248 -0.760658
vn -0.305699 0.408248 -0.860164
vn -0.621074 -0.666667 -0.412095
vn -0.666667 0.688295 0.286017
vn -0.408248 -0.350298 0.842986
vn 0.408248 0.464210 0.786030
vn 0.666667 -0.641791 0.379026
vn 0.666667 0.641791 -0.379026
vn 0.408248 -0.464210 -0.786030
vn -0.408248 0.350298 -0.842986
vn -0.666667 -0.688295 -0.286017
vn -0.898317 0.431129 0.084580
vn -0.588215 -0.680166 0.437467
vn -0.104446 0.223541 0.969082
vn 0.615540 -0.617545 0.489642
vn 0.536385 0.831082 0.146951
vn 0.809853 -0.092778 -0.579251
vn -0.117192 0.549402 -0.827299
vn -0.253607 -0.644666 -0.721173
vn -0.860164 0.408248 0.305699
vn 0.729054 0.543409 0.416158
vn 0.530888 -0.791406 0.303041
vn -0.159251 0.796809 -0.582867
vn -0.220035 -0.550469 -0.805337
# 45 normals

g Box02
usemtl marble_top
s 1
f 1/1/1 2/2/2 3/3/3
f 2/2/2 4/4/4 3/3/3
f 3/1/3 4/2/4 5/3/5
f 4/2/4 6/4/6 5/3/5
f 5/1/5 6/2/6 7/3/7
f 6/2/6 8/4/8 7/3/7
f 7/1/7 8/2/8 1/3/1
f 8/2/8 2/4/2 1/3/1
f 7/1/7 1/2/1 5/3/5
f 1/2/1 3/4/3 5/3/5
f 2/1/2 8/2/8 4/3/4
f 8/2/8 6/4/6 4/3/4
# 12 triangles in group

g Duplicate01
usemtl marble_top
f 9/1/9 10/2/10 11/3/11
f 10/2/10 12/4/12 11/3/11
f 11/1/11 12/2/12 13/3/13
f 12/2/12 14/4/14 13/3/13
f 13/1/13 14/2/14 15/3/15
f 14/2/14 16/4/16 15/3/15
f 15/1/15 16/2/16 9/3/9
f 16/2/16 10/4/10 9/3/9
f 15/1/15 9/2/9 13/3/13
f 9/2/9 11/4/11 13/3/13
f 10/1/10 16/2/16 12/3/12
f 16/2/16 14/4/14 12/3/12
# 12 triangles in group

g Duplicate02
usemtl marble_top
f 17/1/17 18/2/18 19/3/19
f 18/2/18 20/4/20 19/3/19
f 19/1/19 20/2/20 21/3/21
f 20/2/20 22/4/22 21/3/21
f 21/1/21 22/2/22 23/3/23
f 22/2/22 24/4/24 23/3/23
f 23/1/23 24/2/24 17/3/17
f 24/2/24 18/4/18 17/3/17
f 23/1/23 17/2/17 21/3/21
f 17/2/17 19/4/19 21/3/21
f 18/1/18 24/2/24 20/3/20
f 24/2/24 22/4/22 20/3/20
# 12 triangles in group

g Duplicate04
usemtl marble_top
f 25/1/25 26/2/26 27/3/27
f 26/2/26 28/4/28 27/3/27
f 27/1/27 28/2/28 29/3/29
f 28/2/28 30/4/30 29/3/29
f 29/1/29 30/2/30 31/3/31
f 30/2/30 32/4/32 31/3/31
f 31/1/31 32/2/32 25/3/25
f 32/2/32 26/4/26 25/3/25
f 31/1/31 25/2/25 29/3/29
f 25/2/25 27/4/27 29/3/29
f 26/1/26 32/2/32 28/3/28
f 32/2/32 30/4/30 28/3/28
# 12 triangles in group

g Duplicate05
usemtl marble_top
f 33/1/33 34/2/34 35/3/35
f 34/2/34 36/4/36 35/3/35
f 35/1/35 36/2/36 37/3/37
f 36/2/36 38/4/38 37/3/37
f 37/1/37 38/2/38 39/3/39
f 38/2/38 40/4/40 39/3/39
f 39/1/39 40/2/40 33/3/33
f 40/2/40 34/4/34 33/3/33
f 39/1/39 33/2/33 37/3/37
f 33/2/33 35/4/35 37/3/37
f 34/1/34 40/2/40 36/3/36
f 40/2/40 38/4/38 36/3/36
# 12 triangles in group

g Duplicate06
usemtl marble_top
f 41/5/41 42/6/18 43/7/42
f 42/6/18 44/8/43 43/7/42
f 45/9/44 46/10/45 41/5/41
f 46/10/45 42/6/18 41/5/41
f 42/6/18 46/10/45 44/8/43
f 41/5/41 43/7/42 45/9/44
f 45/9/44 43/7/42 46/10/45
f 43/7/42 44/8/43 46/10/45
# 8 triangles in group

g Duplicate07
usemtl marble_top
f 47/11/41 48/12/18 49/1/42
f 48/12/18 50/13/43 49/1/42
f 51/14/44 52/15/45 47/11/41
f 52/15/45 48/12/18 47/11/41
f 48/12/18 52/15/45 50/13/43
f 47/11/41 49/1/42 51/14/44
f 51/14/44 49/1/42 52/15/45
f 49/1/42 50/13/43 52/15/45
# 8 triangles in group

g Duplicate08
usemtl marble_top
f 53/1/1 54/2/2 55/3/3
f 54/2/2 56/4/4 55/3/3
f 55/1/3 56/2/4 57/3/5
f 56/2/4 58/4/6 57/3/5
f 57/1/5 58/2/6 59/3/7
f 58/2/6 60/4/8 59/3/7
f 59/1/7 60/2/8 53/3/1
f 60/2/8 54/4/2 53/3/1
f 59/1/7 53/2/1 57/3/5
f 53/2/1 55/4/3 57/3/5
f 54/1/2 60/2/8 56/3/4
f 60/2/8 58/4/6 56/3/4
# 12 triangles in group

g Duplicate09
usemtl marble_top
f 61/1/1 62/2/2 63/3/3
f 62/2/2 64/4/4 63/3/3
f 63/1/3 64/2/4 65/3/5
f 64/2/4 66/4/6 65/3/5
f 65/1/5 66/2/6 67/3/7
f 66/2/6 68/4/8 67/3/7
f 67/1/7 68/2/8 61/3/1
f 68/2/8 62/4/2 61/3/1
f 67/1/7 61/2/1 65/3/5
f 61/2/1 63/4/3 65/3/5
f 62/1/2 68/2/8 64/3/4
f 68/2/8 66/4/6 64/3/4
# 12 triangles in group

# 100 triangles total

