# Wavefront OBJ exported by MilkShape 3D

mtllib marble02.mtl

v -10.770646 28.058994 10.300471
v -8.897593 5.447943 8.026073
v -3.638347 28.134964 14.362802
v -2.991919 5.459250 11.267885
v 9.947020 28.059132 10.166754
v 8.120121 5.447535 7.936450
v 3.409388 28.135132 14.315927
v 2.745754 5.458913 11.243495
v 9.954275 28.066940 -10.300584
v 8.152121 5.424102 -8.102253
v 3.342181 28.171143 -13.654417
v 2.756517 5.386894 -10.781366
v -10.763391 28.066799 -10.166855
v -8.865597 5.424510 -8.012619
v -3.705556 28.170971 -13.607533
v -2.981159 5.387230 -10.756978
v -8.865597 5.424510 -8.012619
v -13.959716 28.157566 -3.387848
v -11.462029 5.414052 -2.738988
v -8.897593 5.447943 8.026073
v -13.912580 28.147915 3.622465
v -11.436333 5.433349 2.708948
v 8.120121 5.447535 7.936450
v 13.989618 28.148540 3.447522
v 11.546560 5.432091 2.617921
v 8.152121 5.424102 -8.102253
v 13.942473 28.158192 -3.562788
v 11.520851 5.412795 -2.830013
v -10.770646 50.892342 10.086928
v -10.770646 28.058994 10.300471
v -3.638347 50.884972 14.202647
v -3.638347 28.134964 14.362802
v 9.947020 50.892471 9.953213
v 9.947020 28.059132 10.166754
v 3.409388 50.885139 14.155773
v 3.409388 28.135132 14.315927
v 9.954275 50.900276 -10.514125
v 9.954275 28.066940 -10.300584
v 3.342181 50.921150 -13.814573
v 3.342181 28.171143 -13.654417
v -10.763391 50.900139 -10.380392
v -10.763391 28.066799 -10.166855
v -3.705556 50.920975 -13.767687
v -3.705556 28.170971 -13.607533
v -10.763391 28.066799 -10.166855
v -13.959716 50.907570 -3.548002
v -13.959716 28.157566 -3.387848
v -10.770646 28.058994 10.300471
v -13.912580 50.897919 3.462312
v -13.912580 28.147915 3.622465
v 9.947020 28.059132 10.166754
v 13.989618 50.898544 3.287368
v 13.989618 28.148540 3.447522
v 9.954275 28.066940 -10.300584
v 13.942473 50.908195 -3.722941
v 13.942473 28.158192 -3.562788
v -8.741459 73.781113 7.828323
v -10.770646 50.892342 10.086928
v -3.035601 73.810699 10.910378
v -3.638347 50.884972 14.202647
v 8.043056 73.782333 7.694471
v 9.947020 50.892471 9.953213
v 2.752009 73.811371 10.861598
v 3.409388 50.885139 14.155773
v 7.996857 73.852631 -8.152283
v 9.954275 50.900276 -10.514125
v 2.631342 73.955414 -10.775147
v 3.342181 50.921150 -13.814573
v -8.787651 73.851395 -8.018425
v -10.763391 50.900139 -10.380392
v -3.156270 73.954727 -10.726350
v -3.705556 50.920975 -13.767687
v -10.763391 50.900139 -10.380392
v -11.444208 73.901093 -2.791448
v -13.959716 50.907570 -3.548002
v -10.770646 50.892342 10.086928
v -11.392822 73.862503 2.703691
v -13.912580 50.897919 3.462312
v 9.947020 50.892471 9.953213
v 11.253237 73.865005 2.521631
v 13.989618 50.898544 3.287368
v 9.954275 50.900276 -10.514125
v 11.201845 73.903610 -2.973504
v 13.942473 50.908195 -3.722941
v -14.958641 5.295519 15.342107
v -14.958641 -1.454481 15.342107
v 14.958641 5.295519 15.342107
v 14.958641 -1.454481 15.342107
v 14.958641 5.295519 -15.035207
v 14.958641 -1.454481 -15.035207
v -14.958641 5.295519 -15.035207
v -14.958641 -1.454481 -15.035207
v -14.958641 80.545532 15.342106
v -14.958641 73.795532 15.342106
v 14.958641 80.545532 15.342106
v 14.958641 73.795532 15.342106
v 14.958641 80.545532 -15.035207
v 14.958641 73.795532 -15.035207
v -14.958641 80.545532 -15.035207
v -14.958641 73.795532 -15.035207
# 100 vertices

vt 0.006250 0.768750
vt 0.000000 0.000000
vt 0.339583 0.768750
vt 0.333333 0.000000
vt 0.666667 0.000000
vt 0.672917 0.768750
vt 1.000000 0.000000
vt 1.006250 0.768750
vt -0.006250 0.750000
vt 0.327083 0.750000
vt 0.660417 0.750000
vt 0.993750 0.750000
vt -0.006250 0.743750
vt 0.327083 0.743750
vt 0.660417 0.743750
vt 0.993750 0.743750
vt 0.006250 0.756250
vt 0.339583 0.756250
vt 0.672917 0.756250
vt 1.006250 0.756250
vt -0.006250 0.775000
vt -0.006250 0.162500
vt 0.327083 0.775000
vt 0.327083 0.162500
vt 0.660417 0.162500
vt 0.660417 0.775000
vt 0.993750 0.162500
vt 0.993750 0.775000
vt 0.000000 1.000000
vt 0.000000 0.200000
vt 0.333333 1.000000
vt 0.333333 0.200000
vt 0.666667 0.200000
vt 0.666667 1.000000
vt 1.000000 0.200000
vt 1.000000 1.000000
# 36 texture coordinates

vn -0.516012 0.000000 0.856581
vn -0.355526 0.000000 0.934667
vn -0.177763 0.000000 0.984073
vn 0.378814 0.000000 0.925473
vn 0.189407 0.000000 0.981899
vn 0.547248 0.000000 0.836970
vn 0.478851 0.000000 -0.877896
vn 0.328265 0.000000 -0.944586
vn 0.164132 0.000000 -0.986438
vn -0.311479 0.000000 -0.950253
vn -0.155740 0.000000 -0.987798
vn -0.455670 0.000000 -0.890149
vn -0.896744 0.000000 -0.442549
vn -0.953294 0.000000 -0.302045
vn -0.988530 0.000000 -0.151022
vn -0.960073 0.000000 0.279749
vn -0.990169 0.000000 0.139875
vn -0.911505 0.000000 0.411289
vn 0.850936 0.000000 0.525270
vn 0.932027 0.000000 0.362389
vn 0.983448 0.000000 0.181193
vn 0.930078 0.000000 -0.367361
vn 0.982986 0.000000 -0.183682
vn 0.846777 0.000000 -0.531947
vn 0.000000 0.000000 1.000000
vn 1.000000 0.000000 0.000000
vn 0.000000 0.000000 -1.000000
vn -1.000000 0.000000 0.000000
vn 0.000000 1.000000 0.000000
vn 0.000000 -1.000000 0.000000
# 30 normals

g Box01
usemtl marble_column
s 1
f 1/1/1 2/2/1 3/3/2
f 2/2/1 4/4/3 3/3/2
f 4/4/3 8/5/4 7/6/5
f 4/4/3 7/6/5 3/3/2
f 8/5/4 6/7/6 5/8/6
f 7/6/5 8/5/4 5/8/6
# 6 triangles in group

g Duplicate01
usemtl marble_column
f 9/9/7 10/2/7 11/10/8
f 10/2/7 12/4/9 11/10/8
f 12/4/9 16/5/10 15/11/11
f 12/4/9 15/11/11 11/10/8
f 16/5/10 14/7/12 13/12/12
f 15/11/11 16/5/10 13/12/12
# 6 triangles in group

g Duplicate02
usemtl marble_column
f 13/13/13 17/2/13 18/14/14
f 17/2/13 19/4/15 18/14/14
f 19/4/15 22/5/16 21/15/17
f 19/4/15 21/15/17 18/14/14
f 22/5/16 20/7/18 1/16/18
f 21/15/17 22/5/16 1/16/18
# 6 triangles in group

g Duplicate03
usemtl marble_column
f 5/17/19 23/2/19 24/18/20
f 23/2/19 25/4/21 24/18/20
f 25/4/21 28/5/22 27/19/23
f 25/4/21 27/19/23 24/18/20
f 28/5/22 26/7/24 9/20/24
f 27/19/23 28/5/22 9/20/24
# 6 triangles in group

g Duplicate05
usemtl marble_column
f 29/21/1 30/22/1 31/23/2
f 30/22/1 32/24/3 31/23/2
f 32/24/3 36/25/4 35/26/5
f 32/24/3 35/26/5 31/23/2
f 36/25/4 34/27/6 33/28/6
f 35/26/5 36/25/4 33/28/6
f 37/21/7 38/22/7 39/23/8
f 38/22/7 40/24/9 39/23/8
f 40/24/9 44/25/10 43/26/11
f 40/24/9 43/26/11 39/23/8
f 44/25/10 42/27/12 41/28/12
f 43/26/11 44/25/10 41/28/12
f 41/21/13 45/22/13 46/23/14
f 45/22/13 47/24/15 46/23/14
f 47/24/15 50/25/16 49/26/17
f 47/24/15 49/26/17 46/23/14
f 50/25/16 48/27/18 29/28/18
f 49/26/17 50/25/16 29/28/18
f 33/21/19 51/22/19 52/23/20
f 51/22/19 53/24/21 52/23/20
f 53/24/21 56/25/22 55/26/23
f 53/24/21 55/26/23 52/23/20
f 56/25/22 54/27/24 37/28/24
f 55/26/23 56/25/22 37/28/24
# 24 triangles in group

g Duplicate06
usemtl marble_column
f 57/29/1 58/30/1 59/31/2
f 58/30/1 60/32/3 59/31/2
f 60/32/3 64/33/4 63/34/5
f 60/32/3 63/34/5 59/31/2
f 64/33/4 62/35/6 61/36/6
f 63/34/5 64/33/4 61/36/6
f 65/29/7 66/30/7 67/31/8
f 66/30/7 68/32/9 67/31/8
f 68/32/9 72/33/10 71/34/11
f 68/32/9 71/34/11 67/31/8
f 72/33/10 70/35/12 69/36/12
f 71/34/11 72/33/10 69/36/12
f 69/29/13 73/30/13 74/31/14
f 73/30/13 75/32/15 74/31/14
f 75/32/15 78/33/16 77/34/17
f 75/32/15 77/34/17 74/31/14
f 78/33/16 76/35/18 57/36/18
f 77/34/17 78/33/16 57/36/18
f 61/29/19 79/30/19 80/31/20
f 79/30/19 81/32/21 80/31/20
f 81/32/21 84/33/22 83/34/23
f 81/32/21 83/34/23 80/31/20
f 84/33/22 82/35/24 65/36/24
f 83/34/23 84/33/22 65/36/24
# 24 triangles in group

g Box02
usemtl marble_top
f 85/29/25 86/2/25 87/36/25
f 86/2/25 88/7/25 87/36/25
f 87/29/26 88/2/26 89/36/26
f 88/2/26 90/7/26 89/36/26
f 89/29/27 90/2/27 91/36/27
f 90/2/27 92/7/27 91/36/27
f 91/29/28 92/2/28 85/36/28
f 92/2/28 86/7/28 85/36/28
f 91/29/29 85/2/29 89/36/29
f 85/2/29 87/7/29 89/36/29
f 86/29/30 92/2/30 88/36/30
f 92/2/30 90/7/30 88/36/30
# 12 triangles in group

g Duplicate07
usemtl marble_top
f 93/29/25 94/2/25 95/36/25
f 94/2/25 96/7/25 95/36/25
f 95/29/26 96/2/26 97/36/26
f 96/2/26 98/7/26 97/36/26
f 97/29/27 98/2/27 99/36/27
f 98/2/27 100/7/27 99/36/27
f 99/29/28 100/2/28 93/36/28
f 100/2/28 94/7/28 93/36/28
f 99/29/29 93/2/29 97/36/29
f 93/2/29 95/7/29 97/36/29
f 94/29/30 100/2/30 96/36/30
f 100/2/30 98/7/30 96/36/30
# 12 triangles in group

# 96 triangles total

