# Wavefront OBJ exported by MilkShape 3D

mtllib medikit.mtl

v -9.499366 7.427031 8.213564
v -9.499366 -0.177032 8.213564
v 9.499366 7.427031 8.213564
v 9.499366 -0.177032 8.213564
v 9.499366 7.427031 -5.963564
v 9.499366 -0.177032 -5.963564
v -9.499366 7.427031 -5.963564
v -9.499366 -0.177032 -5.963564
v -11.173323 3.625000 9.627471
v 0.000000 3.625000 9.627471
v 0.000000 7.427031 8.213564
v 0.000000 -0.177032 8.213564
v 11.173323 3.625000 9.627471
v 11.173323 3.625000 1.125000
v 9.499366 7.427031 1.125000
v 9.499366 -0.177032 1.125000
v 11.173323 3.625000 -7.377471
v 0.000000 3.625000 -7.377471
v 0.000000 7.427031 -5.963564
v 0.000000 -0.177032 -5.963564
v -11.173323 3.625000 -7.377471
v -11.173323 3.625000 1.125000
v -9.499366 7.427031 1.125000
v -9.499366 -0.177032 1.125000
v 7.987298 3.697927 -5.739814
v 4.855089 3.588673 -10.898013
v -4.250480 3.479423 -10.943318
v -8.195346 3.370162 -5.579159
v 5.598531 5.153028 -5.725122
v 3.364635 5.043775 -9.395118
v -2.959314 4.934518 -9.320884
v -5.604484 4.825270 -5.566457
v 5.547459 2.328192 -5.676371
v 3.372319 2.218940 -9.311198
v -2.882246 2.109677 -9.324841
v -5.547731 2.000429 -5.612660
v -6.449195 3.398620 -5.586089
v 6.377748 3.726373 -5.713763
# 38 vertices

vt 0.129686 0.159615
vt 0.129686 0.100258
vt 0.497644 0.159615
vt 0.129686 0.040902
vt 0.497644 0.040902
vt 0.497644 0.100258
vt 0.731683 0.718615
vt 0.731683 0.392342
vt 0.850967 0.718615
vt 0.731683 0.066068
vt 0.850967 0.066068
vt 0.850967 0.392342
vt 0.204022 0.986585
vt 0.204022 0.938190
vt 0.516120 0.986585
vt 0.204022 0.889796
vt 0.516120 0.889796
vt 0.516120 0.938190
vt 0.021286 0.835760
vt 0.021286 0.028686
vt 0.982600 0.835760
vt 0.982600 0.028686
vt 0.985788 0.025787
vt 0.984500 0.832860
vt 0.024474 0.024249
vt 0.023183 0.831322
vt 0.865602 0.159615
vt 0.865602 0.100258
vt 0.865602 0.040902
vt 0.970251 0.718615
vt 0.970251 0.392342
vt 0.970251 0.066068
vt 0.828218 0.986585
vt 0.828218 0.938190
vt 0.828218 0.889796
vt 0.597785 0.922552
vt 0.470154 0.847933
vt 0.512698 0.922552
vt 0.470154 0.997172
# 39 texture coordinates

vn 0.000000 0.348560 0.937286
vn 0.000000 0.123019 0.992404
vn 0.000000 -0.348560 0.937286
vn 0.000000 0.000000 1.000000
vn 0.915221 0.402953 0.000000
vn 0.989402 0.145204 0.000000
vn 0.915221 -0.402953 0.000000
vn 1.000000 0.000000 0.000000
vn 0.000000 0.348560 -0.937286
vn 0.000000 0.123019 -0.992404
vn 0.000000 -0.348560 -0.937286
vn 0.000000 0.000000 -1.000000
vn -0.915221 0.402953 0.000000
vn -0.989402 0.145204 0.000000
vn -0.915221 -0.402953 0.000000
vn -1.000000 0.000000 0.000000
vn 0.000000 1.000000 0.000000
vn 0.000000 -1.000000 0.000000
vn 0.000000 -0.123019 0.992404
vn 0.989402 -0.145204 0.000000
vn 0.000000 -0.123019 -0.992404
vn -0.989402 -0.145204 0.000000
vn 0.016480 0.016955 0.999720
vn 0.004233 -0.016269 0.999859
vn 0.765010 -0.462116 -0.448563
vn 0.401284 0.415305 -0.816390
vn -0.396548 0.892677 0.214192
vn -0.227068 0.928457 0.293951
vn -0.365384 -0.447759 -0.816092
vn 0.194125 0.921923 0.335221
vn -0.737529 0.428268 -0.522148
vn 0.370804 0.883269 0.286951
vn -0.212263 -0.912207 0.350460
vn -0.412383 -0.869175 0.272902
vn 0.225290 -0.911584 0.343888
vn 0.404899 -0.876906 0.259022
# 36 normals

g Box01
usemtl Material02
s 1
f 1/1/1 9/2/2 11/3/1
f 2/4/3 12/5/3 10/6/4
s 2
f 3/7/5 13/8/6 15/9/5
f 4/10/7 16/11/7 14/12/8
s 1
f 5/13/9 17/14/10 19/15/9
f 6/16/11 20/17/11 18/18/12
s 2
f 7/7/13 21/8/14 23/9/13
f 8/10/15 24/11/15 22/12/16
s 3
f 7/19/17 1/20/17 5/21/17
f 1/20/17 3/22/17 5/21/17
f 2/23/18 8/24/18 4/25/18
f 8/24/18 6/26/18 4/25/18
s 1
f 3/27/1 11/3/1 10/6/4
f 2/4/3 10/6/4 9/2/2
f 9/2/2 10/6/4 11/3/1
f 3/27/1 10/6/4 13/28/19
f 4/29/3 13/28/19 12/5/3
f 12/5/3 13/28/19 10/6/4
s 2
f 5/30/5 15/9/5 14/12/8
f 4/10/7 14/12/8 13/8/6
f 13/8/6 14/12/8 15/9/5
f 5/30/5 14/12/8 17/31/20
f 6/32/7 17/31/20 16/11/7
f 16/11/7 17/31/20 14/12/8
s 1
f 7/33/9 19/15/9 18/18/12
f 6/16/11 18/18/12 17/14/10
f 17/14/10 18/18/12 19/15/9
f 7/33/9 18/18/12 21/34/21
f 8/35/11 21/34/21 20/17/11
f 20/17/11 21/34/21 18/18/12
s 2
f 1/30/13 23/9/13 22/12/16
f 8/10/15 22/12/16 21/8/14
f 21/8/14 22/12/16 23/9/13
f 1/30/13 22/12/16 9/31/22
f 2/32/15 9/31/22 24/11/15
f 24/11/15 9/31/22 22/12/16
# 36 triangles in group

g Cylinder03
usemtl Material02
f 25/36/23 29/37/23 38/38/23
f 28/36/24 37/38/24 32/37/24
s 1
f 25/36/25 26/36/26 29/37/27
f 26/36/26 30/37/28 29/37/27
f 26/36/26 27/36/29 31/37/30
f 26/36/26 31/37/30 30/37/28
f 27/36/29 28/36/31 31/37/30
f 28/36/31 32/37/32 31/37/30
s 2
f 29/37/23 33/39/23 38/38/23
f 32/37/24 37/38/24 36/39/24
s 1
f 29/37/27 30/37/28 34/39/33
f 29/37/27 34/39/33 33/39/34
f 30/37/28 31/37/30 34/39/33
f 31/37/30 35/39/35 34/39/33
f 31/37/30 32/37/32 36/39/36
f 31/37/30 36/39/36 35/39/35
s 2
f 33/39/23 25/36/23 38/38/23
f 36/39/24 37/38/24 28/36/24
s 1
f 33/39/34 34/39/33 25/36/25
f 34/39/33 26/36/26 25/36/25
f 34/39/33 35/39/35 27/36/29
f 34/39/33 27/36/29 26/36/26
f 35/39/35 36/39/36 27/36/29
f 36/39/36 28/36/31 27/36/29
# 24 triangles in group

# 60 triangles total

