# Wavefront OBJ exported by MilkShape 3D

mtllib metalrock.mtl

v -1.520765 13.500000 4.645637
v 22.754896 -14.375000 -7.636436
v 16.764809 -14.375000 10.220673
v 5.583375 -14.375000 20.728985
v -17.803734 -14.375000 11.159752
v -23.728535 -14.375000 -2.250000
v -16.553734 -14.375000 -13.409750
v -6.624899 -14.375000 -19.187714
v 5.040828 -14.375000 -18.354992
v 20.033865 -5.750000 -6.424955
v 14.357946 -5.750000 9.885752
v 4.941200 -5.750000 19.139561
v -15.697592 -5.750000 9.947592
v -20.750000 -5.750000 -2.250000
v -14.447592 -5.750000 -12.197592
v -5.982729 -5.750000 -17.598288
v 4.449735 -5.750000 -15.997925
v 17.922607 2.875000 -5.484962
v 12.230601 0.625000 9.982744
v 4.075461 0.625000 17.996784
v -14.063424 0.625000 9.313425
v -18.188938 3.625000 -0.750000
v -12.813424 -0.125000 -10.813424
v -5.116991 2.875000 -15.455505
v 4.490068 2.875000 -13.687217
v 10.742217 9.188938 -4.954856
v 6.418591 6.938938 7.515694
v 1.710217 6.938938 12.142599
v -9.598796 9.188938 3.848796
v -13.625000 8.688938 -0.750000
v -8.348796 9.188938 -6.098796
v -4.751747 9.188938 -4.851326
v 4.600263 6.188938 -7.624239
v -2.386163 5.489950 14.543882
v -1.113837 2.010053 9.456112
v 2.790267 3.425196 13.357567
v -1.074520 1.387621 14.311514
v -5.872801 2.614774 12.071025
v -4.973510 5.410771 9.732386
v 0.380562 5.911640 10.527504
v -7.844690 4.049633 9.081446
v -7.155310 7.450371 5.418549
v -5.039960 4.776987 6.975740
v -7.134007 3.998569 4.976162
v -9.733846 5.640570 6.118946
v -9.246586 7.433799 8.824802
v -6.345604 6.900079 9.354329
v -5.844690 8.032126 -3.654182
v -5.155310 2.467878 -8.345831
v -3.039960 5.115955 -4.260568
v -5.134007 2.684910 -2.334435
v -7.733846 3.798734 -5.473994
v -7.246586 6.918158 -9.340475
v -4.345604 7.732244 -8.590544
v 4.655310 8.032126 -6.404182
v 5.344690 2.467878 -11.095831
v 7.460040 5.115955 -7.010568
v 5.365993 2.684910 -5.084435
v 2.766154 3.798734 -8.223994
v 3.253414 6.918158 -12.090475
v 6.154396 7.732244 -11.340544
v 16.368492 4.008831 1.125520
v 11.631499 -1.508826 0.374473
v 15.238079 1.594957 -1.978293
v 17.528387 -1.092281 -0.738037
v 14.942583 -0.542566 2.558632
v 11.054167 2.484413 3.355824
v 11.236787 3.805477 0.551849
v 1.336947 9.061370 5.135623
v 7.163054 7.938639 0.864366
v 5.025058 7.379676 5.690637
v 3.812039 4.186349 4.162159
v 3.204268 6.954343 1.027613
v 4.041661 11.858377 0.618830
v 5.166974 12.121254 3.500740
# 75 vertices

vt -0.353587 1.157110
vt -0.125026 0.755114
vt -0.353587 0.755114
vt -0.125026 1.157110
vt 0.103534 0.755114
vt 0.103534 1.157110
vt 0.332094 0.755114
vt 0.332094 1.157110
vt 0.560655 0.755114
vt 0.560655 1.157110
vt 0.789215 0.755114
vt 0.789215 1.157110
vt 1.017776 0.755114
vt 1.017776 1.157110
vt 1.246336 0.755114
vt 1.246336 1.157110
vt 1.474896 0.755114
vt -0.353587 -0.450873
vt -0.353587 -0.048877
vt -0.125026 -0.450873
vt -0.125026 -0.048877
vt 0.103534 -0.048877
vt 0.103534 -0.450873
vt 0.332094 -0.450873
vt 0.332094 -0.048877
vt 0.560655 -0.048877
vt 0.560655 -0.450873
vt 0.789215 -0.450873
vt 0.789215 -0.048877
vt 1.017776 -0.048877
vt 1.017776 -0.450873
vt 1.246336 -0.450873
vt 1.246336 -0.048877
vt 1.474896 -0.048877
vt 1.474896 -0.450873
vt -0.353587 0.353119
vt -0.125026 0.353119
vt 0.103534 0.353119
vt 0.332094 0.353119
vt 0.560655 0.353119
vt 0.789215 0.353119
vt 1.017776 0.353119
vt 1.246336 0.353119
vt 1.474896 0.353119
vt 0.000000 0.000000
vt 0.000000 0.500000
vt 0.200000 0.500000
vt 0.000000 1.000000
vt 0.200000 0.000000
vt 0.400000 0.500000
vt 0.200000 1.000000
vt 0.400000 0.000000
vt 0.600000 0.500000
vt 0.400000 1.000000
vt 0.600000 0.000000
vt 0.800000 0.500000
vt 0.600000 1.000000
vt 0.800000 0.000000
vt 1.000000 0.500000
vt 0.800000 1.000000
# 60 texture coordinates

vn -0.001092 0.999728 0.023298
vn 0.534001 0.735613 0.416792
vn 0.382505 0.911389 -0.151853
vn 0.068182 0.730087 0.679944
vn -0.473385 0.684104 0.554894
vn -0.622454 0.782620 -0.007529
vn -0.124509 0.783110 -0.609292
vn 0.056095 0.814126 -0.577972
vn -0.021441 0.868123 -0.495885
vn 0.888611 0.325701 -0.322938
vn 0.896095 0.310072 -0.317599
vn 0.818966 0.234648 0.523675
vn 0.815671 0.255993 0.518795
vn 0.168625 0.223672 0.959967
vn 0.176499 0.191079 0.965576
vn -0.680833 0.250789 0.688166
vn -0.690809 0.254093 0.676920
vn -0.947424 0.311249 -0.074239
vn -0.942551 0.325498 -0.075156
vn -0.675893 0.252619 -0.692353
vn -0.673095 0.309062 -0.671881
vn -0.206463 0.259570 -0.943396
vn -0.221200 0.192644 -0.956012
vn 0.312232 0.250398 -0.916413
vn 0.333398 0.256104 -0.907335
vn 0.802594 0.530646 -0.272501
vn 0.719422 0.483097 0.499048
vn 0.125170 0.473978 0.871595
vn -0.620075 0.421974 0.661396
vn -0.873886 0.482227 -0.061491
vn -0.561051 0.466044 -0.684124
vn -0.240786 0.592520 -0.768728
vn 0.247011 0.557942 -0.792267
vn 0.177847 -0.630234 -0.755762
vn 0.955845 -0.068380 0.285804
vn 0.009140 -0.786717 0.617246
vn -0.183410 0.630632 0.754098
vn -0.849612 -0.496853 0.176908
vn -0.541262 0.596354 -0.592788
vn 0.447645 0.754039 -0.480665
vn 0.212525 0.760493 -0.613582
vn 0.963681 -0.265424 -0.029492
vn 0.029050 -0.677207 -0.735219
vn -0.211348 -0.759932 0.614683
vn -0.912078 -0.125433 -0.390359
vn -0.646365 0.594333 0.478519
vn 0.562423 0.473509 0.677842
vn 0.260677 -0.763526 -0.590825
vn 0.972575 0.044314 0.228330
vn 0.021397 -0.617896 0.785969
vn -0.247093 0.778284 0.577252
vn -0.941019 -0.314803 0.124026
vn -0.719630 0.332634 -0.609498
vn 0.665420 0.547498 -0.507407
vn -0.629710 -0.727068 -0.273563
vn 0.038559 0.216989 -0.975412
vn 0.767446 -0.578819 -0.275673
vn 0.613793 0.743467 0.265544
vn 0.301302 -0.466315 0.831726
vn -0.460988 0.184719 0.867968
vn -0.625053 0.635794 -0.452852
vn 0.882101 -0.180831 -0.434969
vn 0.505780 -0.069894 0.859827
vn -0.097717 -0.978989 0.178974
vn -0.873134 0.201482 0.443894
vn -0.538173 -0.363035 -0.760641
vn -0.321108 0.615462 -0.719789
vn 0.442965 0.776190 0.448677
# 68 normals

g Sphere02
usemtl stone
s 1
f 1/1/1 27/2/2 26/3/3
f 1/4/1 28/5/4 27/2/2
f 1/6/1 29/7/5 28/5/4
f 1/8/1 30/9/6 29/7/5
f 1/10/1 31/11/7 30/9/6
f 1/12/1 32/13/8 31/11/7
f 1/14/1 33/15/9 32/13/8
f 1/16/1 26/17/3 33/15/9
f 2/18/10 10/19/11 3/20/12
f 10/19/11 11/21/13 3/20/12
f 3/20/12 11/21/13 12/22/14
f 3/20/12 12/22/14 4/23/15
f 4/23/15 12/22/14 5/24/16
f 12/22/14 13/25/17 5/24/16
f 5/24/16 13/25/17 14/26/18
f 5/24/16 14/26/18 6/27/19
f 6/27/19 14/26/18 7/28/20
f 14/26/18 15/29/21 7/28/20
f 7/28/20 15/29/21 16/30/22
f 7/28/20 16/30/22 8/31/23
f 8/31/23 16/30/22 9/32/24
f 16/30/22 17/33/25 9/32/24
f 9/32/24 17/33/25 10/34/11
f 9/32/24 10/34/11 2/35/10
f 10/19/11 18/36/26 19/37/27
f 10/19/11 19/37/27 11/21/13
f 11/21/13 19/37/27 12/22/14
f 19/37/27 20/38/28 12/22/14
f 12/22/14 20/38/28 21/39/29
f 12/22/14 21/39/29 13/25/17
f 13/25/17 21/39/29 14/26/18
f 21/39/29 22/40/30 14/26/18
f 14/26/18 22/40/30 23/41/31
f 14/26/18 23/41/31 15/29/21
f 15/29/21 23/41/31 16/30/22
f 23/41/31 24/42/32 16/30/22
f 16/30/22 24/42/32 25/43/33
f 16/30/22 25/43/33 17/33/25
f 17/33/25 25/43/33 10/34/11
f 25/43/33 18/44/26 10/34/11
f 18/36/26 26/3/3 19/37/27
f 26/3/3 27/2/2 19/37/27
f 19/37/27 27/2/2 28/5/4
f 19/37/27 28/5/4 20/38/28
f 20/38/28 28/5/4 21/39/29
f 28/5/4 29/7/5 21/39/29
f 21/39/29 29/7/5 30/9/6
f 21/39/29 30/9/6 22/40/30
f 22/40/30 30/9/6 23/41/31
f 30/9/6 31/11/7 23/41/31
f 23/41/31 31/11/7 32/13/8
f 23/41/31 32/13/8 24/42/32
f 24/42/32 32/13/8 25/43/33
f 32/13/8 33/15/9 25/43/33
f 25/43/33 33/15/9 26/17/3
f 25/43/33 26/17/3 18/44/26
# 56 triangles in group

g Sphere04
usemtl Material02
f 35/45/34 36/46/35 37/47/36
f 34/48/37 37/47/36 36/46/35
f 35/49/34 37/47/36 38/50/38
f 34/51/37 38/50/38 37/47/36
f 35/52/34 38/50/38 39/53/39
f 34/54/37 39/53/39 38/50/38
f 35/55/34 39/53/39 40/56/40
f 34/57/37 40/56/40 39/53/39
f 35/58/34 40/56/40 36/59/35
f 34/60/37 36/59/35 40/56/40
# 10 triangles in group

g Duplicate01
usemtl Material02
f 42/45/41 43/46/42 44/47/43
f 41/48/44 44/47/43 43/46/42
f 42/49/41 44/47/43 45/50/45
f 41/51/44 45/50/45 44/47/43
f 42/52/41 45/50/45 46/53/46
f 41/54/44 46/53/46 45/50/45
f 42/55/41 46/53/46 47/56/47
f 41/57/44 47/56/47 46/53/46
f 42/58/41 47/56/47 43/59/42
f 41/60/44 43/59/42 47/56/47
# 10 triangles in group

g Duplicate02
usemtl Material02
f 49/45/48 50/46/49 51/47/50
f 48/48/51 51/47/50 50/46/49
f 49/49/48 51/47/50 52/50/52
f 48/51/51 52/50/52 51/47/50
f 49/52/48 52/50/52 53/53/53
f 48/54/51 53/53/53 52/50/52
f 49/55/48 53/53/53 54/56/54
f 48/57/51 54/56/54 53/53/53
f 49/58/48 54/56/54 50/59/49
f 48/60/51 50/59/49 54/56/54
# 10 triangles in group

g Duplicate03
usemtl Material02
f 56/45/48 57/46/49 58/47/50
f 55/48/51 58/47/50 57/46/49
f 56/49/48 58/47/50 59/50/52
f 55/51/51 59/50/52 58/47/50
f 56/52/48 59/50/52 60/53/53
f 55/54/51 60/53/53 59/50/52
f 56/55/48 60/53/53 61/56/54
f 55/57/51 61/56/54 60/53/53
f 56/58/48 61/56/54 57/59/49
f 55/60/51 57/59/49 61/56/54
# 10 triangles in group

g Duplicate04
usemtl Material02
f 63/45/55 64/46/56 65/47/57
f 62/48/58 65/47/57 64/46/56
f 63/49/55 65/47/57 66/50/59
f 62/51/58 66/50/59 65/47/57
f 63/52/55 66/50/59 67/53/60
f 62/54/58 67/53/60 66/50/59
f 63/55/55 67/53/60 68/56/61
f 62/57/58 68/56/61 67/53/60
f 63/58/55 68/56/61 64/59/56
f 62/60/58 64/59/56 68/56/61
# 10 triangles in group

g Duplicate05
usemtl Material02
f 70/45/62 71/46/63 72/47/64
f 69/48/65 72/47/64 71/46/63
f 70/49/62 72/47/64 73/50/66
f 69/51/65 73/50/66 72/47/64
f 70/52/62 73/50/66 74/53/67
f 69/54/65 74/53/67 73/50/66
f 70/55/62 74/53/67 75/56/68
f 69/57/65 75/56/68 74/53/67
f 70/58/62 75/56/68 71/59/63
f 69/60/65 71/59/63 75/56/68
# 10 triangles in group

# 116 triangles total

