# Wavefront OBJ exported by MilkShape 3D

v 0.000000 -9.944445 -1.222222
v 0.000000 -13.444445 -5.388888
v 0.000000 -15.027780 -10.972225
v 0.000000 -12.370121 -19.954353
v 0.000000 -9.025036 -21.163361
v 0.000000 -9.829571 -18.741684
v 0.000000 -8.777779 -13.472225
v 0.000000 -6.194445 -7.888889
v 0.000000 -5.194445 -1.722222
v -0.846154 -3.394249 1.370577
v 0.000000 -2.472437 1.322266
v 0.000000 0.903950 3.648748
v 0.000000 -0.805463 9.245884
v 0.000000 -6.507270 5.539213
v 0.000000 -5.522785 9.993795
v 0.000000 -11.855811 8.573292
v 0.000000 -11.514567 10.307812
v -0.000000 -20.055695 10.325500
v -0.000000 -20.199863 11.307106
v 0.000000 -25.981621 11.316339
v -0.442308 -20.145445 10.979740
v -0.750000 -11.466239 9.637695
v -2.461538 -5.864311 8.008949
v -3.076923 -2.018787 8.141203
v -2.461538 -0.555024 4.225896
v 0.000000 -5.070385 4.295640
v -3.076923 -2.999264 5.355367
v -2.500000 -7.111112 -1.222222
v -3.250000 -9.611112 -7.055555
v -3.250000 -11.527780 -12.555559
v -2.500000 -11.858606 -19.168394
v 0.000000 -4.966326 1.185933
# 32 vertices

vt 0.000000 1.000000
# 1 texture coordinates

vn -0.789208 0.333017 -0.515995
vn -0.342040 -0.687623 -0.640456
vn -0.914178 -0.147981 -0.377332
vn -0.648309 0.761367 -0.004100
vn -0.616329 -0.785893 -0.050101
vn -0.996285 0.076345 -0.039855
vn -0.687727 0.689419 -0.227451
vn -0.780589 -0.566797 0.263481
vn -0.996174 0.067710 0.055244
vn -0.697887 0.687463 -0.200868
vn -0.630813 -0.480661 0.609130
vn -0.940613 0.322989 0.104522
vn -0.629827 0.669653 -0.393552
vn -0.980838 -0.068942 -0.182220
vn -0.550816 0.507977 -0.662239
vn -0.715742 -0.603259 -0.351842
vn -0.908746 -0.298859 -0.291315
vn -0.775496 0.472967 -0.418220
vn -0.518209 0.851283 -0.082322
vn -0.805388 0.375405 0.458716
vn -0.467731 0.574895 0.671360
vn -0.742589 -0.383372 -0.549170
vn -0.935350 -0.328512 0.131153
vn -0.550391 0.020415 0.834657
vn -0.828236 -0.170483 -0.533817
vn -0.979337 -0.131425 0.153709
vn -0.652786 0.046675 0.756103
vn -0.816660 -0.107979 -0.566927
vn -0.997932 -0.061474 -0.018771
vn -0.614194 0.063776 0.786573
vn -0.984096 -0.065048 0.165302
vn -0.778908 -0.468240 0.417198
# 32 normals

g Triangles
s 1
f 5/1/1 4/1/2 31/1/3
f 6/1/4 5/1/1 31/1/3
f 31/1/3 4/1/2 3/1/5
f 31/1/3 3/1/5 30/1/6
f 6/1/4 31/1/3 30/1/6
f 6/1/4 30/1/6 7/1/7
f 30/1/6 3/1/5 2/1/8
f 30/1/6 2/1/8 29/1/9
f 7/1/7 30/1/6 29/1/9
f 7/1/7 29/1/9 8/1/10
f 29/1/9 2/1/8 1/1/11
f 29/1/9 1/1/11 28/1/12
f 8/1/10 29/1/9 28/1/12
f 8/1/10 28/1/12 9/1/13
f 28/1/12 1/1/11 10/1/14
f 9/1/13 28/1/12 10/1/14
f 9/1/13 10/1/14 11/1/15
f 10/1/14 26/1/16 27/1/17
f 11/1/15 25/1/18 12/1/19
f 12/1/19 25/1/18 24/1/20
f 12/1/19 24/1/20 13/1/21
f 25/1/18 27/1/17 24/1/20
f 26/1/16 14/1/22 23/1/23
f 26/1/16 23/1/23 27/1/17
f 24/1/20 15/1/24 13/1/21
f 14/1/22 16/1/25 22/1/26
f 14/1/22 22/1/26 23/1/23
f 23/1/23 22/1/26 17/1/27
f 17/1/27 15/1/24 23/1/23
f 16/1/25 18/1/28 21/1/29
f 16/1/25 21/1/29 22/1/26
f 22/1/26 21/1/29 19/1/30
f 22/1/26 19/1/30 17/1/27
f 18/1/28 20/1/31 21/1/29
f 21/1/29 20/1/31 19/1/30
f 32/1/32 10/1/14 1/1/11
f 10/1/14 32/1/32 26/1/16
f 11/1/15 10/1/14 25/1/18
f 25/1/18 10/1/14 27/1/17
f 23/1/23 24/1/20 27/1/17
f 23/1/23 15/1/24 24/1/20
# 41 triangles in group

# 41 triangles total

