# Wavefront OBJ exported by MilkShape 3D

mtllib moss.mtl

v 0.000000 4.750000 0.000000
v 17.176243 -0.614746 0.000000
v 5.307752 -0.614746 17.356556
v -13.895876 -0.614746 10.726940
v -13.895876 -0.614746 -10.726941
v 5.307752 -0.614746 -17.356556
v -2.124657 4.547629 11.283737
v 7.074237 -1.817663 13.068236
v -2.486317 -4.792005 18.087997
v -10.511168 -3.181353 10.746425
v -5.910239 0.788429 1.189321
v 4.958139 1.631234 2.624283
v 8.680435 5.100157 -6.533955
v 12.874500 -4.013137 -11.795016
v 16.031694 -2.071860 -1.225604
v 7.072112 1.371728 4.137108
v -1.622415 1.558706 -3.117972
v 1.963663 -1.769325 -12.964565
v -9.333488 4.850157 -4.366760
v -13.873684 -4.263137 -9.332203
v -2.940500 -2.321860 -10.797101
v 0.954599 1.121728 -1.108915
v -7.571283 1.308706 6.343623
v -16.735662 -2.019325 1.261350
# 24 vertices

vt 0.447214 0.500000
vt 0.618034 0.000000
vt 1.000000 0.500000
vt 0.000000 0.190983
vt 0.000000 0.809017
vt 0.618034 1.000000
# 6 texture coordinates

vn -0.000002 1.000000 0.000000
vn 0.092122 0.958941 0.268228
vn 0.298132 0.954525 0.000000
vn -0.241190 0.956214 0.165778
vn -0.241190 0.956214 -0.165778
vn 0.092122 0.958941 -0.268228
vn -0.116503 0.935832 0.332635
vn -0.152128 0.585827 0.796030
vn 0.418959 0.749260 0.512917
vn -0.645410 0.675532 0.356514
vn -0.380328 0.904251 -0.194117
vn 0.277028 0.956112 -0.095418
vn 0.220125 0.945632 -0.239428
vn 0.694100 0.719790 0.011272
vn 0.523030 0.593722 -0.611501
vn 0.155619 0.924997 0.346645
vn -0.345315 0.935770 -0.071356
vn -0.116890 0.737231 -0.665453
vn -0.202045 0.945632 -0.254870
vn 0.119714 0.719790 -0.683792
vn -0.522152 0.593723 -0.612251
vn 0.366721 0.924997 -0.099475
vn -0.124496 0.935770 0.329902
vn -0.675546 0.737231 0.011351
# 24 normals

g Sphere01
usemtl Material01
s 1
f 1/1/1 3/2/2 2/3/3
f 1/1/1 4/4/4 3/2/2
f 1/1/1 5/5/5 4/4/4
f 1/1/1 6/6/6 5/5/5
f 1/1/1 2/3/3 6/6/6
# 5 triangles in group

g Duplicate01
usemtl Material01
f 7/1/7 9/2/8 8/3/9
f 7/1/7 10/4/10 9/2/8
f 7/1/7 11/5/11 10/4/10
f 7/1/7 12/6/12 11/5/11
f 7/1/7 8/3/9 12/6/12
# 5 triangles in group

g Duplicate02
usemtl Material01
f 13/1/13 15/2/14 14/3/15
f 13/1/13 16/4/16 15/2/14
f 13/1/13 17/5/17 16/4/16
f 13/1/13 18/6/18 17/5/17
f 13/1/13 14/3/15 18/6/18
# 5 triangles in group

g Duplicate03
usemtl Material01
f 19/1/19 21/2/20 20/3/21
f 19/1/19 22/4/22 21/2/20
f 19/1/19 23/5/23 22/4/22
f 19/1/19 24/6/24 23/5/23
f 19/1/19 20/3/21 24/6/24
# 5 triangles in group

# 20 triangles total

