# Wavefront OBJ exported by MilkShape 3D

mtllib palm02.mtl

v 0.027878 52.933990 5.804673
v -0.037483 51.775326 9.370582
v -10.995169 52.035358 12.803472
v -10.783851 56.915604 7.688968
v -10.799097 55.511368 2.105747
v -20.649633 52.036392 13.021213
v -21.514116 56.762550 8.231295
v -21.202391 55.478439 2.298727
v -28.453451 52.722744 9.551968
v -28.368479 54.228992 4.916278
v -31.215094 52.124866 6.077908
v 3.668034 -8.186817 0.508335
v 2.407577 13.262486 0.508335
v 1.699810 38.954937 3.882674
v 0.649894 52.396297 7.507359
v -0.300000 53.924885 7.892576
v 2.593692 -8.186817 3.163080
v 1.702413 13.022255 2.322499
v 1.201947 38.387325 4.847897
v 0.365721 52.217083 8.083699
v 0.000000 -8.186817 4.262711
v 0.000000 12.922745 3.073951
v 0.000000 38.152206 5.247702
v -0.320333 52.142857 8.322427
v -2.593692 -8.186817 3.163080
v -1.702413 13.022255 2.322499
v -1.201947 38.387325 4.847897
v -1.006384 52.217083 8.083699
v -3.668034 -8.186817 0.508335
v -2.407577 13.262486 0.508335
v -1.699810 38.954937 3.882674
v -1.290555 52.396297 7.507359
v -2.593692 -8.186817 -2.146407
v -1.702413 13.502716 -1.305827
v -1.201947 39.522560 2.917454
v -1.006384 52.575512 6.931019
v -0.000000 -8.186817 -3.246037
v -0.000000 13.602222 -2.057280
v 0.000000 39.757683 2.517649
v -0.320333 52.649746 6.692292
v 2.593692 -8.186817 -2.146407
v 1.702413 13.502716 -1.305827
v 1.201947 39.522560 2.917454
v 0.365721 52.575512 6.931019
v -0.164112 52.282188 9.493835
v -0.334033 54.035370 5.982873
v 9.734715 54.382813 1.919758
v 10.575769 55.200371 8.908640
v 10.244480 49.123322 12.452650
v 18.537037 52.126091 0.410231
v 20.327221 52.783112 6.901899
v 19.721806 46.622070 10.838310
v 25.777439 47.980934 2.469609
v 25.998333 45.701797 7.033860
v 28.140453 43.787552 4.459167
v 1.567322 53.195400 7.834366
v -1.802353 53.180653 9.479834
v -9.620565 51.990299 1.150242
v -4.161958 55.020329 -2.172759
v 0.488463 52.034523 -3.786175
v -14.082464 49.885052 -7.151298
v -9.412498 52.628006 -11.237237
v -4.288974 49.721878 -12.735740
v -14.362885 47.721024 -15.436504
v -9.982314 47.740158 -17.575615
v -12.637519 45.499733 -18.921070
v -1.876379 53.658978 9.247753
v 1.446874 54.188263 7.221607
v 9.534056 55.551819 14.345345
v 3.908871 58.602959 17.389713
v -0.435691 53.964031 20.423771
v 14.352447 54.986118 22.175774
v 9.555537 57.952293 25.913380
v 4.729838 53.292030 28.882366
v 15.006466 53.393696 30.594994
v 10.686241 52.705643 33.228981
v 13.555723 50.638378 34.769943
v 0.749342 52.212635 8.874913
v -2.124437 53.749863 7.019972
v 2.305071 59.606712 -1.811811
v 7.560999 59.591251 2.920505
v 10.926424 54.995014 3.753002
v 8.074087 61.885674 -9.457776
v 13.706227 63.211697 -5.115967
v 17.159103 58.368633 -3.865364
v 15.528940 62.045670 -13.677477
v 19.264853 60.356014 -11.040516
v 19.414021 59.817596 -14.971684
v -1.942531 54.220425 7.203318
v 1.260135 53.204144 9.237901
v -1.958373 47.637295 17.993519
v -7.027512 52.481873 16.966713
v -11.566356 50.686199 11.889823
v -7.152010 42.327278 23.441677
v -12.517563 46.439137 23.155907
v -17.192659 44.926682 17.708305
v -14.577338 38.522194 25.499031
v -18.740805 39.843384 22.854084
v -18.981421 36.171890 24.013508
v -1.405827 52.476887 9.059538
v 0.435022 52.880695 6.697405
v 9.564743 57.786983 9.501457
v 6.397772 60.139759 13.807656
v 4.042177 54.575542 16.587868
v 15.979856 57.937634 13.536360
v 13.681247 61.256912 18.074203
v 10.922286 57.688007 20.950588
v 19.521837 55.966351 19.082333
v 17.094290 55.821545 22.155521
v 19.737635 53.389683 22.086597
v 0.509159 53.379887 6.833590
v -1.225755 53.517056 9.443915
v -10.112692 57.323833 7.564029
v -7.603407 61.005959 3.448992
v -4.907995 54.912411 -0.266937
v -17.011215 57.449299 4.010100
v -15.365313 60.867393 -0.274938
v -11.868114 54.833763 -4.152803
v -20.509464 55.182674 -1.516004
v -18.254097 55.004391 -4.909431
v -20.654043 52.404488 -4.928605
v -1.393860 52.942337 6.520287
v 1.572419 52.977055 7.659811
v 2.417250 53.597748 20.927101
v -2.917415 56.381134 20.070204
v -6.481604 51.602573 16.857388
v 1.039086 50.590065 30.124733
v -4.181746 53.910660 30.676407
v -7.993433 51.161419 27.698681
v -2.890874 46.462006 36.058640
v -6.762633 46.789410 34.662975
v -5.676830 43.465961 36.845436
v 1.470964 53.398457 7.969187
v -1.691476 53.794514 7.240289
v -3.325253 61.170940 -2.489643
v 1.573068 64.320915 -0.328053
v 6.162036 58.091839 -0.954083
v -2.592979 64.552864 -11.926091
v 2.134557 67.818161 -10.910365
v 7.187568 61.357391 -10.679538
v 1.334885 64.653671 -19.180885
v 5.446054 64.138817 -18.233341
v 4.538314 62.623302 -21.817638
# 143 vertices

vt 0.930195 0.692942
vt 0.807045 0.987415
vt 0.709347 0.712664
vt 0.693762 0.993147
vt 0.577984 0.698660
vt 0.910474 0.394584
vt 0.724112 0.382299
vt 0.582657 0.391829
vt 0.865640 0.086920
vt 0.610829 0.094372
vt 0.718199 0.011673
vt -0.614413 -1.912181
vt -0.614413 -0.998857
vt -0.236414 -0.998857
vt -0.236414 -1.912181
vt -0.614413 -0.085530
vt -0.236414 -0.085530
vt -0.614413 0.827799
vt -0.236414 0.827799
vt -0.614413 1.741126
vt 0.141584 -1.912181
vt 0.141584 -0.998857
vt 0.141584 -0.085530
vt 0.141584 0.827799
vt 0.141584 1.741126
vt 0.519584 -0.998857
vt 0.519584 -1.912181
vt 0.519584 -0.085530
vt 0.519584 0.827799
vt 0.897583 -1.912181
vt 0.897583 -0.998857
vt 0.897583 -0.085530
vt 0.897583 0.827799
vt 0.897583 1.741126
vt 1.275579 -0.998857
vt 1.275579 -1.912181
vt 1.275579 -0.085530
vt 1.275579 0.827799
vt 1.653581 -1.912181
vt 1.653581 -0.998857
vt 1.653581 -0.085530
vt 1.653581 0.827799
vt 1.653581 1.741126
vt 2.031579 -0.998857
vt 2.031579 -1.912181
vt 2.031579 -0.085530
vt 2.031579 0.827799
vt 2.409578 -1.912181
vt 2.409578 -0.998857
vt 2.409578 -0.085530
vt 2.409578 0.827799
vt 2.409578 1.741126
vt 0.430195 0.689036
vt 0.307045 0.983508
vt 0.209347 0.708757
vt 0.193762 0.989240
vt 0.077984 0.694753
vt 0.410474 0.390678
vt 0.224112 0.378393
vt 0.082657 0.387923
vt 0.365640 0.083014
vt 0.110829 0.090466
vt 0.218199 0.007767
vt 0.930195 0.696849
vt 0.807045 0.991321
vt 0.709347 0.716570
vt 0.693762 0.997053
vt 0.577984 0.702566
vt 0.910474 0.398491
vt 0.724112 0.386206
vt 0.582657 0.395735
vt 0.865640 0.090827
vt 0.610829 0.098279
vt 0.718199 0.015580
# 74 texture coordinates

vn 0.122881 0.715458 0.687765
vn 0.309721 0.810272 0.497527
vn 0.172002 0.919800 0.352681
vn 0.350128 0.936198 0.030731
vn 0.089966 0.968451 -0.232397
vn -0.071562 0.706905 0.703679
vn -0.179307 0.965645 0.188090
vn -0.126511 0.968118 -0.216198
vn -0.413867 0.806038 0.423103
vn -0.411823 0.904949 0.107095
vn -0.503736 0.824248 0.258585
vn 0.998311 0.057996 0.003378
vn 0.999068 0.042862 0.005166
vn 0.705442 -0.000159 0.708768
vn 0.711706 0.057656 0.700107
vn 0.998568 0.049880 0.019357
vn 0.665974 -0.095998 0.739772
vn 0.951738 0.293749 0.088917
vn 0.653597 0.018541 0.756615
vn 0.004750 0.961296 0.275477
vn 0.000000 0.056791 0.998386
vn 0.000000 -0.014749 0.999891
vn -0.000275 -0.152583 0.988291
vn 0.000192 0.011931 0.999929
vn -0.705442 -0.000159 0.708768
vn -0.711706 0.057656 0.700107
vn -0.669172 -0.110260 0.734882
vn -0.657275 0.003026 0.753645
vn -0.998311 0.057996 0.003378
vn -0.999068 0.042862 0.005166
vn -0.999534 0.028637 0.010570
vn -0.955617 0.281968 0.085377
vn -0.709389 0.092155 -0.698766
vn -0.711758 0.056383 -0.700158
vn -0.679165 0.177708 -0.712148
vn -0.665967 0.378588 -0.642775
vn 0.000000 0.055286 -0.998471
vn 0.000000 0.113576 -0.993529
vn 0.000155 0.239682 -0.970851
vn 0.000266 0.510221 -0.860043
vn 0.709389 0.092155 -0.698766
vn 0.711758 0.056383 -0.700158
vn 0.681362 0.192668 -0.706134
vn 0.665378 0.393452 -0.634403
vn 0.073911 0.989445 -0.124640
vn -0.151233 0.972584 0.176658
vn 0.066693 0.937597 0.341267
vn -0.157796 0.716917 0.679066
vn 0.159009 0.499477 0.851610
vn 0.325657 0.928733 -0.177206
vn 0.501887 0.740413 0.447100
vn 0.396369 0.466333 0.790838
vn 0.719573 0.687651 0.096700
vn 0.712274 0.551584 0.434074
vn 0.791804 0.560892 0.241758
vn -0.422659 0.897726 0.124288
vn -0.155903 0.970338 0.184764
vn -0.069990 0.997244 -0.024613
vn 0.294707 0.955572 0.005535
vn 0.416651 0.847709 -0.328317
vn -0.524183 0.850853 -0.035808
vn -0.072554 0.911143 -0.405653
vn 0.306594 0.803581 -0.510155
vn -0.411323 0.781236 -0.469557
vn -0.115034 0.778206 -0.617384
vn -0.303226 0.728361 -0.614446
vn 0.318575 0.895998 -0.309349
vn -0.048852 0.920447 -0.387803
vn -0.103369 0.986611 -0.126150
vn -0.538911 0.833321 -0.123089
vn -0.589178 0.755042 0.287717
vn 0.465321 0.880540 -0.090141
vn -0.039021 0.933647 0.356063
vn -0.436671 0.759425 0.482278
vn 0.355858 0.828217 0.432921
vn 0.031844 0.802068 0.596383
vn 0.237722 0.770676 0.591224
vn -0.254440 0.923951 0.285612
vn -0.232202 0.786565 0.572187
vn -0.013732 0.826415 0.562894
vn 0.114811 0.557507 0.822195
vn 0.469400 0.490556 0.734179
vn -0.204685 0.977035 0.059209
vn 0.345088 0.879885 0.326674
vn 0.622043 0.579463 0.526578
vn 0.273431 0.956602 -0.100734
vn 0.557421 0.826036 0.083344
vn 0.469001 0.877247 -0.102353
vn 0.412180 0.580180 0.702495
vn 0.334405 0.835179 0.436634
vn 0.073200 0.849469 0.522536
vn -0.106748 0.986999 0.120157
vn -0.502483 0.849148 0.162662
vn 0.271611 0.424856 0.863553
vn -0.341150 0.645038 0.683771
vn -0.618192 0.712085 0.332827
vn -0.250752 0.312300 0.916293
vn -0.531871 0.439799 0.723665
vn -0.443420 0.296205 0.845956
# 99 normals

g Triangles
usemtl Material01
s 1
f 3/1/1 2/2/2 4/3/3
f 4/3/3 2/2/2 1/4/4
f 4/3/3 1/4/4 5/5/5
f 6/6/6 3/1/1 4/3/3
f 6/6/6 4/3/3 7/7/7
f 7/7/7 5/5/5 8/8/8
f 7/7/7 4/3/3 5/5/5
f 9/9/9 6/6/6 7/7/7
f 9/9/9 7/7/7 10/10/10
f 10/10/10 7/7/7 8/8/8
f 11/11/11 9/9/9 10/10/10
# 11 triangles in group

g Cylinder01
usemtl Material02
f 12/12/12 13/13/13 18/14/14
f 12/12/12 18/14/14 17/15/15
f 13/13/13 14/16/16 18/14/14
f 14/16/16 19/17/17 18/14/14
f 14/16/16 15/18/18 20/19/19
f 14/16/16 20/19/19 19/17/17
f 15/18/18 16/20/20 20/19/19
f 17/15/15 18/14/14 21/21/21
f 18/14/14 22/22/22 21/21/21
f 18/14/14 19/17/17 23/23/23
f 18/14/14 23/23/23 22/22/22
f 19/17/17 20/19/19 23/23/23
f 20/19/19 24/24/24 23/23/23
f 20/19/19 16/25/20 24/24/24
f 21/21/21 22/22/22 26/26/25
f 21/21/21 26/26/25 25/27/26
f 22/22/22 23/23/23 26/26/25
f 23/23/23 27/28/27 26/26/25
f 23/23/23 24/24/24 28/29/28
f 23/23/23 28/29/28 27/28/27
f 24/24/24 16/25/20 28/29/28
f 25/27/26 26/26/25 29/30/29
f 26/26/25 30/31/30 29/30/29
f 26/26/25 27/28/27 31/32/31
f 26/26/25 31/32/31 30/31/30
f 27/28/27 28/29/28 31/32/31
f 28/29/28 32/33/32 31/32/31
f 28/29/28 16/34/20 32/33/32
f 29/30/29 30/31/30 34/35/33
f 29/30/29 34/35/33 33/36/34
f 30/31/30 31/32/31 34/35/33
f 31/32/31 35/37/35 34/35/33
f 31/32/31 32/33/32 36/38/36
f 31/32/31 36/38/36 35/37/35
f 32/33/32 16/34/20 36/38/36
f 33/36/34 34/35/33 37/39/37
f 34/35/33 38/40/38 37/39/37
f 34/35/33 35/37/35 39/41/39
f 34/35/33 39/41/39 38/40/38
f 35/37/35 36/38/36 39/41/39
f 36/38/36 40/42/40 39/41/39
f 36/38/36 16/43/20 40/42/40
f 37/39/37 38/40/38 42/44/41
f 37/39/37 42/44/41 41/45/42
f 38/40/38 39/41/39 42/44/41
f 39/41/39 43/46/43 42/44/41
f 39/41/39 40/42/40 44/47/44
f 39/41/39 44/47/44 43/46/43
f 40/42/40 16/43/20 44/47/44
f 41/45/42 42/44/41 12/48/12
f 42/44/41 13/49/13 12/48/12
f 42/44/41 43/46/43 14/50/16
f 42/44/41 14/50/16 13/49/13
f 43/46/43 44/47/44 14/50/16
f 44/47/44 15/51/18 14/50/16
f 44/47/44 16/52/20 15/51/18
# 56 triangles in group

g Duplicate07
usemtl Material01
f 47/53/45 46/54/46 48/55/47
f 48/55/47 46/54/46 45/56/48
f 48/55/47 45/56/48 49/57/49
f 50/58/50 47/53/45 48/55/47
f 50/58/50 48/55/47 51/59/51
f 51/59/51 49/57/49 52/60/52
f 51/59/51 48/55/47 49/57/49
f 53/61/53 50/58/50 51/59/51
f 53/61/53 51/59/51 54/62/54
f 54/62/54 51/59/51 52/60/52
f 55/63/55 53/61/53 54/62/54
# 11 triangles in group

g Duplicate09
usemtl Material01
f 58/64/56 57/65/57 59/66/58
f 59/66/58 57/65/57 56/67/59
f 59/66/58 56/67/59 60/68/60
f 61/69/61 58/64/56 59/66/58
f 61/69/61 59/66/58 62/70/62
f 62/70/62 60/68/60 63/71/63
f 62/70/62 59/66/58 60/68/60
f 64/72/64 61/69/61 62/70/62
f 64/72/64 62/70/62 65/73/65
f 65/73/65 62/70/62 63/71/63
f 66/74/66 64/72/64 65/73/65
f 69/64/67 68/65/68 70/66/69
f 70/66/69 68/65/68 67/67/70
f 70/66/69 67/67/70 71/68/71
f 72/69/72 69/64/67 70/66/69
f 72/69/72 70/66/69 73/70/73
f 73/70/73 71/68/71 74/71/74
f 73/70/73 70/66/69 71/68/71
f 75/72/75 72/69/72 73/70/73
f 75/72/75 73/70/73 76/73/76
f 76/73/76 73/70/73 74/71/74
f 77/74/77 75/72/75 76/73/76
# 22 triangles in group

g Duplicate10
usemtl Material01
f 80/53/78 79/54/79 81/55/80
f 81/55/80 79/54/79 78/56/81
f 81/55/80 78/56/81 82/57/82
f 83/58/83 80/53/78 81/55/80
f 83/58/83 81/55/80 84/59/84
f 84/59/84 82/57/82 85/60/85
f 84/59/84 81/55/80 82/57/82
f 86/61/86 83/58/83 84/59/84
f 86/61/86 84/59/84 87/62/87
f 87/62/87 84/59/84 85/60/85
f 88/63/88 86/61/86 87/62/87
f 91/53/89 90/54/90 92/55/91
f 92/55/91 90/54/90 89/56/92
f 92/55/91 89/56/92 93/57/93
f 94/58/94 91/53/89 92/55/91
f 94/58/94 92/55/91 95/59/95
f 95/59/95 93/57/93 96/60/96
f 95/59/95 92/55/91 93/57/93
f 97/61/97 94/58/94 95/59/95
f 97/61/97 95/59/95 98/62/98
f 98/62/98 95/59/95 96/60/96
f 99/63/99 97/61/97 98/62/98
# 22 triangles in group

g Duplicate03
usemtl Material01
f 102/53/78 101/54/79 103/55/80
f 103/55/80 101/54/79 100/56/81
f 103/55/80 100/56/81 104/57/82
f 105/58/83 102/53/78 103/55/80
f 105/58/83 103/55/80 106/59/84
f 106/59/84 104/57/82 107/60/85
f 106/59/84 103/55/80 104/57/82
f 108/61/86 105/58/83 106/59/84
f 108/61/86 106/59/84 109/62/87
f 109/62/87 106/59/84 107/60/85
f 110/63/88 108/61/86 109/62/87
f 113/53/89 112/54/90 114/55/91
f 114/55/91 112/54/90 111/56/92
f 114/55/91 111/56/92 115/57/93
f 116/58/94 113/53/89 114/55/91
f 116/58/94 114/55/91 117/59/95
f 117/59/95 115/57/93 118/60/96
f 117/59/95 114/55/91 115/57/93
f 119/61/97 116/58/94 117/59/95
f 119/61/97 117/59/95 120/62/98
f 120/62/98 117/59/95 118/60/96
f 121/63/99 119/61/97 120/62/98
# 22 triangles in group

g Duplicate04
usemtl Material01
f 124/53/78 123/54/79 125/55/80
f 125/55/80 123/54/79 122/56/81
f 125/55/80 122/56/81 126/57/82
f 127/58/83 124/53/78 125/55/80
f 127/58/83 125/55/80 128/59/84
f 128/59/84 126/57/82 129/60/85
f 128/59/84 125/55/80 126/57/82
f 130/61/86 127/58/83 128/59/84
f 130/61/86 128/59/84 131/62/87
f 131/62/87 128/59/84 129/60/85
f 132/63/88 130/61/86 131/62/87
f 135/53/89 134/54/90 136/55/91
f 136/55/91 134/54/90 133/56/92
f 136/55/91 133/56/92 137/57/93
f 138/58/94 135/53/89 136/55/91
f 138/58/94 136/55/91 139/59/95
f 139/59/95 137/57/93 140/60/96
f 139/59/95 136/55/91 137/57/93
f 141/61/97 138/58/94 139/59/95
f 141/61/97 139/59/95 142/62/98
f 142/62/98 139/59/95 140/60/96
f 143/63/99 141/61/97 142/62/98
# 22 triangles in group

# 166 triangles total

