# Wavefront OBJ exported by MilkShape 3D

mtllib palm03.mtl

v -0.570889 57.119194 -2.667663
v -0.561228 57.119209 2.073282
v -13.698043 57.785297 6.529443
v -13.845206 60.956329 -1.462789
v -13.844295 57.978470 -7.693139
v -25.210882 57.360088 7.127099
v -26.626434 60.424538 -0.378548
v -26.248375 57.475586 -7.086919
v -36.404819 56.602467 3.266530
v -36.468185 56.686180 -2.896600
v -39.705635 54.873291 -0.616638
v 3.668034 -8.186817 0.508335
v 2.407577 14.012486 0.508335
v 1.699810 42.193302 0.276046
v 0.649894 56.107094 -0.187523
v -0.300000 57.681522 -0.266055
v 2.593692 -8.186817 3.163080
v 1.702413 14.059010 2.337744
v 1.201947 42.203899 1.395743
v 0.365721 56.104218 0.416031
v 0.000000 -8.186817 4.262711
v 0.000000 14.078278 3.095510
v 0.000000 42.208267 1.859538
v -0.320333 56.103035 0.666027
v -2.593692 -8.186817 3.163080
v -1.702413 14.059010 2.337744
v -1.201947 42.203899 1.395743
v -1.006384 56.104218 0.416031
v -3.668034 -8.186817 0.508335
v -2.407577 14.012486 0.508335
v -1.699810 42.193302 0.276046
v -1.290555 56.107094 -0.187523
v -2.593692 -8.186817 -2.146407
v -1.702413 13.965961 -1.321073
v -1.201947 42.182728 -0.843656
v -1.006384 56.109978 -0.791079
v -0.000000 -8.186817 -3.246037
v -0.000000 13.946690 -2.078841
v 0.000000 42.178360 -1.307455
v -0.320333 56.111164 -1.041079
v 2.593692 -8.186817 -2.146407
v 1.702413 13.965961 -1.321073
v 1.201947 42.182728 -0.843656
v 0.365721 56.109978 -0.791079
v 12.676158 57.785294 -6.882356
v 12.691502 60.956345 1.111385
v 12.587852 57.978477 7.340760
v 24.197102 57.360085 -7.267272
v 25.488661 60.424541 0.263378
v 25.000034 57.475582 6.963739
v 36.216820 56.602474 -2.917559
v 36.178547 56.686180 3.245801
v 39.453102 54.873272 1.025981
v 1.862705 57.118649 -0.126919
v -2.616020 57.119938 -0.033964
v -7.055126 57.595119 -13.870022
v 0.492759 60.761620 -14.235177
v 6.378733 57.782719 -14.277207
v -7.820670 57.001987 -26.031124
v -0.754610 60.043484 -27.727406
v 5.589537 57.098900 -27.379389
v -4.038928 56.106167 -36.034618
v 1.782413 56.187450 -36.211052
v -0.428022 54.328094 -39.556568
v 6.075607 57.977100 13.800586
v -1.475994 61.149803 13.886324
v -7.362845 58.172375 13.951077
v 6.640316 57.720116 25.992750
v -0.451527 60.804794 27.423006
v -6.790043 57.850773 27.088043
v 2.096506 57.099945 37.222816
v -3.726835 57.184582 37.287991
v -1.572563 55.419250 40.753849
v 0.854673 56.521042 -1.594156
v -1.763990 56.521038 1.173741
v -11.661972 57.843571 -4.617269
v -7.321501 64.139748 -9.366920
v -3.872476 58.227142 -12.995695
v -18.505581 56.999344 -11.619187
v -15.151965 63.083858 -16.895147
v -11.225005 57.228657 -20.561605
v -21.512354 55.495060 -20.054548
v -18.136896 55.661266 -23.685194
v -21.230282 52.061737 -24.423903
v 10.681356 57.843571 4.407894
v 6.265489 64.139748 9.074251
v 2.758877 58.227154 12.636874
v 17.411797 56.999302 11.538900
v 13.974202 63.083878 16.750290
v 9.989122 57.228653 20.341482
v 20.283035 55.495049 20.030172
v 16.849941 55.661266 23.596060
v 19.931042 52.061752 24.393501
v 0.825043 56.519962 1.439565
v -1.760019 56.522507 -1.365615
v 3.387069 57.466019 -12.259525
v 7.859012 63.753143 -7.653495
v 11.211973 57.838470 -3.920245
v 9.685191 56.288311 -19.832458
v 14.621356 62.327278 -16.309444
v 18.017612 56.480740 -12.056463
v 17.361481 54.509632 -23.245417
v 20.752270 54.671059 -19.631706
v 21.353573 50.979259 -22.991762
v -4.500622 58.224403 12.242337
v -8.820015 64.523880 7.471151
v -12.186042 58.612164 3.750571
v -10.929547 57.714188 19.705135
v -15.733058 63.838863 16.010696
v -19.133348 57.973576 11.768908
v -18.677996 56.482834 22.990858
v -22.008343 56.650856 19.311054
v -22.708031 53.145767 22.705378
v 0.927304 55.685455 0.103879
v -1.124686 55.685455 -0.519979
v -0.359421 63.912941 -9.013268
v 3.127362 68.566582 -8.038461
v 5.821137 64.196449 -7.210635
v 1.164407 63.288940 -17.152033
v 5.965569 67.786171 -16.624657
v 9.873417 63.458443 -15.128559
v 5.845594 62.177086 -22.230368
v 9.531619 62.299934 -21.111975
v 8.928702 59.639442 -23.559231
v -0.115376 63.912941 8.260026
v -3.575045 68.566582 7.207589
v -6.246761 64.196465 6.319533
v -1.786910 63.288918 16.363539
v -6.574050 67.786171 15.754150
v -10.451332 63.458435 14.190596
v -6.554759 62.177086 21.365522
v -10.217216 62.299934 20.183708
v -9.658785 59.639450 22.642794
v -0.683884 55.684654 1.196016
v 0.219267 55.686539 -1.447168
v 7.061990 63.633881 -2.402418
v 5.630087 68.280846 2.079748
v 4.408522 63.909164 5.542800
v 16.859335 62.763405 -0.077745
v 16.221422 67.226959 4.647400
v 14.534168 62.905632 8.538278
v 21.936010 61.448730 4.159993
v 20.683117 61.568054 7.823377
v 23.191612 58.839355 7.073472
v -7.668292 64.194412 1.636420
v -6.114790 68.850517 -2.810833
v -4.902856 64.481033 -6.277417
v -17.503616 63.817299 -0.833753
v -16.701225 68.344200 -5.524997
v -15.023059 64.009026 -9.414820
v -22.519283 62.907181 -5.167051
v -21.199652 63.031372 -8.810802
v -23.766743 60.440666 -8.118513
v 0.448336 58.285862 -1.486843
v -1.585523 58.285877 1.658865
v -12.208436 53.701962 -0.805988
v -8.865427 56.872997 -6.164619
v -6.183714 53.895138 -10.292791
v -19.892885 49.776756 -5.468794
v -17.589405 52.841206 -11.044077
v -14.455142 49.892254 -15.328724
v -25.234943 45.019135 -13.281651
v -22.624222 45.102848 -17.392603
v -25.724186 43.289959 -17.257757
v 10.824308 53.701962 1.516198
v 7.394384 56.873013 6.819801
v 4.645847 53.895145 10.903662
v 18.637691 49.776752 5.992104
v 16.242290 52.841213 11.531252
v 13.039129 49.892250 15.763594
v 24.955202 45.019142 13.486084
v 22.277855 45.102848 17.553989
v 25.376215 43.289940 17.474764
v 0.947692 58.285320 1.231117
v -2.023516 58.286602 -0.610837
v 0.917730 53.511791 -11.500391
v 6.014752 56.678288 -8.534359
v 9.885048 53.699383 -6.060558
v 5.757596 49.418655 -20.050016
v 11.112104 52.460155 -18.170849
v 15.114422 49.515568 -15.243853
v 12.860218 44.522835 -25.568541
v 16.746056 44.604118 -23.211273
v 16.739065 42.744762 -26.367674
v -2.396119 53.893764 12.416458
v -7.375333 57.066471 9.263695
v -11.255987 54.089046 6.804581
v -7.165628 50.136784 20.569992
v -12.422535 53.221462 18.503586
v -16.426771 50.267441 15.587622
v -14.649341 45.516613 25.583427
v -18.488609 45.601250 23.151594
v -18.570166 43.835918 26.363855
v -0.962805 58.909283 -1.399414
v -0.369642 58.909298 2.379642
v -9.908904 56.205921 7.770743
v -11.009675 58.076046 1.416368
v -11.778698 56.319843 -3.551603
v -18.735498 53.891010 9.483963
v -20.753353 55.698284 3.675788
v -21.290865 53.959126 -1.720395
v -27.928988 51.085178 7.203888
v -28.739246 51.134556 2.297533
v -30.951710 50.065395 4.519303
v 8.752982 56.205921 -6.213036
v 9.752389 58.076061 0.158976
v 10.442141 56.319851 5.138986
v 17.550348 53.891010 -8.156317
v 19.475740 55.698292 -2.312737
v 19.927105 53.959126 3.090827
v 27.255138 51.085186 -6.785271
v 27.987091 51.134556 -1.866047
v 30.235580 50.065395 -4.044488
v 1.225947 58.908962 0.322943
v -2.213009 58.909725 0.955696
v -7.311407 56.093769 -9.323647
v -1.541594 57.961216 -10.556269
v 2.987801 56.204388 -11.323940
v -9.434525 53.679821 -19.124325
v -4.200364 55.473553 -21.358242
v 0.730205 53.736973 -21.872066
v -7.849587 50.792492 -28.170467
v -3.386596 50.840427 -29.037258
v -5.502858 49.743870 -31.429157
v 6.223152 56.319027 11.102106
v 0.415952 58.190151 12.112391
v -4.111312 56.434200 12.898300
v 8.133607 54.103344 20.553936
v 2.846721 55.922543 22.578949
v -2.077893 54.180393 23.102459
v 5.927798 51.378574 29.477119
v 1.449522 51.428493 30.255444
v 3.537362 50.387379 32.750294
v 1.557318 57.860420 1.117502
v -0.776330 57.944618 -0.512201
v -1.047514 64.807571 -4.001287
v 2.408183 66.709564 -0.549032
v 5.932571 64.781799 0.926093
v 0.720280 68.578964 -6.490360
v 4.371222 70.957520 -3.775753
v 7.887809 68.787003 -1.791435
v 4.965122 70.196625 -7.902899
v 7.990940 70.235535 -5.769415
v 7.806414 68.854446 -7.723845
v -1.172212 56.725658 -0.846297
v 1.245747 56.790340 0.589368
v 2.225911 64.605392 3.333365
v -1.282275 66.609108 -0.021800
v -4.994069 64.652672 -1.035600
v 0.701509 69.227036 5.842065
v -2.542296 71.710342 2.647397
v -6.604322 69.805473 1.592429
v -2.875692 72.477257 6.801126
v -5.985665 72.622124 4.881592
v -6.567260 73.822166 8.077031
# 255 vertices

vt 0.429291 0.690008
vt 0.309678 0.991255
vt 0.214787 0.710183
vt 0.199649 0.997119
vt 0.087197 0.695857
vt 0.410136 0.384787
vt 0.229127 0.372219
vt 0.091735 0.381968
vt 0.366590 0.070045
vt 0.119098 0.077668
vt 0.223384 -0.006933
vt -0.614413 -1.912181
vt -0.614413 -0.998857
vt -0.236414 -0.998857
vt -0.236414 -1.912181
vt -0.614413 -0.085530
vt -0.236414 -0.085530
vt -0.614413 0.827799
vt -0.236414 0.827799
vt -0.614413 1.741126
vt 0.141584 -1.912181
vt 0.141584 -0.998857
vt 0.141584 -0.085530
vt 0.141584 0.827799
vt 0.141584 1.741126
vt 0.519584 -0.998857
vt 0.519584 -1.912181
vt 0.519584 -0.085530
vt 0.519584 0.827799
vt 0.897583 -1.912181
vt 0.897583 -0.998857
vt 0.897583 -0.085530
vt 0.897583 0.827799
vt 0.897583 1.741126
vt 1.275579 -0.998857
vt 1.275579 -1.912181
vt 1.275579 -0.085530
vt 1.275579 0.827799
vt 1.653581 -1.912181
vt 1.653581 -0.998857
vt 1.653581 -0.085530
vt 1.653581 0.827799
vt 1.653581 1.741126
vt 2.031579 -0.998857
vt 2.031579 -1.912181
vt 2.031579 -0.085530
vt 2.031579 0.827799
vt 2.409578 -1.912181
vt 2.409578 -0.998857
vt 2.409578 -0.085530
vt 2.409578 0.827799
vt 2.409578 1.741126
# 52 texture coordinates

vn 0.088419 0.891006 0.445299
vn -0.016193 0.967793 0.251226
vn 0.122674 0.990547 0.061384
vn 0.015594 0.967295 -0.253173
vn 0.032121 0.861074 -0.507464
vn -0.083872 0.880775 0.466048
vn -0.199007 0.975108 -0.097782
vn -0.164888 0.857871 -0.486692
vn -0.410172 0.894025 0.180218
vn -0.424246 0.892670 -0.152171
vn -0.546575 0.837164 0.020326
vn 0.998436 0.055902 -0.000629
vn 0.999163 0.040901 -0.000919
vn 0.712655 0.045378 0.700046
vn 0.711831 0.054499 0.700234
vn 0.998687 0.051231 -0.000509
vn 0.688036 0.064339 0.722819
vn 0.951738 0.306909 -0.000851
vn 0.658941 0.241052 0.712525
vn 0.004750 0.999834 -0.017615
vn -0.000000 0.053183 0.998585
vn 0.000000 0.048124 0.998841
vn -0.000117 0.063730 0.997967
vn 0.000181 0.306263 0.951947
vn -0.712655 0.045378 0.700046
vn -0.711831 0.054499 0.700234
vn -0.688673 0.048559 0.723444
vn -0.661408 0.224836 0.715533
vn -0.998436 0.055902 -0.000629
vn -0.999163 0.040901 -0.000919
vn -0.999594 0.028475 -0.000332
vn -0.955618 0.294609 -0.000792
vn -0.712286 0.039615 -0.700770
vn -0.711822 0.054727 -0.700225
vn -0.688966 0.018444 -0.724559
vn -0.667855 0.175075 -0.723407
vn 0.000000 0.053451 -0.998571
vn 0.000000 0.039992 -0.999200
vn -0.000030 0.022029 -0.999757
vn 0.000262 0.237759 -0.971324
vn 0.712286 0.039615 -0.700770
vn 0.711822 0.054727 -0.700225
vn 0.688513 0.034265 -0.724414
vn 0.665914 0.191367 -0.721067
vn -0.080397 0.891021 -0.446785
vn -0.121723 0.990596 -0.062481
vn -0.041184 0.861068 0.506820
vn 0.089739 0.881126 -0.464288
vn 0.184511 0.977588 0.101382
vn 0.140737 0.860444 0.489723
vn 0.401135 0.899500 -0.173177
vn 0.401715 0.901608 0.160399
vn 0.546851 0.837161 -0.010782
vn -0.443691 0.892547 0.080612
vn -0.251472 0.967439 -0.028694
vn -0.059235 0.992555 0.106420
vn 0.253405 0.967343 -0.005709
vn 0.507947 0.861349 0.008227
vn -0.469987 0.875724 -0.110544
vn 0.093206 0.963747 -0.250009
vn 0.482658 0.851031 -0.206850
vn -0.188354 0.864558 -0.465900
vn 0.142519 0.866250 -0.478852
vn -0.029861 0.827503 -0.560667
vn 0.445313 0.889348 -0.103718
vn 0.060346 0.988302 -0.140064
vn -0.507460 0.860373 -0.047356
vn 0.468146 0.879348 0.087100
vn -0.098016 0.976366 0.192618
vn -0.487113 0.862534 0.136951
vn 0.180386 0.888950 0.420986
vn -0.153104 0.899478 0.409266
vn 0.020326 0.846575 0.531881
vn -0.451182 0.634641 0.627428
vn -0.367530 0.873947 0.318024
vn 0.076436 0.941666 0.327755
vn 0.369391 0.872242 -0.320537
vn 0.625783 0.575779 -0.526188
vn -0.677288 0.606058 0.417103
vn -0.194092 0.854814 -0.481270
vn 0.365531 0.569705 -0.736087
vn -0.733102 0.593192 -0.332692
vn -0.363514 0.603834 -0.709395
vn -0.616649 0.536977 -0.575674
vn 0.462547 0.634483 -0.619259
vn -0.072723 0.942045 -0.327510
vn -0.635135 0.575574 0.515090
vn 0.684495 0.605879 -0.405435
vn 0.185521 0.854866 0.484547
vn -0.378588 0.569541 0.729585
vn 0.727157 0.593340 0.345240
vn 0.350899 0.603986 0.715591
vn 0.606427 0.537176 0.586249
vn -0.632410 0.634199 -0.444803
vn -0.311411 0.873822 -0.373442
vn -0.308697 0.949378 0.058201
vn 0.355182 0.871977 0.336901
vn 0.569055 0.577131 0.585744
vn -0.424071 0.607604 -0.671551
vn 0.501374 0.836112 -0.222576
vn 0.765894 0.557073 0.321055
vn 0.342160 0.586222 -0.734350
vn 0.721583 0.582150 -0.374724
vn 0.589740 0.523197 -0.615201
vn 0.657335 0.627343 0.417554
vn 0.356417 0.928574 -0.103525
vn -0.524098 0.576574 -0.626804
vn 0.451006 0.613050 0.648662
vn -0.469230 0.865854 0.173549
vn -0.735262 0.568146 -0.369593
vn -0.331783 0.615373 0.715007
vn -0.712947 0.612041 0.342218
vn -0.585951 0.552141 0.593128
vn -0.849856 0.512846 0.121384
vn -0.567411 0.799045 -0.198925
vn -0.343074 0.793916 0.501994
vn 0.583990 0.790577 0.184238
vn 0.706768 0.511976 0.488221
vn -0.695772 0.590863 -0.408390
vn 0.340994 0.872632 -0.349623
vn 0.787300 0.613037 0.065907
vn -0.042861 0.600732 -0.798300
vn 0.442591 0.624578 -0.643440
vn 0.210119 0.548756 -0.809145
vn 0.852664 0.511636 -0.105797
vn 0.356220 0.786899 -0.503883
vn -0.692192 0.510604 -0.510053
vn 0.688763 0.590091 0.421187
vn -0.346964 0.872898 0.343023
vn -0.786201 0.612653 -0.080898
vn 0.029753 0.600980 0.798710
vn -0.453511 0.625187 0.635193
vn -0.223481 0.549302 0.805186
vn -0.210684 0.557944 -0.802690
vn 0.170698 0.838375 -0.517677
vn -0.528603 0.764947 -0.368016
vn -0.170287 0.829302 0.532223
vn -0.438973 0.568690 0.695625
vn 0.371582 0.617212 -0.693524
vn 0.387126 0.855727 0.343313
vn 0.039617 0.570956 0.820024
vn 0.784639 0.619638 -0.019770
vn 0.636727 0.602325 0.481439
vn 0.791343 0.551570 0.263717
vn 0.210399 0.551153 0.807442
vn 0.542830 0.748378 0.381138
vn 0.474631 0.564263 -0.675525
vn -0.345513 0.620797 0.703728
vn -0.337558 0.879081 -0.336558
vn 0.007484 0.580294 -0.814372
vn -0.760985 0.648442 0.020603
vn -0.603601 0.631281 -0.486981
vn -0.768461 0.580361 -0.269535
# 153 normals

g Triangles
usemtl Material01
s 1
f 3/1/1 2/2/2 4/3/3
f 4/3/3 2/2/2 1/4/4
f 4/3/3 1/4/4 5/5/5
f 6/6/6 3/1/1 4/3/3
f 6/6/6 4/3/3 7/7/7
f 7/7/7 5/5/5 8/8/8
f 7/7/7 4/3/3 5/5/5
f 9/9/9 6/6/6 7/7/7
f 9/9/9 7/7/7 10/10/10
f 10/10/10 7/7/7 8/8/8
f 11/11/11 9/9/9 10/10/10
# 11 triangles in group

g Cylinder01
usemtl Material02
f 12/12/12 13/13/13 18/14/14
f 12/12/12 18/14/14 17/15/15
f 13/13/13 14/16/16 18/14/14
f 14/16/16 19/17/17 18/14/14
f 14/16/16 15/18/18 20/19/19
f 14/16/16 20/19/19 19/17/17
f 15/18/18 16/20/20 20/19/19
f 17/15/15 18/14/14 21/21/21
f 18/14/14 22/22/22 21/21/21
f 18/14/14 19/17/17 23/23/23
f 18/14/14 23/23/23 22/22/22
f 19/17/17 20/19/19 23/23/23
f 20/19/19 24/24/24 23/23/23
f 20/19/19 16/25/20 24/24/24
f 21/21/21 22/22/22 26/26/25
f 21/21/21 26/26/25 25/27/26
f 22/22/22 23/23/23 26/26/25
f 23/23/23 27/28/27 26/26/25
f 23/23/23 24/24/24 28/29/28
f 23/23/23 28/29/28 27/28/27
f 24/24/24 16/25/20 28/29/28
f 25/27/26 26/26/25 29/30/29
f 26/26/25 30/31/30 29/30/29
f 26/26/25 27/28/27 31/32/31
f 26/26/25 31/32/31 30/31/30
f 27/28/27 28/29/28 31/32/31
f 28/29/28 32/33/32 31/32/31
f 28/29/28 16/34/20 32/33/32
f 29/30/29 30/31/30 34/35/33
f 29/30/29 34/35/33 33/36/34
f 30/31/30 31/32/31 34/35/33
f 31/32/31 35/37/35 34/35/33
f 31/32/31 32/33/32 36/38/36
f 31/32/31 36/38/36 35/37/35
f 32/33/32 16/34/20 36/38/36
f 33/36/34 34/35/33 37/39/37
f 34/35/33 38/40/38 37/39/37
f 34/35/33 35/37/35 39/41/39
f 34/35/33 39/41/39 38/40/38
f 35/37/35 36/38/36 39/41/39
f 36/38/36 40/42/40 39/41/39
f 36/38/36 16/43/20 40/42/40
f 37/39/37 38/40/38 42/44/41
f 37/39/37 42/44/41 41/45/42
f 38/40/38 39/41/39 42/44/41
f 39/41/39 43/46/43 42/44/41
f 39/41/39 40/42/40 44/47/44
f 39/41/39 44/47/44 43/46/43
f 40/42/40 16/43/20 44/47/44
f 41/45/42 42/44/41 12/48/12
f 42/44/41 13/49/13 12/48/12
f 42/44/41 43/46/43 14/50/16
f 42/44/41 14/50/16 13/49/13
f 43/46/43 44/47/44 14/50/16
f 44/47/44 15/51/18 14/50/16
f 44/47/44 16/52/20 15/51/18
# 56 triangles in group

g Duplicate04
usemtl Material01
f 45/1/45 1/2/4 46/3/46
f 46/3/46 1/2/4 2/4/2
f 46/3/46 2/4/2 47/5/47
f 48/6/48 45/1/45 46/3/46
f 48/6/48 46/3/46 49/7/49
f 49/7/49 47/5/47 50/8/50
f 49/7/49 46/3/46 47/5/47
f 51/9/51 48/6/48 49/7/49
f 51/9/51 49/7/49 52/10/52
f 52/10/52 49/7/49 50/8/50
f 53/11/53 51/9/51 52/10/52
# 11 triangles in group

g Duplicate05
usemtl Material01
f 56/1/54 55/2/55 57/3/56
f 57/3/56 55/2/55 54/4/57
f 57/3/56 54/4/57 58/5/58
f 59/6/59 56/1/54 57/3/56
f 59/6/59 57/3/56 60/7/60
f 60/7/60 58/5/58 61/8/61
f 60/7/60 57/3/56 58/5/58
f 62/9/62 59/6/59 60/7/60
f 62/9/62 60/7/60 63/10/63
f 63/10/63 60/7/60 61/8/61
f 64/11/64 62/9/62 63/10/63
f 65/1/65 54/2/57 66/3/66
f 66/3/66 54/2/57 55/4/55
f 66/3/66 55/4/55 67/5/67
f 68/6/68 65/1/65 66/3/66
f 68/6/68 66/3/66 69/7/69
f 69/7/69 67/5/67 70/8/70
f 69/7/69 66/3/66 67/5/67
f 71/9/71 68/6/68 69/7/69
f 71/9/71 69/7/69 72/10/72
f 72/10/72 69/7/69 70/8/70
f 73/11/73 71/9/71 72/10/72
# 22 triangles in group

g Duplicate06
usemtl Material01
f 76/1/74 75/2/75 77/3/76
f 77/3/76 75/2/75 74/4/77
f 77/3/76 74/4/77 78/5/78
f 79/6/79 76/1/74 77/3/76
f 79/6/79 77/3/76 80/7/80
f 80/7/80 78/5/78 81/8/81
f 80/7/80 77/3/76 78/5/78
f 82/9/82 79/6/79 80/7/80
f 82/9/82 80/7/80 83/10/83
f 83/10/83 80/7/80 81/8/81
f 84/11/84 82/9/82 83/10/83
f 85/1/85 74/2/77 86/3/86
f 86/3/86 74/2/77 75/4/75
f 86/3/86 75/4/75 87/5/87
f 88/6/88 85/1/85 86/3/86
f 88/6/88 86/3/86 89/7/89
f 89/7/89 87/5/87 90/8/90
f 89/7/89 86/3/86 87/5/87
f 91/9/91 88/6/88 89/7/89
f 91/9/91 89/7/89 92/10/92
f 92/10/92 89/7/89 90/8/90
f 93/11/93 91/9/91 92/10/92
f 96/1/94 95/2/95 97/3/96
f 97/3/96 95/2/95 94/4/97
f 97/3/96 94/4/97 98/5/98
f 99/6/99 96/1/94 97/3/96
f 99/6/99 97/3/96 100/7/100
f 100/7/100 98/5/98 101/8/101
f 100/7/100 97/3/96 98/5/98
f 102/9/102 99/6/99 100/7/100
f 102/9/102 100/7/100 103/10/103
f 103/10/103 100/7/100 101/8/101
f 104/11/104 102/9/102 103/10/103
f 105/1/105 94/2/97 106/3/106
f 106/3/106 94/2/97 95/4/95
f 106/3/106 95/4/95 107/5/107
f 108/6/108 105/1/105 106/3/106
f 108/6/108 106/3/106 109/7/109
f 109/7/109 107/5/107 110/8/110
f 109/7/109 106/3/106 107/5/107
f 111/9/111 108/6/108 109/7/109
f 111/9/111 109/7/109 112/10/112
f 112/10/112 109/7/109 110/8/110
f 113/11/113 111/9/111 112/10/112
# 44 triangles in group

g Duplicate11
usemtl Material01
f 116/1/114 115/2/115 117/3/116
f 117/3/116 115/2/115 114/4/117
f 117/3/116 114/4/117 118/5/118
f 119/6/119 116/1/114 117/3/116
f 119/6/119 117/3/116 120/7/120
f 120/7/120 118/5/118 121/8/121
f 120/7/120 117/3/116 118/5/118
f 122/9/122 119/6/119 120/7/120
f 122/9/122 120/7/120 123/10/123
f 123/10/123 120/7/120 121/8/121
f 124/11/124 122/9/122 123/10/123
f 125/1/125 114/2/117 126/3/126
f 126/3/126 114/2/117 115/4/115
f 126/3/126 115/4/115 127/5/127
f 128/6/128 125/1/125 126/3/126
f 128/6/128 126/3/126 129/7/129
f 129/7/129 127/5/127 130/8/130
f 129/7/129 126/3/126 127/5/127
f 131/9/131 128/6/128 129/7/129
f 131/9/131 129/7/129 132/10/132
f 132/10/132 129/7/129 130/8/130
f 133/11/133 131/9/131 132/10/132
f 136/1/134 135/2/135 137/3/136
f 137/3/136 135/2/135 134/4/137
f 137/3/136 134/4/137 138/5/138
f 139/6/139 136/1/134 137/3/136
f 139/6/139 137/3/136 140/7/140
f 140/7/140 138/5/138 141/8/141
f 140/7/140 137/3/136 138/5/138
f 142/9/142 139/6/139 140/7/140
f 142/9/142 140/7/140 143/10/143
f 143/10/143 140/7/140 141/8/141
f 144/11/144 142/9/142 143/10/143
f 145/1/145 134/2/137 146/3/146
f 146/3/146 134/2/137 135/4/135
f 146/3/146 135/4/135 147/5/147
f 148/6/148 145/1/145 146/3/146
f 148/6/148 146/3/146 149/7/149
f 149/7/149 147/5/147 150/8/150
f 149/7/149 146/3/146 147/5/147
f 151/9/151 148/6/148 149/7/149
f 151/9/151 149/7/149 152/10/152
f 152/10/152 149/7/149 150/8/150
f 153/11/153 151/9/151 152/10/152
# 44 triangles in group

g Duplicate05
usemtl Material01
f 156/1/1 155/2/2 157/3/3
f 157/3/3 155/2/2 154/4/4
f 157/3/3 154/4/4 158/5/5
f 159/6/6 156/1/1 157/3/3
f 159/6/6 157/3/3 160/7/7
f 160/7/7 158/5/5 161/8/8
f 160/7/7 157/3/3 158/5/5
f 162/9/9 159/6/6 160/7/7
f 162/9/9 160/7/7 163/10/10
f 163/10/10 160/7/7 161/8/8
f 164/11/11 162/9/9 163/10/10
f 165/1/45 154/2/4 166/3/46
f 166/3/46 154/2/4 155/4/2
f 166/3/46 155/4/2 167/5/47
f 168/6/48 165/1/45 166/3/46
f 168/6/48 166/3/46 169/7/49
f 169/7/49 167/5/47 170/8/50
f 169/7/49 166/3/46 167/5/47
f 171/9/51 168/6/48 169/7/49
f 171/9/51 169/7/49 172/10/52
f 172/10/52 169/7/49 170/8/50
f 173/11/53 171/9/51 172/10/52
f 176/1/54 175/2/55 177/3/56
f 177/3/56 175/2/55 174/4/57
f 177/3/56 174/4/57 178/5/58
f 179/6/59 176/1/54 177/3/56
f 179/6/59 177/3/56 180/7/60
f 180/7/60 178/5/58 181/8/61
f 180/7/60 177/3/56 178/5/58
f 182/9/62 179/6/59 180/7/60
f 182/9/62 180/7/60 183/10/63
f 183/10/63 180/7/60 181/8/61
f 184/11/64 182/9/62 183/10/63
f 185/1/65 174/2/57 186/3/66
f 186/3/66 174/2/57 175/4/55
f 186/3/66 175/4/55 187/5/67
f 188/6/68 185/1/65 186/3/66
f 188/6/68 186/3/66 189/7/69
f 189/7/69 187/5/67 190/8/70
f 189/7/69 186/3/66 187/5/67
f 191/9/71 188/6/68 189/7/69
f 191/9/71 189/7/69 192/10/72
f 192/10/72 189/7/69 190/8/70
f 193/11/73 191/9/71 192/10/72
# 44 triangles in group

g Duplicate06
usemtl Material01
f 196/1/1 195/2/2 197/3/3
f 197/3/3 195/2/2 194/4/4
f 197/3/3 194/4/4 198/5/5
f 199/6/6 196/1/1 197/3/3
f 199/6/6 197/3/3 200/7/7
f 200/7/7 198/5/5 201/8/8
f 200/7/7 197/3/3 198/5/5
f 202/9/9 199/6/6 200/7/7
f 202/9/9 200/7/7 203/10/10
f 203/10/10 200/7/7 201/8/8
f 204/11/11 202/9/9 203/10/10
f 205/1/45 194/2/4 206/3/46
f 206/3/46 194/2/4 195/4/2
f 206/3/46 195/4/2 207/5/47
f 208/6/48 205/1/45 206/3/46
f 208/6/48 206/3/46 209/7/49
f 209/7/49 207/5/47 210/8/50
f 209/7/49 206/3/46 207/5/47
f 211/9/51 208/6/48 209/7/49
f 211/9/51 209/7/49 212/10/52
f 212/10/52 209/7/49 210/8/50
f 213/11/53 211/9/51 212/10/52
f 216/1/54 215/2/55 217/3/56
f 217/3/56 215/2/55 214/4/57
f 217/3/56 214/4/57 218/5/58
f 219/6/59 216/1/54 217/3/56
f 219/6/59 217/3/56 220/7/60
f 220/7/60 218/5/58 221/8/61
f 220/7/60 217/3/56 218/5/58
f 222/9/62 219/6/59 220/7/60
f 222/9/62 220/7/60 223/10/63
f 223/10/63 220/7/60 221/8/61
f 224/11/64 222/9/62 223/10/63
f 225/1/65 214/2/57 226/3/66
f 226/3/66 214/2/57 215/4/55
f 226/3/66 215/4/55 227/5/67
f 228/6/68 225/1/65 226/3/66
f 228/6/68 226/3/66 229/7/69
f 229/7/69 227/5/67 230/8/70
f 229/7/69 226/3/66 227/5/67
f 231/9/71 228/6/68 229/7/69
f 231/9/71 229/7/69 232/10/72
f 232/10/72 229/7/69 230/8/70
f 233/11/73 231/9/71 232/10/72
# 44 triangles in group

g Duplicate01
usemtl Material01
f 236/1/1 235/2/2 237/3/3
f 237/3/3 235/2/2 234/4/4
f 237/3/3 234/4/4 238/5/5
f 239/6/6 236/1/1 237/3/3
f 239/6/6 237/3/3 240/7/7
f 240/7/7 238/5/5 241/8/8
f 240/7/7 237/3/3 238/5/5
f 242/9/9 239/6/6 240/7/7
f 242/9/9 240/7/7 243/10/10
f 243/10/10 240/7/7 241/8/8
f 244/11/11 242/9/9 243/10/10
# 11 triangles in group

g Duplicate02
usemtl Material01
f 247/1/1 246/2/2 248/3/3
f 248/3/3 246/2/2 245/4/4
f 248/3/3 245/4/4 249/5/5
f 250/6/6 247/1/1 248/3/3
f 250/6/6 248/3/3 251/7/7
f 251/7/7 249/5/5 252/8/8
f 251/7/7 248/3/3 249/5/5
f 253/9/9 250/6/6 251/7/7
f 253/9/9 251/7/7 254/10/10
f 254/10/10 251/7/7 252/8/8
f 255/11/11 253/9/9 254/10/10
# 11 triangles in group

# 298 triangles total

