# Wavefront OBJ exported by MilkShape 3D

mtllib paper.mtl

v -0.666464 0.139921 -1.873385
v -0.663823 0.170109 2.156918
v -0.225963 -0.205150 -1.873385
v -0.223322 -0.174962 2.156918
v 0.339264 -0.287369 -1.873385
v 0.339264 -0.287369 2.126615
v 0.846090 0.095992 -1.873385
v 0.838166 0.005430 2.156918
v 0.933840 0.729321 -1.843082
v 0.928558 0.668946 2.156918
v 0.435384 1.052307 -1.903688
v 0.435384 1.052307 2.156918
v -0.065714 1.000276 -1.843082
v -0.065714 1.000276 2.126615
v -0.363636 0.491100 -1.812779
v -0.363636 0.521403 2.126615
v -0.156740 0.148362 -2.115810
v -0.156740 0.118059 2.429645
v 0.463950 0.067902 -2.115810
v 0.463950 -0.023007 2.338736
v 0.636364 0.457662 -2.115810
v 0.636364 0.397056 2.369039
v 0.463950 0.812938 -2.085507
v 0.463950 0.722029 2.429645
v 0.015674 0.746063 -2.297627
v 0.015674 0.594548 2.369039
v -0.053292 0.377202 -2.267324
v -0.053292 0.286293 2.308433
# 28 vertices

vt 0.000000 1.000000
# 1 texture coordinates

vn -0.616663 -0.787202 0.006300
vn -0.327611 -0.944801 0.004720
vn -0.488078 -0.872773 0.006857
vn 0.342346 -0.939555 -0.005934
vn 0.058736 -0.998270 0.002634
vn 0.923978 -0.382388 -0.006643
vn 0.760187 -0.649672 -0.006449
vn 0.821397 0.570338 0.004575
vn 0.980699 0.195480 0.004111
vn 0.118388 0.992967 0.000000
vn 0.372866 0.927874 0.004501
vn -0.667057 0.745006 -0.001427
vn -0.386695 0.922207 0.000000
vn -0.984575 -0.174959 -0.001440
vn -0.976165 0.217032 -0.000146
vn -0.437888 -0.898963 -0.010930
vn -0.711963 -0.702213 -0.002325
vn 0.693945 -0.719901 -0.013561
vn 0.237761 -0.971219 -0.014274
vn 0.983309 0.181911 0.003510
vn 0.993333 -0.115255 -0.002511
vn 0.190149 0.981443 0.024770
vn 0.628712 0.777505 0.014363
vn -0.836800 0.547249 0.016853
vn -0.546910 0.836887 0.022589
vn -0.982906 0.184073 0.003657
vn -0.979665 0.200568 0.005352
# 27 normals

g Triangles
usemtl Material02
s 1
f 1/1/1 3/1/2 4/1/3
f 4/1/3 2/1/1 1/1/1
f 3/1/2 5/1/4 6/1/5
f 6/1/5 4/1/3 3/1/2
f 5/1/4 7/1/6 8/1/7
f 8/1/7 6/1/5 5/1/4
f 7/1/6 9/1/8 10/1/9
f 10/1/9 8/1/7 7/1/6
f 9/1/8 11/1/10 12/1/11
f 12/1/11 10/1/9 9/1/8
f 11/1/10 13/1/12 14/1/13
f 14/1/13 12/1/11 11/1/10
f 13/1/12 15/1/14 16/1/15
f 16/1/15 14/1/13 13/1/12
f 15/1/14 17/1/16 18/1/17
f 15/1/14 18/1/17 16/1/15
f 17/1/16 19/1/18 20/1/19
f 20/1/19 18/1/17 17/1/16
f 19/1/18 21/1/20 22/1/21
f 22/1/21 20/1/19 19/1/18
f 21/1/20 23/1/22 24/1/23
f 24/1/23 22/1/21 21/1/20
f 23/1/22 25/1/24 26/1/25
f 26/1/25 24/1/23 23/1/22
f 25/1/24 27/1/26 28/1/27
f 28/1/27 26/1/25 25/1/24
# 26 triangles in group

# 26 triangles total

