# Wavefront OBJ exported by MilkShape 3D

mtllib paste.mtl

v 10.053047 -1.250000 -0.375000
v 8.706195 -1.250000 4.498814
v 0.000000 -1.250000 -0.375000
v 10.053047 -1.250000 -0.375000
v 8.351076 1.750000 -0.125000
v 8.706195 -1.250000 4.498814
v 7.232244 1.750000 3.292303
v 4.441864 6.500000 -0.375000
v 4.332129 5.414732 1.664132
v -0.000000 9.000000 -0.374999
v 5.026524 -1.250000 8.066690
v 4.175538 1.750000 5.793940
v 5.026524 -1.250000 8.066690
v 2.220932 5.000000 3.656885
v -0.000000 9.000000 -0.374999
v 1.474373 -4.500000 12.141804
v 1.474373 -4.500000 12.141804
v 0.000000 1.750000 6.709602
v 0.000000 5.000000 4.203266
v -3.485646 -4.250000 9.092716
v -4.175538 1.750000 5.793940
v -3.485646 -4.250000 9.092716
v -2.220932 5.000000 3.656885
v -0.000000 9.000000 -0.374999
v -8.706195 -1.250000 4.498814
v -8.706195 -1.250000 4.498814
v -7.232244 1.750000 3.292303
v -3.332129 4.585268 2.164132
v -10.053047 -1.250000 -0.375000
v -8.351076 1.750000 -0.125000
v -10.053047 -1.250000 -0.375000
v -4.441864 6.500000 -0.375000
v -0.000000 9.000000 -0.374999
v -9.256232 -4.250000 -4.683010
v -9.256232 -4.250000 -4.683010
v -7.232244 1.750000 -3.542301
v -3.846767 6.500000 -2.414132
v -5.026524 -1.250000 -8.816689
v -4.175538 1.750000 -6.043941
v -5.026524 -1.250000 -8.816689
v -2.220932 6.500000 -3.906882
v -0.000000 9.000000 -0.374999
v 0.000000 -1.250000 -10.122623
v 0.000000 -1.250000 -10.122623
v -0.000000 1.750000 -6.959602
v -0.000000 6.500000 -4.453267
v 7.107512 -4.250000 -9.242926
v 4.175538 1.750000 -6.043941
v 7.107512 -4.250000 -9.242926
v 2.220932 6.500000 -3.906882
v -0.000000 9.000000 -0.374999
v 10.409992 -4.250000 -6.183589
v 10.409992 -4.250000 -6.183589
v 7.232244 1.750000 -3.542301
v 3.846767 6.500000 -2.414132
v 8.351076 1.750000 -0.125000
v 10.053047 -1.250000 -0.375000
v 4.441864 6.500000 -0.375000
v -0.000000 9.000000 -0.374999
# 59 vertices

vt 5.210942 -1.738139
vt 5.210942 -4.176332
vt 5.210942 -3.363601
vt 5.471818 -4.176332
vt 5.471818 -3.363601
vt 5.210942 -2.550870
vt 5.471818 -2.550870
vt 5.732698 -3.363601
vt 5.732698 -4.176332
vt 5.732698 -2.550870
vt 5.732698 -1.738139
vt 5.993573 -4.176332
vt 5.993573 -3.363601
vt 5.993573 -2.550870
vt 6.254454 -3.363601
vt 6.254454 -4.176332
vt 6.254454 -2.550870
vt 6.254454 -1.738139
vt 6.515329 -4.176332
vt 6.515329 -3.363601
vt 6.515329 -2.550870
vt 6.776210 -3.363601
vt 6.776210 -4.176332
vt 6.776210 -2.550870
vt 6.776210 -1.738139
vt 7.037086 -4.176332
vt 7.037086 -3.363601
vt 7.037086 -2.550870
vt 7.297963 -3.363601
vt 7.297963 -4.176332
vt 7.297963 -2.550870
vt 7.297963 -1.738139
vt 7.558843 -4.176332
vt 7.558843 -3.363601
vt 7.558843 -2.550870
vt 7.819718 -3.363601
vt 7.819718 -4.176332
vt 7.819718 -2.550870
vt 7.819718 -1.738139
vt 8.080597 -4.176332
vt 8.080597 -3.363601
vt 8.080597 -2.550870
vt 8.341474 -3.363601
vt 8.341474 -4.176332
vt 8.341474 -2.550870
vt 8.341474 -1.738139
# 46 texture coordinates

vn 0.000000 -0.971724 0.236120
vn 0.000000 -1.000000 0.000000
vn 0.018198 -0.999807 0.007386
vn 0.853541 0.464578 0.235871
vn 0.778070 0.564428 0.275731
vn 0.712782 0.540208 0.447345
vn 0.656666 0.604945 0.450368
vn 0.583925 0.703180 0.405671
vn 0.536323 0.699769 0.471891
vn 0.440409 0.782495 0.440160
vn 0.239140 -0.960487 -0.142394
vn 0.356491 0.629113 0.690747
vn 0.417349 0.621007 0.663453
vn 0.292407 0.702384 0.648964
vn 0.265115 0.753553 0.601557
vn 0.290993 -0.917124 -0.272409
vn -0.056299 0.606208 0.793311
vn -0.002064 0.633337 0.773873
vn 0.000000 0.666346 0.745643
vn -0.045822 -0.947305 -0.317039
vn -0.404274 0.588774 0.699935
vn -0.473870 0.381791 0.793526
vn -0.450867 0.707508 0.544198
vn -0.434022 0.747641 0.502651
vn -0.103977 -0.977083 -0.185736
vn -0.703812 0.493126 0.511346
vn -0.600916 0.681778 0.417227
vn -0.558978 0.697221 0.448806
vn 0.000000 -0.954103 0.299478
vn -0.808201 0.588769 0.012746
vn -0.858899 0.497431 -0.121883
vn -0.616337 0.742719 0.261720
vn -0.470369 0.835725 0.283403
vn 0.222745 -0.956656 0.187602
vn -0.764322 0.438036 -0.473219
vn -0.723163 0.476579 -0.499907
vn -0.602715 0.692887 -0.395780
vn 0.204636 -0.971225 -0.121848
vn -0.416595 0.560505 -0.715739
vn -0.493883 0.661596 -0.564242
vn -0.332283 0.705755 -0.625698
vn -0.241779 0.857191 -0.454716
vn -0.198376 -0.980126 0.000000
vn 0.038763 0.691289 -0.721538
vn -0.000000 0.604610 -0.796522
vn -0.000000 0.620719 -0.784033
vn -0.284352 -0.954018 0.094838
vn 0.392521 0.564596 -0.726057
vn 0.445463 0.580904 -0.681259
vn 0.332283 0.705755 -0.625698
vn 0.241779 0.857191 -0.454716
vn -0.088153 -0.940618 0.327821
vn 0.701047 0.562238 -0.438660
vn 0.673643 0.575069 -0.464221
vn 0.602715 0.692887 -0.395780
vn 0.792298 0.563237 -0.234579
vn 0.844042 0.495864 -0.204235
vn 0.633555 0.751280 -0.184896
vn 0.485529 0.862661 -0.141696
# 59 normals

g Cylinder01
usemtl Material01
s 2
f 1/1/1 2/1/2 3/1/3
s 1
f 4/2/4 5/3/5 6/4/6
f 5/3/5 7/5/7 6/4/6
f 5/3/5 8/6/8 9/7/9
f 5/3/5 9/7/9 7/5/7
f 8/6/8 10/1/10 9/7/9
s 2
f 2/1/2 11/1/11 3/1/3
s 1
f 6/4/6 7/5/7 12/8/12
f 6/4/6 12/8/12 13/9/13
f 7/5/7 9/7/9 12/8/12
f 9/7/9 14/10/14 12/8/12
f 9/7/9 15/11/15 14/10/14
s 2
f 11/1/11 16/1/16 3/1/3
s 1
f 13/9/13 12/8/12 17/12/17
f 12/8/12 18/13/18 17/12/17
f 12/8/12 14/10/14 19/14/19
f 12/8/12 19/14/19 18/13/18
f 14/10/14 15/11/15 19/14/19
s 2
f 16/1/16 20/1/20 3/1/3
s 1
f 17/12/17 18/13/18 21/15/21
f 17/12/17 21/15/21 22/16/22
f 18/13/18 19/14/19 21/15/21
f 19/14/19 23/17/23 21/15/21
f 19/14/19 24/18/24 23/17/23
s 2
f 20/1/20 25/1/25 3/1/3
s 1
f 22/16/22 21/15/21 26/19/26
f 21/15/21 27/20/27 26/19/26
f 21/15/21 23/17/23 28/21/28
f 21/15/21 28/21/28 27/20/27
f 23/17/23 24/18/24 28/21/28
s 2
f 25/1/25 29/1/29 3/1/3
s 1
f 26/19/26 27/20/27 30/22/30
f 26/19/26 30/22/30 31/23/31
f 27/20/27 28/21/28 30/22/30
f 28/21/28 32/24/32 30/22/30
f 28/21/28 33/25/33 32/24/32
s 2
f 29/1/29 34/1/34 3/1/3
s 1
f 31/23/31 30/22/30 35/26/35
f 30/22/30 36/27/36 35/26/35
f 30/22/30 32/24/32 37/28/37
f 30/22/30 37/28/37 36/27/36
f 32/24/32 33/25/33 37/28/37
s 2
f 34/1/34 38/1/38 3/1/3
s 1
f 35/26/35 36/27/36 39/29/39
f 35/26/35 39/29/39 40/30/40
f 36/27/36 37/28/37 39/29/39
f 37/28/37 41/31/41 39/29/39
f 37/28/37 42/32/42 41/31/41
s 2
f 38/1/38 43/1/43 3/1/3
s 1
f 40/30/40 39/29/39 44/33/44
f 39/29/39 45/34/45 44/33/44
f 39/29/39 41/31/41 46/35/46
f 39/29/39 46/35/46 45/34/45
f 41/31/41 42/32/42 46/35/46
s 2
f 43/1/43 47/1/47 3/1/3
s 1
f 44/33/44 45/34/45 48/36/48
f 44/33/44 48/36/48 49/37/49
f 45/34/45 46/35/46 48/36/48
f 46/35/46 50/38/50 48/36/48
f 46/35/46 51/39/51 50/38/50
s 2
f 47/1/47 52/1/52 3/1/3
s 1
f 49/37/49 48/36/48 53/40/53
f 48/36/48 54/41/54 53/40/53
f 48/36/48 50/38/50 55/42/55
f 48/36/48 55/42/55 54/41/54
f 50/38/50 51/39/51 55/42/55
s 2
f 52/1/52 1/1/1 3/1/3
s 1
f 53/40/53 54/41/54 56/43/56
f 53/40/53 56/43/56 57/44/57
f 54/41/54 55/42/55 56/43/56
f 55/42/55 58/45/58 56/43/56
f 55/42/55 59/46/59 58/45/58
# 72 triangles in group

# 72 triangles total

