# Wavefront OBJ exported by MilkShape 3D

mtllib pearl.mtl

v 0.000000 5.250000 0.000000
v 0.000000 -0.750000 0.000000
v 1.500000 -0.348076 0.000000
v 1.060660 -0.348076 1.060660
v 0.000000 -0.348076 1.500000
v -1.060660 -0.348076 1.060660
v -1.500000 -0.348076 0.000000
v -1.060660 -0.348076 -1.060660
v -0.000000 -0.348076 -1.500000
v 1.060660 -0.348076 -1.060660
v 2.598076 0.750000 0.000000
v 1.837117 0.750000 1.837117
v 0.000000 0.750000 2.598076
v -1.837117 0.750000 1.837117
v -2.598076 0.750000 0.000000
v -1.837117 0.750000 -1.837117
v -0.000000 0.750000 -2.598076
v 1.837117 0.750000 -1.837117
v 3.000000 2.250000 0.000000
v 2.121320 2.250000 2.121321
v 0.000000 2.250000 3.000000
v -2.121320 2.250000 2.121321
v -3.000000 2.250000 0.000000
v -2.121320 2.250000 -2.121320
v -0.000000 2.250000 -3.000000
v 2.121320 2.250000 -2.121320
v 2.598076 3.750000 0.000000
v 1.837117 3.750000 1.837117
v 0.000000 3.750000 2.598076
v -1.837117 3.750000 1.837117
v -2.598076 3.750000 0.000000
v -1.837117 3.750000 -1.837117
v -0.000000 3.750000 -2.598076
v 1.837117 3.750000 -1.837117
v 1.500000 4.848076 0.000000
v 1.060660 4.848076 1.060660
v 0.000000 4.848076 1.500000
v -1.060660 4.848076 1.060660
v -1.500000 4.848076 0.000000
v -1.060660 4.848076 -1.060660
v -0.000000 4.848076 -1.500000
v 1.060660 4.848076 -1.060660
# 42 vertices

vt 0.500000 0.000000
vt 0.750000 0.066987
vt 0.676777 0.066987
vt 0.500000 1.000000
vt 0.676777 0.933013
vt 0.750000 0.933013
vt 0.500000 0.066987
vt 0.500000 0.933013
vt 0.323223 0.066987
vt 0.323223 0.933013
vt 0.250000 0.066987
vt 0.250000 0.933013
vt 0.933013 0.250000
vt 0.806186 0.250000
vt 0.500000 0.250000
vt 0.193814 0.250000
vt 0.066987 0.250000
vt 1.000000 0.500000
vt 0.853553 0.500000
vt 0.500000 0.500000
vt 0.146447 0.500000
vt 0.000000 0.500000
vt 0.933013 0.750000
vt 0.806186 0.750000
vt 0.500000 0.750000
vt 0.193814 0.750000
vt 0.066987 0.750000
# 27 texture coordinates

vn 0.000000 -1.000000 -0.000000
vn 0.571609 -0.820526 0.000000
vn 0.350642 -0.868389 0.350642
vn 0.000000 1.000000 -0.000000
vn 0.350642 0.868389 0.350642
vn 0.571609 0.820526 0.000000
vn -0.000000 -0.820526 0.571609
vn -0.000000 0.820526 0.571609
vn -0.350642 -0.868389 0.350642
vn -0.350642 0.868389 0.350642
vn -0.571609 -0.820526 0.000000
vn -0.571609 0.820526 0.000000
vn -0.350642 -0.868389 -0.350642
vn -0.350642 0.868389 -0.350642
vn 0.000000 -0.820526 -0.571609
vn 0.000000 0.820526 -0.571609
vn 0.350642 -0.868389 -0.350642
vn 0.350642 0.868389 -0.350642
vn 0.863800 -0.503834 0.000000
vn 0.610799 -0.503834 0.610799
vn 0.000000 -0.503834 0.863800
vn -0.610799 -0.503834 0.610799
vn -0.863800 -0.503834 0.000000
vn -0.610799 -0.503834 -0.610799
vn 0.000000 -0.503834 -0.863800
vn 0.610799 -0.503834 -0.610799
vn 1.000000 0.000000 -0.000000
vn 0.707107 0.000000 0.707107
vn 0.000000 -0.000000 1.000000
vn -0.707107 0.000000 0.707107
vn -1.000000 0.000000 -0.000000
vn -0.707107 0.000000 -0.707107
vn 0.000000 0.000000 -1.000000
vn 0.707107 0.000000 -0.707107
vn 0.863800 0.503834 0.000000
vn 0.610799 0.503834 0.610799
vn 0.000000 0.503834 0.863800
vn -0.610799 0.503834 0.610799
vn -0.863800 0.503834 0.000000
vn -0.610799 0.503834 -0.610799
vn 0.000000 0.503834 -0.863800
vn 0.610799 0.503834 -0.610799
# 42 normals

g Sphere05
usemtl Material01
s 1
f 2/1/1 3/2/2 4/3/3
f 1/4/4 36/5/5 35/6/6
f 2/1/1 4/3/3 5/7/7
f 1/4/4 37/8/8 36/5/5
f 2/1/1 5/7/7 6/9/9
f 1/4/4 38/10/10 37/8/8
f 2/1/1 6/9/9 7/11/11
f 1/4/4 39/12/12 38/10/10
f 2/1/1 7/11/11 8/9/13
f 1/4/4 40/10/14 39/12/12
f 2/1/1 8/9/13 9/7/15
f 1/4/4 41/8/16 40/10/14
f 2/1/1 9/7/15 10/3/17
f 1/4/4 42/5/18 41/8/16
f 2/1/1 10/3/17 3/2/2
f 1/4/4 35/6/6 42/5/18
f 3/2/2 11/13/19 12/14/20
f 3/2/2 12/14/20 4/3/3
f 4/3/3 12/14/20 5/7/7
f 12/14/20 13/15/21 5/7/7
f 5/7/7 13/15/21 14/16/22
f 5/7/7 14/16/22 6/9/9
f 6/9/9 14/16/22 7/11/11
f 14/16/22 15/17/23 7/11/11
f 7/11/11 15/17/23 16/16/24
f 7/11/11 16/16/24 8/9/13
f 8/9/13 16/16/24 9/7/15
f 16/16/24 17/15/25 9/7/15
f 9/7/15 17/15/25 18/14/26
f 9/7/15 18/14/26 10/3/17
f 10/3/17 18/14/26 3/2/2
f 18/14/26 11/13/19 3/2/2
f 11/13/19 19/18/27 12/14/20
f 19/18/27 20/19/28 12/14/20
f 12/14/20 20/19/28 21/20/29
f 12/14/20 21/20/29 13/15/21
f 13/15/21 21/20/29 14/16/22
f 21/20/29 22/21/30 14/16/22
f 14/16/22 22/21/30 23/22/31
f 14/16/22 23/22/31 15/17/23
f 15/17/23 23/22/31 16/16/24
f 23/22/31 24/21/32 16/16/24
f 16/16/24 24/21/32 25/20/33
f 16/16/24 25/20/33 17/15/25
f 17/15/25 25/20/33 18/14/26
f 25/20/33 26/19/34 18/14/26
f 18/14/26 26/19/34 19/18/27
f 18/14/26 19/18/27 11/13/19
f 19/18/27 27/23/35 28/24/36
f 19/18/27 28/24/36 20/19/28
f 20/19/28 28/24/36 21/20/29
f 28/24/36 29/25/37 21/20/29
f 21/20/29 29/25/37 30/26/38
f 21/20/29 30/26/38 22/21/30
f 22/21/30 30/26/38 23/22/31
f 30/26/38 31/27/39 23/22/31
f 23/22/31 31/27/39 32/26/40
f 23/22/31 32/26/40 24/21/32
f 24/21/32 32/26/40 25/20/33
f 32/26/40 33/25/41 25/20/33
f 25/20/33 33/25/41 34/24/42
f 25/20/33 34/24/42 26/19/34
f 26/19/34 34/24/42 19/18/27
f 34/24/42 27/23/35 19/18/27
f 27/23/35 35/6/6 28/24/36
f 35/6/6 36/5/5 28/24/36
f 28/24/36 36/5/5 37/8/8
f 28/24/36 37/8/8 29/25/37
f 29/25/37 37/8/8 30/26/38
f 37/8/8 38/10/10 30/26/38
f 30/26/38 38/10/10 39/12/12
f 30/26/38 39/12/12 31/27/39
f 31/27/39 39/12/12 32/26/40
f 39/12/12 40/10/14 32/26/40
f 32/26/40 40/10/14 41/8/16
f 32/26/40 41/8/16 33/25/41
f 33/25/41 41/8/16 34/24/42
f 41/8/16 42/5/18 34/24/42
f 34/24/42 42/5/18 35/6/6
f 34/24/42 35/6/6 27/23/35
# 80 triangles in group

# 80 triangles total

