# Wavefront OBJ exported by MilkShape 3D

mtllib plums.mtl

v -3.273871 1.950477 -4.874278
v -4.615909 1.249521 1.675262
v -4.356105 -0.141396 0.920786
v -3.150234 0.958665 1.285608
v -3.792772 2.553183 1.324600
v -5.395755 2.438588 0.983875
v -5.743912 0.773245 0.734306
v -3.939231 -0.867161 -0.796354
v -1.988090 0.912776 -0.206059
v -3.027740 3.492759 -0.142968
v -5.621420 3.307340 -0.694272
v -6.184751 0.612761 -1.098086
v -3.524518 -0.650553 -2.820273
v -1.573378 1.129384 -2.229977
v -2.613027 3.709366 -2.166888
v -5.206707 3.523947 -2.718191
v -5.770039 0.829369 -3.122006
v -3.270374 0.425691 -4.377901
v -2.064502 1.525750 -4.013078
v -2.707041 3.120268 -3.974086
v -4.310023 3.005673 -4.314810
v -4.658184 1.340331 -4.564381
v 2.859769 2.001926 -4.230789
v 5.027294 1.198072 2.672276
v 4.877221 -0.397026 1.821892
v 6.210497 0.864520 1.534672
v 5.622588 2.693106 1.908611
v 3.925960 2.561689 2.426939
v 3.465300 0.651881 2.373343
v 4.370509 -1.229331 -0.022042
v 6.527798 0.811895 -0.486774
v 5.576540 3.770609 0.118276
v 2.831340 3.557971 0.956948
v 2.085974 0.467839 0.870227
v 3.700706 -0.980926 -2.155208
v 5.857996 1.060299 -2.619937
v 4.906737 4.019014 -2.014890
v 2.161538 3.806375 -1.176217
v 1.416171 0.716243 -1.262938
v 3.123655 0.253307 -3.762804
v 4.456933 1.514851 -4.050023
v 3.869025 3.343438 -3.676083
v 2.172397 3.212021 -3.157756
v 1.711733 1.302213 -3.211352
v -0.632554 1.934341 2.730123
v -1.764725 1.265656 8.789301
v -1.538173 -0.061225 8.089453
v -0.431112 0.988191 8.404329
v -1.017648 2.509300 8.451612
v -2.487211 2.399981 8.165960
v -2.808912 0.811308 7.942135
v -1.181933 -0.753578 6.499725
v 0.609329 0.944415 7.009209
v -0.339706 3.405620 7.085719
v -2.717506 3.228737 6.623523
v -3.238031 0.658212 6.261358
v -0.832073 -0.546943 4.627336
v 0.959188 1.151050 5.136820
v 0.010154 3.612256 5.213327
v -2.367646 3.435372 4.751132
v -2.888171 0.864847 4.388969
v -0.622230 0.479754 3.187476
v 0.484833 1.529168 3.502354
v -0.101704 3.050278 3.549641
v -1.571266 2.940958 3.263986
v -1.892968 1.352286 3.040157
# 66 vertices

vt 0.000000 0.000000
vt 0.000000 0.200000
vt 0.200000 0.200000
vt 0.000000 1.000000
vt 0.200000 0.800000
vt 0.000000 0.800000
vt 0.200000 0.000000
vt 0.400000 0.200000
vt 0.200000 1.000000
vt 0.400000 0.800000
vt 0.400000 0.000000
vt 0.600000 0.200000
vt 0.400000 1.000000
vt 0.600000 0.800000
vt 0.600000 0.000000
vt 0.800000 0.200000
vt 0.600000 1.000000
vt 0.800000 0.800000
vt 0.800000 0.000000
vt 1.000000 0.200000
vt 0.800000 1.000000
vt 1.000000 0.800000
vt 0.000000 0.400000
vt 0.200000 0.400000
vt 0.400000 0.400000
vt 0.600000 0.400000
vt 0.800000 0.400000
vt 1.000000 0.400000
vt 0.000000 0.600000
vt 0.200000 0.600000
vt 0.400000 0.600000
vt 0.600000 0.600000
vt 0.800000 0.600000
vt 1.000000 0.600000
# 34 texture coordinates

vn -0.199641 -0.104267 0.974306
vn -0.205930 -0.779733 0.591277
vn 0.593070 -0.244392 0.767164
vn 0.199640 0.104281 -0.974305
vn 0.793268 -0.079667 -0.603638
vn 0.331931 -0.615549 -0.714788
vn 0.191545 0.478362 0.857019
vn 0.514655 0.695077 -0.501995
vn -0.622055 0.494234 0.607273
vn -0.286992 0.578592 -0.763457
vn -0.756872 -0.323362 0.567962
vn -0.552177 -0.208446 -0.807249
vn 0.269224 -0.941205 0.204089
vn 0.880861 -0.253089 0.400038
vn 0.443271 0.787514 0.428174
vn -0.681333 0.707117 0.189132
vn -0.923969 -0.382114 0.016410
vn -0.100799 -0.923873 -0.369185
vn 0.976806 -0.202976 -0.068202
vn 0.541718 0.838933 -0.052275
vn -0.582886 0.758537 -0.291318
vn -0.828025 -0.332002 -0.451830
vn 0.297722 -0.099663 0.949436
vn 0.106889 -0.763907 0.636413
vn 0.892813 -0.236948 0.383066
vn -0.297732 0.099717 -0.949427
vn 0.402340 -0.077860 -0.912174
vn -0.056562 -0.595994 -0.800994
vn 0.585725 0.463071 0.665201
vn 0.205712 0.681133 -0.702666
vn -0.247654 0.480370 0.841375
vn -0.626775 0.563753 -0.537899
vn -0.388559 -0.313093 0.866600
vn -0.875341 -0.202736 -0.438949
vn 0.349604 -0.935510 0.050973
vn 0.965770 -0.247398 -0.077994
vn 0.603823 0.778894 0.169473
vn -0.506123 0.697890 0.506744
vn -0.802980 -0.374356 0.463769
vn -0.282285 -0.915749 -0.285866
vn 0.821593 -0.198300 -0.534474
vn 0.453270 0.833575 -0.315753
vn -0.658866 0.751815 0.025867
vn -0.945767 -0.324811 0.004734
vn -0.182616 -0.101542 0.977927
vn -0.201619 -0.770245 0.605039
vn 0.610666 -0.239449 0.754818
vn 0.182607 0.101587 -0.977924
vn 0.785483 -0.078730 -0.613855
vn 0.324590 -0.603652 -0.728180
vn 0.207392 0.469122 0.858437
vn 0.510660 0.686555 -0.517560
vn -0.614395 0.485912 0.621617
vn -0.302868 0.569456 -0.764193
vn -0.750978 -0.316871 0.579332
vn -0.569543 -0.204980 -0.795993
vn 0.282029 -0.937141 0.205492
vn 0.889570 -0.248874 0.383050
vn 0.453759 0.781859 0.427552
vn -0.683078 0.701001 0.204943
vn -0.925942 -0.376422 0.030638
vn -0.113777 -0.918799 -0.377972
vn 0.976267 -0.199773 -0.083627
vn 0.546420 0.835106 -0.063435
vn -0.592817 0.753645 -0.283877
vn -0.837779 -0.326959 -0.437292
# 66 normals

g Sphere02
usemtl Material02
s 1
f 2/1/1 3/2/2 4/3/3
f 1/4/4 19/5/5 18/6/6
f 2/7/1 4/3/3 5/8/7
f 1/9/4 20/10/8 19/5/5
f 2/11/1 5/8/7 6/12/9
f 1/13/4 21/14/10 20/10/8
f 2/15/1 6/12/9 7/16/11
f 1/17/4 22/18/12 21/14/10
f 2/19/1 7/16/11 3/20/2
f 1/21/4 18/22/6 22/18/12
f 3/2/2 8/23/13 4/3/3
f 8/23/13 9/24/14 4/3/3
f 4/3/3 9/24/14 10/25/15
f 4/3/3 10/25/15 5/8/7
f 5/8/7 10/25/15 6/12/9
f 10/25/15 11/26/16 6/12/9
f 6/12/9 11/26/16 12/27/17
f 6/12/9 12/27/17 7/16/11
f 7/16/11 12/27/17 3/20/2
f 12/27/17 8/28/13 3/20/2
f 8/23/13 13/29/18 14/30/19
f 8/23/13 14/30/19 9/24/14
f 9/24/14 14/30/19 10/25/15
f 14/30/19 15/31/20 10/25/15
f 10/25/15 15/31/20 16/32/21
f 10/25/15 16/32/21 11/26/16
f 11/26/16 16/32/21 12/27/17
f 16/32/21 17/33/22 12/27/17
f 12/27/17 17/33/22 13/34/18
f 12/27/17 13/34/18 8/28/13
f 13/29/18 18/6/6 14/30/19
f 18/6/6 19/5/5 14/30/19
f 14/30/19 19/5/5 20/10/8
f 14/30/19 20/10/8 15/31/20
f 15/31/20 20/10/8 16/32/21
f 20/10/8 21/14/10 16/32/21
f 16/32/21 21/14/10 22/18/12
f 16/32/21 22/18/12 17/33/22
f 17/33/22 22/18/12 13/34/18
f 22/18/12 18/22/6 13/34/18
# 40 triangles in group

g Duplicate01
usemtl Material02
f 24/1/23 25/2/24 26/3/25
f 23/4/26 41/5/27 40/6/28
f 24/7/23 26/3/25 27/8/29
f 23/9/26 42/10/30 41/5/27
f 24/11/23 27/8/29 28/12/31
f 23/13/26 43/14/32 42/10/30
f 24/15/23 28/12/31 29/16/33
f 23/17/26 44/18/34 43/14/32
f 24/19/23 29/16/33 25/20/24
f 23/21/26 40/22/28 44/18/34
f 25/2/24 30/23/35 26/3/25
f 30/23/35 31/24/36 26/3/25
f 26/3/25 31/24/36 32/25/37
f 26/3/25 32/25/37 27/8/29
f 27/8/29 32/25/37 28/12/31
f 32/25/37 33/26/38 28/12/31
f 28/12/31 33/26/38 34/27/39
f 28/12/31 34/27/39 29/16/33
f 29/16/33 34/27/39 25/20/24
f 34/27/39 30/28/35 25/20/24
f 30/23/35 35/29/40 36/30/41
f 30/23/35 36/30/41 31/24/36
f 31/24/36 36/30/41 32/25/37
f 36/30/41 37/31/42 32/25/37
f 32/25/37 37/31/42 38/32/43
f 32/25/37 38/32/43 33/26/38
f 33/26/38 38/32/43 34/27/39
f 38/32/43 39/33/44 34/27/39
f 34/27/39 39/33/44 35/34/40
f 34/27/39 35/34/40 30/28/35
f 35/29/40 40/6/28 36/30/41
f 40/6/28 41/5/27 36/30/41
f 36/30/41 41/5/27 42/10/30
f 36/30/41 42/10/30 37/31/42
f 37/31/42 42/10/30 38/32/43
f 42/10/30 43/14/32 38/32/43
f 38/32/43 43/14/32 44/18/34
f 38/32/43 44/18/34 39/33/44
f 39/33/44 44/18/34 35/34/40
f 44/18/34 40/22/28 35/34/40
# 40 triangles in group

g Duplicate02
usemtl Material02
f 46/1/45 47/2/46 48/3/47
f 45/4/48 63/5/49 62/6/50
f 46/7/45 48/3/47 49/8/51
f 45/9/48 64/10/52 63/5/49
f 46/11/45 49/8/51 50/12/53
f 45/13/48 65/14/54 64/10/52
f 46/15/45 50/12/53 51/16/55
f 45/17/48 66/18/56 65/14/54
f 46/19/45 51/16/55 47/20/46
f 45/21/48 62/22/50 66/18/56
f 47/2/46 52/23/57 48/3/47
f 52/23/57 53/24/58 48/3/47
f 48/3/47 53/24/58 54/25/59
f 48/3/47 54/25/59 49/8/51
f 49/8/51 54/25/59 50/12/53
f 54/25/59 55/26/60 50/12/53
f 50/12/53 55/26/60 56/27/61
f 50/12/53 56/27/61 51/16/55
f 51/16/55 56/27/61 47/20/46
f 56/27/61 52/28/57 47/20/46
f 52/23/57 57/29/62 58/30/63
f 52/23/57 58/30/63 53/24/58
f 53/24/58 58/30/63 54/25/59
f 58/30/63 59/31/64 54/25/59
f 54/25/59 59/31/64 60/32/65
f 54/25/59 60/32/65 55/26/60
f 55/26/60 60/32/65 56/27/61
f 60/32/65 61/33/66 56/27/61
f 56/27/61 61/33/66 57/34/62
f 56/27/61 57/34/62 52/28/57
f 57/29/62 62/6/50 58/30/63
f 62/6/50 63/5/49 58/30/63
f 58/30/63 63/5/49 64/10/52
f 58/30/63 64/10/52 59/31/64
f 59/31/64 64/10/52 60/32/65
f 64/10/52 65/14/54 60/32/65
f 60/32/65 65/14/54 66/18/56
f 60/32/65 66/18/56 61/33/66
f 61/33/66 66/18/56 57/34/62
f 66/18/56 62/22/50 57/34/62
# 40 triangles in group

# 120 triangles total

