# Wavefront OBJ exported by MilkShape 3D

mtllib poisonflower.mtl

v 26.362139 8.419580 4.214033
v 33.807301 3.787985 -0.964168
v 23.353884 8.415655 -6.201291
v 17.181551 8.969023 6.013191
v 13.393764 8.965096 -7.382264
v 5.766236 4.998012 4.695026
v 3.710534 5.009793 -6.419428
v 0.121000 -0.532572 1.485797
v -0.491493 -0.532573 -0.855734
v -25.903160 8.419580 -5.537639
v -33.437565 3.787985 -0.490159
v -23.077147 8.415655 4.928599
v -16.692577 8.969023 -7.176301
v -13.139143 8.965096 6.283223
v -5.301999 4.998012 -5.659117
v -3.440585 5.009793 5.489528
v 0.286363 -0.532572 -2.351852
v 0.857903 -0.532573 0.000014
v -4.245783 8.419580 25.624058
v 0.932417 3.787985 33.069218
v 6.169543 8.415655 22.615803
v -6.044941 8.969023 16.443466
v 7.350516 8.965096 12.655680
v -4.726776 4.998012 5.028151
v 6.387679 5.009793 2.972448
v -1.517548 -0.532572 -0.617086
v 0.823984 -0.532573 -1.229579
v 5.505893 8.419580 -26.641253
v 0.458412 3.787985 -34.175659
v -4.960350 8.415655 -23.815237
v 7.144555 8.969023 -17.430668
v -6.314972 8.965096 -13.877234
v 5.627367 4.998012 -6.040085
v -5.521280 5.009793 -4.178670
v 2.320102 -0.532572 -0.451723
v -0.031764 -0.532573 0.119817
v 17.857479 11.430275 -13.651962
v 19.705233 5.308728 -21.471815
v 12.195608 11.425089 -19.558187
v 11.776780 12.156471 -5.333451
v 4.537243 12.151281 -12.973997
v 5.305608 6.908013 -0.053866
v -0.134247 6.923584 -6.987136
v 1.100410 -0.401725 0.703407
v -0.139191 -0.401726 -0.659261
v -17.305565 11.430275 12.864442
v -19.425102 5.308728 20.615047
v -11.853266 11.425089 18.964664
v -10.938256 12.156471 4.763211
v -3.969779 12.151281 12.651763
v -4.286770 6.908013 -0.287322
v 0.907802 6.923584 6.831574
v -0.057706 -0.401725 -0.897371
v 1.133582 -0.401726 0.507730
v -12.569464 11.430275 -17.803728
v -20.355883 5.308728 -19.787676
v -18.573599 11.425089 -12.245795
v -4.358341 12.156471 -11.578776
v -12.124076 12.151281 -4.473687
v 0.807506 6.908013 -5.016448
v -6.219648 6.923584 0.301575
v 1.491268 -0.401725 -0.798673
v 0.107176 -0.401726 0.416954
v 13.774574 11.430275 18.107641
v 21.525183 5.308728 20.227175
v 19.874796 11.425089 12.655338
v 5.673344 12.156471 11.740331
v 13.561896 12.151281 4.771855
v 0.622808 6.908013 5.088847
v 7.741708 6.923584 -0.105724
v 0.012758 -0.401725 0.859778
v 1.417860 -0.401726 -0.331507
v 0.000000 -2.119985 -0.337634
v 0.701987 -1.389246 -0.337634
v 0.350993 -1.389246 0.612401
v 0.000000 12.444556 -0.206672
v 1.103027 11.717730 1.847714
v 2.206053 11.717730 -0.206672
v -0.350993 -1.389246 0.612401
v -1.103027 11.717730 1.847714
v -0.701987 -1.389246 -0.337634
v -2.206053 11.717730 -0.206672
v -0.350993 -1.389246 -1.287668
v -1.103027 11.717730 -2.261065
v 0.350993 -1.389246 -1.287668
v 1.103027 11.717730 -2.261065
v 1.215877 3.302952 -0.206672
v 0.607938 3.302952 1.438838
v -0.607938 3.302952 1.438838
v -1.215877 3.302952 -0.206672
v -0.607938 3.302952 -1.852182
v 0.607938 3.302952 -1.852182
v 4.412107 7.019430 -0.206672
v 2.206053 7.019430 3.902109
v -2.206053 7.019430 3.902109
v -4.412107 7.019430 -0.206672
v -2.206053 7.019430 -4.315449
v 2.206053 7.019430 -4.315449
v 3.820997 9.731991 -0.206672
v 1.910498 9.731991 3.351637
v -1.910498 9.731991 3.351637
v -3.820997 9.731991 -0.206672
v -1.910498 9.731991 -3.764980
v 1.910498 9.731991 -3.764980
# 104 vertices

vt 0.079784 0.888398
vt 0.154878 0.992222
vt 0.237299 0.885162
vt 0.046286 0.738265
vt 0.264669 0.734986
vt 0.065375 0.573209
vt 0.232533 0.582919
vt 0.129667 0.466400
vt 0.165027 0.466400
vt 0.415722 0.896211
vt 0.490816 1.000034
vt 0.573237 0.892974
vt 0.382224 0.746078
vt 0.600607 0.742799
vt 0.401312 0.581022
vt 0.568471 0.590732
vt 0.465604 0.474212
vt 0.500964 0.474212
vt 0.277981 0.364924
vt 0.414346 0.364924
vt 0.346164 0.184619
vt 0.277981 0.340069
vt 0.492250 -0.049829
vt 0.706519 0.340069
vt 0.209799 0.184619
vt 0.063712 -0.049829
vt 0.141617 0.364924
vt -0.150556 0.340069
vt 0.209799 0.545230
vt 0.063712 0.729969
vt 0.346164 0.545230
vt 0.492250 0.729969
vt 0.514172 0.340069
vt 0.396077 0.027771
vt 0.159886 0.027771
vt 0.041791 0.340069
vt 0.159886 0.652368
vt 0.396077 0.652368
vt 1.135056 0.340069
vt 0.706519 -0.439729
vt -0.150556 -0.439729
vt -0.579094 0.340069
vt -0.150556 1.119867
vt 0.706519 1.119867
vt 1.020231 0.340069
vt 0.649106 -0.335257
vt -0.093143 -0.335257
vt -0.464268 0.340069
vt -0.093143 1.015395
vt 0.649106 1.015395
# 50 texture coordinates

vn 0.262332 0.961970 -0.076132
vn 0.455800 0.880243 -0.131980
vn 0.193821 0.979426 -0.056204
vn -0.075907 0.996893 0.021027
vn -0.221628 0.973825 0.050449
vn -0.491905 0.864568 0.102721
vn -0.609726 0.781662 0.131301
vn -0.710478 0.685718 0.158151
vn -0.688371 0.702654 0.180063
vn -0.263621 0.961970 0.071542
vn -0.458034 0.880243 0.124005
vn -0.194773 0.979426 0.052813
vn 0.076262 0.996893 -0.019699
vn 0.222475 0.973825 -0.046573
vn 0.493623 0.864568 -0.094120
vn 0.611924 0.781662 -0.120640
vn 0.713130 0.685718 -0.145728
vn 0.691408 0.702655 -0.168023
vn 0.076132 0.961970 0.262332
vn 0.131980 0.880243 0.455800
vn 0.056204 0.979426 0.193821
vn -0.021027 0.996893 -0.075907
vn -0.050449 0.973825 -0.221628
vn -0.102721 0.864568 -0.491905
vn -0.131301 0.781662 -0.609726
vn -0.158151 0.685718 -0.710478
vn -0.180062 0.702654 -0.688371
vn -0.071542 0.961970 -0.263621
vn -0.124005 0.880243 -0.458034
vn -0.052813 0.979426 -0.194773
vn 0.019699 0.996893 0.076262
vn 0.046573 0.973825 0.222475
vn 0.094120 0.864568 0.493623
vn 0.120640 0.781662 0.611924
vn 0.145728 0.685718 0.713130
vn 0.168023 0.702655 0.691408
vn 0.283392 0.919482 -0.272475
vn 0.484686 0.740668 -0.465284
vn 0.205827 0.958373 -0.197882
vn -0.099198 0.990707 0.093052
vn -0.276554 0.931485 0.236332
vn -0.528478 0.727784 0.437082
vn -0.611518 0.606559 0.508067
vn -0.669520 0.481211 0.565843
vn -0.639385 0.502873 0.581640
vn -0.292728 0.919482 0.262419
vn -0.500629 0.740668 0.448086
vn -0.212607 0.958373 0.190578
vn 0.102385 0.990707 -0.089533
vn 0.284634 0.931485 -0.226536
vn 0.543410 0.727784 -0.418372
vn 0.628877 0.606559 -0.486415
vn 0.688861 0.481210 -0.542133
vn 0.659295 0.502873 -0.558971
vn -0.267487 0.919482 -0.288104
vn -0.456755 0.740669 -0.492733
vn -0.194259 0.958373 -0.209249
vn 0.091306 0.990707 0.100807
vn 0.231469 0.931485 0.280637
vn 0.427792 0.727784 0.536026
vn 0.497317 0.606559 0.620292
vn 0.554072 0.481210 0.679294
vn 0.570392 0.502873 0.649439
vn 0.262419 0.919482 0.292728
vn 0.448086 0.740668 0.500629
vn 0.190578 0.958373 0.212607
vn -0.089533 0.990707 -0.102385
vn -0.226536 0.931485 -0.284634
vn -0.418372 0.727784 -0.543410
vn -0.486415 0.606559 -0.628878
vn -0.542132 0.481210 -0.688861
vn -0.558970 0.502873 -0.659297
vn 0.000000 -1.000000 -0.000000
vn 0.946506 -0.322687 -0.000250
vn 0.501993 -0.538427 0.676831
vn 0.000000 1.000000 0.000000
vn 0.281277 0.841436 0.461376
vn 0.637946 0.770081 0.000000
vn -0.532651 -0.422683 0.733227
vn -0.321609 0.785441 0.528819
vn -0.903837 -0.427877 -0.000188
vn -0.559241 0.829005 0.000000
vn -0.538458 -0.396005 -0.743803
vn -0.321609 0.785441 -0.528819
vn 0.507541 -0.521030 -0.686243
vn 0.281278 0.841436 -0.461377
vn 0.915665 -0.401941 -0.000187
vn 0.499715 -0.432504 0.750483
vn -0.522683 -0.415945 0.744172
vn -0.928591 -0.371104 -0.000187
vn -0.526787 -0.396476 -0.751866
vn 0.503823 -0.413422 -0.758449
vn 0.968415 -0.249342 -0.000000
vn 0.498234 -0.230151 0.835939
vn -0.510778 -0.232623 0.827643
vn -0.966635 -0.256157 -0.000000
vn -0.510778 -0.232624 -0.827643
vn 0.498233 -0.230151 -0.835939
vn 0.898864 0.438227 -0.000000
vn 0.458920 0.456660 0.762137
vn -0.458921 0.456660 0.762137
vn -0.898864 0.438227 0.000000
vn -0.458921 0.456659 -0.762138
vn 0.458921 0.456659 -0.762138
# 104 normals

g Duplicate05
usemtl leaves
s 1
f 1/1/1 2/2/2 3/3/3
f 4/4/4 1/1/1 3/3/3
f 4/4/4 3/3/3 5/5/5
f 6/6/6 4/4/4 5/5/5
f 6/6/6 5/5/5 7/7/7
f 8/8/8 6/6/6 7/7/7
f 8/8/8 7/7/7 9/9/9
# 7 triangles in group

g Duplicate01
usemtl leaves
f 10/1/10 11/2/11 12/3/12
f 13/4/13 10/1/10 12/3/12
f 13/4/13 12/3/12 14/5/14
f 15/6/15 13/4/13 14/5/14
f 15/6/15 14/5/14 16/7/16
f 17/8/17 15/6/15 16/7/16
f 17/8/17 16/7/16 18/9/18
# 7 triangles in group

g Duplicate02
usemtl leaves
f 19/1/19 20/2/20 21/3/21
f 22/4/22 19/1/19 21/3/21
f 22/4/22 21/3/21 23/5/23
f 24/6/24 22/4/22 23/5/23
f 24/6/24 23/5/23 25/7/25
f 26/8/26 24/6/24 25/7/25
f 26/8/26 25/7/25 27/9/27
f 28/1/28 29/2/29 30/3/30
f 31/4/31 28/1/28 30/3/30
f 31/4/31 30/3/30 32/5/32
f 33/6/33 31/4/31 32/5/32
f 33/6/33 32/5/32 34/7/34
f 35/8/35 33/6/33 34/7/34
f 35/8/35 34/7/34 36/9/36
# 14 triangles in group

g Duplicate03
usemtl leaves
f 37/10/37 38/11/38 39/12/39
f 40/13/40 37/10/37 39/12/39
f 40/13/40 39/12/39 41/14/41
f 42/15/42 40/13/40 41/14/41
f 42/15/42 41/14/41 43/16/43
f 44/17/44 42/15/42 43/16/43
f 44/17/44 43/16/43 45/18/45
# 7 triangles in group

g Duplicate04
usemtl leaves
f 46/10/46 47/11/47 48/12/48
f 49/13/49 46/10/46 48/12/48
f 49/13/49 48/12/48 50/14/50
f 51/15/51 49/13/49 50/14/50
f 51/15/51 50/14/50 52/16/52
f 53/17/53 51/15/51 52/16/52
f 53/17/53 52/16/52 54/18/54
# 7 triangles in group

g Duplicate05
usemtl leaves
f 55/10/55 56/11/56 57/12/57
f 58/13/58 55/10/55 57/12/57
f 58/13/58 57/12/57 59/14/59
f 60/15/60 58/13/58 59/14/59
f 60/15/60 59/14/59 61/16/61
f 62/17/62 60/15/60 61/16/61
f 62/17/62 61/16/61 63/18/63
# 7 triangles in group

g Duplicate06
usemtl leaves
f 64/10/64 65/11/65 66/12/66
f 67/13/67 64/10/64 66/12/66
f 67/13/67 66/12/66 68/14/68
f 69/15/69 67/13/67 68/14/68
f 69/15/69 68/14/68 70/16/70
f 71/17/71 69/15/69 70/16/70
f 71/17/71 70/16/70 72/18/72
# 7 triangles in group

g Sphere01
usemtl Material01
f 73/19/73 74/20/74 75/21/75
f 76/22/76 77/23/77 78/24/78
f 73/19/73 75/21/75 79/25/79
f 76/22/76 80/26/80 77/23/77
f 73/19/73 79/25/79 81/27/81
f 76/22/76 82/28/82 80/26/80
f 73/19/73 81/27/81 83/29/83
f 76/22/76 84/30/84 82/28/82
f 73/19/73 83/29/83 85/31/85
f 76/22/76 86/32/86 84/30/84
f 73/19/73 85/31/85 74/20/74
f 76/22/76 78/24/78 86/32/86
f 74/20/74 87/33/87 88/34/88
f 74/20/74 88/34/88 75/21/75
f 75/21/75 88/34/88 79/25/79
f 88/34/88 89/35/89 79/25/79
f 79/25/79 89/35/89 90/36/90
f 79/25/79 90/36/90 81/27/81
f 81/27/81 90/36/90 83/29/83
f 90/36/90 91/37/91 83/29/83
f 83/29/83 91/37/91 92/38/92
f 83/29/83 92/38/92 85/31/85
f 85/31/85 92/38/92 74/20/74
f 92/38/92 87/33/87 74/20/74
f 87/33/87 93/39/93 88/34/88
f 93/39/93 94/40/94 88/34/88
f 88/34/88 94/40/94 95/41/95
f 88/34/88 95/41/95 89/35/89
f 89/35/89 95/41/95 90/36/90
f 95/41/95 96/42/96 90/36/90
f 90/36/90 96/42/96 97/43/97
f 90/36/90 97/43/97 91/37/91
f 91/37/91 97/43/97 92/38/92
f 97/43/97 98/44/98 92/38/92
f 92/38/92 98/44/98 93/39/93
f 92/38/92 93/39/93 87/33/87
f 93/39/93 99/45/99 100/46/100
f 93/39/93 100/46/100 94/40/94
f 94/40/94 100/46/100 95/41/95
f 100/46/100 101/47/101 95/41/95
f 95/41/95 101/47/101 102/48/102
f 95/41/95 102/48/102 96/42/96
f 96/42/96 102/48/102 97/43/97
f 102/48/102 103/49/103 97/43/97
f 97/43/97 103/49/103 104/50/104
f 97/43/97 104/50/104 98/44/98
f 98/44/98 104/50/104 93/39/93
f 104/50/104 99/45/99 93/39/93
f 99/45/99 78/24/78 100/46/100
f 78/24/78 77/23/77 100/46/100
f 100/46/100 77/23/77 80/26/80
f 100/46/100 80/26/80 101/47/101
f 101/47/101 80/26/80 102/48/102
f 80/26/80 82/28/82 102/48/102
f 102/48/102 82/28/82 84/30/84
f 102/48/102 84/30/84 103/49/103
f 103/49/103 84/30/84 104/50/104
f 84/30/84 86/32/86 104/50/104
f 104/50/104 86/32/86 78/24/78
f 104/50/104 78/24/78 99/45/99
# 60 triangles in group

# 116 triangles total

