# Wavefront OBJ exported by MilkShape 3D

mtllib rock06.mtl

v 114.757263 -55.250000 7.267873
v 39.598774 42.250000 6.149475
v 24.513260 10.250000 32.479782
v 74.735764 -60.250000 94.260849
v 41.500000 77.750000 15.250000
v 20.710735 35.750000 27.577621
v 22.535189 71.250000 10.771133
v 11.244757 61.250000 24.221970
v -10.000000 106.750000 5.250000
v -25.066208 -60.250000 114.509026
v -7.142650 45.250000 64.677917
v -5.785544 31.750000 42.598129
v -4.013207 61.250000 27.317551
v -28.919996 -5.750000 31.311127
v -105.101166 -60.250000 57.774757
v -23.425190 35.750000 22.530975
v -16.249144 61.250000 18.643906
v -105.101166 -55.250000 -37.252892
v -40.586662 15.250000 -15.110947
v -33.425190 45.750000 -4.030975
v -26.249144 71.250000 -1.184601
v -18.809315 44.250000 -52.477737
v -25.066208 -55.250000 -93.987099
v -15.785544 40.750000 -24.098129
v -14.013207 66.250000 -13.557770
v 74.735764 -55.250000 -73.738892
v 38.596596 31.250000 -17.279617
v 20.710735 40.750000 -14.077621
v 11.244757 66.250000 -1.462173
v -0.283155 -159.973572 12.850311
# 30 vertices

vt 4.629419 -2.061549
vt 3.144517 -2.037116
vt 2.846472 -2.612345
vt 3.838717 -3.962055
vt 3.182077 -2.235932
vt 2.771344 -2.505249
vt 2.807393 -2.138083
vt 2.584328 -2.431939
vt 2.164595 -2.017465
vt 1.866933 -4.404409
vt 2.221047 -3.315766
vt 2.247861 -2.833397
vt 2.282876 -2.499567
vt 1.790795 -2.586813
vt 0.285685 -3.164955
vt 1.899355 -2.394997
vt 2.041131 -2.310077
vt 0.285685 -1.088919
vt 1.560298 -1.572647
vt 1.701785 -1.814706
vt 1.843563 -1.876891
vt 1.990550 -0.756308
vt 1.866933 0.150534
vt 2.050291 -1.376306
vt 2.085307 -1.606579
vt 3.838717 -0.291821
vt 3.124716 -1.525269
vt 2.771344 -1.595222
vt 2.584328 -1.870826
vt 2.356570 -2.183506
# 30 texture coordinates

vn 0.974298 0.082027 0.209798
vn 0.861980 0.490331 -0.128708
vn 0.612251 0.472389 0.634032
vn 0.615898 0.012572 0.787725
vn 0.575591 0.697212 0.427307
vn 0.310456 0.230654 0.922180
vn 0.331395 0.885510 -0.325652
vn 0.188551 0.499098 0.845783
vn -0.118135 0.964034 0.238082
vn -0.191692 0.146824 0.970411
vn -0.260433 0.965354 -0.016306
vn -0.226413 0.631993 0.741163
vn -0.193821 0.433594 0.880017
vn -0.818306 0.487871 0.303905
vn -0.876991 0.074739 0.474658
vn -0.792159 0.262903 0.550787
vn -0.722184 0.300169 0.623176
vn -0.945671 0.243870 -0.215022
vn -0.890237 0.434612 0.136346
vn -0.897978 0.439975 0.007641
vn -0.924751 0.357542 -0.130381
vn -0.136030 0.881153 -0.452842
vn -0.201987 -0.213923 -0.955739
vn -0.035381 0.884759 -0.464705
vn -0.163499 0.422853 -0.891327
vn 0.680255 0.149436 -0.717580
vn 0.539473 0.729820 -0.419918
vn 0.360931 0.689253 -0.628219
vn 0.467829 0.457432 -0.756235
vn 0.010104 -0.999785 -0.018100
# 30 normals

g Cylinder01
usemtl stone
s 1
f 1/1/1 2/2/2 3/3/3
f 1/1/1 3/3/3 4/4/4
f 2/2/2 5/5/5 3/3/3
f 5/5/5 6/6/6 3/3/3
f 5/5/5 7/7/7 8/8/8
f 5/5/5 8/8/8 6/6/6
f 7/7/7 9/9/9 8/8/8
f 4/4/4 3/3/3 10/10/10
f 3/3/3 11/11/11 10/10/10
f 3/3/3 6/6/6 12/12/12
f 3/3/3 12/12/12 11/11/11
f 6/6/6 8/8/8 12/12/12
f 8/8/8 13/13/13 12/12/12
f 8/8/8 9/9/9 13/13/13
f 10/10/10 11/11/11 14/14/14
f 10/10/10 14/14/14 15/15/15
f 11/11/11 12/12/12 14/14/14
f 12/12/12 16/16/16 14/14/14
f 12/12/12 13/13/13 17/17/17
f 12/12/12 17/17/17 16/16/16
f 13/13/13 9/9/9 17/17/17
f 15/15/15 14/14/14 18/18/18
f 14/14/14 19/19/19 18/18/18
f 14/14/14 16/16/16 20/20/20
f 14/14/14 20/20/20 19/19/19
f 16/16/16 17/17/17 20/20/20
f 17/17/17 21/21/21 20/20/20
f 17/17/17 9/9/9 21/21/21
f 18/18/18 19/19/19 22/22/22
f 18/18/18 22/22/22 23/23/23
f 19/19/19 20/20/20 22/22/22
f 20/20/20 24/24/24 22/22/22
f 20/20/20 21/21/21 25/25/25
f 20/20/20 25/25/25 24/24/24
f 21/21/21 9/9/9 25/25/25
f 23/23/23 22/22/22 26/26/26
f 22/22/22 27/27/27 26/26/26
f 22/22/22 24/24/24 28/28/28
f 22/22/22 28/28/28 27/27/27
f 24/24/24 25/25/25 28/28/28
f 25/25/25 29/29/29 28/28/28
f 25/25/25 9/9/9 29/29/29
f 26/26/26 27/27/27 2/2/2
f 26/26/26 2/2/2 1/1/1
f 27/27/27 28/28/28 2/2/2
f 28/28/28 5/5/5 2/2/2
f 28/28/28 29/29/29 7/7/7
f 28/28/28 7/7/7 5/5/5
f 29/29/29 9/9/9 7/7/7
f 1/1/1 4/4/4 30/30/30
f 4/4/4 10/10/10 30/30/30
f 10/10/10 15/15/15 30/30/30
f 15/15/15 18/18/18 30/30/30
f 18/18/18 23/23/23 30/30/30
f 23/23/23 26/26/26 30/30/30
f 26/26/26 1/1/1 30/30/30
# 56 triangles in group

# 56 triangles total

