# Wavefront OBJ exported by MilkShape 3D

mtllib rock01.mtl

v -0.004125 3.597019 -0.440636
v 4.433375 -8.774919 -6.350833
v 6.839611 -5.033006 0.052575
v 4.835127 -5.033006 5.846959
v -0.004125 -5.033006 8.247075
v -4.843377 -5.033006 5.846959
v -6.847861 -5.033006 0.052575
v -4.843377 -5.033006 -5.741814
v -0.004125 -5.033006 -8.141915
v 4.835127 -5.033006 -5.741814
v 4.247497 0.011342 0.052575
v 3.002226 0.450064 3.908566
v -0.004125 0.011342 4.633886
v -3.010476 0.450064 3.908566
v -4.255747 0.011342 0.052575
v -4.310219 0.633073 -3.186901
v -0.004125 0.011342 -4.528739
v 3.002226 1.291897 -4.099064
v 3.751430 0.775552 -0.163205
v 2.651453 1.684332 2.548602
v -0.004125 3.439217 3.587781
v -2.659703 1.684332 2.548602
v -3.759680 0.775552 -0.163205
v -2.659703 2.423607 -2.512110
v -0.004125 1.245611 -3.390154
v 2.651453 1.496309 -2.381801
v 2.316935 2.244156 0.052575
v 1.637112 1.742760 1.341321
v -0.004125 2.682878 2.241950
v -1.645363 2.682878 1.618753
v -2.325186 2.244156 0.052575
v -1.645363 2.244156 -1.451953
v -0.004125 2.244156 -2.075147
v 1.637112 2.244156 -1.451953
# 34 vertices

vt 1.021817 -3.394166
vt 1.021817 -2.713229
vt 1.497767 -2.713229
vt 3.608074 0.175015
vt 1.497767 -0.670414
vt 1.021817 -0.670414
vt 1.497767 -3.394166
vt 1.973716 -2.713229
vt 3.612255 0.175015
vt 2.095942 -0.114087
vt 1.973716 -3.394166
vt 2.449667 -2.713229
vt 3.616437 0.175015
vt 2.563004 -0.207069
vt 2.449667 -3.394166
vt 2.925617 -2.713229
vt 3.620620 0.175015
vt 2.925617 -0.670414
vt 2.925617 -3.394166
vt 3.401567 -2.713229
vt 3.624803 0.175015
vt 3.401567 -0.670414
vt 3.401567 -3.394166
vt 3.877516 -2.713229
vt 3.628986 0.175015
vt 3.877516 -0.670414
vt 3.877516 -3.394166
vt 4.353466 -2.713229
vt 3.633168 0.175015
vt 4.353466 -0.670414
vt 4.353466 -3.394166
vt 4.829416 -2.713229
vt 3.637351 0.175015
vt 4.829416 -0.670414
vt 1.021817 -2.032290
vt 1.497767 -2.032290
vt 1.973716 -2.032290
vt 2.449667 -2.032290
vt 2.925617 -2.032290
vt 3.828667 -2.570509
vt 4.138016 -2.203156
vt 4.353466 -2.032290
vt 4.829416 -2.032290
vt 1.021817 -1.351353
vt 1.497767 -1.351353
vt 1.973716 -1.351353
vt 2.449667 -1.351353
vt 2.925617 -1.351353
vt 3.319135 -2.127925
vt 3.628485 -1.760572
vt 4.353466 -1.351353
vt 4.829416 -1.351353
# 52 texture coordinates

vn 0.000000 -1.000000 0.000000
vn 0.587785 -0.809017 0.000000
vn 0.415627 -0.809017 0.415627
vn 0.000000 1.000000 0.000000
vn 0.415627 0.809017 0.415627
vn 0.587785 0.809017 0.000000
vn 0.000000 -0.809017 0.587785
vn 0.000000 0.809017 0.587785
vn -0.415627 -0.809017 0.415627
vn -0.415627 0.809017 0.415627
vn -0.587785 -0.809017 0.000000
vn -0.587785 0.809017 0.000000
vn -0.415627 -0.809017 -0.415627
vn -0.415627 0.809017 -0.415627
vn -0.000000 -0.809017 -0.587785
vn -0.000000 0.809017 -0.587785
vn 0.415627 -0.809017 -0.415627
vn 0.415627 0.809017 -0.415627
vn 0.951057 -0.309017 0.000000
vn 0.672499 -0.309017 0.672499
vn 0.000000 -0.309017 0.951057
vn -0.672499 -0.309017 0.672499
vn -0.951057 -0.309017 0.000000
vn -0.672499 -0.309017 -0.672499
vn -0.000000 -0.309017 -0.951057
vn 0.672499 -0.309017 -0.672499
vn 0.951057 0.309017 0.000000
vn 0.672499 0.309017 0.672499
vn 0.000000 0.309017 0.951057
vn -0.672499 0.309017 0.672499
vn -0.951057 0.309017 0.000000
vn -0.672499 0.309017 -0.672499
vn -0.000000 0.309017 -0.951057
vn 0.672499 0.309017 -0.672499
# 34 normals

g Sphere03
usemtl stone
s 1
f 2/1/1 3/2/2 4/3/3
f 1/4/4 28/5/5 27/6/6
f 2/7/1 4/3/3 5/8/7
f 1/9/4 29/10/8 28/5/5
f 2/11/1 5/8/7 6/12/9
f 1/13/4 30/14/10 29/10/8
f 2/15/1 6/12/9 7/16/11
f 1/17/4 31/18/12 30/14/10
f 2/19/1 7/16/11 8/20/13
f 1/21/4 32/22/14 31/18/12
f 2/23/1 8/20/13 9/24/15
f 1/25/4 33/26/16 32/22/14
f 2/27/1 9/24/15 10/28/17
f 1/29/4 34/30/18 33/26/16
f 2/31/1 10/28/17 3/32/2
f 1/33/4 27/34/6 34/30/18
f 3/2/2 11/35/19 12/36/20
f 3/2/2 12/36/20 4/3/3
f 4/3/3 12/36/20 5/8/7
f 12/36/20 13/37/21 5/8/7
f 5/8/7 13/37/21 14/38/22
f 5/8/7 14/38/22 6/12/9
f 6/12/9 14/38/22 7/16/11
f 14/38/22 15/39/23 7/16/11
f 7/16/11 15/39/23 16/40/24
f 7/16/11 16/40/24 8/20/13
f 8/20/13 16/40/24 9/24/15
f 16/40/24 17/41/25 9/24/15
f 9/24/15 17/41/25 18/42/26
f 9/24/15 18/42/26 10/28/17
f 10/28/17 18/42/26 3/32/2
f 18/42/26 11/43/19 3/32/2
f 11/35/19 19/44/27 12/36/20
f 19/44/27 20/45/28 12/36/20
f 12/36/20 20/45/28 21/46/29
f 12/36/20 21/46/29 13/37/21
f 13/37/21 21/46/29 14/38/22
f 21/46/29 22/47/30 14/38/22
f 14/38/22 22/47/30 23/48/31
f 14/38/22 23/48/31 15/39/23
f 15/39/23 23/48/31 16/40/24
f 23/48/31 24/49/32 16/40/24
f 16/40/24 24/49/32 25/50/33
f 16/40/24 25/50/33 17/41/25
f 17/41/25 25/50/33 18/42/26
f 25/50/33 26/51/34 18/42/26
f 18/42/26 26/51/34 19/52/27
f 18/42/26 19/52/27 11/43/19
f 19/44/27 27/6/6 28/5/5
f 19/44/27 28/5/5 20/45/28
f 20/45/28 28/5/5 21/46/29
f 28/5/5 29/10/8 21/46/29
f 21/46/29 29/10/8 30/14/10
f 21/46/29 30/14/10 22/47/30
f 22/47/30 30/14/10 23/48/31
f 30/14/10 31/18/12 23/48/31
f 23/48/31 31/18/12 32/22/14
f 23/48/31 32/22/14 24/49/32
f 24/49/32 32/22/14 25/50/33
f 32/22/14 33/26/16 25/50/33
f 25/50/33 33/26/16 34/30/18
f 25/50/33 34/30/18 26/51/34
f 26/51/34 34/30/18 19/52/27
f 34/30/18 27/34/6 19/52/27
# 64 triangles in group

# 64 triangles total

