# Wavefront OBJ exported by MilkShape 3D

mtllib rock04.mtl

v -8.907871 35.500000 -18.677515
v 3.135058 31.983170 -13.458943
v 13.430181 31.983170 -24.325726
v -5.479271 31.983170 -6.008248
v -16.675406 31.983170 -8.097769
v -19.675070 33.733170 -13.739315
v -15.146564 33.733170 -24.189779
v -4.152585 33.733170 -27.165003
v 57.600098 -31.375000 -46.273228
v 31.482962 9.250000 -36.139748
v 29.132765 9.250000 -10.216790
v 55.080414 -31.375000 5.664268
v 9.149114 -31.375000 59.373402
v 1.291871 9.250000 21.710848
v -28.784605 9.250000 8.596761
v -45.364574 -31.375000 27.001120
v -72.081581 -31.375000 -23.246264
v -34.765331 16.000000 -15.362019
v -36.970810 7.000000 -48.023739
v -50.868664 -33.625000 -74.907784
v -13.793137 -33.625000 -96.895454
v -9.669410 7.000000 -57.775593
v 22.852625 16.875000 -27.070593
v 18.863930 22.375000 -10.482878
v -1.406960 22.375000 12.062400
v -21.422691 16.875000 1.413038
v -31.388214 29.125000 -17.329384
v -23.779345 22.375000 -35.871590
v -4.737218 22.375000 -41.024834
v 19.336592 16.204201 39.034138
v 44.659786 6.291893 61.348286
v 34.575932 6.291893 30.488293
v 20.558819 6.291893 62.896088
v -4.420246 6.291893 32.992718
v 22.095207 6.291893 18.989820
v 59.599876 -29.532730 21.627895
v 56.286171 -29.532730 76.574600
v 6.832324 -29.532730 82.554985
v -20.418159 -29.532730 31.304276
v 12.193978 -29.532730 -6.350744
v 4.001404 -122.674553 3.727722
v 4.001404 -122.674553 3.727722
v 4.001404 -122.674553 3.727722
v 4.001404 -122.674553 3.727722
v 4.001404 -122.674553 3.727722
v 4.001404 -122.674553 3.727722
v 4.001404 -122.674553 3.727722
v 4.001404 -122.674553 3.727722
v 4.001404 -122.674553 3.727722
v 4.001404 -122.674553 3.727722
v 4.001404 -122.674553 3.727722
v 4.001404 -122.674553 3.727722
v 4.001404 -122.674553 3.727722
v 4.001404 -122.674553 3.727722
v 4.001404 -122.674553 3.727722
v 4.001404 -122.674553 3.727722
v 4.001404 -122.674553 3.727722
v 4.001404 -122.674553 3.727722
v 4.001404 -122.674553 3.727722
v 4.001404 -122.674553 3.727722
v 4.001404 -122.674553 3.727722
v 4.001404 -122.674553 3.727722
v 4.001404 -122.674553 3.727722
v 4.001404 -122.674553 3.727722
v 4.001404 -122.674553 3.727722
v 4.001404 -122.674553 3.727722
v 4.001404 -122.674553 3.727722
v 4.001404 -122.674553 3.727722
v 4.001404 -122.674553 3.727722
v 4.001404 -122.674553 3.727722
v 4.001404 -122.674553 3.727722
v 4.001404 -122.674553 3.727722
v 4.001404 -122.674553 3.727722
v 4.001404 -122.674553 3.727722
v 4.001404 -122.674553 3.727722
v 4.001404 -122.674553 3.727722
# 76 vertices

vt 0.454387 -0.332652
vt 0.678631 -0.238175
vt 0.870330 -0.434907
vt 0.518228 -0.103288
vt 0.309752 -0.141116
vt 0.253897 -0.243251
vt 0.338219 -0.432446
vt 0.542932 -0.486309
vt 1.692793 -0.832243
vt 1.206481 -0.648787
vt 1.162719 -0.179479
vt 1.645875 0.108031
vt 0.790615 1.080379
vt 0.644309 0.398537
vt 0.084273 0.161121
vt -0.224452 0.494313
vt -0.721934 -0.415365
vt -0.027090 -0.272628
vt -0.068157 -0.863935
vt -0.326941 -1.350643
vt 0.363421 -1.748707
vt 0.440206 -1.040482
vt 1.045780 -0.484600
vt 0.971509 -0.184297
vt 0.594057 0.223862
vt 0.221356 0.031067
vt 0.035793 -0.308246
vt 0.177474 -0.643932
vt 0.532046 -0.737227
vt 0.694762 0.072972
vt 0.568190 0.522076
vt 0.804457 0.046971
vt 0.915488 0.547774
vt 0.366913 0.202748
vt 0.207526 0.799826
vt 0.803717 0.798504
vt 1.437494 0.486317
vt 0.866434 -0.249018
vt -0.057560 0.031854
vt -0.057560 0.940779
vt 0.866434 1.221652
# 41 texture coordinates

vn 0.025416 0.996653 0.077694
vn 0.426126 0.852842 0.301791
vn 0.426805 0.886802 -0.177255
vn 0.095991 0.932506 0.348165
vn -0.284007 0.819946 0.497019
vn -0.259626 0.954808 0.144694
vn -0.231683 0.898128 -0.373750
vn 0.016837 0.905851 -0.423262
vn 0.940087 0.123501 -0.317781
vn 0.559799 0.709399 -0.428228
vn 0.735564 0.605114 0.304601
vn 0.926175 0.077814 0.368978
vn 0.165579 0.350938 0.921643
vn 0.165290 0.648198 0.743316
vn -0.554999 0.601517 0.574590
vn -0.721931 0.016079 0.691779
vn -0.972894 0.212490 0.091242
vn -0.886670 0.441702 0.136803
vn -0.555224 0.667424 -0.496258
vn -0.763271 -0.100440 -0.638224
vn 0.069416 0.255763 -0.964244
vn 0.049820 0.709339 -0.703104
vn 0.681417 0.723170 -0.112672
vn 0.637293 0.740732 0.212541
vn 0.094928 0.788416 0.607774
vn -0.421689 0.689695 0.588642
vn -0.631922 0.761513 0.144126
vn -0.311157 0.764132 -0.565052
vn 0.078184 0.747482 -0.659665
vn 0.871542 -0.488495 0.042282
vn 0.000000 0.000000 0.000000
vn 0.695894 -0.401952 0.595119
vn -0.457554 -0.443812 0.770503
vn -0.758094 -0.512655 0.403086
vn -0.702742 -0.662348 -0.259708
vn -0.347629 -0.731819 -0.586170
vn 0.466894 -0.619629 -0.630927
vn 0.039305 0.997663 -0.055886
vn 0.511480 0.810684 0.284921
vn 0.688222 0.657512 -0.306640
vn -0.332164 0.652236 0.681363
vn -0.638379 0.760936 -0.115970
vn 0.010451 0.692852 -0.721005
vn 0.810272 0.222340 -0.542239
vn 0.768279 0.114042 0.629875
vn -0.486562 -0.011943 0.873564
vn -0.948017 0.287223 -0.136990
vn -0.140655 0.282002 -0.949047
vn 0.853136 -0.519144 0.051451
vn 0.091752 -0.644912 0.758729
vn -0.827952 -0.347408 0.440230
vn -0.755903 -0.004351 -0.654670
vn 0.503508 -0.136600 -0.853124
# 53 normals

g Sphere01
usemtl stone
s 1
f 1/1/1 2/2/2 3/3/3
f 1/1/1 4/4/4 2/2/2
f 1/1/1 5/5/5 4/4/4
f 1/1/1 6/6/6 5/5/5
f 1/1/1 7/7/7 6/6/6
f 1/1/1 8/8/8 7/7/7
f 1/1/1 3/3/3 8/8/8
f 9/9/9 10/10/10 11/11/11
f 9/9/9 11/11/11 12/12/12
f 12/12/12 11/11/11 13/13/13
f 11/11/11 14/14/14 13/13/13
f 13/13/13 14/14/14 15/15/15
f 13/13/13 15/15/15 16/16/16
f 16/16/16 15/15/15 17/17/17
f 15/15/15 18/18/18 17/17/17
f 17/17/17 18/18/18 19/19/19
f 17/17/17 19/19/19 20/20/20
f 20/20/20 19/19/19 21/21/21
f 19/19/19 22/22/22 21/21/21
f 21/21/21 22/22/22 10/10/10
f 21/21/21 10/10/10 9/9/9
f 10/10/10 23/23/23 11/11/11
f 23/23/23 24/24/24 11/11/11
f 11/11/11 24/24/24 25/25/25
f 11/11/11 25/25/25 14/14/14
f 14/14/14 25/25/25 15/15/15
f 25/25/25 26/26/26 15/15/15
f 15/15/15 26/26/26 27/27/27
f 15/15/15 27/27/27 18/18/18
f 18/18/18 27/27/27 19/19/19
f 27/27/27 28/28/28 19/19/19
f 19/19/19 28/28/28 29/29/29
f 19/19/19 29/29/29 22/22/22
f 22/22/22 29/29/29 10/10/10
f 29/29/29 23/23/23 10/10/10
f 23/23/23 3/3/3 2/2/2
f 23/23/23 2/2/2 24/24/24
f 24/24/24 2/2/2 25/25/25
f 2/2/2 4/4/4 25/25/25
f 25/25/25 4/4/4 5/5/5
f 25/25/25 5/5/5 26/26/26
f 26/26/26 5/5/5 27/27/27
f 5/5/5 6/6/6 27/27/27
f 27/27/27 6/6/6 7/7/7
f 27/27/27 7/7/7 28/28/28
f 28/28/28 7/7/7 29/29/29
f 7/7/7 8/8/8 29/29/29
f 29/29/29 8/8/8 3/3/3
f 29/29/29 3/3/3 23/23/23
f 9/9/9 12/12/12 41/30/30
f 42/30/31 44/30/31 9/9/9
f 12/12/12 13/13/13 47/30/32
f 48/30/31 43/30/31 12/12/12
f 13/13/13 16/16/16 50/30/33
f 51/30/31 49/30/31 13/13/13
f 16/16/16 17/17/17 53/30/34
f 54/30/31 52/30/31 16/16/16
f 17/17/17 20/20/20 56/30/35
f 57/30/31 55/30/31 17/17/17
f 20/20/20 21/21/21 59/30/36
f 60/30/31 58/30/31 20/20/20
f 21/21/21 9/9/9 45/30/37
f 46/30/31 61/30/31 21/21/21
# 63 triangles in group

g Sphere03
usemtl stone
f 30/31/38 31/32/39 32/33/40
f 30/31/38 33/34/41 31/32/39
f 30/31/38 34/35/42 33/34/41
f 30/31/38 35/36/43 34/35/42
f 30/31/38 32/33/40 35/36/43
f 36/37/44 32/33/40 37/38/45
f 32/33/40 31/32/39 37/38/45
f 37/38/45 31/32/39 33/34/41
f 37/38/45 33/34/41 38/39/46
f 38/39/46 33/34/41 39/40/47
f 33/34/41 34/35/42 39/40/47
f 39/40/47 34/35/42 35/36/43
f 39/40/47 35/36/43 40/41/48
f 40/41/48 35/36/43 36/37/44
f 35/36/43 32/33/40 36/37/44
f 36/37/44 37/38/45 62/38/49
f 63/38/31 65/37/31 36/37/44
f 37/38/45 38/39/46 68/39/50
f 69/39/31 64/38/31 37/38/45
f 38/39/46 39/40/47 71/40/51
f 72/40/31 70/39/31 38/39/46
f 39/40/47 40/41/48 74/41/52
f 75/41/31 73/40/31 39/40/47
f 40/41/48 36/37/44 66/37/53
f 67/37/31 76/41/31 40/41/48
# 25 triangles in group

# 88 triangles total

