# Wavefront OBJ exported by MilkShape 3D

mtllib rock02.mtl

v 0.000000 72.000000 -27.250000
v 28.612696 82.890213 -11.006306
v 18.006174 67.890213 -27.250000
v 27.449459 82.890213 -7.426229
v 25.567303 82.890213 -4.166237
v 23.048483 59.890209 -3.368805
v 20.003086 59.890209 -1.156196
v 16.564213 59.890209 0.374889
v 3.882158 68.890213 11.657536
v 0.117842 68.890213 11.657536
v -3.564214 68.890213 10.874889
v -18.003086 82.890213 -2.156196
v -21.048483 82.890213 -4.368805
v -23.567303 82.890213 -7.166237
v -16.449459 67.890213 -19.926229
v -17.612696 67.890213 -23.506306
v -18.006174 67.890213 -27.250000
v -17.612696 67.890213 -30.993694
v -19.949459 59.890209 -38.573772
v -18.067303 59.890209 -41.833763
v -12.548483 53.890213 -53.881195
v -9.503087 51.390209 -58.593803
v -2.564214 53.890213 -54.124889
v 1.117842 53.890213 -54.907536
v 4.882158 53.890213 -54.907536
v 8.564214 53.890213 -54.124889
v 9.669754 66.390213 -53.260471
v 12.715151 66.390213 -51.047863
v 14.567302 73.890213 -39.333763
v 16.449459 59.890209 -35.073772
v 17.612696 67.890213 -30.993694
v 107.743027 -40.734619 -37.965694
v 58.667587 24.234619 -33.096294
v 61.247524 31.734619 -6.527408
v 112.553940 -40.734619 7.348938
v 106.610909 -40.734619 21.981535
v 58.060486 31.734619 2.410767
v 52.903744 31.734619 10.549803
v 96.994873 -40.734619 35.305870
v 84.126106 -44.234619 53.106079
v 46.002674 28.234619 21.422880
v 37.658897 28.234619 26.946974
v 68.567032 -44.234619 62.149506
v 50.997665 -44.234619 68.407417
v 28.237064 23.734619 33.547325
v 7.175017 23.734619 44.390198
v 11.722180 -44.234619 86.158150
v -7.509893 -44.234619 86.158150
v -3.138464 23.734619 44.390198
v -26.639162 28.234619 27.436216
v -51.332855 -44.234619 62.950439
v -68.902222 -44.234619 56.692543
v -36.060993 28.234619 23.613642
v -44.404770 31.734619 14.200659
v -84.461288 -40.734619 41.282654
v -97.330048 -40.734619 29.848921
v -51.305836 31.734619 7.216471
v -56.462585 31.734619 -0.922565
v -106.946075 -40.734619 16.524574
v -92.425461 -40.734619 -12.659925
v -48.675682 24.234619 -17.638515
v -49.753727 24.234619 -26.985184
v -94.435738 -40.734619 -27.961271
v -100.383545 -40.734619 -49.629063
v -52.943329 24.234619 -40.220741
v -49.756283 31.734619 -50.270023
v -94.440521 -40.734619 -64.261658
v -84.824463 -40.734619 -77.585999
v -44.599545 31.734619 -58.409065
v -37.698479 31.734619 -65.393250
v -71.955704 -40.734619 -89.019768
v -56.396645 -40.734619 -98.063225
v -29.354698 31.734619 -70.917343
v -15.055560 31.234619 -81.128807
v -29.732321 -41.234619 -114.780296
v -10.920505 -41.234619 -117.979134
v -4.967453 31.234619 -83.082794
v 5.346027 31.234619 -83.082794
v 8.311571 -41.234619 -117.979134
v 27.123369 -41.234619 -114.780296
v 15.434134 31.234619 -81.128807
v 34.000919 31.734619 -73.139565
v 61.745811 -40.734619 -101.701195
v 77.304855 -40.734619 -92.657722
v 42.344692 31.734619 -67.615471
v 49.245758 31.734619 -60.631283
v 90.173660 -40.734619 -81.223999
v 99.789680 -40.734619 -67.899635
v 54.402508 31.734619 -52.492245
v 57.589539 24.234619 -42.442963
v 105.732735 -40.734619 -53.267048
v 40.446007 56.374825 -32.750000
v 45.736984 50.874825 -13.004095
v 40.640903 56.374825 -3.053020
v 37.249371 48.374825 2.321284
v 32.710617 48.374825 7.362082
v 27.223003 48.374825 11.349067
v 21.026367 44.874825 17.607986
v 5.391531 45.374825 36.518265
v -1.391531 45.374825 36.518265
v -19.026367 48.374825 11.107986
v -25.223003 48.374825 8.349067
v -30.710617 48.374825 4.362082
v -35.249371 48.374825 -0.678716
v -38.640903 56.374825 -6.053020
v -28.736984 50.874825 -24.004095
v -32.446007 56.374825 -27.250000
v -35.236984 48.374825 -37.995903
v -33.140903 48.374825 -44.446980
v -27.249371 40.374825 -52.821285
v -22.710617 40.374825 -57.862083
v -17.223003 40.374825 -61.849068
v -13.026368 49.874825 -69.357986
v -2.891531 49.874825 -67.268265
v 3.891531 49.874825 -67.268265
v 10.526367 60.874825 -61.857986
v 16.723003 49.874825 -63.099068
v 32.210617 40.374825 -59.862083
v 36.749371 40.374825 -54.821285
v 40.140903 40.374825 -48.946980
v 39.736984 48.374825 -39.995903
v 116.895294 -136.325623 41.057426
v 113.942482 -135.645981 -81.352478
v 116.895294 -136.325623 41.057426
v 116.895294 -136.325623 41.057426
v 116.895294 -136.325623 41.057426
v -0.176117 -139.326065 100.885681
v -0.176117 -139.326065 100.885681
v -0.176117 -139.326065 100.885681
v -0.176117 -139.326065 100.885681
v -112.708298 -136.770172 32.387238
v -112.708298 -136.770172 32.387238
v -112.708298 -136.770172 32.387238
v -112.708298 -136.770172 32.387238
v -112.708298 -136.770172 32.387238
v -112.708298 -136.770172 32.387238
v -112.708298 -136.770172 32.387238
v -98.799698 -135.915222 -86.951744
v -98.799698 -135.915222 -86.951744
v -98.799698 -135.915222 -86.951744
v -98.799698 -135.915222 -86.951744
v -98.799698 -135.915222 -86.951744
v 0.806113 -136.778748 -134.580521
v 0.806113 -136.778748 -134.580521
v 0.806113 -136.778748 -134.580521
v 0.806113 -136.778748 -134.580521
v 113.942482 -135.645981 -81.352478
v 113.942482 -135.645981 -81.352478
v 113.942482 -135.645981 -81.352478
v 113.942482 -135.645981 -81.352478
v 113.942482 -135.645981 -81.352478
v 2.620968 -203.404465 -23.081732
# 152 vertices

vt 2.412671 -0.884835
vt 3.076116 -1.287908
vt 2.830181 -0.884835
vt 3.049143 -1.376743
vt 3.005502 -1.457638
vt 2.947099 -1.477426
vt 2.876484 -1.532329
vt 2.796747 -1.570319
vt 2.502689 -1.850288
vt 2.415404 -1.850288
vt 2.330028 -1.830869
vt 1.995233 -1.507514
vt 1.924619 -1.452611
vt 1.866217 -1.383198
vt 2.031257 -1.066567
vt 2.004285 -0.977732
vt 1.995162 -0.884835
vt 2.004285 -0.791939
vt 1.950103 -0.603847
vt 1.993746 -0.522953
vt 2.121710 -0.224008
vt 2.192324 -0.107069
vt 2.353214 -0.217961
vt 2.438590 -0.198540
vt 2.525876 -0.198540
vt 2.611250 -0.217961
vt 2.636885 -0.239411
vt 2.707499 -0.294314
vt 2.750444 -0.584988
vt 2.794086 -0.690696
vt 2.821058 -0.791939
vt 4.910912 -0.618935
vt 3.772999 -0.739766
vt 3.832819 -1.399047
vt 5.022464 -1.743376
vt 4.884664 -2.106468
vt 3.758922 -1.620840
vt 3.639354 -1.822801
vt 4.661695 -2.437100
vt 4.363307 -2.878796
vt 3.479337 -2.092607
vt 3.285871 -2.229682
vt 4.002538 -3.103200
vt 3.595156 -3.258484
vt 3.067406 -2.393462
vt 2.579040 -2.662519
vt 2.684474 -3.698953
vt 2.238540 -3.698953
vt 2.339900 -2.662519
vt 1.794988 -2.241822
vt 1.222416 -3.123076
vt 0.815034 -2.967790
vt 1.576525 -2.146968
vt 1.383059 -1.913394
vt 0.454264 -2.585408
vt 0.155876 -2.301691
vt 1.223041 -1.740089
vt 1.103472 -1.538125
vt -0.067091 -1.971061
vt 0.269599 -1.246874
vt 1.284027 -1.123337
vt 1.259031 -0.891407
vt 0.222987 -0.867186
vt 0.085074 -0.329520
vt 1.185072 -0.562978
vt 1.258971 -0.313617
vt 0.222875 0.033574
vt 0.445843 0.364205
vt 1.378541 -0.111653
vt 1.538556 0.061653
vt 0.744233 0.647922
vt 1.105001 0.872327
vt 1.732023 0.198728
vt 2.063577 0.452116
vt 1.723267 1.287146
vt 2.159458 1.366522
vt 2.297491 0.500603
vt 2.536631 0.500603
vt 2.605393 1.366522
vt 3.041581 1.287146
vt 2.770543 0.452116
vt 3.201051 0.253870
vt 3.844374 0.962600
vt 4.205143 0.738196
vt 3.394520 0.116796
vt 3.554535 -0.056510
vt 4.503531 0.454477
vt 4.726499 0.123847
vt 3.674104 -0.258473
vt 3.748001 -0.507836
vt 4.864297 -0.239246
vt 3.350494 -0.748358
vt 3.473177 -1.238334
vt 3.355014 -1.485259
vt 3.276377 -1.618619
vt 3.171136 -1.743701
vt 3.043893 -1.842636
vt 2.900211 -1.997943
vt 2.537685 -2.467184
vt 2.380406 -2.467184
vt 1.971507 -1.836653
vt 1.827825 -1.768191
vt 1.700584 -1.669262
vt 1.595344 -1.544178
vt 1.516703 -1.410817
vt 1.746345 -0.965379
vt 1.660345 -0.884835
vt 1.595630 -0.618186
vt 1.644233 -0.458109
vt 1.780839 -0.250309
vt 1.886080 -0.125226
vt 2.013321 -0.026292
vt 2.110629 0.160034
vt 2.345625 0.108180
vt 2.502904 0.108180
vt 2.656748 -0.026071
vt 2.800429 0.004725
vt 3.159540 -0.075596
vt 3.264782 -0.200681
vt 3.343420 -0.346445
vt 3.334055 -0.568558
vt 5.123129 -2.579820
vt 5.054659 0.457667
vt 2.408588 -4.064405
vt -0.200700 -2.364676
vt 0.121799 0.596608
vt 2.431363 1.778470
vt 2.473444 -0.988268
# 128 texture coordinates

vn -0.057313 0.969026 -0.240218
vn 0.558296 0.790025 -0.253309
vn 0.268152 0.870897 -0.411866
vn 0.342529 0.926946 0.153120
vn 0.085155 0.584044 0.807243
vn -0.263534 0.629917 0.730585
vn 0.258068 0.840296 0.476764
vn 0.455525 0.825037 0.334380
vn 0.361871 0.827385 0.429515
vn -0.042598 0.913802 0.403920
vn -0.206907 0.743823 0.635544
vn -0.052379 0.854625 0.516597
vn -0.456489 0.731051 0.507132
vn -0.620461 0.696187 -0.361042
vn -0.627327 0.756797 -0.183628
vn -0.563926 0.817024 0.120246
vn -0.555625 0.825211 0.101526
vn -0.407621 0.831721 -0.376943
vn -0.434374 0.745754 -0.505144
vn -0.485932 0.752833 -0.443974
vn -0.424193 0.688767 -0.587929
vn -0.000473 0.633017 -0.774138
vn -0.045242 0.879437 -0.473860
vn -0.044993 0.902567 -0.428192
vn -0.166758 0.959092 -0.228768
vn -0.723070 0.673225 -0.154718
vn 0.006444 0.788659 -0.614797
vn 0.213027 0.841707 -0.496134
vn 0.626964 0.773617 -0.091835
vn 0.548902 0.819106 -0.166647
vn 0.205785 0.776775 -0.595208
vn 0.915909 0.384017 -0.116796
vn 0.821302 0.546452 -0.163870
vn 0.800618 0.597918 0.038801
vn 0.925990 0.355037 0.128417
vn 0.783048 0.461227 0.417259
vn 0.727034 0.587775 0.354883
vn 0.561365 0.614843 0.553929
vn 0.727712 0.390603 0.563794
vn 0.573681 0.365273 0.733121
vn 0.491556 0.627324 0.604018
vn 0.357399 0.604277 0.712120
vn 0.400633 0.305460 0.863822
vn 0.355751 0.389065 0.849747
vn 0.320119 0.579093 0.749783
vn 0.241563 0.482218 0.842089
vn 0.199670 0.331982 0.921911
vn -0.276606 0.348424 0.895595
vn -0.248027 0.436760 0.864710
vn -0.401524 0.547059 0.734510
vn -0.390482 0.245216 0.887352
vn -0.468131 0.372213 0.801443
vn -0.385488 0.605810 0.695984
vn -0.509578 0.626171 0.590119
vn -0.622245 0.343381 0.703492
vn -0.680157 0.432696 0.591744
vn -0.594257 0.649878 0.473833
vn -0.791979 0.610247 0.019181
vn -0.936713 0.344171 0.064144
vn -0.894969 0.405014 -0.187066
vn -0.809728 0.538695 -0.232698
vn -0.810265 0.543759 0.218625
vn -0.949383 0.287521 0.126507
vn -0.915137 0.402177 0.027880
vn -0.803697 0.566710 0.181415
vn -0.691148 0.662613 -0.288545
vn -0.818961 0.351740 -0.453412
vn -0.690438 0.403917 -0.600123
vn -0.532601 0.731803 -0.425207
vn -0.443159 0.704176 -0.554749
vn -0.555831 0.315896 -0.768936
vn -0.491789 0.298577 -0.817922
vn -0.405791 0.683154 -0.607153
vn -0.342756 0.556711 -0.756698
vn -0.341523 0.271053 -0.899940
vn -0.082233 0.349150 -0.933452
vn -0.079761 0.548422 -0.832389
vn 0.013125 0.532239 -0.846492
vn 0.080220 0.302805 -0.949670
vn 0.281043 0.289999 -0.914831
vn 0.249100 0.499970 -0.829445
vn 0.500554 0.617879 -0.606358
vn 0.413199 0.258058 -0.873311
vn 0.556637 0.378662 -0.739439
vn 0.467503 0.675752 -0.569912
vn 0.553219 0.700073 -0.451495
vn 0.692452 0.357939 -0.626411
vn 0.817837 0.447172 -0.362188
vn 0.693081 0.717942 -0.064794
vn 0.776570 0.610186 -0.156884
vn 0.889122 0.392986 -0.234572
vn 0.666362 0.656289 -0.353902
vn 0.833072 0.552611 0.024748
vn 0.713723 0.541672 0.444061
vn 0.480498 0.502554 0.718722
vn 0.363782 0.675030 0.641870
vn 0.321018 0.733120 0.599568
vn 0.445640 0.645065 0.620722
vn 0.380051 0.532209 0.756515
vn -0.259231 0.581465 0.771167
vn -0.509121 0.545821 0.665489
vn -0.425646 0.518695 0.741472
vn -0.563022 0.539514 0.626044
vn -0.588600 0.603345 0.538075
vn -0.588058 0.778852 0.218125
vn -0.813929 0.572654 0.097910
vn -0.702208 0.579217 0.414019
vn -0.721976 0.675061 -0.151797
vn -0.470512 0.720086 -0.509996
vn -0.451676 0.733266 -0.508242
vn -0.442785 0.748168 -0.494152
vn -0.479223 0.703230 -0.525179
vn -0.496617 0.794630 -0.349192
vn 0.003624 0.823708 -0.567003
vn -0.339366 0.771632 -0.537973
vn -0.071835 0.927813 -0.366065
vn 0.753008 0.629573 -0.191356
vn 0.485717 0.714604 -0.503409
vn 0.539279 0.745136 -0.392365
vn 0.566098 0.776621 -0.276394
vn 0.491486 0.612981 -0.618624
vn 0.953909 -0.294874 -0.055738
vn 0.964747 -0.254828 -0.065774
vn 0.912665 0.172163 0.370679
vn 0.794517 0.199905 0.573394
vn 0.588589 -0.244460 0.770586
vn 0.456685 -0.311472 0.833321
vn 0.332240 0.139792 0.932778
vn 0.410202 0.089243 0.907618
vn -0.321828 -0.244907 0.914575
vn -0.483867 -0.283700 0.827881
vn -0.334225 -0.088246 0.938353
vn -0.681969 0.133989 0.719003
vn -0.658976 0.125126 0.741683
vn -0.802456 0.143805 0.579123
vn -0.895128 -0.019855 -0.445367
vn -0.981907 -0.188071 -0.022082
vn -0.944696 -0.326456 0.031247
vn -0.918515 0.130999 -0.373055
vn -0.798521 0.173952 -0.576285
vn -0.654685 0.168633 -0.736851
vn -0.448153 -0.239451 -0.861291
vn -0.454342 -0.280082 -0.845652
vn -0.165765 0.149039 -0.974838
vn 0.000000 0.171191 -0.985238
vn 0.321733 -0.233283 -0.917642
vn 0.383273 -0.287710 -0.877682
vn 0.500449 0.090625 -0.861010
vn 0.655085 0.165052 -0.737307
vn 0.794542 0.199755 -0.573411
vn 0.909965 0.188075 -0.369584
vn -0.008395 -0.999230 -0.038338
# 152 normals

g Sphere01
usemtl Material01
s 1
f 1/1/1 2/2/2 3/3/3
f 1/1/1 4/4/4 2/2/2
f 1/1/1 5/5/5 4/4/4
f 1/1/1 6/6/6 5/5/5
f 1/1/1 7/7/7 6/6/6
f 1/1/1 8/8/8 7/7/7
f 1/1/1 9/9/9 8/8/8
f 1/1/1 10/10/10 9/9/9
f 1/1/1 11/11/11 10/10/10
f 1/1/1 12/12/12 11/11/11
f 1/1/1 13/13/13 12/12/12
f 1/1/1 14/14/14 13/13/13
f 1/1/1 15/15/15 14/14/14
f 1/1/1 16/16/16 15/15/15
f 1/1/1 17/17/17 16/16/16
f 1/1/1 18/18/18 17/17/17
f 1/1/1 19/19/19 18/18/18
f 1/1/1 20/20/20 19/19/19
f 1/1/1 21/21/21 20/20/20
f 1/1/1 22/22/22 21/21/21
f 1/1/1 23/23/23 22/22/22
f 1/1/1 24/24/24 23/23/23
f 1/1/1 25/25/25 24/24/24
f 1/1/1 26/26/26 25/25/25
f 1/1/1 27/27/27 26/26/26
f 1/1/1 28/28/28 27/27/27
f 1/1/1 29/29/29 28/28/28
f 1/1/1 30/30/30 29/29/29
f 1/1/1 31/31/31 30/30/30
f 1/1/1 3/3/3 31/31/31
f 32/32/32 33/33/33 34/34/34
f 32/32/32 34/34/34 35/35/35
f 35/35/35 34/34/34 36/36/36
f 34/34/34 37/37/37 36/36/36
f 36/36/36 37/37/37 38/38/38
f 36/36/36 38/38/38 39/39/39
f 39/39/39 38/38/38 40/40/40
f 38/38/38 41/41/41 40/40/40
f 40/40/40 41/41/41 42/42/42
f 40/40/40 42/42/42 43/43/43
f 43/43/43 42/42/42 44/44/44
f 42/42/42 45/45/45 44/44/44
f 44/44/44 45/45/45 46/46/46
f 44/44/44 46/46/46 47/47/47
f 47/47/47 46/46/46 48/48/48
f 46/46/46 49/49/49 48/48/48
f 48/48/48 49/49/49 50/50/50
f 48/48/48 50/50/50 51/51/51
f 51/51/51 50/50/50 52/52/52
f 50/50/50 53/53/53 52/52/52
f 52/52/52 53/53/53 54/54/54
f 52/52/52 54/54/54 55/55/55
f 55/55/55 54/54/54 56/56/56
f 54/54/54 57/57/57 56/56/56
f 56/56/56 57/57/57 58/58/58
f 56/56/56 58/58/58 59/59/59
f 59/59/59 58/58/58 60/60/60
f 58/58/58 61/61/61 60/60/60
f 60/60/60 61/61/61 62/62/62
f 60/60/60 62/62/62 63/63/63
f 63/63/63 62/62/62 64/64/64
f 62/62/62 65/65/65 64/64/64
f 64/64/64 65/65/65 66/66/66
f 64/64/64 66/66/66 67/67/67
f 67/67/67 66/66/66 68/68/68
f 66/66/66 69/69/69 68/68/68
f 68/68/68 69/69/69 70/70/70
f 68/68/68 70/70/70 71/71/71
f 71/71/71 70/70/70 72/72/72
f 70/70/70 73/73/73 72/72/72
f 72/72/72 73/73/73 74/74/74
f 72/72/72 74/74/74 75/75/75
f 75/75/75 74/74/74 76/76/76
f 74/74/74 77/77/77 76/76/76
f 76/76/76 77/77/77 78/78/78
f 76/76/76 78/78/78 79/79/79
f 79/79/79 78/78/78 80/80/80
f 78/78/78 81/81/81 80/80/80
f 80/80/80 81/81/81 82/82/82
f 80/80/80 82/82/82 83/83/83
f 83/83/83 82/82/82 84/84/84
f 82/82/82 85/85/85 84/84/84
f 84/84/84 85/85/85 86/86/86
f 84/84/84 86/86/86 87/87/87
f 87/87/87 86/86/86 88/88/88
f 86/86/86 89/89/89 88/88/88
f 88/88/88 89/89/89 90/90/90
f 88/88/88 90/90/90 91/91/91
f 91/91/91 90/90/90 32/32/32
f 90/90/90 33/33/33 32/32/32
f 33/33/33 92/92/92 34/34/34
f 92/92/92 93/93/93 34/34/34
f 34/34/34 93/93/93 94/94/94
f 34/34/34 94/94/94 37/37/37
f 37/37/37 94/94/94 38/38/38
f 94/94/94 95/95/95 38/38/38
f 38/38/38 95/95/95 96/96/96
f 38/38/38 96/96/96 41/41/41
f 41/41/41 96/96/96 42/42/42
f 96/96/96 97/97/97 42/42/42
f 42/42/42 97/97/97 98/98/98
f 42/42/42 98/98/98 45/45/45
f 45/45/45 98/98/98 46/46/46
f 98/98/98 99/99/99 46/46/46
f 46/46/46 99/99/99 100/100/100
f 46/46/46 100/100/100 49/49/49
f 49/49/49 100/100/100 50/50/50
f 100/100/100 101/101/101 50/50/50
f 50/50/50 101/101/101 102/102/102
f 50/50/50 102/102/102 53/53/53
f 53/53/53 102/102/102 54/54/54
f 102/102/102 103/103/103 54/54/54
f 54/54/54 103/103/103 104/104/104
f 54/54/54 104/104/104 57/57/57
f 57/57/57 104/104/104 58/58/58
f 104/104/104 105/105/105 58/58/58
f 58/58/58 105/105/105 106/106/106
f 58/58/58 106/106/106 61/61/61
f 61/61/61 106/106/106 62/62/62
f 106/106/106 107/107/107 62/62/62
f 62/62/62 107/107/107 108/108/108
f 62/62/62 108/108/108 65/65/65
f 65/65/65 108/108/108 66/66/66
f 108/108/108 109/109/109 66/66/66
f 66/66/66 109/109/109 110/110/110
f 66/66/66 110/110/110 69/69/69
f 69/69/69 110/110/110 70/70/70
f 110/110/110 111/111/111 70/70/70
f 70/70/70 111/111/111 112/112/112
f 70/70/70 112/112/112 73/73/73
f 73/73/73 112/112/112 74/74/74
f 112/112/112 113/113/113 74/74/74
f 74/74/74 113/113/113 114/114/114
f 74/74/74 114/114/114 77/77/77
f 77/77/77 114/114/114 78/78/78
f 114/114/114 115/115/115 78/78/78
f 78/78/78 115/115/115 116/116/116
f 78/78/78 116/116/116 81/81/81
f 81/81/81 116/116/116 82/82/82
f 116/116/116 117/117/117 82/82/82
f 82/82/82 117/117/117 118/118/118
f 82/82/82 118/118/118 85/85/85
f 85/85/85 118/118/118 86/86/86
f 118/118/118 119/119/119 86/86/86
f 86/86/86 119/119/119 120/120/120
f 86/86/86 120/120/120 89/89/89
f 89/89/89 120/120/120 90/90/90
f 120/120/120 121/121/121 90/90/90
f 90/90/90 121/121/121 92/92/92
f 90/90/90 92/92/92 33/33/33
f 92/92/92 3/3/3 2/2/2
f 92/92/92 2/2/2 93/93/93
f 93/93/93 2/2/2 94/94/94
f 2/2/2 4/4/4 94/94/94
f 94/94/94 4/4/4 5/5/5
f 94/94/94 5/5/5 95/95/95
f 95/95/95 5/5/5 96/96/96
f 5/5/5 6/6/6 96/96/96
f 96/96/96 6/6/6 7/7/7
f 96/96/96 7/7/7 97/97/97
f 97/97/97 7/7/7 98/98/98
f 7/7/7 8/8/8 98/98/98
f 98/98/98 8/8/8 9/9/9
f 98/98/98 9/9/9 99/99/99
f 99/99/99 9/9/9 100/100/100
f 9/9/9 10/10/10 100/100/100
f 100/100/100 10/10/10 11/11/11
f 100/100/100 11/11/11 101/101/101
f 101/101/101 11/11/11 102/102/102
f 11/11/11 12/12/12 102/102/102
f 102/102/102 12/12/12 13/13/13
f 102/102/102 13/13/13 103/103/103
f 103/103/103 13/13/13 104/104/104
f 13/13/13 14/14/14 104/104/104
f 104/104/104 14/14/14 15/15/15
f 104/104/104 15/15/15 105/105/105
f 105/105/105 15/15/15 106/106/106
f 15/15/15 16/16/16 106/106/106
f 106/106/106 16/16/16 17/17/17
f 106/106/106 17/17/17 107/107/107
f 107/107/107 17/17/17 108/108/108
f 17/17/17 18/18/18 108/108/108
f 108/108/108 18/18/18 19/19/19
f 108/108/108 19/19/19 109/109/109
f 109/109/109 19/19/19 110/110/110
f 19/19/19 20/20/20 110/110/110
f 110/110/110 20/20/20 21/21/21
f 110/110/110 21/21/21 111/111/111
f 111/111/111 21/21/21 112/112/112
f 21/21/21 22/22/22 112/112/112
f 112/112/112 22/22/22 23/23/23
f 112/112/112 23/23/23 113/113/113
f 113/113/113 23/23/23 114/114/114
f 23/23/23 24/24/24 114/114/114
f 114/114/114 24/24/24 25/25/25
f 114/114/114 25/25/25 115/115/115
f 115/115/115 25/25/25 116/116/116
f 25/25/25 26/26/26 116/116/116
f 116/116/116 26/26/26 27/27/27
f 116/116/116 27/27/27 117/117/117
f 117/117/117 27/27/27 118/118/118
f 27/27/27 28/28/28 118/118/118
f 118/118/118 28/28/28 29/29/29
f 118/118/118 29/29/29 119/119/119
f 119/119/119 29/29/29 120/120/120
f 29/29/29 30/30/30 120/120/120
f 120/120/120 30/30/30 31/31/31
f 120/120/120 31/31/31 121/121/121
f 121/121/121 31/31/31 92/92/92
f 31/31/31 3/3/3 92/92/92
f 32/32/32 35/35/35 122/122/122
f 122/122/122 123/123/123 32/32/32
f 35/35/35 36/36/36 124/122/124
f 36/36/36 39/39/39 125/122/125
f 39/39/39 40/40/40 126/122/126
f 40/40/40 43/43/43 127/124/127
f 127/124/127 126/122/126 40/40/40
f 43/43/43 44/44/44 128/124/128
f 44/44/44 47/47/47 129/124/129
f 47/47/47 48/48/48 130/124/130
f 48/48/48 51/51/51 131/125/131
f 131/125/131 130/124/130 48/48/48
f 51/51/51 52/52/52 132/125/132
f 52/52/52 55/55/55 133/125/133
f 55/55/55 56/56/56 134/125/134
f 56/56/56 59/59/59 135/125/135
f 59/59/59 60/60/60 136/125/136
f 60/60/60 63/63/63 137/125/137
f 63/63/63 64/64/64 138/126/138
f 138/126/138 137/125/137 63/63/63
f 64/64/64 67/67/67 139/126/139
f 67/67/67 68/68/68 140/126/140
f 68/68/68 71/71/71 141/126/141
f 71/71/71 72/72/72 142/126/142
f 72/72/72 75/75/75 143/127/143
f 143/127/143 142/126/142 72/72/72
f 75/75/75 76/76/76 144/127/144
f 76/76/76 79/79/79 145/127/145
f 79/79/79 80/80/80 146/127/146
f 80/80/80 83/83/83 147/123/147
f 147/123/147 146/127/146 80/80/80
f 83/83/83 84/84/84 148/123/148
f 84/84/84 87/87/87 149/123/149
f 87/87/87 88/88/88 150/123/150
f 88/88/88 91/91/91 151/123/151
f 91/91/91 32/32/32 123/123/123
f 123/123/123 122/122/122 152/128/152
f 126/122/126 127/124/127 152/128/152
f 130/124/130 131/125/131 152/128/152
f 137/125/137 138/126/138 152/128/152
f 142/126/142 143/127/143 152/128/152
f 146/127/146 147/123/147 152/128/152
# 252 triangles in group

# 252 triangles total

