# Wavefront OBJ exported by MilkShape 3D

mtllib rocket.mtl

v -1.218284 -1.978459 -10.453644
v -0.123372 -0.003186 -18.181740
v 0.506110 -2.133073 -10.465879
v 1.899864 -0.971286 -10.495410
v 2.146538 0.826336 -10.524943
v 1.101630 2.206773 -10.537171
v -0.622767 2.361385 -10.524937
v -2.016518 1.199601 -10.495406
v -2.263193 -0.598020 -10.465876
v -1.015307 -1.612279 8.604453
v -1.504666 -2.495107 1.933552
v -1.561249 -2.597187 -4.752930
v 0.926387 -1.916135 8.592662
v 0.908617 -2.761432 1.917195
v 0.852034 -2.863513 -4.769289
v 2.385733 -0.860226 8.564193
v 2.816815 -1.232625 1.877708
v 2.760231 -1.334705 -4.808777
v 2.507858 0.936913 8.535723
v 3.102126 1.195762 1.838220
v 3.045544 1.093682 -4.848263
v 1.221232 2.422543 8.523931
v 1.597425 3.101211 1.821864
v 1.540842 2.999133 -4.864619
v -0.720460 2.726400 8.535723
v -0.815858 3.367537 1.838220
v -0.872443 3.265458 -4.848263
v -2.179805 1.670492 8.564193
v -2.724058 1.838731 1.877708
v -2.780639 1.736650 -4.808777
v -2.301930 -0.126649 8.592662
v -3.009367 -0.589659 1.917196
v -3.065952 -0.691737 -4.769289
v -0.103933 -0.005213 7.864192
v -1.412388 1.111243 1.856842
v -3.994342 2.584834 3.980909
v -5.160296 3.291692 7.015296
v -5.120496 3.363497 11.718601
v -3.625696 2.483440 9.139372
v -1.361032 1.203894 7.925611
v 1.274113 1.329392 1.830776
v 3.756320 3.023741 3.908619
v 4.911436 3.831785 6.921822
v 4.951236 3.903588 11.625125
v 3.491947 2.894751 9.072858
v 1.325468 1.422042 7.899545
v -0.117327 -1.209279 1.881309
v -0.099166 -4.149147 4.050753
v -0.073391 -5.465122 7.105938
v -0.033589 -5.393317 11.809241
v -0.055536 -3.698861 9.203543
v -0.065970 -1.116631 7.950078
# 52 vertices

vt 7.904474 -2.623262
vt 7.646781 -2.075698
vt 7.828998 -2.623262
vt 7.646781 -2.623262
vt 7.464567 -2.623262
vt 7.389091 -2.623262
vt 0.552471 0.283309
vt 0.532960 0.283309
vt 0.485861 0.283309
vt 0.578250 0.390001
vt 0.551188 0.390001
vt 0.578250 0.496692
vt 0.551188 0.496692
vt 0.554955 0.587429
vt 0.534719 0.587429
vt 0.485861 0.390001
vt 0.485861 0.496692
vt 0.485861 0.587429
vt 0.438761 0.283309
vt 0.420533 0.390001
vt 0.420533 0.496692
vt 0.437005 0.587429
vt 0.419251 0.283309
vt 0.393472 0.390001
vt 0.393472 0.496692
vt 0.416767 0.587429
vt 3.427547 0.091790
vt 3.802663 0.256433
vt 3.802663 -0.213976
vt 3.255618 -0.143414
vt 3.255618 -0.507981
vt 3.474436 -0.308057
# 32 texture coordinates

vn -0.474745 -0.856462 -0.202705
vn -0.008462 -0.015264 -0.999848
vn 0.284357 -0.940647 -0.185267
vn 0.851145 -0.476206 -0.220862
vn 0.945064 0.251298 -0.209055
vn 0.471025 0.849754 -0.236757
vn -0.287694 0.934627 -0.209055
vn -0.854883 0.469462 -0.220862
vn -0.948400 -0.257318 -0.185267
vn 0.008461 0.015264 0.999848
vn -0.479966 -0.865882 0.141002
vn -0.483106 -0.871546 0.083758
vn 0.268163 -0.961065 0.066654
vn 0.233340 -0.964769 0.121545
vn -0.484088 -0.873318 -0.054540
vn 0.277575 -0.958607 -0.063435
vn 0.871633 -0.481303 0.092756
vn 0.874215 -0.483755 0.041584
vn 0.871183 -0.484490 -0.079429
vn 0.958052 0.283528 0.041815
vn 0.943663 0.316687 0.095970
vn 0.958757 0.270275 -0.087960
vn 0.482059 0.869658 0.106365
vn 0.484229 0.873572 0.048930
vn 0.482870 0.871121 -0.089354
vn -0.267244 0.962721 0.041815
vn -0.231499 0.968090 0.095971
vn -0.278857 0.956296 -0.087960
vn -0.870063 0.484135 0.092756
vn -0.873511 0.485025 0.041584
vn -0.872528 0.482065 -0.079429
vn -0.957134 -0.281872 0.066654
vn -0.941822 -0.313366 0.121545
vn -0.960038 -0.272587 -0.063435
vn -0.484736 -0.874487 0.017453
vn -0.559226 0.828977 -0.007924
vn 0.999964 -0.000065 -0.008462
# 37 normals

g Cylinder03
usemtl Material01
s 1
f 1/1/1 2/2/2 3/3/3
f 3/3/3 2/2/2 4/4/4
f 4/4/4 2/2/2 5/5/5
f 5/5/5 2/2/2 6/6/6
f 6/6/6 2/2/2 7/5/7
f 7/5/7 2/2/2 8/4/8
f 8/4/8 2/2/2 9/3/9
f 9/3/9 2/2/2 1/1/1
# 8 triangles in group

g Duplicate02
usemtl Material02
s 2
f 10/7/10 13/8/10 34/9/10
s 1
f 10/7/11 11/10/12 14/11/13
f 10/7/11 14/11/13 13/8/14
f 11/10/12 12/12/15 14/11/13
f 12/12/15 15/13/16 14/11/13
f 12/12/15 1/14/1 3/15/3
f 12/12/15 3/15/3 15/13/16
s 2
f 13/8/10 16/9/10 34/9/10
s 1
f 13/8/14 14/11/13 16/9/17
f 14/11/13 17/16/18 16/9/17
f 14/11/13 15/13/16 18/17/19
f 14/11/13 18/17/19 17/16/18
f 15/13/16 3/15/3 18/17/19
f 3/15/3 4/18/4 18/17/19
s 2
f 16/9/10 19/19/10 34/9/10
s 1
f 16/9/17 17/16/18 20/20/20
f 16/9/17 20/20/20 19/19/21
f 17/16/18 18/17/19 20/20/20
f 18/17/19 21/21/22 20/20/20
f 18/17/19 4/18/4 5/22/5
f 18/17/19 5/22/5 21/21/22
s 2
f 19/19/10 22/23/10 34/9/10
s 1
f 19/19/21 20/20/20 22/23/23
f 20/20/20 23/24/24 22/23/23
f 20/20/20 21/21/22 24/25/25
f 20/20/20 24/25/25 23/24/24
f 21/21/22 5/22/5 24/25/25
f 5/22/5 6/26/6 24/25/25
s 2
f 22/23/10 25/19/10 34/9/10
s 1
f 22/23/23 23/24/24 26/20/26
f 22/23/23 26/20/26 25/19/27
f 23/24/24 24/25/25 26/20/26
f 24/25/25 27/21/28 26/20/26
f 24/25/25 6/26/6 7/22/7
f 24/25/25 7/22/7 27/21/28
s 2
f 25/19/10 28/9/10 34/9/10
s 1
f 25/19/27 26/20/26 28/9/29
f 26/20/26 29/16/30 28/9/29
f 26/20/26 27/21/28 30/17/31
f 26/20/26 30/17/31 29/16/30
f 27/21/28 7/22/7 30/17/31
f 7/22/7 8/18/8 30/17/31
s 2
f 28/9/10 31/8/10 34/9/10
s 1
f 28/9/29 29/16/30 32/11/32
f 28/9/29 32/11/32 31/8/33
f 29/16/30 30/17/31 32/11/32
f 30/17/31 33/13/34 32/11/32
f 30/17/31 8/18/8 9/15/9
f 30/17/31 9/15/9 33/13/34
s 2
f 31/8/10 10/7/10 34/9/10
s 1
f 31/8/33 32/11/32 10/7/11
f 32/11/32 11/10/12 10/7/11
f 32/11/32 33/13/34 12/12/15
f 32/11/32 12/12/15 11/10/12
f 33/13/34 9/15/9 12/12/15
f 9/15/9 1/14/1 12/12/15
# 56 triangles in group

g Duplicate03
usemtl Material01
f 36/27/35 35/28/35 40/29/35
f 37/30/35 36/27/35 40/29/35
f 38/31/35 37/30/35 39/32/35
f 39/32/35 37/30/35 40/29/35
# 4 triangles in group

g Duplicate04
usemtl Material01
f 42/27/36 41/28/36 46/29/36
f 43/30/36 42/27/36 46/29/36
f 44/31/36 43/30/36 45/32/36
f 45/32/36 43/30/36 46/29/36
# 4 triangles in group

g Duplicate05
usemtl Material01
f 48/27/37 47/28/37 52/29/37
f 49/30/37 48/27/37 52/29/37
f 50/31/37 49/30/37 51/32/37
f 51/32/37 49/30/37 52/29/37
# 4 triangles in group

# 76 triangles total

