# Wavefront OBJ exported by MilkShape 3D

mtllib rocketlauncher.mtl

v 0.106983 5.729071 -19.297178
v 1.818538 2.538270 -17.405920
v 2.781167 0.797384 -12.790401
v 2.936387 0.937689 15.795035
v 0.129113 2.193938 -17.401978
v -0.041099 0.163676 -12.782810
v -0.106567 0.248070 15.803339
v -1.566835 2.805393 -17.414698
v -2.825781 1.051146 -12.801652
v -3.103705 1.190348 15.783274
v -2.814888 4.208798 -17.440649
v -4.826717 3.221999 -12.841885
v -5.251975 3.512046 15.740241
v -3.280617 6.028114 -17.472900
v -5.507767 6.094548 -12.892738
v -5.975714 6.591075 15.685739
v -2.839243 7.775848 -17.502787
v -4.686444 8.899101 -12.940575
v -5.081029 9.602395 15.634399
v -1.609026 8.983706 -17.522329
v -2.582811 10.884188 -12.972569
v -2.807631 11.739141 15.599961
v 0.080403 9.328037 -17.526272
v 0.239455 11.517888 -12.980170
v 0.235320 12.428761 15.591658
v 1.776348 8.716580 -17.513548
v 3.024132 10.630417 -12.961330
v 3.232466 11.486479 15.611715
v 3.024401 7.313178 -17.487598
v 5.025070 8.459568 -12.921090
v 5.380723 9.164781 15.654756
v 3.490132 5.493864 -17.455345
v 5.706121 5.587019 -12.870249
v 6.104475 6.085759 15.709254
v 3.048762 3.746130 -17.425457
v 4.884797 2.782465 -12.822411
v 5.209784 3.074434 15.760597
v 2.389721 1.989616 17.359631
v 0.159499 1.518110 17.365129
v -2.065281 2.286433 17.349037
v -3.688495 4.088742 17.315678
v -4.275189 6.442097 17.273987
v -3.668170 8.715926 17.235140
v -2.030090 10.300943 17.209524
v 0.200132 10.772456 17.204037
v 2.424915 10.004124 17.220123
v 4.048119 8.201813 17.253479
v 4.634824 5.848455 17.295176
v 4.027801 3.574640 17.334026
v -4.200521 2.734017 7.424236
v -5.420889 5.028879 7.392220
v -8.233662 0.505162 3.826969
v -9.454030 2.800025 3.794952
v -8.231045 0.467740 2.166726
v -9.451412 2.762601 2.134710
v -4.192195 2.614941 2.141644
v -5.412562 4.909804 2.109627
v 5.752280 7.868269 14.020527
v 4.531913 10.163129 13.979083
v 7.369158 8.698611 12.387849
v 6.148795 10.993472 12.346401
v 7.370062 8.685684 11.645484
v 6.149699 10.980547 11.604039
v 5.755157 7.827139 11.658469
v 4.534789 10.121999 11.617022
v -4.838070 3.230612 8.371750
v -5.451878 4.248862 8.353249
v -6.866619 2.241649 6.292946
v -7.480427 3.259901 6.274448
v -6.865303 2.225044 5.333520
v -7.479110 3.243295 5.315020
v -4.833882 3.177777 5.319025
v -5.447690 4.196028 5.300523
# 73 vertices

vt 0.000000 0.333333
vt 0.083333 0.333333
vt 0.083333 0.000000
vt 0.000000 0.666667
vt 0.083333 0.666667
vt 0.000000 1.000000
vt 0.083333 1.000000
vt 0.166667 0.333333
vt 0.166667 0.666667
vt 0.166667 1.000000
vt 0.250000 0.333333
vt 0.250000 0.000000
vt 0.250000 0.666667
vt 0.250000 1.000000
vt 0.333333 0.333333
vt 0.333333 0.666667
vt 0.333333 1.000000
vt 0.416667 0.333333
vt 0.416667 0.000000
vt 0.416667 0.666667
vt 0.416667 1.000000
vt 0.500000 0.333333
vt 0.500000 0.666667
vt 0.500000 1.000000
vt 0.583333 0.333333
vt 0.583333 0.000000
vt 0.583333 0.666667
vt 0.583333 1.000000
vt 0.666667 0.333333
vt 0.666667 0.666667
vt 0.666667 1.000000
vt 0.750000 0.333333
vt 0.750000 0.000000
vt 0.750000 0.666667
vt 0.750000 1.000000
vt 0.833333 0.333333
vt 0.833333 0.666667
vt 0.833333 1.000000
vt 0.916667 0.333333
vt 0.916667 0.000000
vt 0.916667 0.666667
vt 0.916667 1.000000
vt 1.000000 0.333333
vt 1.000000 0.666667
vt 1.000000 1.000000
vt -0.279740 -2.942930
vt -1.464508 -2.045439
vt -1.464508 -2.942930
vt -0.279740 -2.045439
vt 0.821702 -2.045439
vt 0.821702 -2.942930
vt 1.923142 -2.942930
vt 1.923142 -2.045439
vt 3.024585 -2.045439
vt 3.024585 -2.942930
vt 4.126029 -2.942930
vt 4.126029 -2.045439
vt 5.227470 -2.045439
vt 5.227470 -2.942930
vt 6.328915 -2.942930
vt 6.328915 -2.045439
vt 7.430355 -2.045439
vt 7.430355 -2.942930
vt 8.531795 -2.942930
vt 8.531795 -2.045439
vt 9.633239 -2.045439
vt 9.633239 -2.942930
vt 10.734678 -2.942930
vt 10.734678 -2.045439
vt 11.752785 -2.045439
vt 11.752785 -2.942930
vt 1.929172 0.172062
vt 1.929172 -0.136790
vt 2.240694 0.172062
vt 2.240694 -0.136790
vt 2.734432 -0.133932
vt 2.601040 -0.273258
vt 2.601040 -0.133932
vt 2.734432 -0.273258
vt 1.627131 0.458555
vt 1.627131 -0.126536
vt 2.183452 0.458555
vt 2.183452 -0.126536
# 83 texture coordinates

vn 0.373431 -0.711422 -0.595339
vn -0.052442 -0.729553 -0.681911
vn 0.001217 -0.017410 -0.999848
vn 0.458503 -0.865486 -0.201765
vn -0.047986 -0.977368 -0.206030
vn 0.446059 -0.834124 0.324452
vn -0.037133 -0.939711 0.339947
vn -0.436011 -0.671148 -0.599546
vn -0.522364 -0.824379 -0.218027
vn -0.501314 -0.781613 0.371169
vn -0.636147 -0.350703 -0.687259
vn -0.857938 -0.460354 -0.228070
vn -0.813726 -0.427916 0.393368
vn -0.791155 -0.003309 -0.611607
vn -0.972167 0.021463 -0.233303
vn -0.918758 0.028424 0.393797
vn -0.623838 0.344938 -0.701316
vn -0.833882 0.500482 -0.232721
vn -0.783003 0.488921 0.384528
vn -0.371952 0.690247 -0.620653
vn -0.457972 0.857918 -0.232889
vn -0.432163 0.818613 0.378295
vn 0.054136 0.705372 -0.706767
vn 0.048531 0.969605 -0.239814
vn 0.037399 0.925077 0.377933
vn 0.437498 0.649887 -0.621484
vn 0.522928 0.816311 -0.245323
vn 0.495152 0.780110 0.382430
vn 0.637832 0.326591 -0.697502
vn 0.858510 0.452172 -0.241869
vn 0.814686 0.437809 0.380276
vn 0.792642 -0.017951 -0.609423
vn 0.972731 -0.029531 -0.230047
vn 0.932895 -0.019133 0.359639
vn 0.625529 -0.369117 -0.687362
vn 0.834424 -0.508246 -0.213124
vn 0.803983 -0.492544 0.333185
vn -0.035283 -0.770015 0.637050
vn 0.377944 -0.701775 0.603879
vn -0.402941 -0.602457 0.688973
vn -0.617023 -0.319119 0.719337
vn -0.681726 0.016120 0.731430
vn -0.585261 0.365837 0.723625
vn -0.324867 0.621848 0.712577
vn 0.033099 0.694580 0.718653
vn 0.377033 0.578994 0.722919
vn 0.618589 0.337779 0.709404
vn 0.733359 0.001644 0.679839
vn 0.666005 -0.397184 0.631413
vn -0.632941 -0.323887 0.703195
vn -0.882952 -0.469410 0.007098
vn 0.882952 0.469410 -0.007099
vn 0.469462 -0.882809 0.015944
vn -0.469462 0.882809 -0.015943
vn 0.584513 0.324266 0.743771
# 55 normals

g Cylinder01
usemtl Material02
s 1
f 2/1/1 5/2/2 1/3/3
f 2/1/1 3/4/4 6/5/5
f 2/1/1 6/5/5 5/2/2
f 3/4/4 4/6/6 6/5/5
f 4/6/6 7/7/7 6/5/5
f 1/3/3 5/2/2 8/8/8
f 5/2/2 6/5/5 8/8/8
f 6/5/5 9/9/9 8/8/8
f 6/5/5 7/7/7 10/10/10
f 6/5/5 10/10/10 9/9/9
f 8/8/8 11/11/11 1/12/3
f 8/8/8 9/9/9 12/13/12
f 8/8/8 12/13/12 11/11/11
f 9/9/9 10/10/10 12/13/12
f 10/10/10 13/14/13 12/13/12
f 1/12/3 11/11/11 14/15/14
f 11/11/11 12/13/12 14/15/14
f 12/13/12 15/16/15 14/15/14
f 12/13/12 13/14/13 16/17/16
f 12/13/12 16/17/16 15/16/15
f 14/15/14 17/18/17 1/19/3
f 14/15/14 15/16/15 18/20/18
f 14/15/14 18/20/18 17/18/17
f 15/16/15 16/17/16 18/20/18
f 16/17/16 19/21/19 18/20/18
f 1/19/3 17/18/17 20/22/20
f 17/18/17 18/20/18 20/22/20
f 18/20/18 21/23/21 20/22/20
f 18/20/18 19/21/19 22/24/22
f 18/20/18 22/24/22 21/23/21
f 20/22/20 23/25/23 1/26/3
f 20/22/20 21/23/21 24/27/24
f 20/22/20 24/27/24 23/25/23
f 21/23/21 22/24/22 24/27/24
f 22/24/22 25/28/25 24/27/24
f 1/26/3 23/25/23 26/29/26
f 23/25/23 24/27/24 26/29/26
f 24/27/24 27/30/27 26/29/26
f 24/27/24 25/28/25 28/31/28
f 24/27/24 28/31/28 27/30/27
f 26/29/26 29/32/29 1/33/3
f 26/29/26 27/30/27 30/34/30
f 26/29/26 30/34/30 29/32/29
f 27/30/27 28/31/28 30/34/30
f 28/31/28 31/35/31 30/34/30
f 1/33/3 29/32/29 32/36/32
f 29/32/29 30/34/30 32/36/32
f 30/34/30 33/37/33 32/36/32
f 30/34/30 31/35/31 34/38/34
f 30/34/30 34/38/34 33/37/33
f 32/36/32 35/39/35 1/40/3
f 32/36/32 33/37/33 36/41/36
f 32/36/32 36/41/36 35/39/35
f 33/37/33 34/38/34 36/41/36
f 34/38/34 37/42/37 36/41/36
f 1/40/3 35/39/35 2/43/1
f 35/39/35 36/41/36 2/43/1
f 36/41/36 3/44/4 2/43/1
f 36/41/36 37/42/37 4/45/6
f 36/41/36 4/45/6 3/44/4
# 60 triangles in group

g Duplicate01
usemtl Material01
f 39/46/38 4/47/6 38/48/39
f 39/46/38 7/49/7 4/47/6
f 10/50/10 7/49/7 39/46/38
f 40/51/40 10/50/10 39/46/38
f 41/52/41 10/50/10 40/51/40
f 41/52/41 13/53/13 10/50/10
f 16/54/16 13/53/13 41/52/41
f 42/55/42 16/54/16 41/52/41
f 43/56/43 16/54/16 42/55/42
f 43/56/43 19/57/19 16/54/16
f 22/58/22 19/57/19 43/56/43
f 44/59/44 22/58/22 43/56/43
f 45/60/45 22/58/22 44/59/44
f 45/60/45 25/61/25 22/58/22
f 28/62/28 25/61/25 45/60/45
f 46/63/46 28/62/28 45/60/45
f 47/64/47 28/62/28 46/63/46
f 47/64/47 31/65/31 28/62/28
f 34/66/34 31/65/31 47/64/47
f 48/67/48 34/66/34 47/64/47
f 49/68/49 34/66/34 48/67/48
f 49/68/49 37/69/37 34/66/34
f 4/70/6 37/69/37 49/68/49
f 38/71/39 4/70/6 49/68/49
# 24 triangles in group

g Box01
usemtl Material02
f 50/72/50 51/73/50 52/74/50
f 51/73/50 53/75/50 52/74/50
s 2
f 52/72/51 53/73/51 54/74/51
f 53/73/51 55/75/51 54/74/51
s 1
f 54/72/3 55/73/3 56/74/3
f 55/73/3 57/75/3 56/74/3
s 2
f 56/72/52 57/73/52 50/74/52
f 57/73/52 51/75/52 50/74/52
s 3
f 56/72/53 50/73/53 54/74/53
f 50/73/53 52/75/53 54/74/53
f 51/72/54 57/73/54 53/74/54
f 57/73/54 55/75/54 53/74/54
# 12 triangles in group

g Duplicate02
usemtl Material02
s 1
f 60/76/55 59/77/55 58/78/55
f 60/76/55 61/79/55 59/77/55
s 2
f 62/76/52 61/77/52 60/78/52
f 62/76/52 63/79/52 61/77/52
s 1
f 64/76/3 63/77/3 62/78/3
f 64/76/3 65/79/3 63/77/3
s 2
f 58/76/51 65/77/51 64/78/51
f 58/76/51 59/79/51 65/77/51
s 3
f 62/76/53 58/77/53 64/78/53
f 62/76/53 60/79/53 58/77/53
f 61/76/54 65/77/54 59/78/54
f 61/76/54 63/79/54 65/77/54
# 12 triangles in group

g Duplicate03
usemtl Material03
s 1
f 66/80/50 67/81/50 68/82/50
f 67/81/50 69/83/50 68/82/50
s 2
f 68/80/51 69/81/51 70/82/51
f 69/81/51 71/83/51 70/82/51
s 1
f 70/80/3 71/81/3 72/82/3
f 71/81/3 73/83/3 72/82/3
s 2
f 72/80/52 73/81/52 66/82/52
f 73/81/52 67/83/52 66/82/52
s 3
f 72/80/53 66/81/53 70/82/53
f 66/81/53 68/83/53 70/82/53
f 67/80/54 73/81/54 69/82/54
f 73/81/54 71/83/54 69/82/54
# 12 triangles in group

# 120 triangles total

