# Wavefront OBJ exported by MilkShape 3D

mtllib ruins07.mtl

v -6.975082 1.700235 7.297481
v -7.401676 -6.366440 8.249004
v -2.540081 -3.333348 9.214039
v -6.959412 -14.128348 8.415473
v 0.103644 -14.884734 8.249004
v 3.040082 -9.666653 9.214039
v 7.901676 -6.633559 8.249004
v 7.475084 -14.700235 7.297482
v 8.837875 -3.531949 2.988012
v 7.755320 -15.018295 -1.090036
v 8.729060 -9.765953 -3.238015
v 7.901676 -6.633561 -8.499008
v 7.188793 -14.375307 -8.665478
v 3.148897 -3.432651 -9.464043
v 0.103644 -14.884735 -8.499008
v -2.648896 -9.567352 -9.464043
v -7.401676 -6.366440 -8.499008
v -7.256866 -14.443089 -7.547485
v -8.229059 -3.234047 -3.238015
v -7.548031 -14.751174 0.840033
v -8.337875 -9.468050 2.988012
v -6.688793 1.375305 -8.665478
v -7.255320 2.018295 -1.090036
v -2.431267 2.900656 -3.238015
v -6.975082 1.700235 7.297481
v 0.396357 1.884735 8.249004
v 3.257711 2.801355 2.988012
v -7.548031 -14.751174 0.840033
v -2.757710 -15.801354 2.988012
v 7.188793 -14.375307 -8.665478
v 2.931267 -15.900656 -3.238015
v 0.250000 -6.500000 9.214039
v 0.396357 1.884735 8.249004
v 7.475084 -14.700235 7.297482
v 7.901676 -6.633559 8.249004
v 8.783467 -6.648952 -0.125002
v 7.459411 1.128349 8.415473
v 8.048032 1.751175 0.840033
v 7.901676 -6.633561 -8.499008
v 0.250000 -6.500001 -9.464043
v 7.756866 1.443089 -7.547485
v 0.396357 1.884735 -8.499008
v -7.256866 -14.443089 -7.547485
v -7.401676 -6.366440 -8.499008
v -8.283466 -6.351048 -0.125002
v -7.255320 2.018295 -1.090036
v -7.401676 -6.366440 8.249004
v -6.975082 1.700235 7.297481
v 0.413222 2.851006 -0.125002
v 7.756866 1.443089 -7.547485
v 7.459411 1.128349 8.415473
v 8.048032 1.751175 0.840033
v 0.086779 -15.851005 -0.125002
v -6.959412 -14.128348 8.415473
v 0.103644 -14.884734 8.249004
v 7.755320 -15.018295 -1.090036
v 7.475084 -14.700235 7.297482
v -6.959412 -14.128348 8.415473
v 7.459411 1.128349 8.415473
v -6.688793 1.375305 -8.665478
# 60 vertices

vt 0.000000 1.000000
vt 0.000000 0.500000
vt 0.333333 0.666667
vt 0.000000 0.000000
vt 0.500000 0.000000
vt 0.666667 0.333333
vt 1.000000 0.000000
vt 0.500000 0.500000
vt 0.500000 1.000000
vt 1.000000 0.500000
vt 1.000000 1.000000
# 11 texture coordinates

vn -0.200253 0.189554 0.961233
vn -0.235119 0.068377 0.969559
vn -0.101648 0.096268 0.990152
vn -0.078238 -0.069092 0.994538
vn 0.066972 -0.217765 0.973701
vn 0.101648 -0.096268 0.990152
vn 0.985349 -0.008494 0.170336
vn 0.991145 -0.104967 0.081317
vn 0.996836 0.044401 0.065924
vn 0.980952 -0.192498 -0.026012
vn 0.994679 -0.079163 -0.065924
vn 0.237362 0.060130 -0.969559
vn 0.075779 -0.071780 -0.994538
vn 0.104946 0.092662 -0.990152
vn -0.074531 -0.215295 -0.973701
vn -0.104946 -0.092662 -0.990152
vn -0.985046 0.025899 -0.170336
vn -0.994205 -0.070312 -0.081317
vn -0.994679 0.079163 -0.065924
vn -0.987073 -0.158147 0.026012
vn -0.996836 -0.044401 0.065924
vn -0.143817 0.976325 -0.161573
vn -0.191967 0.980998 -0.028149
vn -0.056465 0.995799 -0.072079
vn -0.087649 0.992174 0.088927
vn 0.027466 0.982155 0.186059
vn 0.091184 0.993222 0.072079
vn -0.226086 -0.973701 0.028149
vn -0.122222 -0.988511 -0.088927
vn -0.091184 -0.993222 0.072079
vn -0.006827 -0.982515 -0.186059
vn 0.143817 -0.976325 -0.161573
vn 0.056465 -0.995799 -0.072079
vn 0.000000 0.000000 1.000000
vn -0.066972 0.217765 0.973701
vn 0.200253 -0.189554 0.961233
vn 0.235119 -0.068377 0.969559
vn 0.999848 -0.017452 -0.000000
vn 0.981911 0.117800 0.148236
vn 0.987073 0.158146 0.026012
vn 0.977202 -0.151997 -0.148236
vn 0.985046 -0.025899 -0.170336
vn 0.000000 0.000000 -1.000000
vn 0.206747 0.182449 -0.961233
vn 0.074531 0.215295 -0.973701
vn -0.206747 -0.182449 -0.961233
vn -0.237362 -0.060130 -0.969559
vn -0.999848 0.017453 -0.000000
vn -0.977202 0.151996 -0.148236
vn -0.980953 0.192498 -0.026012
vn -0.985349 0.008494 0.170336
vn -0.991145 0.104967 0.081317
vn 0.017452 0.999848 -0.000000
vn 0.006827 0.982515 -0.186059
vn 0.122222 0.988511 -0.088927
vn 0.177803 0.970711 0.161573
vn 0.226086 0.973701 0.028149
vn -0.017452 -0.999848 0.000000
vn -0.177803 -0.970711 0.161573
vn -0.027466 -0.982155 0.186059
vn 0.191967 -0.980998 -0.028149
vn 0.087649 -0.992174 0.088927
vn -0.981911 -0.117800 0.148236
vn 0.078238 0.069092 0.994538
vn 0.994205 0.070312 -0.081318
vn -0.075779 0.071780 -0.994538
# 66 normals

g Duplicate18
usemtl Material01
s 1
f 1/1/1 2/2/2 3/3/3
f 4/4/4 5/5/5 6/6/6
s 2
f 7/2/7 8/4/8 9/3/9
f 8/4/8 10/5/10 11/6/11
s 1
f 12/2/12 13/4/13 14/3/14
f 13/4/13 15/5/15 16/6/16
s 2
f 17/2/17 18/4/18 19/3/19
f 18/4/18 20/5/20 21/6/21
s 3
f 22/1/22 23/2/23 24/3/24
f 25/4/25 26/5/26 27/6/27
f 28/2/28 18/4/29 29/3/30
f 15/5/31 30/7/32 31/6/33
s 1
f 3/3/3 4/4/4 32/8/34
f 1/1/1 3/3/3 33/9/35
f 6/6/6 34/7/36 35/10/37
f 4/4/4 6/6/6 32/8/34
s 2
f 9/3/9 8/4/8 36/8/38
f 37/1/39 9/3/9 38/9/40
f 11/6/11 30/7/41 39/10/42
f 8/4/8 11/6/11 36/8/38
s 1
f 14/3/14 13/4/13 40/8/43
f 41/1/44 14/3/14 42/9/45
f 16/6/16 43/7/46 44/10/47
f 13/4/13 16/6/16 40/8/43
s 2
f 19/3/19 18/4/18 45/8/48
f 22/1/49 19/3/19 46/9/50
f 21/6/21 47/10/51 48/11/52
f 18/4/18 21/6/21 45/8/48
s 3
f 24/3/24 25/4/25 49/8/53
f 42/9/54 24/3/24 50/11/55
f 27/6/27 51/7/56 52/10/57
f 25/4/25 27/6/27 49/8/53
f 29/3/30 18/4/29 53/8/58
f 54/1/59 29/3/30 55/9/60
f 31/6/33 56/10/61 57/11/62
f 18/4/29 31/6/33 53/8/58
s 2
f 21/6/21 58/7/63 47/10/51
s 1
f 2/2/2 4/4/4 3/3/3
f 3/3/3 32/8/34 59/11/64
f 32/8/34 6/6/6 59/11/64
f 33/9/35 3/3/3 59/11/64
s 3
f 26/5/26 51/7/56 27/6/27
f 55/9/60 29/3/30 57/11/62
s 1
f 5/5/5 34/7/36 6/6/6
f 6/6/6 35/10/37 59/11/64
s 2
f 37/1/39 7/2/7 9/3/9
f 36/8/38 11/6/11 50/11/65
f 9/3/9 36/8/38 50/11/65
s 3
f 27/6/27 52/10/57 50/11/55
s 2
f 38/9/40 9/3/9 50/11/65
s 3
f 31/6/33 30/7/32 56/10/61
s 2
f 10/5/10 30/7/41 11/6/11
f 11/6/11 39/10/42 50/11/65
s 1
f 41/1/44 12/2/12 14/3/14
f 40/8/43 16/6/16 60/11/66
f 14/3/14 40/8/43 60/11/66
f 42/9/45 14/3/14 60/11/66
s 3
f 22/1/22 24/3/24 42/9/54
f 18/4/29 15/5/31 31/6/33
s 1
f 15/5/15 43/7/46 16/6/16
f 16/6/16 44/10/47 60/11/66
s 2
f 22/1/49 17/2/17 19/3/19
f 19/3/19 45/8/48 48/11/52
f 45/8/48 21/6/21 48/11/52
s 3
f 23/2/23 25/4/25 24/3/24
s 2
f 46/9/50 19/3/19 48/11/52
s 3
f 54/1/59 28/2/28 29/3/30
s 2
f 20/5/20 58/7/63 21/6/21
s 3
f 49/8/53 27/6/27 50/11/55
f 24/3/24 49/8/53 50/11/55
f 29/3/30 53/8/58 57/11/62
f 53/8/58 31/6/33 57/11/62
# 72 triangles in group

# 72 triangles total

