# Wavefront OBJ exported by MilkShape 3D

mtllib ruins02.mtl

v -3.565228 19.365465 -10.534748
v -3.875248 10.219990 -8.380670
v -1.550099 14.342790 -8.392223
v -3.293961 -2.651301 -6.114876
v 0.000000 -4.172574 -5.954110
v 1.550099 6.295405 -7.117642
v 3.875248 10.219991 -8.380670
v 3.565228 -3.476853 -6.769879
v 4.650298 13.946362 -10.895171
v 3.875248 -4.767217 -9.708533
v 4.650298 5.502550 -12.123539
v 3.875248 9.228922 -14.638041
v 3.293961 -3.667148 -12.528684
v 1.550099 13.153507 -15.901069
v 0.000000 -5.163645 -12.211484
v -1.550099 5.106121 -14.626488
v -3.875248 9.228921 -14.638041
v -3.565228 -4.249888 -11.650630
v -4.650298 13.549934 -13.398121
v -3.875248 -4.569002 -8.457059
v -4.650298 5.898977 -9.620591
v -3.293961 17.766880 -16.070499
v -3.875248 19.684582 -13.728318
v -1.550099 21.597321 -14.672700
v 0.000000 20.279222 -9.973896
v 1.550099 21.993750 -12.169751
v -1.550099 -6.481742 -7.512677
v 1.550099 -6.878171 -10.015626
v 0.000000 10.319098 -7.754932
v 4.650298 9.724457 -11.509356
v 3.293961 18.782726 -9.656694
v 3.875248 19.882795 -12.476844
v 0.000000 9.129814 -15.263779
v 3.565228 18.592434 -15.415497
v 0.000000 19.288155 -16.231266
v -4.650298 9.724455 -11.509356
v 0.000000 21.795536 -13.421227
v 0.000000 -6.679956 -8.764152
v -3.565228 19.360657 15.686501
v -3.875248 9.492371 15.729118
v -1.550099 13.714314 16.668051
v -3.293961 -4.917030 14.691202
v 0.000000 -6.511863 14.501026
v 1.550099 5.177594 16.085577
v 3.875248 9.492371 15.729119
v 3.565228 -5.607132 13.846807
v 4.650298 13.899981 14.077271
v 3.875248 -6.233364 10.614854
v 4.650298 5.548927 10.904016
v 3.875248 9.956537 9.252169
v 3.293961 0.892073 8.552325
v 1.550099 14.271314 8.895711
v 0.000000 -6.047698 8.024073
v -1.550099 5.734594 8.313235
v -3.875248 9.956537 9.252169
v -3.565228 -5.245083 8.794785
v -4.650298 14.085648 11.486491
v -3.875248 -6.326197 11.910244
v -4.650298 5.363260 13.494796
v -3.293961 19.032604 9.790087
v -3.875248 20.441771 12.571043
v -1.550099 22.622368 12.068967
v 0.000000 20.163271 16.457212
v 1.550099 22.436701 14.659747
v -1.550099 -8.506794 12.412320
v 1.550099 -8.321127 9.821540
v 0.000000 9.445953 16.376814
v 4.650298 9.724455 12.490644
v 3.293961 18.556833 16.428961
v 3.875248 20.348938 13.866433
v 0.000000 10.002954 8.604473
v 3.565228 19.722708 10.634480
v 0.000000 20.627438 9.980263
v -4.650298 9.724453 12.490643
v 0.000000 22.529533 13.364357
v 0.000000 -8.413960 11.116930
v -5.247622 25.663511 -14.284343
v -5.703937 26.402802 0.330196
v -2.281574 26.741829 -6.071390
v -4.848346 26.687626 13.861361
v 0.000000 26.672184 16.253933
v 2.281574 26.957336 6.667600
v 5.703937 26.402802 0.330195
v 5.247622 26.159176 15.015333
v 6.844724 24.954706 -5.943029
v 5.703937 23.991501 16.446476
v 6.844724 23.383089 6.924323
v 5.703937 21.934994 0.651099
v 4.848346 22.108124 14.190288
v 2.281574 21.380461 -5.686306
v 0.000000 22.204380 16.574837
v -2.281574 21.595968 7.052685
v -5.703937 21.934996 0.651099
v -5.247622 22.674286 15.265638
v -6.844724 23.167585 -5.814667
v -5.703937 24.885063 16.382294
v -6.844724 25.170214 6.795962
v -4.848346 21.650171 -12.880068
v -5.703937 23.452736 -15.401000
v -2.281574 22.952078 -18.553658
v 0.000000 26.133419 -15.593542
v 2.281574 24.739199 -18.682018
v -2.281574 25.385719 19.534952
v 2.281574 23.598597 19.663313
v 0.000000 26.849583 0.298105
v 6.844724 24.168898 0.490647
v 4.848346 26.229675 -13.208992
v 5.703937 24.346294 -15.465181
v 0.000000 21.488214 0.683189
v 5.247622 22.178619 -14.034039
v 0.000000 21.665611 -15.272639
v -6.844724 24.168900 0.490648
v 0.000000 23.845638 -18.617838
v 0.000000 24.492157 19.599133
# 114 vertices

vt 0.000000 1.000000
vt 0.000000 0.500000
vt 0.333333 0.666667
vt 0.000000 0.000000
vt 0.500000 0.000000
vt 0.666667 0.333333
vt 1.000000 0.000000
vt 0.500000 0.500000
vt 0.500000 1.000000
vt 1.000000 0.500000
vt 1.000000 1.000000
# 11 texture coordinates

vn -0.309220 0.265476 0.913184
vn -0.331988 0.189822 0.923987
vn -0.140693 0.213680 0.966719
vn -0.092224 0.135912 0.986419
vn 0.105737 0.094372 0.989906
vn 0.139817 0.130427 0.981550
vn 0.917928 0.072315 0.390102
vn 0.981398 -0.019221 0.191018
vn 0.986102 0.075124 0.148189
vn 0.993934 -0.089907 -0.063346
vn 0.987150 -0.046940 -0.152748
vn 0.316121 -0.115752 -0.941631
vn 0.104314 -0.193143 -0.975610
vn 0.140958 -0.101159 -0.984834
vn -0.102616 -0.242355 -0.964746
vn -0.138553 -0.193682 -0.971231
vn -0.920305 -0.053887 -0.387471
vn -0.981123 -0.080654 -0.175765
vn -0.986311 0.024407 -0.163081
vn -0.994291 -0.064139 0.085274
vn -0.987966 0.003769 0.154625
vn -0.458565 0.481362 -0.747000
vn -0.672723 0.701242 -0.236014
vn -0.251083 0.843543 -0.474756
vn -0.405083 0.862429 0.303518
vn -0.025010 0.796437 0.604204
vn 0.251083 0.948964 0.190851
vn -0.672723 -0.701242 0.236015
vn -0.405083 -0.862430 -0.303517
vn -0.251083 -0.843543 0.474756
vn -0.025010 -0.796437 -0.604204
vn 0.458566 -0.688638 -0.561689
vn 0.251083 -0.948964 -0.190851
vn 0.017233 0.162884 0.986495
vn -0.102029 0.280900 0.954298
vn 0.272412 0.090264 0.957938
vn 0.293167 0.131089 0.947032
vn 0.999749 0.003224 -0.022160
vn 0.915620 0.162626 0.367685
vn 0.987128 0.146170 0.064904
vn 0.929983 -0.122241 -0.346683
vn 0.929879 -0.052302 -0.364127
vn 0.000239 -0.156524 -0.987674
vn 0.309220 -0.029706 -0.950526
vn 0.102029 -0.027743 -0.994394
vn -0.291079 -0.232482 -0.928022
vn -0.309107 -0.176946 -0.934421
vn -0.999822 0.008358 0.016927
vn -0.915620 0.041046 -0.399944
vn -0.987128 0.118960 -0.106896
vn -0.933247 0.066069 0.353108
vn -0.977052 0.102320 0.186816
vn -0.000000 0.987688 -0.156434
vn 0.025010 0.570748 -0.820744
vn 0.405083 0.726427 -0.555168
vn 0.458565 0.688638 0.561690
vn 0.672723 0.739853 0.007768
vn -0.000000 -0.987688 0.156435
vn -0.458565 -0.481363 0.746999
vn 0.025010 -0.570748 0.820744
vn 0.672723 -0.739853 -0.007767
vn 0.405083 -0.726427 0.555168
vn -0.934586 -0.002401 0.355728
vn 0.110204 0.197353 0.974119
vn 0.977052 0.039583 -0.209291
vn -0.110204 -0.113326 -0.987427
vn -0.316045 0.051888 0.947324
vn -0.324342 -0.031628 0.945411
vn -0.143937 -0.014081 0.989487
vn -0.104822 -0.102401 0.989205
vn 0.105587 -0.147310 0.983438
vn 0.141521 -0.102638 0.984600
vn 0.922899 -0.018144 0.384613
vn 0.982540 -0.059606 0.176242
vn 0.986943 0.037318 0.156685
vn 0.984569 -0.060738 -0.164115
vn 0.982141 -0.009326 -0.187913
vn 0.329289 0.099879 -0.938932
vn 0.128425 0.041915 -0.990833
vn 0.146334 0.121239 -0.981778
vn -0.064437 0.016011 -0.997793
vn -0.122421 0.044314 -0.991488
vn -0.920898 0.037114 -0.388033
vn -0.982686 -0.032396 -0.182425
vn -0.986812 0.059460 -0.150553
vn -0.994802 -0.075258 0.068600
vn -0.987855 -0.029651 0.152524
vn -0.471097 0.624389 -0.623062
vn -0.690470 0.719849 -0.071196
vn -0.259947 0.924695 -0.278147
vn -0.419058 0.761127 0.495052
vn -0.026717 0.631132 0.775215
vn 0.260049 0.876417 0.405299
vn -0.690470 -0.719849 0.071196
vn -0.419058 -0.761127 -0.495052
vn -0.259947 -0.924695 0.278147
vn 0.167088 -0.538869 -0.825652
vn 0.532736 -0.213643 -0.818870
vn 0.315796 -0.806703 -0.499503
vn 0.001827 -0.067413 0.997724
vn -0.104477 0.057573 0.992859
vn 0.293780 -0.141352 0.945364
vn 0.312861 -0.090486 0.945479
vn 0.999777 0.007495 -0.019724
vn 0.919267 0.072345 0.386928
vn 0.988081 0.121826 0.094101
vn 0.893975 -0.034761 -0.446766
vn 0.928303 0.024181 -0.371039
vn -0.000009 0.068077 -0.997680
vn 0.316260 0.180173 -0.931406
vn 0.104588 0.192009 -0.975804
vn -0.277120 0.008722 -0.960796
vn -0.298687 0.047483 -0.953169
vn -0.999710 0.005403 0.023468
vn -0.919505 0.124220 -0.372934
vn -0.988150 0.133436 -0.075854
vn -0.933717 -0.018213 0.357549
vn -0.978186 0.054968 0.200326
vn 0.000561 0.997489 0.070813
vn 0.026812 0.732757 -0.679962
vn 0.419983 0.822916 -0.382654
vn 0.469974 0.532310 0.704110
vn 0.690017 0.702952 0.172435
vn 0.000561 -0.997489 -0.070813
vn -0.471097 -0.624389 0.623061
vn 0.026812 -0.732758 0.679961
vn 0.683488 -0.607314 -0.404986
vn 0.419983 -0.822915 0.382654
vn -0.934813 -0.083153 0.345268
vn 0.112857 -0.026164 0.993267
vn 0.978276 0.081645 -0.190554
vn -0.112873 0.109014 -0.987611
vn -0.156289 0.985018 -0.072885
vn -0.162171 0.986160 -0.034472
vn -0.071055 0.996568 -0.042472
vn -0.053480 0.998566 0.002308
vn 0.050040 0.997881 0.041592
vn 0.070803 0.997454 0.008571
vn 0.767770 0.640672 -0.008272
vn 0.917458 0.393676 0.057364
vn 0.957109 0.286027 -0.046166
vn 0.980649 -0.148989 0.127005
vn 0.957109 -0.286027 0.046166
vn 0.161770 -0.986828 -0.001011
vn 0.053537 -0.997911 0.036148
vn 0.070803 -0.997454 -0.008570
vn -0.050454 -0.995852 0.075719
vn -0.071055 -0.996568 0.042472
vn -0.768188 -0.640082 0.013514
vn -0.919980 -0.385531 0.070726
vn -0.956185 -0.290515 -0.036205
vn -0.978930 0.164207 0.121378
vn -0.956185 0.290516 0.036205
vn -0.313687 -0.884665 -0.344917
vn -0.678967 -0.208492 -0.703942
vn -0.255386 -0.559522 -0.788488
vn -0.345435 0.686661 -0.639665
vn -0.033673 0.901354 -0.431771
vn 0.250797 0.501808 -0.827822
vn -0.678967 0.208493 0.703942
vn -0.345435 -0.686661 0.639665
vn -0.255386 0.559522 0.788488
vn -0.033673 -0.901355 0.431770
vn 0.325262 -0.862602 0.387456
vn 0.250797 -0.501809 0.827822
vn 0.000032 0.999857 -0.016926
vn -0.050455 0.995852 -0.075718
vn 0.155428 0.987071 0.039152
vn 0.161771 0.986828 0.001011
vn 1.000000 0.000000 0.000000
vn 0.755291 0.648657 -0.093701
vn 0.980649 0.148988 -0.127005
vn 0.755290 -0.648658 0.093701
vn 0.767770 -0.640672 0.008272
vn 0.000032 -0.999857 0.016926
vn 0.155428 -0.987071 -0.039152
vn 0.050039 -0.997881 -0.041592
vn -0.156289 -0.985019 0.072885
vn -0.162171 -0.986160 0.034472
vn -1.000000 0.000000 -0.000000
vn -0.750668 -0.656850 -0.071037
vn -0.978930 -0.164206 -0.121378
vn -0.768187 0.640083 -0.013514
vn -0.919980 0.385532 -0.070726
vn -0.011423 -0.042589 -0.999027
vn 0.031055 -0.923017 -0.383505
vn 0.329882 -0.739914 -0.586263
vn 0.325263 0.862601 -0.387457
vn 0.686672 0.138831 -0.713587
vn -0.011423 0.042589 0.999027
vn -0.313687 0.884666 0.344916
vn 0.031056 0.923017 0.383504
vn 0.686672 -0.138832 0.713587
vn 0.329883 0.739914 0.586263
vn -0.750668 0.656850 0.071037
vn 0.053537 0.997911 -0.036148
vn 0.917458 -0.393676 -0.057364
vn -0.053480 -0.998566 -0.002308
# 198 normals

g Box01
usemtl Material01
s 1
f 1/1/1 2/2/2 3/3/3
f 4/4/4 5/5/5 6/6/6
s 2
f 7/2/7 8/4/8 9/3/9
f 8/4/8 10/5/10 11/6/11
s 1
f 12/2/12 13/4/13 14/3/14
f 13/4/13 15/5/15 16/6/16
s 2
f 17/2/17 18/4/18 19/3/19
f 18/4/18 20/5/20 21/6/21
s 3
f 22/1/22 23/2/23 24/3/24
f 1/4/25 25/5/26 26/6/27
f 20/2/28 18/4/29 27/3/30
f 15/5/31 13/7/32 28/6/33
s 1
f 3/3/3 4/4/4 29/8/34
f 1/1/1 3/3/3 25/9/35
f 6/6/6 8/7/36 7/10/37
f 4/4/4 6/6/6 29/8/34
s 2
f 9/3/9 8/4/8 30/8/38
f 31/1/39 9/3/9 32/9/40
f 11/6/11 13/7/41 12/10/42
f 8/4/8 11/6/11 30/8/38
s 1
f 14/3/14 13/4/13 33/8/43
f 34/1/44 14/3/14 35/9/45
f 16/6/16 18/7/46 17/10/47
f 13/4/13 16/6/16 33/8/43
s 2
f 19/3/19 18/4/18 36/8/48
f 22/1/49 19/3/19 23/9/50
f 21/6/21 2/10/51 1/11/52
f 18/4/18 21/6/21 36/8/48
s 3
f 24/3/24 1/4/25 37/8/53
f 35/9/54 24/3/24 34/11/55
f 26/6/27 31/7/56 32/10/57
f 1/4/25 26/6/27 37/8/53
f 27/3/30 18/4/29 38/8/58
f 4/1/59 27/3/30 5/9/60
f 28/6/33 10/10/61 8/11/62
f 18/4/29 28/6/33 38/8/58
s 2
f 21/6/21 4/7/63 2/10/51
s 1
f 2/2/2 4/4/4 3/3/3
f 3/3/3 29/8/34 31/11/64
f 29/8/34 6/6/6 31/11/64
s 3
f 25/5/26 31/7/56 26/6/27
s 1
f 25/9/35 3/3/3 31/11/64
s 3
f 5/9/60 27/3/30 8/11/62
s 1
f 5/5/5 8/7/36 6/6/6
s 2
f 31/1/39 7/2/7 9/3/9
s 1
f 6/6/6 7/10/37 31/11/64
s 2
f 30/8/38 11/6/11 34/11/65
f 9/3/9 30/8/38 34/11/65
f 32/9/40 9/3/9 34/11/65
s 3
f 26/6/27 32/10/57 34/11/55
s 2
f 10/5/10 13/7/41 11/6/11
s 3
f 28/6/33 13/7/32 10/10/61
s 1
f 34/1/44 12/2/12 14/3/14
s 2
f 11/6/11 12/10/42 34/11/65
s 1
f 14/3/14 33/8/43 22/11/66
f 33/8/43 16/6/16 22/11/66
f 35/9/45 14/3/14 22/11/66
s 3
f 22/1/22 24/3/24 35/9/54
s 1
f 15/5/15 18/7/46 16/6/16
s 3
f 18/4/29 15/5/31 28/6/33
s 2
f 22/1/49 17/2/17 19/3/19
s 1
f 16/6/16 17/10/47 22/11/66
s 2
f 19/3/19 36/8/48 1/11/52
f 36/8/48 21/6/21 1/11/52
f 23/9/50 19/3/19 1/11/52
s 3
f 23/2/23 1/4/25 24/3/24
s 2
f 20/5/20 4/7/63 21/6/21
s 3
f 4/1/59 20/2/28 27/3/30
f 24/3/24 37/8/53 34/11/55
f 37/8/53 26/6/27 34/11/55
f 27/3/30 38/8/58 8/11/62
f 38/8/58 28/6/33 8/11/62
# 72 triangles in group

g Duplicate01
usemtl Material01
s 1
f 39/1/67 40/2/68 41/3/69
f 42/4/70 43/5/71 44/6/72
s 2
f 45/2/73 46/4/74 47/3/75
f 46/4/74 48/5/76 49/6/77
s 1
f 50/2/78 51/4/79 52/3/80
f 51/4/79 53/5/81 54/6/82
s 2
f 55/2/83 56/4/84 57/3/85
f 56/4/84 58/5/86 59/6/87
s 3
f 60/1/88 61/2/89 62/3/90
f 39/4/91 63/5/92 64/6/93
f 58/2/94 56/4/95 65/3/96
f 53/5/97 51/7/98 66/6/99
s 1
f 41/3/69 42/4/70 67/8/100
f 39/1/67 41/3/69 63/9/101
f 44/6/72 46/7/102 45/10/103
f 42/4/70 44/6/72 67/8/100
s 2
f 47/3/75 46/4/74 68/8/104
f 69/1/105 47/3/75 70/9/106
f 49/6/77 51/7/107 50/10/108
f 46/4/74 49/6/77 68/8/104
s 1
f 52/3/80 51/4/79 71/8/109
f 72/1/110 52/3/80 73/9/111
f 54/6/82 56/7/112 55/10/113
f 51/4/79 54/6/82 71/8/109
s 2
f 57/3/85 56/4/84 74/8/114
f 60/1/115 57/3/85 61/9/116
f 59/6/87 40/10/117 39/11/118
f 56/4/84 59/6/87 74/8/114
s 3
f 62/3/90 39/4/91 75/8/119
f 73/9/120 62/3/90 72/11/121
f 64/6/93 69/7/122 70/10/123
f 39/4/91 64/6/93 75/8/119
f 65/3/96 56/4/95 76/8/124
f 42/1/125 65/3/96 43/9/126
f 66/6/99 48/10/127 46/11/128
f 56/4/95 66/6/99 76/8/124
s 1
f 40/2/68 42/4/70 41/3/69
s 2
f 59/6/87 42/7/129 40/10/117
s 1
f 41/3/69 67/8/100 69/11/130
f 67/8/100 44/6/72 69/11/130
s 3
f 63/5/92 69/7/122 64/6/93
s 1
f 63/9/101 41/3/69 69/11/130
f 43/5/71 46/7/102 44/6/72
s 3
f 43/9/126 65/3/96 46/11/128
s 2
f 69/1/105 45/2/73 47/3/75
s 1
f 44/6/72 45/10/103 69/11/130
s 2
f 47/3/75 68/8/104 72/11/131
f 68/8/104 49/6/77 72/11/131
f 70/9/106 47/3/75 72/11/131
s 3
f 64/6/93 70/10/123 72/11/121
s 2
f 48/5/76 51/7/107 49/6/77
s 3
f 66/6/99 51/7/98 48/10/127
s 1
f 72/1/110 50/2/78 52/3/80
s 2
f 49/6/77 50/10/108 72/11/131
s 1
f 52/3/80 71/8/109 60/11/132
f 71/8/109 54/6/82 60/11/132
f 73/9/111 52/3/80 60/11/132
s 3
f 60/1/88 62/3/90 73/9/120
s 1
f 53/5/81 56/7/112 54/6/82
s 3
f 56/4/95 53/5/97 66/6/99
s 2
f 60/1/115 55/2/83 57/3/85
s 1
f 54/6/82 55/10/113 60/11/132
s 2
f 57/3/85 74/8/114 39/11/118
f 74/8/114 59/6/87 39/11/118
s 3
f 61/2/89 39/4/91 62/3/90
s 2
f 61/9/116 57/3/85 39/11/118
f 58/5/86 42/7/129 59/6/87
s 3
f 42/1/125 58/2/94 65/3/96
f 62/3/90 75/8/119 72/11/121
f 75/8/119 64/6/93 72/11/121
f 65/3/96 76/8/124 46/11/128
f 76/8/124 66/6/99 46/11/128
# 72 triangles in group

g Duplicate02
usemtl Material01
s 1
f 77/1/133 78/2/134 79/3/135
f 80/4/136 81/5/137 82/6/138
s 2
f 83/2/139 84/4/140 85/3/141
f 84/4/140 86/5/142 87/6/143
s 1
f 88/2/144 89/4/145 90/3/146
f 89/4/145 91/5/147 92/6/148
s 2
f 93/2/149 94/4/150 95/3/151
f 94/4/150 96/5/152 97/6/153
s 3
f 98/1/154 99/2/155 100/3/156
f 77/4/157 101/5/158 102/6/159
f 96/2/160 94/4/161 103/3/162
f 91/5/163 89/7/164 104/6/165
s 1
f 79/3/135 80/4/136 105/8/166
f 77/1/133 79/3/135 101/9/167
f 82/6/138 84/7/168 83/10/169
f 80/4/136 82/6/138 105/8/166
s 2
f 85/3/141 84/4/140 106/8/170
f 107/1/171 85/3/141 108/9/172
f 87/6/143 89/7/173 88/10/174
f 84/4/140 87/6/143 106/8/170
s 1
f 90/3/146 89/4/145 109/8/175
f 110/1/176 90/3/146 111/9/177
f 92/6/148 94/7/178 93/10/179
f 89/4/145 92/6/148 109/8/175
s 2
f 95/3/151 94/4/150 112/8/180
f 98/1/181 95/3/151 99/9/182
f 97/6/153 78/10/183 77/11/184
f 94/4/150 97/6/153 112/8/180
s 3
f 100/3/156 77/4/157 113/8/185
f 111/9/186 100/3/156 110/11/187
f 102/6/159 107/7/188 108/10/189
f 77/4/157 102/6/159 113/8/185
f 103/3/162 94/4/161 114/8/190
f 80/1/191 103/3/162 81/9/192
f 104/6/165 86/10/193 84/11/194
f 94/4/161 104/6/165 114/8/190
s 1
f 78/2/134 80/4/136 79/3/135
s 2
f 97/6/153 80/7/195 78/10/183
s 1
f 79/3/135 105/8/166 107/11/196
f 105/8/166 82/6/138 107/11/196
s 3
f 101/5/158 107/7/188 102/6/159
s 1
f 101/9/167 79/3/135 107/11/196
f 81/5/137 84/7/168 82/6/138
s 3
f 81/9/192 103/3/162 84/11/194
s 2
f 107/1/171 83/2/139 85/3/141
s 1
f 82/6/138 83/10/169 107/11/196
s 2
f 85/3/141 106/8/170 110/11/197
f 106/8/170 87/6/143 110/11/197
f 108/9/172 85/3/141 110/11/197
s 3
f 102/6/159 108/10/189 110/11/187
s 2
f 86/5/142 89/7/173 87/6/143
s 3
f 104/6/165 89/7/164 86/10/193
s 1
f 110/1/176 88/2/144 90/3/146
s 2
f 87/6/143 88/10/174 110/11/197
s 1
f 90/3/146 109/8/175 98/11/198
f 109/8/175 92/6/148 98/11/198
f 111/9/177 90/3/146 98/11/198
s 3
f 98/1/154 100/3/156 111/9/186
s 1
f 91/5/147 94/7/178 92/6/148
s 3
f 94/4/161 91/5/163 104/6/165
s 2
f 98/1/181 93/2/149 95/3/151
s 1
f 92/6/148 93/10/179 98/11/198
s 2
f 95/3/151 112/8/180 77/11/184
f 112/8/180 97/6/153 77/11/184
s 3
f 99/2/155 77/4/157 100/3/156
s 2
f 99/9/182 95/3/151 77/11/184
f 96/5/152 80/7/195 97/6/153
s 3
f 80/1/191 96/2/160 103/3/162
f 100/3/156 113/8/185 110/11/187
f 113/8/185 102/6/159 110/11/187
f 103/3/162 114/8/190 84/11/194
f 114/8/190 104/6/165 84/11/194
# 72 triangles in group

# 216 triangles total

