# Wavefront OBJ exported by MilkShape 3D

mtllib seastar.mtl

v 0.088308 3.666668 -15.566395
v 18.529884 3.666668 -31.215225
v 27.867176 3.666668 -31.648228
v 30.170799 3.666668 -23.051777
v 14.586102 3.666668 -4.566394
v -14.486749 3.666668 -34.596294
v -24.835152 3.666668 -35.717228
v -26.379063 3.666668 -26.912601
v -17.409029 3.666668 -4.566393
v -39.524963 3.666668 5.138273
v -42.562057 3.666668 14.759784
v -34.252327 3.666668 17.273769
v -11.909866 3.666668 12.433607
v 33.072502 3.666668 10.258196
v 35.858093 3.666668 20.020508
v 26.443922 3.666668 22.518234
v 6.587320 3.666668 13.433612
v -8.341883 3.666668 34.955044
v 2.519412 3.666668 34.955059
v -2.911236 3.666668 40.332783
v -2.857984 7.441246 35.324902
v -38.483101 6.893585 12.145940
v -21.340336 7.026634 -32.463398
v 24.073942 7.887955 -28.267033
v 31.514385 7.999176 16.270824
v 13.639737 11.453033 6.016939
v 10.389885 11.435577 -12.233063
v -10.939950 11.034172 -14.566399
v -17.605625 10.920738 5.266945
v -2.108212 11.217430 14.766949
v -1.858212 12.467430 -0.733059
v -2.524652 -0.107906 35.658237
v -38.149769 0.439754 12.479274
v -21.063253 0.306702 -32.082020
v 24.407274 -0.554615 -27.933697
v 31.847717 -0.665836 16.604158
v 13.973068 -4.119694 6.350273
v 10.723217 -4.102238 -11.899727
v -10.606618 -3.700832 -14.233065
v -17.272293 -3.587399 5.600279
v -1.774879 -3.884090 15.100283
v -1.524879 -5.134090 -0.399725
# 42 vertices

vt 0.246861 0.495864
vt 0.265030 0.225175
vt 0.323575 0.366404
vt 0.455805 0.495864
vt 0.670049 -0.198512
vt 0.734650 0.036870
vt 0.863853 0.225175
vt 0.377170 -0.819845
vt 0.565783 -0.810253
vt 0.477964 -0.758901
vt 0.330636 -0.629403
vt 1.021319 -0.457431
vt 0.758876 -0.375048
vt 1.512289 -0.791712
vt 1.673545 -0.712967
vt 1.764184 -0.779667
vt 1.767760 -0.569289
vt 1.316062 -0.398585
vt 1.445265 -0.198512
vt 1.878142 0.176678
vt 1.473528 -0.010206
vt 1.312025 0.201637
vt 1.750391 0.429708
vt 1.858226 0.326266
vt 1.957785 0.415273
vt 1.061695 0.260482
vt 0.962415 0.731750
vt 1.098033 0.744379
vt 1.225575 0.731750
vt 1.093995 0.858332
vt 1.061695 -0.104359
# 31 texture coordinates

vn 0.908379 0.028296 0.417189
vn 0.803308 0.006475 -0.595529
vn 0.239974 0.936479 0.255773
vn -0.023918 0.015940 0.999587
vn 0.996920 0.009890 -0.077801
vn 0.179110 0.980677 -0.078688
vn 0.357867 0.012169 0.933693
vn 0.549609 -0.009121 -0.835372
vn -0.316514 -0.023429 -0.948298
vn 0.067793 0.905789 -0.418271
vn 0.962289 0.014687 0.271634
vn 0.054038 -0.009351 -0.998495
vn 0.168696 0.985452 0.020646
vn 0.394942 -0.019508 -0.918499
vn -0.050195 0.933728 -0.354448
vn -0.536057 -0.033605 -0.843513
vn -0.992765 -0.010896 0.119576
vn -0.150721 0.986335 -0.066526
vn -0.927824 -0.011057 -0.372855
vn -0.728331 -0.021144 -0.684900
vn -0.107972 0.992286 0.060917
vn -0.534124 0.004188 0.845396
vn -0.020530 0.013797 0.999694
vn -0.337634 0.926183 0.167892
vn -0.893697 -0.012121 0.448506
vn 0.018738 0.990409 0.136892
vn 0.907147 0.023529 0.420157
vn 0.003364 0.913391 0.407069
vn -0.915182 -0.005472 0.403003
vn 0.020349 0.025636 0.999464
vn 0.005883 0.999950 0.008114
vn 0.247797 -0.930607 0.269382
vn 0.176388 -0.981586 -0.073324
vn 0.084147 -0.913085 -0.398993
vn 0.187713 -0.981489 0.037986
vn -0.041264 -0.938965 -0.341530
vn -0.144895 -0.986975 -0.069901
vn -0.099837 -0.991420 0.084373
vn -0.321046 -0.927756 0.190260
vn 0.041182 -0.989610 0.137755
vn 0.028701 -0.905722 0.422899
vn 0.014688 -0.999742 0.017321
# 42 normals

g Duplicate02
usemtl seastar
s 1
f 15/1/1 14/2/2 25/3/3
f 15/1/1 25/3/3 16/4/4
f 14/2/2 5/5/5 26/6/6
f 14/2/2 26/6/6 25/3/3
f 25/3/3 26/6/6 17/7/7
f 25/3/3 17/7/7 16/4/4
f 3/8/8 2/9/9 24/10/10
f 4/11/11 3/8/8 24/10/10
f 24/10/10 2/9/9 1/12/12
f 4/11/11 24/10/10 27/13/13
f 24/10/10 1/12/12 27/13/13
f 4/11/11 27/13/13 5/5/5
f 1/12/12 6/14/14 23/15/15
f 6/14/14 7/16/16 23/15/15
f 23/15/15 7/16/16 8/17/17
f 1/12/12 23/15/15 28/18/18
f 28/18/18 23/15/15 8/17/17
f 28/18/18 8/17/17 9/19/19
f 9/19/19 10/20/20 29/21/21
f 13/22/22 29/21/21 12/23/23
f 29/21/21 10/20/20 22/24/24
f 29/21/21 22/24/24 12/23/23
f 12/23/23 22/24/24 11/25/25
f 22/24/24 10/20/20 11/25/25
f 17/7/7 30/26/26 19/27/27
f 30/26/26 21/28/28 19/27/27
f 30/26/26 18/29/29 21/28/28
f 30/26/26 13/22/22 18/29/29
f 21/28/28 20/30/30 19/27/27
f 21/28/28 18/29/29 20/30/30
f 26/6/6 31/31/31 17/7/7
f 17/7/7 31/31/31 30/26/26
f 31/31/31 13/22/22 30/26/26
f 31/31/31 29/21/21 13/22/22
f 31/31/31 9/19/19 29/21/21
f 31/31/31 28/18/18 9/19/19
f 1/12/12 28/18/18 31/31/31
f 27/13/13 1/12/12 31/31/31
f 5/5/5 27/13/13 31/31/31
f 5/5/5 31/31/31 26/6/6
f 36/3/32 14/2/2 15/1/1
f 16/4/4 36/3/32 15/1/1
f 37/6/33 5/5/5 14/2/2
f 36/3/32 37/6/33 14/2/2
f 17/7/7 37/6/33 36/3/32
f 16/4/4 17/7/7 36/3/32
f 35/10/34 2/9/9 3/8/8
f 35/10/34 3/8/8 4/11/11
f 1/12/12 2/9/9 35/10/34
f 38/13/35 35/10/34 4/11/11
f 38/13/35 1/12/12 35/10/34
f 5/5/5 38/13/35 4/11/11
f 34/15/36 6/14/14 1/12/12
f 34/15/36 7/16/16 6/14/14
f 8/17/17 7/16/16 34/15/36
f 39/18/37 34/15/36 1/12/12
f 8/17/17 34/15/36 39/18/37
f 9/19/19 8/17/17 39/18/37
f 40/21/38 10/20/20 9/19/19
f 12/23/23 40/21/38 13/22/22
f 33/24/39 10/20/20 40/21/38
f 12/23/23 33/24/39 40/21/38
f 11/25/25 33/24/39 12/23/23
f 11/25/25 10/20/20 33/24/39
f 19/27/27 41/26/40 17/7/7
f 19/27/27 32/28/41 41/26/40
f 32/28/41 18/29/29 41/26/40
f 18/29/29 13/22/22 41/26/40
f 19/27/27 20/30/30 32/28/41
f 20/30/30 18/29/29 32/28/41
f 17/7/7 42/31/42 37/6/33
f 41/26/40 42/31/42 17/7/7
f 41/26/40 13/22/22 42/31/42
f 13/22/22 40/21/38 42/31/42
f 40/21/38 9/19/19 42/31/42
f 9/19/19 39/18/37 42/31/42
f 42/31/42 39/18/37 1/12/12
f 42/31/42 1/12/12 38/13/35
f 42/31/42 38/13/35 5/5/5
f 37/6/33 42/31/42 5/5/5
# 80 triangles in group

# 80 triangles total

