# Wavefront OBJ exported by MilkShape 3D

mtllib seaweed.mtl

v 2.646871 -4.043573 0.250000
v 2.646871 7.543571 0.250000
v -2.646871 -4.043573 0.250000
v -2.646871 7.543571 0.250000
v -0.184636 -4.043573 2.890424
v -0.184636 7.543571 2.890424
v 0.184636 -4.043573 -2.390424
v 0.184636 7.543571 -2.390424
v 0.447983 -4.306819 2.890423
v -4.615479 4.569451 2.890424
v 0.730863 -4.069457 -2.390423
v -4.332600 4.806818 -2.390423
v -0.209508 -3.943643 2.890423
v 4.161578 4.493596 2.890424
v 0.069186 -4.185908 -2.390423
v 4.440277 4.251335 -2.390423
v -2.539663 -4.306819 0.703374
v -2.716376 4.569451 -4.357003
v 2.747840 -4.069457 0.801784
v 2.571127 4.806818 -4.258594
v -2.562609 -3.943643 0.046285
v -2.410061 4.493596 4.414709
v 2.724747 -4.185908 0.140510
v 2.877295 4.251335 4.508937
# 24 vertices

vt 0.688250 0.607324
vt 0.685646 0.220946
vt 0.878284 0.607324
vt 0.875679 0.220946
# 4 texture coordinates

vn 0.000000 0.000000 1.000000
vn -0.997564 0.000000 -0.069756
vn -0.866561 -0.494329 -0.068638
vn -0.885873 0.458945 -0.067806
vn 0.038354 -0.494329 -0.868428
vn 0.036848 0.458945 -0.887700
# 6 normals

g Box01
usemtl Material01
s 1
f 1/1/1 2/2/1 3/3/1
f 2/2/1 4/4/1 3/3/1
# 2 triangles in group

g Duplicate01
usemtl Material01
f 5/1/2 6/2/2 7/3/2
f 6/2/2 8/4/2 7/3/2
# 2 triangles in group

g Duplicate02
usemtl Material01
f 9/1/3 10/2/3 11/3/3
f 10/2/3 12/4/3 11/3/3
# 2 triangles in group

g Duplicate03
usemtl Material01
f 13/1/4 14/2/4 15/3/4
f 14/2/4 16/4/4 15/3/4
# 2 triangles in group

g Duplicate04
usemtl Material01
f 17/1/5 18/2/5 19/3/5
f 18/2/5 20/4/5 19/3/5
f 21/1/6 22/2/6 23/3/6
f 22/2/6 24/4/6 23/3/6
# 4 triangles in group

# 12 triangles total

