# Wavefront OBJ exported by MilkShape 3D

mtllib shelter01.mtl

v -14.809816 31.675198 -11.831542
v -14.809816 -10.890302 -11.831542
v -12.819976 31.675198 -12.674834
v -12.819976 -10.890302 -12.674834
v -13.849066 31.675198 -15.095344
v -13.849066 -10.890302 -15.095344
v -15.838906 31.675198 -14.252055
v -15.838906 -10.890302 -14.252055
v -16.945105 31.675198 13.169112
v -16.945105 -10.890302 13.169112
v -15.439086 31.675198 14.675737
v -15.439086 -10.890302 14.675737
v -13.421748 31.675198 12.919529
v -13.421748 -10.890302 12.919529
v -14.927765 31.675198 11.412901
v -14.927765 -10.890302 11.412901
v 14.398108 44.487995 21.348078
v 14.398108 -13.765844 21.348078
v 16.541349 44.487995 20.991972
v 16.541349 -13.765844 20.991972
v 16.152802 44.487995 18.404358
v 16.152802 -13.765844 18.404358
v 14.009557 44.487995 18.760468
v 14.009557 -13.765844 18.760468
v 13.804049 44.487995 -18.471947
v 13.804049 -13.765848 -18.471947
v 15.363914 44.487995 -17.016695
v 15.363914 -13.765848 -17.016695
v 17.316179 44.487995 -18.839424
v 17.316179 -13.765848 -18.839424
v 15.756313 44.487995 -20.294672
v 15.756313 -13.765848 -20.294672
v -14.200456 32.263050 -16.832779
v -15.413924 34.398235 16.526457
v -12.213032 31.490665 -16.732973
v -13.426501 33.625843 16.626266
v -13.244958 29.273651 -16.672310
v -14.458427 31.408840 16.686932
v -15.232383 30.046040 -16.772120
v -16.445850 32.181217 16.587118
v 15.545451 46.435116 -21.110651
v 14.728063 46.383511 22.551685
v 17.304823 45.656528 -21.008532
v 16.487431 45.604946 22.653811
v 16.392172 43.438961 -21.057884
v 15.574785 43.387371 22.604465
v 14.632803 44.217533 -21.160004
v 13.815413 44.165951 22.502333
v 20.478369 50.683796 -21.219542
v -18.896721 31.281498 -13.029586
v 21.114073 50.087818 -19.556780
v -18.261032 30.685513 -11.366823
v 22.120056 48.080723 -20.455929
v -17.255053 28.678413 -12.265965
v 21.484348 48.676723 -22.118687
v -17.890751 29.274403 -13.928729
v 20.387003 50.596004 20.504620
v -19.837215 32.390697 13.159989
v 20.905231 49.119816 21.452190
v -19.318996 30.914501 14.107554
v 21.921902 48.017544 19.487274
v -18.302340 29.812225 12.142632
v 21.403667 49.493755 18.539713
v -18.820568 31.288425 11.195065
v -16.874596 32.319050 4.661576
v 18.389933 47.043201 4.661576
v 18.389933 47.043201 -4.807415
v -16.874596 32.319050 -4.807415
v -15.311538 32.051441 -1.220304
v 18.938255 47.883289 -6.516227
v 17.396198 47.833828 -15.868639
v -16.853594 32.001965 -10.572720
v -15.596200 33.620472 -8.325477
v 18.653591 49.452351 -13.621402
v 17.111536 49.402866 -22.973814
v -17.138256 33.571003 -17.677891
v -16.006968 33.075237 9.770197
v 18.197565 49.458004 13.164644
v 19.230272 49.425083 3.747764
v -14.974263 33.042324 0.353310
v -17.145618 33.598263 17.968473
v 17.058916 49.981022 21.362921
v 18.091623 49.948093 11.946041
v -16.112909 33.565334 8.551588
v 12.487308 47.249477 -17.187346
v -12.011714 32.536800 7.170715
v -6.986702 36.296864 14.308733
v 17.512308 51.009563 -10.049315
v 18.600065 47.432560 8.641936
v -5.524998 35.248363 -17.517996
v -12.814795 32.191189 -12.886919
v 11.310257 44.375385 13.273007
v -19.576277 32.625305 22.000000
v -17.739746 28.686855 22.000000
v 21.022589 51.556858 22.000000
v 22.859118 47.618408 22.000000
v 21.022589 51.556858 -22.000000
v 22.859118 47.618408 -22.000000
v -19.576277 32.625305 -22.000000
v -17.739746 28.686855 -22.000000
# 100 vertices

vt 0.790881 1.047722
vt 0.790881 0.055536
vt 0.872757 1.047722
vt 0.872757 0.055536
vt 0.021665 0.984847
vt 0.021665 0.610895
vt 0.902488 0.984847
vt 0.902488 0.610895
vt 0.013852 0.586410
vt 0.013852 0.212458
vt 0.894675 0.586410
vt 0.894675 0.212458
vt 0.000000 1.000000
vt 0.000000 0.000000
vt 1.000000 1.000000
vt 1.000000 0.000000
# 16 texture coordinates

vn 0.390204 0.000000 0.920729
vn 0.920280 0.000000 -0.391261
vn -0.390202 0.000000 -0.920729
vn -0.920280 0.000000 0.391260
vn 0.000000 1.000000 0.000000
vn 0.000000 -1.000000 0.000000
vn -0.707249 0.000000 0.706964
vn 0.656605 0.000000 0.754235
vn 0.707250 0.000000 -0.706963
vn -0.656605 0.000000 -0.754235
vn 0.163906 0.000000 0.986476
vn 0.988914 0.000000 -0.148492
vn -0.163907 0.000000 -0.986476
vn -0.988913 0.000000 0.148494
vn -0.682162 0.000000 0.731201
vn 0.682441 0.000000 0.730940
vn 0.682161 0.000000 -0.731202
vn -0.682441 0.000000 -0.730941
vn 0.363873 0.930297 -0.046308
vn 0.905605 -0.419884 0.059817
vn -0.363874 -0.930296 0.046308
vn -0.905604 0.419885 -0.059817
vn 0.033473 -0.042901 -0.998518
vn -0.033473 0.042901 0.998518
vn 0.404247 0.914609 0.008649
vn 0.924483 -0.380851 0.016857
vn -0.404240 -0.914612 -0.008648
vn -0.924484 0.380847 -0.016857
vn 0.057338 -0.001379 -0.998354
vn -0.057340 0.001380 0.998354
vn -0.326635 0.843153 0.427087
vn 0.314632 -0.252247 0.915084
vn 0.326631 -0.843149 -0.427097
vn -0.314632 0.252247 -0.915084
vn 0.855529 0.495733 -0.149396
vn -0.855533 -0.495725 0.149395
vn -0.343169 0.419104 0.840587
vn 0.250581 -0.783215 0.569019
vn 0.343166 -0.419095 -0.840593
vn -0.250584 0.783218 -0.569014
vn 0.874427 0.439231 0.206044
vn -0.874432 -0.439223 -0.206036
vn -0.385298 0.922792 0.000000
vn -0.410726 0.909586 0.062910
vn -0.427389 0.902683 -0.050025
vn -0.550921 0.833000 -0.050963
vn -0.410718 0.910633 -0.045365
vn 0.000000 0.000000 1.000000
vn 1.000000 0.000000 0.000000
vn 0.000000 0.000000 -1.000000
vn -1.000000 0.000000 0.000000
# 51 normals

g Box01
usemtl wood
s 1
f 1/1/1 2/2/1 3/3/1
f 2/2/1 4/4/1 3/3/1
s 2
f 3/1/2 4/2/2 5/3/2
f 4/2/2 6/4/2 5/3/2
s 1
f 5/1/3 6/2/3 7/3/3
f 6/2/3 8/4/3 7/3/3
s 2
f 7/1/4 8/2/4 1/3/4
f 8/2/4 2/4/4 1/3/4
s 3
f 7/1/5 1/2/5 5/3/5
f 1/2/5 3/4/5 5/3/5
f 2/1/6 8/2/6 4/3/6
f 8/2/6 6/4/6 4/3/6
# 12 triangles in group

g Duplicate01
usemtl wood
s 1
f 9/1/7 10/2/7 11/3/7
f 10/2/7 12/4/7 11/3/7
s 2
f 11/1/8 12/2/8 13/3/8
f 12/2/8 14/4/8 13/3/8
s 1
f 13/1/9 14/2/9 15/3/9
f 14/2/9 16/4/9 15/3/9
s 2
f 15/1/10 16/2/10 9/3/10
f 16/2/10 10/4/10 9/3/10
s 3
f 15/1/5 9/2/5 13/3/5
f 9/2/5 11/4/5 13/3/5
f 10/1/6 16/2/6 12/3/6
f 16/2/6 14/4/6 12/3/6
# 12 triangles in group

g Duplicate02
usemtl wood
s 1
f 17/1/11 18/2/11 19/3/11
f 18/2/11 20/4/11 19/3/11
s 2
f 19/1/12 20/2/12 21/3/12
f 20/2/12 22/4/12 21/3/12
s 1
f 21/1/13 22/2/13 23/3/13
f 22/2/13 24/4/13 23/3/13
s 2
f 23/1/14 24/2/14 17/3/14
f 24/2/14 18/4/14 17/3/14
s 3
f 23/1/5 17/2/5 21/3/5
f 17/2/5 19/4/5 21/3/5
f 18/1/6 24/2/6 20/3/6
f 24/2/6 22/4/6 20/3/6
# 12 triangles in group

g Duplicate03
usemtl wood
s 1
f 25/1/15 26/2/15 27/3/15
f 26/2/15 28/4/15 27/3/15
s 2
f 27/1/16 28/2/16 29/3/16
f 28/2/16 30/4/16 29/3/16
s 1
f 29/1/17 30/2/17 31/3/17
f 30/2/17 32/4/17 31/3/17
s 2
f 31/1/18 32/2/18 25/3/18
f 32/2/18 26/4/18 25/3/18
s 3
f 31/1/5 25/2/5 29/3/5
f 25/2/5 27/4/5 29/3/5
f 26/1/6 32/2/6 28/3/6
f 32/2/6 30/4/6 28/3/6
# 12 triangles in group

g Duplicate04
usemtl wood
s 1
f 33/1/19 34/2/19 35/3/19
f 34/2/19 36/4/19 35/3/19
s 2
f 35/1/20 36/2/20 37/3/20
f 36/2/20 38/4/20 37/3/20
s 1
f 37/1/21 38/2/21 39/3/21
f 38/2/21 40/4/21 39/3/21
s 2
f 39/1/22 40/2/22 33/3/22
f 40/2/22 34/4/22 33/3/22
s 3
f 39/1/23 33/2/23 37/3/23
f 33/2/23 35/4/23 37/3/23
f 34/1/24 40/2/24 36/3/24
f 40/2/24 38/4/24 36/3/24
# 12 triangles in group

g Duplicate05
usemtl wood
s 1
f 41/1/25 42/2/25 43/3/25
f 42/2/25 44/4/25 43/3/25
s 2
f 43/1/26 44/2/26 45/3/26
f 44/2/26 46/4/26 45/3/26
s 1
f 45/1/27 46/2/27 47/3/27
f 46/2/27 48/4/27 47/3/27
s 2
f 47/1/28 48/2/28 41/3/28
f 48/2/28 42/4/28 41/3/28
s 3
f 47/1/29 41/2/29 45/3/29
f 41/2/29 43/4/29 45/3/29
f 42/1/30 48/2/30 44/3/30
f 48/2/30 46/4/30 44/3/30
# 12 triangles in group

g Duplicate06
usemtl wood
s 1
f 49/1/31 50/2/31 51/3/31
f 50/2/31 52/4/31 51/3/31
s 2
f 51/1/32 52/2/32 53/3/32
f 52/2/32 54/4/32 53/3/32
s 1
f 53/1/33 54/2/33 55/3/33
f 54/2/33 56/4/33 55/3/33
s 2
f 55/1/34 56/2/34 49/3/34
f 56/2/34 50/4/34 49/3/34
s 3
f 55/1/35 49/2/35 53/3/35
f 49/2/35 51/4/35 53/3/35
f 50/1/36 56/2/36 52/3/36
f 56/2/36 54/4/36 52/3/36
# 12 triangles in group

g Duplicate07
usemtl wood
s 1
f 57/1/37 58/2/37 59/3/37
f 58/2/37 60/4/37 59/3/37
s 2
f 59/1/38 60/2/38 61/3/38
f 60/2/38 62/4/38 61/3/38
s 1
f 61/1/39 62/2/39 63/3/39
f 62/2/39 64/4/39 63/3/39
s 2
f 63/1/40 64/2/40 57/3/40
f 64/2/40 58/4/40 57/3/40
s 3
f 63/1/41 57/2/41 61/3/41
f 57/2/41 59/4/41 61/3/41
f 58/1/42 64/2/42 60/3/42
f 64/2/42 62/4/42 60/3/42
# 12 triangles in group

g Box02
usemtl leaf
f 68/5/43 65/6/43 67/7/43
f 65/6/43 66/8/43 67/7/43
# 2 triangles in group

g Duplicate08
usemtl leaf
f 72/5/44 69/6/44 71/7/44
f 69/6/44 70/8/44 71/7/44
# 2 triangles in group

g Duplicate09
usemtl leaf
f 76/5/44 73/6/44 75/7/44
f 73/6/44 74/8/44 75/7/44
# 2 triangles in group

g Duplicate10
usemtl leaf
f 80/5/45 77/6/45 79/7/45
f 77/6/45 78/8/45 79/7/45
# 2 triangles in group

g Duplicate11
usemtl leaf
f 84/5/45 81/6/45 83/7/45
f 81/6/45 82/8/45 83/7/45
# 2 triangles in group

g Duplicate12
usemtl leaf
f 88/5/46 85/6/46 87/7/46
f 85/6/46 86/8/46 87/7/46
# 2 triangles in group

g Duplicate13
usemtl leaf
f 92/9/47 89/10/47 91/11/47
f 89/10/47 90/12/47 91/11/47
# 2 triangles in group

g Box01
usemtl collision
s 1
f 93/13/48 94/14/48 95/15/48
f 94/14/48 96/16/48 95/15/48
s 2
f 95/13/49 96/14/49 97/15/49
f 96/14/49 98/16/49 97/15/49
s 1
f 97/13/50 98/14/50 99/15/50
f 98/14/50 100/16/50 99/15/50
s 2
f 99/13/51 100/14/51 93/15/51
f 100/14/51 94/16/51 93/15/51
s 3
f 99/13/5 93/14/5 97/15/5
f 93/14/5 95/16/5 97/15/5
f 94/13/6 100/14/6 96/15/6
f 100/14/6 98/16/6 96/15/6
# 12 triangles in group

# 122 triangles total

