# Wavefront OBJ exported by MilkShape 3D

mtllib skin.mtl

v -7.617477 0.214588 12.466070
v -6.119390 2.426050 8.131021
v -4.779771 3.540945 1.498317
v -5.656761 2.679110 -5.935384
v -8.593119 0.046768 -13.618074
v -3.263244 2.759100 -10.443042
v 0.879083 3.737768 -9.586945
v 4.479749 2.757645 -10.573732
v 9.250098 0.048708 -14.172110
v 6.880023 2.687836 -6.762385
v 6.153677 3.555004 0.418951
v 7.349148 2.430413 7.520878
v 9.391037 0.217012 12.538159
v 4.850991 2.380479 10.362169
v -2.726862 2.393085 9.869123
v 1.189491 3.403266 8.981410
# 16 vertices

vt -0.549238 -0.592304
vt 0.977572 -0.892267
vt -0.102774 -1.039011
vt 2.234305 -0.937586
vt 0.349205 -1.550460
vt 3.402838 -0.836159
vt 4.213104 -1.058434
vt 4.846978 -0.603094
vt 3.854823 -1.613043
vt 0.095658 -2.165493
vt 4.113874 -2.204337
vt -0.549238 -2.812897
vt 0.878356 -2.521564
vt 2.201233 -2.426613
vt 3.358750 -2.515090
vt 4.687127 -2.821528
# 16 texture coordinates

vn -0.192298 0.899470 0.392398
vn -0.177816 0.914105 0.364408
vn -0.168538 0.942130 0.289804
vn 0.005597 0.989167 0.146690
vn -0.002684 0.999758 0.021824
vn 0.249296 0.939308 0.235697
vn 0.163986 0.977068 0.135817
vn 0.300284 0.911814 0.280045
vn -0.002425 0.999632 -0.027005
vn -0.117844 0.992235 -0.039792
vn 0.154678 0.987253 -0.037504
vn -0.361378 0.915728 -0.175638
vn -0.287052 0.948270 -0.135594
vn 0.013052 0.999424 0.031319
vn 0.294486 0.940732 -0.168228
vn 0.358733 0.909682 -0.209258
# 16 normals

g Triangles
usemtl Material01
s 1
f 1/1/1 15/2/2 2/3/3
f 15/2/2 16/4/4 2/3/3
f 3/5/5 2/3/3 16/4/4
f 16/4/4 14/6/6 12/7/7
f 14/6/6 13/8/8 12/7/7
f 3/5/5 16/4/4 12/7/7
f 3/5/5 12/7/7 11/9/9
f 4/10/10 3/5/5 11/9/9
f 4/10/10 11/9/9 10/11/11
f 5/12/12 4/10/10 6/13/13
f 7/14/14 10/11/11 8/15/15
f 8/15/15 10/11/11 9/16/16
f 4/10/10 7/14/14 6/13/13
f 7/14/14 4/10/10 10/11/11
# 14 triangles in group

# 14 triangles total

