# Wavefront OBJ exported by MilkShape 3D

mtllib spear.mtl

v -0.019230 0.830230 -11.601063
v -0.019231 0.830235 18.851068
v 0.574990 0.382795 -11.601059
v 0.574989 0.382791 18.851068
v 0.348014 -0.341178 -11.601059
v 0.348018 -0.341182 18.851072
v -0.386475 -0.341178 -11.601059
v -0.386480 -0.341181 18.851068
v -0.613449 0.382795 -11.601059
v -0.613451 0.382791 18.851070
v -0.019230 0.182692 18.851063
v -0.019228 0.182694 -11.601053
v -0.076923 0.153846 -18.625000
v -0.032025 1.439612 -11.124998
v 1.204599 0.506902 -11.124998
v 0.670202 -0.913719 -11.124999
v -0.896699 -0.859003 -11.125000
v -1.330698 0.595437 -11.124998
v -0.076925 0.153846 -11.124998
# 19 vertices

vt 1.269017 1.705189
vt 1.269017 -1.165171
vt 1.349245 -1.165171
vt 1.349245 1.705189
vt 1.429473 1.705189
vt 1.429473 -1.165171
vt 1.509702 -1.165171
vt 1.509702 1.705189
vt 1.589929 1.705189
vt 1.589929 -1.165171
vt 1.670158 -1.165171
vt 1.670158 1.705189
vt 0.747294 0.515853
vt 0.736079 0.212209
vt 1.056150 0.295586
vt 0.922680 -0.039905
vt 0.531335 -0.026983
vt 0.422941 0.316494
# 18 texture coordinates

vn -0.000000 -0.000015 -1.000000
vn 0.000002 -0.000009 1.000000
vn -0.243446 0.969914 -0.000000
vn 0.243443 0.969915 -0.000000
vn 0.952092 0.305811 -0.000000
vn 0.591965 -0.805964 -0.000000
vn -0.591967 -0.805963 -0.000000
vn -0.952092 0.305812 -0.000000
vn 0.034397 0.985004 -0.169070
vn 0.945615 0.274523 -0.174500
vn 0.546367 -0.819876 -0.171130
vn -0.602227 -0.779767 -0.171130
vn -0.924161 0.339817 -0.174500
# 13 normals

g Cylinder01
usemtl wood
s 2
f 1/1/1 3/1/1 12/1/1
f 2/1/2 11/1/2 4/1/2
s 1
f 1/2/3 2/1/4 3/3/5
f 2/1/4 4/4/5 3/3/5
s 2
f 3/1/1 5/1/1 12/1/1
f 4/1/2 11/1/2 6/1/2
s 1
f 3/3/5 4/4/5 6/5/6
f 3/3/5 6/5/6 5/6/6
s 2
f 5/1/1 7/1/1 12/1/1
f 6/1/2 11/1/2 8/1/2
s 1
f 5/6/6 6/5/6 7/7/7
f 6/5/6 8/8/7 7/7/7
s 2
f 7/1/1 9/1/1 12/1/1
f 8/1/2 11/1/2 10/1/2
s 1
f 7/7/7 8/8/7 10/9/8
f 7/7/7 10/9/8 9/10/8
s 2
f 9/1/1 1/1/1 12/1/1
f 10/1/2 11/1/2 2/1/2
s 1
f 9/10/8 10/9/8 1/11/3
f 10/9/8 2/12/4 1/11/3
# 20 triangles in group

g Cylinder02
usemtl stone
s 2
f 14/13/2 19/14/2 15/15/2
s 1
f 14/13/9 15/15/10 13/14/1
s 2
f 15/15/2 19/14/2 16/16/2
s 1
f 13/14/1 15/15/10 16/16/11
s 2
f 16/16/2 19/14/2 17/17/2
s 1
f 16/16/11 17/17/12 13/14/1
s 2
f 17/17/2 19/14/2 18/18/2
s 1
f 13/14/1 17/17/12 18/18/13
s 2
f 18/18/2 19/14/2 14/13/2
s 1
f 18/18/13 14/13/9 13/14/1
# 10 triangles in group

# 30 triangles total

