# Wavefront OBJ exported by MilkShape 3D

mtllib stonegolem.mtl

v -13.424386 70.778648 0.730872
v -24.035315 0.820629 0.730875
v -23.807785 -0.828232 -32.757687
v -4.874471 -0.828232 -13.404141
v -13.238318 -1.494900 18.693493
v -33.155304 0.357441 18.693485
v -39.164417 1.024105 -13.404138
v -24.845707 36.408195 -8.310034
v -1.922239 27.266258 8.883464
v -8.663023 20.809837 23.156244
v -35.914036 20.811516 23.157143
v -41.815434 27.267937 8.884354
v -20.445078 58.477135 -13.871330
v -8.984140 58.477135 -3.839868
v -12.354311 58.477135 12.544299
v -24.977140 56.622887 12.544301
v -27.927633 56.622887 -3.839865
v 13.732984 70.778648 0.730869
v 25.964701 0.820629 0.730875
v 26.192228 -0.828232 -32.757687
v 39.511406 1.024105 -13.404140
v 32.189095 0.357441 18.693483
v 12.122748 -1.494900 18.693487
v 5.258891 -0.828232 -13.404139
v 25.154305 36.408195 -8.310041
v 42.096024 27.267937 8.884354
v 36.194653 20.811516 23.157148
v 8.971622 20.809837 23.156252
v 2.230808 27.266258 8.883464
v 20.753668 58.477135 -13.871326
v 28.208246 56.622887 -3.839864
v 25.257746 56.622887 12.544299
v 12.662909 58.477135 12.544297
v 9.292732 58.477135 -3.839868
v 0.154285 117.725204 0.730871
v 0.154285 53.475204 0.730871
v -0.345714 57.529770 -18.714573
v 10.056995 57.529770 -5.278101
v 6.083511 57.529770 16.462564
v -6.774944 57.529770 16.462564
v -10.748431 57.529770 -5.278102
v -0.345715 77.975197 -22.102461
v 25.808338 76.975204 -7.767100
v 15.818384 76.975204 22.978840
v -16.509808 76.975204 22.978849
v -26.499775 76.975204 -7.767097
v -0.345714 106.587303 -18.047909
v 30.236795 105.920639 -5.278100
v 26.847416 110.420639 19.212561
v -27.538853 110.420639 19.212568
v -30.928238 105.920639 -5.278096
v -24.908318 119.115707 -3.765156
v -51.518242 32.164738 -19.944000
v -31.560860 40.891632 -11.991515
v -52.232697 33.182487 2.561029
v -69.686790 44.195534 -13.659511
v -48.406616 55.552612 -29.785631
v -30.206224 74.445473 1.124903
v -49.524338 58.692940 19.591709
v -64.010773 76.980515 0.509426
v -47.119003 77.174812 -13.576517
v -34.941261 94.915619 5.060513
v -40.455589 98.857712 10.823676
v -46.320026 96.861557 5.313915
v -40.805698 92.919472 -0.449281
v -20.846392 107.464920 2.078804
v -32.646996 116.720474 15.502129
v -48.316914 111.599930 0.581909
v -36.516327 102.344437 -12.841453
v 25.495241 119.557205 -3.999894
v 52.105171 32.606190 -20.178724
v 32.147770 41.333084 -12.226235
v 52.819630 33.623951 2.326294
v 70.273712 44.636993 -13.894256
v 48.993534 55.994080 -30.020369
v 30.793144 74.886948 0.890163
v 50.111263 59.134415 19.356977
v 64.597649 77.421989 0.274691
v 47.705921 77.616295 -13.811256
v 35.528214 95.357094 4.825772
v 41.042500 99.299171 10.588934
v 46.906944 97.303032 5.079175
v 41.392620 93.360954 -0.684023
v 21.433315 107.906387 1.844076
v 33.233913 117.161972 15.267381
v 48.903843 112.041428 0.347172
v 37.103249 102.785934 -13.076192
v 0.000001 149.891846 -5.639172
v 0.000001 111.891869 -5.639172
v -0.194908 115.520546 5.527050
v -10.679941 115.520546 -2.373974
v -6.405654 115.520546 -14.787388
v 6.721023 115.520546 -14.558270
v 10.559481 115.520546 -2.003246
v -0.315365 125.020546 12.428165
v -17.280514 125.020546 -0.355984
v -10.364573 125.020546 -20.441311
v 10.874843 125.020546 -20.070583
v 17.085588 125.020546 0.243885
v -0.315367 136.763184 12.428165
v -17.280495 136.763184 -0.355976
v -10.364573 136.763184 -20.441311
v 10.874843 136.763184 -20.070583
v 17.085588 136.763184 0.243885
v -0.194909 146.263184 5.527050
v -14.627735 147.596512 -2.373974
v -9.716899 145.929855 -19.454048
v 9.365594 145.929855 -19.224937
v 14.507275 147.596512 -2.003246
# 109 vertices

vt -0.345657 -1.122040
vt -0.345657 -0.526741
vt 0.032388 -0.526741
vt -0.345657 1.259154
vt 0.032388 0.663856
vt -0.345657 0.663856
vt 0.032388 -1.122040
vt 0.410434 -0.526741
vt 0.032388 1.259154
vt 0.410434 0.663856
vt 0.410434 -1.122040
vt 0.788480 -0.526741
vt 0.410434 1.259154
vt 0.788480 0.663856
vt 0.788480 -1.122040
vt 1.166526 -0.526741
vt 0.788480 1.259154
vt 1.166526 0.663856
vt 1.166526 -1.122040
vt 1.544571 -0.526741
vt 1.166526 1.259154
vt 1.544571 0.663856
vt -0.345657 0.068557
vt 0.032388 0.068557
vt 0.410434 0.068557
vt 0.788480 0.068557
vt 1.166526 0.068557
vt 1.544571 0.068557
vt -3.865425 -0.496294
vt -3.865425 0.547777
vt -3.247894 0.547777
vt -3.865425 3.679986
vt -3.247894 2.635916
vt -3.865425 2.635916
vt -3.247894 -0.496294
vt -2.630363 0.547777
vt -3.247894 3.679986
vt -2.630363 2.635916
vt -2.630363 -0.496294
vt -2.012831 0.547777
vt -2.630363 3.679986
vt -2.012831 2.635916
vt -2.012831 -0.496294
vt -1.395300 0.547777
vt -2.012831 3.679986
vt -1.395300 2.635916
vt -1.395300 -0.496294
vt -0.777770 0.547777
vt -1.395300 3.679986
vt -0.777770 2.635916
vt -3.865425 1.591846
vt -3.247894 1.591846
vt -2.630363 1.591846
vt -2.012831 1.591846
vt -1.395300 1.591846
vt -0.777770 1.591846
vt -0.147235 -0.083614
vt -0.147235 0.213682
vt 0.120886 0.213682
vt -0.147235 1.402864
vt 0.120886 1.105569
vt -0.147235 1.105569
vt 0.120886 -0.083614
vt 0.389008 0.213682
vt 0.120886 1.402864
vt 0.389008 1.105569
vt 0.389008 -0.083614
vt 0.657129 0.213682
vt 0.389008 1.402864
vt 0.657129 1.105569
vt 0.657129 -0.083614
vt 0.925250 0.213682
vt 0.657129 1.402864
vt 0.925250 1.105569
vt -0.147235 0.510978
vt 0.120886 0.510978
vt 0.389008 0.510978
vt 0.657129 0.510978
vt 0.925250 0.510978
vt -0.147235 0.808273
vt 0.120886 0.808273
vt 0.389008 0.808273
vt 0.657129 0.808273
vt 0.925250 0.808273
vt 0.000000 0.000000
vt 0.000000 0.200000
vt 0.200000 0.200000
vt 0.000000 1.000000
vt 0.200000 0.800000
vt 0.000000 0.800000
vt 0.200000 0.000000
vt 0.400000 0.200000
vt 0.200000 1.000000
vt 0.400000 0.800000
vt 0.400000 0.000000
vt 0.600000 0.200000
vt 0.400000 1.000000
vt 0.600000 0.800000
vt 0.600000 0.000000
vt 0.800000 0.200000
vt 0.600000 1.000000
vt 0.800000 0.800000
vt 0.800000 0.000000
vt 1.000000 0.200000
vt 0.800000 1.000000
vt 1.000000 0.800000
vt 0.000000 0.400000
vt 0.200000 0.400000
vt 0.400000 0.400000
vt 0.600000 0.400000
vt 0.800000 0.400000
vt 1.000000 0.400000
vt 0.000000 0.600000
vt 0.200000 0.600000
vt 0.400000 0.600000
vt 0.600000 0.600000
vt 0.800000 0.600000
vt 1.000000 0.600000
# 118 texture coordinates

vn -0.063795 -0.997912 -0.010048
vn -0.438411 -0.381785 -0.813656
vn 0.849218 -0.483201 -0.212945
vn 0.037602 0.999093 0.020003
vn 0.947834 0.160380 -0.275480
vn -0.275729 0.296752 -0.914282
vn 0.256980 -0.880229 0.398946
vn 0.579841 0.448775 0.679990
vn -0.476684 -0.678225 0.559271
vn -0.492261 0.549498 0.675078
vn -0.674613 -0.721951 -0.153897
vn -0.816735 0.552285 -0.167109
vn 0.234226 0.153410 -0.960002
vn 0.970974 0.097772 -0.218288
vn 0.564347 0.019853 0.825299
vn -0.529520 0.081657 0.844358
vn -0.961950 0.191878 -0.194513
vn 0.061009 -0.998124 -0.005047
vn -0.202896 -0.387215 -0.899388
vn 0.878316 -0.452490 -0.154319
vn -0.036943 0.999110 0.020360
vn 0.874027 0.460385 -0.155313
vn -0.096811 0.227085 -0.969051
vn 0.365261 -0.847836 0.384394
vn 0.536456 0.601267 0.592193
vn -0.403213 -0.701183 0.588015
vn -0.535007 0.422346 0.731704
vn -0.602105 -0.774258 -0.194919
vn -0.918713 0.254355 -0.302108
vn 0.431395 0.210378 -0.877291
vn 0.966709 0.210020 -0.146168
vn 0.573309 0.080357 0.815390
vn -0.533510 0.029971 0.845262
vn -0.962828 0.072882 -0.260099
vn 0.010883 -0.999941 0.000085
vn -0.085989 -0.751184 -0.654469
vn 0.694338 -0.684542 -0.222029
vn 0.002961 0.981331 -0.192306
vn 0.808876 0.351692 -0.471204
vn -0.113676 0.463085 -0.878994
vn 0.388164 -0.812613 0.434729
vn 0.502438 0.661000 0.557347
vn -0.404044 -0.741865 0.535149
vn -0.574726 0.429149 0.696793
vn -0.550859 -0.824691 -0.128216
vn -0.667181 0.569580 -0.480050
vn 0.220315 -0.084968 -0.971721
vn 0.846448 -0.389502 -0.363062
vn 0.562058 -0.311721 0.766107
vn -0.542860 -0.304667 0.782612
vn -0.868316 -0.338090 -0.362936
vn -0.054870 -0.844505 -0.532730
vn 0.913894 -0.364328 -0.179061
vn -0.101797 -0.888651 0.447142
vn 0.366867 0.818227 -0.442621
vn 0.031466 0.248687 0.968073
vn 0.957205 -0.288393 0.024264
vn -0.958497 -0.162951 -0.233946
vn -0.816700 0.538984 -0.206151
vn 0.049787 0.041066 -0.997915
vn -0.016653 -0.442410 -0.896658
vn 0.993743 0.106189 -0.034625
vn -0.013137 -0.098385 0.995062
vn -0.895578 0.444881 -0.004591
vn 0.104087 0.543585 -0.832875
vn 0.936593 -0.314929 0.153664
vn -0.067922 -0.001797 0.997689
vn -0.952225 0.293590 0.084100
vn 0.048650 0.000884 -0.998816
vn 0.101797 -0.888651 0.447143
vn -0.913894 -0.364329 -0.179060
vn 0.054870 -0.844505 -0.532730
vn -0.957204 -0.288394 0.024264
vn -0.031467 0.248686 0.968073
vn -0.366868 0.818227 -0.442621
vn 0.958497 -0.162950 -0.233946
vn 0.816700 0.538984 -0.206150
vn -0.049787 0.041066 -0.997915
vn 0.016652 -0.442410 -0.896658
vn 0.013137 -0.098385 0.995062
vn -0.993743 0.106189 -0.034625
vn 0.895578 0.444881 -0.004591
vn -0.104088 0.543586 -0.832875
vn -0.936594 -0.314929 0.153663
vn 0.067919 -0.001797 0.997689
vn 0.952225 0.293590 0.084101
vn -0.048651 0.000883 -0.998815
vn -0.000000 -1.000000 -0.000000
vn 0.105665 -0.776168 0.621610
vn -0.629243 -0.753023 0.192379
vn 0.000265 0.999967 0.008178
vn -0.555044 0.795174 0.244181
vn -0.143216 0.732927 0.665062
vn -0.327753 -0.820657 -0.468080
vn -0.465408 0.551227 -0.692491
vn 0.395991 -0.753022 -0.525498
vn 0.378366 0.729714 -0.569523
vn 0.540289 -0.820657 0.186036
vn 0.676494 0.692920 0.249435
vn -0.239813 -0.310736 0.919746
vn -0.906401 -0.318816 0.277115
vn -0.543645 -0.318817 -0.776406
vn 0.570410 -0.318817 -0.756960
vn 0.896178 -0.318817 0.308579
vn 0.185072 0.272732 0.944122
vn -0.940119 0.166666 0.297319
vn -0.572468 0.064069 -0.817420
vn 0.596604 0.084462 -0.798079
vn 0.937714 0.142029 0.317049
# 109 normals

g Sphere02
usemtl stone
s 1
f 2/1/1 3/2/2 4/3/3
f 1/4/4 14/5/5 13/6/6
f 2/7/1 4/3/3 5/8/7
f 1/9/4 15/10/8 14/5/5
f 2/11/1 5/8/7 6/12/9
f 1/13/4 16/14/10 15/10/8
f 2/15/1 6/12/9 7/16/11
f 1/17/4 17/18/12 16/14/10
f 2/19/1 7/16/11 3/20/2
f 1/21/4 13/22/6 17/18/12
f 3/2/2 8/23/13 4/3/3
f 8/23/13 9/24/14 4/3/3
f 4/3/3 9/24/14 10/25/15
f 4/3/3 10/25/15 5/8/7
f 5/8/7 10/25/15 6/12/9
f 10/25/15 11/26/16 6/12/9
f 6/12/9 11/26/16 12/27/17
f 6/12/9 12/27/17 7/16/11
f 7/16/11 12/27/17 3/20/2
f 12/27/17 8/28/13 3/20/2
f 8/23/13 13/6/6 14/5/5
f 8/23/13 14/5/5 9/24/14
f 9/24/14 14/5/5 10/25/15
f 14/5/5 15/10/8 10/25/15
f 10/25/15 15/10/8 16/14/10
f 10/25/15 16/14/10 11/26/16
f 11/26/16 16/14/10 12/27/17
f 16/14/10 17/18/12 12/27/17
f 12/27/17 17/18/12 13/22/6
f 12/27/17 13/22/6 8/28/13
# 30 triangles in group

g Duplicate01
usemtl stone
f 19/1/18 20/2/19 21/3/20
f 18/4/21 31/5/22 30/6/23
f 19/7/18 21/3/20 22/8/24
f 18/9/21 32/10/25 31/5/22
f 19/11/18 22/8/24 23/12/26
f 18/13/21 33/14/27 32/10/25
f 19/15/18 23/12/26 24/16/28
f 18/17/21 34/18/29 33/14/27
f 19/19/18 24/16/28 20/20/19
f 18/21/21 30/22/23 34/18/29
f 20/2/19 25/23/30 21/3/20
f 25/23/30 26/24/31 21/3/20
f 21/3/20 26/24/31 27/25/32
f 21/3/20 27/25/32 22/8/24
f 22/8/24 27/25/32 23/12/26
f 27/25/32 28/26/33 23/12/26
f 23/12/26 28/26/33 29/27/34
f 23/12/26 29/27/34 24/16/28
f 24/16/28 29/27/34 20/20/19
f 29/27/34 25/28/30 20/20/19
f 25/23/30 30/6/23 31/5/22
f 25/23/30 31/5/22 26/24/31
f 26/24/31 31/5/22 27/25/32
f 31/5/22 32/10/25 27/25/32
f 27/25/32 32/10/25 33/14/27
f 27/25/32 33/14/27 28/26/33
f 28/26/33 33/14/27 29/27/34
f 33/14/27 34/18/29 29/27/34
f 29/27/34 34/18/29 30/22/23
f 29/27/34 30/22/23 25/28/30
# 30 triangles in group

g Sphere03
usemtl stone
f 36/29/35 37/30/36 38/31/37
f 35/32/38 48/33/39 47/34/40
f 36/35/35 38/31/37 39/36/41
f 35/37/38 49/38/42 48/33/39
f 36/39/35 39/36/41 40/40/43
f 35/41/38 50/42/44 49/38/42
f 36/43/35 40/40/43 41/44/45
f 35/45/38 51/46/46 50/42/44
f 36/47/35 41/44/45 37/48/36
f 35/49/38 47/50/40 51/46/46
f 37/30/36 42/51/47 38/31/37
f 42/51/47 43/52/48 38/31/37
f 38/31/37 43/52/48 44/53/49
f 38/31/37 44/53/49 39/36/41
f 39/36/41 44/53/49 40/40/43
f 44/53/49 45/54/50 40/40/43
f 40/40/43 45/54/50 46/55/51
f 40/40/43 46/55/51 41/44/45
f 41/44/45 46/55/51 37/48/36
f 46/55/51 42/56/47 37/48/36
f 42/51/47 47/34/40 48/33/39
f 42/51/47 48/33/39 43/52/48
f 43/52/48 48/33/39 44/53/49
f 48/33/39 49/38/42 44/53/49
f 44/53/49 49/38/42 50/42/44
f 44/53/49 50/42/44 45/54/50
f 45/54/50 50/42/44 46/55/51
f 50/42/44 51/46/46 46/55/51
f 46/55/51 51/46/46 47/50/40
f 46/55/51 47/50/40 42/56/47
# 30 triangles in group

g Sphere04
usemtl stone
f 53/57/52 54/58/53 55/59/54
f 52/60/55 67/61/56 66/62/57
f 53/63/52 55/59/54 56/64/58
f 52/65/55 68/66/59 67/61/56
f 53/67/52 56/64/58 57/68/60
f 52/69/55 69/70/61 68/66/59
f 53/71/52 57/68/60 54/72/53
f 52/73/55 66/74/57 69/70/61
f 54/58/53 58/75/62 59/76/63
f 54/58/53 59/76/63 55/59/54
f 55/59/54 59/76/63 56/64/58
f 59/76/63 60/77/64 56/64/58
f 56/64/58 60/77/64 61/78/65
f 56/64/58 61/78/65 57/68/60
f 57/68/60 61/78/65 54/72/53
f 61/78/65 58/79/62 54/72/53
f 58/75/62 62/80/66 59/76/63
f 62/80/66 63/81/67 59/76/63
f 59/76/63 63/81/67 64/82/68
f 59/76/63 64/82/68 60/77/64
f 60/77/64 64/82/68 61/78/65
f 64/82/68 65/83/69 61/78/65
f 61/78/65 65/83/69 62/84/66
f 61/78/65 62/84/66 58/79/62
f 62/80/66 66/62/57 67/61/56
f 62/80/66 67/61/56 63/81/67
f 63/81/67 67/61/56 64/82/68
f 67/61/56 68/66/59 64/82/68
f 64/82/68 68/66/59 69/70/61
f 64/82/68 69/70/61 65/83/69
f 65/83/69 69/70/61 62/84/66
f 69/70/61 66/74/57 62/84/66
# 32 triangles in group

g Duplicate02
usemtl stone
f 73/59/70 72/58/71 71/57/72
f 84/62/73 85/61/74 70/60/75
f 74/64/76 73/59/70 71/63/72
f 85/61/74 86/66/77 70/65/75
f 75/68/78 74/64/76 71/67/72
f 86/66/77 87/70/79 70/69/75
f 72/72/71 75/68/78 71/71/72
f 87/70/79 84/74/73 70/73/75
f 77/76/80 76/75/81 72/58/71
f 73/59/70 77/76/80 72/58/71
f 74/64/76 77/76/80 73/59/70
f 74/64/76 78/77/82 77/76/80
f 79/78/83 78/77/82 74/64/76
f 75/68/78 79/78/83 74/64/76
f 72/72/71 79/78/83 75/68/78
f 72/72/71 76/79/81 79/78/83
f 77/76/80 80/80/84 76/75/81
f 77/76/80 81/81/85 80/80/84
f 82/82/86 81/81/85 77/76/80
f 78/77/82 82/82/86 77/76/80
f 79/78/83 82/82/86 78/77/82
f 79/78/83 83/83/87 82/82/86
f 80/84/84 83/83/87 79/78/83
f 76/79/81 80/84/84 79/78/83
f 85/61/74 84/62/73 80/80/84
f 81/81/85 85/61/74 80/80/84
f 82/82/86 85/61/74 81/81/85
f 82/82/86 86/66/77 85/61/74
f 87/70/79 86/66/77 82/82/86
f 83/83/87 87/70/79 82/82/86
f 80/84/84 87/70/79 83/83/87
f 80/84/84 84/74/73 87/70/79
# 32 triangles in group

g Sphere05
usemtl stone
f 89/85/88 90/86/89 91/87/90
f 88/88/91 106/89/92 105/90/93
f 89/91/88 91/87/90 92/92/94
f 88/93/91 107/94/95 106/89/92
f 89/95/88 92/92/94 93/96/96
f 88/97/91 108/98/97 107/94/95
f 89/99/88 93/96/96 94/100/98
f 88/101/91 109/102/99 108/98/97
f 89/103/88 94/100/98 90/104/89
f 88/105/91 105/106/93 109/102/99
f 90/86/89 95/107/100 91/87/90
f 95/107/100 96/108/101 91/87/90
f 91/87/90 96/108/101 97/109/102
f 91/87/90 97/109/102 92/92/94
f 92/92/94 97/109/102 93/96/96
f 97/109/102 98/110/103 93/96/96
f 93/96/96 98/110/103 99/111/104
f 93/96/96 99/111/104 94/100/98
f 94/100/98 99/111/104 90/104/89
f 99/111/104 95/112/100 90/104/89
f 95/107/100 100/113/105 101/114/106
f 95/107/100 101/114/106 96/108/101
f 96/108/101 101/114/106 97/109/102
f 101/114/106 102/115/107 97/109/102
f 97/109/102 102/115/107 103/116/108
f 97/109/102 103/116/108 98/110/103
f 98/110/103 103/116/108 99/111/104
f 103/116/108 104/117/109 99/111/104
f 99/111/104 104/117/109 100/118/105
f 99/111/104 100/118/105 95/112/100
f 100/113/105 105/90/93 101/114/106
f 105/90/93 106/89/92 101/114/106
f 101/114/106 106/89/92 107/94/95
f 101/114/106 107/94/95 102/115/107
f 102/115/107 107/94/95 103/116/108
f 107/94/95 108/98/97 103/116/108
f 103/116/108 108/98/97 109/102/99
f 103/116/108 109/102/99 104/117/109
f 104/117/109 109/102/99 100/118/105
f 109/102/99 105/106/93 100/118/105
# 40 triangles in group

# 194 triangles total

