# Wavefront OBJ exported by MilkShape 3D

mtllib stone02.mtl

v 3.801263 -0.649047 5.301921
v -4.511227 0.099770 -3.478369
v -4.220054 -1.500524 -2.779988
v -5.475678 -1.562139 -1.786953
v -5.981999 0.099770 -0.918731
v -5.140830 1.761677 -1.676118
v -4.015016 3.200062 -2.552271
v -1.079320 1.761677 -5.333119
v -0.238155 0.099770 -6.090511
v -1.154546 -1.562139 -5.677719
v -3.471231 -3.927797 -2.323337
v -5.614991 -2.778739 1.239036
v -6.728716 -0.472263 3.619885
v -5.408402 2.729849 3.471391
v -1.754402 4.170595 -1.998991
v 1.762970 2.978279 -5.166046
v 3.219908 0.099766 -6.477883
v 1.775771 -3.153739 -6.395178
v 0.097482 -5.149938 0.057735
v -5.574634 -4.201444 5.927762
v -5.646358 -0.759673 6.354441
v -3.697662 2.630272 5.807521
v -0.784865 4.050354 3.079800
v 4.158996 3.423584 -3.599263
v 5.841324 0.099770 -5.114038
v 5.769605 -3.367747 -5.049461
v 2.761261 -4.533815 3.732215
v -1.172611 -4.466904 6.913272
v -3.024939 -0.902230 7.710814
v -1.126783 1.799723 6.853854
v 1.949370 3.614462 3.681970
v 5.732360 1.478275 -1.054289
v 7.189304 -1.400227 -2.366120
v 5.741391 -4.278739 0.184868
v 3.510078 -2.952663 4.734627
v 1.349515 -2.471397 6.741312
v 0.433123 -0.861745 7.325556
v 1.274289 0.870230 6.746035
v 3.305044 1.745977 4.999506
v 5.601418 -0.239114 2.950586
v 6.442583 -1.400234 1.032504
v 5.936266 -3.556306 2.713379
v 0.000000 1.856239 -9.003892
v 0.000000 -1.656697 -5.102386
v 2.273316 -0.778461 -6.077765
v 0.702493 0.828255 -4.631068
v -1.839151 0.214544 -5.183656
v -1.839151 -1.771468 -6.971867
v 0.702493 -2.385180 -7.524458
v 2.273316 0.978004 -8.028518
v 0.702493 2.584720 -6.581824
v -1.839151 1.971010 -7.134409
v -1.839151 -0.015001 -8.922622
v 0.702493 -0.628714 -9.475211
v 6.969111 2.084209 0.750003
v 5.736770 -1.884667 8.658425
v 9.534695 -0.892446 6.203770
v 6.666318 0.922804 9.466230
v 2.939107 0.229441 8.880032
v 3.503930 -2.014334 5.255299
v 7.580232 -2.707699 3.601274
v 10.150863 1.091989 2.249560
v 7.282490 2.907239 5.512009
v 3.555272 2.213876 4.925821
v 4.120102 -0.029897 1.301083
v 8.196403 -0.723263 -0.352940
# 66 vertices

vt -0.007811 -0.635057
vt -0.007811 -0.357053
vt 0.145065 -0.357053
vt -0.007811 1.032964
vt 0.145065 0.754961
vt -0.007811 0.754961
vt 0.145065 -0.635057
vt 0.297940 -0.357053
vt 0.145065 1.032964
vt 0.297940 0.754961
vt 0.297940 -0.635057
vt 0.450816 -0.357053
vt 0.297940 1.032964
vt 0.450816 0.754961
vt 0.450816 -0.635057
vt 0.603691 -0.357053
vt 0.450816 1.032964
vt 0.603691 0.754961
vt 0.603691 -0.635057
vt 0.756567 -0.357053
vt 0.603691 1.032964
vt 0.756567 0.754961
vt 0.756567 -0.635057
vt 0.909442 -0.357053
vt 0.756567 1.032964
vt 0.909442 0.754961
vt 0.909442 -0.635057
vt 1.062318 -0.357053
vt 0.909442 1.032964
vt 1.062318 0.754961
vt 1.062318 -0.635057
vt 1.215194 -0.357053
vt 1.062318 1.032964
vt 1.215194 0.754961
vt -0.007811 -0.079050
vt 0.145065 -0.079050
vt 0.297940 -0.079050
vt 0.450816 -0.079050
vt 0.603691 -0.079050
vt 0.756567 -0.079050
vt 0.909442 -0.079050
vt 1.062318 -0.079050
vt 1.215194 -0.079050
vt -0.007811 0.198954
vt 0.145065 0.198954
vt 0.297940 0.198954
vt 0.450816 0.198954
vt 0.603691 0.198954
vt 0.756567 0.198954
vt 0.909442 0.198954
vt 1.062318 0.198954
vt 1.215194 0.198954
vt -0.007811 0.476957
vt 0.145065 0.476957
vt 0.297940 0.476957
vt 0.450816 0.476957
vt 0.603691 0.476957
vt 0.756567 0.476957
vt 0.909442 0.476957
vt 1.062318 0.476957
vt 1.215194 0.476957
vt 0.000000 0.000000
vt 0.000000 0.333333
vt 0.200000 0.333333
vt 0.000000 1.000000
vt 0.200000 0.666667
vt 0.000000 0.666667
vt 0.200000 0.000000
vt 0.400000 0.333333
vt 0.200000 1.000000
vt 0.400000 0.666667
vt 0.400000 0.000000
vt 0.600000 0.333333
vt 0.400000 1.000000
vt 0.600000 0.666667
vt 0.600000 0.000000
vt 0.800000 0.333333
vt 0.600000 1.000000
vt 0.800000 0.666667
vt 0.800000 0.000000
vt 1.000000 0.333333
vt 0.800000 1.000000
vt 1.000000 0.666667
# 83 texture coordinates

vn -0.701721 0.025094 -0.712010
vn -0.586722 -0.537649 -0.605550
vn -0.751408 -0.438865 -0.492731
vn 0.676064 -0.024883 0.736423
vn 0.483725 -0.273210 0.831484
vn 0.501839 -0.586663 0.635598
vn -0.958913 0.087066 -0.270010
vn 0.278944 0.022723 0.960039
vn -0.865529 0.373240 -0.333992
vn 0.400998 0.311322 0.861557
vn -0.562549 0.664930 -0.491331
vn 0.599155 0.548313 0.583410
vn -0.380906 0.399111 -0.834039
vn 0.868292 0.232330 0.438282
vn -0.281970 0.151260 -0.947425
vn 0.957508 0.011419 0.288180
vn -0.519505 -0.296402 -0.801411
vn 0.767982 -0.409336 0.492593
vn -0.545110 -0.730858 -0.410734
vn -0.792352 -0.591637 -0.148811
vn -0.995168 -0.036667 0.091079
vn -0.709256 0.695899 0.112608
vn -0.155501 0.977865 -0.139996
vn 0.042437 0.744308 -0.666486
vn 0.170859 0.193960 -0.966016
vn -0.113391 -0.490679 -0.863931
vn -0.071274 -0.993252 -0.091491
vn -0.622365 -0.728199 0.287032
vn -0.705810 0.077290 0.704172
vn -0.322470 0.723535 0.610336
vn 0.067360 0.984935 0.159266
vn 0.495844 0.839633 -0.221711
vn 0.732202 0.172455 -0.658892
vn 0.530808 -0.691654 -0.489753
vn 0.362795 -0.866405 0.343106
vn 0.099103 -0.615484 0.781894
vn -0.166169 0.048376 0.984910
vn 0.036304 0.588759 0.807493
vn 0.338505 0.882204 0.327308
vn 0.765633 0.637180 0.088357
vn 0.993663 -0.042875 -0.103906
vn 0.661359 -0.748911 0.041670
vn 0.000001 -0.669131 0.743145
vn 0.889369 -0.403121 0.215677
vn 0.287913 0.415465 0.862841
vn -0.000000 0.669131 -0.743145
vn 0.260697 0.955526 0.137865
vn 0.889369 0.403121 -0.215677
vn -0.682514 0.009239 0.730814
vn -0.753765 0.650017 0.096522
vn -0.753765 -0.650016 -0.096522
vn -0.682515 -0.009239 -0.730814
vn 0.260697 -0.955526 -0.137865
vn 0.287912 -0.415465 -0.862842
vn 0.053383 -0.793470 0.606264
vn 0.834732 -0.484275 0.262107
vn 0.364002 0.516377 0.775150
vn -0.051120 0.795305 -0.604051
vn 0.219680 0.966630 0.131783
vn 0.860018 0.503245 -0.084343
vn -0.757562 -0.044783 0.651225
vn -0.682087 0.730623 -0.030773
vn -0.688899 -0.708205 -0.154476
vn -0.739767 0.013696 -0.672724
vn 0.223393 -0.972278 -0.069070
vn 0.284626 -0.564780 -0.774604
# 66 normals

g Sphere01
usemtl Material01
s 1
f 2/1/1 3/2/2 4/3/3
f 1/4/4 36/5/5 35/6/6
f 2/7/1 4/3/3 5/8/7
f 1/9/4 37/10/8 36/5/5
f 2/11/1 5/8/7 6/12/9
f 1/13/4 38/14/10 37/10/8
f 2/15/1 6/12/9 7/16/11
f 1/17/4 39/18/12 38/14/10
f 2/19/1 7/16/11 8/20/13
f 1/21/4 40/22/14 39/18/12
f 2/23/1 8/20/13 9/24/15
f 1/25/4 41/26/16 40/22/14
f 2/27/1 9/24/15 10/28/17
f 1/29/4 42/30/18 41/26/16
f 2/31/1 10/28/17 3/32/2
f 1/33/4 35/34/6 42/30/18
f 3/2/2 11/35/19 12/36/20
f 3/2/2 12/36/20 4/3/3
f 4/3/3 12/36/20 5/8/7
f 12/36/20 13/37/21 5/8/7
f 5/8/7 13/37/21 14/38/22
f 5/8/7 14/38/22 6/12/9
f 6/12/9 14/38/22 7/16/11
f 14/38/22 15/39/23 7/16/11
f 7/16/11 15/39/23 16/40/24
f 7/16/11 16/40/24 8/20/13
f 8/20/13 16/40/24 9/24/15
f 16/40/24 17/41/25 9/24/15
f 9/24/15 17/41/25 18/42/26
f 9/24/15 18/42/26 10/28/17
f 10/28/17 18/42/26 3/32/2
f 18/42/26 11/43/19 3/32/2
f 11/35/19 19/44/27 12/36/20
f 19/44/27 20/45/28 12/36/20
f 12/36/20 20/45/28 21/46/29
f 12/36/20 21/46/29 13/37/21
f 13/37/21 21/46/29 14/38/22
f 21/46/29 22/47/30 14/38/22
f 14/38/22 22/47/30 23/48/31
f 14/38/22 23/48/31 15/39/23
f 15/39/23 23/48/31 16/40/24
f 23/48/31 24/49/32 16/40/24
f 16/40/24 24/49/32 25/50/33
f 16/40/24 25/50/33 17/41/25
f 17/41/25 25/50/33 18/42/26
f 25/50/33 26/51/34 18/42/26
f 18/42/26 26/51/34 19/52/27
f 18/42/26 19/52/27 11/43/19
f 19/44/27 27/53/35 28/54/36
f 19/44/27 28/54/36 20/45/28
f 20/45/28 28/54/36 21/46/29
f 28/54/36 29/55/37 21/46/29
f 21/46/29 29/55/37 30/56/38
f 21/46/29 30/56/38 22/47/30
f 22/47/30 30/56/38 23/48/31
f 30/56/38 31/57/39 23/48/31
f 23/48/31 31/57/39 32/58/40
f 23/48/31 32/58/40 24/49/32
f 24/49/32 32/58/40 25/50/33
f 32/58/40 33/59/41 25/50/33
f 25/50/33 33/59/41 34/60/42
f 25/50/33 34/60/42 26/51/34
f 26/51/34 34/60/42 19/52/27
f 34/60/42 27/61/35 19/52/27
f 27/53/35 35/6/6 28/54/36
f 35/6/6 36/5/5 28/54/36
f 28/54/36 36/5/5 37/10/8
f 28/54/36 37/10/8 29/55/37
f 29/55/37 37/10/8 30/56/38
f 37/10/8 38/14/10 30/56/38
f 30/56/38 38/14/10 39/18/12
f 30/56/38 39/18/12 31/57/39
f 31/57/39 39/18/12 32/58/40
f 39/18/12 40/22/14 32/58/40
f 32/58/40 40/22/14 41/26/16
f 32/58/40 41/26/16 33/59/41
f 33/59/41 41/26/16 34/60/42
f 41/26/16 42/30/18 34/60/42
f 34/60/42 42/30/18 35/34/6
f 34/60/42 35/34/6 27/61/35
# 80 triangles in group

g Sphere02
usemtl Material01
f 44/62/43 45/63/44 46/64/45
f 43/65/46 51/66/47 50/67/48
f 44/68/43 46/64/45 47/69/49
f 43/70/46 52/71/50 51/66/47
f 44/72/43 47/69/49 48/73/51
f 43/74/46 53/75/52 52/71/50
f 44/76/43 48/73/51 49/77/53
f 43/78/46 54/79/54 53/75/52
f 44/80/43 49/77/53 45/81/44
f 43/82/46 50/83/48 54/79/54
f 45/63/44 50/67/48 46/64/45
f 50/67/48 51/66/47 46/64/45
f 46/64/45 51/66/47 52/71/50
f 46/64/45 52/71/50 47/69/49
f 47/69/49 52/71/50 48/73/51
f 52/71/50 53/75/52 48/73/51
f 48/73/51 53/75/52 54/79/54
f 48/73/51 54/79/54 49/77/53
f 49/77/53 54/79/54 45/81/44
f 54/79/54 50/83/48 45/81/44
# 20 triangles in group

g Duplicate01
usemtl Material01
f 56/62/55 57/63/56 58/64/57
f 55/65/58 63/66/59 62/67/60
f 56/68/55 58/64/57 59/69/61
f 55/70/58 64/71/62 63/66/59
f 56/72/55 59/69/61 60/73/63
f 55/74/58 65/75/64 64/71/62
f 56/76/55 60/73/63 61/77/65
f 55/78/58 66/79/66 65/75/64
f 56/80/55 61/77/65 57/81/56
f 55/82/58 62/83/60 66/79/66
f 57/63/56 62/67/60 58/64/57
f 62/67/60 63/66/59 58/64/57
f 58/64/57 63/66/59 64/71/62
f 58/64/57 64/71/62 59/69/61
f 59/69/61 64/71/62 60/73/63
f 64/71/62 65/75/64 60/73/63
f 60/73/63 65/75/64 66/79/66
f 60/73/63 66/79/66 61/77/65
f 61/77/65 66/79/66 57/81/56
f 66/79/66 62/83/60 57/81/56
# 20 triangles in group

# 120 triangles total

