# Wavefront OBJ exported by MilkShape 3D

mtllib stone03.mtl

v -2.699878 2.642929 -2.686756
v 3.261503 -1.325947 2.654008
v 3.271353 -0.333726 -1.868101
v 4.445254 1.481524 2.314386
v 1.923640 0.788161 5.121021
v -0.808691 -1.455614 2.673150
v 0.024241 -2.148979 -1.646372
v 0.820074 1.275709 -4.759069
v 1.464556 3.465960 -0.356004
v -2.115874 2.022595 3.509468
v -3.789386 0.528823 0.002765
v -2.465911 -1.244182 -4.316755
# 12 vertices

vt 0.187885 -0.693377
vt 0.187885 -0.163392
vt 0.491211 -0.163392
vt 0.187885 0.896577
vt 0.491211 0.366593
vt 0.187885 0.366593
vt 0.491211 -0.693377
vt 0.794537 -0.163392
vt 0.491211 0.896577
vt 0.794537 0.366593
vt 0.794537 -0.693377
vt 1.097862 -0.163392
vt 0.794537 0.896577
vt 1.097862 0.366593
vt 1.097862 -0.693377
vt 1.401188 -0.163392
vt 1.097862 0.896577
vt 1.401188 0.366593
vt 1.401188 -0.693377
vt 1.704514 -0.163392
vt 1.401188 0.896577
vt 1.704514 0.366593
# 22 texture coordinates

vn 0.537530 -0.793470 0.285425
vn 0.709080 -0.522595 -0.473393
vn 0.840480 0.525362 0.132619
vn -0.587823 0.727722 -0.353390
vn 0.209219 0.975011 -0.074704
vn 0.444512 0.448962 -0.775140
vn 0.189328 -0.170581 0.966983
vn -0.481926 0.636138 0.602558
vn -0.408517 -0.794658 0.449035
vn -0.975931 -0.161865 0.146147
vn 0.129830 -0.979801 -0.152101
vn -0.419804 -0.687595 -0.592434
# 12 normals

g Duplicate01
usemtl Material01
s 1
f 2/1/1 3/2/2 4/3/3
f 1/4/4 9/5/5 8/6/6
f 2/7/1 4/3/3 5/8/7
f 1/9/4 10/10/8 9/5/5
f 2/11/1 5/8/7 6/12/9
f 1/13/4 11/14/10 10/10/8
f 2/15/1 6/12/9 7/16/11
f 1/17/4 12/18/12 11/14/10
f 2/19/1 7/16/11 3/20/2
f 1/21/4 8/22/6 12/18/12
f 3/2/2 8/6/6 4/3/3
f 8/6/6 9/5/5 4/3/3
f 4/3/3 9/5/5 10/10/8
f 4/3/3 10/10/8 5/8/7
f 5/8/7 10/10/8 6/12/9
f 10/10/8 11/14/10 6/12/9
f 6/12/9 11/14/10 12/18/12
f 6/12/9 12/18/12 7/16/11
f 7/16/11 12/18/12 3/20/2
f 12/18/12 8/22/6 3/20/2
# 20 triangles in group

# 20 triangles total

