# Wavefront OBJ exported by MilkShape 3D

mtllib storage.mtl

v -9.908960 8.050001 10.354937
v -9.908960 -18.699999 10.354937
v 9.908960 8.050001 10.354937
v 9.908960 -18.699999 10.354937
v 9.908960 8.050001 8.895063
v 9.908960 -18.699999 8.895063
v -9.908960 8.050001 8.895063
v -9.908960 -18.699999 8.895063
v -9.908960 8.050001 -8.895063
v -9.908960 -18.699999 -8.895063
v 9.908960 8.050001 -8.895063
v 9.908960 -18.699999 -8.895063
v 9.908960 8.050001 -10.354937
v 9.908960 -18.699999 -10.354937
v -9.908960 8.050001 -10.354937
v -9.908960 -18.699999 -10.354937
v 10.979942 8.050001 10.033962
v 10.979942 -18.699999 10.033962
v 10.979939 8.050001 -9.783962
v 10.979939 -18.699999 -9.783962
v 9.520063 8.050001 -9.783966
v 9.520063 -18.699999 -9.783966
v 9.520065 8.050001 10.033965
v 9.520065 -18.699999 10.033965
v -9.270058 8.050001 10.033962
v -9.270058 -18.699999 10.033962
v -9.270061 8.050001 -9.783962
v -9.270061 -18.699999 -9.783962
v -10.729937 8.050001 -9.783966
v -10.729937 -18.699999 -9.783966
v -10.729935 8.050001 10.033965
v -10.729935 -18.699999 10.033965
v -8.317949 8.050001 11.277322
v -8.317949 -18.699999 11.277322
v -8.317961 8.050001 7.972676
v -8.317961 -18.699999 7.972676
v -11.682045 8.050001 7.972676
v -11.682045 -18.699999 7.972676
v -11.682035 8.050001 11.277322
v -11.682035 -18.699999 11.277322
v -8.317949 8.050001 -7.972679
v -8.317949 -18.699999 -7.972679
v -8.317961 8.050001 -11.277325
v -8.317961 -18.699999 -11.277325
v -11.682045 8.050001 -11.277325
v -11.682045 -18.699999 -11.277325
v -11.682035 8.050001 -7.972679
v -11.682035 -18.699999 -7.972679
v 11.932051 8.050001 -7.972679
v 11.932051 -18.699999 -7.972679
v 11.932039 8.050001 -11.277325
v 11.932039 -18.699999 -11.277325
v 8.567955 8.050001 -11.277325
v 8.567955 -18.699999 -11.277325
v 8.567965 8.050001 -7.972679
v 8.567965 -18.699999 -7.972679
v 11.682051 8.050001 11.277321
v 11.682051 -18.699999 11.277321
v 11.682039 8.050001 7.972675
v 11.682039 -18.699999 7.972675
v 8.317955 8.050001 7.972675
v 8.317955 -18.699999 7.972675
v 8.317965 8.050001 11.277321
v 8.317965 -18.699999 11.277321
v -10.294104 4.550001 9.712402
v -10.294104 -16.199999 9.712402
v 10.294104 4.550001 9.712402
v 10.294104 -16.199999 9.712402
v 10.294104 4.550001 -9.462402
v 10.294104 -16.199999 -9.462402
v -10.294104 4.550001 -9.462402
v -10.294104 -16.199999 -9.462402
v 11.759872 9.241184 -11.314159
v 11.759872 8.423193 12.110050
v 11.759857 7.926807 -11.360058
v 11.759857 7.108816 12.064147
v 7.240133 7.926807 -11.360058
v 7.240133 7.108816 12.064147
v 7.240146 9.241184 -11.314159
v 7.240146 8.423193 12.110050
v 8.071861 8.832589 -11.158064
v 6.436875 8.832589 12.223333
v 8.071846 7.517411 -11.158062
v 6.436860 7.517411 12.223328
v 3.563130 7.517411 -11.473339
v 1.928144 7.517411 11.908050
v 3.563143 8.832589 -11.473341
v 1.928158 8.832589 11.908053
v 2.509873 8.537018 -10.830994
v 2.509873 8.127960 12.603934
v 2.509857 7.222040 -10.853943
v 2.509857 6.812983 12.580976
v -2.009869 7.222040 -10.853939
v -2.009868 6.812983 12.580979
v -2.009855 8.537018 -10.830990
v -2.009854 8.127960 12.603935
v -2.900499 8.832589 -11.165981
v -2.082507 8.832589 12.258235
v -2.900515 7.517411 -11.165981
v -2.082524 7.517411 12.258229
v -7.417488 7.517411 -11.008240
v -6.599495 7.517411 12.415969
v -7.417473 8.832589 -11.008244
v -6.599482 8.832589 12.415971
v -7.082508 8.582589 -11.008249
v -7.900497 8.582589 12.415975
v -7.082523 7.267411 -11.008247
v -7.900515 7.267411 12.415966
v -11.599497 7.267411 -11.165977
v -12.417488 7.267411 12.258235
v -11.599482 8.582589 -11.165981
v -12.417475 8.582589 12.258237
# 112 vertices

vt 0.000000 1.000000
vt 0.000000 0.000000
vt 1.000000 1.000000
vt 1.000000 0.000000
vt 1.842499 0.881517
vt 1.842499 0.013394
vt 2.097065 0.881517
vt 2.097065 0.013394
# 8 texture coordinates

vn 0.000000 0.000000 1.000000
vn 1.000000 0.000000 0.000000
vn 0.000000 0.000000 -1.000000
vn -1.000000 0.000000 0.000000
vn 0.000000 1.000000 0.000000
vn 0.000000 -1.000000 0.000000
vn 0.000000 -0.999391 -0.034899
vn 0.000000 0.999391 0.034899
vn 0.000000 0.034899 -0.999391
vn 0.000000 -0.034903 0.999391
vn 0.997564 -0.000011 0.069756
vn -0.997564 0.000010 -0.069756
vn 0.069756 -0.000002 -0.997564
vn -0.069756 -0.000004 0.997564
vn 0.000000 -0.999848 -0.017452
vn 0.000000 0.999848 0.017452
vn -0.000001 0.017450 -0.999848
vn 0.000000 -0.017457 0.999848
vn 0.999391 -0.000012 -0.034900
vn -0.999391 0.000012 0.034900
vn -0.034900 -0.000002 -0.999391
vn 0.034899 -0.000005 0.999391
vn 0.999391 -0.000011 0.034899
vn -0.999391 0.000011 -0.034899
vn 0.034899 -0.000003 -0.999391
vn -0.034900 -0.000006 0.999391
# 26 normals

g Box02
usemtl Material01
s 1
f 1/1/1 2/2/1 3/3/1
f 2/2/1 4/4/1 3/3/1
s 2
f 3/1/2 4/2/2 5/3/2
f 4/2/2 6/4/2 5/3/2
s 1
f 5/1/3 6/2/3 7/3/3
f 6/2/3 8/4/3 7/3/3
s 2
f 7/1/4 8/2/4 1/3/4
f 8/2/4 2/4/4 1/3/4
s 3
f 7/1/5 1/2/5 5/3/5
f 1/2/5 3/4/5 5/3/5
f 2/1/6 8/2/6 4/3/6
f 8/2/6 6/4/6 4/3/6
# 12 triangles in group

g Duplicate01
usemtl Material01
s 1
f 9/1/1 10/2/1 11/3/1
f 10/2/1 12/4/1 11/3/1
s 2
f 11/1/2 12/2/2 13/3/2
f 12/2/2 14/4/2 13/3/2
s 1
f 13/1/3 14/2/3 15/3/3
f 14/2/3 16/4/3 15/3/3
s 2
f 15/1/4 16/2/4 9/3/4
f 16/2/4 10/4/4 9/3/4
s 3
f 15/1/5 9/2/5 13/3/5
f 9/2/5 11/4/5 13/3/5
f 10/1/6 16/2/6 12/3/6
f 16/2/6 14/4/6 12/3/6
# 12 triangles in group

g Duplicate02
usemtl Material01
s 1
f 17/1/2 18/2/2 19/3/2
f 18/2/2 20/4/2 19/3/2
s 2
f 19/1/3 20/2/3 21/3/3
f 20/2/3 22/4/3 21/3/3
s 1
f 21/1/4 22/2/4 23/3/4
f 22/2/4 24/4/4 23/3/4
s 2
f 23/1/1 24/2/1 17/3/1
f 24/2/1 18/4/1 17/3/1
s 3
f 23/1/5 17/2/5 21/3/5
f 17/2/5 19/4/5 21/3/5
f 18/1/6 24/2/6 20/3/6
f 24/2/6 22/4/6 20/3/6
# 12 triangles in group

g Duplicate03
usemtl Material01
s 1
f 25/1/2 26/2/2 27/3/2
f 26/2/2 28/4/2 27/3/2
s 2
f 27/1/3 28/2/3 29/3/3
f 28/2/3 30/4/3 29/3/3
s 1
f 29/1/4 30/2/4 31/3/4
f 30/2/4 32/4/4 31/3/4
s 2
f 31/1/1 32/2/1 25/3/1
f 32/2/1 26/4/1 25/3/1
s 3
f 31/1/5 25/2/5 29/3/5
f 25/2/5 27/4/5 29/3/5
f 26/1/6 32/2/6 28/3/6
f 32/2/6 30/4/6 28/3/6
# 12 triangles in group

g Duplicate05
usemtl Material02
s 1
f 33/5/2 34/6/2 35/7/2
f 34/6/2 36/8/2 35/7/2
s 2
f 35/5/3 36/6/3 37/7/3
f 36/6/3 38/8/3 37/7/3
s 1
f 37/5/4 38/6/4 39/7/4
f 38/6/4 40/8/4 39/7/4
s 2
f 39/5/1 40/6/1 33/7/1
f 40/6/1 34/8/1 33/7/1
s 3
f 39/5/5 33/6/5 37/7/5
f 33/6/5 35/8/5 37/7/5
f 34/5/6 40/6/6 36/7/6
f 40/6/6 38/8/6 36/7/6
# 12 triangles in group

g Duplicate06
usemtl Material02
s 1
f 41/5/2 42/6/2 43/7/2
f 42/6/2 44/8/2 43/7/2
s 2
f 43/5/3 44/6/3 45/7/3
f 44/6/3 46/8/3 45/7/3
s 1
f 45/5/4 46/6/4 47/7/4
f 46/6/4 48/8/4 47/7/4
s 2
f 47/5/1 48/6/1 41/7/1
f 48/6/1 42/8/1 41/7/1
s 3
f 47/5/5 41/6/5 45/7/5
f 41/6/5 43/8/5 45/7/5
f 42/5/6 48/6/6 44/7/6
f 48/6/6 46/8/6 44/7/6
# 12 triangles in group

g Duplicate07
usemtl Material02
s 1
f 49/5/2 50/6/2 51/7/2
f 50/6/2 52/8/2 51/7/2
s 2
f 51/5/3 52/6/3 53/7/3
f 52/6/3 54/8/3 53/7/3
s 1
f 53/5/4 54/6/4 55/7/4
f 54/6/4 56/8/4 55/7/4
s 2
f 55/5/1 56/6/1 49/7/1
f 56/6/1 50/8/1 49/7/1
s 3
f 55/5/5 49/6/5 53/7/5
f 49/6/5 51/8/5 53/7/5
f 50/5/6 56/6/6 52/7/6
f 56/6/6 54/8/6 52/7/6
# 12 triangles in group

g Duplicate08
usemtl Material02
s 1
f 57/5/2 58/6/2 59/7/2
f 58/6/2 60/8/2 59/7/2
s 2
f 59/5/3 60/6/3 61/7/3
f 60/6/3 62/8/3 61/7/3
s 1
f 61/5/4 62/6/4 63/7/4
f 62/6/4 64/8/4 63/7/4
s 2
f 63/5/1 64/6/1 57/7/1
f 64/6/1 58/8/1 57/7/1
s 3
f 63/5/5 57/6/5 61/7/5
f 57/6/5 59/8/5 61/7/5
f 58/5/6 64/6/6 60/7/6
f 64/6/6 62/8/6 60/7/6
# 12 triangles in group

g Box03
usemtl Material03
s 1
f 65/1/1 66/2/1 67/3/1
f 66/2/1 68/4/1 67/3/1
s 2
f 67/1/2 68/2/2 69/3/2
f 68/2/2 70/4/2 69/3/2
s 1
f 69/1/3 70/2/3 71/3/3
f 70/2/3 72/4/3 71/3/3
s 2
f 71/1/4 72/2/4 65/3/4
f 72/2/4 66/4/4 65/3/4
s 3
f 71/1/5 65/2/5 69/3/5
f 65/2/5 67/4/5 69/3/5
f 66/1/6 72/2/6 68/3/6
f 72/2/6 70/4/6 68/3/6
# 12 triangles in group

g Duplicate09
usemtl Material02
s 1
f 73/5/2 74/6/2 75/7/2
f 74/6/2 76/8/2 75/7/2
s 2
f 75/5/7 76/6/7 77/7/7
f 76/6/7 78/8/7 77/7/7
s 1
f 77/5/4 78/6/4 79/7/4
f 78/6/4 80/8/4 79/7/4
s 2
f 79/5/8 80/6/8 73/7/8
f 80/6/8 74/8/8 73/7/8
s 3
f 79/5/9 73/6/9 77/7/9
f 73/6/9 75/8/9 77/7/9
f 74/5/10 80/6/10 76/7/10
f 80/6/10 78/8/10 76/7/10
# 12 triangles in group

g Duplicate10
usemtl Material02
s 1
f 81/5/11 82/6/11 83/7/11
f 82/6/11 84/8/11 83/7/11
s 2
f 83/5/6 84/6/6 85/7/6
f 84/6/6 86/8/6 85/7/6
s 1
f 85/5/12 86/6/12 87/7/12
f 86/6/12 88/8/12 87/7/12
s 2
f 87/5/5 88/6/5 81/7/5
f 88/6/5 82/8/5 81/7/5
s 3
f 87/5/13 81/6/13 85/7/13
f 81/6/13 83/8/13 85/7/13
f 82/5/14 88/6/14 84/7/14
f 88/6/14 86/8/14 84/7/14
# 12 triangles in group

g Duplicate11
usemtl Material02
s 1
f 89/5/2 90/6/2 91/7/2
f 90/6/2 92/8/2 91/7/2
s 2
f 91/5/15 92/6/15 93/7/15
f 92/6/15 94/8/15 93/7/15
s 1
f 93/5/4 94/6/4 95/7/4
f 94/6/4 96/8/4 95/7/4
s 2
f 95/5/16 96/6/16 89/7/16
f 96/6/16 90/8/16 89/7/16
s 3
f 95/5/17 89/6/17 93/7/17
f 89/6/17 91/8/17 93/7/17
f 90/5/18 96/6/18 92/7/18
f 96/6/18 94/8/18 92/7/18
# 12 triangles in group

g Duplicate12
usemtl Material02
s 1
f 97/5/19 98/6/19 99/7/19
f 98/6/19 100/8/19 99/7/19
s 2
f 99/5/6 100/6/6 101/7/6
f 100/6/6 102/8/6 101/7/6
s 1
f 101/5/20 102/6/20 103/7/20
f 102/6/20 104/8/20 103/7/20
s 2
f 103/5/5 104/6/5 97/7/5
f 104/6/5 98/8/5 97/7/5
s 3
f 103/5/21 97/6/21 101/7/21
f 97/6/21 99/8/21 101/7/21
f 98/5/22 104/6/22 100/7/22
f 104/6/22 102/8/22 100/7/22
# 12 triangles in group

g Duplicate13
usemtl Material02
s 1
f 105/5/23 106/6/23 107/7/23
f 106/6/23 108/8/23 107/7/23
s 2
f 107/5/6 108/6/6 109/7/6
f 108/6/6 110/8/6 109/7/6
s 1
f 109/5/24 110/6/24 111/7/24
f 110/6/24 112/8/24 111/7/24
s 2
f 111/5/5 112/6/5 105/7/5
f 112/6/5 106/8/5 105/7/5
s 3
f 111/5/25 105/6/25 109/7/25
f 105/6/25 107/8/25 109/7/25
f 106/5/26 112/6/26 108/7/26
f 112/6/26 110/8/26 108/7/26
# 12 triangles in group

# 168 triangles total

