# Wavefront OBJ exported by MilkShape 3D

mtllib stump03.mtl

v 6.165791 -10.666423 -1.243486
v 5.375000 35.906296 6.790617
v 4.723269 -11.429242 2.680964
v 4.117489 40.646000 11.231569
v 1.070679 -11.835147 4.769118
v 0.933359 34.896271 11.986702
v -3.082895 -11.694177 4.043909
v -0.937500 38.204472 11.152626
v -5.793949 -11.072316 0.844670
v -5.050848 31.673733 7.139297
v -5.793949 -10.260530 -3.331637
v -5.050848 36.257069 4.986029
v -3.082895 -9.638658 -6.530884
v -3.187500 43.175072 3.461504
v 1.070679 -9.497684 -7.256085
v 0.933359 36.916302 1.594529
v 4.723269 -9.903583 -5.167935
v 4.117489 36.565529 3.399110
v -5.050848 36.257069 4.986029
# 19 vertices

vt 0.000000 0.000000
vt 0.000000 1.000000
vt 0.111111 0.000000
vt 0.111111 1.000000
vt 0.222222 1.000000
vt 0.222222 0.000000
vt 0.333333 0.000000
vt 0.333333 1.000000
vt 0.444444 1.000000
vt 0.444444 0.000000
vt 0.555556 0.000000
vt 0.555556 1.000000
vt 0.666667 1.000000
vt 0.666667 0.000000
vt 0.777778 0.000000
vt 0.777778 1.000000
vt 0.888889 1.000000
vt 0.888889 0.000000
vt 1.000000 0.000000
vt 1.000000 1.000000
vt 1.000000 0.500000
vt 0.573978 0.000000
vt 0.879385 0.173648
vt 0.253909 0.090089
vt 0.000000 0.391383
vt 0.000000 0.673648
vt 0.178724 0.939693
vt 0.573978 1.000000
vt 0.879385 0.826352
# 29 texture coordinates

vn 0.992627 0.036852 -0.115474
vn 0.993855 -0.003085 0.110645
vn 0.764146 -0.094232 0.638123
vn 0.760385 -0.096610 0.642247
vn 0.068357 -0.143822 0.987240
vn 0.174658 -0.149791 0.973169
vn -0.544875 -0.106029 0.831787
vn -0.583843 -0.089848 0.806879
vn -0.919906 -0.036745 0.390414
vn -0.939994 -0.033656 0.339526
vn -0.951865 0.067162 -0.299069
vn -0.961974 0.062894 -0.265800
vn -0.524273 0.160122 -0.836361
vn -0.502490 0.159767 -0.849693
vn 0.177815 0.184434 -0.966626
vn 0.180845 0.184741 -0.966005
vn 0.767088 0.125995 -0.629048
vn 0.768138 0.125757 -0.627813
vn -0.011155 0.971913 0.235077
vn -0.162986 0.985247 0.052193
vn -0.746774 0.338356 -0.572576
vn 0.280916 0.954863 -0.096553
vn -0.367970 0.918386 0.145482
vn -0.149447 0.338157 0.929148
vn 0.469673 0.759445 0.450168
vn 0.390193 0.907215 -0.157196
vn 0.000001 0.981628 0.190806
# 27 normals

g Cylinder02
usemtl Material01
s 1
f 1/1/1 2/2/2 3/3/3
f 2/2/2 4/4/4 3/3/3
f 3/3/3 4/4/4 6/5/5
f 3/3/3 6/5/5 5/6/6
f 5/6/6 6/5/5 7/7/7
f 6/5/5 8/8/8 7/7/7
f 7/7/7 8/8/8 10/9/9
f 7/7/7 10/9/9 9/10/10
f 9/10/10 10/9/9 11/11/11
f 10/9/9 12/12/12 11/11/11
f 11/11/11 12/12/12 14/13/13
f 11/11/11 14/13/13 13/14/14
f 13/14/14 14/13/13 15/15/15
f 14/13/13 16/16/16 15/15/15
f 15/15/15 16/16/16 18/17/17
f 15/15/15 18/17/17 17/18/18
f 17/18/18 18/17/17 1/19/1
f 18/17/17 2/20/2 1/19/1
# 18 triangles in group

g Duplicate01
usemtl Material02
s 2
f 2/21/19 6/22/20 4/23/21
f 2/21/19 8/24/22 6/22/20
f 2/21/19 10/25/23 8/24/22
f 2/21/19 19/26/24 10/25/23
f 2/21/19 14/27/25 19/26/24
f 2/21/19 16/28/26 14/27/25
f 2/21/19 18/29/27 16/28/26
# 7 triangles in group

# 25 triangles total

