# Wavefront OBJ exported by MilkShape 3D

mtllib stump02.mtl

v 4.477443 -8.186817 0.484658
v 3.331923 19.581244 0.567994
v 3.160589 -8.186817 3.705707
v 2.171233 19.793318 1.928372
v -0.018578 -8.186817 5.039908
v 0.017806 19.411373 4.037755
v -3.197746 -8.186817 3.705707
v -2.015556 19.261129 3.535216
v -4.514598 -8.186817 0.484658
v -2.955429 19.397282 0.943680
v -3.197746 -8.186817 -2.736387
v -2.098966 19.587206 -1.274182
v -0.018578 -8.186817 -4.070588
v -0.065841 20.133396 -2.521466
v 3.160589 -8.186817 -2.736387
v 2.286886 19.901358 -1.764568
v 0.445884 21.082638 -0.730105
v 0.512156 20.150000 2.547971
# 18 vertices

vt -0.614413 -1.912181
vt -0.614413 -0.998857
vt -0.236414 -0.998857
vt -0.236414 -1.912181
vt 0.141584 -1.912181
vt 0.141584 -0.998857
vt 0.519584 -0.998857
vt 0.519584 -1.912181
vt 0.897583 -1.912181
vt 0.897583 -0.998857
vt 1.275579 -0.998857
vt 1.275579 -1.912181
vt 1.653581 -1.912181
vt 1.653581 -0.998857
vt 2.031579 -0.998857
vt 2.031579 -1.912181
vt 2.409578 -1.912181
vt 2.409578 -0.998857
vt 1.450401 -0.661051
vt 1.258068 0.743135
vt 0.104265 -0.854788
vt 0.450464 0.080583
vt 1.326319 -2.142056
vt 1.441719 -1.126289
vt 2.287983 -1.477901
vt 2.134117 -0.618406
vt 2.826515 -0.540270
vt 2.326449 0.491125
vt 0.518522 -2.102989
# 29 texture coordinates

vn 0.998311 0.057996 0.003378
vn 0.998255 0.058662 0.006751
vn 0.715025 0.057491 0.696731
vn 0.711706 0.057656 0.700107
vn 0.000000 0.056791 0.998386
vn -0.715025 0.057491 0.696731
vn -0.711706 0.057656 0.700107
vn -0.998311 0.057996 0.003378
vn -0.998255 0.058662 0.006751
vn -0.718345 0.056516 -0.693387
vn -0.711758 0.056383 -0.700158
vn 0.000000 0.055286 -0.998471
vn 0.718345 0.056516 -0.693387
vn 0.711758 0.056383 -0.700158
vn 0.010887 0.969688 0.244104
vn -0.079202 0.994827 0.063610
vn -0.478390 0.835207 0.271242
vn -0.612997 0.771143 -0.171970
vn -0.373573 0.879089 0.296050
vn -0.151595 0.947034 0.283101
vn 0.049921 0.990801 0.125784
vn 0.220008 0.974511 0.043873
vn 0.056109 0.990143 0.128331
vn 0.138541 0.982401 0.125281
vn -0.721166 0.019637 0.692484
# 25 normals

g Cylinder01
usemtl Material02
s 1
f 1/1/1 2/2/2 4/3/3
f 1/1/1 4/3/3 3/4/4
f 3/4/4 4/3/3 5/5/5
f 4/3/3 6/6/5 5/5/5
f 5/5/5 6/6/5 8/7/6
f 5/5/5 8/7/6 7/8/7
f 7/8/7 8/7/6 9/9/8
f 8/7/6 10/10/9 9/9/8
f 9/9/8 10/10/9 12/11/10
f 9/9/8 12/11/10 11/12/11
f 11/12/11 12/11/10 13/13/12
f 12/11/10 14/14/12 13/13/12
f 13/13/12 14/14/12 16/15/13
f 13/13/12 16/15/13 15/16/14
f 15/16/14 16/15/13 1/17/1
f 16/15/13 2/18/2 1/17/1
# 16 triangles in group

g Box01
usemtl Material01
f 17/19/15 14/20/16 10/21/17
f 14/20/16 12/22/18 10/21/17
f 10/21/17 6/23/19 18/24/20
f 10/21/17 18/24/20 17/19/15
f 18/24/20 6/23/19 4/25/21
f 17/19/15 18/24/20 4/25/21
f 14/20/16 17/19/15 4/26/22
f 14/20/16 4/26/22 2/27/23
f 14/20/16 2/27/23 16/28/24
f 10/21/17 8/29/25 6/23/19
# 10 triangles in group

# 26 triangles total

