# Wavefront OBJ exported by MilkShape 3D

mtllib table.mtl

v -10.625000 14.527777 10.555554
v -10.625000 12.527777 10.472220
v 10.625000 14.527777 10.555554
v 10.625000 12.527777 10.472220
v 10.625000 14.527777 -10.694446
v 10.625000 12.527777 -10.777780
v -10.625000 14.527777 -10.694446
v -10.625000 12.527777 -10.777780
v -12.193185 13.361111 -8.840777
v -12.193185 -14.611113 -8.840777
v -8.806815 13.361111 -8.840777
v -8.806815 -14.611113 -8.840777
v -8.806815 13.361111 -11.964778
v -8.806815 -14.611113 -11.964778
v -12.193185 13.361111 -11.964778
v -12.193185 -14.611113 -11.964778
v -12.193185 13.361111 12.159223
v -12.193185 -14.611113 12.159223
v -8.806815 13.361111 12.159223
v -8.806815 -14.611113 12.159223
v -8.806815 13.361111 9.035222
v -8.806815 -14.611113 9.035222
v -12.193185 13.361111 9.035222
v -12.193185 -14.611113 9.035222
v 9.056815 13.361111 -8.840777
v 9.056815 -14.611113 -8.840777
v 12.443185 13.361111 -8.840777
v 12.443185 -14.611113 -8.840777
v 12.443185 13.361111 -11.964778
v 12.443185 -14.611113 -11.964778
v 9.056815 13.361111 -11.964778
v 9.056815 -14.611113 -11.964778
v 9.056815 13.361111 12.409223
v 9.056815 -14.611113 12.409223
v 12.443185 13.361111 12.409223
v 12.443185 -14.611113 12.409223
v 12.443185 13.361111 9.285222
v 12.443185 -14.611113 9.285222
v 9.056815 13.361111 9.285222
v 9.056815 -14.611113 9.285222
v 8.946026 11.757442 9.102906
v 9.022724 11.757442 -8.603534
v 12.889210 11.757442 12.796090
v 12.875000 11.444443 -12.217170
v 12.889210 14.881443 12.796090
v 12.818180 14.881443 -12.148990
v 8.946026 14.881443 9.102906
v 9.022724 14.881443 -8.603534
v -8.559652 11.757442 -8.840276
v -12.315336 11.757442 -12.283460
v -12.315336 14.881443 -12.283460
v -8.559652 14.881443 -8.840276
v -8.573851 11.757442 8.991166
v -12.301126 11.444443 12.729802
v -12.244307 14.881443 12.661622
v -8.573851 14.881443 8.991166
# 56 vertices

vt 0.000000 1.000000
vt 0.000000 0.000000
vt 1.000000 1.000000
vt 1.000000 0.000000
vt 2.005227 0.756472
vt 2.005227 0.033221
vt 2.198336 0.756472
vt 2.198336 0.033221
# 8 texture coordinates

vn 0.000000 -0.041631 0.999133
vn 1.000000 0.000000 0.000000
vn 0.000000 0.041631 -0.999133
vn -1.000000 0.000000 0.000000
vn 0.000000 1.000000 0.000000
vn 0.000000 -1.000000 0.000000
vn 0.000000 0.000000 1.000000
vn 0.000000 0.000000 -1.000000
vn 0.004332 -0.999476 -0.032091
vn -0.023512 -0.999193 0.032574
vn -0.018962 -0.999820 -0.000260
vn -0.027664 -0.998928 0.037102
vn 0.444385 0.008908 0.895792
vn 0.893979 0.016278 -0.447813
vn 0.894525 0.007439 0.446956
vn 0.449569 0.016263 -0.893098
vn -0.441867 0.000000 -0.897081
vn -0.897169 0.000000 0.441688
vn -0.892297 0.000000 -0.451448
vn -0.457583 0.000000 0.889167
vn 0.683591 0.000000 -0.729865
vn -0.683591 0.000000 0.729865
vn 0.682490 -0.003162 0.730888
vn -0.684152 0.003211 -0.729332
vn -0.682767 0.000049 -0.730636
vn 0.684019 0.000049 0.729464
vn -0.004538 -0.999448 0.032914
vn 0.019594 -0.999808 0.000357
vn -0.444385 0.008908 -0.895792
vn -0.894525 0.007439 -0.446956
vn 0.437393 0.000000 0.899270
vn 0.892942 0.000000 0.450172
vn 0.675775 0.000000 -0.737108
vn -0.675775 0.000000 0.737108
vn 0.023938 -0.999206 -0.031848
vn 0.028090 -0.998947 -0.036280
vn -0.893979 0.016278 0.447813
vn -0.449569 0.016263 0.893098
vn 0.895283 0.000000 -0.445499
vn 0.451910 0.000000 -0.892063
vn -0.707008 -0.002302 -0.707201
vn 0.708180 0.002337 0.706028
vn 0.707203 0.000036 0.707010
vn -0.708086 0.000036 -0.706127
# 44 normals

g Box01
usemtl Material01
s 1
f 1/1/1 2/2/1 3/3/1
f 2/2/1 4/4/1 3/3/1
s 2
f 3/1/2 4/2/2 5/3/2
f 4/2/2 6/4/2 5/3/2
s 1
f 5/1/3 6/2/3 7/3/3
f 6/2/3 8/4/3 7/3/3
s 2
f 7/1/4 8/2/4 1/3/4
f 8/2/4 2/4/4 1/3/4
s 3
f 7/1/5 1/2/5 5/3/5
f 1/2/5 3/4/5 5/3/5
f 2/1/6 8/2/6 4/3/6
f 8/2/6 6/4/6 4/3/6
# 12 triangles in group

g Box02
usemtl Material02
s 1
f 9/5/7 10/6/7 11/7/7
f 10/6/7 12/8/7 11/7/7
s 2
f 11/5/2 12/6/2 13/7/2
f 12/6/2 14/8/2 13/7/2
s 1
f 13/5/8 14/6/8 15/7/8
f 14/6/8 16/8/8 15/7/8
s 2
f 15/5/4 16/6/4 9/7/4
f 16/6/4 10/8/4 9/7/4
s 3
f 15/5/5 9/6/5 13/7/5
f 9/6/5 11/8/5 13/7/5
f 10/5/6 16/6/6 12/7/6
f 16/6/6 14/8/6 12/7/6
# 12 triangles in group

g Duplicate01
usemtl Material02
s 1
f 17/5/7 18/6/7 19/7/7
f 18/6/7 20/8/7 19/7/7
s 2
f 19/5/2 20/6/2 21/7/2
f 20/6/2 22/8/2 21/7/2
s 1
f 21/5/8 22/6/8 23/7/8
f 22/6/8 24/8/8 23/7/8
s 2
f 23/5/4 24/6/4 17/7/4
f 24/6/4 18/8/4 17/7/4
s 3
f 23/5/5 17/6/5 21/7/5
f 17/6/5 19/8/5 21/7/5
f 18/5/6 24/6/6 20/7/6
f 24/6/6 22/8/6 20/7/6
# 12 triangles in group

g Duplicate02
usemtl Material02
s 1
f 25/5/7 26/6/7 27/7/7
f 26/6/7 28/8/7 27/7/7
s 2
f 27/5/2 28/6/2 29/7/2
f 28/6/2 30/8/2 29/7/2
s 1
f 29/5/8 30/6/8 31/7/8
f 30/6/8 32/8/8 31/7/8
s 2
f 31/5/4 32/6/4 25/7/4
f 32/6/4 26/8/4 25/7/4
s 3
f 31/5/5 25/6/5 29/7/5
f 25/6/5 27/8/5 29/7/5
f 26/5/6 32/6/6 28/7/6
f 32/6/6 30/8/6 28/7/6
# 12 triangles in group

g Duplicate03
usemtl Material02
s 1
f 33/5/7 34/6/7 35/7/7
f 34/6/7 36/8/7 35/7/7
s 2
f 35/5/2 36/6/2 37/7/2
f 36/6/2 38/8/2 37/7/2
s 1
f 37/5/8 38/6/8 39/7/8
f 38/6/8 40/8/8 39/7/8
s 2
f 39/5/4 40/6/4 33/7/4
f 40/6/4 34/8/4 33/7/4
s 3
f 39/5/5 33/6/5 37/7/5
f 33/6/5 35/8/5 37/7/5
f 34/5/6 40/6/6 36/7/6
f 40/6/6 38/8/6 36/7/6
# 12 triangles in group

g Duplicate08
usemtl Material02
s 1
f 41/5/9 42/6/10 43/7/11
f 42/6/10 44/8/12 43/7/11
s 2
f 43/5/13 44/6/14 45/7/15
f 44/6/14 46/8/16 45/7/15
s 1
f 45/5/5 46/6/5 47/7/5
f 46/6/5 48/8/5 47/7/5
s 2
f 47/5/17 48/6/18 41/7/19
f 48/6/18 42/8/20 41/7/19
s 3
f 47/5/21 41/6/22 45/7/22
f 41/6/22 43/8/21 45/7/22
f 42/5/23 48/6/24 44/7/25
f 48/6/24 46/8/26 44/7/25
s 1
f 42/5/10 49/6/27 44/7/12
f 49/6/27 50/8/28 44/7/12
s 2
f 44/5/14 50/6/29 46/7/16
f 50/6/29 51/8/30 46/7/16
s 1
f 46/5/5 51/6/5 48/7/5
f 51/6/5 52/8/5 48/7/5
s 2
f 48/5/18 52/6/31 42/7/20
f 52/6/31 49/8/32 42/7/20
s 3
f 48/5/24 42/6/23 46/7/26
f 42/6/23 44/8/25 46/7/26
f 49/5/33 52/6/34 50/7/34
f 52/6/34 51/8/33 50/7/34
s 1
f 49/5/27 53/6/35 50/7/28
f 53/6/35 54/8/36 50/7/28
s 2
f 50/5/29 54/6/37 51/7/30
f 54/6/37 55/8/38 51/7/30
s 1
f 51/5/5 55/6/5 52/7/5
f 55/6/5 56/8/5 52/7/5
s 2
f 52/5/31 56/6/39 49/7/32
f 56/6/39 53/8/40 49/7/32
s 3
f 52/5/34 49/6/33 51/7/33
f 49/6/33 50/8/34 51/7/33
f 53/5/41 56/6/42 54/7/43
f 56/6/42 55/8/44 54/7/43
s 1
f 53/5/35 41/6/9 54/7/36
f 41/6/9 43/8/11 54/7/36
s 2
f 54/5/37 43/6/13 55/7/38
f 43/6/13 45/8/15 55/7/38
s 1
f 55/5/5 45/6/5 56/7/5
f 45/6/5 47/8/5 56/7/5
s 2
f 56/5/39 47/6/17 53/7/40
f 47/6/17 41/8/19 53/7/40
s 3
f 56/5/42 53/6/41 55/7/44
f 53/6/41 54/8/43 55/7/44
f 41/5/22 47/6/21 43/7/21
f 47/6/21 45/8/22 43/7/21
# 48 triangles in group

# 108 triangles total

