# Wavefront OBJ exported by MilkShape 3D

mtllib target.mtl

v -0.028844 -7.945661 -0.362322
v -0.028844 -7.945661 0.439248
v -4.107668 -6.891195 -0.362324
v -4.107668 -6.891193 0.439247
v -7.093576 -4.010331 -0.362324
v -7.093577 -4.010331 0.439247
v -8.186496 -0.074998 -0.362325
v -8.186493 -0.074999 0.439248
v -7.093576 3.860332 -0.362326
v -7.093576 3.860333 0.439247
v -4.107668 6.741193 -0.362326
v -4.107667 6.741192 0.439249
v -0.028844 7.795656 -0.362324
v -0.028844 7.795656 0.439247
v 4.049980 6.741193 -0.362326
v 4.049981 6.741192 0.439249
v 7.035887 3.860332 -0.362327
v 7.035889 3.860333 0.439247
v 8.128806 -0.074998 -0.362326
v 8.128808 -0.074999 0.439247
v 7.035887 -4.010331 -0.362325
v 7.035888 -4.010331 0.439247
v 4.049981 -6.891195 -0.362325
v 4.049980 -6.891193 0.439246
# 24 vertices

vt 1.000000 0.500000
vt 0.933013 0.250000
vt 0.750000 0.066987
vt 0.500000 0.000000
vt 0.250000 0.066987
vt 0.066987 0.250000
vt 0.000000 0.500000
vt 0.066987 0.750000
vt 0.250000 0.933013
vt 0.500000 1.000000
vt 0.750000 0.933013
vt 0.933013 0.750000
# 12 texture coordinates

vn -0.000000 -0.000000 -1.000000
vn 0.000000 -0.000000 1.000000
vn 0.000000 -1.000000 0.000000
vn -0.488386 -0.872628 0.000001
vn -0.859198 -0.511644 0.000001
vn -1.000000 0.000000 0.000001
vn -0.859197 0.511644 0.000000
vn -0.488385 0.872628 0.000000
vn 0.000000 1.000000 0.000001
vn 0.488385 0.872628 -0.000001
vn 0.859197 0.511644 -0.000002
vn 1.000000 0.000000 -0.000002
vn 0.859198 -0.511644 -0.000001
vn 0.488386 -0.872628 0.000001
# 14 normals

g Cylinder04
usemtl Material01
s 2
f 1/1/1 3/2/1 5/3/1
f 2/1/2 6/3/2 4/2/2
f 1/1/1 5/3/1 7/4/1
f 2/1/2 8/4/2 6/3/2
f 1/1/1 7/4/1 9/5/1
f 2/1/2 10/5/2 8/4/2
f 1/1/1 9/5/1 11/6/1
f 2/1/2 12/6/2 10/5/2
f 1/1/1 11/6/1 13/7/1
f 2/1/2 14/7/2 12/6/2
f 1/1/1 13/7/1 15/8/1
f 2/1/2 16/8/2 14/7/2
f 1/1/1 15/8/1 17/9/1
f 2/1/2 18/9/2 16/8/2
f 1/1/1 17/9/1 19/10/1
f 2/1/2 20/10/2 18/9/2
f 1/1/1 19/10/1 21/11/1
f 2/1/2 22/11/2 20/10/2
f 1/1/1 21/11/1 23/12/1
f 2/1/2 24/12/2 22/11/2
s 1
f 1/1/3 2/1/3 3/2/4
f 2/1/3 4/2/4 3/2/4
f 3/2/4 4/2/4 6/3/5
f 3/2/4 6/3/5 5/3/5
f 5/3/5 6/3/5 7/4/6
f 6/3/5 8/4/6 7/4/6
f 7/4/6 8/4/6 10/5/7
f 7/4/6 10/5/7 9/5/7
f 9/5/7 10/5/7 11/6/8
f 10/5/7 12/6/8 11/6/8
f 11/6/8 12/6/8 14/7/9
f 11/6/8 14/7/9 13/7/9
f 13/7/9 14/7/9 15/8/10
f 14/7/9 16/8/10 15/8/10
f 15/8/10 16/8/10 18/9/11
f 15/8/10 18/9/11 17/9/11
f 17/9/11 18/9/11 19/10/12
f 18/9/11 20/10/12 19/10/12
f 19/10/12 20/10/12 22/11/13
f 19/10/12 22/11/13 21/11/13
f 21/11/13 22/11/13 23/12/14
f 22/11/13 24/12/14 23/12/14
f 23/12/14 24/12/14 2/1/3
f 23/12/14 2/1/3 1/1/3
# 44 triangles in group

# 44 triangles total

