# Wavefront OBJ exported by MilkShape 3D

mtllib tent.mtl

v -0.543961 24.786263 -16.754377
v -0.543961 -21.735643 -10.041030
v 0.543961 24.786263 -16.754377
v 0.543961 -21.735643 -10.041030
v 0.543961 24.786263 -16.754377
v 0.543961 -21.735643 -10.041030
v 0.543961 24.786263 -17.495623
v 0.543961 -21.735643 -10.510736
v 0.543961 24.786263 -17.495623
v 0.543961 -21.735643 -10.510736
v -0.543961 24.786263 -17.495623
v -0.543961 -21.735643 -10.510736
v -0.543961 24.786263 -17.495623
v -0.543961 -21.735643 -10.510736
v -0.543961 24.786263 -16.754377
v -0.543961 -21.735643 -10.041030
v -0.543961 24.786263 -16.754377
v 0.543961 24.786263 -16.754377
v -0.543961 -21.735643 -10.041030
v 0.543961 -21.735643 -10.041030
v -0.793962 25.041481 20.346102
v -0.793962 -20.217098 13.547710
v 0.293962 25.041481 20.346102
v 0.293962 -20.217098 13.547710
v 0.293962 25.041481 20.346102
v 0.293962 -20.217098 13.547710
v 0.293962 25.041481 19.653898
v 0.293962 -20.217098 13.109080
v 0.293962 25.041481 19.653898
v 0.293962 -20.217098 13.109080
v -0.793962 25.041481 19.653898
v -0.793962 -20.217098 13.109080
v -0.793962 25.041481 19.653898
v -0.793962 -20.217098 13.109080
v -0.793962 25.041481 20.346102
v -0.793962 -20.217098 13.547710
v -0.793962 25.041481 20.346102
v 0.293962 25.041481 20.346102
v -0.793962 -20.217098 13.547710
v 0.293962 -20.217098 13.547710
v 23.696056 -1.149967 -18.026434
v 15.609035 3.172707 -18.026434
v 15.609035 3.172707 21.276442
v 23.696056 -1.149967 21.276442
v 9.022023 10.745341 -17.651434
v 9.022023 10.620341 20.901442
v 4.404874 17.242321 -18.026434
v 4.404874 16.548483 21.096167
v -10.211119 10.029105 -17.651434
v -10.211119 9.904105 20.901442
v -5.029722 15.728798 21.081858
v -5.029722 16.539755 -18.026434
v -16.377445 3.806294 -18.026434
v -16.377445 3.806294 21.276442
v -25.293793 -0.916519 -18.026434
v -25.293793 -0.916519 21.276442
v -2.872130 20.962826 21.526670
v -2.354847 20.041668 8.785713
v -2.872130 18.916668 -0.071428
v -2.561760 20.041668 -7.357143
v -2.561760 20.791668 -18.517855
v 0.000000 24.166668 -18.892855
v -0.714286 21.291668 -7.839286
v -0.428571 20.791668 0.482143
v 0.142857 21.416668 9.017857
v -0.285714 24.709534 22.280699
v 2.404158 20.957436 21.835363
v 1.990332 20.041668 8.928570
v 1.886875 18.916668 0.785713
v 1.783418 20.041668 -7.214285
v 2.300702 20.791668 -18.232138
v -23.983335 2.650906 -16.754377
v -14.903238 -16.823061 -10.575364
v -22.782650 3.041032 -16.754377
v -22.782650 3.041032 -16.754377
v -22.782650 3.041032 -17.495623
v -22.782650 3.041032 -17.495623
v -23.983335 2.650906 -17.495623
v -23.983335 2.650906 -17.495623
v -23.983335 2.650906 -16.754377
v -23.983335 2.650906 -16.754377
v -22.782650 3.041032 -16.754377
v -23.713827 2.544887 20.412550
v -14.226845 -16.302315 11.171082
v -22.882223 3.120492 19.656935
v -22.882223 3.120492 19.656935
v -23.338507 3.023505 19.080881
v -23.338507 3.023505 19.080881
v -24.170118 2.447899 19.836489
v -24.170118 2.447899 19.836489
v -23.713827 2.544887 20.412550
v -23.713827 2.544887 20.412550
v -22.882223 3.120492 19.656935
v 21.797125 2.295734 20.328636
v 12.378372 -15.646235 9.715427
v 22.915195 1.755144 20.101643
v 22.915195 1.755144 20.101643
v 22.971506 2.137261 19.468987
v 22.971506 2.137261 19.468987
v 21.853436 2.677855 19.695969
v 21.853436 2.677855 19.695969
v 21.797125 2.295734 20.328636
v 21.797125 2.295734 20.328636
v 22.915195 1.755144 20.101643
v 22.591805 2.545734 -15.936432
v 11.556030 -15.396235 -8.930767
v 22.780571 2.005144 -17.061588
v 22.780571 2.005144 -17.061588
v 22.210115 2.387261 -17.340885
v 22.210115 2.387261 -17.340885
v 22.021338 2.927855 -16.215733
v 22.021338 2.927855 -16.215733
v 22.591805 2.545734 -15.936432
v 22.591805 2.545734 -15.936432
v 22.780571 2.005144 -17.061588
v 23.696056 -1.316631 -18.026436
v 15.609035 3.006039 -18.026436
v 15.609035 3.006039 21.276436
v 23.696056 -1.316631 21.276436
v 9.022023 10.578672 -17.651436
v 9.022023 10.453672 20.901436
v 4.404874 17.075655 -18.026436
v 4.404874 16.381813 21.096161
v -10.211119 9.862436 -17.651436
v -10.211119 9.737436 20.901436
v -5.029722 15.562129 21.081852
v -5.029722 16.373085 -18.026436
v -16.377445 3.639627 -18.026436
v -16.377445 3.639627 21.276436
v -25.293793 -1.083183 -18.026436
v -25.293793 -1.083183 21.276436
v -2.872130 20.796158 21.526665
v -2.354847 19.875000 8.785714
v -2.872130 18.750000 -0.071429
v -2.561760 19.875000 -7.357143
v -2.561760 20.625000 -18.517857
v 0.000000 24.000000 -18.892857
v -0.714286 21.125000 -7.839286
v -0.428571 20.625000 0.482143
v 0.142857 21.250000 9.017858
v -0.285714 24.542868 22.280693
v 2.404158 20.790770 21.835360
v 1.990332 19.875000 8.928572
v 1.886875 18.750000 0.785714
v 1.783418 19.875000 -7.214285
v 2.300702 20.625000 -18.232141
# 146 vertices

vt 1.526059 1.019031
vt 1.526059 -0.011580
vt 1.674564 1.019031
vt 1.674564 -0.011580
vt 1.000000 0.997069
vt 0.906710 0.997069
vt 0.906710 0.007428
vt 1.000000 0.007428
vt 0.775778 0.997069
vt 0.775778 0.007428
vt 0.660978 0.997069
vt 0.660978 0.007428
vt 0.206124 0.997069
vt 0.206124 0.007428
vt 0.306497 0.007428
vt 0.306497 0.997069
vt 0.121884 0.997069
vt 0.121884 0.007428
vt 0.000000 0.997069
vt 0.000000 0.007428
vt 0.418084 0.010791
vt 0.433448 0.334532
vt 0.418084 0.557554
vt 0.427302 0.741007
vt 0.427302 1.000000
vt 0.501051 1.000000
vt 0.485687 0.737410
vt 0.491833 0.546763
vt 0.504124 0.338130
vt 0.494905 0.000000
vt 0.574800 0.003597
vt 0.562509 0.330935
vt 0.559436 0.535971
vt 0.556363 0.737410
vt 0.571727 0.992806
# 35 texture coordinates

vn 0.000000 0.142826 0.989748
vn 1.000000 0.000000 0.000000
vn 0.000000 -0.148478 -0.988916
vn -1.000000 0.000000 0.000000
vn 0.000000 1.000000 0.000000
vn 0.000000 -1.000000 0.000000
vn 0.000000 -0.148546 0.988906
vn 0.000000 0.143121 -0.989705
vn 0.471403 0.881918 0.000000
vn 0.623246 0.782025 0.000000
vn 0.621615 0.783322 0.000546
vn 0.777544 0.628818 0.003608
vn 0.769365 0.638807 0.002071
vn 0.792049 0.609051 0.041402
vn 0.822574 0.568298 -0.020231
vn -0.736486 0.676439 0.004350
vn -0.725506 0.688213 0.002231
vn -0.826827 0.562365 -0.010136
vn -0.827365 0.561119 0.024761
vn -0.596018 0.802971 0.000000
vn -0.593959 0.804495 0.000583
vn -0.468073 0.883690 0.000000
vn -0.760233 0.640190 -0.110469
vn -0.695759 0.716238 -0.054061
vn -0.760769 0.648882 0.013514
vn -0.717962 0.691633 0.078579
vn -0.829758 0.556868 0.037422
vn -0.038431 0.981317 0.188518
vn -0.069544 0.985298 0.156051
vn -0.095850 0.995225 0.018420
vn 0.160382 0.978589 -0.129005
vn 0.004542 0.970559 -0.240821
vn 0.782637 0.616399 -0.086784
vn 0.775732 0.625639 -0.082559
vn 0.720123 0.693623 -0.017596
vn 0.682521 0.723150 0.105915
vn 0.836822 0.542148 0.076193
vn -0.085995 0.264665 0.960498
vn 0.295408 -0.909170 0.293503
vn 0.929541 0.368718 0.000000
vn 0.395823 -0.918327 0.000000
vn 0.095377 -0.293539 -0.951177
vn -0.906321 -0.422589 0.000000
vn -0.309017 0.951056 0.000000
vn 0.679149 -0.017941 0.733781
vn 0.334882 -0.889886 -0.309768
vn 0.619427 0.529332 -0.579757
vn 0.504229 -0.823276 -0.260710
vn -0.668367 -0.010710 -0.743755
vn -0.591497 -0.574933 0.565317
vn -0.432639 0.880343 0.194471
vn -0.057729 -0.485653 0.872244
vn -0.461431 -0.769980 -0.440696
vn 0.885358 -0.428617 -0.180078
vn -0.434025 -0.753536 -0.493767
vn 0.042792 0.460727 -0.886510
vn -0.909340 0.386981 0.152795
vn 0.458158 0.742226 0.489072
vn 0.855505 -0.395893 0.333737
vn -0.481587 -0.818869 0.312295
vn 0.107580 -0.476979 -0.872306
vn -0.626058 -0.725261 0.286438
vn -0.871310 0.369018 -0.323488
vn -0.143543 0.435318 0.888760
vn 0.620777 0.742227 -0.252459
vn -0.621615 -0.783323 -0.000546
vn -0.623246 -0.782026 0.000000
vn -0.471402 -0.881918 0.000000
vn -0.769365 -0.638807 -0.002071
vn -0.777544 -0.628818 -0.003608
vn -0.822574 -0.568298 0.020231
vn -0.792049 -0.609051 -0.041402
vn 0.826827 -0.562365 0.010136
vn 0.725505 -0.688213 -0.002231
vn 0.736486 -0.676439 -0.004350
vn 0.827365 -0.561119 -0.024761
vn 0.593958 -0.804496 -0.000583
vn 0.596018 -0.802971 0.000000
vn 0.468073 -0.883690 0.000000
vn 0.695759 -0.716238 0.054061
vn 0.760233 -0.640190 0.110469
vn 0.760769 -0.648882 -0.013514
vn 0.829758 -0.556868 -0.037422
vn 0.717962 -0.691633 -0.078579
vn 0.038431 -0.981317 -0.188518
vn 0.069544 -0.985298 -0.156051
vn 0.095850 -0.995225 -0.018420
vn -0.160382 -0.978589 0.129005
vn -0.004542 -0.970559 0.240821
vn -0.782637 -0.616399 0.086784
vn -0.775732 -0.625639 0.082559
vn -0.720123 -0.693623 0.017596
vn -0.682521 -0.723150 -0.105915
vn -0.836822 -0.542148 -0.076193
# 94 normals

g Box01
usemtl Material01
s 1
f 1/1/1 2/2/1 3/3/1
f 2/2/1 4/4/1 3/3/1
s 2
f 5/1/2 6/2/2 7/3/2
f 6/2/2 8/4/2 7/3/2
s 1
f 9/1/3 10/2/3 11/3/3
f 10/2/3 12/4/3 11/3/3
s 2
f 13/1/4 14/2/4 15/3/4
f 14/2/4 16/4/4 15/3/4
s 3
f 13/1/5 17/2/5 7/3/5
f 17/2/5 18/4/5 7/3/5
f 19/1/6 14/2/6 20/3/6
f 14/2/6 8/4/6 20/3/6
# 12 triangles in group

g Duplicate01
usemtl Material01
s 1
f 21/1/7 22/2/7 23/3/7
f 22/2/7 24/4/7 23/3/7
s 2
f 25/1/2 26/2/2 27/3/2
f 26/2/2 28/4/2 27/3/2
s 1
f 29/1/8 30/2/8 31/3/8
f 30/2/8 32/4/8 31/3/8
s 2
f 33/1/4 34/2/4 35/3/4
f 34/2/4 36/4/4 35/3/4
s 3
f 33/1/5 37/2/5 27/3/5
f 37/2/5 38/4/5 27/3/5
f 39/1/6 34/2/6 40/3/6
f 34/2/6 28/4/6 40/3/6
# 12 triangles in group

g Duplicate02
usemtl Material02
s 1
f 41/5/9 42/6/10 43/7/11
f 41/5/9 43/7/11 44/8/9
f 45/9/12 46/10/13 43/7/11
f 45/9/12 43/7/11 42/6/10
f 45/9/12 47/11/14 48/12/15
f 45/9/12 48/12/15 46/10/13
f 49/13/16 50/14/17 51/15/18
f 49/13/16 51/15/18 52/16/19
f 49/13/16 53/17/20 54/18/21
f 49/13/16 54/18/21 50/14/17
f 55/19/22 56/20/22 54/18/21
f 55/19/22 54/18/21 53/17/20
f 57/21/23 58/22/24 51/15/18
f 58/22/24 59/23/25 51/15/18
f 60/24/26 61/25/27 52/16/19
f 59/23/25 60/24/26 52/16/19
f 59/23/25 52/16/19 51/15/18
f 62/26/28 61/25/27 60/24/26
f 63/27/29 62/26/28 60/24/26
f 64/28/30 63/27/29 60/24/26
f 64/28/30 60/24/26 59/23/25
f 64/28/30 59/23/25 58/22/24
f 65/29/31 64/28/30 58/22/24
f 65/29/31 58/22/24 57/21/23
f 66/30/32 65/29/31 57/21/23
f 65/29/31 66/30/32 67/31/33
f 68/32/34 65/29/31 67/31/33
f 69/33/35 65/29/31 68/32/34
f 64/28/30 65/29/31 69/33/35
f 70/34/36 63/27/29 64/28/30
f 70/34/36 64/28/30 69/33/35
f 62/26/28 63/27/29 70/34/36
f 71/35/37 62/26/28 70/34/36
f 68/32/34 67/31/33 48/12/15
f 48/12/15 69/33/35 68/32/34
f 69/33/35 48/12/15 47/11/14
f 47/11/14 70/34/36 69/33/35
f 47/11/14 71/35/37 70/34/36
# 38 triangles in group

g Duplicate03
usemtl Material01
f 72/1/38 73/2/39 74/3/38
s 2
f 75/1/40 73/2/41 76/3/40
s 1
f 77/1/42 73/2/39 78/3/42
s 2
f 79/1/43 73/2/41 80/3/43
s 3
f 79/1/44 81/2/44 76/3/44
f 81/2/44 82/4/44 76/3/44
# 6 triangles in group

g Duplicate04
usemtl Material01
s 1
f 83/1/45 84/2/46 85/3/45
s 2
f 86/1/47 84/2/48 87/3/47
s 1
f 88/1/49 84/2/46 89/3/49
s 2
f 90/1/50 84/2/48 91/3/50
s 3
f 90/1/51 92/2/51 87/3/51
f 92/2/51 93/4/51 87/3/51
# 6 triangles in group

g Duplicate05
usemtl Material01
s 1
f 94/1/52 95/2/53 96/3/52
s 2
f 97/1/54 95/2/55 98/3/54
s 1
f 99/1/56 95/2/53 100/3/56
s 2
f 101/1/57 95/2/55 102/3/57
s 3
f 101/1/58 103/2/58 98/3/58
f 103/2/58 104/4/58 98/3/58
# 6 triangles in group

g Duplicate06
usemtl Material01
s 1
f 105/1/59 106/2/60 107/3/59
s 2
f 108/1/61 106/2/62 109/3/61
s 1
f 110/1/63 106/2/60 111/3/63
s 2
f 112/1/64 106/2/62 113/3/64
s 3
f 112/1/65 114/2/65 109/3/65
f 114/2/65 115/4/65 109/3/65
# 6 triangles in group

g Duplicate01
usemtl Material02
s 1
f 118/7/66 117/6/67 116/5/68
f 119/8/68 118/7/66 116/5/68
f 118/7/66 121/10/69 120/9/70
f 117/6/67 118/7/66 120/9/70
f 123/12/71 122/11/72 120/9/70
f 121/10/69 123/12/71 120/9/70
f 126/15/73 125/14/74 124/13/75
f 127/16/76 126/15/73 124/13/75
f 129/18/77 128/17/78 124/13/75
f 125/14/74 129/18/77 124/13/75
f 129/18/77 131/20/79 130/19/79
f 128/17/78 129/18/77 130/19/79
f 126/15/73 133/22/80 132/21/81
f 126/15/73 134/23/82 133/22/80
f 127/16/76 136/25/83 135/24/84
f 127/16/76 135/24/84 134/23/82
f 126/15/73 127/16/76 134/23/82
f 135/24/84 136/25/83 137/26/85
f 135/24/84 137/26/85 138/27/86
f 135/24/84 138/27/86 139/28/87
f 134/23/82 135/24/84 139/28/87
f 133/22/80 134/23/82 139/28/87
f 133/22/80 139/28/87 140/29/88
f 132/21/81 133/22/80 140/29/88
f 132/21/81 140/29/88 141/30/89
f 142/31/90 141/30/89 140/29/88
f 142/31/90 140/29/88 143/32/91
f 143/32/91 140/29/88 144/33/92
f 144/33/92 140/29/88 139/28/87
f 139/28/87 138/27/86 145/34/93
f 144/33/92 139/28/87 145/34/93
f 145/34/93 138/27/86 137/26/85
f 145/34/93 137/26/85 146/35/94
f 123/12/71 142/31/90 143/32/91
f 143/32/91 144/33/92 123/12/71
f 122/11/72 123/12/71 144/33/92
f 144/33/92 145/34/93 122/11/72
f 145/34/93 146/35/94 122/11/72
# 38 triangles in group

# 124 triangles total

