# Wavefront OBJ exported by MilkShape 3D

mtllib tooth.mtl

v 1.939619 3.097401 10.150564
v 0.195172 2.231506 3.594419
v -0.490069 1.491601 -3.954862
v 0.815072 0.058423 -14.080659
v -1.103655 0.525283 11.318479
v -1.849833 0.347497 4.282150
v -1.898510 0.326056 -4.134061
v 1.449537 -2.559299 10.219442
v -0.163179 -1.866952 3.606933
v -0.713617 -1.065120 -3.947056
v 4.492811 0.012818 9.051522
v 1.881817 0.017057 2.919200
v 0.694827 0.100424 -3.767861
# 13 vertices

vt -0.062500 1.062500
vt -0.062500 0.062500
vt -0.062500 0.395833
vt 0.187500 0.062500
vt 0.187500 0.395833
vt -0.062500 0.729167
vt 0.187500 0.729167
vt 0.437500 0.395833
vt 0.437500 0.062500
vt 0.437500 0.729167
vt 0.437500 1.062500
vt 0.687500 0.062500
vt 0.687500 0.395833
vt 0.687500 0.729167
vt 0.937500 0.395833
vt 0.937500 0.062500
vt 0.937500 0.729167
vt 0.937500 1.062500
# 18 texture coordinates

vn 0.373695 -0.021085 0.927312
vn 0.042407 0.988972 -0.141901
vn 0.057755 0.989832 -0.129990
vn -0.989797 0.083767 0.115259
vn -0.994889 0.085322 0.053999
vn 0.096771 0.988544 -0.115824
vn -0.991932 0.086447 -0.092722
vn 0.138510 -0.015134 -0.990245
vn -0.106824 -0.989827 -0.093970
vn -0.114972 -0.990483 -0.075666
vn -0.076314 -0.991022 -0.109780
vn 0.922533 -0.083386 -0.376801
vn 0.954996 -0.084759 -0.284250
vn 0.989443 -0.086867 -0.115999
# 14 normals

g Cylinder04
usemtl wood
s 2
f 1/1/1 5/1/1 8/1/1
f 1/1/1 8/1/1 11/1/1
s 1
f 1/2/2 2/3/3 5/4/4
f 2/3/3 6/5/5 5/4/4
f 2/3/3 3/6/6 7/7/7
f 2/3/3 7/7/7 6/5/5
f 3/6/6 4/1/8 7/7/7
f 5/4/4 6/5/5 9/8/9
f 5/4/4 9/8/9 8/9/10
f 6/5/5 7/7/7 9/8/9
f 7/7/7 10/10/11 9/8/9
f 7/7/7 4/11/8 10/10/11
f 8/9/10 9/8/9 11/12/12
f 9/8/9 12/13/13 11/12/12
f 9/8/9 10/10/11 13/14/14
f 9/8/9 13/14/14 12/13/13
f 10/10/11 4/11/8 13/14/14
f 11/12/12 12/13/13 2/15/3
f 11/12/12 2/15/3 1/16/2
f 12/13/13 13/14/14 2/15/3
f 13/14/14 3/17/6 2/15/3
f 13/14/14 4/18/8 3/17/6
# 22 triangles in group

# 22 triangles total

