# Wavefront OBJ exported by MilkShape 3D

mtllib torch02.mtl

v -2.418101 58.052727 0.145585
v -0.222221 -41.342140 0.300490
v -0.212037 58.052727 2.379831
v 1.973659 58.052727 0.006119
v -0.232406 58.052727 -2.228125
v -0.183138 56.767941 0.249220
v 3.253886 58.161583 0.249220
v 2.247205 58.161583 2.637592
v -0.183138 58.161583 3.626895
v -2.613483 58.161583 2.637592
v -3.620164 58.161583 0.249220
v -2.613483 58.161583 -2.139157
v -0.183138 58.161583 -3.128454
v 2.247205 58.161583 -2.139157
v 5.769961 61.969200 0.249220
v 4.026341 61.969200 4.386014
v -0.183138 61.969200 6.099529
v -4.392617 61.969200 4.386014
v -6.136240 61.969200 0.249220
v -4.392617 61.969200 -3.887570
v -0.183138 61.969200 -5.601081
v 4.026341 61.969200 -3.887570
v 6.690914 70.302231 0.325870
v -0.183138 70.302231 7.081226
v -7.057189 70.302231 0.325870
v -0.183138 70.302231 -6.429478
# 26 vertices

vt 0.363586 0.655439
vt 0.363586 0.493613
vt 0.515088 0.655439
vt 0.515088 0.493613
vt 0.000000 0.000000
vt 0.000000 0.166667
vt 0.125000 0.166667
vt 0.125000 0.000000
vt 0.250000 0.166667
vt 0.250000 0.000000
vt 0.375000 0.166667
vt 0.375000 0.000000
vt 0.500000 0.166667
vt 0.500000 0.000000
vt 0.625000 0.166667
vt 0.625000 0.000000
vt 0.750000 0.166667
vt 0.750000 0.000000
vt 0.875000 0.166667
vt 0.875000 0.000000
vt 1.000000 0.166667
vt 0.000000 0.333333
vt 0.125000 0.333333
vt 0.250000 0.333333
vt 0.375000 0.333333
vt 0.500000 0.333333
vt 0.625000 0.333333
vt 0.750000 0.333333
vt 0.875000 0.333333
vt 1.000000 0.333333
vt 0.000000 0.500000
vt 0.250000 0.500000
vt 0.500000 0.500000
vt 0.750000 0.500000
vt 1.000000 0.500000
# 35 texture coordinates

vn -0.711504 -0.014624 0.702530
vn -0.001138 -0.999999 0.001107
vn 0.735566 -0.014245 0.677304
vn 0.001130 -0.999999 0.001033
vn 0.711467 -0.017799 -0.702494
vn -0.735530 -0.017305 -0.677271
vn 0.000000 1.000000 0.000000
vn 0.000000 -1.000000 0.000000
vn 0.705250 -0.708959 0.000000
vn 0.442817 -0.775893 0.449336
vn 0.000000 -0.703481 0.710714
vn -0.442817 -0.775893 0.449336
vn -0.705250 -0.708959 0.000000
vn -0.442817 -0.775893 -0.449337
vn 0.000000 -0.703480 -0.710715
vn 0.442817 -0.775893 -0.449337
vn 0.939467 -0.342639 -0.000077
vn 0.638906 -0.415626 0.647344
vn -0.000000 -0.341965 0.939713
vn -0.638906 -0.415626 0.647344
vn -0.939467 -0.342639 -0.000077
vn -0.640054 -0.411878 -0.648604
vn -0.000000 -0.333533 -0.942738
vn 0.640054 -0.411879 -0.648604
vn 0.993948 -0.109848 -0.000151
vn -0.000000 -0.116999 0.993132
vn -0.993948 -0.109848 -0.000151
vn -0.000000 -0.098924 -0.995095
# 28 normals

g Box01
usemtl wood
s 1
f 1/1/1 2/2/2 3/3/1
s 2
f 3/1/3 2/2/4 4/3/3
s 1
f 4/1/5 2/2/2 5/3/5
s 2
f 5/1/6 2/2/4 1/3/6
s 3
f 5/1/7 1/2/7 4/3/7
f 1/2/7 3/4/7 4/3/7
# 6 triangles in group

g Sphere04
usemtl iron
s 1
f 6/5/8 7/6/9 8/7/10
f 6/8/8 8/7/10 9/9/11
f 6/10/8 9/9/11 10/11/12
f 6/12/8 10/11/12 11/13/13
f 6/14/8 11/13/13 12/15/14
f 6/16/8 12/15/14 13/17/15
f 6/18/8 13/17/15 14/19/16
f 6/20/8 14/19/16 7/21/9
f 7/6/9 15/22/17 16/23/18
f 7/6/9 16/23/18 8/7/10
f 8/7/10 16/23/18 9/9/11
f 16/23/18 17/24/19 9/9/11
f 9/9/11 17/24/19 18/25/20
f 9/9/11 18/25/20 10/11/12
f 10/11/12 18/25/20 11/13/13
f 18/25/20 19/26/21 11/13/13
f 11/13/13 19/26/21 20/27/22
f 11/13/13 20/27/22 12/15/14
f 12/15/14 20/27/22 13/17/15
f 20/27/22 21/28/23 13/17/15
f 13/17/15 21/28/23 22/29/24
f 13/17/15 22/29/24 14/19/16
f 14/19/16 22/29/24 7/21/9
f 22/29/24 15/30/17 7/21/9
f 15/22/17 23/31/25 16/23/18
f 16/23/18 24/32/26 17/24/19
f 17/24/19 24/32/26 18/25/20
f 18/25/20 25/33/27 19/26/21
f 19/26/21 25/33/27 20/27/22
f 20/27/22 26/34/28 21/28/23
f 21/28/23 26/34/28 22/29/24
f 22/29/24 23/35/25 15/30/17
# 32 triangles in group

# 38 triangles total

