# Wavefront OBJ exported by MilkShape 3D

mtllib tree07.mtl

v 37.664509 -33.833344 1.500000
v 16.929918 16.333328 1.500000
v 12.996387 55.500000 2.500000
v 12.455413 91.666664 -11.500000
v 15.789845 136.833328 -34.500000
v 4.000000 194.000000 -37.500000
v 30.471228 -33.833344 23.915373
v 13.696589 16.333328 11.323419
v 10.514302 58.105103 10.074144
v 10.840572 94.977821 -7.779166
v 14.875066 136.833328 -32.053841
v 11.638973 -33.833344 37.768837
v 5.231632 16.333328 17.394627
v 4.016107 59.715149 14.755222
v 6.612866 97.024223 -5.479568
v 12.480143 136.833328 -30.542038
v -11.638973 -33.833344 37.768837
v -5.231632 16.333328 17.394627
v -4.016107 59.715149 14.755222
v 1.387134 97.024223 -5.479568
v 9.519857 136.833328 -30.542038
v -30.471228 -33.833344 23.915373
v -13.696589 16.333328 11.323419
v -10.514302 58.105103 10.074144
v -2.840572 94.977821 -7.779166
v 7.124935 136.833328 -32.053841
v -37.664509 -33.833344 1.500000
v -16.929918 16.333328 1.500000
v -12.996387 55.500000 2.500000
v -4.455413 91.666664 -11.500000
v 6.210155 136.833328 -34.500000
v -30.471228 -33.833344 -20.915373
v -13.696589 16.333328 -8.323419
v -10.514302 52.894897 -5.074144
v -2.840572 88.355507 -15.220833
v 7.124935 136.833328 -36.946159
v -11.638973 -33.833344 -34.768837
v -5.231632 16.333328 -14.394627
v -4.016107 51.284851 -9.755223
v 1.387134 86.309105 -17.520432
v 9.519857 136.833328 -38.457962
v 11.638973 -33.833344 -34.768837
v 5.231632 16.333328 -14.394627
v 4.016107 51.284851 -9.755223
v 6.612866 86.309105 -17.520432
v 12.480143 136.833328 -38.457962
v 30.471228 -33.833344 -20.915373
v 13.696589 16.333328 -8.323419
v 10.514302 52.894897 -5.074144
v 10.840572 88.355507 -15.220833
v 14.875066 136.833328 -36.946159
v -4.108767 57.321823 11.767807
v 8.502426 106.540039 44.040848
v 8.597702 160.655838 52.251831
v -7.123563 60.960434 9.512232
v 6.753284 106.807495 42.120049
v -7.536816 64.153488 5.391172
v 6.493668 107.507706 39.388107
v -5.190680 65.681343 0.978737
v 7.822712 108.373199 36.888535
v -0.981304 64.960419 -2.039677
v 10.232773 109.073410 35.576096
v 3.483482 62.266068 -2.511135
v 12.803307 109.340866 35.952087
v 6.498276 58.627464 -0.255566
v 14.552437 109.073425 37.872902
v 6.911533 55.434418 3.865488
v 14.812065 108.373215 40.604843
v 4.565399 53.906563 8.277924
v 13.483017 107.507706 43.104408
v 0.356020 54.627487 11.296341
v 11.072952 106.807495 44.416855
v -0.418456 92.321823 -16.059164
v -33.430264 136.540039 -0.066721
v -36.816952 172.655838 2.278766
v 1.444973 95.960434 -17.726992
v -31.923386 136.807495 -0.981186
v 4.351551 99.153488 -17.624414
v -29.997953 137.507706 -0.904322
v 7.191062 100.681343 -15.790613
v -28.389418 138.373199 0.134495
v 8.878909 99.960419 -12.926041
v -27.712196 139.073410 1.738472
v 8.770394 97.266068 -10.124858
v -28.224955 139.340866 3.294960
v 6.906972 93.627464 -8.457030
v -29.731842 139.073425 4.209415
v 4.000395 90.434418 -8.559604
v -31.657272 138.373215 4.132559
v 1.160883 88.906563 -10.393405
v -33.265808 137.507706 3.093740
v -0.526968 89.627487 -13.257980
v -33.943035 136.807495 1.489758
v -0.000001 201.000000 -39.005386
v 67.640892 181.497421 -39.198929
v 20.902185 181.497421 19.214264
v -54.722630 181.497421 -3.097534
v -54.722630 173.497421 -70.300301
v 20.902185 173.497421 -92.612144
v -38.500000 180.585770 5.101971
v 29.140888 165.580261 -0.020400
v -17.597815 156.442413 57.673634
v -93.222626 159.932755 35.636536
v -93.222626 171.227783 -35.677296
v -17.597815 174.718109 -57.714455
v 9.727154 172.507660 53.100037
v 71.790649 134.042923 44.480339
v 30.557470 140.918945 106.521935
v -43.985092 161.168182 90.700882
v -48.821754 166.806885 18.881306
v 22.731588 150.042542 -9.684536
v 0.066401 190.756378 0.898507
v 42.792866 156.418243 -80.631363
v 77.589005 154.213135 11.540032
v 1.824767 152.468231 84.474876
v -79.796379 153.594940 37.379585
v -54.476658 156.036194 -64.661682
v -45.933598 171.002258 56.054276
v -3.207134 166.619827 -32.303070
v 31.589005 133.023209 53.555519
v -44.175232 106.438354 121.495071
v -125.796387 123.604645 77.625313
v -100.476654 160.798843 -17.427155
v -36.251762 172.867310 -64.299088
v 54.249809 151.550949 -96.030228
v 23.969995 163.836197 -3.060261
v -77.508179 140.035248 11.027287
v -109.945381 113.040131 -73.236305
v -28.514450 120.157242 -139.401413
v 66.977104 168.872284 -13.407921
v 59.126190 148.553864 -109.206207
v 128.597778 118.086960 -46.304092
v 94.707794 111.716003 53.062134
v 4.290833 138.245468 51.571671
v -17.699738 161.012497 -48.715637
v 28.145012 161.872284 67.156525
v 73.305466 141.553864 36.401833
v 69.315948 111.086960 106.962715
v 5.701599 104.716003 105.946106
v -29.624775 131.245468 34.756729
v 12.156715 154.012497 -8.223938
# 141 vertices

vt -3.679435 -0.663512
vt -3.679435 0.157472
vt -3.268153 -0.663512
vt -3.268153 0.157472
vt -3.679435 0.978460
vt -3.268153 0.978460
vt -3.679435 1.799447
vt -3.268153 1.799447
vt -3.679435 2.620434
vt -3.268153 2.620434
vt -3.679435 3.441421
vt -2.856872 0.157472
vt -2.856872 -0.663512
vt -2.856872 0.978460
vt -2.856872 1.799447
vt -2.856872 2.620434
vt -2.856872 3.441421
vt -2.445592 -0.663512
vt -2.445592 0.157472
vt -2.445592 0.978460
vt -2.445592 1.799447
vt -2.445592 2.620434
vt -2.034310 0.157472
vt -2.034310 -0.663512
vt -2.034310 0.978460
vt -2.034310 1.799447
vt -2.034310 2.620434
vt -2.034310 3.441421
vt -1.623031 -0.663512
vt -1.623031 0.157472
vt -1.623031 0.978460
vt -1.623031 1.799447
vt -1.623031 2.620434
vt -1.211749 0.157472
vt -1.211749 -0.663512
vt -1.211749 0.978460
vt -1.211749 1.799447
vt -1.211749 2.620434
vt -1.211749 3.441421
vt -0.800468 -0.663512
vt -0.800468 0.157472
vt -0.800468 0.978460
vt -0.800468 1.799447
vt -0.800468 2.620434
vt -0.389187 0.157472
vt -0.389187 -0.663512
vt -0.389187 0.978460
vt -0.389187 1.799447
vt -0.389187 2.620434
vt -0.389187 3.441421
vt 0.022091 -0.663512
vt 0.022091 0.157472
vt 0.022091 0.978460
vt 0.022091 1.799447
vt 0.022091 2.620434
vt 0.433375 0.157472
vt 0.433375 -0.663512
vt 0.433375 0.978460
vt 0.433375 1.799447
vt 0.433375 2.620434
vt 0.433375 3.441421
vt -0.406523 0.205460
vt -0.406523 0.762765
vt -0.230225 0.762765
vt -0.230225 0.205460
vt -0.406523 1.320071
vt -0.053926 0.205460
vt -0.053926 0.762765
vt -0.053926 1.320071
vt 0.122372 0.762765
vt 0.122372 0.205460
vt 0.298670 0.205460
vt 0.298670 0.762765
vt 0.298670 1.320071
vt 0.474969 0.762765
vt 0.474969 0.205460
vt 0.651267 0.205460
vt 0.651267 0.762765
vt 0.651267 1.320071
vt 0.827566 0.762765
vt 0.827566 0.205460
vt 1.003864 0.205460
vt 1.003864 0.762765
vt 1.003864 1.320071
vt 1.180162 0.762765
vt 1.180162 0.205460
vt 1.356461 0.205460
vt 1.356461 0.762765
vt 1.356461 1.320071
vt -0.554559 -0.641134
vt -0.554559 0.120241
vt -0.293248 0.120241
vt -0.293248 -0.641134
vt -0.554559 0.881617
vt -0.031939 -0.641134
vt -0.031939 0.120241
vt -0.031939 0.881617
vt 0.229371 0.120241
vt 0.229371 -0.641134
vt 0.490681 -0.641134
vt 0.490681 0.120241
vt 0.490681 0.881617
vt 0.751991 0.120241
vt 0.751991 -0.641134
vt 1.013300 -0.641134
vt 1.013300 0.120241
vt 1.013300 0.881617
vt 1.274609 0.120241
vt 1.274609 -0.641134
vt 1.535919 -0.641134
vt 1.535919 0.120241
vt 1.535919 0.881617
vt 1.797229 0.120241
vt 1.797229 -0.641134
vt 2.058538 -0.641134
vt 2.058538 0.120241
vt 2.058538 0.881617
vt 0.447214 0.500000
vt 0.145378 0.007813
vt 0.968750 0.027344
vt 0.003906 0.440983
vt 0.128906 0.992611
vt 0.961784 0.972656
# 123 texture coordinates

vn 0.924173 0.381974 0.000000
vn 0.969431 0.245243 -0.007695
vn 0.746479 0.385902 0.542078
vn 0.783352 0.235780 0.575123
vn 0.998223 0.056865 -0.017787
vn 0.812818 0.166017 0.558359
vn 0.999736 -0.022010 0.006660
vn 0.798251 0.249897 0.548039
vn 0.997745 0.067105 0.001583
vn 0.770804 0.241759 0.589418
vn -0.058199 0.997945 -0.026803
vn 0.300968 0.232683 0.924812
vn 0.287078 0.391691 0.874165
vn 0.321370 0.255110 0.911943
vn 0.293016 0.458357 0.839077
vn 0.266353 0.328158 0.906294
vn -0.284529 0.391189 0.875223
vn -0.297701 0.232883 0.925818
vn -0.317363 0.284193 0.904718
vn -0.308982 0.519731 0.796498
vn -0.281089 0.406143 0.869504
vn -0.787870 0.236562 0.568595
vn -0.749166 0.385675 0.538522
vn -0.819168 0.237433 0.522101
vn -0.778682 0.422442 0.463893
vn -0.753520 0.257249 0.605004
vn -0.923910 0.382611 0.000000
vn -0.969771 0.244015 0.000124
vn -0.987295 0.146355 -0.061870
vn -0.975766 0.167619 -0.140655
vn -0.991593 0.118700 -0.051520
vn -0.776350 0.256695 -0.575664
vn -0.749166 0.385675 -0.538522
vn -0.794238 0.062822 -0.604351
vn -0.772747 -0.067781 -0.631085
vn -0.774838 -0.083923 -0.626564
vn -0.284529 0.391189 -0.875223
vn -0.295117 0.266494 -0.917544
vn -0.298110 -0.017010 -0.954380
vn -0.278824 -0.248440 -0.927650
vn -0.281189 -0.226371 -0.932571
vn 0.293831 0.265090 -0.918363
vn 0.287078 0.391691 -0.874165
vn 0.310938 -0.045809 -0.949326
vn 0.292074 -0.315461 -0.902871
vn 0.273322 -0.174505 -0.945962
vn 0.746479 0.385902 -0.542078
vn 0.779203 0.256612 -0.571833
vn 0.806355 -0.024082 -0.590942
vn 0.798347 -0.237240 -0.553497
vn 0.789638 -0.165509 -0.590829
vn -0.468641 -0.395965 0.789675
vn -0.454147 -0.274751 0.847503
vn -0.907152 -0.033837 0.419440
vn -0.896780 -0.041858 0.440493
vn -0.087567 0.965703 0.244438
vn -0.938162 0.342399 -0.051137
vn -0.967973 0.220244 -0.120500
vn -0.698448 0.469961 -0.539729
vn -0.626992 0.604473 -0.491419
vn -0.145169 0.662788 -0.734600
vn -0.234144 0.491886 -0.838585
vn 0.473705 0.435465 -0.765489
vn 0.548678 0.461151 -0.697346
vn 0.917657 0.136989 -0.373013
vn 0.910597 0.175636 -0.374119
vn 0.981250 -0.126183 0.145692
vn 0.970820 -0.216484 0.103170
vn 0.699463 -0.468509 0.539676
vn 0.736826 -0.263257 0.622723
vn 0.187004 -0.422969 0.886638
vn 0.114181 -0.549003 0.827985
vn -0.719146 -0.308866 -0.622440
vn -0.773464 -0.187880 -0.605355
vn -0.322504 0.083354 -0.942891
vn -0.387644 0.060426 -0.919827
vn -0.259927 0.957724 -0.123295
vn 0.039742 0.427211 -0.903278
vn 0.160301 0.298848 -0.940741
vn 0.533639 0.525217 -0.662855
vn 0.479704 0.684675 -0.548730
vn 0.724456 0.688765 -0.027686
vn 0.848076 0.504647 -0.161553
vn 0.702404 0.333551 0.628786
vn 0.628786 0.328013 0.705008
vn 0.300839 -0.021748 0.953427
vn 0.255663 0.032245 0.966228
vn -0.176250 -0.223007 0.958751
vn -0.085709 -0.314085 0.945518
vn -0.518180 -0.551134 0.654019
vn -0.635663 -0.309417 0.707244
vn -0.899945 -0.432341 0.056398
vn -0.825405 -0.558171 -0.084574
vn -0.025684 0.995830 -0.087537
vn 0.085732 0.953587 0.288655
vn 0.276071 0.958238 -0.074602
vn -0.259328 0.957675 0.124931
vn -0.278894 0.908624 -0.310840
vn 0.056905 0.897133 -0.438080
vn 0.000000 0.986432 0.164170
vn 0.070919 0.916857 0.392866
vn 0.225232 0.961464 0.157663
vn -0.184343 0.935246 0.302212
vn -0.179996 0.983540 0.015839
vn 0.068191 0.995194 -0.070270
vn 0.242837 0.967889 0.064976
vn 0.345592 0.860583 0.374115
vn 0.529914 0.847361 0.034202
vn -0.003853 0.958911 0.283680
vn -0.027216 0.992546 -0.118788
vn 0.302106 0.915681 -0.265068
vn 0.008445 0.999469 0.031473
vn 0.409035 0.903984 0.124516
vn 0.191058 0.936430 -0.294273
vn 0.065675 0.907697 0.414454
vn -0.352881 0.920903 0.165566
vn -0.272021 0.925429 -0.263791
vn 0.008445 0.928429 0.371414
vn 0.409035 0.806880 0.426188
vn 0.191058 0.980603 0.043752
vn 0.065674 0.711205 0.699910
vn -0.352881 0.808739 0.470549
vn -0.272021 0.959841 0.068632
vn -0.248782 0.948579 -0.195717
vn 0.016898 0.991424 0.129591
vn 0.104255 0.937373 -0.332359
vn -0.420668 0.893189 0.158908
vn -0.584201 0.761532 -0.280674
vn -0.259479 0.777714 -0.572566
vn 0.286284 0.945136 0.157350
vn 0.646047 0.762589 0.032878
vn 0.284841 0.932711 -0.221168
vn 0.477871 0.754673 0.449565
vn 0.012968 0.899601 0.436520
vn -0.103176 0.994321 0.026098
vn -0.066625 0.922955 0.379097
vn 0.274259 0.721062 0.636279
vn 0.463592 0.880497 0.099032
vn -0.357238 0.616471 0.701672
vn -0.567331 0.774689 0.279272
vn -0.088367 0.992477 -0.084741
# 141 normals

g Cylinder03
usemtl wood
s 1
f 1/1/1 2/2/2 7/3/3
f 2/2/2 8/4/4 7/3/3
f 2/2/2 3/5/5 9/6/6
f 2/2/2 9/6/6 8/4/4
f 3/5/5 4/7/7 9/6/6
f 4/7/7 10/8/8 9/6/6
f 4/7/7 5/9/9 11/10/10
f 4/7/7 11/10/10 10/8/8
f 5/9/9 6/11/11 11/10/10
f 7/3/3 8/4/4 13/12/12
f 7/3/3 13/12/12 12/13/13
f 8/4/4 9/6/6 13/12/12
f 9/6/6 14/14/14 13/12/12
f 9/6/6 10/8/8 15/15/15
f 9/6/6 15/15/15 14/14/14
f 10/8/8 11/10/10 15/15/15
f 11/10/10 16/16/16 15/15/15
f 11/10/10 6/17/11 16/16/16
f 12/13/13 13/12/12 17/18/17
f 13/12/12 18/19/18 17/18/17
f 13/12/12 14/14/14 19/20/19
f 13/12/12 19/20/19 18/19/18
f 14/14/14 15/15/15 19/20/19
f 15/15/15 20/21/20 19/20/19
f 15/15/15 16/16/16 21/22/21
f 15/15/15 21/22/21 20/21/20
f 16/16/16 6/17/11 21/22/21
f 17/18/17 18/19/18 23/23/22
f 17/18/17 23/23/22 22/24/23
f 18/19/18 19/20/19 23/23/22
f 19/20/19 24/25/24 23/23/22
f 19/20/19 20/21/20 25/26/25
f 19/20/19 25/26/25 24/25/24
f 20/21/20 21/22/21 25/26/25
f 21/22/21 26/27/26 25/26/25
f 21/22/21 6/28/11 26/27/26
f 22/24/23 23/23/22 27/29/27
f 23/23/22 28/30/28 27/29/27
f 23/23/22 24/25/24 29/31/29
f 23/23/22 29/31/29 28/30/28
f 24/25/24 25/26/25 29/31/29
f 25/26/25 30/32/30 29/31/29
f 25/26/25 26/27/26 31/33/31
f 25/26/25 31/33/31 30/32/30
f 26/27/26 6/28/11 31/33/31
f 27/29/27 28/30/28 33/34/32
f 27/29/27 33/34/32 32/35/33
f 28/30/28 29/31/29 33/34/32
f 29/31/29 34/36/34 33/34/32
f 29/31/29 30/32/30 35/37/35
f 29/31/29 35/37/35 34/36/34
f 30/32/30 31/33/31 35/37/35
f 31/33/31 36/38/36 35/37/35
f 31/33/31 6/39/11 36/38/36
f 32/35/33 33/34/32 37/40/37
f 33/34/32 38/41/38 37/40/37
f 33/34/32 34/36/34 39/42/39
f 33/34/32 39/42/39 38/41/38
f 34/36/34 35/37/35 39/42/39
f 35/37/35 40/43/40 39/42/39
f 35/37/35 36/38/36 41/44/41
f 35/37/35 41/44/41 40/43/40
f 36/38/36 6/39/11 41/44/41
f 37/40/37 38/41/38 43/45/42
f 37/40/37 43/45/42 42/46/43
f 38/41/38 39/42/39 43/45/42
f 39/42/39 44/47/44 43/45/42
f 39/42/39 40/43/40 45/48/45
f 39/42/39 45/48/45 44/47/44
f 40/43/40 41/44/41 45/48/45
f 41/44/41 46/49/46 45/48/45
f 41/44/41 6/50/11 46/49/46
f 42/46/43 43/45/42 47/51/47
f 43/45/42 48/52/48 47/51/47
f 43/45/42 44/47/44 49/53/49
f 43/45/42 49/53/49 48/52/48
f 44/47/44 45/48/45 49/53/49
f 45/48/45 50/54/50 49/53/49
f 45/48/45 46/49/46 51/55/51
f 45/48/45 51/55/51 50/54/50
f 46/49/46 6/50/11 51/55/51
f 47/51/47 48/52/48 2/56/2
f 47/51/47 2/56/2 1/57/1
f 48/52/48 49/53/49 2/56/2
f 49/53/49 3/58/5 2/56/2
f 49/53/49 50/54/50 4/59/7
f 49/53/49 4/59/7 3/58/5
f 50/54/50 51/55/51 4/59/7
f 51/55/51 5/60/9 4/59/7
f 51/55/51 6/61/11 5/60/9
# 90 triangles in group

g Duplicate01
usemtl wood
f 52/62/52 53/63/53 56/64/54
f 52/62/52 56/64/54 55/65/55
f 53/63/53 54/66/56 56/64/54
f 55/65/55 56/64/54 57/67/57
f 56/64/54 58/68/58 57/67/57
f 56/64/54 54/69/56 58/68/58
f 57/67/57 58/68/58 60/70/59
f 57/67/57 60/70/59 59/71/60
f 58/68/58 54/69/56 60/70/59
f 59/71/60 60/70/59 61/72/61
f 60/70/59 62/73/62 61/72/61
f 60/70/59 54/74/56 62/73/62
f 61/72/61 62/73/62 64/75/63
f 61/72/61 64/75/63 63/76/64
f 62/73/62 54/74/56 64/75/63
f 63/76/64 64/75/63 65/77/65
f 64/75/63 66/78/66 65/77/65
f 64/75/63 54/79/56 66/78/66
f 65/77/65 66/78/66 68/80/67
f 65/77/65 68/80/67 67/81/68
f 66/78/66 54/79/56 68/80/67
f 67/81/68 68/80/67 69/82/69
f 68/80/67 70/83/70 69/82/69
f 68/80/67 54/84/56 70/83/70
f 69/82/69 70/83/70 72/85/71
f 69/82/69 72/85/71 71/86/72
f 70/83/70 54/84/56 72/85/71
f 71/86/72 72/85/71 52/87/52
f 72/85/71 53/88/53 52/87/52
f 72/85/71 54/89/56 53/88/53
# 30 triangles in group

g Duplicate02
usemtl wood
f 73/90/73 74/91/74 77/92/75
f 73/90/73 77/92/75 76/93/76
f 74/91/74 75/94/77 77/92/75
f 76/93/76 77/92/75 78/95/78
f 77/92/75 79/96/79 78/95/78
f 77/92/75 75/97/77 79/96/79
f 78/95/78 79/96/79 81/98/80
f 78/95/78 81/98/80 80/99/81
f 79/96/79 75/97/77 81/98/80
f 80/99/81 81/98/80 82/100/82
f 81/98/80 83/101/83 82/100/82
f 81/98/80 75/102/77 83/101/83
f 82/100/82 83/101/83 85/103/84
f 82/100/82 85/103/84 84/104/85
f 83/101/83 75/102/77 85/103/84
f 84/104/85 85/103/84 86/105/86
f 85/103/84 87/106/87 86/105/86
f 85/103/84 75/107/77 87/106/87
f 86/105/86 87/106/87 89/108/88
f 86/105/86 89/108/88 88/109/89
f 87/106/87 75/107/77 89/108/88
f 88/109/89 89/108/88 90/110/90
f 89/108/88 91/111/91 90/110/90
f 89/108/88 75/112/77 91/111/91
f 90/110/90 91/111/91 93/113/92
f 90/110/90 93/113/92 92/114/93
f 91/111/91 75/112/77 93/113/92
f 92/114/93 93/113/92 73/115/73
f 93/113/92 74/116/74 73/115/73
f 93/113/92 75/117/77 74/116/74
# 30 triangles in group

g Sphere02
usemtl leafes
f 94/118/94 96/119/95 95/120/96
f 94/118/94 97/121/97 96/119/95
f 94/118/94 98/122/98 97/121/97
f 94/118/94 99/123/99 98/122/98
f 94/118/94 95/120/96 99/123/99
# 5 triangles in group

g Duplicate03
usemtl leafes
f 100/118/100 102/119/101 101/120/102
f 100/118/100 103/121/103 102/119/101
f 100/118/100 104/122/104 103/121/103
f 100/118/100 105/123/105 104/122/104
f 100/118/100 101/120/102 105/123/105
# 5 triangles in group

g Duplicate04
usemtl leafes
f 106/118/106 108/119/107 107/120/108
f 106/118/106 109/121/109 108/119/107
f 106/118/106 110/122/110 109/121/109
f 106/118/106 111/123/111 110/122/110
f 106/118/106 107/120/108 111/123/111
# 5 triangles in group

g Duplicate05
usemtl leafes
f 112/118/112 114/119/113 113/120/114
f 112/118/112 115/121/115 114/119/113
f 112/118/112 116/122/116 115/121/115
f 112/118/112 117/123/117 116/122/116
f 112/118/112 113/120/114 117/123/117
# 5 triangles in group

g Duplicate06
usemtl leafes
f 118/118/118 120/119/119 119/120/120
f 118/118/118 121/121/121 120/119/119
f 118/118/118 122/122/122 121/121/121
f 118/118/118 123/123/123 122/122/122
f 118/118/118 119/120/120 123/123/123
# 5 triangles in group

g Duplicate07
usemtl leafes
f 124/118/124 126/119/125 125/120/126
f 124/118/124 127/121/127 126/119/125
f 124/118/124 128/122/128 127/121/127
f 124/118/124 129/123/129 128/122/128
f 124/118/124 125/120/126 129/123/129
# 5 triangles in group

g Duplicate08
usemtl leafes
f 130/118/130 132/119/131 131/120/132
f 130/118/130 133/121/133 132/119/131
f 130/118/130 134/122/134 133/121/133
f 130/118/130 135/123/135 134/122/134
f 130/118/130 131/120/132 135/123/135
# 5 triangles in group

g Duplicate09
usemtl leafes
f 136/118/136 138/119/137 137/120/138
f 136/118/136 139/121/139 138/119/137
f 136/118/136 140/122/140 139/121/139
f 136/118/136 141/123/141 140/122/140
f 136/118/136 137/120/138 141/123/141
# 5 triangles in group

# 190 triangles total

