# Wavefront OBJ exported by MilkShape 3D

mtllib tree06.mtl

v 4.213800 -3.182462 0.480168
v 3.150975 12.919352 -0.709522
v 2.159729 -3.182462 4.021502
v 1.628316 13.021521 1.765376
v 2.953979 37.395077 -0.134476
v 1.529818 37.497253 2.119149
v 0.105656 78.490540 4.728117
v -1.417003 13.021521 1.765376
v -1.948415 -3.182462 4.021502
v -1.318505 37.497253 2.119149
v 0.105656 78.490540 4.728117
v -4.002487 -3.182462 0.480168
v -2.939663 12.919352 -0.709522
v -2.742667 37.395077 -0.134476
v -1.417003 12.817179 -3.184424
v -1.948415 -3.182462 -3.061165
v -1.318505 37.292908 -2.388099
v 0.105656 78.490540 4.728117
v 2.159729 -3.182462 -3.061165
v 1.628316 12.817179 -3.184424
v 1.529818 37.292908 -2.388099
v 3.150975 12.919352 -0.709522
v 4.213800 -3.182462 0.480168
v 2.953979 37.395077 -0.134476
v 0.105656 78.490540 4.728117
v -1.085230 45.225620 -0.091958
v 1.371012 71.418312 -3.854771
v 1.303657 45.276711 -0.221204
v 1.148678 45.123455 1.776220
v 1.148678 45.123455 1.776220
v 1.371012 71.418312 -3.854771
v -1.240210 45.072365 1.905466
v 1.371012 71.418312 -3.854771
v -1.085230 45.225620 -0.091958
v 1.938509 4.035395 -1.445089
v 6.301895 50.173378 18.518623
v 0.739496 4.110224 2.210948
v -2.249192 3.885733 0.694702
v -2.249192 3.885733 0.694702
v 6.301895 50.173378 18.518623
v -1.050178 3.810892 -2.961337
v 6.301895 50.173378 18.518623
v 1.938509 4.035395 -1.445089
v 1.179306 56.868057 1.983103
v 4.465540 70.357475 17.416431
v 0.694629 55.518394 1.928083
v -0.513487 56.112137 1.859005
v -0.513487 56.112137 1.859005
v 4.465540 70.357475 17.416431
v -0.028810 57.461800 1.914025
v 4.465540 70.357475 17.416431
v 1.179306 56.868057 1.983103
v 0.209077 42.369991 0.906775
v -14.249898 55.859398 8.851212
v 0.106642 41.020332 0.458225
v -0.217177 41.614071 -0.637681
v -0.217177 41.614071 -0.637681
v -14.249898 55.859398 8.851212
v -0.114741 42.963745 -0.189130
v -14.249898 55.859398 8.851212
v 0.209077 42.369991 0.906775
v -0.856682 39.725914 0.403497
v 5.059644 50.629745 -14.321142
v -0.476679 38.281139 0.691508
v 0.508905 38.916729 1.351690
v 0.508905 38.916729 1.351690
v 5.059644 50.629745 -14.321142
v 0.128902 40.361504 1.063679
v 5.059644 50.629745 -14.321142
v -0.856682 39.725914 0.403497
v 35.323425 88.472160 24.681656
v 35.323425 52.884125 -23.047987
v -35.112106 88.472160 24.681656
v -35.112106 52.884125 -23.047987
v 35.323425 85.192909 -28.877285
v 35.323425 56.163376 30.510960
v -35.112106 85.192909 -28.877285
v -35.112106 56.163376 30.510960
v 27.084051 85.192909 39.579781
v -26.872732 56.163376 39.579762
v 27.084051 85.192909 -37.946087
v -26.872732 56.163376 -37.946072
v -26.872732 85.192909 -37.946106
v 27.084059 56.163376 -37.946102
v -26.872753 85.192909 39.579762
v 27.084072 56.163376 39.579762
v 2.792455 58.239571 -1.153082
v 1.634025 42.834980 3.371425
v 7.243955 56.087891 -29.133562
v 6.085518 40.683311 -24.609024
v 26.285992 49.257500 -18.645382
v 8.894619 50.848305 7.608283
v -0.016601 48.074608 -33.370422
v -17.408049 49.665405 -7.116750
v 3.635985 65.305672 1.624559
v 1.885072 52.373581 50.737049
v 10.364210 38.181427 -17.760942
v 8.613291 25.249390 31.351517
v 39.145348 39.952690 11.795897
v 12.859114 64.932343 31.234436
v -0.609772 25.622730 1.741586
v -26.896091 50.602325 21.180206
v -22.212702 67.410507 10.749618
v 9.862059 58.560799 11.863623
v -34.873119 48.848778 6.468840
v -2.798391 39.999001 7.582848
v -15.569927 50.060898 -11.842879
v -2.874851 67.155067 4.881488
v -22.136274 40.254528 13.450945
v -9.441148 57.348686 30.175343
v -0.928893 -2.464605 0.249667
v 10.400738 38.673378 -10.757065
v 2.533943 -2.389776 -1.427533
v 3.519363 -2.614267 1.775628
v 3.519363 -2.614267 1.775628
v 10.400738 38.673378 -10.757065
v 0.056522 -2.689108 3.452826
v 10.400738 38.673378 -10.757065
v -0.928893 -2.464605 0.249667
v 9.731493 62.649788 -20.254316
v 20.821346 20.089689 -45.710098
v -0.572046 55.465298 11.352836
v 10.517811 12.905275 -14.102958
v -23.184677 32.769924 -14.698745
v 6.327646 40.967876 -42.169151
v 13.921568 34.587208 7.811898
v 43.433998 42.785110 -19.658484
# 127 vertices

vt -0.574766 -0.946266
vt -0.574766 -0.170529
vt -0.209397 -0.946266
vt -0.209397 -0.170529
vt -0.574766 0.605208
vt -0.209397 0.605208
vt -0.574766 1.380945
vt 0.155972 -0.170529
vt 0.155972 -0.946266
vt 0.155972 0.605208
vt 0.155972 1.380945
vt 0.521342 -0.946266
vt 0.521342 -0.170529
vt 0.521342 0.605208
vt 0.886711 -0.170529
vt 0.886711 -0.946266
vt 0.886711 0.605208
vt 0.886711 1.380945
vt 1.252079 -0.946266
vt 1.252079 -0.170529
vt 1.252079 0.605208
vt 1.617450 -0.170529
vt 1.617450 -0.946266
vt 1.617450 0.605208
vt 1.617450 1.380945
vt 0.166667 0.666667
vt 0.333333 1.000000
vt 0.333333 0.666667
vt 0.500000 0.666667
vt 0.666667 0.666667
vt 0.666667 1.000000
vt 0.833333 0.666667
vt 1.000000 1.000000
vt 1.000000 0.666667
vt -0.486627 -0.048402
vt 0.004776 0.751613
vt 0.004776 -0.048402
vt 0.496179 -0.048402
vt 0.987582 -0.048402
vt 0.987582 0.751613
vt 1.478986 -0.048402
vt 1.970388 0.751613
vt 1.970388 -0.048402
vt 0.000000 1.000000
vt 0.000000 0.000000
vt 1.000000 0.000000
vt -1.375112 0.065183
vt -0.771808 0.933125
vt -0.771808 0.065183
vt -0.168504 0.065183
vt 0.434800 0.065183
vt 0.434800 0.933125
vt 1.038104 0.065183
vt 1.641408 0.933125
vt 1.641408 0.065183
# 55 texture coordinates

vn 0.863131 0.066067 0.500640
vn 0.853489 0.032428 0.520101
vn 0.492605 0.095225 0.865027
vn 0.488387 0.044410 0.871496
vn 0.845238 -0.003655 0.534378
vn 0.484299 -0.014337 0.874785
vn -0.489506 0.043492 0.870915
vn -0.497425 0.095877 0.862192
vn -0.482567 -0.017462 0.875685
vn -0.482572 -0.027387 0.875428
vn -0.998842 0.048092 -0.001629
vn -0.999662 0.025960 -0.001423
vn -0.999792 0.020377 -0.000527
vn -0.489079 0.013295 -0.872138
vn -0.499085 0.006962 -0.866525
vn -0.480683 0.069508 -0.874135
vn -0.478091 0.117338 -0.870437
vn 0.493258 0.005830 -0.869864
vn 0.487461 0.014001 -0.873033
vn 0.483078 0.053314 -0.873952
vn 0.853136 0.014786 -0.521478
vn 0.864935 0.014079 -0.501686
vn 0.842862 0.049607 -0.535839
vn 0.839752 0.085533 -0.536190
vn -0.050826 -0.097051 -0.993981
vn 0.716731 -0.069116 -0.693916
vn 0.996937 0.005816 0.077987
vn 0.048923 0.148432 0.987712
vn -0.709706 0.155104 0.687211
vn -0.995768 0.058498 -0.070879
vn 0.929099 -0.146123 0.339741
vn 0.382812 -0.221010 0.897000
vn -0.398742 -0.160070 0.902985
vn -0.921492 0.190425 -0.338511
vn -0.378702 0.284415 -0.880734
vn 0.390348 0.208478 -0.896753
vn 0.963931 -0.246283 0.100900
vn 0.445787 -0.580019 0.681801
vn -0.392119 -0.497708 0.773647
vn -0.969472 0.245044 -0.008843
vn -0.459746 0.636289 -0.619492
vn 0.411241 0.527548 -0.743353
vn 0.212164 -0.233090 0.949029
vn -0.499319 -0.591457 0.633134
vn -0.844090 -0.515443 -0.147751
vn -0.291872 0.232380 -0.927799
vn 0.439132 0.646138 -0.624234
vn 0.819834 0.544463 0.177291
vn -0.798101 -0.225890 -0.558578
vn -0.039605 -0.642018 -0.765666
vn 0.750233 -0.550076 -0.366834
vn 0.845858 0.224266 0.483972
vn 0.086187 0.708641 0.700285
vn -0.747477 0.584640 0.315396
vn 0.000000 0.572009 -0.820247
vn 0.000000 -0.728598 -0.684941
vn 0.662061 -0.749450 0.000000
vn -0.662061 -0.749450 -0.000000
vn 0.987484 -0.012191 0.157250
vn 0.017985 -0.989225 0.145292
vn 0.991109 0.103008 0.084220
vn 0.018440 -0.387229 0.921799
vn 0.122519 0.135596 -0.983160
vn 0.934671 -0.355284 -0.012750
# 64 normals

g Cylinder04
usemtl wood
s 1
f 1/1/1 2/2/2 3/3/3
f 2/2/2 4/4/4 3/3/3
f 2/2/2 5/5/5 6/6/6
f 2/2/2 6/6/6 4/4/4
f 5/5/5 7/7/5 6/6/6
f 3/3/3 4/4/4 8/8/7
f 3/3/3 8/8/7 9/9/8
f 4/4/4 6/6/6 8/8/7
f 6/6/6 10/10/9 8/8/7
f 6/6/6 11/11/10 10/10/9
f 9/9/8 8/8/7 12/12/11
f 8/8/7 13/13/12 12/12/11
f 8/8/7 10/10/9 14/14/13
f 8/8/7 14/14/13 13/13/12
f 10/10/9 11/11/10 14/14/13
f 12/12/11 13/13/12 15/15/14
f 12/12/11 15/15/14 16/16/15
f 13/13/12 14/14/13 15/15/14
f 14/14/13 17/17/16 15/15/14
f 14/14/13 18/18/17 17/17/16
f 16/16/15 15/15/14 19/19/18
f 15/15/14 20/20/19 19/19/18
f 15/15/14 17/17/16 21/21/20
f 15/15/14 21/21/20 20/20/19
f 17/17/16 18/18/17 21/21/20
f 19/19/18 20/20/19 22/22/21
f 19/19/18 22/22/21 23/23/22
f 20/20/19 21/21/20 22/22/21
f 21/21/20 24/24/23 22/22/21
f 21/21/20 25/25/24 24/24/23
# 30 triangles in group

g Duplicate01
usemtl wood
f 26/26/25 27/27/26 28/28/26
f 28/28/26 27/27/26 29/29/27
f 30/30/28 31/31/28 32/32/29
f 32/32/29 33/33/30 34/34/30
# 4 triangles in group

g Duplicate02
usemtl wood
f 35/35/31 36/36/32 37/37/32
f 37/37/32 36/36/32 38/38/33
f 39/39/34 40/40/34 41/41/35
f 41/41/35 42/42/36 43/43/36
# 4 triangles in group

g Duplicate03
usemtl wood
f 44/26/37 45/27/38 46/28/38
f 46/28/38 45/27/38 47/29/39
f 48/30/40 49/31/40 50/32/41
f 50/32/41 51/33/42 52/34/42
# 4 triangles in group

g Duplicate04
usemtl wood
f 53/26/43 54/27/44 55/28/44
f 55/28/44 54/27/44 56/29/45
f 57/30/46 58/31/46 59/32/47
f 59/32/47 60/33/48 61/34/48
# 4 triangles in group

g Duplicate05
usemtl wood
f 62/26/49 63/27/50 64/28/50
f 64/28/50 63/27/50 65/29/51
f 66/30/52 67/31/52 68/32/53
f 68/32/53 69/33/54 70/34/54
# 4 triangles in group

g Box01
usemtl leaves
f 71/44/55 72/45/55 73/33/55
f 72/45/55 74/46/55 73/33/55
# 2 triangles in group

g Duplicate06
usemtl leaves
f 75/44/56 76/45/56 77/33/56
f 76/45/56 78/46/56 77/33/56
# 2 triangles in group

g Duplicate07
usemtl leaves
f 79/44/57 80/45/57 81/33/57
f 80/45/57 82/46/57 81/33/57
# 2 triangles in group

g Duplicate08
usemtl leaves
f 83/44/58 84/45/58 85/33/58
f 84/45/58 86/46/58 85/33/58
# 2 triangles in group

g Duplicate10
usemtl leaves
f 87/44/59 88/45/59 89/33/59
f 88/45/59 90/46/59 89/33/59
# 2 triangles in group

g Duplicate11
usemtl leaves
f 91/44/60 92/45/60 93/33/60
f 92/45/60 94/46/60 93/33/60
# 2 triangles in group

g Duplicate12
usemtl leaves
f 95/44/61 96/45/61 97/33/61
f 96/45/61 98/46/61 97/33/61
f 99/44/62 100/45/62 101/33/62
f 100/45/62 102/46/62 101/33/62
# 4 triangles in group

g Duplicate13
usemtl leaves
f 103/44/63 104/45/63 105/33/63
f 104/45/63 106/46/63 105/33/63
f 107/44/64 108/45/64 109/33/64
f 108/45/64 110/46/64 109/33/64
# 4 triangles in group

g Duplicate02
usemtl wood
f 111/47/31 112/48/32 113/49/32
f 113/49/32 112/48/32 114/50/33
f 115/51/34 116/52/34 117/53/35
f 117/53/35 118/54/36 119/55/36
# 4 triangles in group

g Duplicate03
usemtl leaves
f 120/44/61 121/45/61 122/33/61
f 121/45/61 123/46/61 122/33/61
f 124/44/62 125/45/62 126/33/62
f 125/45/62 127/46/62 126/33/62
# 4 triangles in group

# 78 triangles total

