# Wavefront OBJ exported by MilkShape 3D

mtllib treehouse.mtl

v 26.435055 96.078003 -29.648531
v 26.435055 94.733490 29.766193
v 26.435020 93.917595 -29.764950
v 26.435020 92.573082 29.649759
v 16.452612 93.917595 -29.764950
v 16.452612 92.573082 29.649759
v 16.452637 96.078003 -29.648531
v 16.452637 94.733490 29.766193
v 18.057262 95.406403 -33.349224
v 14.569833 95.406403 34.262142
v 18.057230 93.244682 -33.349224
v 14.569801 93.244675 34.262123
v 8.440128 93.244682 -34.260899
v 4.952700 93.244675 33.350433
v 8.440157 95.406403 -34.260899
v 4.952729 95.406403 33.350456
v 5.636669 94.920578 -31.239937
v 5.636669 94.248230 32.571888
v 5.636636 92.759186 -31.302429
v 5.636636 92.086830 32.509369
v -3.608723 92.759186 -31.302414
v -3.608720 92.086830 32.509380
v -3.608696 94.920578 -31.239914
v -3.608695 94.248230 32.571892
v -6.029034 95.406403 -32.768074
v -4.259852 95.406403 33.590694
v -6.029067 93.244682 -32.768074
v -4.259890 93.244675 33.590672
v -15.798532 93.244682 -32.321220
v -14.029350 93.244675 34.037525
v -15.798504 95.406403 -32.321232
v -14.029321 95.406403 34.037548
v -15.180858 94.995483 -28.872597
v -16.987494 94.995483 30.542160
v -15.180889 92.833755 -28.872593
v -16.987530 92.833755 30.542133
v -25.157228 92.833755 -29.272671
v -26.963877 92.833755 30.142056
v -25.157190 94.995483 -29.272686
v -26.963839 94.995483 30.142067
v 31.918621 93.532654 -22.723749
v -30.729969 93.532654 -21.570539
v 31.918610 90.112686 -22.723766
v -30.729946 90.112686 -21.570553
v 31.285460 90.112686 -26.966988
v -31.363070 90.112686 -25.813776
v 31.285484 93.532654 -26.966972
v -31.363081 93.532654 -25.813753
v -49.169632 93.532654 25.466644
v 30.567881 93.532654 19.788622
v -49.169624 90.112686 25.466646
v 30.567869 90.112686 19.788635
v -48.343979 90.112686 29.666008
v 31.393482 90.112686 23.987993
v -48.343998 93.532654 29.665993
v 31.393488 93.532654 23.987970
v -24.989473 93.414650 24.705700
v 0.695352 50.592461 -0.159775
v -29.219625 92.078362 24.705704
v -1.095119 49.256184 1.021142
v -28.897018 91.512756 28.905064
v 0.046513 48.690609 2.502970
v -24.666872 92.849060 28.905046
v 3.883314 50.026882 1.088177
v -21.287344 92.518097 -21.236366
v 3.967786 64.488968 2.989573
v -21.582426 91.181808 -26.082584
v 0.594795 63.152695 0.439042
v -25.207613 90.616203 -25.420048
v -0.781051 62.587112 1.699052
v -24.912523 91.952515 -20.573856
v 0.503771 63.923389 3.430682
v 25.204529 92.518097 21.728989
v -1.350842 60.155647 0.453884
v 26.011700 91.181816 26.497780
v 0.132188 58.819366 2.013587
v 29.539568 90.616203 25.332821
v 1.346583 58.253796 0.592673
v 28.732399 91.952515 20.564045
v -0.136449 59.590073 -0.967025
v 22.994736 93.414650 -22.180939
v -1.089314 50.592461 3.881549
v 27.214588 92.078362 -22.519831
v 0.615687 49.256184 2.576658
v 26.637688 91.512756 -26.683113
v -0.624944 48.690609 1.179321
v 22.417852 92.849060 -26.344221
v -2.329941 50.026882 2.484216
v -46.336895 91.929611 28.208326
v -45.346153 1.538254 28.006666
v -44.853832 91.929611 28.698406
v -44.355412 91.929611 27.138338
v -45.838474 91.929611 26.648258
v -46.778927 93.738464 30.272030
v -46.778927 89.493553 29.879921
v -43.644672 93.760406 30.066494
v -43.644672 89.515434 29.674402
v -44.068802 94.179070 25.013638
v -44.068802 89.934151 24.621532
v -46.967762 94.157188 25.277975
v -46.967762 89.912239 24.885874
v -55.666664 92.474792 36.667286
v -36.999992 92.474792 36.667286
v -36.999992 92.474792 18.000626
v -55.666664 92.474792 18.000626
# 105 vertices

vt 1.842499 0.881517
vt 1.842499 0.013394
vt 2.097065 0.881517
vt 2.097065 0.013394
vt 3.705400 -1.733881
vt 3.705400 -5.659712
vt 4.477170 -1.733881
vt 4.477170 -5.659712
vt 2.460798 -0.162523
vt 2.460798 -0.724867
vt 3.143276 -0.162523
vt 3.143276 -0.724867
vt 0.000000 1.000000
vt 0.000000 0.000000
vt 1.000000 1.000000
vt 1.000000 0.000000
# 16 texture coordinates

vn 1.000000 -0.000016 -0.000000
vn 0.000000 -0.999744 -0.022624
vn -1.000000 0.000011 0.000000
vn 0.000000 0.999744 0.022623
vn 0.000000 0.053809 -0.998551
vn 0.000000 -0.053816 0.998551
vn 0.998672 -0.000015 0.051512
vn 0.000000 -1.000000 -0.000000
vn -0.998672 0.000013 -0.051512
vn 0.000000 1.000000 0.000000
vn 0.094374 -0.000001 -0.995537
vn -0.094375 -0.000007 0.995537
vn -0.000000 -0.999945 -0.010536
vn 0.000000 0.999945 0.010536
vn -0.000002 0.028904 -0.999582
vn 0.000000 -0.028913 0.999582
vn 0.999645 -0.000015 -0.026651
vn -0.999645 0.000013 0.026651
vn -0.045691 -0.000005 -0.998956
vn 0.045692 -0.000011 0.998956
vn 0.999538 -0.000014 0.030393
vn -0.999538 0.000017 -0.030393
vn 0.040072 -0.000008 -0.999197
vn -0.040072 -0.000012 0.999197
vn 0.018404 -0.000005 0.999831
vn -0.018405 0.000005 -0.999831
vn 0.989051 -0.000007 -0.147577
vn -0.989051 -0.000007 0.147572
vn -0.071029 -0.000001 -0.997474
vn 0.071029 0.000005 0.997474
vn -0.981215 -0.000005 0.192917
vn 0.981216 -0.000004 -0.192911
vn -0.137269 0.434537 -0.890132
vn -0.376487 0.261254 -0.888821
vn -0.582855 0.065176 -0.809958
vn -0.838109 -0.545428 -0.009077
vn -0.780937 -0.608058 0.142840
vn -0.700126 -0.652283 0.290433
vn 0.141651 -0.448392 0.882542
vn 0.283036 -0.370524 0.884648
vn 0.417047 -0.283001 0.863703
vn 0.834965 0.550213 0.009962
vn 0.667423 0.645892 -0.370635
vn 0.378357 0.623969 -0.683747
vn -0.297825 0.942784 0.149859
vn 0.124199 -0.745307 -0.655051
vn 0.134519 -0.820637 -0.555391
vn 0.142725 -0.883072 -0.447004
vn 0.807978 0.553564 -0.201836
vn 0.820166 0.202111 -0.535237
vn 0.639759 -0.196802 -0.742951
vn -0.022429 -0.696437 -0.717268
vn -0.125461 -0.740035 -0.660764
vn -0.226523 -0.772007 -0.593879
vn -0.825358 -0.529409 0.196239
vn -0.827472 -0.342505 0.444950
vn -0.749490 -0.122447 0.650593
vn 0.032054 0.666747 0.744594
vn 0.011462 0.658140 0.752808
vn -0.009136 0.649161 0.760596
vn -0.193670 0.948728 -0.249814
vn 0.186981 -0.949914 0.250402
vn 0.370134 -0.896823 0.242298
vn 0.539804 -0.811062 0.225367
vn -0.824119 0.493609 0.277808
vn -0.808816 0.278586 0.517887
vn -0.709309 0.034561 0.704050
vn 0.136047 -0.664628 0.734684
vn 0.238803 -0.708153 0.664449
vn 0.337408 -0.739366 0.582661
vn 0.819478 -0.500620 -0.278990
vn 0.783417 -0.321407 -0.531936
vn 0.671051 -0.110890 -0.733071
vn -0.148121 0.635998 -0.757342
vn -0.264856 0.677076 -0.686600
vn -0.376209 0.704397 -0.601907
vn 0.226802 0.947115 0.227013
vn -0.563447 -0.810736 -0.158852
vn 0.204654 0.422333 0.883036
vn 0.438201 0.250427 0.863288
vn 0.634726 0.057364 0.770605
vn 0.837488 -0.544837 -0.042031
vn 0.770047 -0.608015 -0.193250
vn 0.678421 -0.652097 -0.338401
vn -0.208551 -0.436635 -0.875132
vn -0.453043 -0.289199 -0.843277
vn -0.660146 -0.117896 -0.741827
vn -0.850885 0.523261 0.046816
vn -0.787027 0.579561 0.211418
vn -0.696141 0.615958 0.368759
vn 0.285351 0.943631 -0.167734
vn -0.229727 -0.814037 0.533450
vn -0.313759 -0.005557 0.949486
vn -0.001099 -0.999994 0.003326
vn 0.952539 -0.007517 0.304323
vn 0.001069 -0.999999 0.000342
vn 0.313739 -0.012559 -0.949426
vn -0.952521 -0.009761 -0.304318
vn 0.065800 -0.091781 0.993603
vn 0.996519 0.007667 -0.083011
vn -0.091111 0.091596 -0.991619
vn -0.999291 -0.003463 0.037495
vn 0.000097 0.996504 0.083548
vn -0.001553 0.996573 0.082703
vn 0.001475 -0.996498 -0.083599
vn 0.000002 -0.996584 -0.082584
# 106 normals

g Duplicate09
usemtl Material02
s 1
f 1/1/1 2/2/1 3/3/1
f 2/2/1 4/4/1 3/3/1
s 2
f 3/1/2 4/2/2 5/3/2
f 4/2/2 6/4/2 5/3/2
s 1
f 5/1/3 6/2/3 7/3/3
f 6/2/3 8/4/3 7/3/3
s 2
f 7/1/4 8/2/4 1/3/4
f 8/2/4 2/4/4 1/3/4
s 3
f 7/1/5 1/2/5 5/3/5
f 1/2/5 3/4/5 5/3/5
f 2/1/6 8/2/6 4/3/6
f 8/2/6 6/4/6 4/3/6
# 12 triangles in group

g Duplicate10
usemtl Material02
s 1
f 9/1/7 10/2/7 11/3/7
f 10/2/7 12/4/7 11/3/7
s 2
f 11/1/8 12/2/8 13/3/8
f 12/2/8 14/4/8 13/3/8
s 1
f 13/1/9 14/2/9 15/3/9
f 14/2/9 16/4/9 15/3/9
s 2
f 15/1/10 16/2/10 9/3/10
f 16/2/10 10/4/10 9/3/10
s 3
f 15/1/11 9/2/11 13/3/11
f 9/2/11 11/4/11 13/3/11
f 10/1/12 16/2/12 12/3/12
f 16/2/12 14/4/12 12/3/12
# 12 triangles in group

g Duplicate11
usemtl Material02
s 1
f 17/1/1 18/2/1 19/3/1
f 18/2/1 20/4/1 19/3/1
s 2
f 19/1/13 20/2/13 21/3/13
f 20/2/13 22/4/13 21/3/13
s 1
f 21/1/3 22/2/3 23/3/3
f 22/2/3 24/4/3 23/3/3
s 2
f 23/1/14 24/2/14 17/3/14
f 24/2/14 18/4/14 17/3/14
s 3
f 23/1/15 17/2/15 21/3/15
f 17/2/15 19/4/15 21/3/15
f 18/1/16 24/2/16 20/3/16
f 24/2/16 22/4/16 20/3/16
# 12 triangles in group

g Duplicate12
usemtl Material02
s 1
f 25/1/17 26/2/17 27/3/17
f 26/2/17 28/4/17 27/3/17
s 2
f 27/1/8 28/2/8 29/3/8
f 28/2/8 30/4/8 29/3/8
s 1
f 29/1/18 30/2/18 31/3/18
f 30/2/18 32/4/18 31/3/18
s 2
f 31/1/10 32/2/10 25/3/10
f 32/2/10 26/4/10 25/3/10
s 3
f 31/1/19 25/2/19 29/3/19
f 25/2/19 27/4/19 29/3/19
f 26/1/20 32/2/20 28/3/20
f 32/2/20 30/4/20 28/3/20
# 12 triangles in group

g Duplicate13
usemtl Material02
s 1
f 33/1/21 34/2/21 35/3/21
f 34/2/21 36/4/21 35/3/21
s 2
f 35/1/8 36/2/8 37/3/8
f 36/2/8 38/4/8 37/3/8
s 1
f 37/1/22 38/2/22 39/3/22
f 38/2/22 40/4/22 39/3/22
s 2
f 39/1/10 40/2/10 33/3/10
f 40/2/10 34/4/10 33/3/10
s 3
f 39/1/23 33/2/23 37/3/23
f 33/2/23 35/4/23 37/3/23
f 34/1/24 40/2/24 36/3/24
f 40/2/24 38/4/24 36/3/24
# 12 triangles in group

g Duplicate01
usemtl Material02
s 1
f 41/1/25 42/2/25 43/3/25
f 42/2/25 44/4/25 43/3/25
s 2
f 43/1/8 44/2/8 45/3/8
f 44/2/8 46/4/8 45/3/8
s 1
f 45/1/26 46/2/26 47/3/26
f 46/2/26 48/4/26 47/3/26
s 2
f 47/1/10 48/2/10 41/3/10
f 48/2/10 42/4/10 41/3/10
s 3
f 47/1/27 41/2/27 45/3/27
f 41/2/27 43/4/27 45/3/27
f 42/1/28 48/2/28 44/3/28
f 48/2/28 46/4/28 44/3/28
# 12 triangles in group

g Duplicate02
usemtl Material02
s 1
f 49/1/29 50/2/29 51/3/29
f 50/2/29 52/4/29 51/3/29
s 2
f 51/1/8 52/2/8 53/3/8
f 52/2/8 54/4/8 53/3/8
s 1
f 53/1/30 54/2/30 55/3/30
f 54/2/30 56/4/30 55/3/30
s 2
f 55/1/10 56/2/10 49/3/10
f 56/2/10 50/4/10 49/3/10
s 3
f 55/1/31 49/2/31 53/3/31
f 49/2/31 51/4/31 53/3/31
f 50/1/32 56/2/32 52/3/32
f 56/2/32 54/4/32 52/3/32
# 12 triangles in group

g Duplicate03
usemtl Material02
s 1
f 57/1/33 58/2/34 59/3/34
f 58/2/34 60/4/35 59/3/34
s 2
f 59/1/36 60/2/37 61/3/37
f 60/2/37 62/4/38 61/3/37
s 1
f 61/1/39 62/2/40 63/3/40
f 62/2/40 64/4/41 63/3/40
s 2
f 63/1/42 64/2/43 57/3/43
f 64/2/43 58/4/44 57/3/43
s 3
f 63/1/45 57/2/45 61/3/45
f 57/2/45 59/4/45 61/3/45
f 58/1/46 64/2/47 60/3/47
f 64/2/47 62/4/48 60/3/47
# 12 triangles in group

g Duplicate04
usemtl Material02
s 1
f 65/1/49 66/2/50 67/3/50
f 66/2/50 68/4/51 67/3/50
s 2
f 67/1/52 68/2/53 69/3/53
f 68/2/53 70/4/54 69/3/53
s 1
f 69/1/55 70/2/56 71/3/56
f 70/2/56 72/4/57 71/3/56
s 2
f 71/1/58 72/2/59 65/3/59
f 72/2/59 66/4/60 65/3/59
s 3
f 71/1/61 65/2/61 69/3/61
f 65/2/61 67/4/61 69/3/61
f 66/1/62 72/2/63 68/3/63
f 72/2/63 70/4/64 68/3/63
# 12 triangles in group

g Duplicate05
usemtl Material02
s 1
f 73/1/65 74/2/66 75/3/66
f 74/2/66 76/4/67 75/3/66
s 2
f 75/1/68 76/2/69 77/3/69
f 76/2/69 78/4/70 77/3/69
s 1
f 77/1/71 78/2/72 79/3/72
f 78/2/72 80/4/73 79/3/72
s 2
f 79/1/74 80/2/75 73/3/75
f 80/2/75 74/4/76 73/3/75
s 3
f 79/1/77 73/2/77 77/3/77
f 73/2/77 75/4/77 77/3/77
f 74/1/78 80/2/78 76/3/78
f 80/2/78 78/4/78 76/3/78
# 12 triangles in group

g Duplicate06
usemtl Material02
s 1
f 81/1/79 82/2/80 83/3/80
f 82/2/80 84/4/81 83/3/80
s 2
f 83/1/82 84/2/83 85/3/83
f 84/2/83 86/4/84 85/3/83
s 1
f 85/1/85 86/2/86 87/3/86
f 86/2/86 88/4/87 87/3/86
s 2
f 87/1/88 88/2/89 81/3/89
f 88/2/89 82/4/90 81/3/89
s 3
f 87/1/91 81/2/91 85/3/91
f 81/2/91 83/4/91 85/3/91
f 82/1/92 88/2/92 84/3/92
f 88/2/92 86/4/92 84/3/92
# 12 triangles in group

g Box01
usemtl Material01
s 1
f 89/5/93 90/6/94 91/7/93
s 2
f 91/5/95 90/6/96 92/7/95
s 1
f 92/5/97 90/6/94 93/7/97
s 2
f 93/5/98 90/6/96 89/7/98
s 3
f 93/5/10 89/6/10 92/7/10
f 89/6/10 91/8/10 92/7/10
# 6 triangles in group

g Box02
usemtl Material01
s 1
f 94/9/99 95/10/99 96/11/99
f 95/10/99 97/12/99 96/11/99
s 2
f 96/9/100 97/10/100 98/11/100
f 97/10/100 99/12/100 98/11/100
s 1
f 98/9/101 99/10/101 100/11/101
f 99/10/101 101/12/101 100/11/101
s 2
f 100/9/102 101/10/102 94/11/102
f 101/10/102 95/12/102 94/11/102
s 3
f 100/9/103 94/10/103 98/11/103
f 94/10/103 96/12/104 98/11/103
f 95/9/105 101/10/105 97/11/105
f 101/10/105 99/12/106 97/11/105
# 12 triangles in group

g climbplat
usemtl Material01
f 105/13/10 102/14/10 104/15/10
f 102/14/10 103/16/10 104/15/10
# 2 triangles in group

# 152 triangles total

