# Wavefront OBJ exported by MilkShape 3D

mtllib treehouse2.mtl

v 26.435055 13.078002 -29.648531
v 26.435055 11.733490 29.766193
v 26.435020 10.917597 -29.764950
v 26.435020 9.573083 29.649759
v 16.452612 10.917597 -29.764950
v 16.452612 9.573083 29.649759
v 16.452637 13.078002 -29.648531
v 16.452637 11.733490 29.766193
v 18.057262 12.406406 -33.349224
v 14.569833 12.406406 34.262142
v 18.057230 10.244681 -33.349224
v 14.569801 10.244679 34.262123
v 8.440128 10.244681 -34.260899
v 4.952700 10.244679 33.350433
v 8.440157 12.406406 -34.260899
v 4.952729 12.406406 33.350456
v 5.636669 11.920583 -31.239939
v 5.636669 11.248229 32.571888
v 5.636636 9.759188 -31.302427
v 5.636636 9.086828 32.509369
v -3.608723 9.759188 -31.302412
v -3.608720 9.086828 32.509380
v -3.608696 11.920583 -31.239912
v -3.608695 11.248229 32.571892
v -6.029034 12.406406 -32.768074
v -4.259852 12.406406 33.590694
v -6.029067 10.244681 -32.768074
v -4.259890 10.244679 33.590672
v -15.798532 10.244681 -32.321220
v -14.029350 10.244679 34.037525
v -15.798504 12.406406 -32.321232
v -14.029321 12.406406 34.037548
v -15.180858 11.995488 -28.872597
v -16.987494 11.995488 30.542158
v -15.180889 9.833760 -28.872593
v -16.987530 9.833760 30.542133
v -25.157228 9.833760 -29.272671
v -26.963877 9.833760 30.142056
v -25.157190 11.995488 -29.272686
v -26.963839 11.995488 30.142067
v 31.918621 10.532655 -22.723749
v -30.729969 10.532655 -21.570539
v 31.918610 7.112688 -22.723766
v -30.729946 7.112688 -21.570553
v 31.285460 7.112688 -26.966988
v -31.363070 7.112688 -25.813776
v 31.285484 10.532655 -26.966972
v -31.363081 10.532655 -25.813753
v -49.169632 10.532655 25.466644
v 30.567881 10.532655 19.788622
v -49.169624 7.112688 25.466646
v 30.567869 7.112688 19.788635
v -48.343979 7.112688 29.666008
v 31.393482 7.112688 23.987993
v -48.343998 10.532655 29.665993
v 31.393488 10.532655 23.987970
v -24.989473 10.414652 24.705700
v 0.695352 -32.407539 -0.159775
v -29.219625 9.078360 24.705704
v -1.095119 -33.743816 1.021142
v -28.897018 8.512753 28.905064
v 0.046513 -34.309391 2.502970
v -24.666872 9.849059 28.905046
v 3.883314 -32.973118 1.088177
v -21.287344 9.518100 -21.236366
v 3.967786 -18.511030 2.989573
v -21.582426 8.181813 -26.082584
v 0.594795 -19.847307 0.439042
v -25.207613 7.616205 -25.420048
v -0.781051 -20.412886 1.699052
v -24.912523 8.952510 -20.573856
v 0.503771 -19.076611 3.430682
v 25.204529 9.518100 21.728989
v -1.350842 -22.844355 0.453884
v 26.011700 8.181815 26.497780
v 0.132188 -24.180635 2.013587
v 29.539568 7.616205 25.332821
v 1.346583 -24.746204 0.592673
v 28.732399 8.952510 20.564045
v -0.136449 -23.409929 -0.967025
v 22.994736 10.414652 -22.180939
v -1.089314 -32.407539 3.881549
v 27.214588 9.078360 -22.519831
v 0.615687 -33.743816 2.576658
v 26.637688 8.512754 -26.683113
v -0.624944 -34.309391 1.179321
v 22.417852 9.849059 -26.344221
v -2.329941 -32.973118 2.484216
v -36.004265 60.970520 -26.417686
v -28.559816 9.026366 -21.998209
v -33.709988 60.422043 -27.429186
v -26.569975 9.026366 -22.841501
v -34.896519 60.705704 -30.332495
v -27.599066 9.026366 -25.262011
v -37.190800 61.254189 -29.321005
v -29.588905 9.026366 -24.418722
v -20.774172 62.975754 32.456738
v -15.945105 10.443030 27.085781
v -19.037731 62.560638 34.263878
v -14.439087 10.443030 28.592405
v -16.711746 62.004585 32.157372
v -12.421749 10.443030 26.836197
v -18.448179 62.419701 30.350224
v -13.927765 10.443030 25.329569
v 33.060776 61.487991 28.173409
v 28.148109 7.234158 23.514744
v 35.631516 61.487991 27.746277
v 30.291349 7.234158 23.158642
v 35.165470 61.487991 24.642530
v 29.902802 7.234158 20.571026
v 32.594723 61.487991 25.069668
v 27.759556 7.234158 20.927135
v 32.048359 62.737991 -29.484791
v 27.304049 8.484152 -24.555273
v 33.919361 62.737991 -27.739271
v 28.863914 8.484152 -23.100023
v 36.261028 62.737991 -29.925568
v 30.816179 8.484152 -24.922750
v 34.390030 62.737991 -31.671087
v 29.256313 8.484152 -26.378004
v -35.526405 62.459549 -30.346521
v -17.930553 63.334427 35.077827
v -33.577297 60.684906 -30.933649
v -15.981426 61.559776 34.490711
v -35.421040 58.150826 -30.390348
v -17.825176 59.025707 35.034004
v -37.370159 59.925484 -29.803221
v -19.774290 60.800362 35.621124
v 34.291431 63.556007 -33.714596
v 33.249722 64.706001 35.728172
v 36.533623 62.621346 -33.535831
v 35.491917 63.771355 35.906952
v 35.370514 59.949833 -33.567711
v 34.328808 61.099831 35.875088
v 33.128319 60.884453 -33.746498
v 32.086617 62.034462 35.696293
v -65.401596 21.390530 74.424522
v -30.846409 23.702351 69.128601
v -32.388466 23.652866 59.776184
v -66.897552 21.768028 65.072113
# 140 vertices

vt 1.842499 0.881517
vt 1.842499 0.013394
vt 2.097065 0.881517
vt 2.097065 0.013394
vt 0.790881 1.047722
vt 0.790881 0.055536
vt 0.872757 1.047722
vt 0.872757 0.055536
vt 0.021665 0.984847
vt 0.021665 0.610895
vt 0.902488 0.984847
vt 0.902488 0.610895
# 12 texture coordinates

vn 1.000000 -0.000016 -0.000000
vn 0.000000 -0.999744 -0.022624
vn -1.000000 0.000011 0.000000
vn 0.000000 0.999744 0.022623
vn 0.000000 0.053809 -0.998551
vn 0.000000 -0.053816 0.998551
vn 0.998672 -0.000015 0.051512
vn 0.000000 -1.000000 -0.000000
vn -0.998672 0.000013 -0.051512
vn 0.000000 1.000000 0.000000
vn 0.094374 -0.000001 -0.995537
vn -0.094375 -0.000007 0.995537
vn -0.000000 -0.999945 -0.010536
vn 0.000000 0.999945 0.010536
vn -0.000003 0.028904 -0.999582
vn 0.000000 -0.028913 0.999582
vn 0.999645 -0.000015 -0.026651
vn -0.999645 0.000013 0.026651
vn -0.045691 -0.000005 -0.998956
vn 0.045692 -0.000011 0.998956
vn 0.999538 -0.000014 0.030393
vn -0.999538 0.000017 -0.030393
vn 0.040072 -0.000008 -0.999197
vn -0.040072 -0.000011 0.999197
vn 0.018404 -0.000005 0.999831
vn -0.018405 0.000005 -0.999831
vn 0.989051 -0.000007 -0.147577
vn -0.989051 -0.000007 0.147572
vn -0.071029 -0.000001 -0.997474
vn 0.071029 0.000005 0.997474
vn -0.981215 -0.000005 0.192917
vn 0.981216 -0.000004 -0.192911
vn -0.137269 0.434537 -0.890132
vn -0.376487 0.261254 -0.888821
vn -0.582855 0.065176 -0.809958
vn -0.838109 -0.545428 -0.009077
vn -0.780937 -0.608058 0.142840
vn -0.700126 -0.652283 0.290433
vn 0.141651 -0.448391 0.882542
vn 0.283037 -0.370524 0.884648
vn 0.417047 -0.283001 0.863703
vn 0.834965 0.550212 0.009962
vn 0.667423 0.645892 -0.370634
vn 0.378357 0.623969 -0.683747
vn -0.297826 0.942784 0.149859
vn 0.124199 -0.745307 -0.655051
vn 0.134519 -0.820637 -0.555391
vn 0.142725 -0.883072 -0.447004
vn 0.807978 0.553565 -0.201836
vn 0.820166 0.202112 -0.535237
vn 0.639759 -0.196802 -0.742951
vn -0.022428 -0.696436 -0.717268
vn -0.125461 -0.740035 -0.660763
vn -0.226524 -0.772007 -0.593879
vn -0.825358 -0.529409 0.196238
vn -0.827472 -0.342505 0.444950
vn -0.749490 -0.122447 0.650593
vn 0.032053 0.666746 0.744595
vn 0.011462 0.658140 0.752808
vn -0.009136 0.649161 0.760596
vn -0.193672 0.948728 -0.249813
vn 0.186982 -0.949914 0.250403
vn 0.370134 -0.896824 0.242299
vn 0.539802 -0.811063 0.225368
vn -0.824119 0.493609 0.277808
vn -0.808816 0.278586 0.517887
vn -0.709309 0.034561 0.704050
vn 0.136047 -0.664628 0.734684
vn 0.238804 -0.708153 0.664448
vn 0.337409 -0.739366 0.582660
vn 0.819478 -0.500621 -0.278989
vn 0.783417 -0.321408 -0.531936
vn 0.671051 -0.110890 -0.733071
vn -0.148120 0.635998 -0.757342
vn -0.264855 0.677076 -0.686600
vn -0.376209 0.704397 -0.601907
vn 0.226804 0.947115 0.227011
vn -0.563447 -0.810736 -0.158852
vn 0.204654 0.422333 0.883036
vn 0.438201 0.250427 0.863288
vn 0.634726 0.057364 0.770605
vn 0.837488 -0.544837 -0.042031
vn 0.770047 -0.608015 -0.193250
vn 0.678421 -0.652097 -0.338401
vn -0.208552 -0.436635 -0.875132
vn -0.453043 -0.289199 -0.843277
vn -0.660146 -0.117896 -0.741827
vn -0.850886 0.523261 0.046816
vn -0.787027 0.579561 0.211418
vn -0.696141 0.615958 0.368759
vn 0.285351 0.943631 -0.167734
vn -0.229727 -0.814037 0.533450
vn 0.426880 0.137228 0.893836
vn 0.406852 0.136219 0.903281
vn 0.386624 0.135143 0.912282
vn 0.924678 0.095560 -0.368563
vn 0.920623 0.093376 -0.379122
vn 0.916446 0.091180 -0.389631
vn -0.428369 -0.147949 -0.891410
vn -0.407428 -0.144900 -0.901669
vn -0.386261 -0.141771 -0.911429
vn -0.924422 -0.100008 0.368024
vn -0.920192 -0.099074 0.378723
vn -0.915839 -0.098126 0.389372
vn 0.232515 0.972593 0.000002
vn -0.729789 -0.135596 0.670091
vn -0.715294 -0.136830 0.685297
vn -0.700482 -0.138004 0.700200
vn 0.668220 -0.021962 0.743640
vn 0.662345 -0.022582 0.748859
vn 0.656428 -0.023201 0.754032
vn 0.729705 0.129990 -0.671292
vn 0.715688 0.129382 -0.686332
vn 0.701367 0.128719 -0.701082
vn -0.669432 0.013525 -0.742750
vn -0.662998 0.015139 -0.748468
vn -0.656513 0.016752 -0.754129
vn 0.163098 -0.099059 0.981624
vn 0.985379 -0.084479 -0.147960
vn -0.163247 0.089568 -0.982511
vn -0.986010 0.076570 0.148058
vn -0.676803 0.125099 0.725457
vn 0.682441 -0.001088 0.730940
vn 0.675950 -0.134649 -0.724542
vn -0.682426 -0.006736 -0.730924
vn 0.632028 0.753736 -0.180063
vn 0.771541 -0.604114 -0.199427
vn -0.632030 -0.753735 0.180063
vn -0.771538 0.604118 0.199427
vn -0.286129 0.002749 -0.958187
vn 0.286125 -0.002746 0.958188
vn 0.385389 0.922705 -0.009499
vn 0.916592 -0.399304 0.020362
vn -0.385374 -0.922712 0.009499
vn -0.916594 0.399300 -0.020362
vn 0.071506 -0.019223 -0.997255
vn -0.071500 0.019229 0.997255
vn -0.047157 0.997742 0.047816
vn -0.056544 0.998043 0.026708
vn -0.065900 0.997811 0.005586
# 140 normals

g Duplicate09
usemtl Material02
s 1
f 1/1/1 2/2/1 3/3/1
f 2/2/1 4/4/1 3/3/1
s 2
f 3/1/2 4/2/2 5/3/2
f 4/2/2 6/4/2 5/3/2
s 1
f 5/1/3 6/2/3 7/3/3
f 6/2/3 8/4/3 7/3/3
s 2
f 7/1/4 8/2/4 1/3/4
f 8/2/4 2/4/4 1/3/4
s 3
f 7/1/5 1/2/5 5/3/5
f 1/2/5 3/4/5 5/3/5
f 2/1/6 8/2/6 4/3/6
f 8/2/6 6/4/6 4/3/6
# 12 triangles in group

g Duplicate10
usemtl Material02
s 1
f 9/1/7 10/2/7 11/3/7
f 10/2/7 12/4/7 11/3/7
s 2
f 11/1/8 12/2/8 13/3/8
f 12/2/8 14/4/8 13/3/8
s 1
f 13/1/9 14/2/9 15/3/9
f 14/2/9 16/4/9 15/3/9
s 2
f 15/1/10 16/2/10 9/3/10
f 16/2/10 10/4/10 9/3/10
s 3
f 15/1/11 9/2/11 13/3/11
f 9/2/11 11/4/11 13/3/11
f 10/1/12 16/2/12 12/3/12
f 16/2/12 14/4/12 12/3/12
# 12 triangles in group

g Duplicate11
usemtl Material02
s 1
f 17/1/1 18/2/1 19/3/1
f 18/2/1 20/4/1 19/3/1
s 2
f 19/1/13 20/2/13 21/3/13
f 20/2/13 22/4/13 21/3/13
s 1
f 21/1/3 22/2/3 23/3/3
f 22/2/3 24/4/3 23/3/3
s 2
f 23/1/14 24/2/14 17/3/14
f 24/2/14 18/4/14 17/3/14
s 3
f 23/1/15 17/2/15 21/3/15
f 17/2/15 19/4/15 21/3/15
f 18/1/16 24/2/16 20/3/16
f 24/2/16 22/4/16 20/3/16
# 12 triangles in group

g Duplicate12
usemtl Material02
s 1
f 25/1/17 26/2/17 27/3/17
f 26/2/17 28/4/17 27/3/17
s 2
f 27/1/8 28/2/8 29/3/8
f 28/2/8 30/4/8 29/3/8
s 1
f 29/1/18 30/2/18 31/3/18
f 30/2/18 32/4/18 31/3/18
s 2
f 31/1/10 32/2/10 25/3/10
f 32/2/10 26/4/10 25/3/10
s 3
f 31/1/19 25/2/19 29/3/19
f 25/2/19 27/4/19 29/3/19
f 26/1/20 32/2/20 28/3/20
f 32/2/20 30/4/20 28/3/20
# 12 triangles in group

g Duplicate13
usemtl Material02
s 1
f 33/1/21 34/2/21 35/3/21
f 34/2/21 36/4/21 35/3/21
s 2
f 35/1/8 36/2/8 37/3/8
f 36/2/8 38/4/8 37/3/8
s 1
f 37/1/22 38/2/22 39/3/22
f 38/2/22 40/4/22 39/3/22
s 2
f 39/1/10 40/2/10 33/3/10
f 40/2/10 34/4/10 33/3/10
s 3
f 39/1/23 33/2/23 37/3/23
f 33/2/23 35/4/23 37/3/23
f 34/1/24 40/2/24 36/3/24
f 40/2/24 38/4/24 36/3/24
# 12 triangles in group

g Duplicate01
usemtl Material02
s 1
f 41/1/25 42/2/25 43/3/25
f 42/2/25 44/4/25 43/3/25
s 2
f 43/1/8 44/2/8 45/3/8
f 44/2/8 46/4/8 45/3/8
s 1
f 45/1/26 46/2/26 47/3/26
f 46/2/26 48/4/26 47/3/26
s 2
f 47/1/10 48/2/10 41/3/10
f 48/2/10 42/4/10 41/3/10
s 3
f 47/1/27 41/2/27 45/3/27
f 41/2/27 43/4/27 45/3/27
f 42/1/28 48/2/28 44/3/28
f 48/2/28 46/4/28 44/3/28
# 12 triangles in group

g Duplicate02
usemtl Material02
s 1
f 49/1/29 50/2/29 51/3/29
f 50/2/29 52/4/29 51/3/29
s 2
f 51/1/8 52/2/8 53/3/8
f 52/2/8 54/4/8 53/3/8
s 1
f 53/1/30 54/2/30 55/3/30
f 54/2/30 56/4/30 55/3/30
s 2
f 55/1/10 56/2/10 49/3/10
f 56/2/10 50/4/10 49/3/10
s 3
f 55/1/31 49/2/31 53/3/31
f 49/2/31 51/4/31 53/3/31
f 50/1/32 56/2/32 52/3/32
f 56/2/32 54/4/32 52/3/32
# 12 triangles in group

g Duplicate03
usemtl Material02
s 1
f 57/1/33 58/2/34 59/3/34
f 58/2/34 60/4/35 59/3/34
s 2
f 59/1/36 60/2/37 61/3/37
f 60/2/37 62/4/38 61/3/37
s 1
f 61/1/39 62/2/40 63/3/40
f 62/2/40 64/4/41 63/3/40
s 2
f 63/1/42 64/2/43 57/3/43
f 64/2/43 58/4/44 57/3/43
s 3
f 63/1/45 57/2/45 61/3/45
f 57/2/45 59/4/45 61/3/45
f 58/1/46 64/2/47 60/3/47
f 64/2/47 62/4/48 60/3/47
# 12 triangles in group

g Duplicate04
usemtl Material02
s 1
f 65/1/49 66/2/50 67/3/50
f 66/2/50 68/4/51 67/3/50
s 2
f 67/1/52 68/2/53 69/3/53
f 68/2/53 70/4/54 69/3/53
s 1
f 69/1/55 70/2/56 71/3/56
f 70/2/56 72/4/57 71/3/56
s 2
f 71/1/58 72/2/59 65/3/59
f 72/2/59 66/4/60 65/3/59
s 3
f 71/1/61 65/2/61 69/3/61
f 65/2/61 67/4/61 69/3/61
f 66/1/62 72/2/63 68/3/63
f 72/2/63 70/4/64 68/3/63
# 12 triangles in group

g Duplicate05
usemtl Material02
s 1
f 73/1/65 74/2/66 75/3/66
f 74/2/66 76/4/67 75/3/66
s 2
f 75/1/68 76/2/69 77/3/69
f 76/2/69 78/4/70 77/3/69
s 1
f 77/1/71 78/2/72 79/3/72
f 78/2/72 80/4/73 79/3/72
s 2
f 79/1/74 80/2/75 73/3/75
f 80/2/75 74/4/76 73/3/75
s 3
f 79/1/77 73/2/77 77/3/77
f 73/2/77 75/4/77 77/3/77
f 74/1/78 80/2/78 76/3/78
f 80/2/78 78/4/78 76/3/78
# 12 triangles in group

g Duplicate06
usemtl Material02
s 1
f 81/1/79 82/2/80 83/3/80
f 82/2/80 84/4/81 83/3/80
s 2
f 83/1/82 84/2/83 85/3/83
f 84/2/83 86/4/84 85/3/83
s 1
f 85/1/85 86/2/86 87/3/86
f 86/2/86 88/4/87 87/3/86
s 2
f 87/1/88 88/2/89 81/3/89
f 88/2/89 82/4/90 81/3/89
s 3
f 87/1/91 81/2/91 85/3/91
f 81/2/91 83/4/91 85/3/91
f 82/1/92 88/2/92 84/3/92
f 88/2/92 86/4/92 84/3/92
# 12 triangles in group

g Box01
usemtl Material02
s 1
f 89/5/93 90/6/94 91/7/94
f 90/6/94 92/8/95 91/7/94
s 2
f 91/5/96 92/6/97 93/7/97
f 92/6/97 94/8/98 93/7/97
s 1
f 93/5/99 94/6/100 95/7/100
f 94/6/100 96/8/101 95/7/100
s 2
f 95/5/102 96/6/103 89/7/103
f 96/6/103 90/8/104 89/7/103
s 3
f 95/5/105 89/6/105 93/7/105
f 89/6/105 91/8/105 93/7/105
f 90/5/8 96/6/8 92/7/8
f 96/6/8 94/8/8 92/7/8
# 12 triangles in group

g Duplicate01
usemtl Material02
s 1
f 97/5/106 98/6/107 99/7/107
f 98/6/107 100/8/108 99/7/107
s 2
f 99/5/109 100/6/110 101/7/110
f 100/6/110 102/8/111 101/7/110
s 1
f 101/5/112 102/6/113 103/7/113
f 102/6/113 104/8/114 103/7/113
s 2
f 103/5/115 104/6/116 97/7/116
f 104/6/116 98/8/117 97/7/116
s 3
f 103/5/105 97/6/105 101/7/105
f 97/6/105 99/8/105 101/7/105
f 98/5/8 104/6/8 100/7/8
f 104/6/8 102/8/8 100/7/8
# 12 triangles in group

g Duplicate02
usemtl Material02
s 1
f 105/5/118 106/6/118 107/7/118
f 106/6/118 108/8/118 107/7/118
s 2
f 107/5/119 108/6/119 109/7/119
f 108/6/119 110/8/119 109/7/119
s 1
f 109/5/120 110/6/120 111/7/120
f 110/6/120 112/8/120 111/7/120
s 2
f 111/5/121 112/6/121 105/7/121
f 112/6/121 106/8/121 105/7/121
s 3
f 111/5/10 105/6/10 109/7/10
f 105/6/10 107/8/10 109/7/10
f 106/5/8 112/6/8 108/7/8
f 112/6/8 110/8/8 108/7/8
# 12 triangles in group

g Duplicate03
usemtl Material02
s 1
f 113/5/122 114/6/122 115/7/122
f 114/6/122 116/8/122 115/7/122
s 2
f 115/5/123 116/6/123 117/7/123
f 116/6/123 118/8/123 117/7/123
s 1
f 117/5/124 118/6/124 119/7/124
f 118/6/124 120/8/124 119/7/124
s 2
f 119/5/125 120/6/125 113/7/125
f 120/6/125 114/8/125 113/7/125
s 3
f 119/5/10 113/6/10 117/7/10
f 113/6/10 115/8/10 117/7/10
f 114/5/8 120/6/8 116/7/8
f 120/6/8 118/8/8 116/7/8
# 12 triangles in group

g Duplicate04
usemtl Material02
s 1
f 121/5/126 122/6/126 123/7/126
f 122/6/126 124/8/126 123/7/126
s 2
f 123/5/127 124/6/127 125/7/127
f 124/6/127 126/8/127 125/7/127
s 1
f 125/5/128 126/6/128 127/7/128
f 126/6/128 128/8/128 127/7/128
s 2
f 127/5/129 128/6/129 121/7/129
f 128/6/129 122/8/129 121/7/129
s 3
f 127/5/130 121/6/130 125/7/130
f 121/6/130 123/8/130 125/7/130
f 122/5/131 128/6/131 124/7/131
f 128/6/131 126/8/131 124/7/131
# 12 triangles in group

g Duplicate05
usemtl Material02
s 1
f 129/5/132 130/6/132 131/7/132
f 130/6/132 132/8/132 131/7/132
s 2
f 131/5/133 132/6/133 133/7/133
f 132/6/133 134/8/133 133/7/133
s 1
f 133/5/134 134/6/134 135/7/134
f 134/6/134 136/8/134 135/7/134
s 2
f 135/5/135 136/6/135 129/7/135
f 136/6/135 130/8/135 129/7/135
s 3
f 135/5/136 129/6/136 133/7/136
f 129/6/136 131/8/136 133/7/136
f 130/5/137 136/6/137 132/7/137
f 136/6/137 134/8/137 132/7/137
# 12 triangles in group

g Duplicate09
usemtl leaf
f 140/9/138 137/10/139 139/11/139
f 137/10/139 138/12/140 139/11/139
# 2 triangles in group

# 206 triangles total

