# Wavefront OBJ exported by MilkShape 3D

mtllib tree02.mtl

v 12.218008 -16.576635 0.134734
v 8.540254 6.515438 0.379149
v 5.168845 48.580185 3.699076
v -0.527845 77.795944 20.562901
v 9.804722 -16.576635 8.179790
v 6.829358 5.190454 5.721014
v 4.214954 47.896408 6.738111
v 3.486660 -16.576635 13.151911
v 2.350171 4.371571 9.022465
v 1.717630 47.473801 8.616330
v -4.322895 -16.576635 13.151911
v -3.186407 4.371571 9.022465
v -1.369228 47.473801 8.616330
v -10.640957 -16.576635 8.179790
v -7.665594 5.190454 5.721014
v -3.866550 47.896408 6.738111
v -13.054243 -16.576635 0.134734
v -9.376491 6.515438 0.379149
v -4.820444 48.580185 3.699076
v -10.640957 -16.576635 -7.910322
v -7.665594 7.840421 -4.962717
v -3.866550 49.263977 0.660041
v -4.322895 -16.576635 -12.882440
v -3.186407 8.659304 -8.264172
v -1.369228 49.686577 -1.218184
v 3.486660 -16.576635 -12.882440
v 2.350171 8.659304 -8.264172
v 1.717630 49.686577 -1.218184
v 9.804722 -16.576635 -7.910322
v 6.829358 7.840421 -4.962717
v 4.214954 49.263977 0.660041
v -1.241502 70.186600 -9.036695
v 1.700069 52.065666 5.749153
v 3.424106 46.960114 1.203126
v -2.124611 45.311279 0.022572
v -3.848650 49.481186 6.279479
v 0.192487 64.128799 -6.219974
v 0.192487 29.808813 -6.219974
v -2.833885 64.128799 -6.219974
v -2.833885 29.808813 -6.219974
v 0.919206 59.580544 -3.206934
v 0.919206 39.970924 -3.206934
v -0.740036 59.580544 -4.772495
v -0.740036 39.970924 -4.772495
v 0.919206 56.773628 12.435425
v 0.919206 37.164017 12.435425
v -0.740036 56.773628 10.869864
v -0.740036 37.164017 10.869864
v 0.766093 72.845673 17.432106
v 0.766093 40.428528 17.432106
v -1.376681 72.845673 19.071434
v -1.376681 40.428528 19.071434
v -0.960213 59.956924 12.397259
v -0.960213 43.960892 12.397259
v -0.637572 61.738007 20.501181
v 10.040558 -2.003812 -4.331169
v 13.800865 11.535847 -4.331172
v 8.491521 -1.181943 5.639394
v 12.251832 12.357716 5.639399
v 4.316342 1.033258 -0.210621
v 8.076652 14.572914 -0.210615
v 14.215733 -4.219007 1.518840
v 17.976051 9.320651 1.518843
v 6.397560 -7.056411 1.037195
v 10.460860 13.840000 7.323344
v 4.723708 -10.347452 10.727090
v 8.787012 10.548967 17.013256
v 0.212108 -4.253455 6.294106
v 4.275410 16.642952 12.580261
v 10.909155 -13.150389 5.470185
v 14.972471 7.746016 11.756337
v -9.956762 -9.247905 -7.965816
v -13.660800 5.650084 -13.263927
v -5.170625 -4.028827 -4.186454
v -8.874664 10.869195 -9.484566
v -10.837167 -4.122975 -3.093549
v -14.541195 10.775027 -8.391653
v -4.290235 -9.153743 -9.058725
v -7.994259 5.744255 -14.356835
# 79 vertices

vt -0.850829 0.138614
vt -0.850829 1.009598
vt -0.702426 0.138614
vt -0.702426 1.009598
vt -0.850829 1.880581
vt -0.702426 1.880581
vt -0.850829 2.751564
vt -0.554023 1.009598
vt -0.554023 0.138614
vt -0.554023 1.880581
vt -0.554023 2.751564
vt -0.405621 0.138614
vt -0.405621 1.009598
vt -0.405621 1.880581
vt -0.257218 1.009598
vt -0.257218 0.138614
vt -0.257218 1.880581
vt -0.257218 2.751564
vt -0.108815 0.138614
vt -0.108815 1.009598
vt -0.108815 1.880581
vt 0.039587 1.009598
vt 0.039587 0.138614
vt 0.039587 1.880581
vt 0.039587 2.751564
vt 0.187990 0.138614
vt 0.187990 1.009598
vt 0.187990 1.880581
vt 0.336393 1.009598
vt 0.336393 0.138614
vt 0.336393 1.880581
vt 0.336393 2.751564
vt 0.484796 0.138614
vt 0.484796 1.009598
vt 0.484796 1.880581
vt 0.633198 1.009598
vt 0.633198 0.138614
vt 0.633198 1.880581
vt 0.633198 2.751564
vt 0.084064 0.919197
vt 0.886553 0.919197
vt 0.485309 0.508399
vt 0.886553 0.097601
vt 0.084064 0.097601
vt 0.001831 1.002879
vt 0.001831 -0.000503
vt 0.131758 1.002879
vt 0.131758 -0.000503
vt 0.984965 0.562523
vt 0.693484 0.226710
vt 0.693484 0.562523
vt 0.984965 0.226710
vt 0.158643 0.644562
vt 0.158643 0.319834
vt 0.401255 0.644562
vt 0.401255 0.319834
# 56 texture coordinates

vn 0.987554 0.157281 0.000134
vn 0.992651 0.119685 0.017862
vn 0.798010 0.174545 0.576814
vn 0.796136 0.105291 0.595886
vn 0.991944 0.123187 0.029515
vn 0.816416 -0.018322 0.577174
vn 0.819169 0.545384 0.177534
vn 0.312093 0.104692 0.944266
vn 0.320885 0.199905 0.925781
vn 0.323453 -0.158608 0.932857
vn -0.307284 0.196300 0.931151
vn -0.302540 0.111809 0.946556
vn -0.319774 -0.099484 0.942257
vn -0.803824 0.116356 0.583377
vn -0.814161 0.173867 0.553996
vn -0.820624 -0.051496 0.569144
vn -0.987039 0.159512 0.017580
vn -0.990885 0.131311 0.030074
vn -0.993283 0.112671 0.026356
vn -0.818515 0.159204 -0.551985
vn -0.815357 0.166302 -0.554560
vn -0.812812 0.283702 -0.508774
vn -0.320514 0.184104 -0.929181
vn -0.318974 0.179311 -0.930647
vn -0.320658 0.321150 -0.891090
vn 0.320489 0.174620 -0.931018
vn 0.321931 0.184440 -0.928624
vn 0.317854 0.394691 -0.862084
vn 0.816599 0.167641 -0.552324
vn 0.818747 0.146914 -0.555041
vn 0.817078 0.234839 -0.526530
vn 0.966211 0.237861 0.099290
vn -0.020640 0.811964 -0.583342
vn 0.290576 -0.336526 -0.895721
vn 0.284655 0.869954 -0.402681
vn -0.970969 -0.050667 -0.233776
vn -0.204814 0.598628 0.774400
vn 0.333877 -0.561446 0.757169
vn 0.230569 -0.698645 0.677298
vn 0.118988 -0.810780 0.573129
vn 0.000000 0.000000 -1.000000
vn 0.686276 0.000000 -0.727342
vn 0.607622 0.000000 0.794226
vn 0.999235 -0.003368 -0.038955
vn 0.998601 0.000000 -0.052876
vn 0.999664 -0.006735 -0.025026
vn 0.949626 -0.263735 0.169274
vn 0.150401 -0.041770 -0.987742
vn 0.971581 -0.217218 0.094058
vn 0.142384 0.259646 -0.955150
vn 0.676704 -0.091553 -0.730541
vn -0.765149 -0.376084 -0.522597
# 52 normals

g Cylinder05
usemtl wood
s 1
f 1/1/1 2/2/2 5/3/3
f 2/2/2 6/4/4 5/3/3
f 2/2/2 3/5/5 7/6/6
f 2/2/2 7/6/6 6/4/4
f 3/5/5 4/7/7 7/6/6
f 5/3/3 6/4/4 9/8/8
f 5/3/3 9/8/8 8/9/9
f 6/4/4 7/6/6 9/8/8
f 7/6/6 10/10/10 9/8/8
f 7/6/6 4/11/7 10/10/10
f 8/9/9 9/8/8 11/12/11
f 9/8/8 12/13/12 11/12/11
f 9/8/8 10/10/10 13/14/13
f 9/8/8 13/14/13 12/13/12
f 10/10/10 4/11/7 13/14/13
f 11/12/11 12/13/12 15/15/14
f 11/12/11 15/15/14 14/16/15
f 12/13/12 13/14/13 15/15/14
f 13/14/13 16/17/16 15/15/14
f 13/14/13 4/18/7 16/17/16
f 14/16/15 15/15/14 17/19/17
f 15/15/14 18/20/18 17/19/17
f 15/15/14 16/17/16 19/21/19
f 15/15/14 19/21/19 18/20/18
f 16/17/16 4/18/7 19/21/19
f 17/19/17 18/20/18 21/22/20
f 17/19/17 21/22/20 20/23/21
f 18/20/18 19/21/19 21/22/20
f 19/21/19 22/24/22 21/22/20
f 19/21/19 4/25/7 22/24/22
f 20/23/21 21/22/20 23/26/23
f 21/22/20 24/27/24 23/26/23
f 21/22/20 22/24/22 25/28/25
f 21/22/20 25/28/25 24/27/24
f 22/24/22 4/25/7 25/28/25
f 23/26/23 24/27/24 27/29/26
f 23/26/23 27/29/26 26/30/27
f 24/27/24 25/28/25 27/29/26
f 25/28/25 28/31/28 27/29/26
f 25/28/25 4/32/7 28/31/28
f 26/30/27 27/29/26 29/33/29
f 27/29/26 30/34/30 29/33/29
f 27/29/26 28/31/28 31/35/31
f 27/29/26 31/35/31 30/34/30
f 28/31/28 4/32/7 31/35/31
f 29/33/29 30/34/30 2/36/2
f 29/33/29 2/36/2 1/37/1
f 30/34/30 31/35/31 2/36/2
f 31/35/31 3/38/5 2/36/2
f 31/35/31 4/39/7 3/38/5
# 50 triangles in group

g Box01
usemtl wood
f 33/40/32 34/41/32 32/42/33
s 2
f 34/41/34 35/43/34 32/42/35
s 1
f 35/43/36 36/44/36 32/42/33
s 2
f 36/44/37 33/40/37 32/42/35
s 3
f 33/40/38 36/44/39 34/41/39
f 36/44/39 35/43/40 34/41/39
# 6 triangles in group

g Box02
usemtl liana
s 1
f 37/45/41 38/46/41 39/47/41
f 38/46/41 40/48/41 39/47/41
# 2 triangles in group

g Duplicate04
usemtl liana
f 41/45/42 42/46/42 43/47/42
f 42/46/42 44/48/42 43/47/42
# 2 triangles in group

g Duplicate05
usemtl liana
f 45/45/42 46/46/42 47/47/42
f 46/46/42 48/48/42 47/47/42
# 2 triangles in group

g Duplicate06
usemtl liana
f 51/47/43 50/46/43 49/45/43
f 51/47/43 52/48/43 50/46/43
# 2 triangles in group

g Duplicate07
usemtl liana
f 4/49/7 54/50/44 53/51/45
f 4/49/7 55/52/46 54/50/44
# 2 triangles in group

g Duplicate08
usemtl liana
f 56/53/47 57/54/47 58/55/47
f 57/54/47 59/56/47 58/55/47
# 2 triangles in group

g Duplicate09
usemtl liana
f 60/53/48 61/54/48 62/55/48
f 61/54/48 63/56/48 62/55/48
# 2 triangles in group

g Duplicate10
usemtl liana
f 64/53/49 65/54/49 66/55/49
f 65/54/49 67/56/49 66/55/49
f 68/53/50 69/54/50 70/55/50
f 69/54/50 71/56/50 70/55/50
# 4 triangles in group

g Duplicate11
usemtl liana
f 72/53/51 73/54/51 74/55/51
f 73/54/51 75/56/51 74/55/51
f 76/53/52 77/54/52 78/55/52
f 77/54/52 79/56/52 78/55/52
# 4 triangles in group

# 78 triangles total

