# Wavefront OBJ exported by MilkShape 3D

mtllib trunk.mtl

v 3.542172 0.720795 -14.995203
v 4.056817 1.795244 -6.651423
v 3.491675 0.898822 6.175595
v 3.929672 0.720796 15.645422
v 3.065936 -1.131685 -14.995201
v 4.186235 -0.110520 -6.552407
v 3.292092 -0.998086 6.318392
v 3.453436 -1.131685 15.645422
v 1.764836 -2.487795 -14.995203
v 3.394918 -1.793531 -6.281889
v 2.210396 -2.534902 6.323362
v 2.152336 -2.487795 15.645428
v -0.012500 -2.984168 -14.995201
v 1.894896 -2.802834 -5.912364
v 0.536426 -3.299839 6.189182
v 0.375000 -2.984168 15.645418
v -1.789836 -2.487795 -14.995203
v 0.088100 -2.867981 -5.542833
v -1.281279 -3.087929 5.951798
v -1.402336 -2.487795 15.645428
v -3.090936 -1.131685 -14.995201
v -1.541340 -1.971522 -5.272322
v -2.755666 -1.955957 5.674823
v -2.703436 -1.131685 15.645422
v -3.567173 0.720795 -14.995203
v -2.556817 -0.353656 -5.173306
v -3.491675 -0.207231 5.432467
v -3.179672 0.720796 15.645422
v -3.090936 2.573276 -14.995201
v -2.686236 1.552107 -5.272321
v -3.292092 1.689677 5.289668
v -2.703436 2.573276 15.645422
v -1.789836 3.929386 -14.995199
v -1.894917 3.235120 -5.542834
v -2.210396 3.226493 5.284695
v -1.402336 3.929388 15.645420
v -0.012500 4.425756 -14.995197
v -0.394896 4.244424 -5.912361
v -0.536426 3.991429 5.418877
v 0.375000 4.425756 15.645420
v 1.764836 3.929386 -14.995199
v 1.411900 4.309570 -6.281891
v 1.281279 3.779520 5.656260
v 2.152336 3.929388 15.645420
v 3.065936 2.573276 -14.995201
v 3.041340 3.413109 -6.552405
v 2.755666 2.647547 5.933237
v 3.453436 2.573276 15.645422
v 0.375000 0.720796 15.645422
v -0.025000 0.720796 -14.986650
# 50 vertices

vt 0.000000 0.000000
vt 0.000000 0.333333
vt 0.083333 0.000000
vt 0.083333 0.333333
vt 0.000000 0.666667
vt 0.083333 0.666667
vt 0.000000 1.000000
vt 0.083333 1.000000
vt 0.166667 0.333333
vt 0.166667 0.000000
vt 0.166667 0.666667
vt 0.166667 1.000000
vt 0.250000 0.000000
vt 0.250000 0.333333
vt 0.250000 0.666667
vt 0.250000 1.000000
vt 0.333333 0.333333
vt 0.333333 0.000000
vt 0.333333 0.666667
vt 0.333333 1.000000
vt 0.416667 0.000000
vt 0.416667 0.333333
vt 0.416667 0.666667
vt 0.416667 1.000000
vt 0.500000 0.333333
vt 0.500000 0.000000
vt 0.500000 0.666667
vt 0.500000 1.000000
vt 0.583333 0.000000
vt 0.583333 0.333333
vt 0.583333 0.666667
vt 0.583333 1.000000
vt 0.666667 0.333333
vt 0.666667 0.000000
vt 0.666667 0.666667
vt 0.666667 1.000000
vt 0.750000 0.000000
vt 0.750000 0.333333
vt 0.750000 0.666667
vt 0.750000 1.000000
vt 0.833333 0.333333
vt 0.833333 0.000000
vt 0.833333 0.666667
vt 0.833333 1.000000
vt 0.916667 0.000000
vt 0.916667 0.333333
vt 0.916667 0.666667
vt 0.916667 1.000000
vt 1.000000 0.333333
vt 1.000000 0.000000
vt 1.000000 0.666667
vt 1.000000 1.000000
vt 1.000000 0.500000
vt 0.500000 0.500000
vt 0.933013 0.250000
vt 0.750000 0.066988
vt 0.250000 0.066988
vt 0.066987 0.250000
vt 0.000000 0.500000
vt 0.066987 0.750000
vt 0.250000 0.933013
vt 0.750000 0.933013
vt 0.933013 0.750000
# 63 texture coordinates

vn 0.998107 -0.000489 -0.061500
vn 0.980985 0.193819 -0.010126
vn 0.935591 -0.343482 -0.081792
vn 0.981972 -0.187336 -0.025216
vn 0.989123 0.146991 0.005486
vn 0.938529 -0.344929 0.013658
vn 0.996481 0.071142 -0.044325
vn 0.873429 -0.486451 -0.022077
vn 0.671835 -0.740521 -0.016328
vn 0.512938 -0.857982 -0.027597
vn 0.638934 -0.769178 0.011353
vn 0.577824 -0.816126 0.007670
vn 0.151749 -0.988353 -0.011439
vn 0.304084 -0.952337 -0.024253
vn 0.155373 -0.987806 0.009946
vn -0.000041 -0.999443 0.033363
vn -0.339811 -0.940453 -0.008758
vn -0.511542 -0.856628 0.067175
vn -0.375055 -0.926991 -0.004586
vn -0.448576 -0.892387 0.049234
vn -0.786306 -0.613603 0.072215
vn -0.687495 -0.726040 -0.014714
vn -0.790703 -0.612010 -0.015253
vn -0.872861 -0.485913 0.044743
vn -0.980786 -0.195082 0.000968
vn -0.994758 -0.000687 0.102253
vn -0.988794 -0.147829 -0.020821
vn -0.996806 -0.070796 0.036959
vn -0.936519 0.342509 0.074969
vn -0.982695 0.185229 0.001013
vn -0.938761 0.343904 -0.021420
vn -0.873584 0.486605 0.008138
vn -0.672957 0.739552 0.013849
vn -0.512785 0.856608 0.057216
vn -0.638281 0.769736 -0.010235
vn -0.577415 0.816385 -0.010334
vn -0.155638 0.987733 0.012656
vn -0.306824 0.951694 0.011735
vn -0.155211 0.987840 -0.009014
vn -0.000273 0.999100 -0.042408
vn 0.339808 0.940445 0.009694
vn 0.513451 0.857958 -0.016637
vn 0.376041 0.926602 -0.000902
vn 0.448309 0.892334 -0.052528
vn 0.785498 0.615951 -0.059971
vn 0.686059 0.727527 -0.005257
vn 0.791323 0.611396 0.001471
vn 0.872044 0.485867 -0.058936
vn 0.000000 0.000000 1.000000
vn -0.002077 0.001151 -0.999997
vn 0.000005 0.000000 -1.000000
vn -0.002398 0.000000 -0.999997
vn 0.000001 0.002308 -0.999997
vn 0.001206 0.002003 -0.999997
vn 0.002415 0.000000 -0.999997
vn 0.002090 -0.001156 -0.999997
vn 0.000001 -0.002307 -0.999997
vn -0.001201 -0.001995 -0.999997
# 58 normals

g Cylinder02
usemtl wood
s 1
f 1/1/1 2/2/2 5/3/3
f 2/2/2 6/4/4 5/3/3
f 2/2/2 3/5/5 7/6/6
f 2/2/2 7/6/6 6/4/4
f 3/5/5 4/7/7 7/6/6
f 4/7/7 8/8/8 7/6/6
f 5/3/3 6/4/4 10/9/9
f 5/3/3 10/9/9 9/10/10
f 6/4/4 7/6/6 10/9/9
f 7/6/6 11/11/11 10/9/9
f 7/6/6 8/8/8 12/12/12
f 7/6/6 12/12/12 11/11/11
f 9/10/10 10/9/9 13/13/13
f 10/9/9 14/14/14 13/13/13
f 10/9/9 11/11/11 15/15/15
f 10/9/9 15/15/15 14/14/14
f 11/11/11 12/12/12 15/15/15
f 12/12/12 16/16/16 15/15/15
f 13/13/13 14/14/14 18/17/17
f 13/13/13 18/17/17 17/18/18
f 14/14/14 15/15/15 18/17/17
f 15/15/15 19/19/19 18/17/17
f 15/15/15 16/16/16 20/20/20
f 15/15/15 20/20/20 19/19/19
f 17/18/18 18/17/17 21/21/21
f 18/17/17 22/22/22 21/21/21
f 18/17/17 19/19/19 23/23/23
f 18/17/17 23/23/23 22/22/22
f 19/19/19 20/20/20 23/23/23
f 20/20/20 24/24/24 23/23/23
f 21/21/21 22/22/22 26/25/25
f 21/21/21 26/25/25 25/26/26
f 22/22/22 23/23/23 26/25/25
f 23/23/23 27/27/27 26/25/25
f 23/23/23 24/24/24 28/28/28
f 23/23/23 28/28/28 27/27/27
f 25/26/26 26/25/25 29/29/29
f 26/25/25 30/30/30 29/29/29
f 26/25/25 27/27/27 31/31/31
f 26/25/25 31/31/31 30/30/30
f 27/27/27 28/28/28 31/31/31
f 28/28/28 32/32/32 31/31/31
f 29/29/29 30/30/30 34/33/33
f 29/29/29 34/33/33 33/34/34
f 30/30/30 31/31/31 34/33/33
f 31/31/31 35/35/35 34/33/33
f 31/31/31 32/32/32 36/36/36
f 31/31/31 36/36/36 35/35/35
f 33/34/34 34/33/33 37/37/37
f 34/33/33 38/38/38 37/37/37
f 34/33/33 35/35/35 39/39/39
f 34/33/33 39/39/39 38/38/38
f 35/35/35 36/36/36 39/39/39
f 36/36/36 40/40/40 39/39/39
f 37/37/37 38/38/38 42/41/41
f 37/37/37 42/41/41 41/42/42
f 38/38/38 39/39/39 42/41/41
f 39/39/39 43/43/43 42/41/41
f 39/39/39 40/40/40 44/44/44
f 39/39/39 44/44/44 43/43/43
f 41/42/42 42/41/41 45/45/45
f 42/41/41 46/46/46 45/45/45
f 42/41/41 43/43/43 47/47/47
f 42/41/41 47/47/47 46/46/46
f 43/43/43 44/44/44 47/47/47
f 44/44/44 48/48/48 47/47/47
f 45/45/45 46/46/46 2/49/2
f 45/45/45 2/49/2 1/50/1
f 46/46/46 47/47/47 2/49/2
f 47/47/47 3/51/5 2/49/2
f 47/47/47 48/48/48 4/52/7
f 47/47/47 4/52/7 3/51/5
# 72 triangles in group

g Duplicate01
usemtl stump
s 2
f 4/53/49 49/54/49 8/55/49
f 8/55/49 49/54/49 12/56/49
f 12/56/49 49/54/49 16/26/49
f 16/26/49 49/54/49 20/57/49
f 20/57/49 49/54/49 24/58/49
f 24/58/49 49/54/49 28/59/49
f 28/59/49 49/54/49 32/60/49
f 32/60/49 49/54/49 36/61/49
f 36/61/49 49/54/49 40/28/49
f 40/28/49 49/54/49 44/62/49
f 44/62/49 49/54/49 48/63/49
f 48/63/49 49/54/49 4/53/49
# 12 triangles in group

g Duplicate02
usemtl stump
f 5/55/50 50/54/51 1/53/52
f 9/56/50 50/54/51 5/55/50
f 13/26/53 50/54/51 9/56/50
f 17/57/54 50/54/51 13/26/53
f 21/58/54 50/54/51 17/57/54
f 25/59/55 50/54/51 21/58/54
f 29/60/56 50/54/51 25/59/55
f 33/61/56 50/54/51 29/60/56
f 37/28/57 50/54/51 33/61/56
f 41/62/58 50/54/51 37/28/57
f 45/63/58 50/54/51 41/62/58
f 1/53/52 50/54/51 45/63/58
# 12 triangles in group

# 96 triangles total

