# Wavefront OBJ exported by MilkShape 3D

mtllib watch.mtl

v 8.375000 2.750000 -0.125000
v 7.252963 2.750000 4.062500
v 4.187500 2.750000 7.127962
v 0.000000 2.750000 8.250000
v -4.187500 2.750000 7.127962
v -7.252963 2.750000 4.062500
v -8.375000 2.750000 -0.125000
v -7.252963 2.750000 -4.312500
v -4.187500 2.750000 -7.377962
v -0.000000 2.750000 -8.500000
v 4.187500 2.750000 -7.377962
v 7.252963 2.750000 -4.312500
v 0.000000 2.750000 -0.125000
v 9.646437 0.083333 -0.277779
v 10.805012 1.527778 -0.277779
v 9.646437 2.972222 -0.277779
v 8.354059 0.083333 4.606927
v 9.357415 1.527778 5.236596
v 8.354059 2.972222 4.606927
v 4.823218 0.083333 8.182775
v 5.402506 1.527778 9.273394
v 4.823218 2.972222 8.182775
v 0.000000 0.083333 9.491630
v 0.000000 1.527778 10.750967
v 0.000000 2.972222 9.491630
v -4.823218 0.083333 8.182775
v -5.402506 1.527778 9.273394
v -4.823218 2.972222 8.182775
v -8.354059 0.083333 4.606927
v -9.357415 1.527778 5.236596
v -8.354059 2.972222 4.606927
v -9.646437 0.083333 -0.277779
v -10.805012 1.527778 -0.277779
v -9.646437 2.972222 -0.277779
v -8.354059 0.083333 -5.162481
v -9.357415 1.527778 -5.792150
v -8.354059 2.972222 -5.162481
v -4.823218 0.083333 -8.738331
v -5.402506 1.527778 -9.828949
v -4.823218 2.972222 -8.738331
v 0.000000 0.083333 -10.047185
v 0.000000 1.527778 -11.306522
v 0.000000 2.972222 -10.047185
v 4.823218 0.083333 -8.738331
v 5.402506 1.527778 -9.828949
v 4.823218 2.972222 -8.738331
v 8.354059 0.083333 -5.162481
v 9.357415 1.527778 -5.792150
v 8.354059 2.972222 -5.162481
v 0.000000 1.854575 -0.277779
v 0.000000 0.083333 -0.277779
v -11.450747 1.275152 1.195891
v -11.450747 0.357587 0.041430
v -4.108079 1.275152 1.195891
v -4.108079 0.357587 0.041430
v -4.108079 2.261041 0.039128
v -4.108079 1.343475 -1.115331
v -11.450747 2.261041 0.039128
v -11.450747 1.343475 -1.115331
v 0.030063 1.509273 -1.859272
v 3.381624 1.509273 -12.267639
v 0.000641 1.509273 -14.601759
v -3.473452 1.509273 -12.163455
v 1.823715 2.358315 -12.068231
v -0.072340 2.358315 -13.394468
v -1.916253 2.358316 -12.036506
v 1.823718 0.660232 -12.068247
v -0.072338 0.660230 -13.394468
v -1.916254 0.660232 -12.036506
# 69 vertices

vt 1.000000 0.500000
vt 0.500000 0.500000
vt 0.933013 0.250000
vt 0.750000 0.066987
vt 0.500000 0.000000
vt 0.250000 0.066987
vt 0.066987 0.250000
vt 0.000000 0.500000
vt 0.066987 0.750000
vt 0.250000 0.933013
vt 0.500000 1.000000
vt 0.750000 0.933013
vt 0.933013 0.750000
vt 2.067689 -0.611512
vt 2.067689 -0.774333
vt 2.195962 -0.611512
vt 2.195962 -0.774333
vt 0.000000 0.000000
vt 0.000000 0.250000
vt 0.333333 0.250000
vt 0.333333 0.500000
vt 0.000000 0.750000
vt 0.333333 0.750000
vt 0.000000 1.000000
vt 0.666667 0.250000
vt 0.666667 0.000000
vt 0.666667 0.500000
vt 0.666667 0.750000
vt 0.666667 1.000000
vt 1.000000 0.250000
vt 1.000000 0.750000
# 31 texture coordinates

vn 0.000000 1.000000 0.000000
vn 0.000000 -1.000000 0.000000
vn -0.115091 0.993355 0.000000
vn -0.099675 0.993396 -0.056825
vn 0.778577 -0.627549 -0.000000
vn 1.000000 0.000000 -0.000000
vn 0.870012 0.000000 0.493030
vn 0.672148 -0.633774 0.382815
vn 0.778577 0.627549 -0.000000
vn 0.672148 0.633774 0.382815
vn -0.057552 0.993478 -0.098430
vn 0.385982 -0.648576 0.656024
vn 0.507761 0.000000 0.861498
vn 0.385982 0.648576 0.656024
vn 0.000000 0.993520 -0.113661
vn -0.000000 0.000000 1.000000
vn 0.000000 -0.657158 0.753753
vn 0.000000 0.657158 0.753753
vn 0.057552 0.993478 -0.098430
vn -0.385982 -0.648576 0.656024
vn -0.507761 0.000000 0.861498
vn -0.385982 0.648576 0.656024
vn 0.099675 0.993396 -0.056825
vn -0.870013 0.000000 0.493030
vn -0.672148 -0.633774 0.382815
vn -0.672148 0.633774 0.382815
vn 0.115091 0.993355 0.000000
vn -0.778577 -0.627549 -0.000000
vn -1.000000 0.000000 -0.000000
vn -0.778577 0.627549 -0.000000
vn 0.099675 0.993396 0.056825
vn -0.870012 -0.000000 -0.493030
vn -0.672148 -0.633774 -0.382815
vn -0.672148 0.633774 -0.382815
vn 0.057552 0.993478 0.098430
vn -0.385982 -0.648576 -0.656024
vn -0.507761 0.000000 -0.861498
vn -0.385982 0.648576 -0.656024
vn 0.000000 0.993520 0.113661
vn 0.000000 0.000000 -1.000000
vn 0.000000 -0.657158 -0.753753
vn 0.000000 0.657158 -0.753753
vn -0.057552 0.993478 0.098430
vn 0.385982 -0.648576 -0.656024
vn 0.507761 0.000000 -0.861498
vn 0.385982 0.648576 -0.656024
vn -0.099675 0.993396 0.056825
vn 0.870012 0.000000 -0.493030
vn 0.672148 -0.633774 -0.382815
vn 0.672148 0.633774 -0.382815
vn 0.000000 -0.782850 0.622210
vn 0.000000 0.782850 -0.622210
vn 0.000000 0.761081 0.648656
vn 0.000000 -0.761081 -0.648657
vn 0.064800 -0.000007 0.997898
vn 0.814680 -0.307649 -0.491578
vn -0.348578 0.910835 0.221070
vn -0.048925 0.436829 -0.898213
vn -0.008165 0.941645 0.336508
vn -0.837501 -0.288829 -0.463865
vn 0.368547 0.911769 0.181248
vn -0.393005 -0.905438 0.160401
vn 0.011772 -0.939391 0.342645
vn 0.408313 -0.901463 0.143683
# 64 normals

g Cylinder02
usemtl dial
s 2
f 1/1/1 13/2/1 2/3/1
f 2/3/1 13/2/1 3/4/1
f 3/4/1 13/2/1 4/5/1
f 4/5/1 13/2/1 5/6/1
f 5/6/1 13/2/1 6/7/1
f 6/7/1 13/2/1 7/8/1
f 7/8/1 13/2/1 8/9/1
f 8/9/1 13/2/1 9/10/1
f 9/10/1 13/2/1 10/11/1
f 10/11/1 13/2/1 11/12/1
f 11/12/1 13/2/1 12/13/1
f 12/13/1 13/2/1 1/1/1
# 12 triangles in group

g Cylinder05
usemtl gold
f 14/1/2 17/3/2 51/2/2
f 16/1/3 50/2/1 19/3/4
s 1
f 14/1/5 15/1/6 18/3/7
f 14/1/5 18/3/7 17/3/8
f 15/1/6 16/1/9 18/3/7
f 16/1/9 19/3/10 18/3/7
s 2
f 17/3/2 20/4/2 51/2/2
f 19/3/4 50/2/1 22/4/11
s 1
f 17/3/8 18/3/7 20/4/12
f 18/3/7 21/4/13 20/4/12
f 18/3/7 19/3/10 22/4/14
f 18/3/7 22/4/14 21/4/13
s 2
f 20/4/2 23/5/2 51/2/2
f 22/4/11 50/2/1 25/5/15
s 1
f 20/4/12 21/4/13 24/5/16
f 20/4/12 24/5/16 23/5/17
f 21/4/13 22/4/14 24/5/16
f 22/4/14 25/5/18 24/5/16
s 2
f 23/5/2 26/6/2 51/2/2
f 25/5/15 50/2/1 28/6/19
s 1
f 23/5/17 24/5/16 26/6/20
f 24/5/16 27/6/21 26/6/20
f 24/5/16 25/5/18 28/6/22
f 24/5/16 28/6/22 27/6/21
s 2
f 26/6/2 29/7/2 51/2/2
f 28/6/19 50/2/1 31/7/23
s 1
f 26/6/20 27/6/21 30/7/24
f 26/6/20 30/7/24 29/7/25
f 27/6/21 28/6/22 30/7/24
f 28/6/22 31/7/26 30/7/24
s 2
f 29/7/2 32/8/2 51/2/2
f 31/7/23 50/2/1 34/8/27
s 1
f 29/7/25 30/7/24 32/8/28
f 30/7/24 33/8/29 32/8/28
f 30/7/24 31/7/26 34/8/30
f 30/7/24 34/8/30 33/8/29
s 2
f 32/8/2 35/9/2 51/2/2
f 34/8/27 50/2/1 37/9/31
s 1
f 32/8/28 33/8/29 36/9/32
f 32/8/28 36/9/32 35/9/33
f 33/8/29 34/8/30 36/9/32
f 34/8/30 37/9/34 36/9/32
s 2
f 35/9/2 38/10/2 51/2/2
f 37/9/31 50/2/1 40/10/35
s 1
f 35/9/33 36/9/32 38/10/36
f 36/9/32 39/10/37 38/10/36
f 36/9/32 37/9/34 40/10/38
f 36/9/32 40/10/38 39/10/37
s 2
f 38/10/2 41/11/2 51/2/2
f 40/10/35 50/2/1 43/11/39
s 1
f 38/10/36 39/10/37 42/11/40
f 38/10/36 42/11/40 41/11/41
f 39/10/37 40/10/38 42/11/40
f 40/10/38 43/11/42 42/11/40
s 2
f 41/11/2 44/12/2 51/2/2
f 43/11/39 50/2/1 46/12/43
s 1
f 41/11/41 42/11/40 44/12/44
f 42/11/40 45/12/45 44/12/44
f 42/11/40 43/11/42 46/12/46
f 42/11/40 46/12/46 45/12/45
s 2
f 44/12/2 47/13/2 51/2/2
f 46/12/43 50/2/1 49/13/47
s 1
f 44/12/44 45/12/45 48/13/48
f 44/12/44 48/13/48 47/13/49
f 45/12/45 46/12/46 48/13/48
f 46/12/46 49/13/50 48/13/48
s 2
f 47/13/2 14/1/2 51/2/2
f 49/13/47 50/2/1 16/1/3
s 1
f 47/13/49 48/13/48 14/1/5
f 48/13/48 15/1/6 14/1/5
f 48/13/48 49/13/50 16/1/9
f 48/13/48 16/1/9 15/1/6
# 72 triangles in group

g Box01
usemtl gold
f 52/14/51 53/15/51 54/16/51
f 53/15/51 55/17/51 54/16/51
s 2
f 54/14/6 55/15/6 56/16/6
f 55/15/6 57/17/6 56/16/6
s 1
f 56/14/52 57/15/52 58/16/52
f 57/15/52 59/17/52 58/16/52
s 2
f 58/14/29 59/15/29 52/16/29
f 59/15/29 53/17/29 52/16/29
s 3
f 58/14/53 52/15/53 56/16/53
f 52/15/53 54/17/53 56/16/53
f 53/14/54 59/15/54 55/16/54
f 59/15/54 57/17/54 55/16/54
# 12 triangles in group

g Cylinder06
usemtl gold
s 1
f 60/18/55 61/19/56 64/20/57
f 61/19/56 62/8/58 64/20/57
f 62/8/58 65/21/59 64/20/57
f 62/8/58 63/22/60 66/23/61
f 62/8/58 66/23/61 65/21/59
f 63/22/60 60/24/55 66/23/61
f 64/20/57 67/25/62 60/26/55
f 64/20/57 65/21/59 68/27/63
f 64/20/57 68/27/63 67/25/62
f 65/21/59 66/23/61 68/27/63
f 66/23/61 69/28/64 68/27/63
f 66/23/61 60/29/55 69/28/64
f 60/26/55 67/25/62 61/30/56
f 67/25/62 68/27/63 61/30/56
f 68/27/63 62/1/58 61/30/56
f 68/27/63 69/28/64 63/31/60
f 68/27/63 63/31/60 62/1/58
f 69/28/64 60/29/55 63/31/60
# 18 triangles in group

# 114 triangles total

