# Wavefront OBJ exported by MilkShape 3D

mtllib waterrock.mtl

v 0.000000 3.000000 0.500000
v 17.465590 -20.125000 1.529879
v 15.356287 -20.125000 11.574579
v 8.231371 -20.125000 16.810484
v -0.101326 -20.125000 17.032364
v -7.534426 -20.125000 14.779362
v -16.274355 -20.125000 8.285519
v -18.266048 -20.125000 -0.122811
v -12.975832 -20.125000 -8.192614
v -7.534426 -20.125000 -14.347940
v -0.101326 -20.125000 -16.600946
v 11.600388 -20.125000 -16.768045
v 16.230001 -20.125000 -9.817699
v 14.075793 1.750000 1.210670
v 12.582095 3.250000 7.993678
v 6.610703 1.750000 11.524424
v -0.021621 1.750000 11.389740
v -8.911757 1.750000 9.665049
v -13.147143 3.250000 5.678804
v -14.697402 1.750000 0.233491
v -10.042651 1.750000 -4.946196
v -5.807265 1.750000 -8.932442
v -0.021621 1.750000 -10.391510
v 8.329978 1.750000 -10.746319
v 13.063602 1.750000 -6.509714
v 11.127800 6.875000 0.978579
v 10.082410 8.375000 6.708254
v 5.188380 6.875000 9.687500
v 0.000000 6.875000 9.376760
v -7.188380 8.375000 7.937500
v -10.437500 8.375000 4.688380
v -11.626760 6.875000 0.250000
v -7.687500 6.875000 -3.938379
v -4.438380 8.125000 -6.937500
v -0.000000 8.125000 -8.126760
v 6.552506 8.125000 -8.751812
v 10.317816 6.875000 -5.582117
v 7.412552 3.876760 0.456435
v 7.125982 5.376760 4.398438
v 5.007287 5.376760 5.994990
v 0.000000 5.376760 5.625000
v -2.562500 5.376760 4.938380
v -7.188380 3.876760 2.812500
v -7.875000 3.876760 0.250000
v -4.438380 3.876760 -2.062500
v -2.562500 3.876760 -3.938379
v -0.000000 3.876760 -4.625000
v 5.492692 3.876760 -4.295383
v 7.089245 3.876760 -2.176685
v 7.666666 6.250000 7.583333
v 3.083332 6.250000 8.750000
v -2.833332 6.250000 8.750000
v -8.583333 6.250000 5.583334
v 10.000000 6.250000 3.333333
v 3.083332 6.250000 3.500000
v -2.833332 6.250000 3.500000
v -10.250000 6.250000 4.166667
v 10.000000 6.250000 -1.916667
v 3.083332 6.250000 -1.750000
v -2.833332 6.250000 -1.750000
v -10.583330 6.250000 -0.500000
v 8.250000 6.250000 -6.083333
v 3.083332 6.250000 -7.000000
v -2.833332 6.250000 -7.000000
v -5.916666 6.250000 -5.333333
# 65 vertices

vt 0.000000 1.000000
vt 0.083333 0.833333
vt 0.000000 0.833333
vt 0.083333 1.000000
vt 0.166667 0.833333
vt 0.166667 1.000000
vt 0.250000 0.833333
vt 0.250000 1.000000
vt 0.333333 0.833333
vt 0.333333 1.000000
vt 0.416667 0.833333
vt 0.416667 1.000000
vt 0.500000 0.833333
vt 0.500000 1.000000
vt 0.583333 0.833333
vt 0.583333 1.000000
vt 0.666667 0.833333
vt 0.666667 1.000000
vt 0.750000 0.833333
vt 0.750000 1.000000
vt 0.833333 0.833333
vt 0.833333 1.000000
vt 0.916667 0.833333
vt 0.916667 1.000000
vt 1.000000 0.833333
vt 0.000000 0.333333
vt 0.000000 0.500000
vt 0.083333 0.333333
vt 0.083333 0.500000
vt 0.166667 0.500000
vt 0.166667 0.333333
vt 0.250000 0.333333
vt 0.250000 0.500000
vt 0.333333 0.500000
vt 0.333333 0.333333
vt 0.416667 0.333333
vt 0.416667 0.500000
vt 0.500000 0.500000
vt 0.500000 0.333333
vt 0.583333 0.333333
vt 0.583333 0.500000
vt 0.666667 0.500000
vt 0.666667 0.333333
vt 0.750000 0.333333
vt 0.750000 0.500000
vt 0.833333 0.500000
vt 0.833333 0.333333
vt 0.916667 0.333333
vt 0.916667 0.500000
vt 1.000000 0.500000
vt 1.000000 0.333333
vt 0.000000 0.666667
vt 0.083333 0.666667
vt 0.166667 0.666667
vt 0.250000 0.666667
vt 0.333333 0.666667
vt 0.416667 0.666667
vt 0.500000 0.666667
vt 0.583333 0.666667
vt 0.666667 0.666667
vt 0.750000 0.666667
vt 0.833333 0.666667
vt 0.916667 0.666667
vt 1.000000 0.666667
vt 0.921207 0.345395
vt 0.921207 -0.139181
vt 1.469563 -0.139181
vt 1.469563 0.345395
vt 2.017918 -0.139181
vt 2.017918 0.345395
vt 2.566274 -0.139181
vt 2.566274 0.345395
vt 0.921207 -0.623756
vt 1.469563 -0.623756
vt 2.017918 -0.623756
vt 2.566274 -0.623756
vt 0.921207 -1.108331
vt 1.469563 -1.108331
vt 2.017918 -1.108331
vt 2.566274 -1.108331
# 80 texture coordinates

vn -0.003878 0.993953 -0.109738
vn -0.308747 0.876116 -0.370264
vn -0.455791 0.878099 -0.145591
vn -0.160033 0.909839 -0.382860
vn 0.067418 0.916192 -0.395027
vn 0.170116 0.849057 -0.500164
vn 0.291621 0.848194 -0.442181
vn 0.456467 0.883032 0.109054
vn 0.272048 0.903212 0.331962
vn 0.247543 0.818812 0.517947
vn 0.051234 0.864941 0.499251
vn -0.142965 0.869554 0.472691
vn -0.332746 0.934329 0.127710
vn 0.986928 0.153646 0.048633
vn 0.945588 0.325299 0.006588
vn 0.810085 0.194618 0.553070
vn 0.762687 0.333164 0.554356
vn 0.225988 0.310648 0.923270
vn 0.314505 0.244920 0.917115
vn -0.116576 0.235357 0.964892
vn -0.100718 0.307059 0.946346
vn -0.415194 0.281640 0.865039
vn -0.443490 0.177475 0.878532
vn -0.833075 0.165084 0.527951
vn -0.807454 0.329998 0.488998
vn -0.906037 0.342031 -0.249221
vn -0.971970 0.161351 -0.170999
vn -0.742959 0.188931 -0.642120
vn -0.679621 0.311335 -0.664219
vn -0.482717 0.305593 -0.820729
vn -0.524860 0.243369 -0.815655
vn -0.143778 0.265389 -0.953361
vn -0.137646 0.301628 -0.943437
vn 0.346981 0.334781 -0.876086
vn 0.444203 0.298909 -0.844593
vn 0.896176 0.205549 -0.393214
vn 0.829132 0.346063 -0.439067
vn 0.202289 0.972247 -0.117538
vn 0.119239 0.990793 0.064125
vn -0.037149 0.916408 0.398517
vn 0.005820 0.915503 0.402268
vn -0.073468 0.941054 0.330183
vn -0.224805 0.973325 -0.045841
vn -0.172600 0.965877 -0.193106
vn -0.205905 0.975809 -0.073487
vn -0.187644 0.980896 -0.051317
vn -0.045903 0.980864 -0.189208
vn 0.165727 0.977859 -0.127772
vn 0.200768 0.976082 -0.083405
vn 0.000000 1.000000 0.000000
# 50 normals

g Sphere01
usemtl stone
s 1
f 1/1/1 39/2/2 38/3/3
f 1/4/1 40/5/4 39/2/2
f 1/6/1 41/7/5 40/5/4
f 1/8/1 42/9/6 41/7/5
f 1/10/1 43/11/7 42/9/6
f 1/12/1 44/13/8 43/11/7
f 1/14/1 45/15/9 44/13/8
f 1/16/1 46/17/10 45/15/9
f 1/18/1 47/19/11 46/17/10
f 1/20/1 48/21/12 47/19/11
f 1/22/1 49/23/13 48/21/12
f 1/24/1 38/25/3 49/23/13
f 2/26/14 14/27/15 3/28/16
f 14/27/15 15/29/17 3/28/16
f 3/28/16 15/29/17 16/30/18
f 3/28/16 16/30/18 4/31/19
f 4/31/19 16/30/18 5/32/20
f 16/30/18 17/33/21 5/32/20
f 5/32/20 17/33/21 18/34/22
f 5/32/20 18/34/22 6/35/23
f 6/35/23 18/34/22 7/36/24
f 18/34/22 19/37/25 7/36/24
f 7/36/24 19/37/25 20/38/26
f 7/36/24 20/38/26 8/39/27
f 8/39/27 20/38/26 9/40/28
f 20/38/26 21/41/29 9/40/28
f 9/40/28 21/41/29 22/42/30
f 9/40/28 22/42/30 10/43/31
f 10/43/31 22/42/30 11/44/32
f 22/42/30 23/45/33 11/44/32
f 11/44/32 23/45/33 24/46/34
f 11/44/32 24/46/34 12/47/35
f 12/47/35 24/46/34 13/48/36
f 24/46/34 25/49/37 13/48/36
f 13/48/36 25/49/37 14/50/15
f 13/48/36 14/50/15 2/51/14
f 14/27/15 26/52/38 27/53/39
f 14/27/15 27/53/39 15/29/17
f 15/29/17 27/53/39 16/30/18
f 27/53/39 28/54/40 16/30/18
f 16/30/18 28/54/40 29/55/41
f 16/30/18 29/55/41 17/33/21
f 17/33/21 29/55/41 18/34/22
f 29/55/41 30/56/42 18/34/22
f 18/34/22 30/56/42 31/57/43
f 18/34/22 31/57/43 19/37/25
f 19/37/25 31/57/43 20/38/26
f 31/57/43 32/58/44 20/38/26
f 20/38/26 32/58/44 33/59/45
f 20/38/26 33/59/45 21/41/29
f 21/41/29 33/59/45 22/42/30
f 33/59/45 34/60/46 22/42/30
f 22/42/30 34/60/46 35/61/47
f 22/42/30 35/61/47 23/45/33
f 23/45/33 35/61/47 24/46/34
f 35/61/47 36/62/48 24/46/34
f 24/46/34 36/62/48 37/63/49
f 24/46/34 37/63/49 25/49/37
f 25/49/37 37/63/49 14/50/15
f 37/63/49 26/64/38 14/50/15
f 26/52/38 38/3/3 27/53/39
f 38/3/3 39/2/2 27/53/39
f 27/53/39 39/2/2 40/5/4
f 27/53/39 40/5/4 28/54/40
f 28/54/40 40/5/4 29/55/41
f 40/5/4 41/7/5 29/55/41
f 29/55/41 41/7/5 42/9/6
f 29/55/41 42/9/6 30/56/42
f 30/56/42 42/9/6 31/57/43
f 42/9/6 43/11/7 31/57/43
f 31/57/43 43/11/7 44/13/8
f 31/57/43 44/13/8 32/58/44
f 32/58/44 44/13/8 33/59/45
f 44/13/8 45/15/9 33/59/45
f 33/59/45 45/15/9 46/17/10
f 33/59/45 46/17/10 34/60/46
f 34/60/46 46/17/10 35/61/47
f 46/17/10 47/19/11 35/61/47
f 35/61/47 47/19/11 48/21/12
f 35/61/47 48/21/12 36/62/48
f 36/62/48 48/21/12 37/63/49
f 48/21/12 49/23/13 37/63/49
f 37/63/49 49/23/13 38/25/3
f 37/63/49 38/25/3 26/64/38
# 84 triangles in group

g Plane02
usemtl water
f 50/65/50 54/66/50 55/67/50
f 50/65/50 55/67/50 51/68/50
f 55/68/50 56/67/50 52/69/50
f 55/68/50 52/69/50 51/70/50
f 52/70/50 56/69/50 57/71/50
f 52/70/50 57/71/50 53/72/50
f 58/66/50 59/73/50 55/74/50
f 58/66/50 55/74/50 54/67/50
f 55/67/50 59/74/50 60/75/50
f 55/67/50 60/75/50 56/69/50
f 60/69/50 61/75/50 57/76/50
f 60/69/50 57/76/50 56/71/50
f 58/73/50 62/77/50 63/78/50
f 58/73/50 63/78/50 59/74/50
f 63/74/50 64/78/50 60/79/50
f 63/74/50 60/79/50 59/75/50
f 60/75/50 64/79/50 65/80/50
f 60/75/50 65/80/50 61/76/50
# 18 triangles in group

# 102 triangles total

