# Wavefront OBJ exported by MilkShape 3D

mtllib waterpipe_full.mtl

v 0.264978 2.624998 -29.024780
v -0.325830 3.127681 -9.730778
v 0.967539 2.126191 10.183828
v 0.264973 2.625000 28.725245
v -1.204484 3.102456 -29.024786
v -1.763525 3.604484 -9.425854
v -0.476708 2.603358 9.912246
v -1.204486 3.102458 28.725243
v -2.112669 4.352458 -29.024782
v -2.642537 4.852770 -9.188351
v -1.363512 3.852598 9.711579
v -2.112666 4.352459 28.725256
v -2.112668 5.897541 -29.024786
v -2.627108 6.395739 -9.108978
v -1.354149 5.396741 9.658483
v -2.112669 5.897543 28.725245
v -1.639271 6.191021 -29.024788
v -2.159476 6.688814 -9.184219
v -0.886168 5.690041 9.730597
v -1.639268 6.191021 28.725239
v 0.264977 3.929347 -29.024782
v -0.312804 4.430242 -9.663760
v 0.975443 3.429746 10.138999
v 0.264977 3.929349 28.725243
v 2.256179 6.364934 -29.024784
v 1.666138 6.862489 -9.918576
v 2.951156 5.863848 10.401052
v 2.256181 6.364934 28.725241
v 2.642620 5.897541 -29.024782
v 2.040809 6.395739 -10.016318
v 3.328892 5.396741 10.484225
v 2.642618 5.897543 28.725250
v 2.642619 4.352458 -29.024776
v 2.025379 4.852770 -10.095703
v 3.319527 3.852598 10.537325
v 2.642617 4.352459 28.725258
v 1.734440 3.102456 -29.024786
v 1.121403 3.604484 -9.986631
v 2.417573 2.603358 10.422585
v 1.734438 3.102458 28.725246
v 0.308458 3.081522 28.725246
v 0.308457 3.081521 -29.024776
v -5.072939 8.978696 -25.399780
v 6.334312 -9.909157 -26.294985
v 5.523035 -10.396616 -25.412395
v 6.248673 -9.960611 -24.504578
v 7.059940 -9.473154 -25.387167
v 5.838852 9.061863 -25.399788
v -6.458452 -9.258970 -26.294987
v -7.243104 -8.729717 -25.412395
v -6.541284 -9.203108 -24.504578
v -5.756638 -9.732355 -25.387171
v -5.072942 8.967824 25.600239
v 6.334310 -9.920030 24.705040
v 5.523034 -10.407489 25.587624
v 6.248674 -9.971484 26.495440
v 7.059940 -9.484027 25.612854
v 5.838848 9.050990 25.600239
v -6.458455 -9.269843 24.705036
v -7.243104 -8.740590 25.587624
v -6.541281 -9.213981 26.495436
v -5.756635 -9.743228 25.612852
v 0.779999 2.873576 -28.569151
v 0.779999 3.314602 -9.389719
v 0.779999 3.006910 9.789717
v 0.779999 2.873576 28.502487
v -1.593156 4.663215 -26.102491
v -1.926486 5.975118 -9.246857
v -0.843155 5.396546 9.923049
v -0.843155 4.529881 24.769154
v 1.653155 4.663214 -26.102495
v 1.319823 5.975118 -9.246855
v 2.403155 5.396546 9.923049
v 2.403154 4.529881 24.769152
v 0.779998 4.066668 28.502487
v 0.779998 4.066668 -28.569151
# 76 vertices

vt -0.433648 3.584670
vt -0.433648 -0.218481
vt -0.433648 1.049237
vt -0.311341 -0.218481
vt -0.311341 1.049237
vt -0.433648 2.316953
vt -0.311341 2.316953
vt -0.311341 3.584670
vt -0.189033 1.049237
vt -0.189033 -0.218481
vt -0.189033 2.316953
vt -0.189033 3.584670
vt -0.066726 -0.218481
vt -0.066726 1.049237
vt -0.066726 2.316953
vt -0.066726 3.584670
vt 0.055581 1.049237
vt 0.055581 -0.218481
vt 0.055581 2.316953
vt 0.055581 3.584670
vt 0.177889 -0.218481
vt 0.177889 1.049237
vt 0.177889 2.316953
vt 0.177889 3.584670
vt 0.300196 1.049237
vt 0.300196 -0.218481
vt 0.300196 2.316953
vt 0.300196 3.584670
vt 0.422503 -0.218481
vt 0.422503 1.049237
vt 0.422503 2.316953
vt 0.422503 3.584670
vt 0.544811 1.049237
vt 0.544811 -0.218481
vt 0.544811 2.316953
vt 0.544811 3.584670
vt 0.667118 -0.218481
vt 0.667118 1.049237
vt 0.667118 2.316953
vt 0.667118 3.584670
vt 0.789426 1.049237
vt 0.789426 -0.218481
vt 0.789426 2.316953
vt 0.789426 3.584670
vt 0.403048 -0.259421
vt 0.521925 -0.259421
vt 0.523624 0.946521
vt 0.644200 -0.259421
vt 0.525324 -0.259421
vt 1.298037 2.845600
vt 0.894813 2.605477
vt 1.298037 -2.710152
vt 1.022246 -2.346724
vt 1.298037 0.978539
vt 0.838176 0.964632
vt 1.298037 -0.888521
vt 1.022246 -0.901500
vt 1.446396 2.605477
vt 1.573829 -2.346724
vt 1.389759 0.964631
vt 1.573829 -0.901500
# 61 texture coordinates

vn -0.000000 0.000008 -1.000000
vn -0.000001 -0.000004 1.000000
vn -0.000076 -0.999661 0.026043
vn 0.000167 -0.999931 -0.011787
vn -0.591644 -0.806189 0.004039
vn -0.596213 -0.802826 0.000887
vn -0.593139 -0.805098 -0.001588
vn -0.002456 -0.999641 0.026688
vn -0.587780 -0.809020 -0.001275
vn -0.953466 -0.301108 0.015359
vn -0.950892 -0.309022 -0.017606
vn -0.953702 -0.300599 0.009586
vn -0.951651 -0.305774 -0.029368
vn -0.873050 0.486370 -0.035046
vn -0.871825 0.489180 0.024999
vn -0.873007 0.487346 0.018778
vn -0.872791 0.485779 -0.047481
vn 0.160799 0.986928 0.010811
vn 0.157585 0.987290 -0.020639
vn 0.160078 0.986899 -0.020143
vn -0.004278 0.999620 -0.027242
vn 0.000418 0.999924 0.012351
vn -0.002441 0.999932 0.011363
vn -0.006617 0.999610 -0.027123
vn 0.002096 0.999925 0.012095
vn -0.002281 0.999657 -0.026103
vn 0.001685 0.999941 0.010731
vn 0.000241 0.999624 -0.027421
vn 0.942990 0.332140 0.021271
vn 0.944613 0.328004 -0.010894
vn 0.943079 0.332459 -0.008518
vn 0.940569 0.338598 0.026091
vn 0.950267 -0.310916 -0.018012
vn 0.950345 -0.308727 0.039149
vn 0.950625 -0.309961 -0.015355
vn 0.949749 -0.309909 0.043961
vn 0.590207 -0.806253 0.040154
vn 0.588302 -0.808437 -0.018175
vn 0.588603 -0.808252 -0.016601
vn 0.587169 -0.808270 0.043957
vn -0.598837 -0.327016 -0.731064
vn -0.514976 0.857205 -0.000068
vn -0.641720 -0.351388 0.681705
vn 0.569878 0.375219 0.731061
vn 0.611530 0.401641 -0.681700
vn 0.515037 -0.857168 0.000003
vn -0.549457 0.404528 -0.731063
vn 0.559251 0.828999 -0.000065
vn -0.589668 0.433094 0.681705
vn 0.580905 -0.357911 0.731060
vn 0.622453 -0.384493 -0.681702
vn -0.559194 -0.829037 -0.000003
vn 0.211325 0.000000 -0.977416
vn -0.472514 0.637318 -0.608733
vn 0.138057 0.604322 -0.784688
vn -0.000000 0.733138 0.680079
vn -0.633114 0.685110 0.360266
vn 0.639809 -0.767476 0.040315
vn -0.259024 -0.965634 0.021379
vn -0.936574 0.343618 -0.068968
vn -0.926256 0.376808 0.008160
vn 0.472654 -0.880634 -0.032898
vn -0.905063 0.423250 0.041472
vn -0.361425 -0.932083 -0.024367
vn -0.935143 0.353669 0.020646
vn 0.641877 0.661826 -0.387273
vn 0.633113 0.685110 0.360266
vn 0.820964 0.570527 -0.022732
vn 0.866395 0.498889 -0.021696
vn 0.883091 0.469184 -0.004196
vn 0.902098 0.429041 0.046285
# 71 normals

g Cylinder04
usemtl wood
s 2
f 1/1/1 5/1/1 42/1/1
f 4/1/2 41/1/2 8/1/2
s 1
f 1/2/3 2/3/4 5/4/5
f 2/3/4 6/5/6 5/4/5
f 2/3/4 3/6/4 7/7/7
f 2/3/4 7/7/7 6/5/6
f 3/6/4 4/1/8 7/7/7
f 4/1/8 8/8/9 7/7/7
s 2
f 5/1/1 9/1/1 42/1/1
f 8/1/2 41/1/2 12/1/2
s 1
f 5/4/5 6/5/6 10/9/10
f 5/4/5 10/9/10 9/10/11
f 6/5/6 7/7/7 10/9/10
f 7/7/7 11/11/12 10/9/10
f 7/7/7 8/8/9 12/12/13
f 7/7/7 12/12/13 11/11/12
s 2
f 9/1/1 13/1/1 42/1/1
f 12/1/2 41/1/2 16/1/2
s 1
f 9/10/11 10/9/10 13/13/14
f 10/9/10 14/14/15 13/13/14
f 10/9/10 11/11/12 15/15/16
f 10/9/10 15/15/16 14/14/15
f 11/11/12 12/12/13 15/15/16
f 12/12/13 16/16/17 15/15/16
s 2
f 13/1/1 17/1/1 42/1/1
f 16/1/2 41/1/2 20/1/2
s 1
f 13/13/14 14/14/15 18/17/18
f 13/13/14 18/17/18 17/18/19
f 14/14/15 15/15/16 18/17/18
f 15/15/16 19/19/18 18/17/18
f 15/15/16 16/16/17 20/20/20
f 15/15/16 20/20/20 19/19/18
s 2
f 17/1/1 21/1/1 42/1/1
f 20/1/2 41/1/2 24/1/2
s 1
f 17/18/19 18/17/18 21/21/21
f 18/17/18 22/22/22 21/21/21
f 18/17/18 19/19/18 23/23/23
f 18/17/18 23/23/23 22/22/22
f 19/19/18 20/20/20 23/23/23
f 20/20/20 24/24/24 23/23/23
s 2
f 21/1/1 25/1/1 42/1/1
f 24/1/2 41/1/2 28/1/2
s 1
f 21/21/21 22/22/22 26/25/25
f 21/21/21 26/25/25 25/26/26
f 22/22/22 23/23/23 26/25/25
f 23/23/23 27/27/27 26/25/25
f 23/23/23 24/24/24 28/28/28
f 23/23/23 28/28/28 27/27/27
s 2
f 25/1/1 29/1/1 42/1/1
f 28/1/2 41/1/2 32/1/2
s 1
f 25/26/26 26/25/25 29/29/29
f 26/25/25 30/30/30 29/29/29
f 26/25/25 27/27/27 31/31/31
f 26/25/25 31/31/31 30/30/30
f 27/27/27 28/28/28 31/31/31
f 28/28/28 32/32/32 31/31/31
s 2
f 29/1/1 33/1/1 42/1/1
f 32/1/2 41/1/2 36/1/2
s 1
f 29/29/29 30/30/30 34/33/33
f 29/29/29 34/33/33 33/34/34
f 30/30/30 31/31/31 34/33/33
f 31/31/31 35/35/35 34/33/33
f 31/31/31 32/32/32 36/36/36
f 31/31/31 36/36/36 35/35/35
s 2
f 33/1/1 37/1/1 42/1/1
f 36/1/2 41/1/2 40/1/2
s 1
f 33/34/34 34/33/33 37/37/37
f 34/33/33 38/38/38 37/37/37
f 34/33/33 35/35/35 39/39/39
f 34/33/33 39/39/39 38/38/38
f 35/35/35 36/36/36 39/39/39
f 36/36/36 40/40/40 39/39/39
s 2
f 37/1/1 1/1/1 42/1/1
f 40/1/2 41/1/2 4/1/2
s 1
f 37/37/37 38/38/38 2/41/4
f 37/37/37 2/41/4 1/42/3
f 38/38/38 39/39/39 2/41/4
f 39/39/39 3/43/4 2/41/4
f 39/39/39 40/40/40 4/44/8
f 39/39/39 4/44/8 3/43/4
# 80 triangles in group

g Box01
usemtl wood
f 44/45/41 45/46/41 43/47/42
s 2
f 45/46/43 46/48/43 43/47/42
s 1
f 46/48/44 47/49/44 43/47/42
s 2
f 47/49/45 44/45/45 43/47/42
s 3
f 44/45/46 47/49/46 45/46/46
f 47/49/46 46/48/46 45/46/46
# 6 triangles in group

g Duplicate01
usemtl wood
s 1
f 49/45/47 50/46/47 48/47/48
s 2
f 50/46/49 51/48/49 48/47/48
s 1
f 51/48/50 52/49/50 48/47/48
s 2
f 52/49/51 49/45/51 48/47/48
s 3
f 49/45/52 52/49/52 50/46/52
f 52/49/52 51/48/52 50/46/52
# 6 triangles in group

g Duplicate02
usemtl wood
s 1
f 54/45/41 55/46/41 53/47/42
s 2
f 55/46/43 56/48/43 53/47/42
s 1
f 56/48/44 57/49/44 53/47/42
s 2
f 57/49/45 54/45/45 53/47/42
s 3
f 54/45/46 57/49/46 55/46/46
f 57/49/46 56/48/46 55/46/46
s 1
f 59/45/47 60/46/47 58/47/48
s 2
f 60/46/49 61/48/49 58/47/48
s 1
f 61/48/50 62/49/50 58/47/48
s 2
f 62/49/51 59/45/51 58/47/48
s 3
f 59/45/52 62/49/52 60/46/52
f 62/49/52 61/48/52 60/46/52
# 12 triangles in group

g Cylinder05
usemtl Material02
s 2
f 63/50/53 67/51/54 76/50/55
f 66/52/2 75/52/56 70/53/57
s 1
f 63/50/58 64/54/59 67/51/60
f 64/54/59 68/55/61 67/51/60
f 64/54/59 65/56/62 69/57/63
f 64/54/59 69/57/63 68/55/61
f 65/56/62 66/52/64 69/57/63
f 66/52/64 70/53/65 69/57/63
s 2
f 67/51/54 71/58/66 76/50/55
f 70/53/57 75/52/56 74/59/67
s 1
f 67/51/60 68/55/61 72/60/68
f 67/51/60 72/60/68 71/58/69
f 68/55/61 69/57/63 72/60/68
f 69/57/63 73/61/70 72/60/68
f 69/57/63 70/53/65 74/59/71
f 69/57/63 74/59/71 73/61/70
s 2
f 71/58/66 63/50/53 76/50/55
f 74/59/67 75/52/56 66/52/2
s 1
f 71/58/69 72/60/68 63/50/58
f 72/60/68 64/54/59 63/50/58
f 72/60/68 73/61/70 65/56/62
f 72/60/68 65/56/62 64/54/59
f 73/61/70 74/59/71 65/56/62
f 74/59/71 66/52/64 65/56/62
# 24 triangles in group

# 128 triangles total

