# Wavefront OBJ exported by MilkShape 3D

mtllib wool.mtl

v -0.084486 -0.816721 8.035269
v 5.871465 -0.293386 6.488324
v 2.499990 2.236127 9.733663
v -0.017618 5.799088 -8.972582
v 4.441154 6.881148 -4.834382
v 5.734032 3.637422 -8.119566
v -0.084486 -0.816721 8.035269
v -1.738828 3.185164 10.443913
v -0.017618 5.799088 -8.972582
v 0.024224 9.348539 -2.906162
v -0.084486 -0.816721 8.035269
v -5.246393 1.459807 8.789836
v -0.017618 5.799088 -8.972582
v -4.759531 7.843903 -4.560449
v -0.084486 -0.816721 8.035269
v -5.557014 -0.836286 5.043590
v -0.017618 5.799088 -8.972582
v -6.057846 4.923579 -7.701168
v -0.084486 -0.816721 8.035269
v -1.726235 -1.894751 3.665692
v -0.017618 5.799088 -8.972582
v -1.263119 1.391984 -9.742537
v -0.084486 -0.816721 8.035269
v 4.092291 -1.616509 3.897221
v -0.017618 5.799088 -8.972582
v 4.620175 1.623616 -9.408112
v -0.084486 -0.816721 8.035269
v 5.871465 -0.293386 6.488324
v -0.017618 5.799088 -8.972582
v 5.734032 3.637422 -8.119566
v 9.406204 2.230335 4.174098
v 7.009735 3.227030 7.648796
v -2.490094 7.467515 8.465504
v -8.968816 4.338672 5.462107
v -8.913218 -0.081988 0.186730
v -2.714887 -1.853687 -1.656525
v 7.351351 -1.325870 -0.931105
v 9.406204 2.230335 4.174098
v 9.173391 2.633609 -3.511434
v 4.604282 7.671747 1.719725
v -2.301834 8.908894 3.663491
v -7.857008 7.329534 0.544933
v -8.695966 1.253249 -4.803449
v -2.505888 -0.731436 -6.770490
v 7.464519 -0.747026 -5.669346
v 9.173391 2.633609 -3.511434
# 46 vertices

vt 3.337149 -3.132813
vt 3.337149 -2.711107
vt 3.607336 -2.711107
vt 3.337149 -1.024285
vt 3.607336 -1.445991
vt 3.337149 -1.445991
vt 3.607336 -3.132813
vt 3.877523 -2.711107
vt 3.607336 -1.024285
vt 3.877523 -1.445991
vt 3.877523 -3.132813
vt 4.147709 -2.711107
vt 3.877523 -1.024285
vt 4.147709 -1.445991
vt 4.147709 -3.132813
vt 4.417895 -2.711107
vt 4.147709 -1.024285
vt 4.417895 -1.445991
vt 4.417895 -3.132813
vt 4.688081 -2.711107
vt 4.417895 -1.024285
vt 4.688081 -1.445991
vt 4.688081 -3.132813
vt 4.958270 -2.711107
vt 4.688081 -1.024285
vt 4.958270 -1.445991
vt 4.958270 -3.132813
vt 5.228456 -2.711107
vt 4.958270 -1.024285
vt 5.228456 -1.445991
vt 3.337149 -2.289402
vt 3.607336 -2.289402
vt 3.877523 -2.289402
vt 4.147709 -2.289402
vt 4.417895 -2.289402
vt 4.688081 -2.289402
vt 4.958270 -2.289402
vt 5.228456 -2.289402
vt 3.337149 -1.867696
vt 3.607336 -1.867696
vt 3.877523 -1.867696
vt 4.147709 -1.867696
vt 4.417895 -1.867696
vt 4.688081 -1.867696
vt 4.958270 -1.867696
vt 5.228456 -1.867696
# 46 texture coordinates

vn -0.053072 -0.632760 0.772527
vn 0.653062 -0.468766 0.594785
vn 0.458404 0.038521 0.887909
vn 0.082929 0.615426 -0.783819
vn 0.617138 0.726668 -0.301819
vn 0.765862 0.432872 -0.475476
vn -0.141529 -0.011342 0.989869
vn 0.062459 0.989416 -0.130974
vn -0.692785 -0.221529 0.686275
vn -0.417365 0.838488 -0.350349
vn -0.613200 -0.648631 0.450848
vn -0.712759 0.227815 -0.663381
vn -0.242993 -0.933634 0.263213
vn -0.238993 -0.138916 -0.961033
vn 0.307919 -0.873755 0.376481
vn 0.491479 -0.143880 -0.858922
vn 0.939869 0.106920 0.324367
vn 0.599435 0.571518 0.560397
vn -0.202043 0.738459 0.643317
vn -0.906752 0.189563 0.376651
vn -0.885249 -0.461476 0.058080
vn -0.270619 -0.956424 -0.109625
vn 0.613843 -0.788853 -0.030109
vn 0.962873 0.117378 -0.243103
vn 0.628721 0.775213 0.061278
vn -0.070207 0.987165 0.143445
vn -0.776929 0.629564 -0.005509
vn -0.921871 -0.146711 -0.358651
vn -0.288921 -0.719316 -0.631752
vn 0.674732 -0.543528 -0.499313
# 30 normals

g Sphere03
usemtl Material01
s 1
f 1/1/1 2/2/2 3/3/3
f 4/4/4 5/5/5 6/6/6
f 7/7/1 3/3/3 8/8/7
f 9/9/4 10/10/8 5/5/5
f 11/11/1 8/8/7 12/12/9
f 13/13/4 14/14/10 10/10/8
f 15/15/1 12/12/9 16/16/11
f 17/17/4 18/18/12 14/14/10
f 19/19/1 16/16/11 20/20/13
f 21/21/4 22/22/14 18/18/12
f 23/23/1 20/20/13 24/24/15
f 25/25/4 26/26/16 22/22/14
f 27/27/1 24/24/15 28/28/2
f 29/29/4 30/30/6 26/26/16
f 2/2/2 31/31/17 3/3/3
f 31/31/17 32/32/18 3/3/3
f 3/3/3 32/32/18 33/33/19
f 3/3/3 33/33/19 8/8/7
f 8/8/7 33/33/19 12/12/9
f 33/33/19 34/34/20 12/12/9
f 12/12/9 34/34/20 35/35/21
f 12/12/9 35/35/21 16/16/11
f 16/16/11 35/35/21 20/20/13
f 35/35/21 36/36/22 20/20/13
f 20/20/13 36/36/22 37/37/23
f 20/20/13 37/37/23 24/24/15
f 24/24/15 37/37/23 28/28/2
f 37/37/23 38/38/17 28/28/2
f 31/31/17 39/39/24 40/40/25
f 31/31/17 40/40/25 32/32/18
f 32/32/18 40/40/25 33/33/19
f 40/40/25 41/41/26 33/33/19
f 33/33/19 41/41/26 42/42/27
f 33/33/19 42/42/27 34/34/20
f 34/34/20 42/42/27 35/35/21
f 42/42/27 43/43/28 35/35/21
f 35/35/21 43/43/28 44/44/29
f 35/35/21 44/44/29 36/36/22
f 36/36/22 44/44/29 37/37/23
f 44/44/29 45/45/30 37/37/23
f 37/37/23 45/45/30 46/46/24
f 37/37/23 46/46/24 38/38/17
f 39/39/24 6/6/6 40/40/25
f 6/6/6 5/5/5 40/40/25
f 40/40/25 5/5/5 10/10/8
f 40/40/25 10/10/8 41/41/26
f 41/41/26 10/10/8 42/42/27
f 10/10/8 14/14/10 42/42/27
f 42/42/27 14/14/10 18/18/12
f 42/42/27 18/18/12 43/43/28
f 43/43/28 18/18/12 44/44/29
f 18/18/12 22/22/14 44/44/29
f 44/44/29 22/22/14 26/26/16
f 44/44/29 26/26/16 45/45/30
f 45/45/30 26/26/16 46/46/24
f 26/26/16 30/30/6 46/46/24
# 56 triangles in group

# 56 triangles total

