# Wavefront OBJ exported by MilkShape 3D

mtllib wreck01.mtl

v -0.500000 15.904682 -59.970055
v -12.807858 15.043221 -48.309250
v -18.250000 14.793358 -33.987919
v -18.250000 14.297226 -19.744368
v -0.500000 8.037100 -58.942558
v -0.500000 -0.535882 -55.463020
v -0.500000 -6.093640 -43.464386
v -0.500000 -7.672626 -20.895758
v -8.032093 -7.983459 -0.634247
v -11.091770 -4.254530 -7.448442
v -15.125549 -0.566612 -17.769571
v -11.091770 -0.600737 -10.261066
v -17.424892 2.729454 -7.332771
v -17.424892 3.446157 -12.051723
v -17.424892 5.991665 -2.405283
v -18.250000 8.504894 -9.533516
v -18.250000 11.749376 -14.119999
v -12.189273 9.790392 -48.392761
v -13.068822 1.233008 -43.151817
v -17.140625 9.708618 -32.501999
v -15.125549 -0.486649 -23.773615
v -18.250000 9.553738 -19.992964
v -17.424892 5.177580 -18.219561
v 11.807858 15.043221 -48.309250
v 17.250000 14.793358 -33.987919
v 17.250000 14.297226 -19.744368
v 8.032093 -6.724208 -10.331640
v 10.091770 -5.186682 -3.992489
v 14.125549 -0.566612 -17.769571
v 10.091770 -0.600737 -10.261066
v 16.424892 0.431264 -1.695309
v 16.424892 1.422731 -11.657082
v 16.424892 3.112472 -9.565780
v 17.250000 6.481465 -9.138870
v 17.250000 8.753489 -14.277006
v 11.189273 9.790392 -48.392761
v 12.068822 1.233008 -43.151817
v 16.140625 9.708618 -32.501999
v 14.125549 -0.486649 -23.773615
v 17.250000 9.553738 -19.992964
v 16.424892 5.177580 -18.219561
v 16.282360 28.166618 47.612732
v 24.008141 24.899570 32.853363
v 24.348703 21.677593 17.877296
v 19.618862 18.230896 4.882147
v 16.199080 19.560347 47.383926
v 14.719389 11.154178 43.318508
v 11.637877 3.046003 34.852135
v 4.886775 -3.019472 16.303629
v 5.208320 -7.536123 -4.835304
v 10.097979 -2.471923 -0.346985
v 17.079144 3.281289 7.039618
v 10.779108 1.686805 1.524407
v 15.513837 4.335395 -3.983839
v 17.041584 6.017562 0.213596
v 13.633389 6.501837 -9.150326
v 16.614750 10.442187 -3.371574
v 17.918425 14.569357 0.210243
v 23.828329 19.778887 34.167969
v 23.510008 10.318850 30.721764
v 23.170702 16.395027 17.884354
v 19.082088 4.607815 12.542658
v 20.039330 13.642754 6.037393
v 18.981888 8.993517 5.544544
v 0.876926 24.899570 41.272434
v -9.010399 21.677593 30.019012
v -13.740244 18.230896 17.023869
v -6.732401 -4.288186 9.326388
v -10.897939 -4.102242 3.903766
v -10.407911 3.281289 17.044086
v -9.126915 1.686805 8.769608
v -18.017136 0.915330 2.860749
v -14.754969 3.956300 11.823491
v -15.574755 5.174311 9.571127
v -16.732498 8.380925 8.802718
v -15.175110 11.671579 13.081590
v 1.859678 19.778887 42.163902
v -0.111656 10.318850 39.319340
v -8.103454 16.395027 29.267216
v -8.404968 4.607815 22.547123
v -13.319765 13.642754 18.179111
v -12.826521 8.993517 17.121855
v -8.004570 12.034994 -17.254492
v -19.421568 7.794869 -14.389395
v -28.338564 4.554733 -12.024294
v -36.255554 1.116988 -9.637838
v -6.734069 15.092083 -16.244177
v -19.901070 9.851955 -13.379072
v -28.818071 6.611819 -11.013975
v -37.735058 3.263447 -8.226732
v -6.378046 15.782264 -13.956331
v -19.545044 10.542137 -11.091238
v -28.462036 7.302006 -8.726137
v -37.379028 3.905583 -6.798443
v -5.454574 14.585821 -12.113764
v -18.621576 9.345695 -9.248667
v -27.538582 6.105564 -6.883570
v -33.955566 3.955414 -5.648137
v -6.409068 11.403704 -12.103960
v -17.826071 7.163576 -9.238859
v -26.743071 3.923450 -6.873758
v -35.660069 0.762239 -5.642015
v -6.340543 9.879086 -13.934298
v -17.757549 5.638953 -11.069201
v -26.674555 2.398832 -8.704100
v -32.341553 -0.656237 -7.721128
v -7.050618 10.160034 -16.226500
v -18.467607 5.919906 -13.361399
v -27.384604 2.679777 -10.996302
v -35.051605 0.845662 -9.360242
v -39.125496 1.342007 -7.167602
v -5.624501 13.276855 -14.547640
v -0.500000 16.571348 -59.970055
v -12.807858 15.709887 -48.309250
v -18.250000 15.460024 -33.987919
v -18.250000 14.963892 -19.744368
v -0.500000 8.703766 -58.942558
v -0.500000 0.130785 -55.463020
v -0.500000 -5.426974 -43.464386
v -0.500000 -7.005960 -20.895758
v -8.032093 -7.316792 -0.634247
v -11.091770 -3.587863 -7.448442
v -15.125549 0.100055 -17.769571
v -11.091770 0.065930 -10.261066
v -17.424892 3.396121 -7.332771
v -17.424892 4.112824 -12.051723
v -17.424892 6.658331 -2.405283
v -18.250000 9.171560 -9.533516
v -18.250000 12.416042 -14.119999
v -12.189273 10.457058 -48.392761
v -13.068822 1.899675 -43.151817
v -17.140625 10.375284 -32.501999
v -15.125549 0.180018 -23.773615
v -18.250000 10.220404 -19.992964
v -17.424892 5.844246 -18.219561
v 11.807858 15.709887 -48.309250
v 17.250000 15.460024 -33.987919
v 17.250000 14.963892 -19.744368
v 8.032093 -6.057541 -10.331640
v 10.091770 -4.520015 -3.992489
v 14.125549 0.100055 -17.769571
v 10.091770 0.065930 -10.261066
v 16.424892 1.097930 -1.695309
v 16.424892 2.089398 -11.657082
v 16.424892 3.779138 -9.565780
v 17.250000 7.148132 -9.138870
v 17.250000 9.420155 -14.277006
v 11.189273 10.457058 -48.392761
v 12.068822 1.899675 -43.151817
v 16.140625 10.375284 -32.501999
v 14.125549 0.180018 -23.773615
v 17.250000 10.220404 -19.992964
v 16.424892 5.844246 -18.219561
v 16.282360 28.833284 47.612732
v 24.008141 25.566236 32.853363
v 24.348703 22.344259 17.877296
v 19.618862 18.897562 4.882147
v 16.199080 20.227015 47.383926
v 14.719389 11.820845 43.318508
v 11.637877 3.712669 34.852135
v 4.886775 -2.352806 16.303629
v 5.208320 -6.869457 -4.835304
v 10.097979 -1.805256 -0.346985
v 17.079144 3.947955 7.039618
v 10.779108 2.353471 1.524407
v 15.513837 5.002061 -3.983839
v 17.041584 6.684228 0.213596
v 13.633389 7.168503 -9.150326
v 16.614750 11.108854 -3.371574
v 17.918425 15.236023 0.210243
v 23.828329 20.445555 34.167969
v 23.510008 10.985516 30.721764
v 23.170702 17.061693 17.884354
v 19.082088 5.274482 12.542658
v 20.039330 14.309420 6.037393
v 18.981888 9.660183 5.544544
v 0.876926 25.566236 41.272434
v -9.010399 22.344259 30.019012
v -13.740244 18.897562 17.023869
v -6.732401 -3.621520 9.326388
v -10.897939 -3.435575 3.903766
v -10.407911 3.947955 17.044086
v -9.126915 2.353471 8.769608
v -18.017136 1.581996 2.860749
v -14.754969 4.622967 11.823491
v -15.574755 5.840978 9.571127
v -16.732498 9.047592 8.802718
v -15.175110 12.338245 13.081590
v 1.859678 20.445555 42.163902
v -0.111656 10.985516 39.319340
v -8.103454 17.061693 29.267216
v -8.404968 5.274482 22.547123
v -13.319765 14.309420 18.179111
v -12.826521 9.660183 17.121855
# 194 vertices

vt 0.800660 0.106843
vt 1.065550 1.561753
vt 1.548073 1.217307
vt 1.167381 0.154068
vt 1.751059 -0.040230
vt 1.879175 0.737969
vt 2.242798 -0.078028
vt 2.233511 -1.128978
vt 1.825635 -0.987160
vt 1.129690 -0.616987
vt 0.778046 -0.584513
vt 1.116759 -1.287827
vt 0.785614 -1.344373
vt 1.416556 -1.342369
vt 1.818732 -1.313345
vt 2.063724 -1.826605
vt 1.797030 -1.713542
vt 1.575281 -1.896790
vt 1.532091 -1.653052
vt 1.322184 -2.191116
vt 1.170036 -1.833823
vt 0.952558 -1.619843
vt 2.198002 -2.173736
vt 0.000000 1.000000
vt 0.000000 0.000000
vt 0.000000 0.333333
vt 0.142857 0.000000
vt 0.142857 0.333333
vt 0.000000 0.666667
vt 0.142857 0.666667
vt 0.142857 1.000000
vt 0.285714 0.333333
vt 0.285714 0.000000
vt 0.285714 0.666667
vt 0.285714 1.000000
vt 0.428571 0.000000
vt 0.428571 0.333333
vt 0.428571 0.666667
vt 0.428571 1.000000
vt 0.571429 0.333333
vt 0.571429 0.000000
vt 0.571429 0.666667
vt 0.571429 1.000000
vt 0.714286 0.000000
vt 0.714286 0.333333
vt 0.714286 0.666667
vt 0.714286 1.000000
vt 0.857143 0.333333
vt 0.857143 0.000000
vt 0.857143 0.666667
vt 0.857143 1.000000
vt 1.000000 0.000000
vt 1.000000 0.333333
vt 1.000000 0.666667
vt 1.000000 1.000000
# 55 texture coordinates

vn -0.826550 -0.146014 -0.543594
vn 0.000000 -0.129499 -0.991580
vn 0.000000 -0.267367 -0.963595
vn -0.839872 -0.156509 -0.519731
vn -0.738259 -0.565057 -0.368354
vn 0.000000 -0.717649 -0.696405
vn 0.000000 -0.968032 -0.250827
vn -0.034195 -0.984749 -0.170589
vn -0.799109 -0.595633 -0.081527
vn -0.956124 -0.219014 -0.194575
vn -0.972420 -0.180954 -0.147156
vn -0.991951 -0.124396 -0.023633
vn -1.000000 0.000000 0.000000
vn -0.964317 -0.260332 -0.048175
vn -0.811324 -0.576626 0.096209
vn -0.800154 -0.598184 0.043923
vn -0.803375 -0.535034 0.261394
vn -0.868246 -0.490508 -0.074497
vn -0.906388 -0.422208 0.014206
vn -0.995405 -0.092589 0.024432
vn -0.986593 -0.163138 0.004457
vn -0.996259 -0.080950 0.030263
vn -0.531680 -0.820437 -0.210235
vn 0.826550 -0.146014 -0.543594
vn 0.839872 -0.156509 -0.519731
vn 0.738259 -0.565057 -0.368354
vn 0.799109 -0.595633 -0.081527
vn 0.956124 -0.219014 -0.194575
vn 0.972420 -0.180954 -0.147156
vn 0.990481 -0.131309 -0.041286
vn 1.000000 0.000000 0.000000
vn 0.960688 -0.263711 -0.086811
vn 0.793976 -0.606751 0.038146
vn 0.931102 0.361874 -0.045779
vn 0.691015 -0.680331 0.244229
vn 0.860101 -0.510123 0.000149
vn 0.801224 -0.595423 -0.059261
vn 0.985806 -0.130587 0.105512
vn 0.978592 -0.193925 0.068927
vn 0.995046 -0.098456 -0.013784
vn 0.286578 0.905570 -0.312754
vn 0.964347 -0.047561 0.260334
vn 0.341883 -0.028281 0.939317
vn 0.337004 -0.170636 0.925911
vn 0.969715 -0.044890 0.240079
vn 0.820281 -0.518640 0.241148
vn 0.269551 -0.615530 0.740584
vn 0.170240 -0.867322 0.467730
vn 0.160448 -0.926178 0.341250
vn 0.820547 -0.565666 -0.082004
vn 0.979131 -0.173773 -0.105379
vn 0.975874 -0.146404 -0.161974
vn 0.948881 -0.116765 -0.293241
vn 0.939693 -0.000001 -0.342020
vn 0.940790 -0.244626 -0.234674
vn 0.771212 -0.584028 -0.253263
vn 0.779742 -0.594244 -0.197171
vn 0.705523 -0.577689 -0.410502
vn 0.875687 -0.464301 -0.132651
vn 0.876996 -0.415936 -0.240573
vn 0.933784 -0.095647 -0.344817
vn 0.937204 -0.160500 -0.309659
vn 0.931809 -0.085473 -0.352742
vn 0.628291 -0.758798 0.171686
vn -0.571393 -0.047560 0.819297
vn -0.588525 -0.044890 0.807232
vn -0.473365 -0.518640 0.711996
vn -0.681286 -0.565666 0.464618
vn -0.817794 -0.173774 0.548649
vn -0.851678 -0.146404 0.503201
vn -0.907599 -0.119856 0.402367
vn -0.939693 -0.000001 0.342020
vn -0.854956 -0.239899 0.459890
vn -0.715709 -0.601423 0.355037
vn -0.885368 0.363484 0.289834
vn -0.682669 -0.716243 0.144774
vn -0.772006 -0.499007 0.393699
vn -0.690739 -0.570090 0.444834
vn -0.952368 -0.149671 0.265693
vn -0.928845 -0.204020 0.309228
vn -0.923425 -0.093438 0.372231
vn -0.229061 0.950806 0.208563
vn 0.761117 -0.048976 -0.646762
vn 0.882984 0.114199 -0.455300
vn 0.958963 -0.022099 -0.282670
vn -0.547495 -0.601998 -0.581247
vn -0.813228 -0.536354 0.225797
vn -0.822208 0.345763 -0.452131
vn -0.163384 -0.211241 -0.963682
vn -0.275676 0.087560 -0.957254
vn -0.410610 0.703084 -0.580579
vn -0.407084 0.689386 -0.599191
vn -0.163308 -0.271507 -0.948480
vn -0.423248 0.674069 -0.605386
vn -0.286525 0.002035 -0.958070
vn -0.437702 0.639675 -0.631849
vn 0.911965 0.331378 -0.241886
vn -0.718352 0.408273 0.563280
vn -0.302857 0.929396 0.210951
vn -0.320275 0.922518 0.215369
vn -0.296418 0.931842 0.209299
vn -0.318151 0.933082 0.167745
vn 0.996288 0.024242 -0.082596
vn -0.343537 0.139640 0.928700
vn 0.026562 0.444344 0.895462
vn 0.026507 0.484822 0.874211
vn 0.024808 0.473998 0.880176
vn 0.025809 0.439012 0.898111
vn 0.964095 -0.229491 0.133620
vn -0.418055 -0.495735 0.761234
vn 0.350819 -0.360498 0.864273
vn 0.363387 -0.414769 0.834216
vn 0.305162 -0.355971 0.883267
vn 0.277691 -0.314703 0.907662
vn 0.973512 -0.217744 -0.069732
vn -0.286378 -0.956411 -0.057144
vn 0.386800 -0.897039 0.213792
vn 0.385079 -0.897671 0.214246
vn 0.376019 -0.906470 0.192153
vn 0.479276 -0.876847 0.037870
vn 0.855592 -0.120282 -0.503482
vn -0.241951 -0.941019 -0.236523
vn 0.138044 -0.792801 -0.593641
vn 0.144211 -0.790507 -0.595232
vn 0.101944 -0.805104 -0.584306
vn 0.089636 -0.710653 -0.697809
vn -0.000000 0.267367 0.963595
vn 0.000000 0.129499 0.991580
vn 0.826550 0.146014 0.543594
vn 0.839872 0.156509 0.519731
vn 0.738259 0.565057 0.368354
vn 0.000000 0.717649 0.696405
vn 0.000000 0.968032 0.250827
vn 0.034195 0.984749 0.170589
vn 0.799109 0.595633 0.081527
vn 0.956124 0.219014 0.194575
vn 0.972420 0.180954 0.147156
vn 0.991951 0.124396 0.023633
vn 0.964317 0.260332 0.048175
vn 0.811324 0.576626 -0.096209
vn 0.800154 0.598184 -0.043923
vn 0.803375 0.535034 -0.261394
vn 0.906388 0.422208 -0.014206
vn 0.868246 0.490508 0.074497
vn 0.995405 0.092589 -0.024432
vn 0.986593 0.163138 -0.004457
vn 0.996259 0.080950 -0.030263
vn 0.531680 0.820437 0.210235
vn -0.826550 0.146014 0.543594
vn -0.839872 0.156509 0.519731
vn -0.738259 0.565057 0.368354
vn -0.799109 0.595633 0.081527
vn -0.956124 0.219014 0.194575
vn -0.972420 0.180954 0.147156
vn -0.990481 0.131309 0.041286
vn -0.960688 0.263711 0.086811
vn -0.793976 0.606751 -0.038146
vn -0.931102 -0.361874 0.045779
vn -0.691015 0.680331 -0.244229
vn -0.801224 0.595423 0.059261
vn -0.860101 0.510123 -0.000149
vn -0.985806 0.130587 -0.105512
vn -0.978592 0.193925 -0.068927
vn -0.995046 0.098456 0.013784
vn -0.286578 -0.905570 0.312754
vn -0.337004 0.170636 -0.925911
vn -0.341883 0.028281 -0.939317
vn -0.964347 0.047561 -0.260334
vn -0.969715 0.044890 -0.240079
vn -0.820281 0.518640 -0.241148
vn -0.269551 0.615530 -0.740585
vn -0.170240 0.867322 -0.467730
vn -0.160448 0.926178 -0.341250
vn -0.820547 0.565666 0.082004
vn -0.979131 0.173773 0.105379
vn -0.975874 0.146404 0.161974
vn -0.948881 0.116765 0.293241
vn -0.940790 0.244626 0.234674
vn -0.771212 0.584028 0.253263
vn -0.779742 0.594244 0.197171
vn -0.705523 0.577689 0.410502
vn -0.876996 0.415936 0.240573
vn -0.875687 0.464301 0.132651
vn -0.933784 0.095647 0.344817
vn -0.937204 0.160500 0.309659
vn -0.931809 0.085473 0.352742
vn -0.628291 0.758798 -0.171686
vn 0.571393 0.047560 -0.819297
vn 0.588525 0.044890 -0.807232
vn 0.473365 0.518640 -0.711996
vn 0.681286 0.565666 -0.464618
vn 0.817794 0.173774 -0.548649
vn 0.851678 0.146404 -0.503201
vn 0.907599 0.119856 -0.402367
vn 0.854956 0.239899 -0.459890
vn 0.715709 0.601423 -0.355037
vn 0.885368 -0.363484 -0.289834
vn 0.682669 0.716243 -0.144774
vn 0.690739 0.570090 -0.444834
vn 0.772006 0.499007 -0.393699
vn 0.952368 0.149670 -0.265693
vn 0.928845 0.204020 -0.309228
vn 0.923425 0.093438 -0.372231
vn 0.229061 -0.950806 -0.208563
# 204 normals

g Duplicate02
usemtl planks
s 1
f 2/1/1 1/2/2 5/3/3
f 18/4/4 2/1/1 5/3/3
f 19/5/5 18/4/4 5/3/3
f 19/5/5 5/3/3 6/6/6
f 7/7/7 19/5/5 6/6/6
f 8/8/8 19/5/5 7/7/7
f 8/8/8 21/9/9 19/5/5
f 21/9/9 20/10/10 19/5/5
f 20/10/10 18/4/4 19/5/5
f 20/10/10 3/11/11 2/1/1
f 20/10/10 2/1/1 18/4/4
f 22/12/12 3/11/11 20/10/10
f 22/12/12 4/13/13 3/11/11
f 23/14/14 22/12/12 20/10/10
f 11/15/15 23/14/14 21/9/9
f 21/9/9 23/14/14 20/10/10
f 8/8/8 11/15/15 21/9/9
f 8/8/8 10/16/16 11/15/15
f 10/16/16 12/17/17 11/15/15
f 12/17/17 13/18/18 14/19/19
f 11/15/15 12/17/17 14/19/19
f 11/15/15 14/19/19 23/14/14
f 13/18/18 15/20/20 14/19/19
f 14/19/19 15/20/20 16/21/21
f 23/14/14 14/19/19 16/21/21
f 23/14/14 17/22/22 22/12/12
f 22/12/12 17/22/22 4/13/13
f 10/16/16 8/8/8 9/23/23
f 5/3/3 1/2/2 24/1/24
f 5/3/3 24/1/24 36/4/25
f 5/3/3 36/4/25 37/5/26
f 6/6/6 5/3/3 37/5/26
f 6/6/6 37/5/26 7/7/7
f 7/7/7 37/5/26 8/8/8
f 37/5/26 39/9/27 8/8/8
f 37/5/26 38/10/28 39/9/27
f 37/5/26 36/4/25 38/10/28
f 24/1/24 25/11/29 38/10/28
f 36/4/25 24/1/24 38/10/28
f 38/10/28 25/11/29 40/12/30
f 25/11/29 26/13/31 40/12/30
f 38/10/28 40/12/30 41/14/32
f 39/9/27 41/14/32 29/15/33
f 38/10/28 41/14/32 39/9/27
f 39/9/27 29/15/33 8/8/8
f 29/15/33 28/16/34 8/8/8
f 29/15/33 30/17/35 28/16/34
f 32/19/36 31/18/37 30/17/35
f 32/19/36 30/17/35 29/15/33
f 41/14/32 32/19/36 29/15/33
f 32/19/36 33/20/38 31/18/37
f 34/21/39 33/20/38 32/19/36
f 34/21/39 32/19/36 41/14/32
f 40/12/30 35/22/40 41/14/32
f 26/13/31 35/22/40 40/12/30
f 27/23/41 8/8/8 28/16/34
# 56 triangles in group

g Duplicate03
usemtl planks
f 43/1/42 42/2/43 46/3/44
f 59/4/45 43/1/42 46/3/44
f 60/5/46 59/4/45 46/3/44
f 60/5/46 46/3/44 47/6/47
f 48/7/48 60/5/46 47/6/47
f 49/8/49 60/5/46 48/7/48
f 49/8/49 62/9/50 60/5/46
f 62/9/50 61/10/51 60/5/46
f 61/10/51 59/4/45 60/5/46
f 61/10/51 44/11/52 43/1/42
f 61/10/51 43/1/42 59/4/45
f 63/12/53 44/11/52 61/10/51
f 63/12/53 45/13/54 44/11/52
f 64/14/55 63/12/53 61/10/51
f 52/15/56 64/14/55 62/9/50
f 62/9/50 64/14/55 61/10/51
f 49/8/49 52/15/56 62/9/50
f 49/8/49 51/16/57 52/15/56
f 51/16/57 53/17/58 52/15/56
f 53/17/58 54/18/59 55/19/60
f 52/15/56 53/17/58 55/19/60
f 52/15/56 55/19/60 64/14/55
f 54/18/59 56/20/61 55/19/60
f 55/19/60 56/20/61 57/21/62
f 64/14/55 55/19/60 57/21/62
f 64/14/55 58/22/63 63/12/53
f 63/12/53 58/22/63 45/13/54
f 51/16/57 49/8/49 50/23/64
f 46/3/44 42/2/43 65/1/65
f 46/3/44 65/1/65 77/4/66
f 46/3/44 77/4/66 78/5/67
f 47/6/47 46/3/44 78/5/67
f 47/6/47 78/5/67 48/7/48
f 48/7/48 78/5/67 49/8/49
f 78/5/67 80/9/68 49/8/49
f 78/5/67 79/10/69 80/9/68
f 78/5/67 77/4/66 79/10/69
f 65/1/65 66/11/70 79/10/69
f 77/4/66 65/1/65 79/10/69
f 79/10/69 66/11/70 81/12/71
f 66/11/70 67/13/72 81/12/71
f 79/10/69 81/12/71 82/14/73
f 80/9/68 82/14/73 70/15/74
f 79/10/69 82/14/73 80/9/68
f 80/9/68 70/15/74 49/8/49
f 70/15/74 69/16/75 49/8/49
f 70/15/74 71/17/76 69/16/75
f 73/19/77 72/18/78 71/17/76
f 73/19/77 71/17/76 70/15/74
f 82/14/73 73/19/77 70/15/74
f 73/19/77 74/20/79 72/18/78
f 75/21/80 74/20/79 73/19/77
f 75/21/80 73/19/77 82/14/73
f 81/12/71 76/22/81 82/14/73
f 67/13/72 76/22/81 81/12/71
f 68/23/82 49/8/49 69/16/75
# 56 triangles in group

g Cylinder03
usemtl wood
s 2
f 83/24/83 87/24/84 112/24/85
f 86/24/86 111/24/87 90/24/88
s 1
f 83/25/89 84/26/90 87/27/91
f 84/26/90 88/28/92 87/27/91
f 84/26/90 85/29/93 89/30/94
f 84/26/90 89/30/94 88/28/92
f 85/29/93 86/24/95 89/30/94
f 86/24/95 90/31/96 89/30/94
s 2
f 87/24/84 91/24/97 112/24/85
f 90/24/88 111/24/87 94/24/98
s 1
f 87/27/91 88/28/92 92/32/99
f 87/27/91 92/32/99 91/33/100
f 88/28/92 89/30/94 92/32/99
f 89/30/94 93/34/101 92/32/99
f 89/30/94 90/31/96 94/35/102
f 89/30/94 94/35/102 93/34/101
s 2
f 91/24/97 95/24/103 112/24/85
f 94/24/98 111/24/87 98/24/104
s 1
f 91/33/100 92/32/99 95/36/105
f 92/32/99 96/37/106 95/36/105
f 92/32/99 93/34/101 97/38/107
f 92/32/99 97/38/107 96/37/106
f 93/34/101 94/35/102 97/38/107
f 94/35/102 98/39/108 97/38/107
s 2
f 95/24/103 99/24/109 112/24/85
f 98/24/104 111/24/87 102/24/110
s 1
f 95/36/105 96/37/106 100/40/111
f 95/36/105 100/40/111 99/41/112
f 96/37/106 97/38/107 100/40/111
f 97/38/107 101/42/113 100/40/111
f 97/38/107 98/39/108 102/43/114
f 97/38/107 102/43/114 101/42/113
s 2
f 99/24/109 103/24/115 112/24/85
f 102/24/110 111/24/87 106/24/116
s 1
f 99/41/112 100/40/111 103/44/117
f 100/40/111 104/45/118 103/44/117
f 100/40/111 101/42/113 105/46/119
f 100/40/111 105/46/119 104/45/118
f 101/42/113 102/43/114 105/46/119
f 102/43/114 106/47/120 105/46/119
s 2
f 103/24/115 107/24/121 112/24/85
f 106/24/116 111/24/87 110/24/122
s 1
f 103/44/117 104/45/118 108/48/123
f 103/44/117 108/48/123 107/49/124
f 104/45/118 105/46/119 108/48/123
f 105/46/119 109/50/125 108/48/123
f 105/46/119 106/47/120 110/51/126
f 105/46/119 110/51/126 109/50/125
s 2
f 107/24/121 83/24/83 112/24/85
f 110/24/122 111/24/87 86/24/86
s 1
f 107/49/124 108/48/123 83/52/89
f 108/48/123 84/53/90 83/52/89
f 108/48/123 109/50/125 85/54/93
f 108/48/123 85/54/93 84/53/90
f 109/50/125 110/51/126 85/54/93
f 110/51/126 86/55/95 85/54/93
# 56 triangles in group

g Duplicate05
usemtl planks
f 117/3/127 113/2/128 114/1/129
f 117/3/127 114/1/129 130/4/130
f 117/3/127 130/4/130 131/5/131
f 118/6/132 117/3/127 131/5/131
f 118/6/132 131/5/131 119/7/133
f 119/7/133 131/5/131 120/8/134
f 131/5/131 133/9/135 120/8/134
f 131/5/131 132/10/136 133/9/135
f 131/5/131 130/4/130 132/10/136
f 114/1/129 115/11/137 132/10/136
f 130/4/130 114/1/129 132/10/136
f 132/10/136 115/11/137 134/12/138
f 115/11/137 116/13/31 134/12/138
f 132/10/136 134/12/138 135/14/139
f 133/9/135 135/14/139 123/15/140
f 132/10/136 135/14/139 133/9/135
f 133/9/135 123/15/140 120/8/134
f 123/15/140 122/16/141 120/8/134
f 123/15/140 124/17/142 122/16/141
f 126/19/143 125/18/144 124/17/142
f 126/19/143 124/17/142 123/15/140
f 135/14/139 126/19/143 123/15/140
f 126/19/143 127/20/145 125/18/144
f 128/21/146 127/20/145 126/19/143
f 128/21/146 126/19/143 135/14/139
f 134/12/138 129/22/147 135/14/139
f 116/13/31 129/22/147 134/12/138
f 121/23/148 120/8/134 122/16/141
f 136/1/149 113/2/128 117/3/127
f 148/4/150 136/1/149 117/3/127
f 149/5/151 148/4/150 117/3/127
f 149/5/151 117/3/127 118/6/132
f 119/7/133 149/5/151 118/6/132
f 120/8/134 149/5/151 119/7/133
f 120/8/134 151/9/152 149/5/151
f 151/9/152 150/10/153 149/5/151
f 150/10/153 148/4/150 149/5/151
f 150/10/153 137/11/154 136/1/149
f 150/10/153 136/1/149 148/4/150
f 152/12/155 137/11/154 150/10/153
f 152/12/155 138/13/13 137/11/154
f 153/14/156 152/12/155 150/10/153
f 141/15/157 153/14/156 151/9/152
f 151/9/152 153/14/156 150/10/153
f 120/8/134 141/15/157 151/9/152
f 120/8/134 140/16/158 141/15/157
f 140/16/158 142/17/159 141/15/157
f 142/17/159 143/18/160 144/19/161
f 141/15/157 142/17/159 144/19/161
f 141/15/157 144/19/161 153/14/156
f 143/18/160 145/20/162 144/19/161
f 144/19/161 145/20/162 146/21/163
f 153/14/156 144/19/161 146/21/163
f 153/14/156 147/22/164 152/12/155
f 152/12/155 147/22/164 138/13/13
f 140/16/158 120/8/134 139/23/165
f 158/3/166 154/2/167 155/1/168
f 158/3/166 155/1/168 171/4/169
f 158/3/166 171/4/169 172/5/170
f 159/6/171 158/3/166 172/5/170
f 159/6/171 172/5/170 160/7/172
f 160/7/172 172/5/170 161/8/173
f 172/5/170 174/9/174 161/8/173
f 172/5/170 173/10/175 174/9/174
f 172/5/170 171/4/169 173/10/175
f 155/1/168 156/11/176 173/10/175
f 171/4/169 155/1/168 173/10/175
f 173/10/175 156/11/176 175/12/177
f 156/11/176 157/13/72 175/12/177
f 173/10/175 175/12/177 176/14/178
f 174/9/174 176/14/178 164/15/179
f 173/10/175 176/14/178 174/9/174
f 174/9/174 164/15/179 161/8/173
f 164/15/179 163/16/180 161/8/173
f 164/15/179 165/17/181 163/16/180
f 167/19/182 166/18/183 165/17/181
f 167/19/182 165/17/181 164/15/179
f 176/14/178 167/19/182 164/15/179
f 167/19/182 168/20/184 166/18/183
f 169/21/185 168/20/184 167/19/182
f 169/21/185 167/19/182 176/14/178
f 175/12/177 170/22/186 176/14/178
f 157/13/72 170/22/186 175/12/177
f 162/23/187 161/8/173 163/16/180
f 177/1/188 154/2/167 158/3/166
f 189/4/189 177/1/188 158/3/166
f 190/5/190 189/4/189 158/3/166
f 190/5/190 158/3/166 159/6/171
f 160/7/172 190/5/190 159/6/171
f 161/8/173 190/5/190 160/7/172
f 161/8/173 192/9/191 190/5/190
f 192/9/191 191/10/192 190/5/190
f 191/10/192 189/4/189 190/5/190
f 191/10/192 178/11/193 177/1/188
f 191/10/192 177/1/188 189/4/189
f 193/12/194 178/11/193 191/10/192
f 193/12/194 179/13/54 178/11/193
f 194/14/195 193/12/194 191/10/192
f 182/15/196 194/14/195 192/9/191
f 192/9/191 194/14/195 191/10/192
f 161/8/173 182/15/196 192/9/191
f 161/8/173 181/16/197 182/15/196
f 181/16/197 183/17/198 182/15/196
f 183/17/198 184/18/199 185/19/200
f 182/15/196 183/17/198 185/19/200
f 182/15/196 185/19/200 194/14/195
f 184/18/199 186/20/201 185/19/200
f 185/19/200 186/20/201 187/21/202
f 194/14/195 185/19/200 187/21/202
f 194/14/195 188/22/203 193/12/194
f 193/12/194 188/22/203 179/13/54
f 181/16/197 161/8/173 180/23/204
# 112 triangles in group

# 280 triangles total

