# Wavefront OBJ exported by MilkShape 3D

mtllib yacht01.mtl

v -0.345138 7.126938 -50.926315
v 10.302987 7.128872 -37.676315
v -0.345138 0.698627 -43.676315
v -0.345138 -5.622608 -33.926315
v 11.697698 3.269955 -22.926311
v -0.345138 -8.193935 -19.176311
v 15.536494 2.305706 -6.426314
v -0.345138 -8.515347 1.073685
v 15.536494 4.555614 21.823689
v -0.345138 -8.193935 13.823685
v 15.536494 4.169529 75.073685
v -0.345138 -8.258602 72.323685
v -0.345138 -7.858597 82.723709
v -0.345138 4.890942 82.973709
v -10.993264 7.128872 -37.676315
v -12.387975 3.269955 -22.926311
v -16.226770 2.305706 -6.426314
v -16.226770 4.555614 21.823689
v -16.226770 4.169529 75.073685
# 19 vertices

vt 0.910122 0.143150
vt 0.824072 0.143169
vt 0.863039 0.080320
vt 0.799719 0.033197
vt 0.728281 0.105452
vt 0.703927 0.008065
vt 0.621124 0.096027
vt 0.572417 0.004923
vt 0.437659 0.118018
vt 0.489614 0.008065
vt 0.091836 0.114244
vt 0.109695 0.007433
vt 0.012280 0.007433
vt 0.010657 0.117386
# 14 texture coordinates

vn 0.000000 -0.748236 -0.663433
vn 0.664053 -0.635189 -0.394423
vn 0.000000 -0.796041 -0.605242
vn 0.000000 -0.933039 -0.359775
vn 0.673333 -0.715088 -0.187807
vn 0.000000 -0.989626 -0.143671
vn 0.599536 -0.798931 -0.047602
vn 0.000000 -0.999570 0.029338
vn 0.610464 -0.791609 0.026239
vn 0.000000 -0.999984 0.005642
vn 0.670734 -0.691610 0.267939
vn 0.000000 -0.999825 0.018703
vn 0.000000 -0.657171 0.753742
vn 0.000000 -0.019605 0.999808
vn -0.664053 -0.635189 -0.394423
vn -0.673333 -0.715088 -0.187807
vn -0.599536 -0.798931 -0.047602
vn -0.610464 -0.791609 0.026239
vn -0.670734 -0.691610 0.267939
# 19 normals

g hull
usemtl Material02
s 1
f 1/1/1 2/2/2 3/3/3
f 3/3/3 2/2/2 4/4/4
f 4/4/4 5/5/5 6/6/6
f 2/2/2 5/5/5 4/4/4
f 7/7/7 8/8/8 6/6/6
f 5/5/5 7/7/7 6/6/6
f 9/9/9 10/10/10 8/8/8
f 7/7/7 9/9/9 8/8/8
f 11/11/11 12/12/12 10/10/10
f 9/9/9 11/11/11 10/10/10
f 12/12/12 11/11/11 13/13/13
f 14/14/14 13/13/13 11/11/11
f 3/3/3 15/2/15 1/1/1
f 4/4/4 15/2/15 3/3/3
f 6/6/6 16/5/16 4/4/4
f 4/4/4 16/5/16 15/2/15
f 6/6/6 8/8/8 17/7/17
f 6/6/6 17/7/17 16/5/16
f 8/8/8 10/10/10 18/9/18
f 8/8/8 18/9/18 17/7/17
f 10/10/10 12/12/12 19/11/19
f 10/10/10 19/11/19 18/9/18
f 13/13/13 19/11/19 12/12/12
f 19/11/19 13/13/13 14/14/14
# 24 triangles in group

# 24 triangles total

